<?xml version="1.0" encoding="UTF-8"?>
<svg width="24px" height="24px" viewBox="0 0 24 24" version="1.1" xmlns="http://www.w3.org/2000/svg" xmlns:xlink="http://www.w3.org/1999/xlink">
    <title>sensor_window</title>
    <defs>
        <path d="M18,3.99999997 L18,20 L5.99999997,20 L5.99999997,3.99999997 L18,3.99999997 M18,1.99999996 L5.99999997,1.99999996 C4.89999997,1.99999996 3.99999997,2.89999996 3.99999997,3.99999996 L3.99999997,20 C3.99999997,21.1 4.89999997,22 5.99999997,22 L18,22 C19.1,22 20,21.1 20,20 L20,3.99999996 C20,2.89999996 19.1,1.99999996 18,1.99999996 L18,1.99999996 Z M6.99999998,19 L17,19 L17,13 L6.99999998,13 L6.99999998,19 Z M9.99999998,9.99999997 L14,9.99999997 L14,11 L17,11 L17,4.99999997 L6.99999998,4.99999997 L6.99999998,11 L9.99999998,11 L9.99999998,9.99999997 Z" id="path-1"></path>
    </defs>
    <g id="sensor_window" stroke="none" stroke-width="1" fill="none" fill-rule="evenodd">
        <mask id="mask-2" fill="white">
            <use xlink:href="#path-1"></use>
        </mask>
        <use id="Combined-Shape" fill="#000000" xlink:href="#path-1"></use>
    </g>
</svg>