<?xml version="1.0" encoding="UTF-8"?>
<svg viewBox="0 0 305 304" version="1.1" xmlns="http://www.w3.org/2000/svg" xmlns:xlink="http://www.w3.org/1999/xlink">
    <!-- Generator: Sketch 56.3 (81716) - https://sketch.com -->
    <title>Artboard</title>
    <desc>Created with Sketch.</desc>
    <g id="Artboard" stroke="none" stroke-width="1" fill="none" fill-rule="evenodd">
        <g id="abstract-black-wordmark-rgb" fill-rule="nonzero">
            <path d="M152.3,304 C273.9,304 304.3,273.6 304.3,152 C304.3,30.4 273.9,0 152.3,0 C30.7,0 0.3,30.4 0.3,152 C0.3,273.6 30.7,304 152.3,304 L152.3,304 Z" id="Shape" fill="#191A1B"></path>
            <polygon id="Path" fill="#FFFFFF" points="233.05 232.75 204.55 232.75 204.55 99.75 71.55 99.75 71.55 71.25 233.05 71.25"></polygon>
            <path d="M127.36,235.12 C103.823432,235.12 82.6046141,220.941379 73.598494,199.196039 C64.5923738,177.450698 69.5726963,152.421357 86.2169933,135.779921 C102.86129,119.138484 127.891487,114.162463 149.635279,123.172321 C171.379071,132.182178 185.554045,153.403432 185.550001,176.94 C185.511418,209.059836 159.479842,235.086938 127.36,235.12 M127.36,147.25 C110.962666,147.25 97.67,160.542666 97.67,176.94 C97.67,193.337334 110.962666,206.63 127.36,206.63 C143.757334,206.63 157.05,193.337334 157.05,176.94 C157.027965,160.551801 143.748199,147.272035 127.36,147.25" id="Shape" fill="#FFFFFF"></path>
        </g>
    </g>
</svg>
