<?xml version="1.0" encoding="UTF-8"?>
<svg width="24px" height="24px" viewBox="0 0 24 24" version="1.1" xmlns="http://www.w3.org/2000/svg" xmlns:xlink="http://www.w3.org/1999/xlink">
    <title>chart_dot</title>
    <defs>
        <path d="M12,17.4444444 C13.2248469,17.4444444 14.2222222,18.4418198 14.2222222,19.6666667 C14.2222222,20.8915136 13.2248469,21.8888889 12,21.8888889 C10.7751531,21.8888889 9.77777778,20.8915136 9.77777778,19.6666667 C9.77777778,18.4418198 10.7751531,17.4444444 12,17.4444444 Z M4.22222222,17.4444444 C5.44706912,17.4444444 6.44444444,18.4418198 6.44444444,19.6666667 C6.44444444,20.8915136 5.44706912,21.8888889 4.22222222,21.8888889 C2.99737533,21.8888889 2,20.8915136 2,19.6666667 C2,18.4418198 2.99737533,17.4444444 4.22222222,17.4444444 Z M19.7777778,17.4444444 C21.0026247,17.4444444 22,18.4418198 22,19.6666667 C22,20.8915136 21.0026247,21.8888889 19.7777778,21.8888889 C18.5529309,21.8888889 17.5555556,20.8915136 17.5555556,19.6666667 C17.5555556,18.4418198 18.5529309,17.4444444 19.7777778,17.4444444 Z M12,10.2222222 C13.2248469,10.2222222 14.2222222,11.2195976 14.2222222,12.4444444 C14.2222222,13.6692913 13.2248469,14.6666667 12,14.6666667 C10.7751531,14.6666667 9.77777778,13.6692913 9.77777778,12.4444444 C9.77777778,11.2195976 10.7751531,10.2222222 12,10.2222222 Z M19.7777778,10.2222222 C21.0026247,10.2222222 22,11.2195976 22,12.4444444 C22,13.6692913 21.0026247,14.6666667 19.7777778,14.6666667 C18.5529309,14.6666667 17.5555556,13.6692913 17.5555556,12.4444444 C17.5555556,11.2195976 18.5529309,10.2222222 19.7777778,10.2222222 Z M12,3 C13.2248469,3 14.2222222,3.99737533 14.2222222,5.22222222 C14.2222222,6.44706912 13.2248469,7.44444444 12,7.44444444 C10.7751531,7.44444444 9.77777778,6.44706912 9.77777778,5.22222222 C9.77777778,3.99737533 10.7751531,3 12,3 Z" id="path-1"></path>
    </defs>
    <g id="chart_dot" stroke="none" stroke-width="1" fill="none" fill-rule="evenodd">
        <mask id="mask-2" fill="white">
            <use xlink:href="#path-1"></use>
        </mask>
        <use id="path-1" fill="#000000" xlink:href="#path-1"></use>
    </g>
</svg>