<svg height="24" viewBox="0 0 24 24" width="24" xmlns="http://www.w3.org/2000/svg"><path d="m3 2c.553 0 1 .448 1 1v17h17c.5135 0 .935602.3854235.9932824.8832467l.0067176.1167533c0 .553-.447 1-1 1h-18c-.553 0-1-.447-1-1v-18c0-.552.447-1 1-1zm5 12c1.104 0 2 .896 2 2s-.896 2-2 2-2-.896-2-2 .896-2 2-2zm4-4c1.104 0 2 .896 2 2s-.896 2-2 2-2-.896-2-2 .896-2 2-2zm3-5c1.104 0 2 .896 2 2s-.896 2-2 2-2-.896-2-2 .896-2 2-2zm5-3c1.104 0 2 .896 2 2s-.896 2-2 2-2-.896-2-2 .896-2 2-2z" fill-rule="evenodd"/></svg>