<?xml version="1.0" encoding="UTF-8"?>
<svg width="24px" height="24px" viewBox="0 0 24 24" version="1.1" xmlns="http://www.w3.org/2000/svg" xmlns:xlink="http://www.w3.org/1999/xlink">
    <title>app_settings_alt</title>
    <defs>
        <path d="M21.81,12.74 L20.99,12.11 C20.99,12.02 20.99,11.98 20.99,11.89 L21.79,11.26 C21.95,11.14 21.99,10.92 21.89,10.75 L21.04,9.26999999 C20.97,9.13999999 20.83,9.06999999 20.69,9.06999999 C20.64,9.06999999 20.59,9.07999999 20.54,9.09999999 L19.59,9.47999999 C19.51,9.42999999 19.48,9.40999999 19.4,9.36999999 L19.25,8.35999998 C19.22,8.14999998 19.05,7.99999998 18.85,7.99999998 L17.14,7.99999998 C16.94,7.99999998 16.77,8.14999998 16.74,8.33999998 L16.6,9.34999999 C16.57,9.36999999 16.53,9.37999999 16.5,9.39999999 C16.47,9.41999999 16.44,9.43999999 16.41,9.45999999 L15.46,9.07999999 C15.41,9.05999999 15.36,9.04999999 15.31,9.04999999 C15.17,9.04999999 15.04,9.11999999 14.96,9.24999999 L14.11,10.73 C14.01,10.9 14.05,11.12 14.21,11.24 L15.01,11.87 C15.01,11.96 15.01,12 15.01,12.1 L14.21,12.73 C14.05,12.85 14.01,13.07 14.11,13.24 L14.96,14.72 C15.03,14.85 15.17,14.92 15.31,14.92 C15.36,14.92 15.41,14.91 15.46,14.89 L16.41,14.52 C16.49,14.57 16.53,14.59 16.61,14.63 L16.76,15.64 C16.79,15.84 16.96,15.98 17.16,15.98 L18.87,15.98 C19.07,15.98 19.24,15.83 19.27,15.64 L19.42,14.63 C19.45,14.61 19.49,14.6 19.52,14.58 C19.55,14.56 19.58,14.54 19.61,14.52 L20.56,14.9 C20.61,14.92 20.66,14.93 20.71,14.93 C20.85,14.93 20.98,14.86 21.06,14.73 L21.91,13.25 C22.01,13.08 21.97,12.86 21.81,12.74 Z M18,13.5 C17.17,13.5 16.5,12.83 16.5,12 C16.5,11.17 17.17,10.5 18,10.5 C18.83,10.5 19.5,11.17 19.5,12 C19.5,12.83 18.83,13.5 18,13.5 Z M17,17 L19,17 L19,21 C19,22.1 18.1,23 17,23 L6.99999997,23 C5.89999997,23 4.99999997,22.1 4.99999997,21 L4.99999997,2.99999995 C4.99999997,1.89999996 5.89999997,0.999999954 6.99999997,0.999999954 L17,0.999999954 C18.1,0.999999954 19,1.89999996 19,2.99999995 L19,6.99999995 L17,6.99999995 L17,5.99999995 L6.99999997,5.99999995 L6.99999997,18 L17,18 L17,17 Z" id="path-1"></path>
    </defs>
    <g id="app_settings_alt" stroke="none" stroke-width="1" fill="none" fill-rule="evenodd">
        <mask id="mask-2" fill="white">
            <use xlink:href="#path-1"></use>
        </mask>
        <use id="Combined-Shape" fill="#000000" xlink:href="#path-1"></use>
    </g>
</svg>