<?xml version="1.0" encoding="UTF-8"?>
<svg width="24px" height="24px" viewBox="0 0 24 24" version="1.1" xmlns="http://www.w3.org/2000/svg" xmlns:xlink="http://www.w3.org/1999/xlink">
    <title>first_page</title>
    <defs>
        <path d="M17.7,15.89 L13.82,12 L17.71,8.10999998 C18.1,7.71999998 18.1,7.08999998 17.71,6.69999998 C17.32,6.30999998 16.69,6.30999998 16.3,6.69999998 L11.71,11.29 C11.32,11.68 11.32,12.31 11.71,12.7 L16.3,17.29 C16.69,17.68 17.32,17.68 17.71,17.29 C18.09,16.91 18.09,16.27 17.7,15.89 L17.7,15.89 Z M6.99999998,5.99999998 C7.54999998,5.99999998 7.99999998,6.44999998 7.99999998,6.99999998 L7.99999998,17 C7.99999998,17.55 7.54999998,18 6.99999998,18 C6.44999998,18 5.99999998,17.55 5.99999998,17 L5.99999998,6.99999998 C5.99999998,6.44999998 6.44999998,5.99999998 6.99999998,5.99999998 Z" id="path-1"></path>
    </defs>
    <g id="first_page" stroke="none" stroke-width="1" fill="none" fill-rule="evenodd">
        <mask id="mask-2" fill="white">
            <use xlink:href="#path-1"></use>
        </mask>
        <use id="Combined-Shape" fill="#000000" xlink:href="#path-1"></use>
    </g>
</svg>