<?xml version="1.0" encoding="UTF-8"?>
<svg width="24px" height="24px" viewBox="0 0 24 24" version="1.1" xmlns="http://www.w3.org/2000/svg" xmlns:xlink="http://www.w3.org/1999/xlink">
    <title>sort-double-arrow</title>
    <defs>
        <path d="M6.91910539,2.2721929 C7.28202925,1.90926903 7.87032837,1.90926903 8.23325224,2.2721929 L8.23325224,2.2721929 L12.8801647,6.91910539 C13.2430886,7.28202925 13.2430886,7.87032837 12.8801647,8.23325224 C12.6989351,8.41494652 12.4610132,8.50556131 12.2230913,8.50556131 C11.9851694,8.50556131 11.7472475,8.41448182 11.5660179,8.23325224 L11.5660179,8.23325224 L8.50556131,5.17279567 L8.50556131,20.8477005 C8.50556131,21.3611843 8.08966264,21.777083 7.57617881,21.777083 C7.06269498,21.777083 6.64679631,21.3611843 6.64679631,20.8477005 L6.64679631,20.8477005 L6.64679631,5.17279567 L3.58633975,8.23325224 C3.22341588,8.5961761 2.63511676,8.5961761 2.2721929,8.23325224 C1.90926903,7.87032837 1.90926903,7.28202925 2.2721929,6.91910539 L2.2721929,6.91910539 Z M16.4238212,2 C16.937305,2 17.3532037,2.41589867 17.3532037,2.9293825 L17.3532037,18.6042873 L20.4136602,15.5438307 C20.5948898,15.3626011 20.8328118,15.2715217 21.0707337,15.2715217 C21.3086556,15.2715217 21.5465775,15.3621364 21.7278071,15.5438307 C22.090731,15.9067546 22.090731,16.4950537 21.7278071,16.8579776 L17.0808946,21.5048901 C16.7179707,21.8678139 16.1296716,21.8678139 15.7667478,21.5048901 L11.1198353,16.8579776 C10.7569114,16.4950537 10.7569114,15.9067546 11.1198353,15.5438307 C11.4827591,15.1809069 12.0710583,15.1809069 12.4339821,15.5438307 L15.4944387,18.6042873 L15.4944387,2.9293825 C15.4944387,2.41589867 15.9103374,2 16.4238212,2 Z" id="path-1"></path>
    </defs>
    <g id="sort-double-arrow" stroke="none" stroke-width="1" fill="none" fill-rule="evenodd">
        <mask id="mask-2" fill="white">
            <use xlink:href="#path-1"></use>
        </mask>
        <use id="Combined-Shape" fill="#000000" xlink:href="#path-1"></use>
    </g>
</svg>