<?xml version="1.0" encoding="UTF-8"?>
<svg width="24px" height="24px" viewBox="0 0 24 24" version="1.1" xmlns="http://www.w3.org/2000/svg" xmlns:xlink="http://www.w3.org/1999/xlink">
    <title>subdirectory_arrow_left</title>
    <defs>
        <path d="M5.70999997,15.71 L10.29,20.29 C10.68,20.68 11.32,20.68 11.71,20.29 C12.1,19.9 12.1,19.26 11.71,18.87 L8.82999999,16 L19,16 C19.55,16 20,15.55 20,15 L20,4.99999997 C20,4.44999997 19.55,3.99999997 19,3.99999997 C18.45,3.99999997 18,4.44999997 18,4.99999997 L18,14 L8.82999999,14 L11.71,11.13 C12.1,10.74 12.1,10.1 11.71,9.70999999 C11.32,9.31999999 10.68,9.31999999 10.29,9.70999999 L5.70999997,14.29 C5.31999997,14.68 5.31999997,15.32 5.70999997,15.71 Z" id="path-1"></path>
    </defs>
    <g id="subdirectory_arrow_left" stroke="none" stroke-width="1" fill="none" fill-rule="evenodd">
        <mask id="mask-2" fill="white">
            <use xlink:href="#path-1"></use>
        </mask>
        <use id="Combined-Shape" fill="#000000" xlink:href="#path-1"></use>
    </g>
</svg>