<?xml version="1.0" encoding="UTF-8"?>
<svg width="24px" height="24px" viewBox="0 0 24 24" version="1.1" xmlns="http://www.w3.org/2000/svg" xmlns:xlink="http://www.w3.org/1999/xlink">
    <title>unfold_more</title>
    <defs>
        <path d="M12,5.82999997 L14.46,8.28999998 C14.85,8.67999999 15.48,8.67999999 15.87,8.28999998 C16.26,7.89999998 16.26,7.26999998 15.87,6.87999998 L12.7,3.69999997 C12.31,3.30999996 11.68,3.30999996 11.29,3.69999997 L8.11999998,6.87999998 C7.72999998,7.26999998 7.72999998,7.89999998 8.11999998,8.28999998 C8.50999999,8.67999999 9.13999999,8.67999999 9.52999999,8.28999998 L12,5.82999997 Z M12,18.17 L9.53999999,15.71 C9.14999999,15.32 8.51999999,15.32 8.12999998,15.71 C7.73999998,16.1 7.73999998,16.73 8.12999998,17.12 L11.3,20.3 C11.69,20.69 12.32,20.69 12.71,20.3 L15.88,17.13 C16.27,16.74 16.27,16.11 15.88,15.72 C15.49,15.33 14.86,15.33 14.47,15.72 L12,18.17 Z" id="path-1"></path>
    </defs>
    <g id="unfold_more" stroke="none" stroke-width="1" fill="none" fill-rule="evenodd">
        <mask id="mask-2" fill="white">
            <use xlink:href="#path-1"></use>
        </mask>
        <use id="Combined-Shape" fill="#000000" xlink:href="#path-1"></use>
    </g>
</svg>