<?xml version="1.0" encoding="UTF-8"?>
<svg width="24px" height="24px" viewBox="0 0 24 24" version="1.1" xmlns="http://www.w3.org/2000/svg" xmlns:xlink="http://www.w3.org/1999/xlink">
    <title>unfold_less</title>
    <defs>
        <path d="M8.11999998,19.3 C8.50999999,19.69 9.13999999,19.69 9.52999999,19.3 L12,16.83 L14.47,19.3 C14.86,19.69 15.49,19.69 15.88,19.3 C16.27,18.91 16.27,18.28 15.88,17.89 L12.71,14.72 C12.32,14.33 11.69,14.33 11.3,14.72 L8.12999998,17.89 C7.72999998,18.27 7.72999998,18.91 8.11999998,19.3 L8.11999998,19.3 Z M15.88,4.69999997 C15.49,4.30999997 14.86,4.30999997 14.47,4.69999997 L12,7.16999998 L9.52999999,4.69999997 C9.13999999,4.30999997 8.50999999,4.30999997 8.11999998,4.69999997 C7.72999998,5.08999997 7.72999998,5.72999997 8.11999998,6.11999998 L11.29,9.28999999 C11.68,9.67999999 12.31,9.67999999 12.7,9.28999999 L15.87,6.11999998 C16.27,5.72999997 16.27,5.08999997 15.88,4.69999997 L15.88,4.69999997 Z" id="path-1"></path>
    </defs>
    <g id="unfold_less" stroke="none" stroke-width="1" fill="none" fill-rule="evenodd">
        <mask id="mask-2" fill="white">
            <use xlink:href="#path-1"></use>
        </mask>
        <use id="Combined-Shape" fill="#000000" xlink:href="#path-1"></use>
    </g>
</svg>