<?xml version="1.0" encoding="UTF-8"?>
<svg width="24px" height="24px" viewBox="0 0 24 24" version="1.1" xmlns="http://www.w3.org/2000/svg" xmlns:xlink="http://www.w3.org/1999/xlink">
    <title>west</title>
    <defs>
        <path d="M9.69999999,18.3 L9.69999999,18.3 C10.09,17.91 10.09,17.28 9.69999999,16.89 L5.82999997,13 L21,13 C21.55,13 22,12.55 22,12 L22,12 C22,11.45 21.55,11 21,11 L5.82999997,11 L9.70999999,7.11999998 C10.1,6.72999998 10.1,6.09999998 9.70999999,5.70999997 L9.70999999,5.70999997 C9.31999999,5.31999997 8.68999999,5.31999997 8.29999998,5.70999997 L2.69999996,11.3 C2.30999996,11.69 2.30999996,12.32 2.69999996,12.71 L8.28999998,18.3 C8.67999999,18.68 9.31999999,18.68 9.69999999,18.3 Z" id="path-1"></path>
    </defs>
    <g id="west" stroke="none" stroke-width="1" fill="none" fill-rule="evenodd">
        <mask id="mask-2" fill="white">
            <use xlink:href="#path-1"></use>
        </mask>
        <use id="Combined-Shape" fill="#000000" xlink:href="#path-1"></use>
    </g>
</svg>