<?xml version="1.0" encoding="UTF-8"?>
<svg width="24px" height="24px" viewBox="0 0 24 24" version="1.1" xmlns="http://www.w3.org/2000/svg" xmlns:xlink="http://www.w3.org/1999/xlink">
    <title>auto_delete</title>
    <defs>
        <path d="M12,4.99999997 C13.1,4.99999997 14,5.89999997 14,6.99999997 L14,6.99999997 L14,9.28999999 C14.63,9.09999999 15.3,8.99999997 16,8.99999997 C19.87,8.99999997 23,12.13 23,16 C23,19.87 19.87,23 16,23 C13.21,23 10.8,21.36 9.67999999,19 L9.67999999,19 L3.99999996,19 C2.89999996,19 1.99999996,18.1 1.99999996,17 L1.99999996,17 L1.99999996,6.99999997 C1.99999996,5.89999997 2.89999996,4.99999997 3.99999996,4.99999997 L3.99999996,4.99999997 Z M16,11 C13.24,11 11,13.24 11,16 C11,18.76 13.24,21 16,21 C18.76,21 21,18.76 21,16 C21,13.24 18.76,11 16,11 Z M15.75,12 L15.8508854,12.0069271 C16.2143056,12.0571528 16.5,12.3741667 16.5,12.75 L16.5,12.75 L16.5,16.2 L18.74,17.52 C19.1,17.73 19.21,18.2 18.98,18.54 L18.98,18.54 L18.911,18.62662 C18.6869,18.8671 18.317,18.931 18.02,18.76 L18.02,18.76 L15.5,17.29 C15.19,17.11 15,16.79 15,16.43 L15,16.43 L15,12.75 C15,12.34 15.34,12 15.75,12 L15.75,12 Z M10.09,0.999999954 C10.35,0.999999954 10.61,1.10999995 10.79,1.28999996 L10.79,1.28999996 L11.5,1.99999995 L14,1.99999995 C14.55,1.99999995 15,2.44999996 15,2.99999995 C15,3.54999996 14.55,3.99999995 14,3.99999995 L14,3.99999995 L1.99999995,3.99999995 C1.44999996,3.99999995 0.999999954,3.54999996 0.999999954,2.99999995 C0.999999954,2.44999996 1.44999996,1.99999995 1.99999995,1.99999995 L1.99999995,1.99999995 L4.49999995,1.99999995 L5.20999997,1.28999996 C5.38999997,1.10999995 5.64999997,0.999999954 5.90999997,0.999999954 L5.90999997,0.999999954 Z" id="path-1"></path>
    </defs>
    <g id="auto_delete" stroke="none" stroke-width="1" fill="none" fill-rule="evenodd">
        <mask id="mask-2" fill="white">
            <use xlink:href="#path-1"></use>
        </mask>
        <use id="Combined-Shape" fill="#000000" xlink:href="#path-1"></use>
    </g>
</svg>