<?xml version="1.0" encoding="UTF-8"?>
<svg width="24px" height="24px" viewBox="0 0 24 24" version="1.1" xmlns="http://www.w3.org/2000/svg" xmlns:xlink="http://www.w3.org/1999/xlink">
    <title>error</title>
    <defs>
        <path d="M12,1.99999996 C6.47999998,1.99999996 1.99999996,6.47999998 1.99999996,12 C1.99999996,17.52 6.47999998,22 12,22 C17.52,22 22,17.52 22,12 C22,6.47999998 17.52,1.99999996 12,1.99999996 Z M12,13 C11.45,13 11,12.55 11,12 L11,7.99999998 C11,7.44999998 11.45,6.99999998 12,6.99999998 C12.55,6.99999998 13,7.44999998 13,7.99999998 L13,12 C13,12.55 12.55,13 12,13 Z M13,17 L11,17 L11,15 L13,15 L13,17 Z" id="path-1"></path>
    </defs>
    <g id="error" stroke="none" stroke-width="1" fill="none" fill-rule="evenodd">
        <mask id="mask-2" fill="white">
            <use xlink:href="#path-1"></use>
        </mask>
        <use fill="#000000" xlink:href="#path-1"></use>
    </g>
</svg>