<?xml version="1.0" encoding="UTF-8"?>
<svg width="24px" height="24px" viewBox="0 0 24 24" version="1.1" xmlns="http://www.w3.org/2000/svg" xmlns:xlink="http://www.w3.org/1999/xlink">
    <title>6_ft_apart</title>
    <defs>
        <path d="M5.99999997,5.99999996 C7.09999998,5.99999996 7.99999997,5.09999997 7.99999997,3.99999996 C7.99999997,2.89999996 7.09999998,1.99999996 5.99999997,1.99999996 C4.89999997,1.99999996 3.99999997,2.89999996 3.99999997,3.99999996 C3.99999997,5.09999997 4.89999997,5.99999996 5.99999997,5.99999996 Z M9.99999996,9.42999999 C9.99999996,8.61999999 9.51999999,7.89999998 8.77999999,7.57999998 C7.92999998,7.20999998 6.98999998,6.99999998 5.99999996,6.99999998 C5.00999997,6.99999998 4.06999997,7.20999998 3.21999996,7.57999998 C2.47999996,7.89999998 1.99999996,8.61999999 1.99999996,9.42999999 L1.99999996,9.99999998 L9.99999996,9.99999998 L9.99999996,9.42999999 Z M18,5.99999996 C19.1,5.99999996 20,5.09999997 20,3.99999996 C20,2.89999996 19.1,1.99999996 18,1.99999996 C16.9,1.99999996 16,2.89999996 16,3.99999996 C16,5.09999997 16.9,5.99999996 18,5.99999996 Z M22,9.42999999 C22,8.61999999 21.52,7.89999998 20.78,7.57999998 C19.93,7.20999998 18.99,6.99999998 18,6.99999998 C17.01,6.99999998 16.07,7.20999998 15.22,7.57999998 C14.48,7.89999998 14,8.61999999 14,9.42999999 L14,9.99999998 L22,9.99999998 L22,9.42999999 Z M21.65,14.35 L19.86,16.14 C19.54,16.46 19,16.24 19,15.79 L19,14.99 L4.99999997,15 L4.99999997,15.79 C4.99999997,16.24 4.45999997,16.46 4.14999997,16.14 L2.35999996,14.35 C2.15999996,14.15 2.15999996,13.84 2.35999996,13.64 L4.14999997,11.85 C4.45999997,11.54 4.99999997,11.76 4.99999997,12.21 L4.99999997,13.01 L19,13 L19,12.21 C19,11.76 19.54,11.54 19.85,11.86 L21.64,13.65 C21.84,13.84 21.84,14.16 21.65,14.35 Z M9.99999998,18.5 L9.99999998,18.5 C9.99999998,18.22 9.77999999,18 9.49999998,18 L7.49999998,18 C7.21999998,18 6.99999998,18.22 6.99999998,18.5 L6.99999998,21.5 C6.99999998,21.78 7.21999998,22 7.49999998,22 L9.49999998,22 C9.77999999,22 9.99999998,21.78 9.99999998,21.5 L9.99999998,20 C9.99999998,19.72 9.77999999,19.5 9.49999998,19.5 L7.99999998,19.5 L7.99999998,19 L9.49999998,19 C9.77999999,19 9.99999998,18.78 9.99999998,18.5 Z M8.99999998,20.5 L8.99999998,21 L7.99999998,21 L7.99999998,20.5 L8.99999998,20.5 Z M17,19 L16.5,19 L16.5,21.5 C16.5,21.78 16.28,22 16,22 L16,22 C15.72,22 15.5,21.78 15.5,21.5 L15.5,19 L15,19 C14.72,19 14.5,18.78 14.5,18.5 L14.5,18.5 C14.5,18.22 14.72,18 15,18 L17,18 C17.28,18 17.5,18.22 17.5,18.5 L17.5,18.5 C17.5,18.78 17.28,19 17,19 Z M14,18.5 C14,18.78 13.78,19 13.5,19 L12.5,19 L12.5,19.5 L13,19.5 C13.28,19.5 13.5,19.72 13.5,20 C13.5,20.28 13.28,20.5 13,20.5 L12.5,20.5 L12.5,21.5 C12.5,21.78 12.28,22 12,22 C11.72,22 11.5,21.78 11.5,21.5 L11.5,18.5 C11.5,18.22 11.72,18 12,18 L13.5,18 C13.78,18 14,18.22 14,18.5 Z" id="path-1"></path>
    </defs>
    <g id="6_ft_apart" stroke="none" stroke-width="1" fill="none" fill-rule="evenodd">
        <mask id="mask-2" fill="white">
            <use xlink:href="#path-1"></use>
        </mask>
        <use id="Combined-Shape" fill="#000000" xlink:href="#path-1"></use>
    </g>
</svg>