<?xml version="1.0" encoding="UTF-8"?>
<svg width="24px" height="24px" viewBox="0 0 24 24" version="1.1" xmlns="http://www.w3.org/2000/svg" xmlns:xlink="http://www.w3.org/1999/xlink">
    <title>cake</title>
    <defs>
        <path d="M12.68,5.87999997 C13.38,5.63999997 13.9,4.97999997 13.98,4.23999997 C14.03,3.76999997 13.93,3.32999996 13.7,2.96999996 L12.42,0.749999953 C12.23,0.419999952 11.75,0.419999952 11.55,0.749999953 L10.27,2.96999996 C10.1,3.26999996 9.99999999,3.61999997 9.99999999,3.99999997 C9.99999999,5.31999997 11.3,6.34999998 12.68,5.87999997 L12.68,5.87999997 Z M16.53,15.92 L15.53,14.92 L14.45,15.99 C13.15,17.29 10.87,17.3 9.55999999,15.99 L8.48999999,14.92 L7.39999998,15.99 C6.74999998,16.64 5.87999997,17 4.95999997,17 C4.22999997,17 3.55999996,16.77 2.99999996,16.39 L2.99999996,20 C2.99999996,21.1 3.89999997,22 4.99999996,22 L19,22 C20.1,22 21,21.1 21,20 L21,16.39 C20.25,16.9 19.29,17.14 18.26,16.91 C17.6,16.77 17.01,16.4 16.53,15.92 L16.53,15.92 Z M18,8.99999998 L13,8.99999998 L13,7.99999998 C13,7.44999998 12.55,6.99999998 12,6.99999998 C11.45,6.99999998 11,7.44999998 11,7.99999998 L11,8.99999998 L5.99999996,8.99999998 C4.33999997,8.99999998 2.99999996,10.34 2.99999996,12 L2.99999996,13.46 C2.99999996,14.31 3.49999996,15.13 4.30999997,15.4 C5.03999997,15.64 5.82999997,15.46 6.33999998,14.94 L8.47999999,12.81 L10.61,14.94 C11.37,15.7 12.62,15.7 13.38,14.94 L15.52,12.81 L17.65,14.94 C18.08,15.37 18.68,15.57 19.3,15.49 C20.29,15.36 20.9900556,14.43 20.9900556,13.43 L20.9900556,12.01 C21,10.34 19.66,8.99999998 18,8.99999998 Z" id="path-1"></path>
    </defs>
    <g id="cake" stroke="none" stroke-width="1" fill="none" fill-rule="evenodd">
        <mask id="mask-2" fill="white">
            <use xlink:href="#path-1"></use>
        </mask>
        <use id="Combined-Shape" fill="#000000" xlink:href="#path-1"></use>
    </g>
</svg>