<?xml version="1.0" encoding="UTF-8"?>
<svg width="24px" height="24px" viewBox="0 0 24 24" version="1.1" xmlns="http://www.w3.org/2000/svg" xmlns:xlink="http://www.w3.org/1999/xlink">
    <title>clean_hands</title>
    <defs>
        <path d="M14.99,6.99999997 L16.36,6.36999998 L16.99,4.99999997 L17.62,6.36999998 L18.99,6.99999997 L17.62,7.62999998 L16.99,8.99999997 L16.36,7.62999998 L14.99,6.99999997 Z M20,14 C21.1,14 22,13.1 22,12 C22,11.22 21.01,9.55999999 20.42,8.63999999 C20.22,8.32999998 19.78,8.32999998 19.58,8.63999999 C18.99,9.55999999 18,11.22 18,12 C18,13.1 18.9,14 20,14 Z M9.23999999,9.49999996 L15,11.65 L15,11 C15,8.57999999 13.28,6.55999998 11,6.09999998 L11,3.99999996 L13,3.99999996 C13.35,3.99999996 13.68,4.05999997 14,4.17999997 C14.37,4.30999997 14.78,4.22999997 15.05,3.95999997 L15.05,3.95999997 C15.56,3.44999996 15.39,2.56999996 14.72,2.31999996 C14.19,2.10999996 13.61,1.99999996 13,1.99999996 L8.49999999,1.99999996 C7.94999998,1.99999996 7.49999998,2.44999996 7.49999998,2.99999996 L7.49999998,2.99999996 C7.49999998,3.54999996 7.94999998,3.99999996 8.49999999,3.99999996 L8.99999999,3.99999996 L8.99999999,6.10999998 C7.21999998,6.47999998 5.79999997,7.78999998 5.24999997,9.49999996 L9.23999999,9.49999996 Z M2.99999995,11 L2.99999995,11 C1.89999996,11 0.999999954,11.9 0.999999954,13 L0.999999954,20 C0.999999954,21.1 1.89999996,22 2.99999995,22 L2.99999995,22 C4.09999997,22 4.99999995,21.1 4.99999995,20 L4.99999995,13 C4.99999995,11.9 4.09999997,11 2.99999995,11 Z M19.99,17 L13.16,17 C13.05,17 12.94,16.98 12.83,16.94 L11.36,16.43 C11.1,16.34 10.97,16.06 11.06,15.8 L11.06,15.8 C11.15,15.54 11.44,15.4 11.7,15.5 L12.82,15.93 C12.93,15.97 13.06,16 13.18,16 L15.81,16 C16.46,16 16.99,15.47 16.99,14.82 L16.99,14.82 C16.99,14.33 16.68,13.89 16.22,13.71 L9.29999999,11.13 C9.07999999,11.04 8.83999999,11 8.59999999,11 L6.99999998,11 L6.99999998,20.02 L13.37,21.83 C13.78,21.95 14.22,21.93 14.62,21.78 L22,19 L22,19 C22,17.89 21.1,17 19.99,17 Z" id="path-1"></path>
    </defs>
    <g id="clean_hands" stroke="none" stroke-width="1" fill="none" fill-rule="evenodd">
        <mask id="mask-2" fill="white">
            <use xlink:href="#path-1"></use>
        </mask>
        <use id="Combined-Shape" fill="#000000" xlink:href="#path-1"></use>
    </g>
</svg>