<?xml version="1.0" encoding="UTF-8"?>
<svg width="24px" height="24px" viewBox="0 0 24 24" version="1.1" xmlns="http://www.w3.org/2000/svg" xmlns:xlink="http://www.w3.org/1999/xlink">
    <title>construction</title>
    <defs>
        <path d="M16.05,13.05 L20.99,17.99 C21.57,18.57 21.57,19.52 20.99,20.11 C20.41,20.7 19.46,20.7 18.87,20.11 L18.87,20.11 L13.93,15.17 L16.05,13.05 Z M7.89999998,3.48999996 C9.06999999,2.31999996 10.97,2.31999996 12.14,3.48999996 L12.14,3.48999996 L10.02,5.60999997 L10.73,6.31999998 C11.12,6.70999998 11.12,7.33999998 10.73,7.72999998 L10.73,7.72999998 L12.51,9.50999999 L14.36,7.65999998 C14.23,7.29999998 14.15,6.90999998 14.15,6.49999998 C14.15,4.56999997 15.72,2.99999996 17.65,2.99999996 C18.23,2.99999996 18.77,3.15999996 19.25,3.40999996 L19.25,3.40999996 L16.55,6.10999998 L18.04,7.59999998 L20.74,4.89999997 C20.99,5.37999997 21.15,5.91999997 21.15,6.49999998 C21.15,8.42999999 19.58,9.99999999 17.65,9.99999999 C17.24,9.99999999 16.85,9.91999999 16.48,9.78999999 L16.48,9.78999999 L6.15999998,20.1 C5.57999997,20.69 4.62999997,20.69 4.03999996,20.1 L4.03999996,20.1 L3.93628902,19.9870923 C3.45230465,19.4026563 3.48687496,18.533125 4.03999996,17.98 L4.03999996,17.98 L10.39,11.63 L8.60999999,9.84999999 C8.21999998,10.24 7.58999998,10.24 7.19999998,9.84999999 L7.19999998,9.84999999 L6.49999998,9.14999999 L6.49999998,11.69 C6.49999998,11.88 6.41999998,12.06 6.28999998,12.19 C6.00999998,12.47 5.56999997,12.47 5.28999997,12.19 L5.28999997,12.19 L2.74999996,9.64999999 C2.46999996,9.36999999 2.46999996,8.92999999 2.74999996,8.64999999 C2.87999996,8.50999999 3.05999996,8.43999999 3.24999996,8.43999999 L3.24999996,8.43999999 L5.78999997,8.43999999 L5.07999997,7.72999998 C4.68999997,7.33999998 4.68999997,6.70999998 5.07999997,6.31999998 L5.07999997,6.31999998 Z" id="path-1"></path>
    </defs>
    <g id="construction" stroke="none" stroke-width="1" fill="none" fill-rule="evenodd">
        <mask id="mask-2" fill="white">
            <use xlink:href="#path-1"></use>
        </mask>
        <use id="Combined-Shape" fill="#000000" xlink:href="#path-1"></use>
    </g>
</svg>