<?xml version="1.0" encoding="UTF-8"?>
<svg width="24px" height="24px" viewBox="0 0 24 24" version="1.1" xmlns="http://www.w3.org/2000/svg" xmlns:xlink="http://www.w3.org/1999/xlink">
    <title>coronavirus</title>
    <defs>
        <path d="M21.25,10.5 C20.84,10.5 20.5,10.84 20.5,11.25 L18.96,11.25 C18.81,9.87999999 18.27,8.61999999 17.44,7.59999998 L18.53,6.50999998 L18.54,6.51999998 C18.83,6.80999998 19.31,6.80999998 19.6,6.51999998 C19.89,6.22999998 19.89,5.74999997 19.6,5.45999997 L18.54,4.39999997 C18.25,4.10999997 17.77,4.10999997 17.48,4.39999997 C17.19,4.68999997 17.19,5.15999997 17.47,5.44999997 L16.38,6.53999998 C15.36,5.71999997 14.11,5.17999997 12.74,5.02999997 L12.74,3.49999996 L12.75,3.49999996 C13.16,3.49999996 13.5,3.15999996 13.5,2.74999996 C13.5,2.33999996 13.16,1.99999996 12.75,1.99999996 L11.25,1.99999996 C10.84,1.99999996 10.5,2.33999996 10.5,2.74999996 C10.5,3.15999996 10.83,3.48999996 11.24,3.49999996 L11.24,5.04999997 C9.86999999,5.18999997 8.61999999,5.73999997 7.59999998,6.55999998 L6.50999998,5.46999997 L6.51999998,5.45999997 C6.80999998,5.16999997 6.80999998,4.68999997 6.51999998,4.39999997 C6.22999998,4.10999997 5.74999997,4.10999997 5.45999997,4.39999997 L4.39999997,5.45999997 C4.10999997,5.74999997 4.10999997,6.22999998 4.39999997,6.51999998 C4.68999997,6.80999998 5.15999997,6.80999998 5.44999997,6.52999998 L6.53999998,7.61999998 C5.71999997,8.63999999 5.17999997,9.87999999 5.03999997,11.25 L3.49999996,11.25 C3.49999996,10.84 3.15999996,10.5 2.74999996,10.5 C2.33999996,10.5 1.99999996,10.84 1.99999996,11.25 L1.99999996,12.75 C1.99999996,13.16 2.33999996,13.5 2.74999996,13.5 C3.15999996,13.5 3.49999996,13.16 3.49999996,12.75 L5.03999997,12.75 C5.18999997,14.12 5.72999997,15.36 6.53999998,16.38 L5.44999997,17.47 C5.15999997,17.18 4.68999997,17.19 4.39999997,17.48 C4.10999997,17.77 4.10999997,18.25 4.39999997,18.54 L5.45999997,19.6 C5.74999997,19.89 6.22999998,19.89 6.51999998,19.6 C6.80999998,19.31 6.80999998,18.83 6.51999998,18.54 L6.50999998,18.53 L7.59999998,17.44 C8.61999999,18.26 9.85999999,18.8 11.23,18.95 L11.23,20.5 C10.82,20.51 10.49,20.84 10.49,21.25 C10.49,21.66 10.83,22 11.24,22 L12.74,22 C13.15,22 13.49,21.66 13.49,21.25 C13.49,20.84 13.15,20.5 12.74,20.5 L12.73,20.5 L12.73,18.96 C14.1,18.82 15.35,18.27 16.37,17.45 L17.46,18.54 C17.17,18.83 17.18,19.3 17.47,19.59 C17.76,19.88 18.24,19.88 18.53,19.59 L19.59,18.53 C19.88,18.24 19.88,17.76 19.59,17.47 C19.3,17.18 18.82,17.18 18.53,17.47 L18.52,17.48 L17.43,16.39 C18.25,15.37 18.8,14.12 18.95,12.74 L20.49,12.74 C20.49,13.15 20.83,13.49 21.24,13.49 C21.65,13.49 21.99,13.15 21.99,12.74 L21.99,11.24 C22,10.84 21.66,10.5 21.25,10.5 Z M13.75,7.99999998 C14.3,7.99999998 14.75,8.44999999 14.75,8.99999998 C14.75,9.54999999 14.3,9.99999998 13.75,9.99999998 C13.2,9.99999998 12.75,9.54999999 12.75,8.99999998 C12.75,8.44999999 13.2,7.99999998 13.75,7.99999998 Z M12,13 C11.45,13 11,12.55 11,12 C11,11.45 11.45,11 12,11 C12.55,11 13,11.45 13,12 C13,12.55 12.55,13 12,13 Z M10.25,7.99999998 C10.8,7.99999998 11.25,8.44999999 11.25,8.99999998 C11.25,9.54999999 10.8,9.99999998 10.25,9.99999998 C9.69999999,9.99999998 9.24999999,9.54999999 9.24999999,8.99999998 C9.24999999,8.44999999 9.69999999,7.99999998 10.25,7.99999998 Z M8.49999998,13 C7.94999998,13 7.49999998,12.55 7.49999998,12 C7.49999998,11.45 7.94999998,11 8.49999998,11 C9.04999999,11 9.49999998,11.45 9.49999998,12 C9.49999998,12.55 9.04999999,13 8.49999998,13 Z M10.25,16 C9.69999999,16 9.24999999,15.55 9.24999999,15 C9.24999999,14.45 9.69999999,14 10.25,14 C10.8,14 11.25,14.45 11.25,15 C11.25,15.55 10.8,16 10.25,16 Z M13.75,16 C13.2,16 12.75,15.55 12.75,15 C12.75,14.45 13.2,14 13.75,14 C14.3,14 14.75,14.45 14.75,15 C14.75,15.55 14.3,16 13.75,16 Z M14.5,12 C14.5,11.45 14.95,11 15.5,11 C16.05,11 16.5,11.45 16.5,12 C16.5,12.55 16.05,13 15.5,13 C14.95,13 14.5,12.55 14.5,12 Z" id="path-1"></path>
    </defs>
    <g id="coronavirus" stroke="none" stroke-width="1" fill="none" fill-rule="evenodd">
        <mask id="mask-2" fill="white">
            <use xlink:href="#path-1"></use>
        </mask>
        <use id="Combined-Shape" fill="#000000" xlink:href="#path-1"></use>
    </g>
</svg>