<?xml version="1.0" encoding="UTF-8"?>
<svg width="24px" height="24px" viewBox="0 0 24 24" version="1.1" xmlns="http://www.w3.org/2000/svg" xmlns:xlink="http://www.w3.org/1999/xlink">
    <title>deck</title>
    <defs>
        <path d="M10.86,2.79999996 C11.54,2.31999996 12.46,2.31999996 13.15,2.79999996 L13.15,2.79999996 L20.7,8.08999998 C21.1,8.36999998 20.9,8.99999999 20.41,8.99999999 L20.41,8.99999999 L13,8.99999999 L13,21 C13,21.55 12.55,22 12,22 C11.45,22 11,21.55 11,21 L11,21 L11,8.99999999 L3.58999996,8.99999999 C3.09999996,8.99999999 2.89999996,8.36999998 3.29999996,8.08999998 L3.29999996,8.08999998 Z M3.15999996,12.18 C3.70999997,12.08 4.22999997,12.44 4.32999997,12.98 L4.32999997,12.98 L4.89999997,16 L7.99999998,16 C8.54999999,16 8.99999999,16.45 8.99999999,17 L8.99999999,17 L8.99999999,21 C8.99999999,21.55 8.54999999,22 7.99999998,22 C7.44999998,22 6.99999998,21.55 6.99999998,21 L6.99999998,21 L6.99999998,18 L5.01999997,18 L5.00999997,21.01 C5.00999997,21.56 4.55999997,22 4.00999997,22 L4.00999997,22 L3.99999997,22 C3.44999996,22 2.99999996,21.55 2.99999996,21 L2.99999996,21 L2.99999996,16.74 L2.35999996,13.35 C2.25999996,12.8 2.61999996,12.28 3.15999996,12.18 Z M19.67,12.98 C19.78,12.44 20.3,12.08 20.84,12.18 C21.38,12.28 21.74,12.81 21.64,13.35 L21.64,13.35 L21,16.74 L21,21 C21,21.55 20.55,22 20,22 L20,22 L19.883801,21.9933856 C19.3880102,21.9365817 19,21.5207143 19,21.01 L19,21.01 L18.98,18 L17,18 L17,21 C17,21.55 16.55,22 16,22 C15.45,22 15,21.55 15,21 L15,21 L15,17 C15,16.45 15.45,16 16,16 L16,16 L19.1,16 Z" id="path-1"></path>
    </defs>
    <g id="deck" stroke="none" stroke-width="1" fill="none" fill-rule="evenodd">
        <mask id="mask-2" fill="white">
            <use xlink:href="#path-1"></use>
        </mask>
        <use id="Combined-Shape" fill="#000000" xlink:href="#path-1"></use>
    </g>
</svg>