<?xml version="1.0" encoding="UTF-8"?>
<svg width="24px" height="24px" viewBox="0 0 24 24" version="1.1" xmlns="http://www.w3.org/2000/svg" xmlns:xlink="http://www.w3.org/1999/xlink">
    <title>elderly</title>
    <defs>
        <path d="M11.5,3.49999996 C11.5,2.39999996 12.4,1.49999996 13.5,1.49999996 C14.6,1.49999996 15.5,2.39999996 15.5,3.49999996 C15.5,4.59999997 14.6,5.49999996 13.5,5.49999996 C12.4,5.49999996 11.5,4.59999997 11.5,3.49999996 Z M18.53,11 C16.96,11.01 15.59,10.1 14.93,8.78999999 L14.14,7.11999998 L14.14,7.11999998 C13.97,6.76999998 13.7,6.46999998 13.34,6.26999998 C12.72,5.90999997 11.99,5.92999997 11.4,6.23999998 L11.4,6.22999998 L7.00999998,8.72999999 C6.38999998,9.07999999 5.99999998,9.73999999 5.99999998,10.46 L5.99999998,13 C5.99999998,13.55 6.44999998,14 6.99999998,14 L6.99999998,14 C7.54999998,14 7.99999998,13.55 7.99999998,13 L7.99999998,10.46 L9.49999998,9.60999999 C9.17999999,10.71 8.99999998,11.85 8.99999998,13 L8.99999998,18.33 L6.99999998,21 C6.66999998,21.44 6.75999998,22.07 7.19999998,22.4 C7.63999998,22.73 8.26999998,22.64 8.59999999,22.2 L10.64,19.48 C10.87,19.17 11.01,18.79 11.04,18.4 L11.22,15.46 L13,18 L13,22 C13,22.55 13.45,23 14,23 L14,23 C14.55,23 15,22.55 15,22 L15,17.13 C15,16.72 14.87,16.32 14.64,15.98 L13.04,13.69 C13.04,13.69 13.04,13.69 13.04,13.68 C12.93,12.52 13.11,11.36 13.5,10.28 C14.31,11.51 15.55,12.42 17.01,12.8 L17.01,12.83 L17.01,13 C17.01,13.28 17.23,13.5 17.51,13.5 C17.79,13.5 18,13.28 18,13 L18,12.84 L18,12.5 C18,12.22 18.22,12 18.5,12 C18.78,12 19,12.22 19,12.5 L19,22.5 C19,22.78 19.22,23 19.5,23 C19.78,23 20,22.78 20,22.5 L20,12.5 C20,11.68 19.34,10.99 18.53,11 Z" id="path-1"></path>
    </defs>
    <g id="elderly" stroke="none" stroke-width="1" fill="none" fill-rule="evenodd">
        <mask id="mask-2" fill="white">
            <use xlink:href="#path-1"></use>
        </mask>
        <use id="Combined-Shape" fill="#000000" xlink:href="#path-1"></use>
    </g>
</svg>