<?xml version="1.0" encoding="UTF-8"?>
<svg width="24px" height="24px" viewBox="0 0 24 24" version="1.1" xmlns="http://www.w3.org/2000/svg" xmlns:xlink="http://www.w3.org/1999/xlink">
    <title>emoji_transportation</title>
    <defs>
        <path d="M19.59,9.99999999 C20.04,9.99999999 20.42,10.26 20.56,10.66 L20.56,10.66 L21.99,14.77 L22,20.01 C21.99,20.56 21.55,21 21,21 C20.45,21 20,20.55 20,20 L20,20 L20,19 L12,19 L12,20 C12,20.55 11.55,21 11,21 C10.45,21 9.99999999,20.56 9.99999999,20.01 L9.99999999,20.01 L9.99999999,14.77 L11.42,10.66 C11.57,10.26 11.94,9.99999999 12.4,9.99999999 L12.4,9.99999999 Z M14,2.99999996 C14.55,2.99999996 15,3.44999996 15,3.99999996 L15,3.99999996 L15,8.99999996 L14,8.99999996 L14,4.49999996 C14,4.21999997 13.78,3.99999996 13.5,3.99999996 L13.5,3.99999996 L8.49999996,3.99999996 C8.21999998,3.99999996 7.99999996,4.21999997 7.99999996,4.49999996 L7.99999996,4.49999996 L7.99999996,8.49999996 C7.99999996,8.77999999 7.77999998,8.99999996 7.49999996,8.99999996 L7.49999996,8.99999996 L3.49999996,8.99999996 C3.21999996,8.99999996 2.99999996,9.21999999 2.99999996,9.49999996 L2.99999996,9.49999996 L2.99999996,21 L1.99999996,21 L1.99999996,8.99999996 C1.99999996,8.44999999 2.44999996,7.99999996 2.99999996,7.99999996 L2.99999996,7.99999996 L6.99999996,7.99999996 L6.99999996,3.99999996 C6.99999996,3.44999996 7.44999998,2.99999996 7.99999996,2.99999996 L7.99999996,2.99999996 Z M6.99999997,19 L6.99999997,21 L4.99999997,21 L4.99999997,19 L6.99999997,19 Z M11.99,15 C11.44,15 10.99,15.45 10.99,16 C10.99,16.55 11.44,17 11.99,17 C12.54,17 12.99,16.55 12.99,16 C12.99,15.45 12.54,15 11.99,15 Z M19.99,15 C19.44,15 18.99,15.45 18.99,16 C18.99,16.55 19.44,17 19.99,17 C20.54,17 20.99,16.55 20.99,16 C20.99,15.45 20.54,15 19.99,15 Z M6.99999997,15 L6.99999997,17 L4.99999997,17 L4.99999997,15 L6.99999997,15 Z M19.24,11 L12.76,11 C12.54,11 12.35,11.14 12.3,11.34 L12.3,11.34 L11.61,13.34 C11.5,13.66 11.74,14 12.08,14 L12.08,14 L19.93,14 C20.27,14 20.51,13.66 20.4,13.34 L20.4,13.34 L19.71,11.34 C19.64,11.14 19.45,11 19.24,11 L19.24,11 Z M6.99999997,11 L6.99999997,13 L4.99999997,13 L4.99999997,11 L6.99999997,11 Z M12,4.99999997 L12,6.99999997 L9.99999999,6.99999997 L9.99999999,4.99999997 L12,4.99999997 Z" id="path-1"></path>
    </defs>
    <g id="emoji_transportation" stroke="none" stroke-width="1" fill="none" fill-rule="evenodd">
        <mask id="mask-2" fill="white">
            <use xlink:href="#path-1"></use>
        </mask>
        <use id="Combined-Shape" fill="#000000" xlink:href="#path-1"></use>
    </g>
</svg>