<?xml version="1.0" encoding="UTF-8"?>
<svg width="24px" height="24px" viewBox="0 0 24 24" version="1.1" xmlns="http://www.w3.org/2000/svg" xmlns:xlink="http://www.w3.org/1999/xlink">
    <title>emoji_symbols</title>
    <defs>
        <path d="M6.19999998,12.06 C6.83999998,12.06 7.47999998,12.3 7.96999998,12.79 L7.96999998,12.79 L8.09226841,12.9211301 C8.94814744,13.9062571 8.90739129,15.3926087 7.96999998,16.33 L7.96999998,16.33 L7.61999998,16.68 L8.32999998,17.39 L9.03999999,16.68 C9.42999999,16.29 10.06,16.29 10.45,16.68 C10.84,17.07 10.84,17.7 10.45,18.09 L10.45,18.09 L9.73999999,18.8 L10.45,19.51 C10.84,19.9 10.84,20.53 10.45,20.92 C10.06,21.31 9.42999999,21.31 9.03999999,20.92 L9.03999999,20.92 L8.32999998,20.21 L7.26999998,21.27 C6.77999998,21.76 6.13999998,22 5.49999997,22 C4.85999997,22 4.21999997,21.76 3.71999997,21.28 C2.73999996,20.3 2.73999996,18.72 3.71999997,17.74 L3.71999997,17.74 L4.77999997,16.68 L4.42999997,16.33 C3.44999996,15.35 3.44999996,13.77 4.42999997,12.79 C4.91999997,12.3 5.55999997,12.06 6.19999998,12.06 Z M19.48,13.11 C19.87,12.72 20.5,12.72 20.89,13.11 C21.28,13.5 21.28,14.13 20.89,14.52 L20.89,14.52 L14.53,20.88 C14.14,21.27 13.51,21.27 13.12,20.88 C12.73,20.49 12.73,19.86 13.12,19.47 L13.12,19.47 Z M19.5,18 C20.3284272,18 21,18.6715729 21,19.5 C21,20.3284272 20.3284272,21 19.5,21 C18.6715729,21 18,20.3284272 18,19.5 C18,18.6715729 18.6715729,18 19.5,18 Z M6.20999998,18.09 L5.14999997,19.15 C5.02999997,19.27 4.99999997,19.41 4.99999997,19.5 C4.99999997,19.59 5.02999997,19.73 5.14999997,19.85 C5.26999997,19.97 5.40999997,20 5.49999997,20 C5.58999997,20 5.72999997,19.97 5.84999997,19.85 L5.84999997,19.85 L6.91999998,18.8 L6.20999998,18.09 Z M14.5,13 C15.3284271,13 16,13.6715729 16,14.5 C16,15.3284271 15.3284271,16 14.5,16 C13.6715729,16 13,15.3284271 13,14.5 C13,13.6715729 13.6715729,13 14.5,13 Z M6.19999998,14.05 C6.10999998,14.05 5.96999997,14.08 5.84999997,14.2 C5.72999997,14.32 5.69999997,14.46 5.69999997,14.55 C5.69999997,14.64 5.72999997,14.78 5.84999997,14.9 L5.84999997,14.9 L6.19999998,15.26 L6.54999998,14.91 C6.73999998,14.71 6.73999998,14.4 6.54999998,14.2 C6.42999998,14.08 6.28999998,14.05 6.19999998,14.05 Z M9.99999996,4.99999997 C10.55,4.99999997 11,5.44999997 11,5.99999997 C11,6.54999998 10.55,6.99999997 9.99999996,6.99999997 L9.99999996,6.99999997 L7.99999996,6.99999997 L7.99999996,9.99999997 C7.99999996,10.55 7.54999998,11 6.99999996,11 C6.44999998,11 5.99999996,10.55 5.99999996,9.99999997 L5.99999996,9.99999997 L5.99999996,6.99999997 L3.99999996,6.99999997 C3.44999996,6.99999997 2.99999996,6.54999998 2.99999996,5.99999997 C2.99999996,5.44999997 3.44999996,4.99999997 3.99999996,4.99999997 L3.99999996,4.99999997 Z M20,1.99999996 C20.55,1.99999996 21,2.44999996 21,2.99999996 C21,3.54999996 20.55,3.99999996 20,3.99999996 L20,3.99999996 L18,3.99999996 L18,8.49999996 C18,9.87999999 16.88,11 15.5,11 C14.12,11 13,9.87999999 13,8.49999996 C13,7.11999998 14.12,5.99999996 15.5,5.99999996 C16.07,5.99999996 16.58,6.18999998 17,6.50999998 L17,6.50999998 L17,2.99999996 C17,2.44999996 17.45,1.99999996 18,1.99999996 L18,1.99999996 Z M9.99999996,1.99999996 C10.55,1.99999996 11,2.44999996 11,2.99999996 C11,3.54999996 10.55,3.99999996 9.99999996,3.99999996 L9.99999996,3.99999996 L3.99999996,3.99999996 C3.44999996,3.99999996 2.99999996,3.54999996 2.99999996,2.99999996 C2.99999996,2.44999996 3.44999996,1.99999996 3.99999996,1.99999996 L3.99999996,1.99999996 Z" id="path-1"></path>
    </defs>
    <g id="emoji_symbols" stroke="none" stroke-width="1" fill="none" fill-rule="evenodd">
        <mask id="mask-2" fill="white">
            <use xlink:href="#path-1"></use>
        </mask>
        <use id="Combined-Shape" fill="#000000" xlink:href="#path-1"></use>
    </g>
</svg>