<?xml version="1.0" encoding="UTF-8"?>
<svg width="24px" height="24px" viewBox="0 0 24 24" version="1.1" xmlns="http://www.w3.org/2000/svg" xmlns:xlink="http://www.w3.org/1999/xlink">
    <title>emoji_nature</title>
    <defs>
        <path d="M11.5,7.99999998 C11.78,7.99999998 12,8.21999998 12,8.49999998 L12,8.49999998 L12,9.58999999 C12.54,9.77999999 13.04,10.07 13.48,10.51 C13.92,10.95 14.22,11.46 14.41,12 L14.41,12 L15.5,12 C15.78,12 16,12.22 16.01,12.51 C16.01,12.79 15.79,13.01 15.51,13.01 L15.51,13.01 L14.63,13.01 C14.73,14.14 14.36,15.31 13.49,16.18 C13.32,16.34 13.14,16.48 12.96,16.61 L12.96,16.61 L13.48,17.98 C14.04,19.56 13.22,21.28 11.66,21.83 L11.66,21.83 L11.46088,21.88992 C11.194,21.9616 10.922,22 10.65,22 C10.21,22 9.77999999,21.9 9.35999999,21.7 C8.87999999,21.47 8.48999999,21.12 8.19999998,20.7 C6.85999998,21.08 5.34999997,20.76 4.28999997,19.7 C3.22999996,18.64 2.90999996,17.14 3.28999996,15.79 C2.86999996,15.5 2.51999996,15.11 2.28999996,14.63 C1.93999996,13.91 1.89999996,13.09 2.16999996,12.34 L2.16999996,12.34 L2.23334498,12.1767511 C2.84265302,10.733176 4.49571425,9.98964285 5.99999997,10.52 L5.99999997,10.52 L7.39999998,11.05 C7.52999998,10.86 7.66999998,10.68 7.82999998,10.52 C8.60999999,9.73999999 9.63999999,9.34999999 10.66,9.34999999 C10.77,9.34999999 10.89,9.36999999 11,9.37999999 L11,9.37999999 L11,8.49999998 C11,8.21999998 11.22,7.99999998 11.5,7.99999998 Z M10.42,15.53 C9.80999999,16.68 9.29999999,18.15 9.71999999,19.33 C9.80999999,19.58 9.98999999,19.79 10.23,19.9 C10.47,20.02 10.74,20.03 10.99,19.94 C11.51,19.76 11.78,19.18 11.6,18.66 L11.6,18.66 Z M10.66,11.34 C10.19,11.34 9.75999999,11.51 9.39999999,11.8 L9.39999999,11.8 L11,12.4 C11.01,12.41 11.02,12.42 11.03,12.42 C11.08,12.43 11.11,12.46 11.15,12.48 C11.19,12.5 11.23,12.52 11.26,12.55 L11.26,12.55 L11.44,12.73 C11.47,12.77 11.49,12.8 11.51,12.84 L11.51,12.84 L11.57,12.96 C11.58,12.97 11.59,12.98 11.59,12.99 L11.59,12.99 L12.2,14.6 C12.84,13.81 12.8,12.66 12.07,11.93 C11.7,11.55 11.19,11.34 10.66,11.34 Z M5.31999997,12.41 C4.81999997,12.23 4.24999997,12.5 4.05999997,13.02 C3.96999997,13.27 3.97999997,13.54 4.09999997,13.78 C4.21999997,14.02 4.41999997,14.2 4.66999997,14.29 C5.84999997,14.71 7.32999998,14.2 8.47999999,13.6 L8.47999999,13.6 Z M18,1.99999996 L18.1295226,2.00648684 C18.6851021,2.06229588 19.16,2.4728571 19.29,3.02999996 L19.29,3.02999996 L19.6,3.99999996 L20.68,3.99999996 C21.25,3.99999996 21.76,4.34999997 21.94,4.87999997 C22.12,5.43999997 21.89,6.04999998 21.38,6.35999998 L21.38,6.35999998 L20.51,6.87999998 L20.9,8.11999998 C21.13,8.69999999 20.95,9.36999999 20.45,9.73999999 C20.22,9.90999999 19.94,9.99999996 19.67,9.99999996 C19.36,9.99999996 19.06,9.88999999 18.81,9.67999999 L18.81,9.67999999 L18,8.97999999 L17.19,9.67999999 C16.94,9.88999999 16.64,9.99999996 16.33,9.99999996 C16.06,9.99999996 15.78,9.90999999 15.55,9.73999999 C15.06,9.36999999 14.87,8.69999999 15.1,8.11999998 L15.1,8.11999998 L15.5,6.87999998 L14.63,6.35999998 C14.11,6.04999998 13.88,5.43999997 14.07,4.87999997 C14.25,4.34999997 14.76,3.99999996 15.33,3.99999996 L15.33,3.99999996 L16.4,3.99999996 L16.71,3.03999996 C16.85,2.42999996 17.39,1.99999996 18,1.99999996 L18,1.99999996 Z M18,4.99999997 C17.45,4.99999997 17,5.44999997 17,5.99999997 C17,6.54999998 17.45,6.99999997 18,6.99999997 C18.55,6.99999997 19,6.54999998 19,5.99999997 C19,5.44999997 18.55,4.99999997 18,4.99999997 Z" id="path-1"></path>
    </defs>
    <g id="emoji_nature" stroke="none" stroke-width="1" fill="none" fill-rule="evenodd">
        <mask id="mask-2" fill="white">
            <use xlink:href="#path-1"></use>
        </mask>
        <use id="Combined-Shape" fill="#000000" xlink:href="#path-1"></use>
    </g>
</svg>