<?xml version="1.0" encoding="UTF-8"?>
<svg width="24px" height="24px" viewBox="0 0 24 24" version="1.1" xmlns="http://www.w3.org/2000/svg" xmlns:xlink="http://www.w3.org/1999/xlink">
    <title>engineering</title>
    <defs>
        <path d="M8.99999995,15 C11.67,15 17,16.34 17,19 L17,19 L17,20 C17,20.55 16.55,21 16,21 L16,21 L1.99999995,21 C1.44999996,21 0.999999954,20.55 0.999999954,20 L0.999999954,20 L0.999999954,19 C0.999999954,16.34 6.32999998,15 8.99999995,15 Z M18.04,9.99999999 L18.22,10.88 C18.34,10.93 18.45,10.99 18.55,11.07 L18.55,11.07 L19.4,10.79 L19.93,11.72 L19.27,12.31 C19.28,12.43 19.28,12.55 19.27,12.68 L19.27,12.68 L19.93,13.29 L19.39,14.22 L18.54,13.95 C18.44,14.02 18.33,14.08 18.22,14.13 L18.22,14.13 L18.03,15 L16.96,15 L16.78,14.12 C16.67,14.07 16.57,14.01 16.47,13.94 L16.47,13.94 L15.61,14.21 L15.07,13.28 L15.73,12.67 C15.72,12.55 15.72,12.43 15.73,12.3 L15.73,12.3 L15.07,11.71 L15.61,10.78 L16.45,11.06 C16.55,10.99 16.67,10.92 16.79,10.87 L16.79,10.87 L16.97,9.99999999 L18.04,9.99999999 Z M17.5,11.61 C17.01,11.61 16.61,12.01 16.61,12.5 C16.61,12.99 17.01,13.39 17.5,13.39 C17.99,13.39 18.39,12.99 18.39,12.5 C18.39,12.01 17.99,11.61 17.5,11.61 Z M12.86,9.99999999 C12.41,11.72 10.86,13 8.99999999,13 C7.13999997,13 5.58999997,11.72 5.13999997,9.99999999 L5.13999997,9.99999999 Z M20.25,2.99999996 L20.5,4.21999997 C20.67,4.28999997 20.83,4.37999997 20.97,4.48999997 L20.97,4.48999997 L22.16,4.09999997 L22.91,5.39999997 L21.98,6.22999998 C21.99,6.39999998 22,6.56999998 21.97,6.75999998 L21.97,6.75999998 L22.9,7.60999998 L22.15,8.90999999 L20.96,8.52999999 C20.82,8.62999999 20.68,8.70999999 20.52,8.77999999 L20.52,8.77999999 L20.25,9.99999996 L18.75,9.99999996 L18.47,8.76999999 C18.32,8.69999999 18.17,8.61999999 18.04,8.51999999 L18.04,8.51999999 L16.84,8.89999999 L16.09,7.59999998 L17.02,6.74999998 C17,6.57999998 17,6.39999998 17.02,6.22999998 L17.02,6.22999998 L16.09,5.39999997 L16.84,4.09999997 L18.02,4.48999997 C18.17,4.37999997 18.33,4.28999997 18.5,4.21999997 L18.5,4.21999997 L18.75,2.99999996 L20.25,2.99999996 Z M8.99999999,3.99999997 C9.34999999,3.99999997 9.67999999,4.05999997 9.99999999,4.13999997 L9.99999999,4.13999997 L9.99999999,5.49999997 C9.99999999,5.77999997 10.22,5.99999997 10.5,5.99999997 C10.78,5.99999997 11,5.77999997 11,5.49999997 L11,5.49999997 L11,4.54999997 C12.19,5.24999997 13,6.51999998 13,7.99999997 L13,7.99999997 L13.27,7.99999997 C13.54,7.99999997 13.76,8.21999998 13.76,8.48999999 L13.76,8.48999999 L13.76,8.50999999 C13.76,8.77999999 13.54,8.99999997 13.27,8.99999997 L13.27,8.99999997 L4.73999997,8.99999997 C4.46999997,8.99999997 4.24999997,8.77999999 4.24999997,8.51999999 L4.24999997,8.51999999 L4.24999997,8.48999999 C4.24999997,8.21999998 4.46999997,7.99999997 4.73999997,7.99999997 L4.73999997,7.99999997 L4.99999997,7.99999997 C4.99999997,6.51999998 5.80999997,5.24999997 6.99999998,4.54999997 L6.99999998,4.54999997 L6.99999998,5.49999997 C6.99999998,5.77999997 7.21999998,5.99999997 7.49999998,5.99999997 C7.77999998,5.99999997 7.99999998,5.77999997 7.99999998,5.49999997 L7.99999998,5.49999997 L7.99999998,4.13999997 C8.31999998,4.05999997 8.64999999,3.99999997 8.99999999,3.99999997 Z M19.5,5.24999997 C18.81,5.24999997 18.25,5.80999997 18.25,6.49999998 C18.25,7.18999998 18.81,7.74999997 19.5,7.74999997 C20.19,7.74999997 20.75,7.18999998 20.75,6.49999998 C20.75,5.80999997 20.19,5.24999997 19.5,5.24999997 Z" id="path-1"></path>
    </defs>
    <g id="engineering" stroke="none" stroke-width="1" fill="none" fill-rule="evenodd">
        <mask id="mask-2" fill="white">
            <use xlink:href="#path-1"></use>
        </mask>
        <use id="Combined-Shape" fill="#000000" xlink:href="#path-1"></use>
    </g>
</svg>