<?xml version="1.0" encoding="UTF-8"?>
<svg width="24px" height="24px" viewBox="0 0 24 24" version="1.1" xmlns="http://www.w3.org/2000/svg" xmlns:xlink="http://www.w3.org/1999/xlink">
    <title>follow_the_signs</title>
    <defs>
        <path d="M9.49999998,5.49999996 C10.6,5.49999996 11.5,4.59999997 11.5,3.49999996 C11.5,2.39999996 10.6,1.49999996 9.49999998,1.49999996 C8.39999998,1.49999996 7.49999998,2.39999996 7.49999998,3.49999996 C7.49999998,4.59999997 8.39999998,5.49999996 9.49999998,5.49999996 Z M5.74999997,8.89999999 L3.22999996,21.81 C3.10999996,22.43 3.57999996,23 4.20999997,23 L4.29999997,23 C4.76999997,23 5.17999997,22.67 5.27999997,22.21 L6.84999998,15 L8.99999996,17 L8.99999996,22 C8.99999996,22.55 9.44999999,23 9.99999996,23 L9.99999996,23 C10.55,23 11,22.55 11,22 L11,15.86 C11,15.59 10.89,15.34 10.71,15.15 L8.94999999,13.4 L9.54999999,10.4 C10.62,11.72 12.13,12.63 13.86,12.91 C14.46,13.01 15,12.52 15,11.91 L15,11.91 C15,11.42 14.64,11.01 14.16,10.93 C12.67,10.68 11.41,9.77999999 10.65,8.54999999 L9.69999999,6.94999998 C9.34999999,6.34999998 8.69999999,5.99999998 7.99999996,5.99999998 C7.74999998,5.99999998 7.49999996,6.04999998 7.24999998,6.14999998 L2.61999996,8.04999998 C2.24999996,8.19999998 1.99999996,8.56999999 1.99999996,8.96999999 L1.99999996,12 C1.99999996,12.55 2.44999996,13 2.99999996,13 L2.99999996,13 C3.54999996,13 3.99999996,12.55 3.99999996,12 L3.99999996,9.64999999 L5.74999997,8.89999999 M21,1.99999996 L14,1.99999996 C13.45,1.99999996 13,2.44999996 13,2.99999996 L13,7.99999996 C13,8.54999999 13.45,8.99999996 14,8.99999996 L16.75,8.99999996 L16.75,22.25 C16.75,22.66 17.09,23 17.5,23 C17.91,23 18.25,22.66 18.25,22.25 L18.25,8.99999996 L21,8.99999996 C21.55,8.99999996 22,8.54999999 22,7.99999996 L22,2.99999996 C22,2.44999996 21.55,1.99999996 21,1.99999996 Z M20.15,5.84999997 L18.87,7.13999998 C18.56,7.45999998 18.02,7.22999998 18.02,6.78999998 L18.02,6.24999998 L15.26,6.24999998 C14.85,6.24999998 14.51,5.90999997 14.51,5.49999997 C14.51,5.08999997 14.85,4.74999997 15.26,4.74999997 L18.02,4.74999997 L18.02,4.20999997 C18.02,3.75999997 18.56,3.53999996 18.87,3.85999997 L20.15,5.14999997 C20.34,5.33999997 20.34,5.65999997 20.15,5.84999997 Z" id="path-1"></path>
    </defs>
    <g id="follow_the_signs" stroke="none" stroke-width="1" fill="none" fill-rule="evenodd">
        <mask id="mask-2" fill="white">
            <use xlink:href="#path-1"></use>
        </mask>
        <use id="Combined-Shape" fill="#000000" xlink:href="#path-1"></use>
    </g>
</svg>