<?xml version="1.0" encoding="UTF-8"?>
<svg width="24px" height="24px" viewBox="0 0 24 24" version="1.1" xmlns="http://www.w3.org/2000/svg" xmlns:xlink="http://www.w3.org/1999/xlink">
    <title>group_add</title>
    <defs>
        <path d="M6.99999995,9.99999998 L4.99999995,9.99999998 L4.99999995,7.99999998 C4.99999995,7.44999998 4.54999997,6.99999998 3.99999995,6.99999998 C3.44999996,6.99999998 2.99999995,7.44999998 2.99999995,7.99999998 L2.99999995,9.99999998 L0.99999995,9.99999998 C0.449999952,9.99999998 -4.99999473e-08,10.45 -4.99999473e-08,11 C-4.99999473e-08,11.55 0.449999952,12 0.99999995,12 L2.99999995,12 L2.99999995,14 C2.99999995,14.55 3.44999996,15 3.99999995,15 C4.54999997,15 4.99999995,14.55 4.99999995,14 L4.99999995,12 L6.99999995,12 C7.54999998,12 7.99999995,11.55 7.99999995,11 C7.99999995,10.45 7.54999998,9.99999998 6.99999995,9.99999998 Z M18,11 C19.66,11 20.99,9.65999999 20.99,7.99999997 C20.99,6.33999998 19.66,4.99999997 18,4.99999997 C17.68,4.99999997 17.37,5.04999997 17.09,5.13999997 C17.66,5.94999997 17.99,6.92999998 17.99,7.99999997 C17.99,9.06999999 17.65,10.04 17.09,10.86 C17.37,10.95 17.68,11 18,11 Z M13,11 C14.66,11 15.99,9.65999999 15.99,7.99999997 C15.99,6.33999998 14.66,4.99999997 13,4.99999997 C11.34,4.99999997 9.99999999,6.33999998 9.99999999,7.99999997 C9.99999999,9.65999999 11.34,11 13,11 Z M13,13 C11,13 6.99999998,14 6.99999998,16 L6.99999998,17 C6.99999998,17.55 7.44999998,18 7.99999998,18 L18,18 C18.55,18 19,17.55 19,17 L19,16 C19,14 15,13 13,13 Z M19.62,13.16 C20.45,13.89 21,14.82 21,16 L21,17.5 C21,17.67 20.98,17.84 20.95,18 L23.5,18 C23.78,18 24.0000001,17.78 24.0000001,17.5 L24.0000001,16 C24.0000001,14.46 21.63,13.51 19.62,13.16 Z" id="path-1"></path>
    </defs>
    <g id="group_add" stroke="none" stroke-width="1" fill="none" fill-rule="evenodd">
        <mask id="mask-2" fill="white">
            <use xlink:href="#path-1"></use>
        </mask>
        <use id="Combined-Shape" fill="#000000" xlink:href="#path-1"></use>
    </g>
</svg>