<?xml version="1.0" encoding="UTF-8"?>
<svg width="24px" height="24px" viewBox="0 0 24 24" version="1.1" xmlns="http://www.w3.org/2000/svg" xmlns:xlink="http://www.w3.org/1999/xlink">
    <title>masks</title>
    <defs>
        <path d="M19.5,5.99999998 C18.19,5.99999998 17.13,7.00999998 17.02,8.29999998 C15.14,7.79999998 14.18,6.49999998 12,6.49999998 C9.80999999,6.49999998 8.85999999,7.79999998 6.97999998,8.29999998 C6.86999998,7.01999998 5.80999997,5.99999998 4.49999996,5.99999998 C3.11999996,5.99999998 1.99999996,7.11999998 1.99999996,8.49999998 L1.99999996,8.99999998 C1.99999996,15 5.59999997,16.81 8.51999999,16.98 C9.52999999,17.62 10.72,18 12,18 C13.28,18 14.47,17.62 15.48,16.98 C18.4,16.81 22,15 22,8.99999998 L22,8.49999998 C22,7.11999998 20.88,5.99999998 19.5,5.99999998 Z M3.49999996,8.99999998 L3.49999996,8.49999998 C3.49999996,7.94999998 3.94999997,7.49999998 4.49999996,7.49999998 C5.04999997,7.49999998 5.49999996,7.94999998 5.49999996,8.49999998 L5.49999996,11.5 C5.49999996,12.78 5.87999997,13.97 6.50999998,14.98 C4.98999997,14.27 3.49999996,12.65 3.49999996,8.99999998 Z M14.3,11.01 C13.9,10.84 13.58,10.65 13.29,10.48 C12.83,10.2 12.49,9.99999999 12,9.99999999 C11.51,9.99999999 11.16,10.2 10.69,10.48 C10.41,10.65 10.09,10.83 9.70999999,10.99 C9.36999999,11.14 8.99999999,10.91 8.99999999,10.54 L8.99999999,10.54 C8.99999999,10.34 9.10999999,10.16 9.28999999,10.09 C9.62999999,9.94999999 9.90999999,9.77999999 10.17,9.62999999 C10.72,9.29999999 11.23,8.99999999 12,8.99999999 C12.77,8.99999999 13.27,9.29999999 13.8,9.61999999 C14.07,9.77999999 14.35,9.94999999 14.7,10.1 C14.88,10.18 14.99,10.36 14.99,10.55 C15,10.91 14.63,11.15 14.3,11.01 Z M20.5,8.99999998 C20.5,12.65 19.01,14.27 17.49,14.98 C18.13,13.97 18.5,12.78 18.5,11.5 L18.5,8.49999998 C18.5,7.94999998 18.95,7.49999998 19.5,7.49999998 C20.05,7.49999998 20.5,7.94999998 20.5,8.49999998 L20.5,8.99999998 L20.5,8.99999998 Z" id="path-1"></path>
    </defs>
    <g id="masks" stroke="none" stroke-width="1" fill="none" fill-rule="evenodd">
        <mask id="mask-2" fill="white">
            <use xlink:href="#path-1"></use>
        </mask>
        <use id="Combined-Shape" fill="#000000" xlink:href="#path-1"></use>
    </g>
</svg>