<?xml version="1.0" encoding="UTF-8"?>
<svg width="24px" height="24px" viewBox="0 0 24 24" version="1.1" xmlns="http://www.w3.org/2000/svg" xmlns:xlink="http://www.w3.org/1999/xlink">
    <title>notifications</title>
    <defs>
        <path d="M12,22 C13.1,22 14,21.1 14,20 L9.99999999,20 C9.99999999,21.1 10.89,22 12,22 Z M18,16 L18,11 C18,7.92999998 16.36,5.35999997 13.5,4.67999997 L13.5,3.99999996 C13.5,3.16999996 12.83,2.49999996 12,2.49999996 C11.17,2.49999996 10.5,3.16999996 10.5,3.99999996 L10.5,4.67999997 C7.62999998,5.35999997 5.99999997,7.91999998 5.99999997,11 L5.99999997,16 L4.70999997,17.29 C4.07999997,17.92 4.51999997,19 5.40999997,19 L18.58,19 C19.47,19 19.92,17.92 19.29,17.29 L18,16 Z" id="path-1"></path>
    </defs>
    <g id="notifications" stroke="none" stroke-width="1" fill="none" fill-rule="evenodd">
        <mask id="mask-2" fill="white">
            <use xlink:href="#path-1"></use>
        </mask>
        <use id="Combined-Shape" fill="#000000" xlink:href="#path-1"></use>
    </g>
</svg>