<?xml version="1.0" encoding="UTF-8"?>
<svg width="24px" height="24px" viewBox="0 0 24 24" version="1.1" xmlns="http://www.w3.org/2000/svg" xmlns:xlink="http://www.w3.org/1999/xlink">
    <title>person_outline</title>
    <defs>
        <path d="M12,5.89999997 C13.16,5.89999997 14.1,6.83999998 14.1,7.99999998 C14.1,9.15999999 13.16,10.1 12,10.1 C10.84,10.1 9.89999999,9.15999999 9.89999999,7.99999998 C9.89999999,6.83999998 10.84,5.89999997 12,5.89999997 M12,14.9 C14.97,14.9 18.1,16.36 18.1,17 L18.1,18.1 L5.89999997,18.1 L5.89999997,17 C5.89999997,16.36 9.02999999,14.9 12,14.9 M12,3.99999997 C9.78999999,3.99999997 7.99999998,5.78999997 7.99999998,7.99999997 C7.99999998,10.21 9.78999999,12 12,12 C14.21,12 16,10.21 16,7.99999997 C16,5.78999997 14.21,3.99999997 12,3.99999997 Z M12,13 C9.32999999,13 3.99999997,14.34 3.99999997,17 L3.99999997,19 C3.99999997,19.55 4.44999997,20 4.99999997,20 L19,20 C19.55,20 20,19.55 20,19 L20,17 C20,14.34 14.67,13 12,13 Z" id="path-1"></path>
    </defs>
    <g id="person_outline" stroke="none" stroke-width="1" fill="none" fill-rule="evenodd">
        <mask id="mask-2" fill="white">
            <use xlink:href="#path-1"></use>
        </mask>
        <use id="Combined-Shape" fill="#000000" xlink:href="#path-1"></use>
    </g>
</svg>