<?xml version="1.0" encoding="UTF-8"?>
<svg width="24px" height="24px" viewBox="0 0 24 24" version="1.1" xmlns="http://www.w3.org/2000/svg" xmlns:xlink="http://www.w3.org/1999/xlink">
    <title>psychology</title>
    <defs>
        <path d="M12.9658392,2.997153 L13.21,2.99999996 C16.82,3.10999996 19.86,6.11999998 20,9.73999999 C20.1,12.64 18.44,15.16 16,16.32 L16,16.32 L16,20 C16,20.55 15.55,21 15,21 L15,21 L9.99999999,21 C9.44999999,21 8.99999999,20.55 8.99999999,20 L8.99999999,20 L8.99999999,18 L7.99999998,18 C6.89999998,18 5.99999997,17.1 5.99999997,16 L5.99999997,16 L5.99999997,13 L4.49999997,13 C4.08999997,13 3.84999997,12.53 4.09999997,12.2 L4.09999997,12.2 L6.01999998,9.63999999 C6.20999998,5.86999997 9.36999999,2.88999996 13.21,2.99999996 Z M13.8,5.99999998 L12.2,5.99999998 C12.1,5.99999998 12.02,6.06999998 12,6.16999998 L12,6.16999998 L11.85,7.22999998 C11.61,7.32999998 11.38,7.46999998 11.18,7.61999998 L11.18,7.61999998 L10.18,7.21999998 C10.09,7.18999998 9.98999999,7.21999998 9.93999999,7.30999998 L9.93999999,7.30999998 L9.13999999,8.68999999 C9.08999999,8.78999999 9.10999999,8.88999999 9.18999999,8.94999999 L9.18999999,8.94999999 L10.04,9.60999999 C10.02,9.72999999 9.99999999,9.86999999 9.99999999,9.99999998 C9.99999999,10.13 10.01,10.26 10.02,10.39 L10.02,10.39 L9.17999999,11.05 C9.09999999,11.11 9.07999999,11.22 9.12999999,11.3 L9.12999999,11.3 L9.92999999,12.69 C9.97999999,12.78 10.09,12.81 10.18,12.78 L10.18,12.78 L11.17,12.38 C11.38,12.54 11.6,12.67 11.85,12.77 L11.85,12.77 L12,13.83 C12.02,13.93 12.1,14 12.2,14 L12.2,14 L13.8,14 C13.9,14 13.99,13.93 14,13.83 L14,13.83 L14.16,12.77 C14.4,12.67 14.62,12.54 14.83,12.38 L14.83,12.38 L15.82,12.78 C15.9,12.81 16.01,12.78 16.06,12.69 L16.06,12.69 L16.86,11.3 C16.91,11.21 16.89,11.11 16.81,11.05 L16.81,11.05 L15.98,10.39 C15.99,10.26 16,10.13 16,9.99999998 C16,9.85999999 15.99,9.72999999 15.96,9.60999999 L15.96,9.60999999 L16.81,8.94999999 C16.89,8.88999999 16.91,8.77999999 16.86,8.68999999 L16.86,8.68999999 L16.06,7.30999998 C16.02,7.21999998 15.91,7.18999998 15.82,7.21999998 L15.82,7.21999998 L14.82,7.61999998 C14.61,7.45999998 14.39,7.32999998 14.15,7.22999998 L14.15,7.22999998 L14,6.16999998 C13.98,6.06999998 13.9,5.99999998 13.8,5.99999998 L13.8,5.99999998 Z M13,8.56999999 C13.79,8.56999999 14.43,9.20999999 14.43,9.99999999 C14.43,10.79 13.79,11.43 13,11.43 C12.21,11.43 11.57,10.79 11.57,9.99999999 C11.57,9.20999999 12.21,8.56999999 13,8.56999999 Z" id="path-1"></path>
    </defs>
    <g id="psychology" stroke="none" stroke-width="1" fill="none" fill-rule="evenodd">
        <mask id="mask-2" fill="white">
            <use xlink:href="#path-1"></use>
        </mask>
        <use id="Combined-Shape" fill="#000000" xlink:href="#path-1"></use>
    </g>
</svg>