<?xml version="1.0" encoding="UTF-8"?>
<svg width="24px" height="24px" viewBox="0 0 24 24" version="1.1" xmlns="http://www.w3.org/2000/svg" xmlns:xlink="http://www.w3.org/1999/xlink">
    <title>reduce_capacity</title>
    <defs>
        <path d="M16,3.99999996 C16,2.89999996 16.9,1.99999996 18,1.99999996 C19.1,1.99999996 20,2.89999996 20,3.99999996 C20,5.09999997 19.1,5.99999996 18,5.99999996 C16.9,5.99999996 16,5.09999997 16,3.99999996 Z M20.78,7.57999998 C19.93,7.20999998 18.99,6.99999998 18,6.99999998 C17.33,6.99999998 16.69,7.09999998 16.08,7.27999998 C16.66,7.82999998 17,8.59999999 17,9.42999999 L17,9.99999998 L22,9.99999998 L22,9.42999999 C22,8.61999999 21.52,7.89999998 20.78,7.57999998 Z M5.99999997,5.99999996 C7.09999998,5.99999996 7.99999997,5.09999997 7.99999997,3.99999996 C7.99999997,2.89999996 7.09999998,1.99999996 5.99999997,1.99999996 C4.89999997,1.99999996 3.99999997,2.89999996 3.99999997,3.99999996 C3.99999997,5.09999997 4.89999997,5.99999996 5.99999997,5.99999996 Z M7.91999998,7.27999998 C7.30999998,7.09999998 6.66999998,6.99999998 5.99999996,6.99999998 C5.00999997,6.99999998 4.06999997,7.20999998 3.21999996,7.57999998 C2.47999996,7.89999998 1.99999996,8.61999999 1.99999996,9.42999999 L1.99999996,9.99999998 L6.99999996,9.99999998 L6.99999996,9.42999999 C6.99999996,8.59999999 7.33999998,7.82999998 7.91999998,7.27999998 Z M9.99999999,3.99999996 C9.99999999,2.89999996 10.9,1.99999996 12,1.99999996 C13.1,1.99999996 14,2.89999996 14,3.99999996 C14,5.09999997 13.1,5.99999996 12,5.99999996 C10.9,5.99999996 9.99999999,5.09999997 9.99999999,3.99999996 Z M16,9.99999998 L7.99999998,9.99999998 L7.99999998,9.42999999 C7.99999998,8.61999999 8.47999999,7.89999998 9.21999999,7.57999998 C10.07,7.20999998 11.01,6.99999998 12,6.99999998 C12.99,6.99999998 13.93,7.20999998 14.78,7.57999998 C15.52,7.89999998 16,8.61999999 16,9.42999999 L16,9.99999998 Z M15,16 C15,14.9 15.9,14 17,14 C18.1,14 19,14.9 19,16 C19,17.1 18.1,18 17,18 C15.9,18 15,17.1 15,16 Z M21,22 L13,22 L13,21.43 C13,20.62 13.48,19.9 14.22,19.58 C15.07,19.21 16.01,19 17,19 C17.99,19 18.93,19.21 19.78,19.58 C20.52,19.9 21,20.62 21,21.43 L21,22 Z M4.99999997,16 C4.99999997,14.9 5.89999997,14 6.99999997,14 C8.09999998,14 8.99999997,14.9 8.99999997,16 C8.99999997,17.1 8.09999998,18 6.99999997,18 C5.89999997,18 4.99999997,17.1 4.99999997,16 Z M11,22 L2.99999996,22 L2.99999996,21.43 C2.99999996,20.62 3.47999996,19.9 4.21999997,19.58 C5.06999997,19.21 6.00999998,19 6.99999996,19 C7.98999998,19 8.92999999,19.21 9.77999999,19.58 C10.52,19.9 11,20.62 11,21.43 L11,22 Z M13.79,13 L12.75,13 L12.75,11.75 C12.75,11.34 12.41,11 12,11 C11.59,11 11.25,11.34 11.25,11.75 L11.25,13 L10.21,13 C9.75999999,13 9.53999999,13.54 9.85999999,13.85 L11.65,15.64 C11.85,15.84 12.16,15.84 12.36,15.64 L14.15,13.85 C14.46,13.54 14.24,13 13.79,13 Z" id="path-1"></path>
    </defs>
    <g id="reduce_capacity" stroke="none" stroke-width="1" fill="none" fill-rule="evenodd">
        <mask id="mask-2" fill="white">
            <use xlink:href="#path-1"></use>
        </mask>
        <use id="Combined-Shape" fill="#000000" xlink:href="#path-1"></use>
    </g>
</svg>