<?xml version="1.0" encoding="UTF-8"?>
<svg width="24px" height="24px" viewBox="0 0 24 24" version="1.1" xmlns="http://www.w3.org/2000/svg" xmlns:xlink="http://www.w3.org/1999/xlink">
    <title>sanitizer</title>
    <defs>
        <path d="M15.5,6.49999998 C15.5,5.93999997 16.17,5.00999997 16.61,4.45999997 C16.81,4.20999997 17.19,4.20999997 17.38,4.45999997 C17.82,5.00999997 18.49,5.93999997 18.49,6.49999998 C18.5,7.32999998 17.83,7.99999998 17,7.99999998 C16.17,7.99999998 15.5,7.32999998 15.5,6.49999998 Z M19.5,15 C20.88,15 22,13.88 22,12.5 C22,11.25 20.59,9.33999999 19.89,8.45999999 C19.69,8.20999998 19.32,8.20999998 19.12,8.45999999 C18.41,9.33999999 17,11.25 17,12.5 C17,13.88 18.12,15 19.5,15 Z M12,14 L11,14 L11,13 C11,12.45 10.55,12 9.99999998,12 L9.99999998,12 C9.44999999,12 8.99999998,12.45 8.99999998,13 L8.99999998,14 L7.99999998,14 C7.44999998,14 6.99999998,14.45 6.99999998,15 L6.99999998,15 C6.99999998,15.55 7.44999998,16 7.99999998,16 L8.99999998,16 L8.99999998,17 C8.99999998,17.55 9.44999999,18 9.99999998,18 L9.99999998,18 C10.55,18 11,17.55 11,17 L11,16 L12,16 C12.55,16 13,15.55 13,15 L13,15 C13,14.45 12.55,14 12,14 Z M16,12 L16,20 C16,21.1 15.1,22 14,22 L5.99999997,22 C4.89999997,22 3.99999997,21.1 3.99999997,20 L3.99999997,12 C3.99999997,9.02999999 6.15999998,6.56999998 8.99999997,6.08999998 L8.99999997,3.99999996 L7.99999997,3.99999996 C7.44999998,3.99999996 6.99999997,3.54999996 6.99999997,2.99999996 L6.99999997,2.99999996 C6.99999997,2.44999996 7.44999998,1.99999996 7.99999997,1.99999996 L13,1.99999996 C13.61,1.99999996 14.19,2.10999996 14.72,2.30999996 C15.39,2.55999996 15.55,3.43999996 15.05,3.94999997 L15.05,3.94999997 C14.77,4.22999997 14.36,4.30999997 14,4.17999997 C13.68,4.05999997 13.35,3.99999996 13,3.99999996 L11,3.99999996 L11,6.08999998 C13.84,6.56999998 16,9.02999999 16,12 Z" id="path-1"></path>
    </defs>
    <g id="sanitizer" stroke="none" stroke-width="1" fill="none" fill-rule="evenodd">
        <mask id="mask-2" fill="white">
            <use xlink:href="#path-1"></use>
        </mask>
        <use id="Combined-Shape" fill="#000000" xlink:href="#path-1"></use>
    </g>
</svg>