<?xml version="1.0" encoding="UTF-8"?>
<svg width="24px" height="24px" viewBox="0 0 24 24" version="1.1" xmlns="http://www.w3.org/2000/svg" xmlns:xlink="http://www.w3.org/1999/xlink">
    <title>sick</title>
    <defs>
        <path d="M23,6.99999998 C23,8.09999998 22.1,8.99999999 21,8.99999999 C19.9,8.99999999 19,8.09999998 19,6.99999998 C19,6.21999998 19.99,4.55999997 20.58,3.63999997 C20.78,3.32999996 21.22,3.32999996 21.42,3.63999997 C22.01,4.55999997 23,6.21999998 23,6.99999998 Z M21.86,10.38 C21.94,10.91 22,11.45 22,12 C22,17.52 17.52,22 11.99,22 C6.46999998,22 1.99999996,17.52 1.99999996,12 C1.99999996,6.47999998 6.46999998,1.99999996 11.99,1.99999996 C14.44,1.99999996 16.68,2.87999996 18.42,4.33999997 C17.91,5.28999997 17.5,6.26999998 17.5,6.99999996 C17.5,8.92999999 19.07,10.5 21,10.5 C21.3,10.5 21.58,10.45 21.86,10.38 Z M14.03,10.03 L15.09,11.09 C15.38,11.38 15.86,11.38 16.15,11.09 C16.44,10.8 16.44,10.32 16.15,10.03 L15.62,9.49999999 L16.15,8.96999999 C16.44,8.67999999 16.44,8.19999998 16.15,7.90999998 C15.86,7.61999998 15.38,7.61999998 15.09,7.90999998 L14.03,8.96999999 C13.74,9.25999999 13.74,9.73999999 14.03,10.03 Z M8.37999998,9.49999999 L7.84999998,10.03 C7.55999998,10.32 7.55999998,10.8 7.84999998,11.09 C8.13999998,11.38 8.61999999,11.38 8.90999999,11.09 L9.96999999,10.03 C10.26,9.73999999 10.26,9.25999999 9.96999999,8.96999999 L8.90999999,7.90999998 C8.61999999,7.61999998 8.13999998,7.61999998 7.84999998,7.90999998 C7.55999998,8.19999998 7.55999998,8.67999999 7.84999998,8.96999999 L8.37999998,9.49999999 Z M16.47,15.8 C15.47,14.41 13.85,13.5 12,13.5 C11.13,13.5 10.31,13.7 9.56999999,14.06 L5.98999997,12 C5.98999997,11.48 5.72999997,10.98 5.24999997,10.71 C4.44999997,10.25 3.40999996,10.6 3.07999996,11.51 C2.86999996,12.08 3.04999996,12.76 3.51999996,13.15 C4.03999997,13.59 4.71999997,13.6 5.23999997,13.31 L8.20999998,15.03 C7.95999998,15.27 7.72999998,15.53 7.52999998,15.81 C7.16999998,16.3 7.52999998,17 8.14999998,17 C8.37999998,17 8.60999999,16.9 8.74999999,16.7 C9.46999999,15.68 10.65,15 12,15 C13.35,15 14.53,15.68 15.25,16.7 C15.39,16.89 15.61,17 15.85,17 L15.85,17 C16.47,17 16.83,16.3 16.47,15.8 Z" id="path-1"></path>
    </defs>
    <g id="sick" stroke="none" stroke-width="1" fill="none" fill-rule="evenodd">
        <mask id="mask-2" fill="white">
            <use xlink:href="#path-1"></use>
        </mask>
        <use id="Combined-Shape" fill="#000000" xlink:href="#path-1"></use>
    </g>
</svg>