<?xml version="1.0" encoding="UTF-8"?>
<svg width="24px" height="24px" viewBox="0 0 24 24" version="1.1" xmlns="http://www.w3.org/2000/svg" xmlns:xlink="http://www.w3.org/1999/xlink">
    <title>sports_kabaddi</title>
    <defs>
        <path d="M16.4033042,5.73836932 C17.0161728,4.96453701 18.0844445,4.68277775 19.01,5.06999997 L19.01,5.06999997 L24.0000001,7.17999998 L24.0000001,10.88 C24.0000001,11.43 23.55,11.88 23,11.88 L23,11.88 L22.8838011,11.8732398 C22.3880102,11.8152041 22,11.3907143 22,10.88 L22,10.88 L22,8.47999999 L20.2,7.77999998 L20.82,10.88 L22.76,20.64 C22.89,21.28 22.4,21.88 21.74,21.88 L21.74,21.88 L21.6190973,21.8730382 C21.1821528,21.8224306 20.8208334,21.5008334 20.72,21.07 L20.72,21.07 L19.1,13.88 L17,15.88 L17,20.88 C17,21.43 16.55,21.88 16,21.88 L16,21.88 L15.883801,21.8732398 C15.3880102,21.8152041 15,21.3907143 15,20.88 L15,20.88 L15,14.38 L15.94,13.49 L17.1,12.39 L16.5,9.38999999 C15.93,10.05 15.21,10.61 14.41,11.03 C13.47,10.93 12.64,10.55 11.95,9.85999999 L11.95,9.85999999 L11.89,9.79999999 C13.39,9.53999999 14.63,8.65999999 15.3,7.47999998 L15.3,7.47999998 L16.3,5.87999997 Z M7.82999998,7.97999998 C7.95999998,7.97999998 8.07999998,7.98999998 8.20999998,8.01999998 C8.45999999,8.05999998 8.70999999,8.15999998 8.92999999,8.29999998 C9.03999999,8.37999998 9.13999999,8.45999999 9.23999999,8.55999999 L9.23999999,8.55999999 L11.24,10.56 C11.97,11.29 12.9,11.83 14.03,12.01 C14.5,12.08 14.87,12.47 14.9,12.95 L14.9,12.95 L14.9024995,13.0636536 C14.882699,13.663564 14.342353,14.1535294 13.74,14.05 C12.23,13.8 10.97,13.11 9.94999999,12.11 L9.94999999,12.11 L9.23999999,11.4 L6.87999998,13.76 L8.99999999,15.88 L8.99999999,20.88 C8.99999999,21.43 8.54999999,21.88 7.99999998,21.88 L7.99999998,21.88 L7.883801,21.8732398 C7.38801018,21.8152041 6.99999998,21.3907143 6.99999998,20.88 L6.99999998,20.88 L6.99999998,16.75 L5.70999997,15.52 L5.70999997,17.74 L2.16999996,21.28 C1.77999996,21.67 1.14999995,21.67 0.759999953,21.28 L0.759999953,21.28 L0.67692303,21.1859582 C0.372307644,20.7944971 0.399999952,20.23 0.759999953,19.87 L0.759999953,19.87 L3.67999997,16.95 L2.60999996,14 C2.53999996,13.82 2.49999996,13.63 2.49999996,13.45 C2.45999996,12.89 2.66999996,12.32 3.07999996,11.91 L3.07999996,11.91 L6.41999998,8.56999999 C6.80999998,8.17999998 7.31999998,7.97999998 7.82999998,7.97999998 Z M11.39,4.40999997 C11.52,4.40999997 11.64,4.42999997 11.77,4.44999997 C11.9,4.46999997 12.02,4.50999997 12.14,4.55999997 C12.38,4.65999997 12.61,4.80999997 12.8,4.99999997 C13.1,5.28999997 13.28,5.65999997 13.35,6.02999998 C13.47,6.65999998 13.29,7.33999998 12.8,7.82999998 C12.61,8.02999998 12.38,8.16999998 12.14,8.26999998 C12.02,8.31999998 11.9,8.35999998 11.77,8.37999998 C11.65,8.40999997 11.52,8.41999999 11.39,8.41999999 C11.26,8.41999999 11.14,8.39999999 11.01,8.37999998 C10.76,8.32999998 10.51,8.23999998 10.29,8.08999998 C10.18,8.00999998 10.07,7.92999998 9.97999999,7.82999998 C9.48999999,7.33999998 9.30999999,6.65999998 9.42999999,6.02999998 C9.49999999,5.65999997 9.67999999,5.28999997 9.97999999,4.99999997 C10.17,4.80999997 10.4,4.65999997 10.63,4.54999997 C10.76,4.49999997 10.9,4.45999997 11.04,4.43999997 C11.16,4.41999997 11.27,4.40999997 11.39,4.40999997 Z M16.5,0.379999952 C17.6045695,0.379999952 18.5,1.27543046 18.5,2.37999995 C18.5,3.48456946 17.6045695,4.37999995 16.5,4.37999995 C15.3954305,4.37999995 14.5,3.48456946 14.5,2.37999995 C14.5,1.27543046 15.3954305,0.379999952 16.5,0.379999952 Z" id="path-1"></path>
    </defs>
    <g id="sports_kabaddi" stroke="none" stroke-width="1" fill="none" fill-rule="evenodd">
        <mask id="mask-2" fill="white">
            <use xlink:href="#path-1"></use>
        </mask>
        <use id="Combined-Shape" fill="#000000" xlink:href="#path-1"></use>
    </g>
</svg>