<?xml version="1.0" encoding="UTF-8"?>
<svg width="24px" height="24px" viewBox="0 0 24 24" version="1.1" xmlns="http://www.w3.org/2000/svg" xmlns:xlink="http://www.w3.org/1999/xlink">
    <title>sports</title>
    <defs>
        <path d="M21,5.99999998 C21.55,5.99999998 22,6.44999998 22,6.99999998 L22,6.99999998 L22,8.99999998 C22,9.54999999 21.56,9.99999998 20.69,10.01 L20.69,10.01 L17.93,10.01 C17.32,10.01 16.85,10.54 16.94,11.14 C17.03,11.8 17.03,12.49 16.88,13.2 C16.37,15.71 14.24,17.69 11.69,17.97 C7.95999998,18.38 4.82999997,15.38 5.00999997,11.7 C5.01999997,11.43 5.05999997,11.17 5.10999997,10.92 C4.90999997,10.97 4.70999997,11 4.49999996,11 C3.11999996,11 1.99999996,9.87999999 1.99999996,8.49999998 C1.99999996,7.11999998 3.11999996,5.99999998 4.49999996,5.99999998 C5.60999997,5.99999998 6.53999998,6.72999998 6.86999998,7.72999998 C8.00999998,6.65999998 9.56999999,5.99999998 11.23,5.99999998 L11.23,5.99999998 Z M11,8.99999999 C9.33999999,8.99999999 7.99999998,10.34 7.99999998,12 C7.99999998,13.66 9.33999999,15 11,15 C12.66,15 14,13.66 14,12 C14,10.34 12.66,8.99999999 11,8.99999999 Z M11,9.99999999 C12.1045695,9.99999999 13,10.8954305 13,12 C13,13.1045695 12.1045695,14 11,14 C9.89543049,14 8.99999999,13.1045695 8.99999999,12 C8.99999999,10.8954305 9.89543049,9.99999999 11,9.99999999 Z M4.49999997,7.99999998 C4.21999997,7.99999998 3.99999997,8.21999998 3.99999997,8.49999998 C3.99999997,8.77999999 4.21999997,8.99999998 4.49999997,8.99999998 C4.77999997,8.99999998 4.99999997,8.77999999 4.99999997,8.49999998 C4.99999997,8.21999998 4.77999997,7.99999998 4.49999997,7.99999998 Z" id="path-1"></path>
    </defs>
    <g id="sports" stroke="none" stroke-width="1" fill="none" fill-rule="evenodd">
        <mask id="mask-2" fill="white">
            <use xlink:href="#path-1"></use>
        </mask>
        <use id="Combined-Shape" fill="#000000" xlink:href="#path-1"></use>
    </g>
</svg>