<?xml version="1.0" encoding="UTF-8"?>
<svg width="24px" height="24px" viewBox="0 0 24 24" version="1.1" xmlns="http://www.w3.org/2000/svg" xmlns:xlink="http://www.w3.org/1999/xlink">
    <title>sports_handball</title>
    <defs>
        <path d="M9.19999999,2.12999996 C9.40999999,1.55999996 10.1,1.32999996 10.63,1.62999996 C11.05,1.86999996 11.23,2.37999996 11.06,2.83999996 C10.23,5.07999997 11.11,7.66999998 13.24,8.90999999 C14.1256522,9.42130434 15.5615123,10.2493951 15.8045303,10.3895447 L15.84,10.41 C18.45,12.61 19.01,15.83 18.04,18.45 C17.82,19.03 17.13,19.26 16.6,18.95 C16.19,18.71 16,18.2 16.17,17.75 C16.77,16.15 16.49,14.37 15.51,13.03 L15.51,13.03 L9.71999999,23.05 C9.43999999,23.53 8.82999999,23.7 8.34999998,23.42 C7.86999998,23.14 7.69999998,22.53 7.97999998,22.05 L7.97999998,22.05 L10.48,17.72 L8.74999999,16.72 L7.74999998,18.45 C7.46999998,18.93 6.85999998,19.1 6.37999998,18.82 C5.89999997,18.54 5.72999997,17.93 6.00999998,17.45 L6.00999998,17.45 L10.66,9.39999999 C8.84999999,7.47999998 8.24999998,4.63999997 9.19999999,2.12999996 Z M14.27,5.99999998 C14.82,5.04999997 16.05,4.71999997 17,5.26999997 C17.95,5.81999997 18.28,7.04999998 17.73,7.99999998 C17.18,8.94999999 15.95,9.27999999 15,8.72999999 C14.05,8.17999998 13.72,6.94999998 14.27,5.99999998 Z M12.2,1.74999996 C12.62,1.02999995 13.53,0.789999953 14.25,1.19999996 C14.97,1.61999996 15.21,2.52999996 14.8,3.24999996 C14.38,3.96999997 13.47,4.20999997 12.75,3.79999997 C12.03,3.38999996 11.79,2.46999996 12.2,1.74999996 Z" id="path-1"></path>
    </defs>
    <g id="sports_handball" stroke="none" stroke-width="1" fill="none" fill-rule="evenodd">
        <mask id="mask-2" fill="white">
            <use xlink:href="#path-1"></use>
        </mask>
        <use id="Combined-Shape" fill="#000000" xlink:href="#path-1"></use>
    </g>
</svg>