<svg height="24" viewBox="0 0 24 24" width="24" xmlns="http://www.w3.org/2000/svg">
<path d="m14.6 20.78v.86c0 .4749649-.3850351.86-.86.86h-3.44c-.47496488 0-.86-.3850351-.86-.86v-.86zm-2.58-15.48c3.3247542 0 6.02 2.69524581 6.02 6.02 0 2.0468-1.0234 3.8442-2.58 4.9364v1.9436c0 .4749649-.3850351.86-.86.86h-5.16c-.47496488 0-.86-.3850351-.86-.86v-1.9436c-1.5566-1.0922-2.58-2.8896-2.58-4.9364 0-3.32475419 2.69524581-6.02 6.02-6.02zm-6.68851547 11.4924218c.33581494-.335815.88027857-.335815 1.21609359-.0000001l.07695767.0880591c.2565253.3370508.23087279.820204-.07695753 1.1280343l-.60804721.6080473c-.33581494.335815-.88027855.335815-1.21609355.0000001l-.07695764-.0880591c-.25652531-.3370508-.23087281-.820204.07695751-1.1280343zm12.16093717-.0000001c.3358149-.3358149.8802784-.3358149 1.2160933 0l.6080475.6080475c.3358149.3358149.3358149.8802784 0 1.2160933s-.8802784.3358149-1.2160933 0l-.6080475-.6080475c-.3358149-.3358149-.3358149-.8802784 0-1.2160933zm-5.4724217-9.7724217c-2.37482442 0-4.3 1.92517558-4.3 4.3 0 1.763 1.0578 3.2766 2.58 3.9388v2.0812h3.44v-2.0812c1.5222-.6622 2.58-2.1758 2.58-3.9388 0-2.37482442-1.9251756-4.3-4.3-4.3zm-8.6 3.44c.47496488 0 .86.3850351.86.86s-.38503512.86-.86.86h-.86c-.47496488 0-.86-.3850351-.86-.86s.38503512-.86.86-.86zm18.06 0c.4749649 0 .86.3850351.86.86s-.3850351.86-.86.86h-.86c-.4749649 0-.86-.3850351-.86-.86s.3850351-.86.86-.86zm-16.7565625-6.4365625c.33581499-.33581499.88027868-.335815 1.21609368-.00000001l.60804693.6080469.07695762.08805912c.25652535.3370509.23087282.82020419-.07695761 1.12803461l-.08805912.07695762c-.33705091.25652535-.82020419.2308728-1.12803461-.07695763l-.6080469-.60804693c-.33581499-.335815-.33581498-.88027869.00000001-1.21609368zm13.3770316-.00000017c.335815-.33581488.8802785-.3358148 1.2160934.00000017.3358149.335815.3358149.88027861-.0000001 1.21609355l-.6080473.60804721-.0880592.07695765c-.3370508.25652522-.820204.23087261-1.1280342-.07695779-.3358149-.33581502-.3358149-.88027865.0000001-1.21609359zm-6.0804691-3.02343733c.4749649 0 .86.38503512.86.86v.86c0 .47496488-.3850351.86-.86.86s-.86-.38503512-.86-.86v-.86c0-.47496488.3850351-.86.86-.86z"/>
</svg>