<?xml version="1.0" encoding="UTF-8"?>
<svg width="24px" height="24px" viewBox="0 0 24 24" version="1.1" xmlns="http://www.w3.org/2000/svg" xmlns:xlink="http://www.w3.org/1999/xlink">
    <title>mt</title>
    <defs>
        <path d="M18.2943586,3 L5.71446237,3 C4.23538133,3 3,4.24418976 3,5.71446237 L3,18.2855501 C3,19.7646312 4.24418976,21.0000125 5.71446237,21.0000125 L18.2855501,21.0000125 C19.7646312,21.0000125 21.000059,19.7558228 21.000059,18.2855501 L21.000059,5.71446237 C21.0088209,4.24418976 19.7646312,3 18.2943586,3 Z M19.4511981,10.995112 L17.5896847,10.995112 L17.5896847,15.7274373 L16.3543034,15.7274373 L16.3543034,10.995112 L14.6491395,10.995112 L15.3450049,15.7274373 L13.5612992,15.7274373 L13.0217833,11.4560861 C12.9432416,10.8387625 12.8654338,10.4467877 12.8654338,10.2904381 C12.8654338,10.4467877 12.7090843,10.9077618 12.5520008,11.4560861 L11.1514615,15.7274373 L9.36775583,15.7274373 L7.96721657,11.4560861 C7.73232529,10.9165702 7.57597578,10.4467877 7.49743401,10.2904381 C7.49743401,10.4467877 7.41889223,10.9863036 7.41889223,11.5346279 L6.87937632,15.7281713 L5.2527542,15.7281713 L6.41840218,7.49816804 L8.12356608,7.49816804 L9.82872997,12.5439264 C10.0636213,13.16125 10.2199708,13.7095744 10.2985125,13.9444656 C10.3770543,13.7095744 10.5334038,13.0922507 10.7682951,12.5439264 L12.5520008,7.49816804 L14.2571647,7.49816804 L14.6484055,9.97773913 L19.5378143,9.97773913 L19.5378143,10.9870376 L19.4504641,10.9870376 L19.4511981,10.995112 Z" id="path-1"></path>
    </defs>
    <g id="mt" stroke="none" stroke-width="1" fill="none" fill-rule="evenodd">
        <mask id="mask-2" fill="white">
            <use xlink:href="#path-1"></use>
        </mask>
        <use id="Shape" fill="#000000" xlink:href="#path-1"></use>
    </g>
</svg>