<?xml version="1.0" encoding="UTF-8"?>
<svg width="24px" height="24px" viewBox="0 0 24 24" version="1.1" xmlns="http://www.w3.org/2000/svg" xmlns:xlink="http://www.w3.org/1999/xlink">
    <title>non_mindtap_activity</title>
    <defs>
        <path d="M12,2 C6.42857143,2 2,6.42857143 2,12 C2,17.5714286 6.42857143,22 12,22 C17.5714286,22 22,17.5714286 22,12 C22,6.42857143 17.5714286,2 12,2 Z M15.255808,16.2105263 L13.1294716,16.2105263 L9.69711143,10.2416735 L9.6485403,10.2416735 C9.71690001,11.2958523 9.75107936,12.0477979 9.75107936,12.4975329 L9.75107936,16.2105263 L8.25616776,16.2105263 L8.25616776,8.3204153 L10.3663137,8.3204153 L13.7932771,14.2299034 L13.8310547,14.2299034 C13.7770865,13.2045076 13.7501028,12.4795457 13.7501028,12.0549959 L13.7501028,8.3204153 L15.255808,8.3204153 L15.255808,16.2105263 Z" id="path-1"></path>
    </defs>
    <g id="non_mindtap_activity" stroke="none" stroke-width="1" fill="none" fill-rule="evenodd">
        <mask id="mask-2" fill="white">
            <use xlink:href="#path-1"></use>
        </mask>
        <use id="Combined-Shape" fill="#000000" xlink:href="#path-1"></use>
    </g>
</svg>