<svg height="24" viewBox="0 0 24 24" width="24" xmlns="http://www.w3.org/2000/svg"><path d="m12.769232 20.0407668 7.6923067-4.1946148v-7.64461438l-7.6923067 2.80076888zm-.7692306-10.39692169 8.3892296-3.0530765-8.3892296-3.05307651-8.38922967 3.05307651zm9.9999986-3.02846112v9.23076801c0 .2805127-.0720513.5410255-.2161538.7815383-.1441026.2405128-.3405128.4287179-.5892307.5646153l-8.4615373 4.615384c-.2246154.1282051-.4689743.1923104-.7330782.1923104-.2641012 0-.5084601-.0641053-.7330755-.1923104l-8.46153728-4.615384c-.24820509-.1364102-.44461532-.3246153-.58923069-.5646153-.14461536-.2399999-.21666663-.5005127-.21615653-.7815383v-9.23076801c0-.32051278.09205399-.61307684.27615653-.87769219s.42846148-.45282045.73307682-.56461531l8.46153735-3.07692266c.1764102-.06410255.3528204-.09615383.5292293-.09615383.1764116 0 .3528218.03205128.5292321.09615383l8.4615373 3.07692266c.3046153.11230768.5489743.30051278.7330768.56461531s.2761538.55666659.2761538.87769219z"/></svg>