<?xml version="1.0" encoding="UTF-8"?>
<svg width="24px" height="24px" viewBox="0 0 24 24" version="1.1" xmlns="http://www.w3.org/2000/svg" xmlns:xlink="http://www.w3.org/1999/xlink">
    <title>border_vertical</title>
    <defs>
        <path d="M2.99999996,8.99999998 L4.99999996,8.99999998 L4.99999996,6.99999998 L2.99999996,6.99999998 L2.99999996,8.99999998 Z M2.99999996,4.99999996 L4.99999996,4.99999996 L4.99999996,2.99999996 L2.99999996,2.99999996 L2.99999996,4.99999996 Z M6.99999998,21 L8.99999998,21 L8.99999998,19 L6.99999998,19 L6.99999998,21 Z M6.99999998,13 L8.99999998,13 L8.99999998,11 L6.99999998,11 L6.99999998,13 Z M2.99999996,13 L4.99999996,13 L4.99999996,11 L2.99999996,11 L2.99999996,13 Z M2.99999996,21 L4.99999996,21 L4.99999996,19 L2.99999996,19 L2.99999996,21 Z M2.99999996,17 L4.99999996,17 L4.99999996,15 L2.99999996,15 L2.99999996,17 Z M6.99999998,4.99999996 L8.99999998,4.99999996 L8.99999998,2.99999996 L6.99999998,2.99999996 L6.99999998,4.99999996 Z M19,17 L21,17 L21,15 L19,15 L19,17 Z M12,21 C12.55,21 13,20.55 13,20 L13,3.99999996 C13,3.44999996 12.55,2.99999996 12,2.99999996 C11.45,2.99999996 11,3.44999996 11,3.99999996 L11,20 C11,20.55 11.45,21 12,21 Z M19,21 L21,21 L21,19 L19,19 L19,21 Z M19,13 L21,13 L21,11 L19,11 L19,13 Z M19,2.99999996 L19,4.99999996 L21,4.99999996 L21,2.99999996 L19,2.99999996 Z M19,8.99999998 L21,8.99999998 L21,6.99999998 L19,6.99999998 L19,8.99999998 Z M15,4.99999996 L17,4.99999996 L17,2.99999996 L15,2.99999996 L15,4.99999996 Z M15,21 L17,21 L17,19 L15,19 L15,21 Z M15,13 L17,13 L17,11 L15,11 L15,13 Z" id="path-1"></path>
    </defs>
    <g id="border_vertical" stroke="none" stroke-width="1" fill="none" fill-rule="evenodd">
        <mask id="mask-2" fill="white">
            <use xlink:href="#path-1"></use>
        </mask>
        <use id="Combined-Shape" fill="#000000" xlink:href="#path-1"></use>
    </g>
</svg>