<?xml version="1.0" encoding="UTF-8"?>
<svg width="24px" height="24px" viewBox="0 0 24 24" version="1.1" xmlns="http://www.w3.org/2000/svg" xmlns:xlink="http://www.w3.org/1999/xlink">
    <title>border_style</title>
    <defs>
        <path d="M15,21 L17,21 L17,19 L15,19 L15,21 Z M19,21 L21,21 L21,19 L19,19 L19,21 Z M6.99999998,21 L8.99999998,21 L8.99999998,19 L6.99999998,19 L6.99999998,21 Z M11,21 L13,21 L13,19 L11,19 L11,21 Z M19,17 L21,17 L21,15 L19,15 L19,17 Z M19,13 L21,13 L21,11 L19,11 L19,13 Z M2.99999996,4.99999996 L2.99999996,20 C2.99999996,20.55 3.44999996,21 3.99999996,21 C4.54999997,21 4.99999996,20.55 4.99999996,20 L4.99999996,5.99999996 C4.99999996,5.44999997 5.44999997,4.99999996 5.99999996,4.99999996 L20,4.99999996 C20.55,4.99999996 21,4.54999997 21,3.99999996 C21,3.44999996 20.55,2.99999996 20,2.99999996 L4.99999996,2.99999996 C3.89999997,2.99999996 2.99999996,3.89999997 2.99999996,4.99999996 Z M19,8.99999998 L21,8.99999998 L21,6.99999998 L19,6.99999998 L19,8.99999998 Z" id="path-1"></path>
    </defs>
    <g id="border_style" stroke="none" stroke-width="1" fill="none" fill-rule="evenodd">
        <mask id="mask-2" fill="white">
            <use xlink:href="#path-1"></use>
        </mask>
        <use id="Combined-Shape" fill="#000000" xlink:href="#path-1"></use>
    </g>
</svg>