<?xml version="1.0" encoding="UTF-8"?>
<svg width="24px" height="24px" viewBox="0 0 24 24" version="1.1" xmlns="http://www.w3.org/2000/svg" xmlns:xlink="http://www.w3.org/1999/xlink">
    <title>format_shapes</title>
    <defs>
        <path d="M23,5.99999995 L23,1.99999995 C23,1.44999996 22.55,0.999999954 22,0.999999954 L18,0.999999954 C17.45,0.999999954 17,1.44999996 17,1.99999995 L17,2.99999995 L6.99999995,2.99999995 L6.99999995,1.99999995 C6.99999995,1.44999996 6.54999998,0.999999954 5.99999995,0.999999954 L1.99999995,0.999999954 C1.44999996,0.999999954 0.999999954,1.44999996 0.999999954,1.99999995 L0.999999954,5.99999995 C0.999999954,6.54999998 1.44999996,6.99999995 1.99999995,6.99999995 L2.99999995,6.99999995 L2.99999995,17 L1.99999995,17 C1.44999996,17 0.999999954,17.45 0.999999954,18 L0.999999954,22 C0.999999954,22.55 1.44999996,23 1.99999995,23 L5.99999995,23 C6.54999998,23 6.99999995,22.55 6.99999995,22 L6.99999995,21 L17,21 L17,22 C17,22.55 17.45,23 18,23 L22,23 C22.55,23 23,22.55 23,22 L23,18 C23,17.45 22.55,17 22,17 L21,17 L21,6.99999995 L22,6.99999995 C22.55,6.99999995 23,6.54999998 23,5.99999995 Z M2.99999996,2.99999996 L4.99999996,2.99999996 L4.99999996,4.99999996 L2.99999996,4.99999996 L2.99999996,2.99999996 Z M4.99999996,21 L2.99999996,21 L2.99999996,19 L4.99999996,19 L4.99999996,21 Z M17,19 L6.99999997,19 L6.99999997,18 C6.99999997,17.45 6.54999998,17 5.99999997,17 L4.99999997,17 L4.99999997,6.99999997 L5.99999997,6.99999997 C6.54999998,6.99999997 6.99999997,6.54999998 6.99999997,5.99999997 L6.99999997,4.99999997 L17,4.99999997 L17,5.99999997 C17,6.54999998 17.45,6.99999997 18,6.99999997 L19,6.99999997 L19,17 L18,17 C17.45,17 17,17.45 17,18 L17,19 Z M21,21 L19,21 L19,19 L21,19 L21,21 Z M19,4.99999996 L19,2.99999996 L21,2.99999996 L21,4.99999996 L19,4.99999996 Z M12.94,7.64999998 C12.79,7.25999998 12.41,6.99999998 11.99,6.99999998 C11.57,6.99999998 11.19,7.25999998 11.05,7.64999998 L8.27999998,14.98 C8.08999998,15.47 8.44999999,16 8.97999999,16 C9.29999999,16 9.57999999,15.8 9.68999999,15.5 L10.24,14 L13.73,14 L14.29,15.51 C14.4,15.8 14.68,16 15,16 L15.01,16 C15.54,16 15.9,15.47 15.72,14.98 L12.94,7.64999998 L12.94,7.64999998 Z M10.69,12.74 L12,8.90999999 L13.3,12.74 L10.69,12.74 Z" id="path-1"></path>
    </defs>
    <g id="format_shapes" stroke="none" stroke-width="1" fill="none" fill-rule="evenodd">
        <mask id="mask-2" fill="white">
            <use xlink:href="#path-1"></use>
        </mask>
        <use id="Combined-Shape" fill="#000000" xlink:href="#path-1"></use>
    </g>
</svg>