<?xml version="1.0" encoding="UTF-8"?>
<svg width="24px" height="24px" viewBox="0 0 24 24" version="1.1" xmlns="http://www.w3.org/2000/svg" xmlns:xlink="http://www.w3.org/1999/xlink">
    <title>format_list_numbered</title>
    <defs>
        <path d="M7.99999998,6.99999997 L20,6.99999997 C20.55,6.99999997 21,6.54999998 21,5.99999997 C21,5.44999997 20.55,4.99999997 20,4.99999997 L7.99999998,4.99999997 C7.44999998,4.99999997 6.99999998,5.44999997 6.99999998,5.99999997 C6.99999998,6.54999998 7.44999998,6.99999997 7.99999998,6.99999997 Z M20,17 L7.99999998,17 C7.44999998,17 6.99999998,17.45 6.99999998,18 C6.99999998,18.55 7.44999998,19 7.99999998,19 L20,19 C20.55,19 21,18.55 21,18 C21,17.45 20.55,17 20,17 Z M20,11 L7.99999998,11 C7.44999998,11 6.99999998,11.45 6.99999998,12 C6.99999998,12.55 7.44999998,13 7.99999998,13 L20,13 C20.55,13 21,12.55 21,12 C21,11.45 20.55,11 20,11 Z M4.49999996,16 L2.49999996,16 C2.21999996,16 1.99999996,16.22 1.99999996,16.5 C1.99999996,16.78 2.21999996,17 2.49999996,17 L3.99999996,17 L3.99999996,17.5 L3.49999996,17.5 C3.21999996,17.5 2.99999996,17.72 2.99999996,18 C2.99999996,18.28 3.21999996,18.5 3.49999996,18.5 L3.99999996,18.5 L3.99999996,19 L2.49999996,19 C2.21999996,19 1.99999996,19.22 1.99999996,19.5 C1.99999996,19.78 2.21999996,20 2.49999996,20 L4.49999996,20 C4.77999997,20 4.99999996,19.78 4.99999996,19.5 L4.99999996,16.5 C4.99999996,16.22 4.77999997,16 4.49999996,16 Z M2.49999996,4.99999997 L2.99999996,4.99999997 L2.99999996,7.49999997 C2.99999996,7.77999998 3.21999996,7.99999997 3.49999996,7.99999997 C3.77999997,7.99999997 3.99999996,7.77999998 3.99999996,7.49999997 L3.99999996,4.49999997 C3.99999996,4.21999997 3.77999997,3.99999997 3.49999996,3.99999997 L2.49999996,3.99999997 C2.21999996,3.99999997 1.99999996,4.21999997 1.99999996,4.49999997 C1.99999996,4.77999997 2.21999996,4.99999997 2.49999996,4.99999997 Z M4.49999996,9.99999999 L2.49999996,9.99999999 C2.21999996,9.99999999 1.99999996,10.22 1.99999996,10.5 C1.99999996,10.78 2.21999996,11 2.49999996,11 L3.79999997,11 L2.11999996,12.96 C2.03999996,13.05 1.99999996,13.17 1.99999996,13.28 L1.99999996,13.5 C1.99999996,13.78 2.21999996,14 2.49999996,14 L4.49999996,14 C4.77999997,14 4.99999996,13.78 4.99999996,13.5 C4.99999996,13.22 4.77999997,13 4.49999996,13 L3.19999996,13 L4.87999997,11.04 C4.95999997,10.95 4.99999996,10.83 4.99999996,10.72 L4.99999996,10.5 C4.99999996,10.22 4.77999997,9.99999999 4.49999996,9.99999999 L4.49999996,9.99999999 Z" id="path-1"></path>
    </defs>
    <g id="format_list_numbered" stroke="none" stroke-width="1" fill="none" fill-rule="evenodd">
        <mask id="mask-2" fill="white">
            <use xlink:href="#path-1"></use>
        </mask>
        <use id="Combined-Shape" fill="#000000" xlink:href="#path-1"></use>
    </g>
</svg>