<?xml version="1.0" encoding="UTF-8"?>
<svg width="24px" height="24px" viewBox="0 0 24 24" version="1.1" xmlns="http://www.w3.org/2000/svg" xmlns:xlink="http://www.w3.org/1999/xlink">
    <title>format_list_bulleted</title>
    <defs>
        <path d="M3.99999996,10.5 C3.16999996,10.5 2.49999996,11.17 2.49999996,12 C2.49999996,12.83 3.16999996,13.5 3.99999996,13.5 C4.82999997,13.5 5.49999996,12.83 5.49999996,12 C5.49999996,11.17 4.82999997,10.5 3.99999996,10.5 Z M3.99999996,4.49999997 C3.16999996,4.49999997 2.49999996,5.16999997 2.49999996,5.99999997 C2.49999996,6.82999998 3.16999996,7.49999997 3.99999996,7.49999997 C4.82999997,7.49999997 5.49999996,6.82999998 5.49999996,5.99999997 C5.49999996,5.16999997 4.82999997,4.49999997 3.99999996,4.49999997 Z M3.99999996,16.5 C3.16999996,16.5 2.49999996,17.18 2.49999996,18 C2.49999996,18.82 3.17999996,19.5 3.99999996,19.5 C4.81999997,19.5 5.49999996,18.82 5.49999996,18 C5.49999996,17.18 4.82999997,16.5 3.99999996,16.5 Z M7.99999998,19 L20,19 C20.55,19 21,18.55 21,18 C21,17.45 20.55,17 20,17 L7.99999998,17 C7.44999998,17 6.99999998,17.45 6.99999998,18 C6.99999998,18.55 7.44999998,19 7.99999998,19 Z M7.99999998,13 L20,13 C20.55,13 21,12.55 21,12 C21,11.45 20.55,11 20,11 L7.99999998,11 C7.44999998,11 6.99999998,11.45 6.99999998,12 C6.99999998,12.55 7.44999998,13 7.99999998,13 Z M6.99999998,5.99999997 C6.99999998,6.54999998 7.44999998,6.99999997 7.99999998,6.99999997 L20,6.99999997 C20.55,6.99999997 21,6.54999998 21,5.99999997 C21,5.44999997 20.55,4.99999997 20,4.99999997 L7.99999998,4.99999997 C7.44999998,4.99999997 6.99999998,5.44999997 6.99999998,5.99999997 Z" id="path-1"></path>
    </defs>
    <g id="format_list_bulleted" stroke="none" stroke-width="1" fill="none" fill-rule="evenodd">
        <mask id="mask-2" fill="white">
            <use xlink:href="#path-1"></use>
        </mask>
        <use id="Combined-Shape" fill="#000000" xlink:href="#path-1"></use>
    </g>
</svg>