<?xml version="1.0" encoding="UTF-8"?>
<svg width="24px" height="24px" viewBox="0 0 24 24" version="1.1" xmlns="http://www.w3.org/2000/svg" xmlns:xlink="http://www.w3.org/1999/xlink">
    <title>format_align_left</title>
    <defs>
        <path d="M14,15 L3.99999996,15 C3.44999996,15 2.99999996,15.45 2.99999996,16 C2.99999996,16.55 3.44999996,17 3.99999996,17 L14,17 C14.55,17 15,16.55 15,16 C15,15.45 14.55,15 14,15 Z M14,6.99999998 L3.99999996,6.99999998 C3.44999996,6.99999998 2.99999996,7.44999998 2.99999996,7.99999998 C2.99999996,8.54999999 3.44999996,8.99999998 3.99999996,8.99999998 L14,8.99999998 C14.55,8.99999998 15,8.54999999 15,7.99999998 C15,7.44999998 14.55,6.99999998 14,6.99999998 Z M3.99999996,13 L20,13 C20.55,13 21,12.55 21,12 C21,11.45 20.55,11 20,11 L3.99999996,11 C3.44999996,11 2.99999996,11.45 2.99999996,12 C2.99999996,12.55 3.44999996,13 3.99999996,13 Z M3.99999996,21 L20,21 C20.55,21 21,20.55 21,20 C21,19.45 20.55,19 20,19 L3.99999996,19 C3.44999996,19 2.99999996,19.45 2.99999996,20 C2.99999996,20.55 3.44999996,21 3.99999996,21 Z M2.99999996,3.99999996 C2.99999996,4.54999997 3.44999996,4.99999996 3.99999996,4.99999996 L20,4.99999996 C20.55,4.99999996 21,4.54999997 21,3.99999996 C21,3.44999996 20.55,2.99999996 20,2.99999996 L3.99999996,2.99999996 C3.44999996,2.99999996 2.99999996,3.44999996 2.99999996,3.99999996 Z" id="path-1"></path>
    </defs>
    <g id="format_align_left" stroke="none" stroke-width="1" fill="none" fill-rule="evenodd">
        <mask id="mask-2" fill="white">
            <use xlink:href="#path-1"></use>
        </mask>
        <use id="Combined-Shape" fill="#000000" xlink:href="#path-1"></use>
    </g>
</svg>