<?xml version="1.0" encoding="UTF-8"?>
<svg width="24px" height="24px" viewBox="0 0 24 24" version="1.1" xmlns="http://www.w3.org/2000/svg" xmlns:xlink="http://www.w3.org/1999/xlink">
    <title>format_list_numbered_rtl</title>
    <defs>
        <path d="M20.5,16 L18.5,16 C18.22,16 18,16.22 18,16.5 C18,16.78 18.22,17 18.5,17 L20,17 L20,17.5 L19.5,17.5 C19.22,17.5 19,17.72 19,18 C19,18.28 19.22,18.5 19.5,18.5 L20,18.5 L20,19 L18.5,19 C18.22,19 18,19.22 18,19.5 C18,19.78 18.22,20 18.5,20 L20.5,20 C20.78,20 21,19.78 21,19.5 L21,16.5 C21,16.22 20.78,16 20.5,16 Z M18.5,4.99999997 L19,4.99999997 L19,7.49999997 C19,7.77999998 19.22,7.99999997 19.5,7.99999997 C19.78,7.99999997 20,7.77999998 20,7.49999997 L20,4.49999997 C20,4.21999997 19.78,3.99999997 19.5,3.99999997 L18.5,3.99999997 C18.22,3.99999997 18,4.21999997 18,4.49999997 C18,4.77999997 18.22,4.99999997 18.5,4.99999997 Z M21,10.72 L21,10.5 C21,10.22 20.78,9.99999999 20.5,9.99999999 L18.5,9.99999999 C18.22,9.99999999 18,10.22 18,10.5 C18,10.78 18.22,11 18.5,11 L19.8,11 L18.12,12.96 C18.04,13.05 18,13.17 18,13.28 L18,13.5 C18,13.78 18.22,14 18.5,14 L20.5,14 C20.78,14 21,13.78 21,13.5 C21,13.22 20.78,13 20.5,13 L19.2,13 L20.88,11.04 C20.96,10.95 21,10.83 21,10.72 Z M15,4.99999997 L2.99999996,4.99999997 C2.44999996,4.99999997 1.99999996,5.44999997 1.99999996,5.99999997 C1.99999996,6.54999998 2.44999996,6.99999997 2.99999996,6.99999997 L15,6.99999997 C15.55,6.99999997 16,6.54999998 16,5.99999997 C16,5.44999997 15.55,4.99999997 15,4.99999997 Z M15,17 L2.99999996,17 C2.44999996,17 1.99999996,17.45 1.99999996,18 C1.99999996,18.55 2.44999996,19 2.99999996,19 L15,19 C15.55,19 16,18.55 16,18 C16,17.45 15.55,17 15,17 Z M15,11 L2.99999996,11 C2.44999996,11 1.99999996,11.45 1.99999996,12 C1.99999996,12.55 2.44999996,13 2.99999996,13 L15,13 C15.55,13 16,12.55 16,12 C16,11.45 15.55,11 15,11 Z" id="path-1"></path>
    </defs>
    <g id="format_list_numbered_rtl" stroke="none" stroke-width="1" fill="none" fill-rule="evenodd">
        <mask id="mask-2" fill="white">
            <use xlink:href="#path-1"></use>
        </mask>
        <use id="Combined-Shape" fill="#000000" xlink:href="#path-1"></use>
    </g>
</svg>