<?xml version="1.0" encoding="UTF-8"?>
<svg width="24px" height="24px" viewBox="0 0 24 24" version="1.1" xmlns="http://www.w3.org/2000/svg" xmlns:xlink="http://www.w3.org/1999/xlink">
    <title>highlight</title>
    <defs>
        <path d="M6.28999998,14.29 L8.99999997,17 L8.99999997,21 C8.99999997,21.55 9.44999999,22 9.99999997,22 L14,22 C14.55,22 15,21.55 15,21 L15,17 L17.71,14.29 C17.9,14.1 18,13.85 18,13.58 L18,9.99999999 C18,9.44999999 17.55,8.99999999 17,8.99999999 L6.99999997,8.99999999 C6.44999998,8.99999999 5.99999997,9.44999999 5.99999997,9.99999999 L5.99999997,13.59 C5.99999997,13.85 6.10999998,14.11 6.28999998,14.29 Z M12,1.99999996 C12.55,1.99999996 13,2.44999996 13,2.99999996 L13,3.99999996 C13,4.54999997 12.55,4.99999996 12,4.99999996 C11.45,4.99999996 11,4.54999997 11,3.99999996 L11,2.99999996 C11,2.44999996 11.45,1.99999996 12,1.99999996 Z M4.20999997,5.16999997 C4.59999997,4.77999997 5.22999997,4.77999997 5.62999997,5.16999997 L6.33999998,5.87999997 C6.72999998,6.26999998 6.72999998,6.89999998 6.33999998,7.28999998 C5.94999997,7.67999998 5.31999997,7.67999998 4.92999997,7.28999998 L4.20999997,6.57999998 C3.81999997,6.18999998 3.81999997,5.55999997 4.20999997,5.16999997 Z M17.67,5.87999997 L18.38,5.16999997 C18.77,4.77999997 19.4,4.77999997 19.79,5.16999997 C20.18,5.55999997 20.18,6.18999998 19.79,6.57999998 L19.08,7.28999998 C18.69,7.67999998 18.06,7.67999998 17.67,7.28999998 C17.28,6.89999998 17.28,6.26999998 17.67,5.87999997 Z" id="path-1"></path>
    </defs>
    <g id="highlight" stroke="none" stroke-width="1" fill="none" fill-rule="evenodd">
        <mask id="mask-2" fill="white">
            <use xlink:href="#path-1"></use>
        </mask>
        <use id="Combined-Shape" fill="#000000" xlink:href="#path-1"></use>
    </g>
</svg>