<?xml version="1.0" encoding="UTF-8"?>
<svg width="24px" height="24px" viewBox="0 0 24 24" version="1.1" xmlns="http://www.w3.org/2000/svg" xmlns:xlink="http://www.w3.org/1999/xlink">
    <title>merge_type</title>
    <defs>
        <path d="M17.7,19.7 C18.09,19.31 18.09,18.68 17.7,18.29 L15,15.59 L13.59,17 L16.29,19.7 C16.68,20.09 17.32,20.09 17.7,19.7 Z M8.70999999,7.99999998 L11,7.99999998 L11,13.59 L6.28999998,18.29 C5.89999997,18.68 5.89999997,19.31 6.28999998,19.7 C6.67999998,20.09 7.30999998,20.09 7.69999998,19.7 L12.41,15 C12.79,14.62 13,14.12 13,13.59 L13,7.99999998 L15.29,7.99999998 C15.74,7.99999998 15.96,7.45999998 15.64,7.14999998 L12.35,3.85999997 C12.15,3.65999997 11.84,3.65999997 11.64,3.85999997 L8.34999998,7.14999998 C8.03999998,7.45999998 8.25999998,7.99999998 8.70999999,7.99999998 Z" id="path-1"></path>
    </defs>
    <g id="merge_type" stroke="none" stroke-width="1" fill="none" fill-rule="evenodd">
        <mask id="mask-2" fill="white">
            <use xlink:href="#path-1"></use>
        </mask>
        <use id="Combined-Shape" fill="#000000" xlink:href="#path-1"></use>
    </g>
</svg>