<?xml version="1.0" encoding="UTF-8"?>
<svg width="24px" height="24px" viewBox="0 0 24 24" version="1.1" xmlns="http://www.w3.org/2000/svg" xmlns:xlink="http://www.w3.org/1999/xlink">
    <title>money_off</title>
    <defs>
        <path d="M12.5,6.89999998 C13.92,6.89999998 14.63,7.43999998 14.89,8.29999998 C15.02,8.72999999 15.45,8.99999996 15.9,8.99999996 L15.96,8.99999996 C16.66,8.99999996 17.18,8.28999998 16.93,7.63999998 C16.49,6.48999998 15.52,5.55999997 14,5.18999997 L14,4.49999996 C14,3.66999997 13.33,2.99999996 12.5,2.99999996 C11.67,2.99999996 11,3.66999997 11,4.49999996 L11,5.15999997 C10.61,5.23999997 10.25,5.36999997 9.89999999,5.51999997 L11.41,7.02999998 C11.73,6.94999998 12.1,6.89999998 12.5,6.89999998 Z M4.76999997,4.61999997 C4.37999997,5.00999997 4.37999997,5.63999997 4.76999997,6.02999998 L7.49999998,8.76999999 C7.49999998,10.85 9.05999999,11.99 11.41,12.68 L14.92,16.19 C14.58,16.68 13.87,17.1 12.5,17.1 C10.85,17.1 9.99999999,16.51 9.66999999,15.67 C9.51999999,15.28 9.17999999,15 8.76999999,15 L8.59999999,15 C7.87999998,15 7.35999998,15.74 7.64999998,16.39 C8.23999998,17.72 9.53999999,18.51 11.01,18.83 L11.01,19.5 C11.01,20.33 11.68,21 12.51,21 C13.34,21 14.01,20.33 14.01,19.5 L14.01,18.85 C14.97,18.67 15.84,18.3 16.47,17.73 L17.98,19.24 C18.37,19.63 19,19.63 19.39,19.24 C19.78,18.85 19.78,18.22 19.39,17.83 L6.17999998,4.61999997 C5.78999997,4.22999997 5.15999997,4.22999997 4.76999997,4.61999997 Z" id="path-1"></path>
    </defs>
    <g id="money_off" stroke="none" stroke-width="1" fill="none" fill-rule="evenodd">
        <mask id="mask-2" fill="white">
            <use xlink:href="#path-1"></use>
        </mask>
        <use id="Combined-Shape" fill="#000000" xlink:href="#path-1"></use>
    </g>
</svg>