<?xml version="1.0" encoding="UTF-8"?>
<svg width="24px" height="24px" viewBox="0 0 24 24" version="1.1" xmlns="http://www.w3.org/2000/svg" xmlns:xlink="http://www.w3.org/1999/xlink">
    <title>monetization_on</title>
    <defs>
        <path d="M12,1.99999996 C6.47999998,1.99999996 1.99999996,6.47999998 1.99999996,12 C1.99999996,17.52 6.47999998,22 12,22 C17.52,22 22,17.52 22,12 C22,6.47999998 17.52,1.99999996 12,1.99999996 Z M13.41,18.09 L13.41,18.67 C13.41,19.4 12.81,20 12.08,20 L12.07,20 C11.34,20 10.74,19.4 10.74,18.67 L10.74,18.07 C9.40999999,17.79 8.22999998,17.06 7.72999998,15.83 C7.49999998,15.28 7.92999998,14.67 8.52999999,14.67 L8.76999999,14.67 C9.13999998,14.67 9.43999999,14.92 9.57999999,15.27 C9.86999999,16.02 10.63,16.54 12.09,16.54 C14.05,16.54 14.49,15.56 14.49,14.95 C14.49,14.12 14.05,13.34 11.82,12.81 C9.33999999,12.21 7.63999998,11.19 7.63999998,9.13999999 C7.63999998,7.41999998 9.02999999,6.29999998 10.75,5.92999997 L10.75,5.32999997 C10.75,4.59999997 11.35,3.99999997 12.08,3.99999997 L12.09,3.99999997 C12.82,3.99999997 13.42,4.59999997 13.42,5.32999997 L13.42,5.94999997 C14.8,6.28999998 15.67,7.14999998 16.05,8.20999998 C16.25,8.75999999 15.83,9.33999999 15.24,9.33999999 L14.98,9.33999999 C14.61,9.33999999 14.31,9.07999999 14.21,8.71999999 C13.98,7.95999998 13.35,7.46999998 12.09,7.46999998 C10.59,7.46999998 9.68999999,8.14999998 9.68999999,9.10999999 C9.68999999,9.94999999 10.34,10.5 12.36,11.02 C14.38,11.54 16.54,12.41 16.54,14.93 C16.52,16.76 15.15,17.76 13.41,18.09 L13.41,18.09 Z" id="path-1"></path>
    </defs>
    <g id="monetization_on" stroke="none" stroke-width="1" fill="none" fill-rule="evenodd">
        <mask id="mask-2" fill="white">
            <use xlink:href="#path-1"></use>
        </mask>
        <use id="Combined-Shape" fill="#000000" xlink:href="#path-1"></use>
    </g>
</svg>