<?xml version="1.0" encoding="UTF-8"?>
<svg width="24px" height="24px" viewBox="0 0 24 24" version="1.1" xmlns="http://www.w3.org/2000/svg" xmlns:xlink="http://www.w3.org/1999/xlink">
    <title>post_add</title>
    <defs>
        <path d="M11,4.99999997 C11.55,4.99999997 12,5.44999997 12,5.99999997 C12,6.54999998 11.55,6.99999997 11,6.99999997 L11,6.99999997 L5.99999996,6.99999997 C5.44999997,6.99999997 4.99999996,7.44999998 4.99999996,7.99999997 L4.99999996,7.99999997 L4.99999996,18.22 C4.99999996,18.77 5.44999997,19.22 5.99999996,19.22 L5.99999996,19.22 L16,19.22 C16.55,19.22 17,18.77 17,18.22 L17,18.22 L17,13 C17,12.45 17.45,12 18,12 C18.55,12 19,12.45 19,13 L19,13 L19,19 C19,20.1 18.1,21 17,21 L17,21 L4.99999996,21 C3.89999997,21 2.99999996,20.1 2.99999996,19 L2.99999996,19 L2.99999996,6.99999997 C2.99999996,5.89999997 3.89999997,4.99999997 4.99999996,4.99999997 L4.99999996,4.99999997 Z M14,15 C14.55,15 15,15.45 15,16 C15,16.55 14.55,17 14,17 L14,17 L7.99999998,17 C7.44999998,17 6.99999998,16.55 6.99999998,16 C6.99999998,15.45 7.44999998,15 7.99999998,15 L7.99999998,15 Z M14,12 C14.55,12 15,12.45 15,13 C15,13.55 14.55,14 14,14 L14,14 L7.99999998,14 C7.44999998,14 6.99999998,13.55 6.99999998,13 C6.99999998,12.45 7.44999998,12 7.99999998,12 L7.99999998,12 Z M14,8.99999999 C14.55,8.99999999 15,9.44999999 15,9.99999999 C15,10.55 14.55,11 14,11 L14,11 L7.99999998,11 C7.44999998,11 6.99999998,10.55 6.99999998,9.99999999 C6.99999998,9.44999999 7.44999998,8.99999999 7.99999998,8.99999999 L7.99999998,8.99999999 Z M18.02,1.99999996 C18.56,1.99999996 19,2.43999996 19,2.97999996 L19,2.97999996 L19,4.99999996 L21.02,4.99999996 C21.56,4.99999996 22,5.43999997 22,5.97999997 L22,5.97999997 L22,6.01999998 C22,6.55999998 21.56,6.99999996 21.02,6.99999996 L21.02,6.99999996 L19,6.99999996 L19,9.00999999 C19,9.54999999 18.56,9.98999999 18.02,9.98999999 L18.02,9.98999999 L17.99,9.98999999 C17.44,9.99999996 17,9.54999999 17,9.00999999 L17,9.00999999 L17,6.99999996 L14.99,6.99999996 C14.44,6.99999996 14,6.55999998 14,6.00999998 L14,6.00999998 L14,5.97999997 C14.01,5.43999997 14.45,4.99999996 14.99,4.99999996 L14.99,4.99999996 L17,4.99999996 L17,2.97999996 C17,2.43999996 17.44,1.99999996 17.99,1.99999996 L17.99,1.99999996 Z" id="path-1"></path>
    </defs>
    <g id="post_add" stroke="none" stroke-width="1" fill="none" fill-rule="evenodd">
        <mask id="mask-2" fill="white">
            <use xlink:href="#path-1"></use>
        </mask>
        <use id="Combined-Shape" fill="#000000" xlink:href="#path-1"></use>
    </g>
</svg>