<?xml version="1.0" encoding="UTF-8"?>
<svg width="24px" height="24px" viewBox="0 0 24 24" version="1.1" xmlns="http://www.w3.org/2000/svg" xmlns:xlink="http://www.w3.org/1999/xlink">
    <title>score</title>
    <defs>
        <path d="M19,2.99999996 L4.99999996,2.99999996 C3.89999997,2.99999996 2.99999996,3.89999997 2.99999996,4.99999996 L2.99999996,19 C2.99999996,20.1 3.89999997,21 4.99999996,21 L19,21 C20.1,21 21,20.1 21,19 L21,4.99999996 C21,3.89999997 20.1,2.99999996 19,2.99999996 Z M12,5.74999997 C12,5.33999997 12.34,4.99999997 12.75,4.99999997 C13.16,4.99999997 13.5,5.33999997 13.5,5.74999997 L13.5,7.99999997 L15.29,5.30999997 C15.42,5.11999997 15.64,4.99999997 15.88,4.99999997 C16.44,4.99999997 16.78,5.62999997 16.47,6.09999998 L15.2,7.99999997 L16.47,9.89999999 C16.78,10.37 16.45,11 15.88,11 C15.64,11 15.42,10.88 15.29,10.69 L13.5,7.99999997 L13.5,10.25 C13.5,10.66 13.16,11 12.75,11 C12.34,11 12,10.66 12,10.25 L12,5.74999997 Z M6.99999998,8.24999998 C6.99999998,7.69999998 7.44999998,7.24999998 7.99999998,7.24999998 L9.49999998,7.24999998 L9.49999998,6.49999997 L7.74999998,6.49999997 C7.33999998,6.49999997 6.99999998,6.15999998 6.99999998,5.74999997 C6.99999998,5.33999997 7.33999998,4.99999997 7.74999998,4.99999997 L9.99999998,4.99999997 C10.55,4.99999997 11,5.44999997 11,5.99999997 L11,7.74999998 C11,8.29999998 10.55,8.74999999 9.99999998,8.74999999 L8.49999998,8.74999999 L8.49999998,9.49999997 L10.25,9.49999997 C10.66,9.49999997 11,9.83999999 11,10.25 C11,10.66 10.66,11 10.25,11 L7.99999998,11 C7.44999998,11 6.99999998,10.55 6.99999998,9.99999997 L6.99999998,8.24999998 Z M18.74,13.26 L13.71,18.29 C13.32,18.68 12.69,18.68 12.3,18.29 L8.99999997,15 L6.50999998,17.49 C5.94999997,18.05 4.99999997,17.65 4.99999997,16.87 C4.99999997,16.64 5.08999997,16.41 5.25999997,16.25 L8.28999998,13.22 C8.67999999,12.83 9.30999999,12.83 9.69999999,13.22 L13,16.5 L17.49,12.01 C18.05,11.45 19,11.85 19,12.63 C19,12.87 18.91,13.09 18.74,13.26 Z" id="path-1"></path>
    </defs>
    <g id="score" stroke="none" stroke-width="1" fill="none" fill-rule="evenodd">
        <mask id="mask-2" fill="white">
            <use xlink:href="#path-1"></use>
        </mask>
        <use id="Combined-Shape" fill="#000000" xlink:href="#path-1"></use>
    </g>
</svg>