<?xml version="1.0" encoding="UTF-8"?>
<svg width="24px" height="24px" viewBox="0 0 24 24" version="1.1" xmlns="http://www.w3.org/2000/svg" xmlns:xlink="http://www.w3.org/1999/xlink">
    <title>strikethrough_s</title>
    <defs>
        <path d="M14.59,7.51999998 C14.59,7.20999998 14.54,6.92999998 14.44,6.66999998 C14.35,6.39999998 14.2,6.17999998 14,5.98999997 C13.8,5.79999997 13.55,5.65999997 13.25,5.54999997 C12.95,5.44999997 12.59,5.38999997 12.19,5.38999997 C11.8,5.38999997 11.45,5.42999997 11.16,5.51999997 C10.87,5.60999997 10.63,5.72999997 10.44,5.87999997 C10.25,6.03999998 10.1,6.21999998 9.99999999,6.42999998 C9.89999999,6.63999998 9.84999998,6.85999998 9.84999998,7.08999998 C9.84999998,7.56999998 10.1,7.96999998 10.59,8.29999998 C10.97,8.54999999 11.36,8.77999999 12,8.99999996 L7.38999998,8.99999996 C7.33999998,8.91999999 7.27999998,8.82999999 7.23999998,8.74999999 C6.97999998,8.26999998 6.84999998,7.71999998 6.84999998,7.07999998 C6.84999998,6.46999998 6.97999998,5.91999997 7.24999998,5.40999997 C7.50999998,4.90999997 7.87999998,4.47999997 8.35999998,4.11999997 C8.83999999,3.76999997 9.40999999,3.48999996 10.06,3.28999996 C10.72,3.09999996 11.45,2.99999996 12.24,2.99999996 C13.05,2.99999996 13.78,3.10999996 14.45,3.33999996 C15.11,3.55999996 15.68,3.87999997 16.14,4.27999997 C16.61,4.67999997 16.97,5.15999997 17.22,5.70999997 C17.47,6.25999998 17.6,6.85999998 17.6,7.51999998 L14.59,7.51999998 M20,9.99999999 L3.99999996,9.99999999 C3.44999996,9.99999999 2.99999996,10.45 2.99999996,11 C2.99999996,11.55 3.44999996,12 3.99999996,12 L12.62,12 C12.8,12.07 13.02,12.14 13.17,12.2 C13.54,12.37 13.83,12.54 14.04,12.71 C14.25,12.88 14.39,13.07 14.47,13.28 C14.54,13.48 14.58,13.71 14.58,13.97 C14.58,14.2 14.53,14.42 14.44,14.63 C14.35,14.83 14.21,15.01 14.02,15.16 C13.83,15.31 13.6,15.42 13.31,15.51 C13.02,15.59 12.68,15.64 12.3,15.64 C11.87,15.64 11.47,15.6 11.12,15.51 C10.77,15.42 10.46,15.28 10.21,15.09 C9.95999999,14.9 9.75999999,14.65 9.61999999,14.34 C9.47999999,14.03 9.36999999,13.58 9.36999999,13.13 L6.39999998,13.13 C6.39999998,13.68 6.47999998,14.26 6.63999998,14.71 C6.79999998,15.16 7.00999998,15.56 7.28999998,15.92 C7.56999998,16.27 7.88999998,16.58 8.26999998,16.84 C8.63999999,17.1 9.04999999,17.32 9.48999999,17.49 C9.92999999,17.66 10.39,17.79 10.87,17.88 C11.35,17.96 11.83,18.01 12.31,18.01 C13.11,18.01 13.84,17.92 14.49,17.73 C15.14,17.54 15.7,17.28 16.16,16.94 C16.62,16.6 16.98,16.17 17.23,15.67 C17.48,15.17 17.61,14.6 17.61,13.96 C17.61,13.36 17.51,12.82 17.3,12.35 C17.25,12.24 17.19,12.12 17.13,12.02 L20,12.02 C20.55,12.02 21,11.57 21,11.02 L21,11 C21,10.45 20.55,9.99999999 20,9.99999999 Z" id="path-1"></path>
    </defs>
    <g id="strikethrough_s" stroke="none" stroke-width="1" fill="none" fill-rule="evenodd">
        <mask id="mask-2" fill="white">
            <use xlink:href="#path-1"></use>
        </mask>
        <use id="Combined-Shape" fill="#000000" xlink:href="#path-1"></use>
    </g>
</svg>