<?xml version="1.0" encoding="UTF-8"?>
<svg width="24px" height="24px" viewBox="0 0 24 24" version="1.1" xmlns="http://www.w3.org/2000/svg" xmlns:xlink="http://www.w3.org/1999/xlink">
    <title>superscript</title>
    <defs>
        <path d="M10.51,12.73 L7.29999998,7.71999998 C6.81999998,6.96999998 7.34999998,5.99999997 8.22999998,5.99999997 L8.22999998,5.99999997 C8.61999999,5.99999997 8.96999999,6.19999998 9.17999999,6.52999998 L11.94,10.99 L12.06,10.99 L14.8,6.53999998 C15,6.19999998 15.36,5.99999997 15.75,5.99999997 L15.75,5.99999997 C16.63,5.99999997 17.17,6.97999998 16.69,7.71999998 L13.46,12.72 L17.01,18.27 C17.5,19.02 16.96,20 16.08,20 L16.08,20 C15.7,20 15.34,19.8 15.13,19.48 L12.06,14.59 L11.94,14.59 L8.86999999,19.48 C8.65999999,19.8 8.30999998,20 7.91999998,20 L7.91999998,20 C7.03999998,20 6.49999998,19.03 6.97999998,18.28 L10.51,12.73 Z M23,8.49999997 L23,8.49999997 C23,8.21999998 22.78,7.99999997 22.5,7.99999997 C22.5,7.99999997 22.5,7.99999997 22.5,7.99999997 L20,7.99999997 L20,6.99999997 L22,6.99999997 C22.55,6.99999997 23,6.54999998 23,5.99999997 L23,4.99999997 C23,4.44999997 22.55,3.99999997 22,3.99999997 L19.5,3.99999997 C19.22,3.99999997 19,4.21999997 19,4.49999997 L19,4.49999997 C19,4.77999997 19.22,4.99999997 19.5,4.99999997 L22,4.99999997 L22,5.99999997 L20,5.99999997 C19.45,5.99999997 19,6.44999998 19,6.99999997 L19,7.99999997 C19,8.54999999 19.45,8.99999997 20,8.99999997 L22.5,8.99999997 C22.78,8.99999997 23,8.77999999 23,8.49999997 Z" id="path-1"></path>
    </defs>
    <g id="superscript" stroke="none" stroke-width="1" fill="none" fill-rule="evenodd">
        <mask id="mask-2" fill="white">
            <use xlink:href="#path-1"></use>
        </mask>
        <use id="Combined-Shape" fill="#000000" xlink:href="#path-1"></use>
    </g>
</svg>