<?xml version="1.0" encoding="UTF-8"?>
<svg width="24px" height="24px" viewBox="0 0 24 24" version="1.1" xmlns="http://www.w3.org/2000/svg" xmlns:xlink="http://www.w3.org/1999/xlink">
    <title>vertical_align_bottom</title>
    <defs>
        <path d="M14.79,13 L13,13 L13,3.99999996 C13,3.44999996 12.55,2.99999996 12,2.99999996 C11.45,2.99999996 11,3.44999996 11,3.99999996 L11,13 L9.20999999,13 C8.75999999,13 8.53999999,13.54 8.85999999,13.85 L11.65,16.64 C11.85,16.84 12.16,16.84 12.36,16.64 L15.15,13.85 C15.46,13.54 15.24,13 14.79,13 L14.79,13 Z M3.99999997,20 C3.99999997,20.55 4.44999997,21 4.99999997,21 L19,21 C19.55,21 20,20.55 20,20 C20,19.45 19.55,19 19,19 L4.99999997,19 C4.44999997,19 3.99999997,19.45 3.99999997,20 Z" id="path-1"></path>
    </defs>
    <g id="vertical_align_bottom" stroke="none" stroke-width="1" fill="none" fill-rule="evenodd">
        <mask id="mask-2" fill="white">
            <use xlink:href="#path-1"></use>
        </mask>
        <use id="Combined-Shape" fill="#000000" xlink:href="#path-1"></use>
    </g>
</svg>