<?xml version="1.0" encoding="UTF-8"?>
<svg width="24px" height="24px" viewBox="0 0 24 24" version="1.1" xmlns="http://www.w3.org/2000/svg" xmlns:xlink="http://www.w3.org/1999/xlink">
    <title>4k</title>
    <defs>
        <path d="M19,2.99999996 L4.99999996,2.99999996 C3.89999997,2.99999996 2.99999996,3.89999997 2.99999996,4.99999996 L2.99999996,19 C2.99999996,20.1 3.88999997,21 4.99999996,21 L19,21 C20.1,21 21,20.1 21,19 L21,4.99999996 C21,3.89999997 20.11,2.99999996 19,2.99999996 Z M12,12.76 C12,13.17 11.66,13.51 11.25,13.51 L11,13.51 L11,14.25 C11,14.66 10.66,15 10.25,15 C9.83999999,15 9.49999998,14.66 9.49999998,14.25 L9.49999998,13.5 L7.49999998,13.5 C6.94999998,13.5 6.49999998,13.05 6.49999998,12.5 L6.49999998,9.74999999 C6.49999998,9.33999999 6.83999998,8.99999999 7.24999998,8.99999999 C7.65999998,8.99999999 7.99999998,9.33999999 7.99999998,9.74999999 L7.99999998,12 L9.49999998,12 L9.49999998,9.74999999 C9.49999998,9.33999999 9.83999999,8.99999999 10.25,8.99999999 C10.66,8.99999999 11,9.33999999 11,9.74999999 L11,12 L11.25,12 C11.66,12 12,12.34 12,12.75 L12,12.76 Z M17.47,13.9 C17.69,14.23 17.6,14.67 17.27,14.88 C17.15,14.96 17.01,15 16.88,15 C16.65,15 16.43,14.89 16.29,14.68 L14.5,12 L14.5,14.24 C14.5,14.65 14.16,14.99 13.75,14.99 C13.34,15 13,14.66 13,14.25 L13,9.74999999 C13,9.33999999 13.34,8.99999999 13.75,8.99999999 C14.16,8.99999999 14.5,9.33999999 14.5,9.74999999 L14.5,11.99 L16.29,9.30999999 C16.51,8.97999999 16.95,8.89999999 17.27,9.10999999 C17.6,9.32999999 17.68,9.76999999 17.47,10.09 L16.2,12 L17.47,13.9 Z" id="path-1"></path>
    </defs>
    <g id="4k" stroke="none" stroke-width="1" fill="none" fill-rule="evenodd">
        <mask id="mask-2" fill="white">
            <use xlink:href="#path-1"></use>
        </mask>
        <use fill="#000000" xlink:href="#path-1"></use>
    </g>
</svg>