<?xml version="1.0" encoding="UTF-8"?>
<svg width="24px" height="24px" viewBox="0 0 24 24" version="1.1" xmlns="http://www.w3.org/2000/svg" xmlns:xlink="http://www.w3.org/1999/xlink">
    <title>5g</title>
    <defs>
        <path d="M20,6.99999998 C20.55,6.99999998 21,7.44999998 21,7.99999998 L21,7.99999998 L20.9932398,8.11619896 C20.9352041,8.61198978 20.5107143,8.99999998 20,8.99999998 L20,8.99999998 L14,8.99999998 L14,15 L19,15 L19,13 L18,13 C17.45,13 17,12.55 17,12 L17,12 L17.0067602,11.883801 C17.0647959,11.3880102 17.4892857,11 18,11 L18,11 L20,11 C20.55,11 21,11.45 21,12 L21,12 L21,15 C21,16.1 20.1,17 19,17 L19,17 L14,17 C12.9,17 12,16.1 12,15 L12,15 L12,8.99999998 C12,7.89999998 12.9,6.99999998 14,6.99999998 L14,6.99999998 Z M8.99999996,6.99999998 C9.54999999,6.99999998 9.99999996,7.44999998 9.99999996,7.99999998 L9.99999996,7.99999998 L9.99323976,8.11619896 C9.93520405,8.61198978 9.51071427,8.99999998 8.99999996,8.99999998 L8.99999996,8.99999998 L4.99999996,8.99999998 L4.99999996,11 L7.99999996,11 C9.09999999,11 9.99999996,11.9 9.99999996,13 L9.99999996,13 L9.99999996,15 C9.99999996,16.1 9.09999999,17 7.99999996,17 L7.99999996,17 L3.99999996,17 C3.44999996,17 2.99999996,16.55 2.99999996,16 L2.99999996,16 L3.00676017,15.883801 C3.06479588,15.3880102 3.48928568,15 3.99999996,15 L3.99999996,15 L7.99999996,15 L7.99999996,13 L3.99999996,13 C3.44999996,13 2.99999996,12.55 2.99999996,12 L2.99999996,12 L2.99999996,7.99999998 C2.99999996,7.44999998 3.44999996,6.99999998 3.99999996,6.99999998 L3.99999996,6.99999998 Z" id="path-1"></path>
    </defs>
    <g id="5g" stroke="none" stroke-width="1" fill="none" fill-rule="evenodd">
        <mask id="mask-2" fill="white">
            <use xlink:href="#path-1"></use>
        </mask>
        <use id="Combined-Shape" fill="#000000" xlink:href="#path-1"></use>
    </g>
</svg>