<?xml version="1.0" encoding="UTF-8"?>
<svg width="24px" height="24px" viewBox="0 0 24 24" version="1.1" xmlns="http://www.w3.org/2000/svg" xmlns:xlink="http://www.w3.org/1999/xlink">
    <title>add_to_queue</title>
    <defs>
        <path d="M21,2.99999996 L2.99999995,2.99999996 C1.89999996,2.99999996 0.999999954,3.89999997 0.999999954,4.99999996 L0.999999954,17 C0.999999954,18.1 1.89999996,19 2.99999995,19 L7.99999995,19 L7.99999995,20 C7.99999995,20.55 8.44999999,21 8.99999995,21 L15,21 C15.55,21 16,20.55 16,20 L16,19 L21,19 C22.1,19 23,18.1 23,17 L23,4.99999996 C23,3.88999997 22.1,2.99999996 21,2.99999996 Z M20,17 L3.99999996,17 C3.44999996,17 2.99999996,16.55 2.99999996,16 L2.99999996,5.99999997 C2.99999996,5.44999997 3.44999996,4.99999997 3.99999996,4.99999997 L20,4.99999997 C20.55,4.99999997 21,5.44999997 21,5.99999997 L21,16 C21,16.55 20.55,17 20,17 Z M16,11 C16,11.55 15.55,12 15,12 L13,12 L13,14 C13,14.55 12.55,15 12,15 C11.45,15 11,14.55 11,14 L11,12 L8.99999998,12 C8.44999999,12 7.99999998,11.55 7.99999998,11 C7.99999998,10.45 8.44999999,9.99999998 8.99999998,9.99999998 L11,9.99999998 L11,7.99999998 C11,7.44999998 11.45,6.99999998 12,6.99999998 C12.55,6.99999998 13,7.44999998 13,7.99999998 L13,9.99999998 L15,9.99999998 C15.55,9.99999998 16,10.45 16,11 Z" id="path-1"></path>
    </defs>
    <g id="add_to_queue" stroke="none" stroke-width="1" fill="none" fill-rule="evenodd">
        <mask id="mask-2" fill="white">
            <use xlink:href="#path-1"></use>
        </mask>
        <use fill="#000000" xlink:href="#path-1"></use>
    </g>
</svg>