<?xml version="1.0" encoding="UTF-8"?>
<svg width="24px" height="24px" viewBox="0 0 24 24" version="1.1" xmlns="http://www.w3.org/2000/svg" xmlns:xlink="http://www.w3.org/1999/xlink">
    <title>album</title>
    <defs>
        <path d="M12,1.99999996 C6.47999998,1.99999996 1.99999996,6.47999998 1.99999996,12 C1.99999996,17.52 6.47999998,22 12,22 C17.52,22 22,17.52 22,12 C22,6.47999998 17.52,1.99999996 12,1.99999996 Z M12,16.5 C9.50999999,16.5 7.49999998,14.49 7.49999998,12 C7.49999998,9.50999999 9.50999999,7.49999998 12,7.49999998 C14.49,7.49999998 16.5,9.50999999 16.5,12 C16.5,14.49 14.49,16.5 12,16.5 Z M12,11 C11.45,11 11,11.45 11,12 C11,12.55 11.45,13 12,13 C12.55,13 13,12.55 13,12 C13,11.45 12.55,11 12,11 Z" id="path-1"></path>
    </defs>
    <g id="album" stroke="none" stroke-width="1" fill="none" fill-rule="evenodd">
        <mask id="mask-2" fill="white">
            <use xlink:href="#path-1"></use>
        </mask>
        <use fill="#000000" xlink:href="#path-1"></use>
    </g>
</svg>