<?xml version="1.0" encoding="UTF-8"?>
<svg width="24px" height="24px" viewBox="0 0 24 24" version="1.1" xmlns="http://www.w3.org/2000/svg" xmlns:xlink="http://www.w3.org/1999/xlink">
    <title>av_timer</title>
    <defs>
        <path d="M12,2.99999996 C17.07,2.99999996 21.16,7.18999998 20.99,12.29 C20.84,16.99 16.91,20.89 12.21,21 C7.13999998,21.12 2.99999996,17.04 2.99999996,12 C2.99999996,9.39999999 4.09999997,7.06999998 5.85999997,5.43999997 C6.25999998,5.06999997 6.87999998,5.07999997 7.25999998,5.45999997 L7.25999998,5.45999997 L12.7,10.89 C13.09,11.28 13.09,11.91 12.7,12.3 C12.31,12.69 11.68,12.69 11.29,12.3 L11.29,12.3 L6.57999998,7.57999998 C5.58999997,8.77999999 4.99999996,10.32 4.99999996,12 C4.99999996,15.91 8.18999998,19.06 12.12,19 C15.97,18.94 19.14,15.59 19,11.74 C18.87,8.32999998 16.31,5.55999997 13,5.07999997 L13,5.07999997 L13,5.99999996 C13,6.54999998 12.55,6.99999996 12,6.99999996 C11.45,6.99999996 11,6.54999998 11,5.99999996 L11,5.99999996 L11,3.99999996 C11,3.44999996 11.45,2.99999996 12,2.99999996 Z M12,16 C12.5522848,16 13,16.4477153 13,17 C13,17.5522848 12.5522848,18 12,18 C11.4477152,18 11,17.5522848 11,17 C11,16.4477153 11.4477152,16 12,16 Z M6.99999997,11 C7.55228473,11 7.99999997,11.4477152 7.99999997,12 C7.99999997,12.5522848 7.55228473,13 6.99999997,13 C6.44771523,13 5.99999997,12.5522848 5.99999997,12 C5.99999997,11.4477152 6.44771523,11 6.99999997,11 Z M17,11 C17.5522848,11 18,11.4477152 18,12 C18,12.5522848 17.5522848,13 17,13 C16.4477153,13 16,12.5522848 16,12 C16,11.4477152 16.4477153,11 17,11 Z" id="path-1"></path>
    </defs>
    <g id="av_timer" stroke="none" stroke-width="1" fill="none" fill-rule="evenodd">
        <mask id="mask-2" fill="white">
            <use xlink:href="#path-1"></use>
        </mask>
        <use id="Combined-Shape" fill="#000000" xlink:href="#path-1"></use>
    </g>
</svg>