<?xml version="1.0" encoding="UTF-8"?>
<svg width="24px" height="24px" viewBox="0 0 24 24" version="1.1" xmlns="http://www.w3.org/2000/svg" xmlns:xlink="http://www.w3.org/1999/xlink">
    <title>control_camera</title>
    <defs>
        <path d="M9.34999999,17.58 C9.83999999,17.1 10.62,17.1 11.11,17.58 L11.11,17.58 L12,18.46 L12.9,17.58 C13.39,17.1 14.17,17.1 14.66,17.58 C15.15,18.07 15.15,18.86 14.66,19.35 L14.66,19.35 L12.71,21.3 C12.32,21.69 11.69,21.69 11.3,21.3 L11.3,21.3 L9.34999999,19.35 C8.85999999,18.86 8.85999999,18.07 9.34999999,17.58 Z M4.64999997,9.34999999 C5.13999997,8.85999999 5.93999997,8.85999999 6.41999998,9.34999999 C6.89999998,9.83999999 6.89999998,10.62 6.41999998,11.11 L6.41999998,11.11 L5.53999997,12 L6.41999998,12.9 C6.89999998,13.39 6.89999998,14.17 6.41999998,14.66 C5.92999997,15.15 5.13999997,15.15 4.64999997,14.66 L4.64999997,14.66 L2.69999996,12.71 C2.30999996,12.32 2.30999996,11.69 2.69999996,11.3 L2.69999996,11.3 Z M17.58,9.34999999 C18.06,8.85999999 18.86,8.85999999 19.35,9.33999999 L19.35,9.33999999 L21.3,11.29 C21.69,11.68 21.69,12.31 21.3,12.7 L21.3,12.7 L19.35,14.65 C18.86,15.14 18.07,15.14 17.58,14.65 C17.1,14.16 17.1,13.38 17.58,12.89 L17.58,12.89 L18.46,12 L17.58,11.11 C17.1,10.62 17.1,9.83999999 17.58,9.34999999 Z M12,8.99999999 C13.6568543,8.99999999 15,10.3431457 15,12 C15,13.6568543 13.6568543,15 12,15 C10.3431457,15 8.99999999,13.6568543 8.99999999,12 C8.99999999,10.3431457 10.3431457,8.99999999 12,8.99999999 Z M11.29,2.69999996 C11.68,2.30999996 12.31,2.30999996 12.7,2.69999996 L12.7,2.69999996 L14.65,4.64999997 C15.14,5.13999997 15.14,5.92999997 14.65,6.41999998 C14.16,6.89999998 13.38,6.89999998 12.89,6.41999998 L12.89,6.41999998 L12,5.53999997 L11.11,6.41999998 C10.62,6.89999998 9.83999999,6.89999998 9.34999999,6.41999998 C8.85999999,5.93999997 8.85999999,5.13999997 9.34999999,4.64999997 L9.34999999,4.64999997 Z" id="path-1"></path>
    </defs>
    <g id="control_camera" stroke="none" stroke-width="1" fill="none" fill-rule="evenodd">
        <mask id="mask-2" fill="white">
            <use xlink:href="#path-1"></use>
        </mask>
        <use id="Combined-Shape" fill="#000000" xlink:href="#path-1"></use>
    </g>
</svg>