<?xml version="1.0" encoding="UTF-8"?>
<svg width="24px" height="24px" viewBox="0 0 24 24" version="1.1" xmlns="http://www.w3.org/2000/svg" xmlns:xlink="http://www.w3.org/1999/xlink">
    <title>featured_play_list</title>
    <defs>
        <path d="M21,2.99999996 L2.99999995,2.99999996 C1.89999996,2.99999996 0.999999954,3.89999997 0.999999954,4.99999996 L0.999999954,19 C0.999999954,20.1 1.89999996,21 2.99999995,21 L21,21 C22.1,21 23,20.1 23,19 L23,4.99999996 C23,3.89999997 22.1,2.99999996 21,2.99999996 Z M11,11 L3.99999996,11 C3.44999996,11 2.99999996,10.55 2.99999996,9.99999999 C2.99999996,9.44999999 3.44999996,8.99999999 3.99999996,8.99999999 L11,8.99999999 C11.55,8.99999999 12,9.44999999 12,9.99999999 C12,10.55 11.55,11 11,11 Z M11,6.99999997 L3.99999996,6.99999997 C3.44999996,6.99999997 2.99999996,6.54999998 2.99999996,5.99999997 C2.99999996,5.44999997 3.44999996,4.99999997 3.99999996,4.99999997 L11,4.99999997 C11.55,4.99999997 12,5.44999997 12,5.99999997 C12,6.54999998 11.55,6.99999997 11,6.99999997 Z" id="path-1"></path>
    </defs>
    <g id="featured_play_list" stroke="none" stroke-width="1" fill="none" fill-rule="evenodd">
        <mask id="mask-2" fill="white">
            <use xlink:href="#path-1"></use>
        </mask>
        <use fill="#000000" xlink:href="#path-1"></use>
    </g>
</svg>