<?xml version="1.0" encoding="UTF-8"?>
<svg width="24px" height="24px" viewBox="0 0 24 24" version="1.1" xmlns="http://www.w3.org/2000/svg" xmlns:xlink="http://www.w3.org/1999/xlink">
    <title>fiber_dvr</title>
    <defs>
        <path d="M4.49999997,10.5 L6.49999997,10.5 L6.49999997,13.5 L4.49999997,13.5 L4.49999997,10.5 Z M17.5,10.5 L19.5,10.5 L19.5,11.5 L17.5,11.5 L17.5,10.5 Z M21,2.99999996 L2.99999995,2.99999996 C1.88999996,2.99999996 0.999999954,3.88999997 0.999999954,4.99999996 L0.999999954,19 C0.999999954,20.1 1.88999996,21 2.99999995,21 L21,21 C22.11,21 23,20.1 23,19 L23,4.99999996 C23,3.88999997 22.11,2.99999996 21,2.99999996 Z M7.99999996,13.5 C7.99999996,14.33 7.32999998,15 6.49999996,15 L3.49999996,15 C3.21999996,15 2.99999996,14.78 2.99999996,14.5 L2.99999996,9.49999999 C2.99999996,9.21999999 3.21999996,8.99999999 3.49999996,8.99999999 L6.49999996,8.99999999 C7.32999998,8.99999999 7.99999996,9.66999999 7.99999996,10.5 L7.99999996,13.5 Z M14.1,9.91999999 L12.83,14.28 C12.71,14.71 12.31,15 11.87,15 C11.43,15 11.03,14.71 10.91,14.28 L9.63999999,9.91999999 C9.49999999,9.45999999 9.84999999,8.99999999 10.33,8.99999999 C10.65,8.99999999 10.93,9.20999999 11.02,9.51999999 L11.87,12.43 L12.72,9.51999999 C12.81,9.20999999 13.09,8.99999999 13.41,8.99999999 C13.89,8.99999999 14.24,9.45999999 14.1,9.91999999 L14.1,9.91999999 Z M21,11.5 C21,12.1 20.6,12.65 20.1,12.9 L20.73,14.38 C20.92,14.83 20.59,15.34 20.1,15.34 C19.82,15.34 19.57,15.18 19.47,14.92 L18.65,13 L17.5,13 L17.5,14.31 C17.5,14.69 17.19,15 16.81,15 L16.69,15 C16.31,15 16,14.69 16,14.31 L16,9.63999999 C16,9.28999999 16.29,8.99999999 16.64,8.99999999 L19.5,8.99999999 C20.33,8.99999999 21,9.66999999 21,10.5 L21,11.5 L21,11.5 Z" id="path-1"></path>
    </defs>
    <g id="fiber_dvr" stroke="none" stroke-width="1" fill="none" fill-rule="evenodd">
        <mask id="mask-2" fill="white">
            <use xlink:href="#path-1"></use>
        </mask>
        <use fill="#000000" xlink:href="#path-1"></use>
    </g>
</svg>