<?xml version="1.0" encoding="UTF-8"?>
<svg width="24px" height="24px" viewBox="0 0 24 24" version="1.1" xmlns="http://www.w3.org/2000/svg" xmlns:xlink="http://www.w3.org/1999/xlink">
    <title>fiber_pin</title>
    <defs>
        <path d="M20,3.99999997 L3.99999996,3.99999997 C2.88999996,3.99999997 2.00999996,4.88999997 2.00999996,5.99999997 L1.99999996,18 C1.99999996,19.11 2.88999996,20 3.99999996,20 L20,20 C21.11,20 22,19.11 22,18 L22,5.99999997 C22,4.88999997 21.11,3.99999997 20,3.99999997 Z M8.99999997,11.5 C8.99999997,12.33 8.32999998,13 7.49999997,13 L5.49999997,13 L5.49999997,14.25 C5.49999997,14.66 5.15999997,15 4.74999997,15 C4.33999997,15 3.99999997,14.66 3.99999997,14.25 L3.99999997,9.99999999 C3.99999997,9.44999999 4.44999997,8.99999999 4.99999997,8.99999999 L7.49999997,8.99999999 C8.32999998,8.99999999 8.99999997,9.66999999 8.99999997,10.5 L8.99999997,11.5 Z M12.5,14.25 C12.5,14.66 12.16,15 11.75,15 C11.34,15 11,14.66 11,14.25 L11,9.74999999 C11,9.33999999 11.34,8.99999999 11.75,8.99999999 C12.16,8.99999999 12.5,9.33999999 12.5,9.74999999 L12.5,14.25 Z M20,14.21 C20,14.65 19.65,15 19.21,15 C18.96,15 18.72,14.88 18.57,14.67 L16.26,11.5 L16.26,14.38 C16.26,14.72 15.98,15 15.64,15 L15.63,15 C15.28,15 15,14.72 15,14.38 L15,9.82999999 C15,9.36999999 15.37,8.99999999 15.83,8.99999999 C16.1,8.99999999 16.35,9.12999999 16.5,9.34999999 L18.75,12.5 L18.75,9.61999999 C18.75,9.27999999 19.03,8.99999999 19.37,8.99999999 L19.38,8.99999999 C19.72,8.99999999 20,9.27999999 20,9.61999999 L20,14.21 L20,14.21 Z M5.49999997,10.5 L7.49999997,10.5 L7.49999997,11.5 L5.49999997,11.5 L5.49999997,10.5 Z" id="path-1"></path>
    </defs>
    <g id="fiber_pin" stroke="none" stroke-width="1" fill="none" fill-rule="evenodd">
        <mask id="mask-2" fill="white">
            <use xlink:href="#path-1"></use>
        </mask>
        <use fill="#000000" xlink:href="#path-1"></use>
    </g>
</svg>