<?xml version="1.0" encoding="UTF-8"?>
<svg width="24px" height="24px" viewBox="0 0 24 24" version="1.1" xmlns="http://www.w3.org/2000/svg" xmlns:xlink="http://www.w3.org/1999/xlink">
    <title>forward_5</title>
    <defs>
        <path d="M18.87,13 C18.37,13 17.96,13.37 17.89,13.86 C17.41,17.23 14.12,19.7 10.47,18.82 C8.21999998,18.28 6.55999998,16.55 6.07999998,14.29 C5.26999997,10.42 8.21999998,6.99999998 11.95,6.99999998 L11.95,9.78999999 C11.95,10.24 12.49,10.46 12.8,10.14 L16.59,6.34999998 C16.79,6.14999998 16.79,5.83999997 16.59,5.63999997 L12.8,1.84999996 C12.49,1.53999996 11.95,1.75999996 11.95,2.19999996 L11.95,4.99999997 C7.00999998,4.99999997 3.10999996,9.47999999 4.10999997,14.6 C4.70999997,17.71 7.00999998,20.1 10.1,20.79 C14.93,21.87 19.25,18.59 19.87,14.12 C19.96,13.53 19.47,13 18.87,13 Z M12.43,15.15 C12.38,15.22 12.32,15.28 12.25,15.32 C12.18,15.36 12.08,15.38 11.98,15.38 C11.81,15.38 11.67,15.33 11.56,15.23 C11.45,15.13 11.39,14.99 11.37,14.82 L10.53,14.82 C10.54,15.02 10.58,15.19 10.66,15.35 C10.74,15.51 10.85,15.63 10.98,15.74 C11.11,15.85 11.27,15.93 11.44,15.98 C11.61,16.03 11.79,16.06 11.97,16.06 C12.21,16.06 12.43,16.02 12.61,15.94 C12.79,15.86 12.94,15.76 13.06,15.63 C13.18,15.5 13.27,15.35 13.33,15.18 C13.39,15.01 13.42,14.83 13.42,14.64 C13.42,14.42 13.39,14.21 13.33,14.04 C13.27,13.87 13.19,13.71 13.08,13.59 C12.97,13.47 12.83,13.37 12.67,13.31 C12.51,13.25 12.33,13.21 12.12,13.21 C12.05,13.21 11.98,13.22 11.92,13.23 C11.86,13.24 11.79,13.25 11.74,13.27 C11.69,13.29 11.64,13.3 11.59,13.32 C11.54,13.34 11.51,13.36 11.48,13.37 L11.59,12.45 L13.29,12.45 L13.29,11.74 L10.9,11.74 L10.65,13.91 L11.32,14.08 C11.35,14.05 11.38,14.02 11.42,13.99 C11.46,13.96 11.49,13.94 11.54,13.92 C11.59,13.9 11.64,13.88 11.69,13.87 C11.74,13.86 11.82,13.85 11.89,13.85 C12.01,13.85 12.11,13.87 12.19,13.9 C12.27,13.93 12.35,13.99 12.4,14.05 C12.45,14.11 12.5,14.19 12.53,14.29 C12.56,14.39 12.57,14.48 12.57,14.6 C12.57,14.72 12.56,14.82 12.54,14.91 C12.52,15 12.48,15.08 12.43,15.15 L12.43,15.15 Z" id="path-1"></path>
    </defs>
    <g id="forward_5" stroke="none" stroke-width="1" fill="none" fill-rule="evenodd">
        <mask id="mask-2" fill="white">
            <use xlink:href="#path-1"></use>
        </mask>
        <use fill="#000000" xlink:href="#path-1"></use>
    </g>
</svg>