<?xml version="1.0" encoding="UTF-8"?>
<svg width="24px" height="24px" viewBox="0 0 24 24" version="1.1" xmlns="http://www.w3.org/2000/svg" xmlns:xlink="http://www.w3.org/1999/xlink">
    <title>forward_10</title>
    <defs>
        <path d="M18.92,13 C18.42,13 18.01,13.37 17.94,13.86 C17.46,17.23 14.17,19.7 10.52,18.82 C8.26999998,18.28 6.60999998,16.55 6.12999998,14.29 C5.31999997,10.42 8.26999998,6.99999998 12,6.99999998 L12,9.78999999 C12,10.24 12.54,10.46 12.85,10.14 L16.64,6.34999998 C16.84,6.14999998 16.84,5.83999997 16.64,5.63999997 L12.85,1.84999996 C12.54,1.53999996 12,1.75999996 12,2.20999996 L12,4.99999997 C7.05999998,4.99999997 3.15999996,9.47999999 4.15999997,14.6 C4.75999997,17.71 7.05999998,20.1 10.15,20.79 C14.98,21.87 19.3,18.59 19.92,14.12 C20.01,13.53 19.52,13 18.92,13 Z M10.9,16 L10.9,11.73 L10.81,11.73 L9.03999999,12.36 L9.03999999,13.05 L10.05,12.74 L10.05,16 L10.9,16 Z M14.32,11.78 C14.14,11.71 13.95,11.68 13.73,11.68 C13.51,11.68 13.32,11.71 13.14,11.78 C12.96,11.85 12.81,11.96 12.69,12.11 C12.57,12.26 12.46,12.45 12.4,12.68 C12.34,12.91 12.3,13.18 12.3,13.5 L12.3,14.24 C12.3,14.56 12.34,14.84 12.41,15.06 C12.48,15.28 12.58,15.48 12.71,15.63 C12.84,15.78 12.99,15.89 13.17,15.96 C13.35,16.03 13.54,16.06 13.76,16.06 C13.98,16.06 14.17,16.03 14.35,15.96 C14.53,15.89 14.68,15.78 14.8,15.63 C14.92,15.48 15.02,15.29 15.09,15.06 C15.16,14.83 15.19,14.56 15.19,14.24 L15.19,13.5 C15.19,13.18 15.15,12.9 15.08,12.68 C15.01,12.46 14.91,12.26 14.78,12.11 C14.65,11.96 14.49,11.85 14.32,11.78 Z M14.33,14.35 C14.33,14.54 14.32,14.7 14.29,14.83 C14.26,14.96 14.23,15.07 14.18,15.15 C14.13,15.23 14.07,15.29 13.99,15.32 C13.91,15.35 13.83,15.37 13.74,15.37 C13.65,15.37 13.56,15.35 13.49,15.32 C13.42,15.29 13.35,15.23 13.3,15.15 C13.25,15.07 13.21,14.96 13.18,14.83 C13.15,14.7 13.14,14.54 13.14,14.35 L13.14,13.38 C13.14,13.19 13.15,13.03 13.18,12.9 C13.21,12.77 13.24,12.67 13.3,12.59 C13.36,12.51 13.41,12.45 13.49,12.42 C13.57,12.39 13.65,12.37 13.74,12.37 C13.83,12.37 13.92,12.39 13.99,12.42 C14.06,12.45 14.13,12.51 14.18,12.59 C14.23,12.67 14.27,12.77 14.3,12.9 C14.33,13.03 14.34,13.19 14.34,13.38 L14.34,14.35 L14.33,14.35 Z" id="path-1"></path>
    </defs>
    <g id="forward_10" stroke="none" stroke-width="1" fill="none" fill-rule="evenodd">
        <mask id="mask-2" fill="white">
            <use xlink:href="#path-1"></use>
        </mask>
        <use fill="#000000" xlink:href="#path-1"></use>
    </g>
</svg>