<?xml version="1.0" encoding="UTF-8"?>
<svg width="24px" height="24px" viewBox="0 0 24 24" version="1.1" xmlns="http://www.w3.org/2000/svg" xmlns:xlink="http://www.w3.org/1999/xlink">
    <title>hearing_disabled</title>
    <defs>
        <path d="M16.96,3.29999996 C16.64,2.90999996 16.67,2.33999996 17.03,1.97999996 L17.04,1.96999996 C17.46,1.54999996 18.16,1.58999996 18.53,2.04999996 C20.07,3.93999997 21,6.35999998 21,8.99999999 C21,11.57 20.11,13.94 18.64,15.81 L17.21,14.38 C18.33,12.88 19,11.02 19,8.99999999 C19,6.82999998 18.23,4.83999997 16.96,3.29999996 Z M7.48999998,4.65999997 C8.22999998,4.23999997 9.07999999,3.99999996 9.99999999,3.99999996 C12.8,3.99999996 15,6.19999998 15,8.99999996 C15,9.79999999 14.77,10.69 14.37,11.54 L15.85,13.02 C15.87,12.98 15.9,12.94 15.93,12.89 C16.62,11.65 17,10.26 17,8.99999996 C17,5.06999997 13.93,1.99999996 9.99999999,1.99999996 C8.50999999,1.99999996 7.14999998,2.43999996 6.02999998,3.19999996 L7.48999998,4.65999997 Z M9.99999999,6.49999998 C9.78999999,6.49999998 9.59999999,6.52999998 9.40999999,6.57999998 L12.42,9.58999999 C12.47,9.39999999 12.5,9.20999999 12.5,8.99999998 C12.5,7.61999998 11.38,6.49999998 9.99999999,6.49999998 Z M20.49,20.49 L3.50999996,3.50999996 C3.11999996,3.11999996 2.48999996,3.11999996 2.09999996,3.50999996 C1.70999996,3.89999997 1.70999996,4.52999997 2.09999996,4.91999997 L3.51999996,6.33999998 C3.31999996,6.82999998 3.16999996,7.33999998 3.08999996,7.87999998 C2.98999996,8.46999999 3.46999996,8.99999999 4.05999997,8.99999999 L4.09999997,8.99999999 C4.57999997,8.99999999 4.98999997,8.64999999 5.05999997,8.17999998 C5.07999997,8.09999998 5.09999997,8.01999998 5.11999997,7.94999998 L11.74,14.57 C10.86,15.25 9.95999999,15.98 9.46999999,17.47 C8.96999999,18.97 8.46999999,19.48 7.75999998,19.85 C7.55999998,19.94 7.28999998,20 6.99999998,20 C6.11999998,20 5.36999997,19.42 5.09999997,18.63 C4.96999997,18.24 4.56999997,18 4.14999997,18 C3.48999996,18 2.99999996,18.64 3.19999996,19.26 C3.72999997,20.85 5.22999997,22 6.99999998,22 C7.56999998,22 8.12999998,21.88 8.63999999,21.65 C9.99999999,20.94 10.77,19.92 11.37,18.1 C11.69,17.12 12.27,16.67 13.08,16.05 C13.11,16.03 13.13,16.01 13.16,15.99 L19.07,21.9 C19.46,22.29 20.09,22.29 20.48,21.9 C20.88,21.51 20.88,20.88 20.49,20.49 Z" id="path-1"></path>
    </defs>
    <g id="hearing_disabled" stroke="none" stroke-width="1" fill="none" fill-rule="evenodd">
        <mask id="mask-2" fill="white">
            <use xlink:href="#path-1"></use>
        </mask>
        <use id="Combined-Shape" fill="#000000" xlink:href="#path-1"></use>
    </g>
</svg>