<?xml version="1.0" encoding="UTF-8"?>
<svg width="24px" height="24px" viewBox="0 0 24 24" version="1.1" xmlns="http://www.w3.org/2000/svg" xmlns:xlink="http://www.w3.org/1999/xlink">
    <title>hearing</title>
    <defs>
        <path d="M17,20 C16.71,20 16.44,19.94 16.24,19.85 C15.53,19.48 15.03,18.97 14.53,17.47 C14.02,15.91 13.06,15.18 12.14,14.47 C11.35,13.86 10.53,13.23 9.81999999,11.94 C9.28999999,10.98 8.99999998,9.92999999 8.99999998,8.99999996 C8.99999998,6.19999998 11.2,3.99999996 14,3.99999996 C16.56,3.99999996 18.63,5.84999997 18.95,8.30999998 C19.01,8.70999999 19.36,8.99999996 19.77,8.99999996 L20.11,8.99999996 C20.61,8.99999996 21,8.55999999 20.94,8.05999998 C20.49,4.58999997 17.61,1.99999996 14,1.99999996 C10.07,1.99999996 6.99999998,5.06999997 6.99999998,8.99999996 C6.99999998,10.26 7.37999998,11.65 8.06999998,12.9 C8.97999999,14.55 10.05,15.38 10.92,16.05 C11.73,16.67 12.31,17.12 12.63,18.1 C13.23,19.92 14,20.94 15.36,21.65 C15.87,21.88 16.43,22 17,22 C18.84,22 20.39,20.76 20.86,19.07 C21,18.53 20.61,18 20.05,18 L19.7,18 C19.32,18 19.02,18.27 18.89,18.63 C18.63,19.42 17.88,20 17,20 L17,20 Z M6.96999998,1.96999996 C6.53999998,1.53999996 5.84999997,1.57999996 5.46999997,2.03999996 C3.92999997,3.93999997 2.99999996,6.35999998 2.99999996,8.99999999 C2.99999996,11.64 3.92999997,14.06 5.46999997,15.95 C5.84999997,16.41 6.53999998,16.45 6.95999998,16.03 C7.31999998,15.67 7.34999998,15.1 7.02999998,14.71 C5.76999997,13.16 4.99999996,11.17 4.99999996,8.99999999 C4.99999996,6.82999998 5.76999997,4.83999997 7.03999998,3.29999996 C7.36999998,2.89999996 7.32999998,2.32999996 6.96999998,1.96999996 Z M11.5,8.99999998 C11.5,10.38 12.62,11.5 14,11.5 C15.38,11.5 16.5,10.38 16.5,8.99999998 C16.5,7.61999998 15.38,6.49999998 14,6.49999998 C12.62,6.49999998 11.5,7.61999998 11.5,8.99999998 Z" id="path-1"></path>
    </defs>
    <g id="hearing" stroke="none" stroke-width="1" fill="none" fill-rule="evenodd">
        <mask id="mask-2" fill="white">
            <use xlink:href="#path-1"></use>
        </mask>
        <use fill="#000000" xlink:href="#path-1"></use>
    </g>
</svg>