<?xml version="1.0" encoding="UTF-8"?>
<svg width="24px" height="24px" viewBox="0 0 24 24" version="1.1" xmlns="http://www.w3.org/2000/svg" xmlns:xlink="http://www.w3.org/1999/xlink">
    <title>missed_video_call</title>
    <defs>
        <path d="M17,10.5 L17,6.99999998 C17,6.44999998 16.55,5.99999998 16,5.99999998 L3.99999996,5.99999998 C3.44999996,5.99999998 2.99999996,6.44999998 2.99999996,6.99999998 L2.99999996,17 C2.99999996,17.55 3.44999996,18 3.99999996,18 L16,18 C16.55,18 17,17.55 17,17 L17,13.5 L19.29,15.79 C19.92,16.42 21,15.97 21,15.08 L21,8.90999999 C21,8.01999998 19.92,7.56999998 19.29,8.19999998 L17,10.5 Z M10.71,14.29 C10.32,14.68 9.68999999,14.68 9.29999999,14.29 L6.11999998,11.11 L6.11999998,13.66 L4.99999997,13.66 L4.99999997,9.71999999 C4.99999997,9.43999999 5.21999997,9.21999999 5.49999997,9.21999999 L9.43999999,9.21999999 L9.43999999,10.33 L6.88999998,10.33 L9.99999997,13.43 L14.22,9.20999999 L15,9.99999999 L10.71,14.29 L10.71,14.29 Z" id="path-1"></path>
    </defs>
    <g id="missed_video_call" stroke="none" stroke-width="1" fill="none" fill-rule="evenodd">
        <mask id="mask-2" fill="white">
            <use xlink:href="#path-1"></use>
        </mask>
        <use fill="#000000" xlink:href="#path-1"></use>
    </g>
</svg>