<?xml version="1.0" encoding="UTF-8"?>
<svg width="24px" height="24px" viewBox="0 0 24 24" version="1.1" xmlns="http://www.w3.org/2000/svg" xmlns:xlink="http://www.w3.org/1999/xlink">
    <title>not_interested</title>
    <defs>
        <path d="M12,1.99999996 C6.47999998,1.99999996 1.99999996,6.47999998 1.99999996,12 C1.99999996,17.52 6.47999998,22 12,22 C17.52,22 22,17.52 22,12 C22,6.47999998 17.52,1.99999996 12,1.99999996 Z M12,20 C7.57999998,20 3.99999997,16.42 3.99999997,12 C3.99999997,10.15 4.62999997,8.44999999 5.68999997,7.09999998 L16.9,18.31 C15.55,19.37 13.85,20 12,20 Z M18.31,16.9 L7.09999998,5.68999997 C8.44999999,4.62999997 10.15,3.99999997 12,3.99999997 C16.42,3.99999997 20,7.57999998 20,12 C20,13.85 19.37,15.55 18.31,16.9 Z" id="path-1"></path>
    </defs>
    <g id="not_interested" stroke="none" stroke-width="1" fill="none" fill-rule="evenodd">
        <mask id="mask-2" fill="white">
            <use xlink:href="#path-1"></use>
        </mask>
        <use fill="#000000" xlink:href="#path-1"></use>
    </g>
</svg>