<?xml version="1.0" encoding="UTF-8"?>
<svg width="24px" height="24px" viewBox="0 0 24 24" version="1.1" xmlns="http://www.w3.org/2000/svg" xmlns:xlink="http://www.w3.org/1999/xlink">
    <title>queue_play_next</title>
    <defs>
        <path d="M21,2.99999996 L2.99999995,2.99999996 C1.89999996,2.99999996 0.999999954,3.89999997 0.999999954,4.99999996 L0.999999954,17 C0.999999954,18.1 1.89999996,19 2.99999995,19 L7.99999995,19 L7.99999995,20 C7.99999995,20.55 8.44999999,21 8.99999995,21 L15,21 C15.55,21 16,20.55 16,20 L16,19 L17,19 C17.55,19 18,18.55 18,18 C18,17.45 17.55,17 17,17 L3.99999995,17 C3.44999996,17 2.99999995,16.55 2.99999995,16 L2.99999995,5.99999996 C2.99999995,5.44999997 3.44999996,4.99999996 3.99999995,4.99999996 L20,4.99999996 C20.55,4.99999996 21,5.44999997 21,5.99999996 L21,12 C21,12.55 21.45,13 22,13 C22.55,13 23,12.55 23,12 L23,4.99999996 C23,3.89999997 22.1,2.99999996 21,2.99999996 Z M13,9.99999998 L13,7.99999998 C13,7.44999998 12.55,6.99999998 12,6.99999998 C11.45,6.99999998 11,7.44999998 11,7.99999998 L11,9.99999998 L8.99999998,9.99999998 C8.44999999,9.99999998 7.99999998,10.45 7.99999998,11 C7.99999998,11.55 8.44999999,12 8.99999998,12 L11,12 L11,14 C11,14.55 11.45,15 12,15 C12.55,15 13,14.55 13,14 L13,12 L15,12 C15.55,12 16,11.55 16,11 C16,10.45 15.55,9.99999998 15,9.99999998 L13,9.99999998 Z M23.29,18.71 L20.25,21.75 C19.84,22.16 19.16,22.16 18.75,21.75 C18.34,21.34 18.34,20.66 18.75,20.25 L21,18 L18.75,15.75 C18.34,15.34 18.34,14.66 18.75,14.25 C19.16,13.84 19.84,13.84 20.25,14.25 L23.29,17.29 C23.68,17.68 23.68,18.32 23.29,18.71 Z" id="path-1"></path>
    </defs>
    <g id="queue_play_next" stroke="none" stroke-width="1" fill="none" fill-rule="evenodd">
        <mask id="mask-2" fill="white">
            <use xlink:href="#path-1"></use>
        </mask>
        <use fill="#000000" xlink:href="#path-1"></use>
    </g>
</svg>