<?xml version="1.0" encoding="UTF-8"?>
<svg width="24px" height="24px" viewBox="0 0 24 24" version="1.1" xmlns="http://www.w3.org/2000/svg" xmlns:xlink="http://www.w3.org/1999/xlink">
    <title>replay_10</title>
    <defs>
        <path d="M11.99,4.99999997 L11.99,2.20999996 C11.99,1.75999996 11.45,1.53999996 11.14,1.85999996 L7.34999998,5.64999997 C7.14999998,5.84999997 7.14999998,6.15999998 7.34999998,6.35999998 L11.14,10.15 C11.45,10.46 11.99,10.24 11.99,9.79999999 L11.99,6.99999998 C15.72,6.99999998 18.67,10.42 17.85,14.29 C17.38,16.56 15.54,18.39 13.28,18.86 C9.70999999,19.61 6.52999998,17.16 6.04999998,13.85 C5.98999997,13.37 5.56999997,13 5.06999997,13 C4.46999997,13 3.98999997,13.53 4.06999997,14.13 C4.68999997,18.52 8.86999999,21.77 13.6,20.85 C16.72,20.24 19.23,17.73 19.84,14.61 C20.83,9.47999999 16.94,4.99999997 11.99,4.99999997 Z M10.89,16 L10.04,16 L10.04,12.74 L9.02999999,13.05 L9.02999999,12.36 L10.8,11.73 L10.89,11.73 L10.89,16 Z M15.17,14.24 C15.17,14.56 15.14,14.84 15.07,15.06 C15,15.28 14.9,15.48 14.78,15.63 C14.66,15.78 14.5,15.89 14.33,15.96 C14.16,16.03 13.96,16.06 13.74,16.06 C13.52,16.06 13.33,16.03 13.15,15.96 C12.97,15.89 12.82,15.78 12.69,15.63 C12.56,15.48 12.46,15.29 12.39,15.06 C12.32,14.83 12.28,14.56 12.28,14.24 L12.28,13.5 C12.28,13.18 12.31,12.9 12.38,12.68 C12.45,12.46 12.55,12.26 12.67,12.11 C12.79,11.96 12.95,11.85 13.12,11.78 C13.29,11.71 13.49,11.68 13.71,11.68 C13.93,11.68 14.12,11.71 14.3,11.78 C14.48,11.85 14.63,11.96 14.76,12.11 C14.89,12.26 14.99,12.45 15.06,12.68 C15.13,12.91 15.17,13.18 15.17,13.5 L15.17,14.24 L15.17,14.24 Z M14.32,13.38 C14.32,13.19 14.31,13.03 14.28,12.9 C14.25,12.77 14.21,12.67 14.16,12.59 C14.11,12.51 14.05,12.45 13.97,12.42 C13.89,12.39 13.81,12.37 13.72,12.37 C13.63,12.37 13.54,12.39 13.47,12.42 C13.4,12.45 13.33,12.51 13.28,12.59 C13.23,12.67 13.19,12.77 13.16,12.9 C13.13,13.03 13.12,13.19 13.12,13.38 L13.12,14.35 C13.12,14.54 13.13,14.7 13.16,14.83 C13.19,14.96 13.23,15.07 13.28,15.15 C13.33,15.23 13.39,15.29 13.47,15.32 C13.55,15.35 13.63,15.37 13.72,15.37 C13.81,15.37 13.9,15.35 13.97,15.32 C14.04,15.29 14.11,15.23 14.16,15.15 C14.21,15.07 14.25,14.96 14.27,14.83 C14.29,14.7 14.31,14.54 14.31,14.35 L14.31,13.38 L14.32,13.38 Z" id="path-1"></path>
    </defs>
    <g id="replay_10" stroke="none" stroke-width="1" fill="none" fill-rule="evenodd">
        <mask id="mask-2" fill="white">
            <use xlink:href="#path-1"></use>
        </mask>
        <use fill="#000000" xlink:href="#path-1"></use>
    </g>
</svg>