<?xml version="1.0" encoding="UTF-8"?>
<svg width="24px" height="24px" viewBox="0 0 24 24" version="1.1" xmlns="http://www.w3.org/2000/svg" xmlns:xlink="http://www.w3.org/1999/xlink">
    <title>snooze</title>
    <defs>
        <path d="M9.99999999,11 L12.63,11 L8.90999999,15.35 C8.35999998,16 8.81999999,17 9.66999999,17 L14,17 C14.55,17 15,16.55 15,16 C15,15.45 14.55,15 14,15 L11.37,15 L15.09,10.65 C15.64,9.99999999 15.18,8.99999999 14.33,8.99999999 L9.99999999,8.99999999 C9.44999999,8.99999999 8.99999999,9.44999999 8.99999999,9.99999999 C8.99999999,10.55 9.44999999,11 9.99999999,11 Z M21.3,6.41999998 C20.95,6.83999998 20.32,6.89999998 19.89,6.54999998 L16.82,3.98999997 C16.4,3.62999997 16.34,2.99999996 16.7,2.57999996 C17.05,2.15999996 17.68,2.09999996 18.11,2.44999996 L21.18,5.00999997 C21.6,5.36999997 21.66,5.99999997 21.3,6.41999998 Z M2.69999996,6.41999998 C3.04999996,6.84999998 3.67999997,6.89999998 4.09999997,6.54999998 L7.16999998,3.98999997 C7.59999998,3.62999997 7.65999998,2.99999996 7.29999998,2.57999996 C6.94999998,2.14999996 6.31999998,2.09999996 5.89999997,2.44999996 L2.81999996,5.00999997 C2.39999996,5.36999997 2.33999996,5.99999997 2.69999996,6.41999998 Z M12,5.99999997 C15.86,5.99999997 19,9.13999999 19,13 C19,16.86 15.86,20 12,20 C8.13999998,20 4.99999997,16.86 4.99999997,13 C4.99999997,9.13999999 8.13999998,5.99999997 12,5.99999997 M12,3.99999997 C7.02999998,3.99999997 2.99999996,8.02999998 2.99999996,13 C2.99999996,17.97 7.02999998,22 12,22 C16.97,22 21,17.97 21,13 C21,8.02999998 16.97,3.99999997 12,3.99999997 Z" id="path-1"></path>
    </defs>
    <g id="snooze" stroke="none" stroke-width="1" fill="none" fill-rule="evenodd">
        <mask id="mask-2" fill="white">
            <use xlink:href="#path-1"></use>
        </mask>
        <use fill="#000000" xlink:href="#path-1"></use>
    </g>
</svg>