<?xml version="1.0" encoding="UTF-8"?>
<svg width="24px" height="24px" viewBox="0 0 24 24" version="1.1" xmlns="http://www.w3.org/2000/svg" xmlns:xlink="http://www.w3.org/1999/xlink">
    <title>sort_by_alpha</title>
    <defs>
        <path d="M12.93,2.64999996 C12.73,2.44999996 12.42,2.44999996 12.22,2.64999996 L10.21,4.65999997 L14.93,4.65999997 L12.93,2.64999996 Z M12.23,21.35 C12.43,21.55 12.74,21.55 12.94,21.35 L14.92,19.37 L10.26,19.37 L12.23,21.35 L12.23,21.35 Z M10.98,17.73 C11.58,17.73 11.99,17.13 11.77,16.57 L8.03999998,7.02999998 C7.85999998,6.56999998 7.40999998,6.26999998 6.91999998,6.26999998 C6.42999998,6.26999998 5.97999997,6.56999998 5.79999997,7.02999998 L2.05999996,16.56 C1.83999996,17.12 2.24999996,17.72 2.84999996,17.72 C3.19999996,17.72 3.51999996,17.5 3.64999997,17.17 L4.35999997,15.27 L9.46999999,15.27 L10.18,17.17 C10.31,17.51 10.63,17.73 10.98,17.73 Z M4.96999997,13.64 L6.90999998,8.45999999 L8.84999999,13.64 L4.96999997,13.64 L4.96999997,13.64 Z M21.05,16.14 L15.72,16.14 L21.44,7.84999998 C21.9,7.18999998 21.42,6.27999998 20.62,6.27999998 L14.14,6.27999998 C13.7,6.27999998 13.35,6.63999998 13.35,7.07999998 L13.35,7.08999998 C13.35,7.52999998 13.71,7.88999998 14.14,7.88999998 L19.23,7.88999998 L13.5,16.17 C13.04,16.83 13.52,17.74 14.32,17.74 L21.04,17.74 C21.48,17.74 21.83,17.38 21.83,16.95 C21.85,16.5 21.49,16.14 21.05,16.14 L21.05,16.14 Z" id="path-1"></path>
    </defs>
    <g id="sort_by_alpha" stroke="none" stroke-width="1" fill="none" fill-rule="evenodd">
        <mask id="mask-2" fill="white">
            <use xlink:href="#path-1"></use>
        </mask>
        <use fill="#000000" xlink:href="#path-1"></use>
    </g>
</svg>