<?xml version="1.0" encoding="UTF-8"?>
<svg width="24px" height="24px" viewBox="0 0 24 24" version="1.1" xmlns="http://www.w3.org/2000/svg" xmlns:xlink="http://www.w3.org/1999/xlink">
    <title>speed</title>
    <defs>
        <path d="M4.51425499,7.34918159 C7.37307535,4.12250666 11.9779294,3.09109402 15.94,4.78999997 C16.2828211,4.93089783 16.519591,5.24985595 16.5552262,5.61878494 C16.5908614,5.98771394 16.419516,6.34609229 16.11,6.54999998 C15.8132741,6.7507864 15.4318052,6.77748922 15.11,6.61999998 C14.4368758,6.3339435 13.7263851,6.14537725 13,6.05999998 C10.0748959,5.67856248 7.17723104,6.93778552 5.46028131,9.33649605 C3.74333158,11.7352066 3.48572904,14.8841342 4.78999997,17.53 C4.96220364,17.8623996 5.30564323,18.0707787 5.67999997,18.07 L5.67999997,18.07 L18.33,18.07 C18.7021807,18.0727242 19.0450804,17.8685255 19.22,17.54 C19.926668,16.0704969 20.1674175,14.4201414 19.91,12.81 C19.8128864,12.187329 19.6381944,11.5792666 19.39,11 C19.2325108,10.6781948 19.2592136,10.2967259 19.46,9.99999999 C19.6553283,9.69157811 20.0032069,9.51410869 20.3675594,9.53701084 C20.7319118,9.55991299 21.0548296,9.77954677 21.21,10.11 C22.429371,12.9958818 22.2257938,16.2864287 20.66,19 C20.3013181,19.6212684 19.6373695,20.002848 18.92,20.0000159 L18.92,20.0000159 L5.06999997,20.0000159 C4.35977785,19.9957131 3.70510456,19.6150891 3.34999996,19 C1.18621144,15.2714206 1.65543462,10.5758565 4.51425499,7.34918159 Z M19.08,6.92999998 L13.42,15.42 C12.9144692,15.9255308 12.177642,16.1229631 11.4870741,15.937926 C10.7965061,15.7528888 10.2571112,15.2134939 10.072074,14.522926 C9.88703693,13.832358 10.0844692,13.0955308 10.59,12.59 L10.59,12.59 L19.08,6.92999998 Z" id="path-1"></path>
    </defs>
    <g id="speed" stroke="none" stroke-width="1" fill="none" fill-rule="evenodd">
        <mask id="mask-2" fill="white">
            <use xlink:href="#path-1"></use>
        </mask>
        <use id="Combined-Shape" fill="#000000" xlink:href="#path-1"></use>
    </g>
</svg>