<?xml version="1.0" encoding="UTF-8"?>
<svg width="24px" height="24px" viewBox="0 0 24 24" version="1.1" xmlns="http://www.w3.org/2000/svg" xmlns:xlink="http://www.w3.org/1999/xlink">
    <title>stop_circle</title>
    <defs>
        <path d="M8.99999998,16 L15,16 C15.55,16 16,15.55 16,15 L16,8.99999998 C16,8.44999999 15.55,7.99999998 15,7.99999998 L8.99999998,7.99999998 C8.44999999,7.99999998 7.99999998,8.44999999 7.99999998,8.99999998 L7.99999998,15 C7.99999998,15.55 8.44999999,16 8.99999998,16 Z M12,1.99999996 C6.47999998,1.99999996 1.99999996,6.47999998 1.99999996,12 C1.99999996,17.52 6.47999998,22 12,22 C17.52,22 22,17.52 22,12 C22,6.47999998 17.52,1.99999996 12,1.99999996 L12,1.99999996 Z" id="path-1"></path>
    </defs>
    <g id="stop_circle" stroke="none" stroke-width="1" fill="none" fill-rule="evenodd">
        <mask id="mask-2" fill="white">
            <use xlink:href="#path-1"></use>
        </mask>
        <use id="Combined-Shape" fill="#000000" xlink:href="#path-1"></use>
    </g>
</svg>