<?xml version="1.0" encoding="UTF-8"?>
<svg width="24px" height="24px" viewBox="0 0 24 24" version="1.1" xmlns="http://www.w3.org/2000/svg" xmlns:xlink="http://www.w3.org/1999/xlink">
    <title>surround_sound</title>
    <defs>
        <path d="M20,3.99999997 L3.99999996,3.99999997 C2.89999996,3.99999997 1.99999996,4.89999997 1.99999996,5.99999997 L1.99999996,18 C1.99999996,19.1 2.89999996,20 3.99999996,20 L20,20 C21.1,20 22,19.1 22,18 L22,5.99999997 C22,4.89999997 21.1,3.99999997 20,3.99999997 Z M7.10999998,16.89 C6.67999998,17.32 5.96999997,17.28 5.59999997,16.8 C4.52999997,15.39 3.99999997,13.69 3.99999997,12 C3.99999997,10.31 4.52999997,8.61999999 5.58999997,7.19999998 C5.95999997,6.71999998 6.66999998,6.66999998 7.09999998,7.09999998 C7.44999998,7.44999998 7.48999998,7.99999998 7.19999998,8.38999998 C6.39999998,9.45999999 5.99999997,10.73 5.99999997,12 C5.99999997,13.27 6.39999998,14.53 7.19999998,15.6 C7.49999997,15.99 7.45999998,16.54 7.10999998,16.89 Z M12,16 C9.78999999,16 7.99999998,14.21 7.99999998,12 C7.99999998,9.78999999 9.78999999,7.99999998 12,7.99999998 C14.21,7.99999998 16,9.78999999 16,12 C16,14.21 14.21,16 12,16 Z M16.9,16.9 C16.55,16.55 16.51,16 16.81,15.61 C17.6,14.54 18,13.27 18,12 C18,10.73 17.6,9.46999999 16.8,8.39999998 C16.5,8.00999998 16.54,7.44999998 16.89,7.09999998 C17.32,6.66999998 18.03,6.70999998 18.4,7.18999998 C19.47,8.59999999 20,10.29 20,11.99 C20,13.68 19.47,15.37 18.41,16.79 C18.04,17.28 17.33,17.33 16.9,16.9 L16.9,16.9 Z M12,9.99999999 C10.9,9.99999999 9.99999999,10.9 9.99999999,12 C9.99999999,13.1 10.9,14 12,14 C13.1,14 14,13.1 14,12 C14,10.9 13.1,9.99999999 12,9.99999999 Z" id="path-1"></path>
    </defs>
    <g id="surround_sound" stroke="none" stroke-width="1" fill="none" fill-rule="evenodd">
        <mask id="mask-2" fill="white">
            <use xlink:href="#path-1"></use>
        </mask>
        <use fill="#000000" xlink:href="#path-1"></use>
    </g>
</svg>