<?xml version="1.0" encoding="UTF-8"?>
<svg width="24px" height="24px" viewBox="0 0 24 24" version="1.1" xmlns="http://www.w3.org/2000/svg" xmlns:xlink="http://www.w3.org/1999/xlink">
    <title>video_settings</title>
    <defs>
        <path d="M20.03,13 C20.16,13 20.26,13.09 20.28,13.22 L20.28,13.22 L20.48,14.58 C20.75,14.69 21,14.83 21.23,15 L21.23,15 L22.51,14.5 C22.63,14.46 22.76,14.5 22.82,14.61 L22.82,14.61 L23.85,16.4 C23.91,16.51 23.89,16.64 23.79,16.72 L23.79,16.72 L22.72,17.57 C22.75,17.85 22.74,18.14 22.71,18.43 L22.71,18.43 L23.77,19.28 C23.87,19.36 23.89,19.49 23.83,19.6 L23.83,19.6 L22.8,21.39 C22.74,21.5 22.61,21.55 22.49,21.5 L22.49,21.5 L21.21,21 C20.98,21.16 20.73,21.31 20.47,21.42 L20.47,21.42 L20.27,22.78 C20.25,22.9 20.14,22.99 20.02,22.99 L20.02,22.99 L17.95,22.99 C17.82,22.99 17.72,22.9 17.7,22.78 L17.7,22.78 L17.5,21.42 C17.23,21.31 16.98,21.17 16.75,21 L16.75,21 L15.48,21.5 C15.36,21.54 15.23,21.5 15.17,21.39 L15.17,21.39 L14.14,19.6 C14.08,19.49 14.1,19.36 14.2,19.28 L14.2,19.28 L15.27,18.43 C15.24,18.15 15.25,17.86 15.28,17.57 L15.28,17.57 L14.21,16.71 C14.11,16.63 14.09,16.5 14.15,16.39 L14.15,16.39 L15.18,14.6 C15.24,14.49 15.37,14.44 15.49,14.49 L15.49,14.49 L16.77,14.99 C17,14.83 17.25,14.68 17.51,14.57 L17.51,14.57 L17.71,13.21 C17.73,13.09 17.84,13 17.96,13 L17.96,13 Z M21,3.99999997 C22.1,3.99999997 23,4.89999997 23,5.99999997 L23,5.99999997 L23,11 L21,11 L21,6.99999997 C21,6.44999998 20.55,5.99999997 20,5.99999997 L20,5.99999997 L3.99999995,5.99999997 C3.44999996,5.99999997 2.99999995,6.44999998 2.99999995,6.99999997 L2.99999995,6.99999997 L2.99999995,17 C2.99999995,17.55 3.44999996,18 3.99999995,18 L3.99999995,18 L12,18 L12,20 L2.99999995,20 C1.89999996,20 0.999999954,19.1 0.999999954,18 L0.999999954,18 L0.999999954,5.99999997 C0.999999954,4.89999997 1.89999996,3.99999997 2.99999995,3.99999997 L2.99999995,3.99999997 Z M19,16.5 C18.17,16.5 17.5,17.17 17.5,18 C17.5,18.83 18.17,19.5 19,19.5 C19.83,19.5 20.5,18.83 20.5,18 C20.5,17.17 19.83,16.5 19,16.5 Z M8.99999999,7.99999998 L15,12 L8.99999999,16 L8.99999999,7.99999998 Z" id="path-1"></path>
    </defs>
    <g id="video_settings" stroke="none" stroke-width="1" fill="none" fill-rule="evenodd">
        <mask id="mask-2" fill="white">
            <use xlink:href="#path-1"></use>
        </mask>
        <use id="Combined-Shape" fill="#000000" xlink:href="#path-1"></use>
    </g>
</svg>