<?xml version="1.0" encoding="UTF-8"?>
<svg width="24px" height="24px" viewBox="0 0 24 24" version="1.1" xmlns="http://www.w3.org/2000/svg" xmlns:xlink="http://www.w3.org/1999/xlink">
    <title>add_a_photo</title>
    <defs>
        <path d="M15.12,3.99999997 C15.68,3.99999997 16.22,4.23999997 16.59,4.64999997 L16.59,4.64999997 L17.83,5.99999997 L21,5.99999997 C22.1,5.99999997 23,6.89999998 23,7.99999997 L23,7.99999997 L23,20 C23,21.1 22.1,22 21,22 L21,22 L4.99999996,22 C3.89999997,22 2.99999996,21.1 2.99999996,20 L2.99999996,20 L2.99999996,9.71999999 C3.29999996,9.88999999 3.62999997,9.99999997 3.99999996,9.99999997 C5.09999997,9.99999997 5.99999996,9.09999999 5.99999996,7.99999997 L5.99999996,7.99999997 L5.99999996,6.99999997 L6.99999996,6.99999997 C8.09999998,6.99999997 8.99999996,6.09999998 8.99999996,4.99999997 C8.99999996,4.62999997 8.88999999,4.29999997 8.71999999,3.99999997 L8.71999999,3.99999997 Z M13,8.99999999 C10.24,8.99999999 7.99999998,11.24 7.99999998,14 C7.99999998,16.76 10.24,19 13,19 C15.76,19 18,16.76 18,14 C18,11.24 15.76,8.99999999 13,8.99999999 Z M13,11 C14.6568543,11 16,12.3431458 16,14 C16,15.6568543 14.6568543,17 13,17 C11.3431457,17 9.99999999,15.6568543 9.99999999,14 C9.99999999,12.3431458 11.3431457,11 13,11 Z M3.99999995,0.999999954 C4.54999997,0.999999954 4.99999995,1.44999996 4.99999995,1.99999995 L4.99999995,1.99999995 L4.99999995,3.99999995 L6.99999995,3.99999995 C7.54999998,3.99999995 7.99999995,4.44999997 7.99999995,4.99999995 C7.99999995,5.54999997 7.54999998,5.99999995 6.99999995,5.99999995 L6.99999995,5.99999995 L4.99999995,5.99999995 L4.99999995,7.99999995 C4.99999995,8.54999999 4.54999997,8.99999995 3.99999995,8.99999995 C3.44999996,8.99999995 2.99999995,8.54999999 2.99999995,7.99999995 L2.99999995,7.99999995 L2.99999995,5.99999995 L0.99999995,5.99999995 C0.449999952,5.99999995 -5.00000308e-08,5.54999997 -5.00000308e-08,4.99999995 C-5.00000308e-08,4.44999997 0.449999952,3.99999995 0.99999995,3.99999995 L0.99999995,3.99999995 L2.99999995,3.99999995 L2.99999995,1.99999995 C2.99999995,1.44999996 3.44999996,0.999999954 3.99999995,0.999999954 Z" id="path-1"></path>
    </defs>
    <g id="add_a_photo" stroke="none" stroke-width="1" fill="none" fill-rule="evenodd">
        <mask id="mask-2" fill="white">
            <use xlink:href="#path-1"></use>
        </mask>
        <use id="Combined-Shape" fill="#000000" xlink:href="#path-1"></use>
    </g>
</svg>