<?xml version="1.0" encoding="UTF-8"?>
<svg width="24px" height="24px" viewBox="0 0 24 24" version="1.1" xmlns="http://www.w3.org/2000/svg" xmlns:xlink="http://www.w3.org/1999/xlink">
    <title>assistant</title>
    <defs>
        <path d="M19,1.99999996 L4.99999996,1.99999996 C3.89999997,1.99999996 2.99999996,2.89999996 2.99999996,3.99999996 L2.99999996,18 C2.99999996,19.1 3.89999997,20 4.99999996,20 L8.99999996,20 L11.29,22.29 C11.68,22.68 12.31,22.68 12.7,22.29 L15,20 L19,20 C20.1,20 21,19.1 21,18 L21,3.99999996 C21,2.89999996 20.1,1.99999996 19,1.99999996 Z M13.88,12.88 L12,17 L10.12,12.88 L5.99999997,11 L10.12,9.11999999 L12,4.99999997 L13.88,9.11999999 L18,11 L13.88,12.88 Z" id="path-1"></path>
    </defs>
    <g id="assistant" stroke="none" stroke-width="1" fill="none" fill-rule="evenodd">
        <mask id="mask-2" fill="white">
            <use xlink:href="#path-1"></use>
        </mask>
        <use id="Combined-Shape" fill="#000000" xlink:href="#path-1"></use>
    </g>
</svg>