<?xml version="1.0" encoding="UTF-8"?>
<svg width="24px" height="24px" viewBox="0 0 24 24" version="1.1" xmlns="http://www.w3.org/2000/svg" xmlns:xlink="http://www.w3.org/1999/xlink">
    <title>blur_circular</title>
    <defs>
        <path d="M9.99999999,8.99999999 C9.44999999,8.99999999 8.99999999,9.44999999 8.99999999,9.99999999 C8.99999999,10.55 9.44999999,11 9.99999999,11 C10.55,11 11,10.55 11,9.99999999 C11,9.44999999 10.55,8.99999999 9.99999999,8.99999999 Z M9.99999999,13 C9.44999999,13 8.99999999,13.45 8.99999999,14 C8.99999999,14.55 9.44999999,15 9.99999999,15 C10.55,15 11,14.55 11,14 C11,13.45 10.55,13 9.99999999,13 Z M6.99999998,9.49999999 C6.71999998,9.49999999 6.49999998,9.71999999 6.49999998,9.99999999 C6.49999998,10.28 6.71999998,10.5 6.99999998,10.5 C7.27999998,10.5 7.49999998,10.28 7.49999998,9.99999999 C7.49999998,9.71999999 7.27999998,9.49999999 6.99999998,9.49999999 Z M9.99999999,16.5 C9.71999999,16.5 9.49999999,16.72 9.49999999,17 C9.49999999,17.28 9.71999999,17.5 9.99999999,17.5 C10.28,17.5 10.5,17.28 10.5,17 C10.5,16.72 10.28,16.5 9.99999999,16.5 Z M6.99999998,13.5 C6.71999998,13.5 6.49999998,13.72 6.49999998,14 C6.49999998,14.28 6.71999998,14.5 6.99999998,14.5 C7.27999998,14.5 7.49999998,14.28 7.49999998,14 C7.49999998,13.72 7.27999998,13.5 6.99999998,13.5 Z M9.99999999,7.49999998 C10.28,7.49999998 10.5,7.27999998 10.5,6.99999998 C10.5,6.71999998 10.28,6.49999998 9.99999999,6.49999998 C9.71999999,6.49999998 9.49999999,6.71999998 9.49999999,6.99999998 C9.49999999,7.27999998 9.71999999,7.49999998 9.99999999,7.49999998 Z M14,8.99999999 C13.45,8.99999999 13,9.44999999 13,9.99999999 C13,10.55 13.45,11 14,11 C14.55,11 15,10.55 15,9.99999999 C15,9.44999999 14.55,8.99999999 14,8.99999999 Z M14,7.49999998 C14.28,7.49999998 14.5,7.27999998 14.5,6.99999998 C14.5,6.71999998 14.28,6.49999998 14,6.49999998 C13.72,6.49999998 13.5,6.71999998 13.5,6.99999998 C13.5,7.27999998 13.72,7.49999998 14,7.49999998 Z M17,13.5 C16.72,13.5 16.5,13.72 16.5,14 C16.5,14.28 16.72,14.5 17,14.5 C17.28,14.5 17.5,14.28 17.5,14 C17.5,13.72 17.28,13.5 17,13.5 Z M17,9.49999999 C16.72,9.49999999 16.5,9.71999999 16.5,9.99999999 C16.5,10.28 16.72,10.5 17,10.5 C17.28,10.5 17.5,10.28 17.5,9.99999999 C17.5,9.71999999 17.28,9.49999999 17,9.49999999 Z M12,1.99999996 C6.47999998,1.99999996 1.99999996,6.47999998 1.99999996,12 C1.99999996,17.52 6.47999998,22 12,22 C17.52,22 22,17.52 22,12 C22,6.47999998 17.52,1.99999996 12,1.99999996 Z M12,20 C7.57999998,20 3.99999997,16.42 3.99999997,12 C3.99999997,7.57999998 7.57999998,3.99999997 12,3.99999997 C16.42,3.99999997 20,7.57999998 20,12 C20,16.42 16.42,20 12,20 Z M14,16.5 C13.72,16.5 13.5,16.72 13.5,17 C13.5,17.28 13.72,17.5 14,17.5 C14.28,17.5 14.5,17.28 14.5,17 C14.5,16.72 14.28,16.5 14,16.5 Z M14,13 C13.45,13 13,13.45 13,14 C13,14.55 13.45,15 14,15 C14.55,15 15,14.55 15,14 C15,13.45 14.55,13 14,13 Z" id="path-1"></path>
    </defs>
    <g id="blur_circular" stroke="none" stroke-width="1" fill="none" fill-rule="evenodd">
        <mask id="mask-2" fill="white">
            <use xlink:href="#path-1"></use>
        </mask>
        <use id="Combined-Shape" fill="#000000" xlink:href="#path-1"></use>
    </g>
</svg>