<?xml version="1.0" encoding="UTF-8"?>
<svg width="24px" height="24px" viewBox="0 0 24 24" version="1.1" xmlns="http://www.w3.org/2000/svg" xmlns:xlink="http://www.w3.org/1999/xlink">
    <title>blur_linear</title>
    <defs>
        <path d="M4.99999996,17.5 C5.82999997,17.5 6.49999996,16.83 6.49999996,16 C6.49999996,15.17 5.82999997,14.5 4.99999996,14.5 C4.16999997,14.5 3.49999996,15.17 3.49999996,16 C3.49999996,16.83 4.16999997,17.5 4.99999996,17.5 Z M8.99999998,13 C9.54999999,13 9.99999998,12.55 9.99999998,12 C9.99999998,11.45 9.54999999,11 8.99999998,11 C8.44999999,11 7.99999998,11.45 7.99999998,12 C7.99999998,12.55 8.44999999,13 8.99999998,13 Z M8.99999998,8.99999998 C9.54999999,8.99999998 9.99999998,8.54999999 9.99999998,7.99999998 C9.99999998,7.44999998 9.54999999,6.99999998 8.99999998,6.99999998 C8.44999999,6.99999998 7.99999998,7.44999998 7.99999998,7.99999998 C7.99999998,8.54999999 8.44999999,8.99999998 8.99999998,8.99999998 Z M3.99999996,21 L20,21 C20.55,21 21,20.55 21,20 C21,19.45 20.55,19 20,19 L3.99999996,19 C3.44999996,19 2.99999996,19.45 2.99999996,20 C2.99999996,20.55 3.44999996,21 3.99999996,21 Z M4.99999996,9.49999998 C5.82999997,9.49999998 6.49999996,8.82999999 6.49999996,7.99999998 C6.49999996,7.16999998 5.82999997,6.49999998 4.99999996,6.49999998 C4.16999997,6.49999998 3.49999996,7.16999998 3.49999996,7.99999998 C3.49999996,8.82999999 4.16999997,9.49999998 4.99999996,9.49999998 Z M4.99999996,13.5 C5.82999997,13.5 6.49999996,12.83 6.49999996,12 C6.49999996,11.17 5.82999997,10.5 4.99999996,10.5 C4.16999997,10.5 3.49999996,11.17 3.49999996,12 C3.49999996,12.83 4.16999997,13.5 4.99999996,13.5 Z M8.99999998,17 C9.54999999,17 9.99999998,16.55 9.99999998,16 C9.99999998,15.45 9.54999999,15 8.99999998,15 C8.44999999,15 7.99999998,15.45 7.99999998,16 C7.99999998,16.55 8.44999999,17 8.99999998,17 Z M17,16.5 C17.28,16.5 17.5,16.28 17.5,16 C17.5,15.72 17.28,15.5 17,15.5 C16.72,15.5 16.5,15.72 16.5,16 C16.5,16.28 16.72,16.5 17,16.5 Z M2.99999996,3.99999996 C2.99999996,4.54999997 3.44999996,4.99999996 3.99999996,4.99999996 L20,4.99999996 C20.55,4.99999996 21,4.54999997 21,3.99999996 C21,3.44999996 20.55,2.99999996 20,2.99999996 L3.99999996,2.99999996 C3.44999996,2.99999996 2.99999996,3.44999996 2.99999996,3.99999996 Z M17,8.49999998 C17.28,8.49999998 17.5,8.27999998 17.5,7.99999998 C17.5,7.71999998 17.28,7.49999998 17,7.49999998 C16.72,7.49999998 16.5,7.71999998 16.5,7.99999998 C16.5,8.27999998 16.72,8.49999998 17,8.49999998 Z M17,12.5 C17.28,12.5 17.5,12.28 17.5,12 C17.5,11.72 17.28,11.5 17,11.5 C16.72,11.5 16.5,11.72 16.5,12 C16.5,12.28 16.72,12.5 17,12.5 Z M13,8.99999998 C13.55,8.99999998 14,8.54999999 14,7.99999998 C14,7.44999998 13.55,6.99999998 13,6.99999998 C12.45,6.99999998 12,7.44999998 12,7.99999998 C12,8.54999999 12.45,8.99999998 13,8.99999998 Z M13,13 C13.55,13 14,12.55 14,12 C14,11.45 13.55,11 13,11 C12.45,11 12,11.45 12,12 C12,12.55 12.45,13 13,13 Z M13,17 C13.55,17 14,16.55 14,16 C14,15.45 13.55,15 13,15 C12.45,15 12,15.45 12,16 C12,16.55 12.45,17 13,17 Z" id="path-1"></path>
    </defs>
    <g id="blur_linear" stroke="none" stroke-width="1" fill="none" fill-rule="evenodd">
        <mask id="mask-2" fill="white">
            <use xlink:href="#path-1"></use>
        </mask>
        <use id="Combined-Shape" fill="#000000" xlink:href="#path-1"></use>
    </g>
</svg>