<?xml version="1.0" encoding="UTF-8"?>
<svg width="24px" height="24px" viewBox="0 0 24 24" version="1.1" xmlns="http://www.w3.org/2000/svg" xmlns:xlink="http://www.w3.org/1999/xlink">
    <title>camera</title>
    <defs>
        <path d="M13.81,2.85999996 C13.98,2.55999996 13.81,2.15999996 13.46,2.11999996 C10.84,1.74999996 8.15999998,2.39999996 6.01999998,3.97999997 C5.82999997,4.12999997 5.76999997,4.40999997 5.89999997,4.62999997 L8.90999999,9.84999999 C9.09999999,10.18 9.57999999,10.18 9.77999999,9.84999999 L13.81,2.85999996 L13.81,2.85999996 Z M21.3,8.32999998 C20.32,5.85999997 18.38,3.86999997 15.95,2.82999996 C15.72,2.72999996 15.45,2.82999996 15.32,3.04999996 L12.31,8.25999998 C12.12,8.57999999 12.36,8.99999999 12.75,8.99999999 L20.83,8.99999999 C21.18,8.99999999 21.43,8.64999999 21.3,8.32999998 L21.3,8.32999998 Z M21.37,9.99999999 L15.17,9.99999999 C14.79,9.99999999 14.54,10.42 14.74,10.75 L19,18.14 C19.17,18.44 19.6,18.49 19.82,18.22 C21.56,16.04 22.3,13.19 21.87,10.43 C21.84,10.18 21.62,9.99999999 21.37,9.99999999 Z M4.17999997,5.78999997 C2.44999996,7.97999998 1.69999996,10.81 2.12999996,13.58 C2.15999996,13.82 2.37999996,14 2.62999996,14 L8.82999999,14 C9.20999999,14 9.45999999,13.58 9.25999999,13.25 L4.99999997,5.86999997 C4.81999997,5.56999997 4.38999997,5.51999997 4.17999997,5.78999997 Z M2.69999996,15.67 C3.67999997,18.14 5.61999997,20.13 8.04999998,21.17 C8.27999998,21.27 8.54999999,21.17 8.67999999,20.95 L11.69,15.74 C11.88,15.41 11.64,14.99 11.26,14.99 L3.16999996,14.99 C2.81999996,15 2.56999996,15.35 2.69999996,15.67 L2.69999996,15.67 Z M10.53,21.89 C13.15,22.26 15.83,21.61 17.97,20.03 C18.17,19.88 18.23,19.59 18.1,19.37 L15.09,14.15 C14.9,13.82 14.42,13.82 14.22,14.15 L10.18,21.14 C10.01,21.44 10.19,21.84 10.53,21.89 L10.53,21.89 Z" id="path-1"></path>
    </defs>
    <g id="camera" stroke="none" stroke-width="1" fill="none" fill-rule="evenodd">
        <mask id="mask-2" fill="white">
            <use xlink:href="#path-1"></use>
        </mask>
        <use id="Combined-Shape" fill="#000000" xlink:href="#path-1"></use>
    </g>
</svg>