<?xml version="1.0" encoding="UTF-8"?>
<svg width="24px" height="24px" viewBox="0 0 24 24" version="1.1" xmlns="http://www.w3.org/2000/svg" xmlns:xlink="http://www.w3.org/1999/xlink">
    <title>camera_rear</title>
    <defs>
        <path d="M10.85,18.85 C10.54,18.54 9.99999997,18.76 9.99999997,19.21 L9.99999997,20 L5.99999997,20 C5.44999997,20 4.99999997,20.45 4.99999997,21 C4.99999997,21.55 5.44999997,22 5.99999997,22 L9.99999997,22 L9.99999997,22.79 C9.99999997,23.24 10.54,23.46 10.85,23.14 L12.64,21.35 C12.84,21.15 12.84,20.84 12.64,20.64 L10.85,18.85 L10.85,18.85 Z M18,20 L15,20 C14.45,20 14,20.45 14,21 C14,21.55 14.45,22 15,22 L18,22 C18.55,22 19,21.55 19,21 C19,20.45 18.55,20 18,20 Z M17,-4.99994108e-08 L6.99999997,-4.99994108e-08 C5.89999997,-4.99994108e-08 4.99999997,0.899999954 4.99999997,1.99999995 L4.99999997,16 C4.99999997,17.1 5.89999997,18 6.99999997,18 L17,18 C18.1,18 19,17.1 19,16 L19,1.99999995 C19,0.899999954 18.1,-4.99994108e-08 17,-4.99994108e-08 Z M12,5.99999996 C10.89,5.99999996 9.99999999,5.09999997 9.99999999,3.99999996 C9.99999999,2.89999996 10.89,1.99999996 11.99,1.99999996 C13.09,1.99999996 13.99,2.89999996 13.99,3.99999996 C14,5.09999997 13.1,5.99999996 12,5.99999996 Z" id="path-1"></path>
    </defs>
    <g id="camera_rear" stroke="none" stroke-width="1" fill="none" fill-rule="evenodd">
        <mask id="mask-2" fill="white">
            <use xlink:href="#path-1"></use>
        </mask>
        <use id="Combined-Shape" fill="#000000" xlink:href="#path-1"></use>
    </g>
</svg>