<?xml version="1.0" encoding="UTF-8"?>
<svg width="24px" height="24px" viewBox="0 0 24 24" version="1.1" xmlns="http://www.w3.org/2000/svg" xmlns:xlink="http://www.w3.org/1999/xlink">
    <title>color_lens</title>
    <defs>
        <path d="M12,2.99999996 C7.02999998,2.99999996 2.99999996,7.02999998 2.99999996,12 C2.99999996,16.97 7.02999998,21 12,21 C12.83,21 13.5,20.33 13.5,19.5 C13.5,19.11 13.35,18.76 13.11,18.49 C12.88,18.23 12.73,17.88 12.73,17.5 C12.73,16.67 13.4,16 14.23,16 L16,16 C18.76,16 21,13.76 21,11 C21,6.57999998 16.97,2.99999996 12,2.99999996 Z M6.49999997,12 C5.66999997,12 4.99999997,11.33 4.99999997,10.5 C4.99999997,9.66999999 5.66999997,8.99999999 6.49999997,8.99999999 C7.32999998,8.99999999 7.99999997,9.66999999 7.99999997,10.5 C7.99999997,11.33 7.32999998,12 6.49999997,12 Z M9.49999998,7.99999997 C8.66999999,7.99999997 7.99999998,7.32999998 7.99999998,6.49999997 C7.99999998,5.66999997 8.66999999,4.99999997 9.49999998,4.99999997 C10.33,4.99999997 11,5.66999997 11,6.49999997 C11,7.32999998 10.33,7.99999997 9.49999998,7.99999997 Z M14.5,7.99999997 C13.67,7.99999997 13,7.32999998 13,6.49999997 C13,5.66999997 13.67,4.99999997 14.5,4.99999997 C15.33,4.99999997 16,5.66999997 16,6.49999997 C16,7.32999998 15.33,7.99999997 14.5,7.99999997 Z M17.5,12 C16.67,12 16,11.33 16,10.5 C16,9.66999999 16.67,8.99999999 17.5,8.99999999 C18.33,8.99999999 19,9.66999999 19,10.5 C19,11.33 18.33,12 17.5,12 Z" id="path-1"></path>
    </defs>
    <g id="color_lens" stroke="none" stroke-width="1" fill="none" fill-rule="evenodd">
        <mask id="mask-2" fill="white">
            <use xlink:href="#path-1"></use>
        </mask>
        <use id="Combined-Shape" fill="#000000" xlink:href="#path-1"></use>
    </g>
</svg>