<?xml version="1.0" encoding="UTF-8"?>
<svg width="24px" height="24px" viewBox="0 0 24 24" version="1.1" xmlns="http://www.w3.org/2000/svg" xmlns:xlink="http://www.w3.org/1999/xlink">
    <title>crop_portrait</title>
    <defs>
        <path d="M17,2.99999996 L6.99999997,2.99999996 C5.89999997,2.99999996 4.99999997,3.89999997 4.99999997,4.99999996 L4.99999997,19 C4.99999997,20.1 5.89999997,21 6.99999997,21 L17,21 C18.1,21 19,20.1 19,19 L19,4.99999996 C19,3.89999997 18.1,2.99999996 17,2.99999996 Z M16,19 L7.99999998,19 C7.44999998,19 6.99999998,18.55 6.99999998,18 L6.99999998,5.99999997 C6.99999998,5.44999997 7.44999998,4.99999997 7.99999998,4.99999997 L16,4.99999997 C16.55,4.99999997 17,5.44999997 17,5.99999997 L17,18 C17,18.55 16.55,19 16,19 Z" id="path-1"></path>
    </defs>
    <g id="crop_portrait" stroke="none" stroke-width="1" fill="none" fill-rule="evenodd">
        <mask id="mask-2" fill="white">
            <use xlink:href="#path-1"></use>
        </mask>
        <use id="Combined-Shape" fill="#000000" xlink:href="#path-1"></use>
    </g>
</svg>