<?xml version="1.0" encoding="UTF-8"?>
<svg width="24px" height="24px" viewBox="0 0 24 24" version="1.1" xmlns="http://www.w3.org/2000/svg" xmlns:xlink="http://www.w3.org/1999/xlink">
    <title>crop_rotate</title>
    <defs>
        <path d="M16,8.99999998 L16,14 L18,14 L18,7.99999998 C18,6.89999998 17.1,5.99999998 16,5.99999998 L9.99999999,5.99999998 L9.99999999,7.99999998 L15,7.99999998 C15.55,7.99999998 16,8.44999999 16,8.99999998 Z M19,16 L8.99999997,16 C8.44999999,16 7.99999997,15.55 7.99999997,15 L7.99999997,4.99999997 C7.99999997,4.44999997 7.54999998,3.99999997 6.99999997,3.99999997 C6.44999998,3.99999997 5.99999997,4.44999997 5.99999997,4.99999997 L5.99999997,5.99999997 L4.99999997,5.99999997 C4.44999997,5.99999997 3.99999997,6.44999998 3.99999997,6.99999997 C3.99999997,7.54999998 4.44999997,7.99999997 4.99999997,7.99999997 L5.99999997,7.99999997 L5.99999997,16 C5.99999997,17.1 6.89999998,18 7.99999997,18 L16,18 L16,19 C16,19.55 16.45,20 17,20 C17.55,20 18,19.55 18,19 L18,18 L19,18 C19.55,18 20,17.55 20,17 C20,16.45 19.55,16 19,16 Z M17.66,1.39999996 C15.99,0.509999952 13.83,-0.11000005 11.39,0.0399999502 L15.2,3.84999997 L16.53,2.51999996 C19.62,3.97999997 21.87,6.88999998 22.42,10.38 C22.48,10.79 22.86,11.07 23.28,11 C23.69,10.94 23.97,10.55 23.9,10.14 C23.3,6.33999998 20.94,3.13999996 17.66,1.39999996 L17.66,1.39999996 Z M7.46999998,21.49 C4.37999997,20.03 2.12999996,17.12 1.57999996,13.63 C1.51999996,13.22 1.13999995,12.94 0.719999953,13.01 C0.309999951,13.07 0.0299999501,13.46 0.0999999504,13.87 C0.699999953,17.68 3.05999996,20.88 6.33999998,22.62 C8.00999998,23.51 10.17,24.1300001 12.61,23.98 L8.79999999,20.16 L7.46999998,21.49 L7.46999998,21.49 Z" id="path-1"></path>
    </defs>
    <g id="crop_rotate" stroke="none" stroke-width="1" fill="none" fill-rule="evenodd">
        <mask id="mask-2" fill="white">
            <use xlink:href="#path-1"></use>
        </mask>
        <use id="Combined-Shape" fill="#000000" xlink:href="#path-1"></use>
    </g>
</svg>