<?xml version="1.0" encoding="UTF-8"?>
<svg width="24px" height="24px" viewBox="0 0 24 24" version="1.1" xmlns="http://www.w3.org/2000/svg" xmlns:xlink="http://www.w3.org/1999/xlink">
    <title>crop_3_2</title>
    <defs>
        <path d="M19,3.99999997 L4.99999996,3.99999997 C3.89999997,3.99999997 2.99999996,4.89999997 2.99999996,5.99999997 L2.99999996,18 C2.99999996,19.1 3.89999997,20 4.99999996,20 L19,20 C20.1,20 21,19.1 21,18 L21,5.99999997 C21,4.89999997 20.1,3.99999997 19,3.99999997 Z M18,18 L5.99999997,18 C5.44999997,18 4.99999997,17.55 4.99999997,17 L4.99999997,6.99999998 C4.99999997,6.44999998 5.44999997,5.99999998 5.99999997,5.99999998 L18,5.99999998 C18.55,5.99999998 19,6.44999998 19,6.99999998 L19,17 C19,17.55 18.55,18 18,18 Z" id="path-1"></path>
    </defs>
    <g id="crop_3_2" stroke="none" stroke-width="1" fill="none" fill-rule="evenodd">
        <mask id="mask-2" fill="white">
            <use xlink:href="#path-1"></use>
        </mask>
        <use id="Combined-Shape" fill="#000000" xlink:href="#path-1"></use>
    </g>
</svg>