<?xml version="1.0" encoding="UTF-8"?>
<svg width="24px" height="24px" viewBox="0 0 24 24" version="1.1" xmlns="http://www.w3.org/2000/svg" xmlns:xlink="http://www.w3.org/1999/xlink">
    <title>crop_7_5</title>
    <defs>
        <path d="M19,6.99999998 L4.99999996,6.99999998 C3.89999997,6.99999998 2.99999996,7.89999998 2.99999996,8.99999998 L2.99999996,15 C2.99999996,16.1 3.89999997,17 4.99999996,17 L19,17 C20.1,17 21,16.1 21,15 L21,8.99999998 C21,7.89999998 20.1,6.99999998 19,6.99999998 Z M18,15 L5.99999997,15 C5.44999997,15 4.99999997,14.55 4.99999997,14 L4.99999997,9.99999999 C4.99999997,9.44999999 5.44999997,8.99999999 5.99999997,8.99999999 L18,8.99999999 C18.55,8.99999999 19,9.44999999 19,9.99999999 L19,14 C19,14.55 18.55,15 18,15 Z" id="path-1"></path>
    </defs>
    <g id="crop_7_5" stroke="none" stroke-width="1" fill="none" fill-rule="evenodd">
        <mask id="mask-2" fill="white">
            <use xlink:href="#path-1"></use>
        </mask>
        <use id="Combined-Shape" fill="#000000" xlink:href="#path-1"></use>
    </g>
</svg>