<?xml version="1.0" encoding="UTF-8"?>
<svg width="24px" height="24px" viewBox="0 0 24 24" version="1.1" xmlns="http://www.w3.org/2000/svg" xmlns:xlink="http://www.w3.org/1999/xlink">
    <title>exposure_plus_2</title>
    <defs>
        <path d="M16.05,16.29 L18.91,13.22 C19.29,12.83 19.63,12.43 19.95,12.04 C20.27,11.65 20.54,11.26 20.77,10.87 C21,10.48 21.18,10.09 21.31,9.69999999 C21.44,9.30999999 21.5,8.90999999 21.5,8.51999999 C21.5,7.98999998 21.41,7.49999997 21.23,7.05999998 C21.05,6.61999998 20.79,6.24999998 20.45,5.94999997 C20.11,5.63999997 19.68,5.40999997 19.19,5.23999997 C18.68,5.07999997 18.11,4.99999997 17.47,4.99999997 C16.78,4.99999997 16.16,5.10999997 15.62,5.31999997 C15.08,5.52999997 14.62,5.82999997 14.26,6.19999998 C13.89,6.56999998 13.61,6.99999997 13.42,7.49999997 C13.24,7.96999998 13.15,8.46999999 13.14,8.99999997 L15.28,8.99999997 C15.29,8.68999999 15.33,8.39999999 15.41,8.12999998 C15.5,7.83999998 15.64,7.58999998 15.81,7.37999998 C15.99,7.16999998 16.22,7.00999998 16.49,6.88999998 C16.76,6.76999998 17.09,6.70999998 17.45,6.70999998 C17.76,6.70999998 18.03,6.75999998 18.26,6.85999998 C18.49,6.95999998 18.69,7.10999998 18.85,7.28999998 C19.01,7.46999998 19.13,7.68999998 19.22,7.93999998 C19.3,8.18999998 19.35,8.45999999 19.35,8.74999999 C19.35,8.96999999 19.32,9.17999999 19.27,9.39999999 C19.21,9.61999999 19.12,9.84999999 18.98,10.1 C18.84,10.35 18.66,10.63 18.42,10.93 C18.19,11.23 17.9,11.58 17.54,11.96 L13.37,16.51 L13.37,18 L22,18 L22,16.29 L16.05,16.29 Z M6.99999996,6.99999998 C6.44999998,6.99999998 5.99999996,7.44999998 5.99999996,7.99999998 L5.99999996,11 L2.99999996,11 C2.44999996,11 1.99999996,11.45 1.99999996,12 C1.99999996,12.55 2.44999996,13 2.99999996,13 L5.99999996,13 L5.99999996,16 C5.99999996,16.55 6.44999998,17 6.99999996,17 C7.54999998,17 7.99999996,16.55 7.99999996,16 L7.99999996,13 L11,13 C11.55,13 12,12.55 12,12 C12,11.45 11.55,11 11,11 L7.99999996,11 L7.99999996,7.99999998 C7.99999996,7.44999998 7.54999998,6.99999998 6.99999996,6.99999998 Z" id="path-1"></path>
    </defs>
    <g id="exposure_plus_2" stroke="none" stroke-width="1" fill="none" fill-rule="evenodd">
        <mask id="mask-2" fill="white">
            <use xlink:href="#path-1"></use>
        </mask>
        <use id="Combined-Shape" fill="#000000" xlink:href="#path-1"></use>
    </g>
</svg>