<?xml version="1.0" encoding="UTF-8"?>
<svg width="24px" height="24px" viewBox="0 0 24 24" version="1.1" xmlns="http://www.w3.org/2000/svg" xmlns:xlink="http://www.w3.org/1999/xlink">
    <title>exposure_zero</title>
    <defs>
        <path d="M16.14,12.5 C16.14,13.5 16.04,14.35 15.84,15.05 C15.64,15.75 15.36,16.32 15.01,16.75 C14.65,17.19 14.22,17.5 13.71,17.7 C13.2,17.9 12.64,18 12.01,18 C11.39,18 10.83,17.9 10.32,17.7 C9.80999999,17.5 9.36999999,17.19 9.00999999,16.75 C8.64999999,16.31 8.35999998,15.74 8.15999998,15.05 C7.95999998,14.35 7.85999998,13.5 7.85999998,12.5 L7.85999998,10.46 C7.85999998,9.45999999 7.95999998,8.60999999 8.15999998,7.90999998 C8.35999998,7.20999998 8.63999999,6.64999998 8.99999999,6.21999998 C9.35999998,5.78999997 9.79999999,5.47999997 10.31,5.28999997 C10.81,5.09999997 11.38,4.99999997 12,4.99999997 C12.63,4.99999997 13.19,5.09999997 13.7,5.28999997 C14.21,5.47999997 14.65,5.78999997 15.01,6.21999998 C15.37,6.64999998 15.65,7.20999998 15.85,7.90999998 C16.05,8.60999999 16.15,9.44999999 16.15,10.46 L16.15,12.5 L16.14,12.5 L16.14,12.5 Z M14.03,10.14 C14.03,9.49999999 13.98,8.95999999 13.9,8.51999999 C13.81,8.07999998 13.68,7.72999998 13.5,7.45999998 C13.33,7.18999998 13.11,6.99999998 12.86,6.87999998 C12.61,6.74999998 12.32,6.68999998 12,6.68999998 C11.68,6.68999998 11.39,6.74999998 11.14,6.86999998 C10.89,6.98999998 10.67,7.17999998 10.5,7.44999998 C10.33,7.71999998 10.19,8.06999998 10.1,8.50999999 C10.01,8.94999999 9.96999999,9.48999999 9.96999999,10.13 L9.96999999,12.8 C9.96999999,13.44 10.02,13.98 10.11,14.42 C10.2,14.87 10.34,15.23 10.51,15.51 C10.68,15.79 10.9,15.99 11.15,16.12 C11.4,16.25 11.69,16.31 12.02,16.31 C12.35,16.31 12.64,16.25 12.89,16.12 C13.14,15.99 13.35,15.79 13.52,15.51 C13.69,15.23 13.82,14.87 13.91,14.42 C14,13.97 14.04,13.43 14.04,12.8 L14.04,10.14 L14.03,10.14 L14.03,10.14 Z" id="path-1"></path>
    </defs>
    <g id="exposure_zero" stroke="none" stroke-width="1" fill="none" fill-rule="evenodd">
        <mask id="mask-2" fill="white">
            <use xlink:href="#path-1"></use>
        </mask>
        <use id="Combined-Shape" fill="#000000" xlink:href="#path-1"></use>
    </g>
</svg>