<?xml version="1.0" encoding="UTF-8"?>
<svg width="24px" height="24px" viewBox="0 0 24 24" version="1.1" xmlns="http://www.w3.org/2000/svg" xmlns:xlink="http://www.w3.org/1999/xlink">
    <title>exposure_neg_2</title>
    <defs>
        <path d="M15.05,16.29 L17.91,13.22 C18.29,12.83 18.63,12.43 18.95,12.04 C19.27,11.65 19.54,11.26 19.77,10.87 C20,10.48 20.18,10.09 20.31,9.69999999 C20.44,9.30999999 20.5,8.90999999 20.5,8.51999999 C20.5,7.98999998 20.41,7.49999997 20.23,7.05999998 C20.05,6.61999998 19.79,6.24999998 19.45,5.94999997 C19.11,5.63999997 18.68,5.40999997 18.19,5.23999997 C17.68,5.07999997 17.11,4.99999997 16.47,4.99999997 C15.78,4.99999997 15.16,5.10999997 14.62,5.31999997 C14.08,5.52999997 13.62,5.82999997 13.26,6.19999998 C12.89,6.56999998 12.61,6.99999997 12.42,7.49999997 C12.24,7.96999998 12.15,8.46999999 12.14,8.99999997 L14.28,8.99999997 C14.29,8.68999999 14.33,8.39999999 14.41,8.12999998 C14.5,7.83999998 14.64,7.58999998 14.81,7.37999998 C14.99,7.16999998 15.22,7.00999998 15.49,6.88999998 C15.76,6.76999998 16.09,6.70999998 16.45,6.70999998 C16.76,6.70999998 17.03,6.75999998 17.26,6.85999998 C17.49,6.95999998 17.69,7.10999998 17.85,7.28999998 C18.01,7.46999998 18.13,7.68999998 18.22,7.93999998 C18.3,8.18999998 18.35,8.45999999 18.35,8.74999999 C18.35,8.96999999 18.32,9.17999999 18.27,9.39999999 C18.21,9.61999999 18.12,9.84999999 17.98,10.1 C17.84,10.35 17.66,10.63 17.42,10.93 C17.19,11.23 16.9,11.58 16.54,11.96 L12.37,16.51 L12.37,18 L21,18 L21,16.29 L15.05,16.29 Z M1.99999996,12 C1.99999996,12.55 2.44999996,13 2.99999996,13 L8.99999996,13 C9.54999999,13 9.99999996,12.55 9.99999996,12 C9.99999996,11.45 9.54999999,11 8.99999996,11 L2.99999996,11 C2.44999996,11 1.99999996,11.45 1.99999996,12 Z" id="path-1"></path>
    </defs>
    <g id="exposure_neg_2" stroke="none" stroke-width="1" fill="none" fill-rule="evenodd">
        <mask id="mask-2" fill="white">
            <use xlink:href="#path-1"></use>
        </mask>
        <use id="Combined-Shape" fill="#000000" xlink:href="#path-1"></use>
    </g>
</svg>