<?xml version="1.0" encoding="UTF-8"?>
<svg width="24px" height="24px" viewBox="0 0 24 24" version="1.1" xmlns="http://www.w3.org/2000/svg" xmlns:xlink="http://www.w3.org/1999/xlink">
    <title>filter_9_plus</title>
    <defs>
        <path d="M1.99999995,4.99999997 C1.44999996,4.99999997 0.999999954,5.44999997 0.999999954,5.99999997 L0.999999954,21 C0.999999954,22.1 1.89999996,23 2.99999995,23 L18,23 C18.55,23 19,22.55 19,22 C19,21.45 18.55,21 18,21 L3.99999995,21 C3.44999996,21 2.99999995,20.55 2.99999995,20 L2.99999995,5.99999997 C2.99999995,5.44999997 2.54999996,4.99999997 1.99999995,4.99999997 Z M14,12 L14,7.99999998 C14,6.89999998 13.1,5.99999998 12,5.99999998 L11,5.99999998 C9.89999999,5.99999998 8.99999999,6.89999998 8.99999999,7.99999998 L8.99999999,8.99999998 C8.99999999,10.1 9.89999999,11 11,11 L12,11 L12,12 L9.99999999,12 C9.44999999,12 8.99999999,12.45 8.99999999,13 C8.99999999,13.55 9.44999999,14 9.99999999,14 L12,14 C13.1,14 14,13.1 14,12 Z M11,8.99999998 L11,7.99999998 L12,7.99999998 L12,8.99999998 L11,8.99999998 Z M21,0.999999954 L6.99999997,0.999999954 C5.89999997,0.999999954 4.99999997,1.89999996 4.99999997,2.99999995 L4.99999997,17 C4.99999997,18.1 5.89999997,19 6.99999997,19 L21,19 C22.1,19 23,18.1 23,17 L23,2.99999995 C23,1.89999996 22.1,0.999999954 21,0.999999954 Z M20,17 L7.99999998,17 C7.44999998,17 6.99999998,16.55 6.99999998,16 L6.99999998,3.99999996 C6.99999998,3.44999996 7.44999998,2.99999996 7.99999998,2.99999996 L20,2.99999996 C20.55,2.99999996 21,3.44999996 21,3.99999996 L21,16 C21,16.55 20.55,17 20,17 Z M21,9.99999998 C21,9.44999999 20.55,8.99999998 20,8.99999998 L19,8.99999998 L19,7.99999998 C19,7.44999998 18.55,6.99999998 18,6.99999998 C17.45,6.99999998 17,7.44999998 17,7.99999998 L17,8.99999998 L16,8.99999998 C15.45,8.99999998 15,9.44999999 15,9.99999998 C15,10.55 15.45,11 16,11 L17,11 L17,12 C17,12.55 17.45,13 18,13 C18.55,13 19,12.55 19,12 L19,11 L20,11 C20.55,11 21,10.55 21,9.99999998 Z" id="path-1"></path>
    </defs>
    <g id="filter_9_plus" stroke="none" stroke-width="1" fill="none" fill-rule="evenodd">
        <mask id="mask-2" fill="white">
            <use xlink:href="#path-1"></use>
        </mask>
        <use id="Combined-Shape" fill="#000000" xlink:href="#path-1"></use>
    </g>
</svg>