<?xml version="1.0" encoding="UTF-8"?>
<svg width="24px" height="24px" viewBox="0 0 24 24" version="1.1" xmlns="http://www.w3.org/2000/svg" xmlns:xlink="http://www.w3.org/1999/xlink">
    <title>filter_vintage</title>
    <defs>
        <path d="M18.7,12.4 C18.42,12.24 18.13,12.11 17.84,12 C18.13,11.89 18.42,11.76 18.7,11.6 C20.62,10.49 21.69,8.47999999 21.7,6.40999998 C19.91,5.37999997 17.63,5.29999997 15.7,6.40999998 C15.42,6.56999998 15.16,6.75999998 14.92,6.94999998 C14.97,6.63999998 15,6.31999998 15,5.99999998 C15,3.77999997 13.79,1.84999996 12,0.809999953 C10.21,1.84999996 8.99999999,3.77999997 8.99999999,5.99999998 C8.99999999,6.31999998 9.02999999,6.63999998 9.07999999,6.94999998 C8.83999999,6.74999998 8.57999999,6.55999998 8.29999996,6.39999998 C6.37999998,5.28999997 4.09999997,5.36999997 2.29999996,6.39999998 C2.29999996,8.46999999 3.36999996,10.48 5.29999996,11.59 C5.57999997,11.75 5.86999997,11.88 6.15999998,11.99 C5.86999997,12.1 5.57999997,12.23 5.29999996,12.39 C3.37999996,13.5 2.30999996,15.51 2.29999996,17.58 C4.08999997,18.61 6.36999998,18.69 8.29999996,17.58 C8.57999999,17.42 8.83999999,17.23 9.07999999,17.04 C9.02999999,17.36 8.99999999,17.68 8.99999999,18 C8.99999999,20.22 10.21,22.15 12,23.19 C13.79,22.15 15,20.22 15,18 C15,17.68 14.97,17.36 14.92,17.05 C15.16,17.25 15.42,17.43 15.7,17.59 C17.62,18.7 19.9,18.62 21.7,17.59 C21.69,15.52 20.62,13.51 18.7,12.4 Z M12,16 C9.78999999,16 7.99999998,14.21 7.99999998,12 C7.99999998,9.78999999 9.78999999,7.99999998 12,7.99999998 C14.21,7.99999998 16,9.78999999 16,12 C16,14.21 14.21,16 12,16 Z" id="path-1"></path>
    </defs>
    <g id="filter_vintage" stroke="none" stroke-width="1" fill="none" fill-rule="evenodd">
        <mask id="mask-2" fill="white">
            <use xlink:href="#path-1"></use>
        </mask>
        <use id="Combined-Shape" fill="#000000" xlink:href="#path-1"></use>
    </g>
</svg>