<?xml version="1.0" encoding="UTF-8"?>
<svg width="24px" height="24px" viewBox="0 0 24 24" version="1.1" xmlns="http://www.w3.org/2000/svg" xmlns:xlink="http://www.w3.org/1999/xlink">
    <title>flare</title>
    <defs>
        <path d="M5.99999995,11 L1.99999995,11 C1.44999996,11 0.999999954,11.45 0.999999954,12 C0.999999954,12.55 1.44999996,13 1.99999995,13 L5.99999995,13 C6.54999998,13 6.99999995,12.55 6.99999995,12 C6.99999995,11.45 6.54999998,11 5.99999995,11 Z M8.46999999,7.05999998 L7.74999998,6.33999998 C7.35999998,5.94999997 6.72999998,5.94999997 6.33999998,6.33999998 C5.94999997,6.72999998 5.94999997,7.35999998 6.33999998,7.74999998 L7.04999998,8.45999999 C7.43999998,8.84999999 8.06999998,8.84999999 8.45999999,8.45999999 C8.84999999,8.07999998 8.84999999,7.43999998 8.46999999,7.05999998 Z M12,0.999999954 C11.44,0.999999954 11,1.44999996 11,1.99999995 L11,5.99999995 C11,6.54999998 11.45,6.99999995 12,6.99999995 C12.55,6.99999995 13,6.54999998 13,5.99999995 L13,1.99999995 C13,1.44999996 12.55,0.999999954 12,0.999999954 Z M17.66,6.34999998 C17.27,5.95999997 16.64,5.95999997 16.25,6.34999998 L15.54,7.05999998 C15.15,7.44999998 15.15,8.07999998 15.54,8.46999999 C15.93,8.85999999 16.56,8.85999999 16.95,8.46999999 L17.66,7.75999998 C18.04,7.36999998 18.04,6.72999998 17.66,6.34999998 L17.66,6.34999998 Z M17,12 C17,12.56 17.45,13 18,13 L22,13 C22.55,13 23,12.55 23,12 C23,11.45 22.55,11 22,11 L18,11 C17.45,11 17,11.45 17,12 Z M12,8.99999999 C10.34,8.99999999 8.99999999,10.34 8.99999999,12 C8.99999999,13.66 10.34,15 12,15 C13.66,15 15,13.66 15,12 C15,10.34 13.66,8.99999999 12,8.99999999 Z M15.53,16.94 L16.24,17.65 C16.63,18.04 17.26,18.04 17.65,17.65 C18.04,17.26 18.04,16.63 17.65,16.24 L16.94,15.53 C16.55,15.14 15.92,15.14 15.53,15.53 C15.15,15.92 15.15,16.56 15.53,16.94 L15.53,16.94 Z M6.33999998,17.65 C6.72999998,18.04 7.35999998,18.04 7.74999998,17.65 L8.45999999,16.94 C8.84999999,16.55 8.84999999,15.92 8.45999999,15.53 C8.06999998,15.14 7.43999998,15.14 7.04999998,15.53 L6.33999998,16.24 C5.95999997,16.63 5.95999997,17.27 6.33999998,17.65 L6.33999998,17.65 Z M12,23 C12.56,23 13,22.55 13,22 L13,18 C13,17.45 12.55,17 12,17 C11.45,17 11,17.45 11,18 L11,22 C11,22.55 11.45,23 12,23 Z" id="path-1"></path>
    </defs>
    <g id="flare" stroke="none" stroke-width="1" fill="none" fill-rule="evenodd">
        <mask id="mask-2" fill="white">
            <use xlink:href="#path-1"></use>
        </mask>
        <use id="Combined-Shape" fill="#000000" xlink:href="#path-1"></use>
    </g>
</svg>