<?xml version="1.0" encoding="UTF-8"?>
<svg width="24px" height="24px" viewBox="0 0 24 24" version="1.1" xmlns="http://www.w3.org/2000/svg" xmlns:xlink="http://www.w3.org/1999/xlink">
    <title>flip</title>
    <defs>
        <path d="M15,21 L17,21 L17,19 L15,19 L15,21 Z M19,8.99999998 L21,8.99999998 L21,6.99999998 L19,6.99999998 L19,8.99999998 Z M2.99999996,4.99999996 L2.99999996,19 C2.99999996,20.1 3.89999997,21 4.99999996,21 L7.99999996,21 C8.54999999,21 8.99999996,20.55 8.99999996,20 C8.99999996,19.45 8.54999999,19 7.99999996,19 L5.99999996,19 C5.44999997,19 4.99999996,18.55 4.99999996,18 L4.99999996,5.99999996 C4.99999996,5.44999997 5.44999997,4.99999996 5.99999996,4.99999996 L7.99999996,4.99999996 C8.54999999,4.99999996 8.99999996,4.54999997 8.99999996,3.99999996 C8.99999996,3.44999996 8.54999999,2.99999996 7.99999996,2.99999996 L4.99999996,2.99999996 C3.89999997,2.99999996 2.99999996,3.89999997 2.99999996,4.99999996 Z M19,2.99999996 L19,4.99999996 L21,4.99999996 C21,3.89999997 20.1,2.99999996 19,2.99999996 Z M12,23 C12.55,23 13,22.55 13,22 L13,1.99999995 C13,1.44999996 12.55,0.999999954 12,0.999999954 C11.45,0.999999954 11,1.44999996 11,1.99999995 L11,22 C11,22.55 11.45,23 12,23 Z M19,17 L21,17 L21,15 L19,15 L19,17 Z M15,4.99999996 L17,4.99999996 L17,2.99999996 L15,2.99999996 L15,4.99999996 Z M19,13 L21,13 L21,11 L19,11 L19,13 Z M19,21 C20.1,21 21,20.1 21,19 L19,19 L19,21 Z" id="path-1"></path>
    </defs>
    <g id="flip" stroke="none" stroke-width="1" fill="none" fill-rule="evenodd">
        <mask id="mask-2" fill="white">
            <use xlink:href="#path-1"></use>
        </mask>
        <use id="Combined-Shape" fill="#000000" xlink:href="#path-1"></use>
    </g>
</svg>