<?xml version="1.0" encoding="UTF-8"?>
<svg width="24px" height="24px" viewBox="0 0 24 24" version="1.1" xmlns="http://www.w3.org/2000/svg" xmlns:xlink="http://www.w3.org/1999/xlink">
    <title>flip_camera_android</title>
    <defs>
        <path d="M21,14 C21.55,14 22,14.45 22,15 L22,15 L22,19 C22,19.55 21.55,20 21,20 L21,20 L20.8838011,19.9932398 C20.3880102,19.9352041 20,19.5107143 20,19 L20,19 L20,17.99 C18.18,20.42 15.27,22 12,22 C7.63999998,22 3.92999997,19.21 2.55999996,15.31 C2.33999996,14.67 2.83999996,14 3.51999996,14 L3.51999996,14 L3.64216997,14.00739 C4.00549997,14.0514 4.33399997,14.289 4.45999997,14.64 C5.54999997,17.76 8.50999999,20 12,20 C14.95,20 17.53,18.39 18.91,16 L18.91,16 L17,16 C16.45,16 16,15.55 16,15 L16,15 L16.0067602,14.883801 C16.0647959,14.3880102 16.4892857,14 17,14 L17,14 Z M12,8.99999999 C13.66,8.99999999 15,10.34 15,12 C15,13.66 13.66,15 12,15 C10.34,15 8.99999999,13.66 8.99999999,12 C8.99999999,10.34 10.34,8.99999999 12,8.99999999 Z M12,1.99999996 C16.36,1.99999996 20.07,4.78999997 21.44,8.68999999 C21.66,9.32999999 21.16,9.99999996 20.48,9.99999996 L20.48,9.99999996 L20.35783,9.99260996 C19.9945,9.94859996 19.666,9.71099999 19.54,9.35999999 C18.45,6.23999998 15.49,3.99999996 12,3.99999996 C9.04999999,3.99999996 6.46999998,5.60999997 5.08999997,7.99999996 L5.08999997,7.99999996 L6.99999996,7.99999996 C7.54999998,7.99999996 7.99999996,8.44999999 7.99999996,8.99999996 L7.99999996,8.99999996 L7.99323975,9.11619894 C7.93520404,9.61198978 7.51071427,9.99999996 6.99999996,9.99999996 L6.99999996,9.99999996 L2.99999996,9.99999996 C2.44999996,9.99999996 1.99999996,9.54999999 1.99999996,8.99999996 L1.99999996,8.99999996 L1.99999996,4.99999996 C1.99999996,4.44999997 2.44999996,3.99999996 2.99999996,3.99999996 L2.99999996,3.99999996 L3.11619894,4.00676016 C3.61198976,4.06479588 3.99999996,4.48928568 3.99999996,4.99999996 L3.99999996,4.99999996 L3.99999996,6.00999998 C5.81999997,3.57999996 8.72999999,1.99999996 12,1.99999996 Z" id="path-1"></path>
    </defs>
    <g id="flip_camera_android" stroke="none" stroke-width="1" fill="none" fill-rule="evenodd">
        <mask id="mask-2" fill="white">
            <use xlink:href="#path-1"></use>
        </mask>
        <use id="Combined-Shape" fill="#000000" xlink:href="#path-1"></use>
    </g>
</svg>