<?xml version="1.0" encoding="UTF-8"?>
<svg width="24px" height="24px" viewBox="0 0 24 24" version="1.1" xmlns="http://www.w3.org/2000/svg" xmlns:xlink="http://www.w3.org/1999/xlink">
    <title>grain</title>
    <defs>
        <path d="M9.99999998,12 C8.89999999,12 7.99999998,12.9 7.99999998,14 C7.99999998,15.1 8.89999999,16 9.99999998,16 C11.1,16 12,15.1 12,14 C12,12.9 11.1,12 9.99999998,12 Z M5.99999997,7.99999998 C4.89999997,7.99999998 3.99999997,8.89999999 3.99999997,9.99999998 C3.99999997,11.1 4.89999997,12 5.99999997,12 C7.09999998,12 7.99999997,11.1 7.99999997,9.99999998 C7.99999997,8.89999999 7.09999998,7.99999998 5.99999997,7.99999998 Z M5.99999997,16 C4.89999997,16 3.99999997,16.9 3.99999997,18 C3.99999997,19.1 4.89999997,20 5.99999997,20 C7.09999998,20 7.99999997,19.1 7.99999997,18 C7.99999997,16.9 7.09999998,16 5.99999997,16 Z M18,7.99999997 C19.1,7.99999997 20,7.09999998 20,5.99999997 C20,4.89999997 19.1,3.99999997 18,3.99999997 C16.9,3.99999997 16,4.89999997 16,5.99999997 C16,7.09999998 16.9,7.99999997 18,7.99999997 Z M14,16 C12.9,16 12,16.9 12,18 C12,19.1 12.9,20 14,20 C15.1,20 16,19.1 16,18 C16,16.9 15.1,16 14,16 Z M18,12 C16.9,12 16,12.9 16,14 C16,15.1 16.9,16 18,16 C19.1,16 20,15.1 20,14 C20,12.9 19.1,12 18,12 Z M14,7.99999998 C12.9,7.99999998 12,8.89999999 12,9.99999998 C12,11.1 12.9,12 14,12 C15.1,12 16,11.1 16,9.99999998 C16,8.89999999 15.1,7.99999998 14,7.99999998 Z M9.99999998,3.99999997 C8.89999999,3.99999997 7.99999998,4.89999997 7.99999998,5.99999997 C7.99999998,7.09999998 8.89999999,7.99999997 9.99999998,7.99999997 C11.1,7.99999997 12,7.09999998 12,5.99999997 C12,4.89999997 11.1,3.99999997 9.99999998,3.99999997 Z" id="path-1"></path>
    </defs>
    <g id="grain" stroke="none" stroke-width="1" fill="none" fill-rule="evenodd">
        <mask id="mask-2" fill="white">
            <use xlink:href="#path-1"></use>
        </mask>
        <use id="Combined-Shape" fill="#000000" xlink:href="#path-1"></use>
    </g>
</svg>