<?xml version="1.0" encoding="UTF-8"?>
<svg width="24px" height="24px" viewBox="0 0 24 24" version="1.1" xmlns="http://www.w3.org/2000/svg" xmlns:xlink="http://www.w3.org/1999/xlink">
    <title>grid_off</title>
    <defs>
        <path d="M7.99999998,3.99999996 L7.99999998,4.88999997 L9.99999999,6.88999998 L9.99999999,3.99999996 L14,3.99999996 L14,7.99999996 L11.11,7.99999996 L13.11,9.99999996 L14,9.99999996 L14,10.89 L16,12.89 L16,9.99999996 L20,9.99999996 L20,14 L17.11,14 L19.11,16 L20,16 L20,16.89 L22,18.89 L22,3.99999996 C22,2.89999996 21.1,1.99999996 20,1.99999996 L5.10999997,1.99999996 L7.10999997,3.99999996 L7.99999998,3.99999996 Z M16,3.99999997 L19,3.99999997 C19.55,3.99999997 20,4.44999997 20,4.99999997 L20,7.99999997 L16,7.99999997 L16,3.99999997 Z M22.16,21.88 L2.11999996,1.83999996 C1.72999996,1.44999996 1.09999995,1.44999996 0.709999953,1.83999996 C0.319999951,2.22999996 0.319999951,2.85999996 0.709999953,3.24999996 L1.99999996,4.54999997 L1.99999996,20 C1.99999996,21.1 2.89999996,22 3.99999997,22 L19.45,22 L20.75,23.3 C21.14,23.69 21.77,23.69 22.16,23.3 C22.55,22.91 22.55,22.27 22.16,21.88 Z M9.99999999,12.55 L11.45,14 L9.99999999,14 L9.99999999,12.55 Z M3.99999997,6.54999998 L5.44999997,7.99999998 L3.99999997,7.99999998 L3.99999997,6.54999998 L3.99999997,6.54999998 Z M7.99999997,20 L4.99999997,20 C4.44999997,20 3.99999997,19.55 3.99999997,19 L3.99999997,16 L7.99999997,16 L7.99999997,20 Z M7.99999997,14 L3.99999997,14 L3.99999997,9.99999999 L7.44999998,9.99999999 L7.99999997,10.55 L7.99999997,14 Z M14,20 L9.99999999,20 L9.99999999,16 L13.45,16 L14,16.55 L14,20 Z M16,20 L16,18.55 L17.45,20 L16,20 Z" id="path-1"></path>
    </defs>
    <g id="grid_off" stroke="none" stroke-width="1" fill="none" fill-rule="evenodd">
        <mask id="mask-2" fill="white">
            <use xlink:href="#path-1"></use>
        </mask>
        <use id="Combined-Shape" fill="#000000" xlink:href="#path-1"></use>
    </g>
</svg>