<?xml version="1.0" encoding="UTF-8"?>
<svg width="24px" height="24px" viewBox="0 0 24 24" version="1.1" xmlns="http://www.w3.org/2000/svg" xmlns:xlink="http://www.w3.org/1999/xlink">
    <title>hdr_off</title>
    <defs>
        <path d="M17.5,14.25 L17.5,13 L18.6,13 L19.32,14.59 C19.43,14.84 19.68,15 19.95,15 C20.45,15 20.78,14.49 20.59,14.04 L20.1,12.9 C20.6,12.6 21,12.1 21,11.5 L21,10.5 C21,9.66999999 20.33,8.99999999 19.5,8.99999999 L17,8.99999999 C16.45,8.99999999 16,9.44999999 16,9.99999999 L16,13.9 L17.04,14.94 C17.31,14.83 17.5,14.56 17.5,14.25 L17.5,14.25 Z M17.5,10.5 L19.5,10.5 L19.5,11.5 L17.5,11.5 L17.5,10.5 Z M13,10.5 L13,10.9 L14.5,12.4 L14.5,10.5 C14.5,9.67999999 13.82,8.99999999 13,8.99999999 L11.1,8.99999999 L12.6,10.5 L13,10.5 Z M21.03,21.03 L3.02999996,3.02999996 C2.73999996,2.73999996 2.26999996,2.73999996 1.97999996,3.02999996 C1.68999996,3.31999996 1.68999996,3.78999997 1.97999996,4.07999997 L6.95999998,9.05999999 C6.68999998,9.16999999 6.49999998,9.43999999 6.49999998,9.74999999 L6.49999998,11 L4.49999997,11 L4.49999997,9.74999999 C4.49999997,9.33999999 4.15999997,8.99999999 3.74999997,8.99999999 C3.33999996,8.99999999 2.99999996,9.33999999 2.99999996,9.74999999 L2.99999996,14.25 C2.99999996,14.66 3.33999996,15 3.74999997,15 C4.15999997,15 4.49999997,14.66 4.49999997,14.25 L4.49999997,12.5 L6.49999998,12.5 L6.49999998,14.25 C6.49999998,14.66 6.83999998,15 7.24999998,15 C7.65999998,15 7.99999998,14.66 7.99999998,14.25 L7.99999998,10.1 L9.49999999,11.6 L9.49999999,14.5 C9.49999999,14.78 9.71999999,15 9.99999999,15 L12.5,15 C12.62,15 12.74,14.99 12.86,14.96 L19.97,22.07 C20.26,22.36 20.73,22.36 21.02,22.07 C21.31,21.79 21.31,21.32 21.03,21.03 Z" id="path-1"></path>
    </defs>
    <g id="hdr_off" stroke="none" stroke-width="1" fill="none" fill-rule="evenodd">
        <mask id="mask-2" fill="white">
            <use xlink:href="#path-1"></use>
        </mask>
        <use id="Combined-Shape" fill="#000000" xlink:href="#path-1"></use>
    </g>
</svg>