<?xml version="1.0" encoding="UTF-8"?>
<svg width="24px" height="24px" viewBox="0 0 24 24" version="1.1" xmlns="http://www.w3.org/2000/svg" xmlns:xlink="http://www.w3.org/1999/xlink">
    <title>healing</title>
    <defs>
        <path d="M17.73,12.02 L21.71,8.03999998 C22.1,7.64999998 22.1,7.01999998 21.71,6.62999998 L17.37,2.28999996 C16.98,1.89999996 16.35,1.89999996 15.96,2.28999996 L11.98,6.26999998 L7.99999998,2.28999996 C7.79999998,2.09999996 7.54999998,1.99999996 7.28999998,1.99999996 C7.03999998,1.99999996 6.77999998,2.09999996 6.58999998,2.28999996 L2.24999996,6.62999998 C1.85999996,7.01999998 1.85999996,7.64999998 2.24999996,8.03999998 L6.22999998,12.02 L2.24999996,16 C1.85999996,16.39 1.85999996,17.02 2.24999996,17.41 L6.58999998,21.75 C6.97999998,22.14 7.60999998,22.14 7.99999998,21.75 L11.98,17.77 L15.96,21.75 C16.16,21.95 16.41,22.04 16.67,22.04 C16.93,22.04 17.18,21.94 17.38,21.75 L21.72,17.41 C22.11,17.02 22.11,16.39 21.72,16 L17.73,12.02 Z M12,8.99999999 C12.55,8.99999999 13,9.44999999 13,9.99999999 C13,10.55 12.55,11 12,11 C11.45,11 11,10.55 11,9.99999999 C11,9.44999999 11.45,8.99999999 12,8.99999999 Z M7.28999998,10.96 L3.65999997,7.33999998 L7.28999998,3.70999997 L10.91,7.32999998 L7.28999998,10.96 Z M9.99999999,13 C9.44999999,13 8.99999999,12.55 8.99999999,12 C8.99999999,11.45 9.44999999,11 9.99999999,11 C10.55,11 11,11.45 11,12 C11,12.55 10.55,13 9.99999999,13 Z M12,15 C11.45,15 11,14.55 11,14 C11,13.45 11.45,13 12,13 C12.55,13 13,13.45 13,14 C13,14.55 12.55,15 12,15 Z M14,11 C14.55,11 15,11.45 15,12 C15,12.55 14.55,13 14,13 C13.45,13 13,12.55 13,12 C13,11.45 13.45,11 14,11 Z M16.66,20.34 L13.03,16.72 L16.66,13.09 L20.28,16.71 L16.66,20.34 Z" id="path-1"></path>
    </defs>
    <g id="healing" stroke="none" stroke-width="1" fill="none" fill-rule="evenodd">
        <mask id="mask-2" fill="white">
            <use xlink:href="#path-1"></use>
        </mask>
        <use id="Combined-Shape" fill="#000000" xlink:href="#path-1"></use>
    </g>
</svg>