<?xml version="1.0" encoding="UTF-8"?>
<svg width="24px" height="24px" viewBox="0 0 24 24" version="1.1" xmlns="http://www.w3.org/2000/svg" xmlns:xlink="http://www.w3.org/1999/xlink">
    <title>image_search</title>
    <defs>
        <path d="M18,15 L18,19 C18,19.55 17.55,20 17,20 L4.99999996,20 C4.44999997,20 3.99999996,19.55 3.99999996,19 L3.99999996,6.99999997 C3.99999996,6.44999998 4.44999997,5.99999997 4.99999996,5.99999997 L8.01999998,5.99999997 C8.56999999,5.99999997 9.01999999,5.54999997 9.01999999,4.99999997 C9.01999999,4.44999997 8.56999999,3.99999997 8.01999998,3.99999997 L3.99999996,3.99999997 C2.89999996,3.99999997 1.99999996,4.89999997 1.99999996,5.99999997 L1.99999996,20 C1.99999996,21.1 2.89999996,22 3.99999996,22 L18,22 C19.1,22 20,21.1 20,20 L20,15 C20,14.45 19.55,14 19,14 C18.45,14 18,14.45 18,15 Z M15.5,18 L6.51999998,18 C6.09999998,18 5.86999997,17.52 6.12999998,17.19 L7.86999998,14.96 C8.06999998,14.71 8.44999999,14.7 8.64999999,14.95 L10.21,16.83 L12.56,13.81 C12.76,13.55 13.16,13.55 13.35,13.82 L15.9,17.21 C16.15,17.53 15.91,18 15.5,18 L15.5,18 Z M19.3,8.88999999 C19.78,8.11999998 20.05,7.21999998 19.99,6.22999998 C19.86,4.07999997 18.15,2.25999996 16.02,2.02999996 C13.3,1.72999996 11,3.83999997 11,6.49999998 C11,8.98999999 13.01,11 15.49,11 C16.37,11 17.19,10.74 17.88,10.3 L20.29,12.71 C20.68,13.1 21.32,13.1 21.71,12.71 C22.1,12.32 22.1,11.68 21.71,11.29 L19.3,8.88999999 Z M15.5,8.99999997 C14.12,8.99999997 13,7.87999998 13,6.49999997 C13,5.11999997 14.12,3.99999997 15.5,3.99999997 C16.88,3.99999997 18,5.11999997 18,6.49999997 C18,7.87999998 16.88,8.99999997 15.5,8.99999997 Z" id="path-1"></path>
    </defs>
    <g id="image_search" stroke="none" stroke-width="1" fill="none" fill-rule="evenodd">
        <mask id="mask-2" fill="white">
            <use xlink:href="#path-1"></use>
        </mask>
        <use id="Combined-Shape" fill="#000000" xlink:href="#path-1"></use>
    </g>
</svg>