<?xml version="1.0" encoding="UTF-8"?>
<svg width="24px" height="24px" viewBox="0 0 24 24" version="1.1" xmlns="http://www.w3.org/2000/svg" xmlns:xlink="http://www.w3.org/1999/xlink">
    <title>iso</title>
    <defs>
        <path d="M19,2.99999996 L4.99999996,2.99999996 C3.89999997,2.99999996 2.99999996,3.89999997 2.99999996,4.99999996 L2.99999996,19 C2.99999996,20.1 3.89999997,21 4.99999996,21 L19,21 C20.1,21 21,20.1 21,19 L21,4.99999996 C21,3.89999997 20.1,2.99999996 19,2.99999996 Z M6.24999998,7.49999997 L7.49999997,7.49999997 L7.49999997,6.24999998 C7.49999997,5.83999997 7.83999998,5.49999997 8.24999998,5.49999997 C8.65999999,5.49999997 8.99999997,5.83999997 8.99999997,6.24999998 L8.99999997,7.49999997 L10.25,7.49999997 C10.66,7.49999997 11,7.83999998 11,8.24999998 C11,8.65999999 10.66,8.99999997 10.25,8.99999997 L8.99999997,8.99999997 L8.99999997,10.25 C8.99999997,10.66 8.65999999,11 8.24999998,11 C7.83999998,11 7.49999997,10.66 7.49999997,10.25 L7.49999997,8.99999997 L6.24999998,8.99999997 C5.83999997,8.99999997 5.49999997,8.65999999 5.49999997,8.24999998 C5.49999997,7.83999998 5.83999997,7.49999997 6.24999998,7.49999997 Z M18,19 L4.99999997,19 L19,4.99999997 L19,18 C19,18.55 18.55,19 18,19 Z M17,16.25 C17,15.84 16.66,15.5 16.25,15.5 L12.75,15.5 C12.34,15.5 12,15.84 12,16.25 C12,16.66 12.34,17 12.75,17 L16.25,17 C16.66,17 17,16.66 17,16.25 Z" id="path-1"></path>
    </defs>
    <g id="iso" stroke="none" stroke-width="1" fill="none" fill-rule="evenodd">
        <mask id="mask-2" fill="white">
            <use xlink:href="#path-1"></use>
        </mask>
        <use id="Combined-Shape" fill="#000000" xlink:href="#path-1"></use>
    </g>
</svg>