<?xml version="1.0" encoding="UTF-8"?>
<svg width="24px" height="24px" viewBox="0 0 24 24" version="1.1" xmlns="http://www.w3.org/2000/svg" xmlns:xlink="http://www.w3.org/1999/xlink">
    <title>leak_remove</title>
    <defs>
        <path d="M20.12,12.04 C20.62,11.99 21,11.56 21,11.05 C21,10.46 20.49,9.98999999 19.9,10.05 C18.4,10.2 17,10.66 15.74,11.35 L17.22,12.83 C18.12,12.42 19.09,12.14 20.12,12.04 L20.12,12.04 Z M21,15.09 C21,14.48 20.46,14 19.86,14.09 C19.48,14.15 19.11,14.25 18.75,14.37 L20.37,15.99 C20.74,15.84 21,15.5 21,15.09 L21,15.09 Z M13.97,4.13999997 C14.03,3.54999996 13.57,3.02999996 12.97,3.02999996 C12.47,3.02999996 12.03,3.39999996 11.98,3.89999997 C11.88,4.92999997 11.6,5.90999997 11.19,6.80999998 L12.67,8.28999998 C13.36,7.02999996 13.82,5.62999997 13.97,4.13999997 L13.97,4.13999997 Z M9.92999999,4.15999997 C10.03,3.55999996 9.53999999,3.01999996 8.92999999,3.01999996 C8.51999999,3.01999996 8.17999998,3.27999996 8.02999998,3.63999997 L9.64999999,5.25999997 C9.77999999,4.90999997 9.86999999,4.53999997 9.92999999,4.15999997 L9.92999999,4.15999997 Z M20.44,18.88 L5.11999997,3.55999996 C4.72999997,3.16999996 4.09999997,3.16999996 3.70999997,3.55999996 C3.31999996,3.94999997 3.31999996,4.57999997 3.70999997,4.96999997 L5.85999997,7.11999998 C5.26999997,7.52999998 4.59999997,7.81999998 3.86999997,7.93999998 C3.38999996,8.03999998 3.02999996,8.43999999 3.02999996,8.93999999 C3.02999996,9.54999999 3.56999996,10.03 4.16999997,9.93999999 C5.33999997,9.74999999 6.39999998,9.25999999 7.29999998,8.56999999 L8.72999999,9.99999999 C7.38999998,11.1 5.72999997,11.82 3.91999997,11.99 C3.41999996,12.04 3.03999996,12.47 3.03999996,12.98 C3.03999996,13.57 3.54999996,14.04 4.13999997,13.98 C6.41999998,13.75 8.49999999,12.83 10.15,11.42 L12.63,13.9 C11.23,15.55 10.3,17.62 10.07,19.9 C10.01,20.49 10.47,21.01 11.07,21.01 C11.57,21.01 12.01,20.64 12.06,20.14 C12.24,18.32 12.96,16.66 14.05,15.32 L15.48,16.75 C14.79,17.65 14.3,18.71 14.11,19.88 C14.01,20.48 14.5,21.02 15.11,21.02 C15.6,21.02 16.01,20.66 16.09,20.17 C16.21,19.44 16.51,18.77 16.91,18.18 L19.04,20.31 C19.43,20.7 20.06,20.7 20.45,20.31 C20.83,19.9 20.83,19.27 20.44,18.88 L20.44,18.88 Z" id="path-1"></path>
    </defs>
    <g id="leak_remove" stroke="none" stroke-width="1" fill="none" fill-rule="evenodd">
        <mask id="mask-2" fill="white">
            <use xlink:href="#path-1"></use>
        </mask>
        <use id="Combined-Shape" fill="#000000" xlink:href="#path-1"></use>
    </g>
</svg>