<?xml version="1.0" encoding="UTF-8"?>
<svg width="24px" height="24px" viewBox="0 0 24 24" version="1.1" xmlns="http://www.w3.org/2000/svg" xmlns:xlink="http://www.w3.org/1999/xlink">
    <title>leak_add</title>
    <defs>
        <path d="M11.05,21 C11.55,21 11.99,20.63 12.04,20.13 C12.45,15.86 15.85,12.46 20.12,12.05 C20.62,12 21,11.57 21,11.06 C21,10.47 20.49,9.99999999 19.9,10.06 C14.71,10.58 10.58,14.71 10.06,19.89 C9.99999999,20.48 10.46,21 11.05,21 L11.05,21 Z M18,21 L21,21 L21,18 C19.34,18 18,19.34 18,21 Z M15.09,21 C15.58,21 15.99,20.64 16.07,20.15 C16.43,18.07 18.07,16.43 20.15,16.07 C20.64,15.99 21,15.58 21,15.09 C21,14.48 20.46,14 19.86,14.09 C16.9,14.57 14.57,16.9 14.09,19.86 C13.99,20.46 14.48,21 15.09,21 Z M12.97,3.01999996 C12.47,3.01999996 12.03,3.38999996 11.98,3.88999997 C11.57,8.15999998 8.16999998,11.56 3.89999997,11.97 C3.39999996,12.02 3.01999996,12.45 3.01999996,12.96 C3.01999996,13.55 3.52999996,14.02 4.11999997,13.96 C9.30999999,13.44 13.44,9.30999999 13.96,4.12999997 C14.03,3.54999996 13.57,3.01999996 12.97,3.01999996 Z M6.02999996,3.01999996 L3.02999996,3.01999996 L3.02999996,6.01999996 C4.68999997,6.01999996 6.02999996,4.67999997 6.02999996,3.01999996 Z M8.93999999,3.01999996 C8.44999999,3.01999996 8.03999998,3.37999996 7.95999998,3.86999997 C7.59999998,5.94999997 5.95999997,7.58999998 3.87999997,7.94999998 C3.38999996,8.03999998 3.02999996,8.43999999 3.02999996,8.93999999 C3.02999996,9.54999999 3.56999996,10.03 4.16999997,9.93999999 C7.12999998,9.45999999 9.45999999,7.12999998 9.93999999,4.16999997 C10.03,3.55999996 9.53999999,3.01999996 8.93999999,3.01999996 Z" id="path-1"></path>
    </defs>
    <g id="leak_add" stroke="none" stroke-width="1" fill="none" fill-rule="evenodd">
        <mask id="mask-2" fill="white">
            <use xlink:href="#path-1"></use>
        </mask>
        <use id="Combined-Shape" fill="#000000" xlink:href="#path-1"></use>
    </g>
</svg>