<?xml version="1.0" encoding="UTF-8"?>
<svg width="24px" height="24px" viewBox="0 0 24 24" version="1.1" xmlns="http://www.w3.org/2000/svg" xmlns:xlink="http://www.w3.org/1999/xlink">
    <title>linked_camera</title>
    <defs>
        <path d="M14,3.99999997 C14.55,3.99999997 15,4.44999997 15,4.99999997 L15,4.99999997 L15,6.99999997 C16.1,6.99999997 17,7.89999998 17,8.99999997 L17,8.99999997 L20,8.99999997 C21.1,8.99999997 22,9.89999999 22,11 L22,11 L22,20 C22,21.1 21.1,22 20,22 L20,22 L3.99999996,22 C2.89999996,22 1.99999996,21.1 1.99999996,20 L1.99999996,20 L1.99999996,7.99999997 C1.99999996,6.89999998 2.89999996,5.99999997 3.99999996,5.99999997 L3.99999996,5.99999997 L7.16999998,5.99999997 L8.39999999,4.64999997 C8.77999999,4.23999997 9.31999999,3.99999997 9.87999999,3.99999997 L9.87999999,3.99999997 Z M12,8.99999999 C9.23999999,8.99999999 6.99999998,11.24 6.99999998,14 C6.99999998,16.76 9.23999999,19 12,19 C14.76,19 17,16.76 17,14 C17,11.24 14.76,8.99999999 12,8.99999999 Z M12,11 C13.6568543,11 15,12.3431458 15,14 C15,15.6568543 13.6568543,17 12,17 C10.3431457,17 8.99999999,15.6568543 8.99999999,14 C8.99999999,12.3431458 10.3431457,11 12,11 Z M16.6337095,2.04503468 L16.73,2.04999996 C19.45,2.37999996 21.62,4.54999997 21.95,7.26999998 C22,7.65999998 21.68,7.99999998 21.29,7.99999998 C20.95,7.99999998 20.67,7.73999998 20.63,7.39999998 C20.37,5.29999997 18.7,3.63999997 16.6,3.36999996 C16.26,3.32999996 16,3.04999996 16,2.70999996 C16,2.31999996 16.34,1.99999996 16.73,2.04999996 Z M16,5.41999997 C16,4.98999997 16.4,4.66999997 16.81,4.76999997 C18,5.06999997 18.93,5.99999998 19.23,7.18999998 C19.33,7.59999998 19.01,7.99999998 18.58,7.99999998 C18.28,7.99999998 18.01,7.80999998 17.94,7.51999998 C17.77,6.79999998 17.2,6.23999998 16.48,6.05999998 C16.19,5.98999997 16,5.70999997 16,5.41999997 Z" id="path-1"></path>
    </defs>
    <g id="linked_camera" stroke="none" stroke-width="1" fill="none" fill-rule="evenodd">
        <mask id="mask-2" fill="white">
            <use xlink:href="#path-1"></use>
        </mask>
        <use id="Combined-Shape" fill="#000000" xlink:href="#path-1"></use>
    </g>
</svg>