<?xml version="1.0" encoding="UTF-8"?>
<svg width="24px" height="24px" viewBox="0 0 24 24" version="1.1" xmlns="http://www.w3.org/2000/svg" xmlns:xlink="http://www.w3.org/1999/xlink">
    <title>looks_two</title>
    <defs>
        <path d="M19,2.99999996 L4.99999996,2.99999996 C3.89999997,2.99999996 2.99999996,3.89999997 2.99999996,4.99999996 L2.99999996,19 C2.99999996,20.1 3.89999997,21 4.99999996,21 L19,21 C20.1,21 21,20.1 21,19 L21,4.99999996 C21,3.89999997 20.1,2.99999996 19,2.99999996 Z M15,11 C15,12.1 14.1,13 13,13 L11,13 L11,15 L14,15 C14.55,15 15,15.45 15,16 C15,16.55 14.55,17 14,17 L9.99999999,17 C9.44999999,17 8.99999999,16.55 8.99999999,16 L8.99999999,13 C8.99999999,11.9 9.89999999,11 11,11 L13,11 L13,8.99999998 L9.99999999,8.99999998 C9.44999999,8.99999998 8.99999999,8.54999999 8.99999999,7.99999998 C8.99999999,7.44999998 9.44999999,6.99999998 9.99999999,6.99999998 L13,6.99999998 C14.1,6.99999998 15,7.89999998 15,8.99999998 L15,11 Z" id="path-1"></path>
    </defs>
    <g id="looks_two" stroke="none" stroke-width="1" fill="none" fill-rule="evenodd">
        <mask id="mask-2" fill="white">
            <use xlink:href="#path-1"></use>
        </mask>
        <use id="Combined-Shape" fill="#000000" xlink:href="#path-1"></use>
    </g>
</svg>