<?xml version="1.0" encoding="UTF-8"?>
<svg width="24px" height="24px" viewBox="0 0 24 24" version="1.1" xmlns="http://www.w3.org/2000/svg" xmlns:xlink="http://www.w3.org/1999/xlink">
    <title>motion_photos_on</title>
    <defs>
        <path d="M9.99999999,15.5 L9.99999999,8.49999999 C9.99999999,8.08999998 10.47,7.84999998 10.8,8.09999998 L15.47,11.6 C15.74,11.8 15.74,12.2 15.47,12.4 L10.8,15.9 C10.47,16.15 9.99999999,15.91 9.99999999,15.5 Z M21.96,11.05 C22.54,17.31 17.32,22.53 11.06,21.95 C6.62999998,21.54 2.93999996,18.1 2.15999996,13.72 C1.89999996,12.3 1.96999996,10.94 2.27999996,9.67999999 C2.41999996,9.09999999 3.03999996,8.77999999 3.58999996,8.97999999 L3.58999996,8.97999999 C4.05999997,9.14999999 4.33999997,9.64999999 4.21999997,10.14 C4.01999997,10.96 3.94999997,11.84 4.02999997,12.75 C4.39999997,16.79 7.91999998,20 11.98,20.01 C16.77,20.02 20.59,15.8 19.92,10.89 C19.41,7.18999998 16.26,4.26999997 12.53,4.02999997 C11.7,3.96999997 10.9,4.04999997 10.15,4.22999997 C9.65999999,4.33999997 9.15999999,4.06999997 8.98999999,3.58999996 L8.98999999,3.58999996 C8.78999999,3.02999996 9.10999999,2.41999996 9.67999999,2.27999996 C11.47,1.84999996 13.43,1.86999996 15.46,2.64999996 C19.02,3.99999997 21.61,7.26999998 21.96,11.05 Z M5.49999997,3.99999997 C4.66999997,3.99999997 3.99999997,4.66999997 3.99999997,5.49999997 C3.99999997,6.32999998 4.66999997,6.99999997 5.49999997,6.99999997 C6.32999998,6.99999997 6.99999997,6.32999998 6.99999997,5.49999997 C6.99999997,4.66999997 6.32999998,3.99999997 5.49999997,3.99999997 Z" id="path-1"></path>
    </defs>
    <g id="motion_photos_on" stroke="none" stroke-width="1" fill="none" fill-rule="evenodd">
        <mask id="mask-2" fill="white">
            <use xlink:href="#path-1"></use>
        </mask>
        <use id="Combined-Shape" fill="#000000" xlink:href="#path-1"></use>
    </g>
</svg>