<?xml version="1.0" encoding="UTF-8"?>
<svg width="24px" height="24px" viewBox="0 0 24 24" version="1.1" xmlns="http://www.w3.org/2000/svg" xmlns:xlink="http://www.w3.org/1999/xlink">
    <title>photo_filter</title>
    <defs>
        <path d="M19.02,10.99 L19.02,18 C19.02,18.55 18.57,19 18.02,19 L5.99999997,19 C5.44999997,19 4.99999997,18.55 4.99999997,18 L4.99999997,5.99999996 C4.99999997,5.44999997 5.44999997,4.99999996 5.99999997,4.99999996 L13,4.99999996 C13.55,4.99999996 14,4.54999997 14,3.99999996 C14,3.44999996 13.55,2.99999996 13,2.99999996 L5.01999996,2.99999996 C3.91999997,2.99999996 3.01999996,3.89999997 3.01999996,4.99999996 L3.01999996,19 C3.01999996,20.1 3.91999997,21 5.01999996,21 L19,21 C20.1,21 21,20.11 21,19 L21,10.99 C21,10.44 20.56,9.99999996 20.01,9.99999996 C19.46,9.99999996 19.02,10.44 19.02,10.99 L19.02,10.99 Z M13.25,10.75 L12.46,8.99999999 C12.28,8.60999999 11.73,8.60999999 11.55,8.99999999 L10.76,10.75 L8.99999999,11.54 C8.60999999,11.72 8.60999999,12.27 8.99999999,12.45 L10.75,13.24 L11.54,15 C11.72,15.39 12.27,15.39 12.45,15 L13.24,13.25 L15,12.46 C15.39,12.28 15.39,11.73 15,11.55 L13.25,10.75 L13.25,10.75 Z M17.94,6.05999998 L17.34,4.73999997 C17.21,4.44999997 16.79,4.44999997 16.65,4.73999997 L16.05,6.05999998 L14.73,6.65999998 C14.44,6.78999998 14.44,7.20999998 14.73,7.34999998 L16.05,7.94999998 L16.65,9.26999999 C16.78,9.55999999 17.2,9.55999999 17.34,9.26999999 L17.94,7.94999998 L19.26,7.34999998 C19.55,7.21999998 19.55,6.79999998 19.26,6.65999998 L17.94,6.05999998 Z" id="path-1"></path>
    </defs>
    <g id="photo_filter" stroke="none" stroke-width="1" fill="none" fill-rule="evenodd">
        <mask id="mask-2" fill="white">
            <use xlink:href="#path-1"></use>
        </mask>
        <use id="Combined-Shape" fill="#000000" xlink:href="#path-1"></use>
    </g>
</svg>