<?xml version="1.0" encoding="UTF-8"?>
<svg width="24px" height="24px" viewBox="0 0 24 24" version="1.1" xmlns="http://www.w3.org/2000/svg" xmlns:xlink="http://www.w3.org/1999/xlink">
    <title>picture_as_pdf</title>
    <defs>
        <path d="M20,1.99999996 L7.99999997,1.99999996 C6.89999998,1.99999996 5.99999997,2.89999996 5.99999997,3.99999996 L5.99999997,16 C5.99999997,17.1 6.89999998,18 7.99999997,18 L20,18 C21.1,18 22,17.1 22,16 L22,3.99999996 C22,2.89999996 21.1,1.99999996 20,1.99999996 Z M11.5,9.49999998 C11.5,10.33 10.83,11 9.99999998,11 L8.99999998,11 L8.99999998,12.25 C8.99999998,12.66 8.65999999,13 8.24999998,13 C7.83999998,13 7.49999998,12.66 7.49999998,12.25 L7.49999998,7.99999998 C7.49999998,7.44999998 7.94999998,6.99999998 8.49999998,6.99999998 L9.99999998,6.99999998 C10.83,6.99999998 11.5,7.66999998 11.5,8.49999998 L11.5,9.49999998 Z M16.5,11.5 C16.5,12.33 15.83,13 15,13 L13,13 C12.72,13 12.5,12.78 12.5,12.5 L12.5,7.49999998 C12.5,7.21999998 12.72,6.99999998 13,6.99999998 L15,6.99999998 C15.83,6.99999998 16.5,7.66999998 16.5,8.49999998 L16.5,11.5 Z M20.5,7.74999998 C20.5,8.15999998 20.16,8.49999998 19.75,8.49999998 L19,8.49999998 L19,9.49999998 L19.75,9.49999998 C20.16,9.49999998 20.5,9.83999999 20.5,10.25 C20.5,10.66 20.16,11 19.75,11 L19,11 L19,12.25 C19,12.66 18.66,13 18.25,13 C17.84,13 17.5,12.66 17.5,12.25 L17.5,7.99999998 C17.5,7.44999998 17.95,6.99999998 18.5,6.99999998 L19.75,6.99999998 C20.16,6.99999998 20.5,7.33999998 20.5,7.74999998 Z M8.99999999,9.49999999 L9.99999999,9.49999999 L9.99999999,8.49999999 L8.99999999,8.49999999 L8.99999999,9.49999999 Z M2.99999996,5.99999998 C2.44999996,5.99999998 1.99999996,6.44999998 1.99999996,6.99999998 L1.99999996,20 C1.99999996,21.1 2.89999996,22 3.99999996,22 L17,22 C17.55,22 18,21.55 18,21 C18,20.45 17.55,20 17,20 L4.99999996,20 C4.44999997,20 3.99999996,19.55 3.99999996,19 L3.99999996,6.99999998 C3.99999996,6.44999998 3.54999996,5.99999998 2.99999996,5.99999998 Z M14,11.5 L15,11.5 L15,8.49999999 L14,8.49999999 L14,11.5 Z" id="path-1"></path>
    </defs>
    <g id="picture_as_pdf" stroke="none" stroke-width="1" fill="none" fill-rule="evenodd">
        <mask id="mask-2" fill="white">
            <use xlink:href="#path-1"></use>
        </mask>
        <use id="Combined-Shape" fill="#000000" xlink:href="#path-1"></use>
    </g>
</svg>