<?xml version="1.0" encoding="UTF-8"?>
<svg width="24px" height="24px" viewBox="0 0 24 24" version="1.1" xmlns="http://www.w3.org/2000/svg" xmlns:xlink="http://www.w3.org/1999/xlink">
    <title>receipt_long</title>
    <defs>
        <path d="M21,1.99999996 L21,19 C21,20.66 19.66,22 18,22 L18,22 L5.99999996,22 C4.33999997,22 2.99999996,20.66 2.99999996,19 L2.99999996,19 L2.99999996,17 C2.99999996,16.45 3.44999996,16 3.99999996,16 L3.99999996,16 L5.99999996,16 L5.99999996,1.99999996 L7.49999996,3.49999996 L8.99999996,1.99999996 L10.5,3.49999996 L12,1.99999996 L13.5,3.49999996 L15,1.99999996 L16.5,3.49999996 L18,1.99999996 L19.5,3.49999996 L21,1.99999996 Z M15,18 L4.99999997,18 L4.99999997,19 C4.99999997,19.55 5.44999997,20 5.99999997,20 L5.99999997,20 L15,20 L15,18 Z M19,4.99999997 L7.99999998,4.99999997 L7.99999998,16 L16,16 C16.55,16 17,16.45 17,17 L17,17 L17,19 C17,19.55 17.45,20 18,20 C18.55,20 19,19.55 19,19 L19,19 L19,4.99999997 Z M14,9.99999999 C14.5107143,9.99999999 14.9352041,10.3880102 14.9932398,10.883801 L15,11 C15,11.55 14.55,12 14,12 L9.99999999,12 C9.4892857,12 9.06479591,11.6119898 9.00676019,11.116199 L8.99999999,11 C8.99999999,10.45 9.44999999,9.99999999 9.99999999,9.99999999 L14,9.99999999 Z M17,9.99999999 C17.5522848,9.99999999 18,10.4477152 18,11 C18,11.5522847 17.5522848,12 17,12 C16.4477153,12 16,11.5522847 16,11 C16,10.4477152 16.4477153,9.99999999 17,9.99999999 Z M14,6.99999998 C14.5107143,6.99999998 14.9352041,7.38801018 14.9932398,7.883801 L15,7.99999998 C15,8.54999999 14.55,8.99999998 14,8.99999998 L9.99999999,8.99999998 C9.4892857,8.99999998 9.06479591,8.61198978 9.00676019,8.11619896 L8.99999999,7.99999998 C8.99999999,7.44999998 9.44999999,6.99999998 9.99999999,6.99999998 L14,6.99999998 Z M17,6.99999998 C17.5522848,6.99999998 18,7.44771523 18,7.99999998 C18,8.55228474 17.5522848,8.99999998 17,8.99999998 C16.4477153,8.99999998 16,8.55228474 16,7.99999998 C16,7.44771523 16.4477153,6.99999998 17,6.99999998 Z" id="path-1"></path>
    </defs>
    <g id="receipt_long" stroke="none" stroke-width="1" fill="none" fill-rule="evenodd">
        <mask id="mask-2" fill="white">
            <use xlink:href="#path-1"></use>
        </mask>
        <use id="Combined-Shape" fill="#000000" xlink:href="#path-1"></use>
    </g>
</svg>