<?xml version="1.0" encoding="UTF-8"?>
<svg width="24px" height="24px" viewBox="0 0 24 24" version="1.1" xmlns="http://www.w3.org/2000/svg" xmlns:xlink="http://www.w3.org/1999/xlink">
    <title>rotate_right</title>
    <defs>
        <path d="M14.83,4.82999997 L12.7,2.69999996 C12.08,2.07999996 11,2.51999996 11,3.40999996 L11,4.06999997 C7.05999998,4.55999997 3.99999997,7.91999998 3.99999997,12 C3.99999997,15.64 6.42999998,18.71 9.76999999,19.68 C10.39,19.86 11,19.36 11,18.72 L11,18.69 C11,18.26 10.73,17.87 10.32,17.75 C7.81999998,17.03 5.99999997,14.73 5.99999997,12 C5.99999997,9.02999999 8.15999998,6.56999998 11,6.08999998 L11,7.61999998 C11,8.50999999 12.07,8.94999999 12.7,8.32999998 L14.83,6.24999998 C15.23,5.86999997 15.23,5.22999997 14.83,4.82999997 Z M19.67,9.75999999 C19.51,9.20999999 19.29,8.67999999 19.01,8.16999998 C18.7,7.59999998 17.91,7.50999998 17.45,7.96999998 L17.44,7.97999998 C17.13,8.28999998 17.06,8.75999999 17.27,9.13999999 C17.47,9.50999999 17.63,9.89999999 17.75,10.3 C17.87,10.72 18.26,11 18.69,11 L18.71,11 C19.36,11 19.86,10.38 19.67,9.75999999 L19.67,9.75999999 Z M13,18.68 L13,18.7 C13,19.35 13.62,19.84 14.24,19.66 C14.79,19.5 15.32,19.28 15.83,19 C16.4,18.69 16.49,17.9 16.03,17.44 L16.01,17.42 C15.7,17.11 15.23,17.04 14.85,17.25 C14.48,17.46 14.09,17.62 13.69,17.74 C13.28,17.86 13,18.25 13,18.68 L13,18.68 Z M17.44,16.03 C17.9,16.49 18.69,16.4 19,15.83 C19.28,15.32 19.5,14.79 19.67,14.24 C19.85,13.62 19.36,13 18.71,13 L18.69,13 C18.25,13 17.87,13.28 17.75,13.7 C17.63,14.1 17.47,14.49 17.27,14.87 C17.06,15.25 17.14,15.73 17.44,16.03 Z" id="path-1"></path>
    </defs>
    <g id="rotate_right" stroke="none" stroke-width="1" fill="none" fill-rule="evenodd">
        <mask id="mask-2" fill="white">
            <use xlink:href="#path-1"></use>
        </mask>
        <use id="Combined-Shape" fill="#000000" xlink:href="#path-1"></use>
    </g>
</svg>