<?xml version="1.0" encoding="UTF-8"?>
<svg width="24px" height="24px" viewBox="0 0 24 24" version="1.1" xmlns="http://www.w3.org/2000/svg" xmlns:xlink="http://www.w3.org/1999/xlink">
    <title>rotate_left</title>
    <defs>
        <path d="M6.55999998,7.97999998 C6.09999998,7.51999998 5.30999997,7.59999998 4.99999997,8.16999998 C4.71999997,8.67999999 4.49999997,9.19999999 4.32999997,9.74999999 C4.13999997,10.38 4.63999997,11 5.28999997,11 L5.29999997,11 C5.72999997,11 6.11999998,10.72 6.23999998,10.3 C6.35999998,9.89999999 6.51999998,9.50999999 6.71999998,9.12999999 C6.93999998,8.75999999 6.86999998,8.28999998 6.55999998,7.97999998 L6.55999998,7.97999998 Z M5.30999997,13 L5.28999997,13 C4.63999997,13 4.13999997,13.62 4.32999997,14.25 C4.48999997,14.79 4.70999997,15.32 4.98999997,15.83 C5.29999997,16.4 6.09999998,16.49 6.55999998,16.03 C6.85999998,15.72 6.93999998,15.26 6.72999998,14.88 C6.52999998,14.51 6.36999998,14.12 6.24999998,13.72 C6.12999998,13.28 5.73999997,13 5.30999997,13 L5.30999997,13 Z M8.15999998,19.02 C8.66999999,19.3 9.19999999,19.52 9.74999999,19.68 C10.37,19.86 10.99,19.36 10.99,18.72 L10.99,18.69 C10.99,18.26 10.71,17.87 10.29,17.75 C9.88999999,17.63 9.50999999,17.47 9.13999999,17.27 C8.75999999,17.06 8.27999998,17.13 7.97999998,17.44 L7.94999998,17.47 C7.49999998,17.92 7.58999998,18.71 8.15999998,19.02 Z M13,4.06999997 L13,3.40999996 C13,2.51999996 11.92,2.06999996 11.29,2.69999996 L9.16999999,4.82999997 C8.76999999,5.22999997 8.76999999,5.86999997 9.16999999,6.25999998 L11.3,8.33999998 C11.93,8.95999999 13,8.50999999 13,7.61999998 L13,6.08999998 C15.84,6.56999998 18,9.02999999 18,12 C18,14.73 16.18,17.02 13.68,17.75 C13.27,17.87 13,18.26 13,18.69 L13,18.71 C13,19.36 13.61,19.85 14.23,19.67 C17.57,18.71 20,15.64 20,12 C20,7.91999998 16.95,4.55999997 13,4.06999997 Z" id="path-1"></path>
    </defs>
    <g id="rotate_left" stroke="none" stroke-width="1" fill="none" fill-rule="evenodd">
        <mask id="mask-2" fill="white">
            <use xlink:href="#path-1"></use>
        </mask>
        <use id="Combined-Shape" fill="#000000" xlink:href="#path-1"></use>
    </g>
</svg>