<?xml version="1.0" encoding="UTF-8"?>
<svg width="24px" height="24px" viewBox="0 0 24 24" version="1.1" xmlns="http://www.w3.org/2000/svg" xmlns:xlink="http://www.w3.org/1999/xlink">
    <title>shutter_speed</title>
    <defs>
        <path d="M9.99999999,2.99999995 L14,2.99999995 C14.55,2.99999995 15,2.54999996 15,1.99999995 C15,1.44999996 14.55,0.999999954 14,0.999999954 L9.99999999,0.999999954 C9.44999999,0.999999954 8.99999999,1.44999996 8.99999999,1.99999995 C8.99999999,2.54999996 9.44999999,2.99999995 9.99999999,2.99999995 Z M19.03,7.38999998 L19.78,6.63999998 C20.16,6.25999998 20.17,5.62999997 19.78,5.23999997 L19.77,5.22999997 C19.38,4.83999997 18.76,4.84999997 18.37,5.22999997 L17.62,5.97999997 C16.07,4.73999997 14.12,3.99999997 12,3.99999997 C7.19999998,3.99999997 3.11999996,7.95999998 2.99999996,12.76 C2.86999996,17.84 6.93999998,22 12,22 C16.98,22 21,17.97 21,13 C21,10.88 20.26,8.92999999 19.03,7.38999998 Z M12,20 C8.12999998,20 4.99999997,16.87 4.99999997,13 C4.99999997,9.12999999 8.12999998,5.99999998 12,5.99999998 C15.87,5.99999998 19,9.12999999 19,13 C19,16.87 15.87,20 12,20 Z M10.81,15 L7.10999998,15 C6.72999998,15 6.48999998,15.4 6.65999998,15.74 C7.21999998,16.86 8.09999998,17.75 9.22999999,18.31 C9.45999999,18.42 9.74999999,18.33 9.87999999,18.1 L11.25,15.75 C11.44,15.42 11.2,15 10.81,15 L10.81,15 Z M14.73,7.64999998 C14.5,7.52999998 14.21,7.62999998 14.08,7.84999998 L12.7,10.24 C12.5,10.58 12.74,11 13.13,11 L16.89,11 C17.27,11 17.51,10.6 17.34,10.27 C16.76,9.13999999 15.85,8.22999998 14.73,7.64999998 L14.73,7.64999998 Z M13.88,14.7 C13.69,14.36 13.2,14.35 13.01,14.69 L10.97,18.21 C10.79,18.53 10.99,18.93 11.36,18.96 C12.7,19.1 14.05,18.78 15.19,18.07 C15.41,17.93 15.47,17.64 15.35,17.41 L13.88,14.7 L13.88,14.7 Z M10.31,13.23 L7.92999998,9.56999999 C7.72999998,9.26999999 7.28999998,9.26999999 7.08999998,9.56999999 C6.27999998,10.73 5.91999997,12.14 6.03999998,13.55 C6.05999998,13.81 6.27999998,14 6.53999998,14 L9.88999999,14 C10.28,14 10.52,13.56 10.31,13.23 L10.31,13.23 Z M13.97,12.74 L15.99,16.48 C16.17,16.81 16.63,16.83 16.85,16.53 C17.71,15.35 18.09,13.91 17.97,12.45 C17.95,12.19 17.72,12 17.47,12 L14.42,12 C14.03,12 13.79,12.4 13.97,12.74 L13.97,12.74 Z M10.17,11.17 C10.37,11.48 10.83,11.47 11.02,11.15 L12.96,7.79999998 C13.15,7.47999998 12.93,7.07999998 12.56,7.03999998 C11.2,6.91999998 9.82999999,7.24999998 8.67999999,8.00999998 C8.45999999,8.15999998 8.40999999,8.46999999 8.54999999,8.68999999 L10.17,11.17 L10.17,11.17 Z" id="path-1"></path>
    </defs>
    <g id="shutter_speed" stroke="none" stroke-width="1" fill="none" fill-rule="evenodd">
        <mask id="mask-2" fill="white">
            <use xlink:href="#path-1"></use>
        </mask>
        <use id="Combined-Shape" fill="#000000" xlink:href="#path-1"></use>
    </g>
</svg>