<?xml version="1.0" encoding="UTF-8"?>
<svg width="24px" height="24px" viewBox="0 0 24 24" version="1.1" xmlns="http://www.w3.org/2000/svg" xmlns:xlink="http://www.w3.org/1999/xlink">
    <title>slideshow</title>
    <defs>
        <path d="M9.99999999,9.03999999 L9.99999999,14.96 C9.99999999,15.38 10.48,15.61 10.81,15.35 L14.51,12.39 C14.76,12.19 14.76,11.81 14.51,11.61 L10.81,8.64999999 C10.48,8.38999998 9.99999999,8.61999999 9.99999999,9.03999999 L9.99999999,9.03999999 Z M19,2.99999996 L4.99999996,2.99999996 C3.89999997,2.99999996 2.99999996,3.89999997 2.99999996,4.99999996 L2.99999996,19 C2.99999996,20.1 3.89999997,21 4.99999996,21 L19,21 C20.1,21 21,20.1 21,19 L21,4.99999996 C21,3.89999997 20.1,2.99999996 19,2.99999996 Z M18,19 L5.99999997,19 C5.44999997,19 4.99999997,18.55 4.99999997,18 L4.99999997,5.99999997 C4.99999997,5.44999997 5.44999997,4.99999997 5.99999997,4.99999997 L18,4.99999997 C18.55,4.99999997 19,5.44999997 19,5.99999997 L19,18 C19,18.55 18.55,19 18,19 Z" id="path-1"></path>
    </defs>
    <g id="slideshow" stroke="none" stroke-width="1" fill="none" fill-rule="evenodd">
        <mask id="mask-2" fill="white">
            <use xlink:href="#path-1"></use>
        </mask>
        <use id="Combined-Shape" fill="#000000" xlink:href="#path-1"></use>
    </g>
</svg>