<?xml version="1.0" encoding="UTF-8"?>
<svg width="24px" height="24px" viewBox="0 0 24 24" version="1.1" xmlns="http://www.w3.org/2000/svg" xmlns:xlink="http://www.w3.org/1999/xlink">
    <title>timer_10</title>
    <defs>
        <path d="M0.913846108,8.04923075 L0.913846108,9.59999999 L3.68307689,8.67692306 L3.68307689,17.5384616 L5.52923074,17.5384616 L5.52923074,6.46153844 L5.29846151,6.46153844 L0.913846108,8.04923075 Z M22.8646154,14.1876923 C22.7353847,13.9292308 22.5415385,13.6984615 22.283077,13.5046154 C22.0246154,13.3107692 21.72,13.1446154 21.3507693,13.0153846 C20.9815385,12.8861538 20.5661539,12.7661538 20.1046154,12.6646154 C19.7815385,12.6 19.5138462,12.5261538 19.3015385,12.4523077 C19.0892308,12.3784615 18.923077,12.3046154 18.7938462,12.2215385 C18.6646154,12.1384615 18.5815385,12.0461538 18.5353846,11.9446154 C18.4892308,11.8430769 18.4615385,11.7230769 18.4615385,11.5846154 C18.4615385,11.4553846 18.4892308,11.3261538 18.5446154,11.2061538 C18.6,11.0861538 18.683077,10.9753846 18.7938462,10.8923077 C18.9046154,10.8 19.043077,10.7261538 19.2092308,10.6707692 C19.3753846,10.6153846 19.5784616,10.5876923 19.8,10.5876923 C20.0307693,10.5876923 20.2338462,10.6246154 20.4092308,10.6892308 C20.5846154,10.7538461 20.7323077,10.8461538 20.8523077,10.9569231 C20.9723077,11.0676923 21.0553847,11.1969231 21.12,11.3446154 C21.1753847,11.4923077 21.2123077,11.64 21.2123077,11.7969231 L23.0123077,11.7969231 C23.0123077,11.4369231 22.9384616,11.1046154 22.7907693,10.7907692 C22.643077,10.4769231 22.4307693,10.2092308 22.1538462,9.97846153 C21.8769231,9.7476923 21.5446154,9.57230768 21.1476923,9.43384614 C20.7507693,9.2953846 20.2984616,9.23076922 19.8,9.23076922 C19.3292308,9.23076922 18.8953846,9.2953846 18.5169231,9.42461537 C18.1384616,9.55384614 17.8061539,9.72923076 17.5384616,9.95076922 C17.2707693,10.1723077 17.0676923,10.4307692 16.92,10.7261538 C16.7723077,11.0215385 16.7076923,11.3261538 16.7076923,11.6584615 C16.7076923,11.9907692 16.7815385,12.2953846 16.92,12.5446154 C17.0584616,12.8030769 17.2523077,13.0246154 17.5107693,13.2184615 C17.76,13.4123077 18.0646154,13.5692308 18.4153846,13.7076923 C18.7661539,13.8369231 19.163077,13.9476923 19.5876923,14.04 C19.9476923,14.1138462 20.243077,14.1969231 20.4646154,14.28 C20.6861539,14.3630769 20.8615385,14.4553846 20.9907693,14.5476923 C21.1107693,14.64 21.1938462,14.7507692 21.24,14.8615385 C21.2861539,14.9723077 21.3046154,15.0923077 21.3046154,15.2215385 C21.3046154,15.5169231 21.1846154,15.7476923 20.9353847,15.9323077 C20.6861539,16.1169231 20.3261539,16.2 19.8553846,16.2 C19.6523077,16.2 19.4584616,16.1815385 19.2646154,16.1261539 C19.0707693,16.08 18.8953846,16.0061539 18.7476923,15.9046154 C18.5907693,15.8030769 18.4707693,15.6646154 18.3692308,15.4984616 C18.2676923,15.3323077 18.2123077,15.12 18.2030769,14.88 L16.4584616,14.88 C16.4584616,15.2123077 16.5323077,15.5353846 16.68,15.8492308 C16.8276923,16.1630769 17.04,16.4492308 17.3261539,16.7076923 C17.6123077,16.9569231 17.9630769,17.16 18.3876923,17.3169231 C18.8123077,17.4738462 19.2923077,17.5476923 19.8461539,17.5476923 C20.3353847,17.5476923 20.7784616,17.4923077 21.1753847,17.3723077 C21.5723077,17.2523077 21.9138462,17.0861539 22.2,16.8738462 C22.4861539,16.6615385 22.6984616,16.4030769 22.8553847,16.1076923 C23.0123077,15.8123077 23.0861539,15.4892308 23.0861539,15.1292308 C23.0676924,14.76 23.003077,14.4461539 22.8646154,14.1876923 L22.8646154,14.1876923 Z M13.6707692,7.43076921 C13.3569231,7.06153844 12.9784615,6.78461536 12.5353846,6.61846152 C12.1015385,6.45230767 11.6030769,6.36923075 11.0676923,6.36923075 C10.5323077,6.36923075 10.0430769,6.45230767 9.59999999,6.61846152 C9.15692307,6.78461536 8.77846153,7.05230767 8.46461537,7.43076921 C8.15076921,7.80923075 7.91076921,8.28923075 7.7353846,8.89846153 C7.56923075,9.49846153 7.47692306,10.2369231 7.47692306,11.1046154 L7.47692306,12.8769231 C7.47692306,13.7446154 7.55999998,14.4830769 7.7353846,15.0830769 C7.91076921,15.6923077 8.15076921,16.1815385 8.47384614,16.56 C8.78769229,16.9384616 9.16615383,17.2153846 9.60923076,17.3815385 C10.0523077,17.5476923 10.5415385,17.64 11.0769231,17.64 C11.6215385,17.64 12.1107692,17.5569231 12.5446154,17.3815385 C12.9876923,17.2153846 13.3569231,16.9384616 13.6707692,16.56 C13.9846154,16.1815385 14.2246154,15.6923077 14.3907692,15.0830769 C14.5569231,14.4830769 14.6492308,13.7446154 14.6492308,12.8769231 L14.6492308,11.1046154 C14.6492308,10.2369231 14.5661539,9.49846153 14.3907692,8.89846153 C14.2246154,8.28923075 13.9846154,7.79999998 13.6707692,7.43076921 Z M12.8215385,13.1261539 C12.8215385,13.68 12.7846154,14.1507692 12.7107692,14.5384615 C12.6369231,14.9261539 12.5261538,15.24 12.3784615,15.48 C12.2307692,15.72 12.0461538,15.8953846 11.8338462,16.0061539 C11.6215385,16.1169231 11.3630769,16.1723077 11.0769231,16.1723077 C10.8,16.1723077 10.5415385,16.1169231 10.32,16.0061539 C10.0984615,15.8953846 9.91384615,15.72 9.76615384,15.48 C9.61846153,15.24 9.49846153,14.9261539 9.4153846,14.5384615 C9.33230768,14.1507692 9.2953846,13.68 9.2953846,13.1261539 L9.2953846,10.8184615 C9.2953846,10.2646154 9.33230768,9.79384614 9.4153846,9.4153846 C9.49846153,9.03692306 9.60923076,8.73230768 9.76615384,8.49230768 C9.91384615,8.26153845 10.0984615,8.0953846 10.32,7.98461537 C10.5415385,7.88307691 10.7907692,7.82769229 11.0676923,7.82769229 C11.3538462,7.82769229 11.6030769,7.88307691 11.8153846,7.98461537 C12.0369231,8.08615383 12.2215385,8.25230768 12.3692308,8.49230768 C12.5169231,8.72307691 12.6369231,9.0276923 12.7107692,9.40615384 C12.7846154,9.78461538 12.8307692,10.2553846 12.8307692,10.8092308 L12.8307692,13.1261539 L12.8215385,13.1261539 L12.8215385,13.1261539 Z" id="path-1"></path>
    </defs>
    <g id="timer_10" stroke="none" stroke-width="1" fill="none" fill-rule="evenodd">
        <mask id="mask-2" fill="white">
            <use xlink:href="#path-1"></use>
        </mask>
        <use id="Combined-Shape" fill="#000000" xlink:href="#path-1"></use>
    </g>
</svg>