<?xml version="1.0" encoding="UTF-8"?>
<svg width="24px" height="24px" viewBox="0 0 24 24" version="1.1" xmlns="http://www.w3.org/2000/svg" xmlns:xlink="http://www.w3.org/1999/xlink">
    <title>tune</title>
    <defs>
        <path d="M2.99999996,18 C2.99999996,18.55 3.44999996,19 3.99999996,19 L8.99999996,19 L8.99999996,17 L3.99999996,17 C3.44999996,17 2.99999996,17.45 2.99999996,18 Z M2.99999996,5.99999997 C2.99999996,6.54999998 3.44999996,6.99999997 3.99999996,6.99999997 L13,6.99999997 L13,4.99999997 L3.99999996,4.99999997 C3.44999996,4.99999997 2.99999996,5.44999997 2.99999996,5.99999997 Z M13,20 L13,19 L20,19 C20.55,19 21,18.55 21,18 C21,17.45 20.55,17 20,17 L13,17 L13,16 C13,15.45 12.55,15 12,15 C11.45,15 11,15.45 11,16 L11,20 C11,20.55 11.45,21 12,21 C12.55,21 13,20.55 13,20 Z M6.99999996,9.99999999 L6.99999996,11 L3.99999996,11 C3.44999996,11 2.99999996,11.45 2.99999996,12 C2.99999996,12.55 3.44999996,13 3.99999996,13 L6.99999996,13 L6.99999996,14 C6.99999996,14.55 7.44999998,15 7.99999996,15 C8.54999999,15 8.99999996,14.55 8.99999996,14 L8.99999996,9.99999999 C8.99999996,9.44999999 8.54999999,8.99999999 7.99999996,8.99999999 C7.44999998,8.99999999 6.99999996,9.44999999 6.99999996,9.99999999 Z M21,12 C21,11.45 20.55,11 20,11 L11,11 L11,13 L20,13 C20.55,13 21,12.55 21,12 Z M16,8.99999996 C16.55,8.99999996 17,8.54999999 17,7.99999996 L17,6.99999996 L20,6.99999996 C20.55,6.99999996 21,6.54999998 21,5.99999996 C21,5.44999997 20.55,4.99999996 20,4.99999996 L17,4.99999996 L17,3.99999996 C17,3.44999996 16.55,2.99999996 16,2.99999996 C15.45,2.99999996 15,3.44999996 15,3.99999996 L15,7.99999996 C15,8.54999999 15.45,8.99999996 16,8.99999996 Z" id="path-1"></path>
    </defs>
    <g id="tune" stroke="none" stroke-width="1" fill="none" fill-rule="evenodd">
        <mask id="mask-2" fill="white">
            <use xlink:href="#path-1"></use>
        </mask>
        <use id="Combined-Shape" fill="#000000" xlink:href="#path-1"></use>
    </g>
</svg>