<?xml version="1.0" encoding="UTF-8"?>
<svg width="24px" height="24px" viewBox="0 0 24 24" version="1.1" xmlns="http://www.w3.org/2000/svg" xmlns:xlink="http://www.w3.org/1999/xlink">
    <title>wb_auto</title>
    <defs>
        <path d="M6.84999998,12.65 L9.14999999,12.65 L7.99999998,8.99999999 L6.84999998,12.65 Z M22.72,6.99999997 C22.3,6.99999997 21.95,7.29999998 21.87,7.69999998 L20.8,13.29 L19.49,7.77999998 C19.38,7.31999998 18.97,6.99999997 18.5,6.99999997 C18.03,6.99999997 17.62,7.31999998 17.52,7.77999998 L16.21,13.29 L15.14,7.69999998 C15.06,7.29999998 14.7,6.99999997 14.29,6.99999997 C14.28,6.99999997 14.26,7.00999998 14.25,7.00999998 C12.78,5.17999997 10.53,3.99999997 7.99999995,3.99999997 C3.57999996,3.99999997 -4.99999473e-08,7.57999998 -4.99999473e-08,12 C-4.99999473e-08,16.42 3.57999996,20 7.99999995,20 C11.17,20 13.9,18.15 15.2,15.48 C15.4,15.8 15.75,16 16.14,16 C16.65,16 17.09,15.65 17.21,15.16 L18.5,9.89999999 L19.79,15.16 C19.91,15.65 20.36,16 20.86,16 C21.38,16 21.82,15.64 21.94,15.14 L23.55,8.05999998 C23.68,7.51999998 23.27,6.99999997 22.72,6.99999997 Z M10.93,16 C10.55,16 10.21,15.76 10.09,15.4 L9.59999999,14 L6.39999998,14 L5.90999997,15.4 C5.77999997,15.76 5.44999997,16 5.06999997,16 C4.44999997,16 4.01999997,15.39 4.22999997,14.81 L6.66999998,7.94999998 C6.86999998,7.37999998 7.39999998,6.99999998 7.99999998,6.99999998 C8.59999999,6.99999998 9.12999999,7.37999998 9.33999999,7.93999998 L11.78,14.8 C11.98,15.39 11.55,16 10.93,16 Z" id="path-1"></path>
    </defs>
    <g id="wb_auto" stroke="none" stroke-width="1" fill="none" fill-rule="evenodd">
        <mask id="mask-2" fill="white">
            <use xlink:href="#path-1"></use>
        </mask>
        <use id="Combined-Shape" fill="#000000" xlink:href="#path-1"></use>
    </g>
</svg>