<?xml version="1.0" encoding="UTF-8"?>
<svg width="24px" height="24px" viewBox="0 0 24 24" version="1.1" xmlns="http://www.w3.org/2000/svg" xmlns:xlink="http://www.w3.org/1999/xlink">
    <title>wb_iridescent</title>
    <defs>
        <path d="M5.99999997,15 L18,15 C18.55,15 19,14.55 19,14 L19,10.05 C19,9.49999999 18.55,9.04999999 18,9.04999999 L5.99999997,9.04999999 C5.44999997,9.04999999 4.99999997,9.49999999 4.99999997,10.05 L4.99999997,14 C4.99999997,14.55 5.44999997,15 5.99999997,15 Z M11,1.99999995 L11,3.04999996 C11,3.59999997 11.45,3.99999995 12,3.99999995 C12.55,3.99999995 13,3.59999997 13,3.04999996 L13,1.99999995 C13,1.44999996 12.55,0.999999954 12,0.999999954 C11.45,0.999999954 11,1.44999996 11,1.99999995 Z M18.34,4.29999997 L17.96,4.67999997 C17.57,5.06999997 17.57,5.69999997 17.96,6.08999998 C18.35,6.47999998 18.98,6.47999998 19.37,6.08999998 L19.75,5.70999997 C20.14,5.31999997 20.14,4.68999997 19.75,4.29999997 C19.36,3.90999997 18.73,3.90999997 18.34,4.29999997 Z M13,22 L13,21.04 C13,20.49 12.55,20.04 12,20.04 C11.45,20.04 11,20.49 11,21.04 L11,22 C11,22.55 11.45,23 12,23 C12.55,23 13,22.55 13,22 Z M19.74,18.39 L19.35,18 C18.96,17.61 18.33,17.61 17.94,18 C17.55,18.39 17.55,19.02 17.94,19.41 L18.32,19.8 C18.71,20.19 19.34,20.19 19.73,19.8 L19.74,19.79 C20.13,19.41 20.13,18.77 19.74,18.39 Z M4.24999997,5.70999997 L4.63999997,6.09999998 C5.02999997,6.48999998 5.65999997,6.48999998 6.04999998,6.09999998 C6.43999998,5.70999997 6.43999998,5.07999997 6.04999998,4.68999997 L5.65999997,4.29999997 C5.26999997,3.90999997 4.63999997,3.90999997 4.24999997,4.29999997 C3.86999997,4.68999997 3.86999997,5.32999997 4.24999997,5.70999997 Z M5.66999997,19.79 L6.04999998,19.41 C6.43999998,19.02 6.43999998,18.39 6.04999998,18 C5.65999997,17.61 5.02999997,17.61 4.63999997,18 L4.25999997,18.38 C3.86999997,18.77 3.86999997,19.4 4.25999997,19.79 C4.63999997,20.18 5.27999997,20.18 5.66999997,19.79 Z" id="path-1"></path>
    </defs>
    <g id="wb_iridescent" stroke="none" stroke-width="1" fill="none" fill-rule="evenodd">
        <mask id="mask-2" fill="white">
            <use xlink:href="#path-1"></use>
        </mask>
        <use id="Combined-Shape" fill="#000000" xlink:href="#path-1"></use>
    </g>
</svg>