<?xml version="1.0" encoding="UTF-8"?>
<svg width="24px" height="24px" viewBox="0 0 24 24" version="1.1" xmlns="http://www.w3.org/2000/svg" xmlns:xlink="http://www.w3.org/1999/xlink">
    <title>folder_open</title>
    <defs>
        <path d="M20,5.99999997 L12,5.99999997 L10.59,4.58999997 C10.21,4.20999997 9.69999999,3.99999997 9.16999999,3.99999997 L3.99999996,3.99999997 C2.89999996,3.99999997 2.00999996,4.89999997 2.00999996,5.99999997 L1.99999996,18 C1.99999996,19.1 2.89999996,20 3.99999996,20 L20,20 C21.1,20 22,19.1 22,18 L22,7.99999997 C22,6.89999998 21.1,5.99999997 20,5.99999997 Z M19,18 L4.99999997,18 C4.44999997,18 3.99999997,17.55 3.99999997,17 L3.99999997,8.99999998 C3.99999997,8.44999999 4.44999997,7.99999998 4.99999997,7.99999998 L19,7.99999998 C19.55,7.99999998 20,8.44999999 20,8.99999998 L20,17 C20,17.55 19.55,18 19,18 Z" id="path-1"></path>
    </defs>
    <g id="folder_open" stroke="none" stroke-width="1" fill="none" fill-rule="evenodd">
        <mask id="mask-2" fill="white">
            <use xlink:href="#path-1"></use>
        </mask>
        <use id="Combined-Shape" fill="#000000" xlink:href="#path-1"></use>
    </g>
</svg>