<?xml version="1.0" encoding="UTF-8"?>
<svg width="24px" height="24px" viewBox="0 0 24 24" version="1.1" xmlns="http://www.w3.org/2000/svg" xmlns:xlink="http://www.w3.org/1999/xlink">
    <title>agriculture</title>
    <defs>
        <path d="M19.5,12.97 C21.43,12.97 23,14.54 23,16.47 C23,18.4 21.43,19.97 19.5,19.97 C17.57,19.97 16,18.4 16,16.47 C16,14.54 17.57,12.97 19.5,12.97 Z M5.99999995,9.96999999 C6.63999998,9.96999999 7.25999998,10.11 7.80999998,10.32 L7.80999998,10.32 L7.40999998,11.22 L7.86999998,11.43 L8.26999998,10.54 C9.29999999,11.06 10.12,11.91 10.58,12.97 L10.58,12.97 L9.64999999,13.32 L9.82999999,13.79 L10.74,13.44 C10.89,13.92 11,14.43 11,14.96 C11,15.6 10.87,16.21 10.65,16.78 L10.65,16.78 L9.74999999,16.38 L9.53999999,16.84 L10.43,17.24 C9.90999999,18.27 9.05999999,19.09 7.99999995,19.55 L7.99999995,19.55 L7.64999998,18.62 L7.17999998,18.8 L7.52999998,19.71 C7.04999998,19.86 6.53999998,19.97 6.00999998,19.97 C5.36999997,19.97 4.75999997,19.84 4.18999997,19.62 L4.18999997,19.62 L4.58999997,18.72 L4.12999997,18.51 L3.72999997,19.4 C2.69999996,18.88 1.87999996,18.03 1.41999996,16.97 L1.41999996,16.97 L2.34999996,16.62 L2.16999996,16.15 L1.25999996,16.49 C1.10999995,16.01 0.999999954,15.5 0.999999954,14.97 C0.999999954,14.33 1.12999995,13.72 1.34999996,13.17 L1.34999996,13.17 L2.24999996,13.57 L2.45999996,13.11 L1.56999996,12.71 C2.08999996,11.68 2.93999996,10.86 3.99999995,10.4 L3.99999995,10.4 L4.34999997,11.32 L4.81999997,11.14 L4.47999997,10.23 C4.95999997,10.08 5.46999997,9.96999999 5.99999995,9.96999999 Z M8.76999999,13.83 C8.13999998,12.3 6.37999998,11.58 4.84999997,12.21 C3.31999996,12.84 2.59999996,14.6 3.22999996,16.13 C3.85999997,17.66 5.61999997,18.38 7.14999998,17.75 C8.67999999,17.11 9.40999999,15.36 8.76999999,13.83 Z M19.5,14.97 C18.67,14.97 18,15.64 18,16.47 C18,17.3 18.67,17.97 19.5,17.97 C20.33,17.97 21,17.3 21,16.47 C21,15.64 20.33,14.97 19.5,14.97 Z M13,3.13999996 C13.2,2.93999996 13.51,2.93999996 13.71,3.13999996 C13.91,3.33999996 13.91,3.64999997 13.71,3.84999997 L13.71,3.84999997 L12.65,4.90999997 L13.71,5.96999997 L20,5.96999997 C21.1,5.96999997 22,6.86999998 22,7.96999998 L22,7.96999998 L22,12.73 C21.28,12.25 20.43,11.97 19.5,11.97 C17.19,11.97 15.3,13.73 15.05,15.97 L15.05,15.97 L11.91,15.97 C11.96,15.64 12,15.31 12,14.97 C12,13.43 11.41,12.03 10.46,10.97 L10.46,10.97 L11,10.97 C12.1,10.97 13,10.07 13,8.96999999 L13,8.96999999 L13,6.67999998 L11.94,5.61999997 L10.88,6.67999998 C10.68,6.87999998 10.37,6.87999998 10.17,6.67999998 L10.17,6.67999998 L10.1107407,6.60956102 C9.97246913,6.41246911 9.99222221,6.14777775 10.17,5.96999997 L10.17,5.96999997 Z M6.99999996,6.96999998 C8.09999998,6.96999998 8.99999996,7.86999998 8.99999996,8.96999998 L8.99999996,8.96999998 L3.99999996,8.96999998 C3.44999996,8.96999998 2.99999996,8.52999999 2.99999996,7.96999998 C2.99999996,7.41999998 3.44999996,6.96999998 3.99999996,6.96999998 L3.99999996,6.96999998 Z" id="path-1"></path>
    </defs>
    <g id="agriculture" stroke="none" stroke-width="1" fill="none" fill-rule="evenodd">
        <mask id="mask-2" fill="white">
            <use xlink:href="#path-1"></use>
        </mask>
        <use id="Combined-Shape" fill="#000000" xlink:href="#path-1"></use>
    </g>
</svg>