<?xml version="1.0" encoding="UTF-8"?>
<svg width="24px" height="24px" viewBox="0 0 24 24" version="1.1" xmlns="http://www.w3.org/2000/svg" xmlns:xlink="http://www.w3.org/1999/xlink">
    <title>alt_route</title>
    <defs>
        <path d="M9.77999999,11.16 L8.35999998,12.58 C7.67999998,11.89 7.01999998,11 6.56999998,9.63999999 L8.50999999,9.14999999 C8.82999999,10.04 9.27999999,10.65 9.77999999,11.16 Z M10.15,5.14999997 L7.34999998,2.34999996 C7.14999998,2.14999996 6.83999998,2.14999996 6.63999998,2.34999996 L3.84999997,5.14999997 C3.53999996,5.45999997 3.75999997,5.99999998 4.20999997,5.99999998 L6.01999998,5.99999998 C6.03999998,6.80999998 6.09999998,7.53999998 6.20999998,8.16999998 L8.14999998,7.67999998 C8.07999998,7.19999996 8.02999998,6.62999998 8.01999998,5.99999998 L9.79999999,5.99999998 C10.24,5.99999998 10.46,5.45999997 10.15,5.14999997 Z M20.15,5.14999997 L17.36,2.35999996 C17.16,2.15999996 16.85,2.15999996 16.65,2.35999996 L13.86,5.14999997 C13.54,5.45999997 13.76,5.99999998 14.21,5.99999998 L15.99,5.99999998 C15.89,9.67999999 14.71,10.75 13.45,11.88 C12.95,12.32 12.44,12.8 12,13.43 C11.66,12.94 11.27,12.55 10.87,12.19 L9.45999999,13.6 C10.39,14.45 11,15.14 11,17 C11,17 11,17 11,17 L11,17 L11,21 C11,21.55 11.45,22 12,22 L12,22 C12.55,22 13,21.55 13,21 L13,17 C13,17 13,17 13,17 C13,14.98 13.71,14.34 14.79,13.37 C16.17,12.13 17.87,10.59 17.99,5.99999998 L19.79,5.99999998 C20.24,5.99999998 20.46,5.45999997 20.15,5.14999997 Z" id="path-1"></path>
    </defs>
    <g id="alt_route" stroke="none" stroke-width="1" fill="none" fill-rule="evenodd">
        <mask id="mask-2" fill="white">
            <use xlink:href="#path-1"></use>
        </mask>
        <use id="Combined-Shape" fill="#000000" xlink:href="#path-1"></use>
    </g>
</svg>