<?xml version="1.0" encoding="UTF-8"?>
<svg width="24px" height="24px" viewBox="0 0 24 24" version="1.1" xmlns="http://www.w3.org/2000/svg" xmlns:xlink="http://www.w3.org/1999/xlink">
    <title>atm</title>
    <defs>
        <path d="M7.99999998,9.74999999 C7.99999998,10.16 8.33999998,10.5 8.74999999,10.5 L10.25,10.5 L10.25,14.25 C10.25,14.66 10.59,15 11,15 C11.41,15 11.75,14.66 11.75,14.25 L11.75,10.5 L13.25,10.5 C13.66,10.5 14,10.16 14,9.74999999 C14,9.33999999 13.66,8.99999999 13.25,8.99999999 L8.74999999,8.99999999 C8.33999998,8.99999999 7.99999998,9.33999999 7.99999998,9.74999999 Z M5.99999996,8.99999999 L2.99999996,8.99999999 C2.44999996,8.99999999 1.99999996,9.44999999 1.99999996,9.99999999 L1.99999996,14.25 C1.99999996,14.66 2.33999996,15 2.74999996,15 C3.15999996,15 3.49999996,14.66 3.49999996,14.25 L3.49999996,13.5 L5.49999996,13.5 L5.49999996,14.25 C5.49999996,14.66 5.83999997,15 6.24999998,15 C6.65999998,15 6.99999996,14.66 6.99999996,14.25 L6.99999996,9.99999999 C6.99999996,9.44999999 6.54999998,8.99999999 5.99999996,8.99999999 Z M5.49999996,12 L3.49999996,12 L3.49999996,10.5 L5.49999996,10.5 L5.49999996,12 Z M21,8.99999999 L16.5,8.99999999 C15.95,8.99999999 15.5,9.44999999 15.5,9.99999999 L15.5,14.25 C15.5,14.66 15.84,15 16.25,15 C16.66,15 17,14.66 17,14.25 L17,10.5 L18,10.5 L18,13.25 C18,13.66 18.34,14 18.75,14 C19.16,14 19.5,13.66 19.5,13.25 L19.5,10.49 L20.5,10.49 L20.5,14.25 C20.5,14.66 20.84,15 21.25,15 C21.66,15 22,14.66 22,14.25 L22,9.99999999 C22,9.44999999 21.55,8.99999999 21,8.99999999 Z" id="path-1"></path>
    </defs>
    <g id="atm" stroke="none" stroke-width="1" fill="none" fill-rule="evenodd">
        <mask id="mask-2" fill="white">
            <use xlink:href="#path-1"></use>
        </mask>
        <use id="Combined-Shape" fill="#000000" xlink:href="#path-1"></use>
    </g>
</svg>