<?xml version="1.0" encoding="UTF-8"?>
<svg width="24px" height="24px" viewBox="0 0 24 24" version="1.1" xmlns="http://www.w3.org/2000/svg" xmlns:xlink="http://www.w3.org/1999/xlink">
    <title>bike_scooter</title>
    <defs>
        <path d="M9.99999998,15 C11.66,15 13,16.34 13,18 C13,19.66 11.66,21 9.99999998,21 C8.33999998,21 6.99999998,19.66 6.99999998,18 C6.99999998,16.34 8.33999998,15 9.99999998,15 Z M6.86999998,3.99999997 C7.79999998,3.99999997 8.60999999,4.64999997 8.81999999,5.55999997 L8.81999999,5.55999997 L10.74,14 L9.99999995,14 C7.78999998,14 5.99999995,15.79 5.99999995,18 L5.99999995,18 L5.99999995,19 L-4.99999029e-08,19 L-4.99999029e-08,17 L4.08999997,17 C4.46999997,14.73 6.11999998,12.9 8.27999998,12.25 L8.27999998,12.25 L8.28999998,12.25 L6.86999998,5.99999997 L3.99999995,5.99999997 C3.44999996,5.99999997 2.99999995,5.54999997 2.99999995,4.99999997 L2.99999995,4.99999997 L3.00676015,4.88380099 C3.06479587,4.38801017 3.48928568,3.99999997 3.99999995,3.99999997 L3.99999995,3.99999997 Z M9.99999999,17 C9.44999999,17 8.99999999,17.45 8.99999999,18 C8.99999999,18.55 9.44999999,19 9.99999999,19 C10.55,19 11,18.55 11,18 C11,17.45 10.55,17 9.99999999,17 Z M14.96,2.99999996 C15.8,2.99999996 16.55,3.51999996 16.84,4.30999997 L16.84,4.30999997 L18.19,7.99999996 L18.75,7.99999996 C21.13,7.99999996 23.34,9.56999999 23.87,11.89 C24.6300001,15.16 21.91,18.14 18.75,17.99 C16.41,17.88 14.54,16.23 14.1,14 L14.1,14 L11.77,14 L11.31,12 L14.1,12 C14.25,11.25 14.57,10.58 15,9.99999996 L15,9.99999996 L10.86,9.99999996 L10.4,7.99999996 L16.06,7.99999996 L14.96,4.99999996 L12,4.99999996 C11.45,4.99999996 11,4.54999997 11,3.99999996 L11,3.99999996 L11.0067602,3.88380098 C11.0647959,3.38801017 11.4892857,2.99999996 12,2.99999996 L12,2.99999996 Z M19.1056067,10.0007085 L18.93,9.99999999 C18.92,10.01 18.92,10.01 18.92,10.01 L18.92,10.01 L19.55,11.74 C19.74,12.26 19.47,12.83 18.95,13.02 L18.95,13.02 L18.8379629,13.05375 C18.3505102,13.1701531 17.8464286,12.9028571 17.67,12.42 L17.67,12.42 L17.05,10.72 C16.39,11.28 15.98,12.12 16,13.08 C16.04,14.63 17.34,15.94 18.88,16 C20.62,16.06 22,14.72 22,13 C22,11.29 20.64,9.95999999 18.93,9.99999999 Z" id="path-1"></path>
    </defs>
    <g id="bike_scooter" stroke="none" stroke-width="1" fill="none" fill-rule="evenodd">
        <mask id="mask-2" fill="white">
            <use xlink:href="#path-1"></use>
        </mask>
        <use id="Combined-Shape" fill="#000000" xlink:href="#path-1"></use>
    </g>
</svg>