<?xml version="1.0" encoding="UTF-8"?>
<svg width="24px" height="24px" viewBox="0 0 24 24" version="1.1" xmlns="http://www.w3.org/2000/svg" xmlns:xlink="http://www.w3.org/1999/xlink">
    <title>departure_board</title>
    <defs>
        <path d="M17.34,1.12999995 C14.4,0.579999952 11.71,1.87999996 10.22,4.04999997 C10.23,4.03999997 10.23,4.02999997 10.24,4.01999997 C9.83999999,3.99999997 9.41999999,3.99999997 8.99999995,3.99999997 C4.57999997,3.99999997 0.999999954,4.49999997 0.999999954,7.99999998 L0.999999954,18 C0.999999954,18.88 1.38999996,19.67 1.99999995,20.22 L1.99999995,21.5 C1.99999995,22.33 2.66999996,23 3.49999995,23 C4.32999997,23 4.99999995,22.33 4.99999995,21.5 L4.99999995,21 L13,21 L13,21.5 C13,22.32 13.67,23 14.5,23 C15.32,23 16,22.33 16,21.5 L16,20.22 C16.61,19.67 17,18.88 17,18 L17,14.92 C20.72,14.38 23.5,10.94 22.92,6.94999998 C22.5,4.04999997 20.22,1.65999996 17.34,1.12999995 L17.34,1.12999995 Z M4.49999996,19 C3.66999997,19 2.99999996,18.33 2.99999996,17.5 C2.99999996,16.67 3.66999997,16 4.49999996,16 C5.32999997,16 5.99999996,16.67 5.99999996,17.5 C5.99999996,18.33 5.32999997,19 4.49999996,19 Z M2.99999996,13 L2.99999996,7.99999998 L8.99999996,7.99999998 C8.99999996,9.95999999 9.80999999,11.73 11.11,13 L2.99999996,13 Z M13.5,19 C12.67,19 12,18.33 12,17.5 C12,16.67 12.67,16 13.5,16 C14.33,16 15,16.67 15,17.5 C15,18.33 14.33,19 13.5,19 Z M16,13 C13.24,13 11,10.76 11,7.99999996 C11,5.23999997 13.24,2.99999996 16,2.99999996 C18.76,2.99999996 21,5.23999997 21,7.99999996 C21,10.76 18.76,13 16,13 Z M15.75,3.99999997 C15.34,3.99999997 15,4.33999997 15,4.74999997 L15,8.42999999 C15,8.77999999 15.19,9.10999999 15.49,9.28999999 L18.01,10.8 C18.35,11 18.79,10.89 18.99,10.56 C19.2,10.22 19.09,9.76999999 18.74,9.56999999 L16.5,8.24999998 L16.5,4.74999997 C16.5,4.33999997 16.16,3.99999997 15.75,3.99999997 Z" id="path-1"></path>
    </defs>
    <g id="departure_board" stroke="none" stroke-width="1" fill="none" fill-rule="evenodd">
        <mask id="mask-2" fill="white">
            <use xlink:href="#path-1"></use>
        </mask>
        <use id="Combined-Shape" fill="#000000" xlink:href="#path-1"></use>
    </g>
</svg>