<?xml version="1.0" encoding="UTF-8"?>
<svg width="24px" height="24px" viewBox="0 0 24 24" version="1.1" xmlns="http://www.w3.org/2000/svg" xmlns:xlink="http://www.w3.org/1999/xlink">
    <title>design_services</title>
    <defs>
        <path d="M5.51999997,3.62999997 C6.29999998,2.84999996 7.56999998,2.84999996 8.34999998,3.62999997 L8.34999998,3.62999997 L12.49,7.75999998 L14.06,6.18999998 L17.81,9.93999999 L16.24,11.51 L20.37,15.63 C21.15,16.41 21.15,17.68 20.37,18.46 L20.37,18.46 L18.47,20.36 C18.4,20.43 16.96,21.68 15.64,20.36 L15.64,20.36 L11.51,16.23 L6.88999998,20.85 C6.79999998,20.95 6.66999998,21 6.53999998,21 L6.53999998,21 L3.49999996,21 C3.21999996,21 2.99999996,20.78 2.99999996,20.5 L2.99999996,20.5 L2.99999996,17.46 C2.99999996,17.32 3.04999996,17.2 3.14999996,17.1 L3.14999996,17.1 L7.74999998,12.49 L3.61999997,8.35999998 C2.83999996,7.57999998 2.83999996,6.30999998 3.61999997,5.52999997 L3.61999997,5.52999997 Z M14.83,12.93 L12.93,14.83 L17.06,18.96 L18.96,17.06 L17.69,15.79 L17.21,16.27 C16.82,16.66 16.19,16.66 15.8,16.27 C15.41,15.88 15.41,15.25 15.8,14.86 L15.8,14.86 L16.28,14.38 L14.83,12.93 Z M6.92999998,5.03999997 L5.03999997,6.93999998 L9.17999999,11.07 L11.07,9.17999999 L9.61999999,7.72999998 L9.13999999,8.20999998 C8.74999999,8.59999999 8.11999998,8.59999999 7.72999998,8.20999998 C7.33999998,7.81999998 7.33999998,7.18999998 7.72999998,6.79999998 L7.72999998,6.79999998 L8.19999998,6.30999998 L6.92999998,5.03999997 L6.92999998,5.03999997 Z M16.96,3.28999996 C17.25,2.99999996 17.9,2.81999996 18.37,3.28999996 L18.37,3.28999996 L20.71,5.62999997 C21.1,6.01999998 21.1,6.64999998 20.71,7.03999998 L20.71,7.03999998 L18.88,8.86999999 L15.13,5.11999997 Z" id="path-1"></path>
    </defs>
    <g id="design_services" stroke="none" stroke-width="1" fill="none" fill-rule="evenodd">
        <mask id="mask-2" fill="white">
            <use xlink:href="#path-1"></use>
        </mask>
        <use id="Combined-Shape" fill="#000000" xlink:href="#path-1"></use>
    </g>
</svg>