<?xml version="1.0" encoding="UTF-8"?>
<svg width="24px" height="24px" viewBox="0 0 24 24" version="1.1" xmlns="http://www.w3.org/2000/svg" xmlns:xlink="http://www.w3.org/1999/xlink">
    <title>edit_road</title>
    <defs>
        <path d="M4.99999997,3.99999997 L5.11619895,4.00676017 C5.61198977,4.06479589 5.99999997,4.48928568 5.99999997,4.99999997 L5.99999997,4.99999997 L5.99999997,19 C5.99999997,19.55 5.54999997,20 4.99999997,20 L4.99999997,20 L4.88380099,19.9932398 C4.38801017,19.9352041 3.99999997,19.5107143 3.99999997,19 L3.99999997,19 L3.99999997,4.99999997 C3.99999997,4.44999997 4.44999997,3.99999997 4.99999997,3.99999997 L4.99999997,3.99999997 Z M11,16 L11.116199,16.0067602 C11.6119898,16.0647959 12,16.4892857 12,17 L12,17 L12,19 C12,19.55 11.55,20 11,20 L11,20 L10.883801,19.9932398 C10.3880102,19.9352041 9.99999999,19.5107143 9.99999999,19 L9.99999999,19 L9.99999999,17 C9.99999999,16.45 10.45,16 11,16 L11,16 Z M19.29,11.44 C19.87,10.85 20.82,10.85 21.41,11.44 L21.41,11.44 L22.56,12.59 C23.15,13.17 23.15,14.12 22.56,14.71 L22.56,14.71 L17.27,20 L14.5,20 C14.22,20 14,19.78 14,19.5 L14,19.5 L14,16.73 Z M19,13.97 L15.55,17.42 L15.55,18.45 L16.58,18.45 L20.03,15 L19,13.97 Z M11,9.99999999 L11.116199,10.0067602 C11.6119898,10.0647959 12,10.4892857 12,11 L12,11 L12,13 C12,13.55 11.55,14 11,14 L11,14 L10.883801,13.9932398 C10.3880102,13.9352041 9.99999999,13.5107143 9.99999999,13 L9.99999999,13 L9.99999999,11 C9.99999999,10.45 10.45,9.99999999 11,9.99999999 L11,9.99999999 Z M17,3.99999997 L17.116199,4.00676017 C17.6119898,4.06479589 18,4.48928568 18,4.99999997 L18,4.99999997 L18,9.89999999 L16,11.9 L16,4.99999997 C16,4.44999997 16.45,3.99999997 17,3.99999997 L17,3.99999997 Z M11,3.99999997 L11.116199,4.00676017 C11.6119898,4.06479589 12,4.48928568 12,4.99999997 L12,4.99999997 L12,6.99999997 C12,7.54999998 11.55,7.99999997 11,7.99999997 L11,7.99999997 L10.883801,7.99323976 C10.3880102,7.93520405 9.99999999,7.51071427 9.99999999,6.99999997 L9.99999999,6.99999997 L9.99999999,4.99999997 C9.99999999,4.44999997 10.45,3.99999997 11,3.99999997 L11,3.99999997 Z" id="path-1"></path>
    </defs>
    <g id="edit_road" stroke="none" stroke-width="1" fill="none" fill-rule="evenodd">
        <mask id="mask-2" fill="white">
            <use xlink:href="#path-1"></use>
        </mask>
        <use id="Combined-Shape" fill="#000000" xlink:href="#path-1"></use>
    </g>
</svg>