<?xml version="1.0" encoding="UTF-8"?>
<svg width="24px" height="24px" viewBox="0 0 24 24" version="1.1" xmlns="http://www.w3.org/2000/svg" xmlns:xlink="http://www.w3.org/1999/xlink">
    <title>electric_bike</title>
    <defs>
        <path d="M11,18 L17,21 L13,21 L13,23 L6.99999998,20 L11,20 L11,18 Z M14.6,0.999999954 C15.44,0.999999954 16.19,1.52999996 16.48,2.31999996 L16.48,2.31999996 L18.18,6.99999995 L19,6.99999995 C21.8,6.99999995 24,9.19999999 24,11.99 C24,14.8 21.55,17.12 18.75,16.99 C16.41,16.88 14.54,15.23 14.1,13 L14.1,13 L9.89999999,13 C9.44999999,15.31 7.45999998,17 4.99999995,17 C2.19999996,17 -4.9999926e-08,14.8 -4.9999926e-08,12 C-4.9999926e-08,9.19999999 2.44999996,6.86999998 5.24999997,7.00999998 C7.58999998,7.11999998 9.45999999,8.76999999 9.89999999,11 L9.89999999,11 L10.57,11 L8.74999999,5.99999995 L7.99999995,5.99999995 C7.44999998,5.99999995 6.99999995,5.54999997 6.99999995,4.99999995 C6.99999995,4.44999997 7.44999998,3.99999995 7.99999995,3.99999995 L7.99999995,3.99999995 L10.98,3.99999995 C11.53,3.99999995 11.98,4.44999997 11.98,4.99999995 C11.98,5.54999997 11.53,5.99999995 10.98,5.99999995 L10.98,5.99999995 L10.89,5.99999995 L11.25,6.99999995 L16.06,6.99999995 L14.6,2.99999995 L13,2.99999995 C12.45,2.99999995 12,2.54999996 12,1.99999995 C12,1.44999996 12.45,0.999999954 13,0.999999954 L13,0.999999954 Z M19.1056067,9.0007085 L18.93,8.99999999 C18.92,9.00999999 18.92,9.00999999 18.92,9.00999999 L18.92,9.00999999 L19.55,10.74 C19.74,11.26 19.47,11.83 18.95,12.02 C18.43,12.21 17.86,11.94 17.67,11.42 L17.67,11.42 L17.05,9.71999999 C16.39,10.28 15.98,11.12 16,12.08 C16.04,13.63 17.34,14.94 18.88,15 C20.62,15.06 22,13.72 22,12 C22,10.29 20.64,8.95999999 18.93,8.99999999 Z M4.99999997,8.99999999 C3.26999996,8.99999999 1.92999996,10.39 1.99999996,12.14 C2.06999996,13.64 3.30999996,14.9 4.79999997,14.99 C6.21999998,15.08 7.39999998,14.23 7.81999998,13 L7.81999998,13 L5.99999998,13 C5.44999997,13 4.99999997,12.55 4.99999997,12 C4.99999997,11.45 5.44999997,11 5.99999998,11 L5.99999998,11 L7.81999998,11 C7.41999998,9.82999999 6.32999998,8.99999999 4.99999997,8.99999999 Z M15,8.99999999 L11.97,8.99999999 L12.7,11 L14.1,11 C14.24,10.25 14.56,9.57999999 15,8.99999999 L15,8.99999999 Z" id="path-1"></path>
    </defs>
    <g id="electric_bike" stroke="none" stroke-width="1" fill="none" fill-rule="evenodd">
        <mask id="mask-2" fill="white">
            <use xlink:href="#path-1"></use>
        </mask>
        <use id="Combined-Shape" fill="#000000" xlink:href="#path-1"></use>
    </g>
</svg>