<?xml version="1.0" encoding="UTF-8"?>
<svg width="24px" height="24px" viewBox="0 0 24 24" version="1.1" xmlns="http://www.w3.org/2000/svg" xmlns:xlink="http://www.w3.org/1999/xlink">
    <title>electric_car</title>
    <defs>
        <path d="M11,18 L17,21 L13,21 L13,23 L6.99999998,20 L11,20 L11,18 Z M17.5,0.999999954 C18.16,0.999999954 18.72,1.41999996 18.92,2.00999996 L18.92,2.00999996 L20.89,7.67999998 C20.96,7.88999998 21,8.11999998 21,8.33999998 L21,8.33999998 L21,15.5 C21,16.33 20.32,17 19.5,17 L19.5,17 L19.3552941,16.993051 C18.5934948,16.9195155 18,16.2717647 18,15.5 L18,15.5 L18,15 L5.99999996,15 L5.99999996,15.5 C5.99999996,16.33 5.32999997,17 4.49999996,17 L4.49999996,17 L4.35529408,16.9931487 C3.59349477,16.9206228 2.99999996,16.2811765 2.99999996,15.5 L2.99999996,15.5 L2.99999996,8.33999998 C2.99999996,8.10999998 3.03999996,7.88999998 3.10999996,7.67999998 L3.10999996,7.67999998 L5.07999997,2.00999996 C5.28999997,1.41999996 5.83999997,0.999999954 6.49999996,0.999999954 L6.49999996,0.999999954 Z M6.49999997,8.99999999 C5.66999997,8.99999999 4.99999997,9.66999999 4.99999997,10.5 C4.99999997,11.33 5.66999997,12 6.49999997,12 C7.32999998,12 7.99999997,11.33 7.99999997,10.5 C7.99999997,9.66999999 7.32999998,8.99999999 6.49999997,8.99999999 Z M17.5,8.99999999 C16.67,8.99999999 16,9.66999999 16,10.5 C16,11.33 16.67,12 17.5,12 C18.33,12 19,11.33 19,10.5 C19,9.66999999 18.33,8.99999999 17.5,8.99999999 Z M16.78,2.49999996 L7.21999998,2.49999996 C6.78999998,2.49999996 6.40999998,2.77999996 6.26999998,3.17999996 L6.26999998,3.17999996 L4.99999997,6.99999996 L19,6.99999996 L17.73,3.17999996 C17.59,2.77999996 17.21,2.49999996 16.78,2.49999996 L16.78,2.49999996 Z" id="path-1"></path>
    </defs>
    <g id="electric_car" stroke="none" stroke-width="1" fill="none" fill-rule="evenodd">
        <mask id="mask-2" fill="white">
            <use xlink:href="#path-1"></use>
        </mask>
        <use id="Combined-Shape" fill="#000000" xlink:href="#path-1"></use>
    </g>
</svg>