<?xml version="1.0" encoding="UTF-8"?>
<svg width="24px" height="24px" viewBox="0 0 24 24" version="1.1" xmlns="http://www.w3.org/2000/svg" xmlns:xlink="http://www.w3.org/1999/xlink">
    <title>electric_moped</title>
    <defs>
        <path d="M11,18 L17,21 L13,21 L13,23 L6.99999998,20 L11,20 L11,18 Z M17,2.99999996 C18.1,2.99999996 19,3.89999997 19,4.99999996 L19,4.99999996 L19,8.34999998 L14.48,14 L9.99999996,14 C9.99999996,15.66 8.65999999,17 6.99999996,17 C5.33999997,17 3.99999996,15.66 3.99999996,14 L3.99999996,14 L1.99999996,14 L1.99999996,11 C1.99999996,8.78999999 3.78999997,6.99999996 5.99999996,6.99999996 L5.99999996,6.99999996 L8.99999996,6.99999996 C9.54999999,6.99999996 9.99999996,7.44999998 9.99999996,7.99999996 L9.99999996,7.99999996 L9.99999996,12 L13.52,12 L17,7.64999998 L17,4.99999996 L15,4.99999996 C14.45,4.99999996 14,4.54999997 14,3.99999996 L14,3.99999996 L14.0067602,3.88380098 C14.0647959,3.38801017 14.4892857,2.99999996 15,2.99999996 L15,2.99999996 Z M19,11 C20.66,11 22,12.34 22,14 C22,15.66 20.66,17 19,17 C17.34,17 16,15.66 16,14 C16,12.34 17.34,11 19,11 Z M7.99999997,14 L5.99999997,14 C5.99999997,14.55 6.44999998,15 6.99999997,15 C7.54999998,15 7.99999997,14.55 7.99999997,14 L7.99999997,14 Z M19,13 C18.45,13 18,13.45 18,14 C18,14.55 18.45,15 19,15 C19.55,15 20,14.55 20,14 C20,13.45 19.55,13 19,13 Z M8.99999997,3.99999997 C9.54999999,3.99999997 9.99999997,4.44999997 9.99999997,4.99999997 L9.99999997,4.99999997 L9.99323977,5.11619895 C9.93520405,5.61198977 9.51071427,5.99999997 8.99999997,5.99999997 L8.99999997,5.99999997 L5.99999997,5.99999997 C5.44999997,5.99999997 4.99999997,5.54999997 4.99999997,4.99999997 L4.99999997,4.99999997 L5.00676017,4.88380099 C5.06479589,4.38801017 5.48928569,3.99999997 5.99999997,3.99999997 L5.99999997,3.99999997 Z" id="path-1"></path>
    </defs>
    <g id="electric_moped" stroke="none" stroke-width="1" fill="none" fill-rule="evenodd">
        <mask id="mask-2" fill="white">
            <use xlink:href="#path-1"></use>
        </mask>
        <use id="Combined-Shape" fill="#000000" xlink:href="#path-1"></use>
    </g>
</svg>