<?xml version="1.0" encoding="UTF-8"?>
<svg width="24px" height="24px" viewBox="0 0 24 24" version="1.1" xmlns="http://www.w3.org/2000/svg" xmlns:xlink="http://www.w3.org/1999/xlink">
    <title>local_atm</title>
    <defs>
        <path d="M20,3.99999997 L3.99999996,3.99999997 C2.88999996,3.99999997 2.00999996,4.88999997 2.00999996,5.99999997 L1.99999996,18 C1.99999996,19.11 2.88999996,20 3.99999996,20 L20,20 C21.11,20 22,19.11 22,18 L22,5.99999997 C22,4.88999997 21.11,3.99999997 20,3.99999997 Z M20,17 C20,17.55 19.55,18 19,18 L4.99999997,18 C4.44999997,18 3.99999997,17.55 3.99999997,17 L3.99999997,6.99999998 C3.99999997,6.44999998 4.44999997,5.99999998 4.99999997,5.99999998 L19,5.99999998 C19.55,5.99999998 20,6.44999998 20,6.99999998 L20,17 Z M14,9.99999999 C14.55,9.99999999 15,9.54999999 15,8.99999999 C15,8.44999999 14.55,7.99999998 14,7.99999998 L13,7.99999998 L13,7.98999998 C13,7.43999998 12.55,6.98999998 12,6.98999998 C11.45,6.98999998 11,7.43999998 11,7.98999998 L11,7.99999998 L9.99999999,7.99999998 C9.44999999,7.99999998 8.99999999,8.44999999 8.99999999,8.99999999 L8.99999999,12 C8.99999999,12.55 9.44999999,13 9.99999999,13 L13,13 L13,14 L9.99999999,14 C9.44999999,14 8.99999999,14.45 8.99999999,15 C8.99999999,15.55 9.44999999,16 9.99999999,16 L11,16 C11,16.55 11.45,17 12,17 C12.55,17 13,16.55 13,16 L14,16 C14.55,16 15,15.55 15,15 L15,12 C15,11.45 14.55,11 14,11 L11,11 L11,9.99999999 L14,9.99999999 Z" id="path-1"></path>
    </defs>
    <g id="local_atm" stroke="none" stroke-width="1" fill="none" fill-rule="evenodd">
        <mask id="mask-2" fill="white">
            <use xlink:href="#path-1"></use>
        </mask>
        <use id="Combined-Shape" fill="#000000" xlink:href="#path-1"></use>
    </g>
</svg>