<?xml version="1.0" encoding="UTF-8"?>
<svg width="24px" height="24px" viewBox="0 0 24 24" version="1.1" xmlns="http://www.w3.org/2000/svg" xmlns:xlink="http://www.w3.org/1999/xlink">
    <title>local_convenience_store</title>
    <defs>
        <path d="M21,6.99999997 L19,6.99999997 L19,4.99999997 C19,4.44999997 18.55,3.99999997 18,3.99999997 L5.99999996,3.99999997 C5.44999997,3.99999997 4.99999996,4.44999997 4.99999996,4.99999997 L4.99999996,6.99999997 L2.99999996,6.99999997 C2.44999996,6.99999997 1.99999996,7.44999998 1.99999996,7.99999997 L1.99999996,19 C1.99999996,19.55 2.44999996,20 2.99999996,20 L8.99999996,20 C9.54999999,20 9.99999996,19.55 9.99999996,19 L9.99999996,16 L14,16 L14,19 C14,19.55 14.45,20 15,20 L21,20 C21.55,20 22,19.55 22,19 L22,7.99999997 C22,7.44999998 21.55,6.99999997 21,6.99999997 Z M11,8.99999998 C11,9.54999999 10.55,9.99999998 9.99999998,9.99999998 L8.99999998,9.99999998 L8.99999998,11 L10.5,11 C10.78,11 11,11.22 11,11.5 C11,11.78 10.78,12 10.5,12 L8.99999998,12 C8.44999999,12 7.99999998,11.55 7.99999998,11 L7.99999998,9.99999998 C7.99999998,9.44999999 8.44999999,8.99999998 8.99999998,8.99999998 L9.99999998,8.99999998 L9.99999998,7.99999998 L8.49999998,7.99999998 C8.21999998,7.99999998 7.99999998,7.77999998 7.99999998,7.49999998 C7.99999998,7.21999998 8.21999998,6.99999998 8.49999998,6.99999998 L9.99999998,6.99999998 C10.55,6.99999998 11,7.44999998 11,7.99999998 L11,8.99999998 Z M16,11.5 C16,11.78 15.78,12 15.5,12 C15.22,12 15,11.78 15,11.5 L15,9.99999998 L14,9.99999998 C13.45,9.99999998 13,9.54999999 13,8.99999998 L13,7.49999998 C13,7.21999998 13.22,6.99999998 13.5,6.99999998 C13.78,6.99999998 14,7.21999998 14,7.49999998 L14,8.99999998 L15,8.99999998 L15,7.49999998 C15,7.21999998 15.22,6.99999998 15.5,6.99999998 C15.78,6.99999998 16,7.21999998 16,7.49999998 L16,11.5 Z" id="path-1"></path>
    </defs>
    <g id="local_convenience_store" stroke="none" stroke-width="1" fill="none" fill-rule="evenodd">
        <mask id="mask-2" fill="white">
            <use xlink:href="#path-1"></use>
        </mask>
        <use id="Combined-Shape" fill="#000000" xlink:href="#path-1"></use>
    </g>
</svg>