<?xml version="1.0" encoding="UTF-8"?>
<svg width="24px" height="24px" viewBox="0 0 24 24" version="1.1" xmlns="http://www.w3.org/2000/svg" xmlns:xlink="http://www.w3.org/1999/xlink">
    <title>local_florist</title>
    <defs>
        <path d="M12,22 C16.56,22 20.33,18.6 20.92,14.2 C21.01,13.56 20.44,12.99 19.8,13.08 C15.4,13.67 12,17.44 12,22 Z M5.59999997,10.25 C5.59999997,11.63 6.71999998,12.75 8.09999997,12.75 C8.62999999,12.75 9.10999999,12.59 9.51999999,12.31 L9.49999999,12.5 C9.49999999,13.88 10.62,15 12,15 C13.38,15 14.5,13.88 14.5,12.5 L14.48,12.31 C14.88,12.59 15.37,12.75 15.9,12.75 C17.28,12.75 18.4,11.63 18.4,10.25 C18.4,9.24999999 17.81,8.39999999 16.97,7.99999995 C17.81,7.59999998 18.4,6.74999998 18.4,5.74999997 C18.4,4.36999997 17.28,3.24999996 15.9,3.24999996 C15.37,3.24999996 14.89,3.40999996 14.48,3.68999997 L14.5,3.49999995 C14.5,2.11999996 13.38,0.999999954 12,0.999999954 C10.62,0.999999954 9.49999999,2.11999996 9.49999999,3.49999995 L9.51999999,3.68999997 C9.11999999,3.40999996 8.62999999,3.24999996 8.09999997,3.24999996 C6.71999998,3.24999996 5.59999997,4.36999997 5.59999997,5.74999997 C5.59999997,6.74999998 6.18999998,7.59999998 7.02999998,7.99999995 C6.18999998,8.39999999 5.59999997,9.24999999 5.59999997,10.25 Z M12,5.49999997 C13.38,5.49999997 14.5,6.61999998 14.5,7.99999997 C14.5,9.37999999 13.38,10.5 12,10.5 C10.62,10.5 9.49999999,9.37999999 9.49999999,7.99999997 C9.49999999,6.61999998 10.62,5.49999997 12,5.49999997 Z M3.07999996,14.2 C3.66999997,18.6 7.43999998,22 12,22 C12,17.44 8.59999999,13.67 4.19999997,13.08 C3.55999996,12.99 2.98999996,13.56 3.07999996,14.2 Z" id="path-1"></path>
    </defs>
    <g id="local_florist" stroke="none" stroke-width="1" fill="none" fill-rule="evenodd">
        <mask id="mask-2" fill="white">
            <use xlink:href="#path-1"></use>
        </mask>
        <use id="Combined-Shape" fill="#000000" xlink:href="#path-1"></use>
    </g>
</svg>