<?xml version="1.0" encoding="UTF-8"?>
<svg width="24px" height="24px" viewBox="0 0 24 24" version="1.1" xmlns="http://www.w3.org/2000/svg" xmlns:xlink="http://www.w3.org/1999/xlink">
    <title>maps_ugc</title>
    <defs>
        <path d="M12,1.99999996 C17.85,1.99999996 22.53,7.02999998 21.96,12.99 C21.51,17.56 17.86,21.32 13.3,21.91 C11.28,22.17 9.37999999,21.81 7.71999998,21.02 L7.71999998,21.02 L2.75999996,22.48 C1.99999996,22.71 1.28999996,22 1.50999996,21.25 L1.50999996,21.25 L2.96999996,16.29 C2.35999996,14.98 1.99999996,13.54 1.99999996,12 C1.99999996,6.47999998 6.47999998,1.99999996 12,1.99999996 Z M12,3.99999997 C7.58999998,3.99999997 3.99999997,7.58999998 3.99999997,12 C3.99999997,13.18 4.25999997,14.34 4.76999997,15.42 C4.97999997,15.85 5.03999997,16.32 4.90999997,16.77 L4.90999997,16.77 L4.20999997,19.16 C4.09999997,19.55 4.45999997,19.9 4.83999997,19.79 L4.83999997,19.79 L7.14999998,19.11 C7.32999998,19.06 7.51999998,19.03 7.70999998,19.03 C8.00999998,19.03 8.29999998,19.09 8.56999999,19.22 C10.01,19.91 11.56,20.14 13.15,19.92 C16.42,19.46 19.14,16.95 19.82,13.72 C20.9,8.55999999 16.97,3.99999997 12,3.99999997 Z M12,7.99999998 L12.116199,8.00676019 C12.6119898,8.0647959 13,8.4892857 13,8.99999998 L13,8.99999998 L13,11 L15,11 C15.55,11 16,11.45 16,12 L16,12 L15.9932398,12.116199 C15.9352041,12.6119898 15.5107143,13 15,13 L15,13 L13,13 L13,15 C13,15.55 12.55,16 12,16 L12,16 L11.883801,15.9932398 C11.3880102,15.9352041 11,15.5107143 11,15 L11,15 L11,13 L8.99999998,13 C8.44999999,13 7.99999998,12.55 7.99999998,12 L7.99999998,12 L8.00676019,11.883801 C8.0647959,11.3880102 8.4892857,11 8.99999998,11 L8.99999998,11 L11,11 L11,8.99999998 C11,8.44999999 11.45,7.99999998 12,7.99999998 L12,7.99999998 Z" id="path-1"></path>
    </defs>
    <g id="maps_ugc" stroke="none" stroke-width="1" fill="none" fill-rule="evenodd">
        <mask id="mask-2" fill="white">
            <use xlink:href="#path-1"></use>
        </mask>
        <use id="Combined-Shape" fill="#000000" xlink:href="#path-1"></use>
    </g>
</svg>