<?xml version="1.0" encoding="UTF-8"?>
<svg width="24px" height="24px" viewBox="0 0 24 24" version="1.1" xmlns="http://www.w3.org/2000/svg" xmlns:xlink="http://www.w3.org/1999/xlink">
    <title>menu_book</title>
    <defs>
        <path d="M17.5,4.49999997 C18.95,4.49999997 20.49,4.71999997 21.77,5.28999997 C22.5,5.61999997 22.99,6.32999998 22.99,7.13999998 L22.99,7.13999998 L22.99,18.42 C22.99,19.73 21.77,20.69 20.51,20.36 C19.53,20.11 18.49,20 17.49,20 C15.93,20 14.27,20.25 12.93,20.92 C12.34,21.22 11.66,21.22 11.06,20.92 C9.71999999,20.26 8.05999998,20 6.49999995,20 C5.49999995,20 4.45999997,20.11 3.47999996,20.36 C2.21999996,20.68 0.999999954,19.72 0.999999954,18.42 L0.999999954,18.42 L0.999999954,7.13999998 C0.999999954,6.32999998 1.48999996,5.61999997 2.21999996,5.28999997 C3.50999996,4.71999997 5.04999997,4.49999997 6.49999995,4.49999997 C8.44999999,4.49999997 10.55,4.89999997 12,5.99999997 C13.45,4.89999997 15.55,4.49999997 17.5,4.49999997 Z M17.5,6.49999998 C15.8,6.49999998 13.35,7.14999998 12,7.99999998 L12,7.99999998 L12,19.51 C13.35,18.66 15.8,18.01 17.5,18.01 C18.27,18.01 19.05,18.07 19.8,18.21 C20.42,18.32 21,17.86 21,17.23 L21,17.23 L21,7.75999998 C21,7.28999998 20.66,6.87999998 20.2,6.77999998 C19.33,6.58999998 18.42,6.49999998 17.5,6.49999998 Z M19.11,14.42 C19.52,14.47 19.82,14.84 19.77,15.25 C19.72,15.66 19.35,15.95 18.94,15.91 C17.32,15.72 15.55,15.87 14.21,16.3 C14.13,16.32 14.05,16.33 13.98,16.33 C13.66,16.33 13.37,16.13 13.27,15.81 C13.14,15.42 13.36,14.99 13.75,14.87 C15.28,14.37 17.28,14.21 19.11,14.42 Z M19.11,11.76 C19.52,11.81 19.82,12.18 19.77,12.59 C19.72,13 19.35,13.3 18.94,13.25 C17.32,13.06 15.55,13.21 14.21,13.64 C14.13,13.66 14.05,13.67 13.98,13.67 C13.66,13.67 13.37,13.47 13.27,13.15 C13.14,12.76 13.36,12.33 13.75,12.21 C15.28,11.71 17.28,11.55 19.11,11.76 Z M19.11,9.09999999 C19.52,9.14999999 19.82,9.51999999 19.77,9.92999999 C19.72,10.34 19.35,10.64 18.94,10.59 C17.32,10.4 15.55,10.55 14.21,10.98 C14.13,10.99 14.05,11.01 13.98,11.01 C13.66,11.01 13.37,10.81 13.27,10.49 C13.14,10.1 13.36,9.66999999 13.75,9.54999999 C15.29,9.04999999 17.28,8.88999999 19.11,9.09999999 Z" id="path-1"></path>
    </defs>
    <g id="menu_book" stroke="none" stroke-width="1" fill="none" fill-rule="evenodd">
        <mask id="mask-2" fill="white">
            <use xlink:href="#path-1"></use>
        </mask>
        <use id="Combined-Shape" fill="#000000" xlink:href="#path-1"></use>
    </g>
</svg>