<?xml version="1.0" encoding="UTF-8"?>
<svg width="24px" height="24px" viewBox="0 0 24 24" version="1.1" xmlns="http://www.w3.org/2000/svg" xmlns:xlink="http://www.w3.org/1999/xlink">
    <title>money</title>
    <defs>
        <path d="M15,16 L18,16 C18.55,16 19,15.55 19,15 L19,8.99999998 C19,8.44999999 18.55,7.99999998 18,7.99999998 L15,7.99999998 C14.45,7.99999998 14,8.44999999 14,8.99999998 L14,15 C14,15.55 14.45,16 15,16 Z M16,9.99999999 L17,9.99999999 L17,14 L16,14 L16,9.99999999 Z M8.99999998,16 L12,16 C12.55,16 13,15.55 13,15 L13,8.99999998 C13,8.44999999 12.55,7.99999998 12,7.99999998 L8.99999998,7.99999998 C8.44999999,7.99999998 7.99999998,8.44999999 7.99999998,8.99999998 L7.99999998,15 C7.99999998,15.55 8.44999999,16 8.99999998,16 Z M9.99999999,9.99999999 L11,9.99999999 L11,14 L9.99999999,14 L9.99999999,9.99999999 Z M5.99999997,7.99999998 C5.44999997,7.99999998 4.99999997,8.44999999 4.99999997,8.99999998 L4.99999997,15 C4.99999997,15.55 5.44999997,16 5.99999997,16 C6.54999998,16 6.99999997,15.55 6.99999997,15 L6.99999997,8.99999998 C6.99999997,8.44999999 6.54999998,7.99999998 5.99999997,7.99999998 Z M1.99999996,5.99999997 L1.99999996,18 C1.99999996,19.1 2.89999996,20 3.99999996,20 L20,20 C21.1,20 22,19.1 22,18 L22,5.99999997 C22,4.89999997 21.1,3.99999997 20,3.99999997 L3.99999996,3.99999997 C2.89999996,3.99999997 1.99999996,4.89999997 1.99999996,5.99999997 Z M19,18 L4.99999997,18 C4.44999997,18 3.99999997,17.55 3.99999997,17 L3.99999997,6.99999998 C3.99999997,6.44999998 4.44999997,5.99999998 4.99999997,5.99999998 L19,5.99999998 C19.55,5.99999998 20,6.44999998 20,6.99999998 L20,17 C20,17.55 19.55,18 19,18 Z" id="path-1"></path>
    </defs>
    <g id="money" stroke="none" stroke-width="1" fill="none" fill-rule="evenodd">
        <mask id="mask-2" fill="white">
            <use xlink:href="#path-1"></use>
        </mask>
        <use id="Combined-Shape" fill="#000000" xlink:href="#path-1"></use>
    </g>
</svg>