<?xml version="1.0" encoding="UTF-8"?>
<svg width="24px" height="24px" viewBox="0 0 24 24" version="1.1" xmlns="http://www.w3.org/2000/svg" xmlns:xlink="http://www.w3.org/1999/xlink">
    <title>moped</title>
    <defs>
        <path d="M17,4.99999997 C18.1,4.99999997 19,5.89999997 19,6.99999997 L19,6.99999997 L19,10.35 L14.48,16 L9.99999996,16 C9.99999996,17.66 8.65999999,19 6.99999996,19 C5.33999997,19 3.99999996,17.66 3.99999996,16 L3.99999996,16 L1.99999996,16 L1.99999996,13 C1.99999996,10.79 3.78999997,8.99999997 5.99999996,8.99999997 L5.99999996,8.99999997 L8.99999996,8.99999997 C9.54999999,8.99999997 9.99999996,9.44999999 9.99999996,9.99999997 L9.99999996,9.99999997 L9.99999996,14 L13.52,14 L17,9.64999999 L17,6.99999997 L15,6.99999997 C14.45,6.99999997 14,6.54999998 14,5.99999997 L14,5.99999997 L14.0067602,5.88380099 C14.0647959,5.38801018 14.4892857,4.99999997 15,4.99999997 L15,4.99999997 Z M19,13 C20.66,13 22,14.34 22,16 C22,17.66 20.66,19 19,19 C17.34,19 16,17.66 16,16 C16,14.34 17.34,13 19,13 Z M7.99999997,16 L5.99999997,16 C5.99999997,16.55 6.44999998,17 6.99999997,17 C7.54999998,17 7.99999997,16.55 7.99999997,16 L7.99999997,16 Z M19,15 C18.45,15 18,15.45 18,16 C18,16.55 18.45,17 19,17 C19.55,17 20,16.55 20,16 C20,15.45 19.55,15 19,15 Z M8.99999997,5.99999998 C9.54999999,5.99999998 9.99999997,6.44999998 9.99999997,6.99999998 L9.99999997,6.99999998 L9.99323977,7.11619896 C9.93520405,7.61198978 9.51071427,7.99999998 8.99999997,7.99999998 L8.99999997,7.99999998 L5.99999997,7.99999998 C5.44999997,7.99999998 4.99999997,7.54999998 4.99999997,6.99999998 L4.99999997,6.99999998 L5.00676017,6.883801 C5.06479589,6.38801018 5.48928569,5.99999998 5.99999997,5.99999998 L5.99999997,5.99999998 Z" id="path-1"></path>
    </defs>
    <g id="moped" stroke="none" stroke-width="1" fill="none" fill-rule="evenodd">
        <mask id="mask-2" fill="white">
            <use xlink:href="#path-1"></use>
        </mask>
        <use id="Combined-Shape" fill="#000000" xlink:href="#path-1"></use>
    </g>
</svg>