<?xml version="1.0" encoding="UTF-8"?>
<svg width="24px" height="24px" viewBox="0 0 24 24" version="1.1" xmlns="http://www.w3.org/2000/svg" xmlns:xlink="http://www.w3.org/1999/xlink">
    <title>multiple_stop</title>
    <defs>
        <path d="M17,5.20999997 C17,4.75999997 17.54,4.53999997 17.85,4.85999997 L20.64,7.64999998 C20.84,7.84999998 20.84,8.15999998 20.64,8.35999998 L17.85,11.15 C17.54,11.46 17,11.24 17,10.79 L17,8.99999999 L14,8.99999999 C13.45,8.99999999 13,8.54999999 13,7.99999998 L13,7.99999998 C13,7.44999998 13.45,6.99999998 14,6.99999998 L17,6.99999998 L17,5.20999997 Z M9.99999999,6.99999998 C9.44999999,6.99999998 8.99999999,7.44999998 8.99999999,7.99999998 C8.99999999,8.54999999 9.44999999,8.99999998 9.99999999,8.99999998 C10.55,8.99999998 11,8.54999999 11,7.99999998 C11,7.44999998 10.55,6.99999998 9.99999999,6.99999998 Z M5.99999997,6.99999998 C5.44999997,6.99999998 4.99999997,7.44999998 4.99999997,7.99999998 C4.99999997,8.54999999 5.44999997,8.99999998 5.99999997,8.99999998 C6.54999998,8.99999998 6.99999997,8.54999999 6.99999997,7.99999998 C6.99999997,7.44999998 6.54999998,6.99999998 5.99999997,6.99999998 Z M6.99999998,17 L9.99999999,17 C10.55,17 11,16.55 11,16 L11,16 C11,15.45 10.55,15 9.99999999,15 L6.99999998,15 L6.99999998,13.21 C6.99999998,12.76 6.45999998,12.54 6.14999998,12.86 L3.35999996,15.65 C3.15999996,15.85 3.15999996,16.16 3.35999996,16.36 L6.14999998,19.15 C6.45999998,19.46 6.99999998,19.24 6.99999998,18.79 L6.99999998,17 Z M14,17 C14.55,17 15,16.55 15,16 C15,15.45 14.55,15 14,15 C13.45,15 13,15.45 13,16 C13,16.55 13.45,17 14,17 Z M18,17 C18.55,17 19,16.55 19,16 C19,15.45 18.55,15 18,15 C17.45,15 17,15.45 17,16 C17,16.55 17.45,17 18,17 Z" id="path-1"></path>
    </defs>
    <g id="multiple_stop" stroke="none" stroke-width="1" fill="none" fill-rule="evenodd">
        <mask id="mask-2" fill="white">
            <use xlink:href="#path-1"></use>
        </mask>
        <use id="Combined-Shape" fill="#000000" xlink:href="#path-1"></use>
    </g>
</svg>