<?xml version="1.0" encoding="UTF-8"?>
<svg width="24px" height="24px" viewBox="0 0 24 24" version="1.1" xmlns="http://www.w3.org/2000/svg" xmlns:xlink="http://www.w3.org/1999/xlink">
    <title>no_meals</title>
    <defs>
        <path d="M21,18.17 L19,16.17 L19,14 L18,14 C16.9,14 16,13.1 16,12 L16,5.99999998 C16,4.50999997 17.6,2.67999996 19.76,2.14999996 C20.39,1.99999996 21,2.47999996 21,3.12999996 L21,18.17 Z M21.19,22.61 C20.8,23 20.17,23 19.78,22.61 L10.02,12.85 C9.68999999,12.94 9.35999999,13 8.99999999,13 L8.99999999,21 C8.99999999,21.55 8.54999999,22 7.99999998,22 C7.44999998,22 6.99999998,21.55 6.99999998,21 L6.99999998,13 C4.78999997,13 2.99999996,11.21 2.99999996,8.99999999 L2.99999996,5.82999997 L1.38999996,4.21999997 C0.999999954,3.82999997 0.999999954,3.19999996 1.38999996,2.80999996 C1.77999996,2.41999996 2.40999996,2.41999996 2.79999996,2.80999996 L21.18,21.19 C21.58,21.58 21.58,22.22 21.19,22.61 Z M6.16999998,8.99999999 L4.99999997,7.82999998 L4.99999997,8.99999999 L6.16999998,8.99999999 Z M13,8.99999996 L13,2.99999996 C13,2.44999996 12.55,1.99999996 12,1.99999996 C11.45,1.99999996 11,2.44999996 11,2.99999996 L11,8.16999998 L12.85,10.02 C12.94,9.68999999 13,9.35999999 13,8.99999996 Z M8.99999998,2.99999996 C8.99999998,2.44999996 8.54999999,1.99999996 7.99999998,1.99999996 C7.44999998,1.99999996 6.99999998,2.44999996 6.99999998,2.99999996 L6.99999998,4.16999997 L8.99999998,6.16999998 L8.99999998,2.99999996 Z" id="path-1"></path>
    </defs>
    <g id="no_meals" stroke="none" stroke-width="1" fill="none" fill-rule="evenodd">
        <mask id="mask-2" fill="white">
            <use xlink:href="#path-1"></use>
        </mask>
        <use id="Combined-Shape" fill="#000000" xlink:href="#path-1"></use>
    </g>
</svg>