<?xml version="1.0" encoding="UTF-8"?>
<svg width="24px" height="24px" viewBox="0 0 24 24" version="1.1" xmlns="http://www.w3.org/2000/svg" xmlns:xlink="http://www.w3.org/1999/xlink">
    <title>not_listed_location</title>
    <defs>
        <path d="M12,1.99999996 C7.79999998,1.99999996 3.99999997,5.21999997 3.99999997,10.2 C3.99999997,13.38 6.44999998,17.12 11.34,21.43 C11.72,21.76 12.29,21.76 12.67,21.43 C17.55,17.12 20,13.38 20,10.2 C20,5.21999997 16.2,1.99999996 12,1.99999996 M12.71,15.7 C12.52,15.9 12.28,16 12,16 C11.73,16 11.47,15.89 11.29,15.7 C11.1,15.51 10.99,15.26 11,14.99 C10.99,14.44 11.43,14 11.98,13.99 C11.99,13.99 11.99,13.99 12,13.99 C12.55,13.98 12.99,14.42 13,14.97 C13,14.98 13,14.98 13,14.99 C13,15.27 12.9,15.51 12.71,15.7 M14.69,9.90999999 C14.48,10.26 14.21,10.62 13.8,11 C13.48,11.3 13.27,11.56 13.15,11.77 C13.05,11.96 12.99,12.26 12.99,12.46 L12.99,12.53 C12.98,12.8 12.75,13 12.48,13 L11.63,13 C11.35,13 11.13,12.78 11.13,12.5 L11.13,12.34 C11.13,11.89 11.23,11.5 11.42,11.18 C11.61,10.85 11.94,10.48 12.42,10.06 C12.7,9.80999999 12.9,9.58999999 13.03,9.39999999 C13.16,9.20999999 13.22,8.99999998 13.22,8.75999999 C13.22,8.46999999 13.11,8.21999998 12.9,8.01999998 C12.68,7.81999998 12.4,7.71999998 12.05,7.71999998 C11.68,7.71999998 11.31,7.81999998 11.09,8.01999998 C10.97,8.13999998 10.88,8.24999998 10.8,8.39999999 C10.77,8.46999999 10.72,8.60999999 10.71,8.65999999 C10.66,8.82999999 10.47,8.99999998 10.24,8.99999998 L9.54999999,8.99999998 C9.28999999,8.99999998 9.07999999,8.80999999 9.04999999,8.54999999 C9.03999999,8.46999999 9.04999999,8.38999998 9.06999999,8.30999998 C9.24999999,7.58999998 9.58999999,7.14999998 9.96999999,6.78999998 C10.53,6.28999998 11.25,5.99999998 12,5.99999998 C12.59,5.99999998 13.11,6.11999998 13.57,6.34999998 C14.03,6.57999998 14.36,6.89999998 14.62,7.30999998 C14.87,7.71999998 15,8.15999998 15,8.65999999 C15,9.14999999 14.89,9.55999999 14.69,9.90999999" id="path-1"></path>
    </defs>
    <g id="not_listed_location" stroke="none" stroke-width="1" fill="none" fill-rule="evenodd">
        <mask id="mask-2" fill="white">
            <use xlink:href="#path-1"></use>
        </mask>
        <use id="Combined-Shape" fill="#000000" xlink:href="#path-1"></use>
    </g>
</svg>