<?xml version="1.0" encoding="UTF-8"?>
<svg width="24px" height="24px" viewBox="0 0 24 24" version="1.1" xmlns="http://www.w3.org/2000/svg" xmlns:xlink="http://www.w3.org/1999/xlink">
    <title>pedal_bike</title>
    <defs>
        <path d="M18.18,9.99999997 L16.48,5.31999997 C16.19,4.52999997 15.44,3.99999997 14.6,3.99999997 L13,3.99999997 C12.45,3.99999997 12,4.44999997 12,4.99999997 L12,4.99999997 C12,5.54999997 12.45,5.99999997 13,5.99999997 L14.6,5.99999997 L16.06,9.99999997 L11.25,9.99999997 L10.89,8.99999997 L10.98,8.99999997 C11.53,8.99999997 11.98,8.54999999 11.98,7.99999997 L11.98,7.99999997 C11.98,7.44999998 11.53,6.99999997 10.98,6.99999997 L7.99999995,6.99999997 C7.44999998,6.99999997 6.99999995,7.44999998 6.99999995,7.99999997 L6.99999995,7.99999997 C6.99999995,8.54999999 7.44999998,8.99999997 7.99999995,8.99999997 L8.74999999,8.99999997 L10.57,14 L9.89999999,14 C9.45999999,11.77 7.58999998,10.12 5.24999997,10.01 C2.44999996,9.86999999 -4.9999926e-08,12.2 -4.9999926e-08,15 C-4.9999926e-08,17.8 2.19999996,20 4.99999995,20 C7.45999998,20 9.44999999,18.31 9.89999999,16 L14.1,16 C14.54,18.23 16.41,19.88 18.75,19.99 C21.55,20.12 24,17.8 24,14.99 C24,12.19 21.8,9.98999999 19,9.98999999 L18.18,9.98999999 L18.18,9.99999997 Z M7.81999998,16 C7.39999998,17.23 6.21999998,18.08 4.79999997,17.99 C3.30999996,17.9 2.06999996,16.64 1.99999996,15.14 C1.92999996,13.39 3.26999996,12 4.99999997,12 C6.32999998,12 7.41999998,12.83 7.81999998,14 L5.99999998,14 C5.44999997,14 4.99999997,14.45 4.99999997,15 L4.99999997,15 C4.99999997,15.55 5.44999997,16 5.99999998,16 L7.81999998,16 Z M14.1,14 L12.7,14 L11.97,12 L15,12 C14.56,12.58 14.24,13.25 14.1,14 Z M18.88,18 C17.34,17.94 16.04,16.63 16,15.08 C15.98,14.12 16.39,13.28 17.05,12.72 L17.67,14.42 C17.86,14.94 18.43,15.21 18.95,15.02 L18.95,15.02 C19.47,14.83 19.74,14.26 19.55,13.74 L18.92,12.01 C18.92,12.01 18.92,12.01 18.93,12 C20.65,11.96 22.01,13.29 22.01,15 C22,16.72 20.62,18.06 18.88,18 Z" id="path-1"></path>
    </defs>
    <g id="pedal_bike" stroke="none" stroke-width="1" fill="none" fill-rule="evenodd">
        <mask id="mask-2" fill="white">
            <use xlink:href="#path-1"></use>
        </mask>
        <use id="Combined-Shape" fill="#000000" xlink:href="#path-1"></use>
    </g>
</svg>