<?xml version="1.0" encoding="UTF-8"?>
<svg width="24px" height="24px" viewBox="0 0 24 24" version="1.1" xmlns="http://www.w3.org/2000/svg" xmlns:xlink="http://www.w3.org/1999/xlink">
    <title>pest_control</title>
    <defs>
        <path d="M21,14 L21,14 C21,13.45 20.55,13 20,13 L17.93,13 C17.88,12.61 17.81,12.23 17.71,11.86 L19.43,10.87 C19.91,10.59 20.07,9.97999999 19.8,9.49999999 L19.8,9.49999999 C19.52,9.01999999 18.91,8.85999999 18.43,9.12999999 L16.92,9.99999999 C16.64,9.51999999 16.3,9.08999999 15.93,8.70999999 C15.97,8.47999999 16,8.24999998 16,7.99999998 C16,7.19999998 15.76,6.44999998 15.35,5.81999997 L16.29,4.87999997 C16.68,4.48999997 16.68,3.85999997 16.29,3.46999996 L16.29,3.46999996 C15.9,3.07999996 15.27,3.07999996 14.88,3.46999996 L13.86,4.48999997 C12.18,3.59999997 10.76,4.15999997 10.13,4.48999997 L9.11999999,3.45999996 C8.72999999,3.06999996 8.09999998,3.06999996 7.70999998,3.45999996 L7.70999998,3.45999996 C7.31999998,3.84999997 7.31999998,4.47999997 7.70999998,4.86999997 L8.64999999,5.80999997 C8.23999998,6.44999998 7.99999996,7.19999998 7.99999996,7.99999998 C7.99999996,8.24999998 8.02999998,8.47999999 8.06999998,8.71999999 C7.69999998,9.09999999 7.35999998,9.52999999 7.07999998,9.99999999 L5.56999997,9.12999999 C5.08999997,8.85999999 4.47999997,9.01999999 4.20999997,9.49999999 L4.20999997,9.49999999 C3.92999997,9.97999999 4.09999997,10.59 4.57999997,10.87 L6.29999998,11.86 C6.19999998,12.23 6.12999998,12.61 6.07999998,13 L3.99999996,13 C3.44999996,13 2.99999996,13.45 2.99999996,14 L2.99999996,14 C2.99999996,14.55 3.44999996,15 3.99999996,15 L6.06999998,15 C6.11999998,15.39 6.18999998,15.77 6.28999998,16.14 L4.56999997,17.13 C4.08999997,17.41 3.92999997,18.02 4.19999997,18.5 L4.19999997,18.5 C4.47999997,18.98 5.08999997,19.14 5.56999997,18.87 L7.07999998,18 C8.15999998,19.81 9.95999999,21 12,21 C14.04,21 15.84,19.81 16.92,18 L18.43,18.87 C18.91,19.15 19.52,18.98 19.8,18.5 L19.8,18.5 C20.08,18.02 19.91,17.41 19.43,17.13 L17.71,16.14 C17.81,15.77 17.88,15.39 17.93,15 L20,15 C20.55,15 21,14.55 21,14 Z M12,17 L12,17 C11.45,17 11,16.55 11,16 L11,12 C11,11.45 11.45,11 12,11 L12,11 C12.55,11 13,11.45 13,12 L13,16 C13,16.55 12.55,17 12,17 Z" id="path-1"></path>
    </defs>
    <g id="pest_control" stroke="none" stroke-width="1" fill="none" fill-rule="evenodd">
        <mask id="mask-2" fill="white">
            <use xlink:href="#path-1"></use>
        </mask>
        <use id="Combined-Shape" fill="#000000" xlink:href="#path-1"></use>
    </g>
</svg>