<?xml version="1.0" encoding="UTF-8"?>
<svg width="24px" height="24px" viewBox="0 0 24 24" version="1.1" xmlns="http://www.w3.org/2000/svg" xmlns:xlink="http://www.w3.org/1999/xlink">
    <title>pest_control_rodent</title>
    <defs>
        <path d="M21.31,17.38 L18.92,15.25 C19.44,12.89 17.56,11 15.5,11 C14.34,11 12,11.9 12,14.5 C12,15.31 12.27,16.05 12.74,16.65 C12.89,16.85 12.88,17.13 12.7,17.31 L12.7,17.31 C12.49,17.52 12.14,17.5 11.95,17.27 C11.35,16.5 11,15.54 11,14.5 C11,12.8 11.96,11.33 13.35,10.57 C12.65,10.21 11.87,9.99999996 11.07,9.99999996 C8.68999999,9.99999996 6.69999998,11.65 6.15999998,13.87 C4.82999997,13.48 3.87999997,12.21 4.00999997,10.73 C4.14999997,9.15999999 5.53999997,7.99999996 7.10999998,7.99999996 L9.10999999,7.99999996 C10.69,7.99999996 11.86,7.04999998 11.98,5.74999997 C12.13,4.24999997 10.96,2.99999996 9.49999999,2.99999996 L8.04999998,2.99999996 C7.54999998,2.99999996 7.08999998,3.33999996 7.00999998,3.82999997 C6.90999998,4.45999997 7.38999998,4.99999996 7.99999998,4.99999996 L9.49999999,4.99999996 C9.77999999,4.99999996 9.99999999,5.21999997 9.99999999,5.49999996 C9.99999999,5.77999997 9.77999999,5.99999996 9.49999999,5.99999996 L7.15999998,5.99999996 C4.48999997,5.99999996 2.16999996,8.02999998 2.00999996,10.7 C1.85999996,13.25 3.61999997,15.42 5.99999998,15.9 L5.99999998,15.93 C5.99999998,18.73 8.26999998,21 11.07,21 L19.93,21 C21.8,21 22.74,18.66 21.31,17.38 Z M18,19 C17.45,19 17,18.55 17,18 C17,17.45 17.45,17 18,17 C18.55,17 19,17.45 19,18 C19,18.55 18.55,19 18,19 Z" id="path-1"></path>
    </defs>
    <g id="pest_control_rodent" stroke="none" stroke-width="1" fill="none" fill-rule="evenodd">
        <mask id="mask-2" fill="white">
            <use xlink:href="#path-1"></use>
        </mask>
        <use id="Combined-Shape" fill="#000000" xlink:href="#path-1"></use>
    </g>
</svg>