<?xml version="1.0" encoding="UTF-8"?>
<svg width="24px" height="24px" viewBox="0 0 24 24" version="1.1" xmlns="http://www.w3.org/2000/svg" xmlns:xlink="http://www.w3.org/1999/xlink">
    <title>pin_drop</title>
    <defs>
        <path d="M5.99999997,20 L18,20 C18.55,20 19,20.45 19,21 C19,21.55 18.55,22 18,22 L5.99999997,22 C5.44999997,22 4.99999997,21.55 4.99999997,21 C4.99999997,20.45 5.44999997,20 5.99999997,20 Z M12,6.99999998 C10.9,6.99999998 9.99999999,7.89999998 9.99999999,8.99999998 C9.99999999,10.1 10.9,11 12,11 C13.1045695,11 14,10.1045695 14,8.99999998 C14,7.89543048 13.1045695,6.99999998 12,6.99999998 Z M12,1.99999996 C15.27,1.99999996 19,4.45999997 19,9.14999999 C19,12.13 16.87,15.27 12.61,18.54 C12.25,18.82 11.75,18.82 11.39,18.54 C7.12999998,15.26 4.99999997,12.13 4.99999997,9.14999999 C4.99999997,4.45999997 8.72999999,1.99999996 12,1.99999996 Z" id="path-1"></path>
    </defs>
    <g id="pin_drop" stroke="none" stroke-width="1" fill="none" fill-rule="evenodd">
        <mask id="mask-2" fill="white">
            <use xlink:href="#path-1"></use>
        </mask>
        <use id="Combined-Shape" fill="#000000" xlink:href="#path-1"></use>
    </g>
</svg>