<?xml version="1.0" encoding="UTF-8"?>
<svg width="24px" height="24px" viewBox="0 0 24 24" version="1.1" xmlns="http://www.w3.org/2000/svg" xmlns:xlink="http://www.w3.org/1999/xlink">
    <title>rate_review</title>
    <defs>
        <path d="M20,1.99999996 L3.99999996,1.99999996 C2.89999996,1.99999996 1.99999996,2.89999996 1.99999996,3.99999996 L1.99999996,22 L5.99999996,18 L20,18 C21.1,18 22,17.1 22,16 L22,3.99999996 C22,2.89999996 21.1,1.99999996 20,1.99999996 Z M5.99999997,14 L5.99999997,11.53 L12.88,4.64999997 C13.08,4.44999997 13.39,4.44999997 13.59,4.64999997 L15.36,6.41999998 C15.56,6.61999998 15.56,6.92999998 15.36,7.12999998 L8.46999999,14 L5.99999997,14 Z M17,14 L10.5,14 L12.5,12 L17,12 C17.55,12 18,12.45 18,13 C18,13.55 17.55,14 17,14 Z" id="path-1"></path>
    </defs>
    <g id="rate_review" stroke="none" stroke-width="1" fill="none" fill-rule="evenodd">
        <mask id="mask-2" fill="white">
            <use xlink:href="#path-1"></use>
        </mask>
        <use id="Combined-Shape" fill="#000000" xlink:href="#path-1"></use>
    </g>
</svg>