<?xml version="1.0" encoding="UTF-8"?>
<svg width="24px" height="24px" viewBox="0 0 24 24" version="1.1" xmlns="http://www.w3.org/2000/svg" xmlns:xlink="http://www.w3.org/1999/xlink">
    <title>run_circle</title>
    <defs>
        <path d="M12,1.99999996 C6.47999998,1.99999996 1.99999996,6.47999998 1.99999996,12 C1.99999996,17.52 6.47999998,22 12,22 C17.52,22 22,17.52 22,12 C22,6.47999998 17.52,1.99999996 12,1.99999996 Z M13.5,5.99999998 C14.05,5.99999998 14.5,6.44999998 14.5,6.99999998 C14.5,7.54999998 14.05,7.99999998 13.5,7.99999998 C12.95,7.99999998 12.5,7.54999998 12.5,6.99999998 C12.5,6.44999998 12.95,5.99999998 13.5,5.99999998 Z M15.41,11.91 C14.7,11.71 13.78,11.17 13.09,10.25 L12.68,12.6 L13.87,13.9 C13.95,13.98 14,14.1 14,14.22 L14,17.5 C14,17.78 13.78,18 13.5,18 L13.5,18 C13.22,18 13,17.78 13,17.5 L13,14.42 L11.89,13.21 L11.46,15.36 C11.41,15.63 11.14,15.81 10.87,15.75 L8.08999998,15.18 C7.81999998,15.12 7.63999998,14.86 7.69999998,14.59 L7.69999998,14.59 C7.75999998,14.32 8.01999998,14.15 8.28999998,14.2 L10.58,14.67 L11.54,9.77999999 L9.99999999,10.35 L9.99999999,11.5 C9.99999999,11.78 9.77999999,12 9.49999999,12 L9.49999999,12 C9.21999999,12 8.99999999,11.78 8.99999999,11.5 L8.99999999,9.99999999 C8.99999999,9.78999999 9.12999999,9.59999999 9.32999999,9.52999999 L12.28,8.43999999 C12.77,8.25999998 13.3,8.47999999 13.53,8.94999999 C14.18,10.3 15.08,10.8 15.63,10.95 C15.85,11 16,11.18 16,11.4 L16,11.44 C16,11.75 15.71,11.99 15.41,11.91 Z" id="path-1"></path>
    </defs>
    <g id="run_circle" stroke="none" stroke-width="1" fill="none" fill-rule="evenodd">
        <mask id="mask-2" fill="white">
            <use xlink:href="#path-1"></use>
        </mask>
        <use id="Combined-Shape" fill="#000000" xlink:href="#path-1"></use>
    </g>
</svg>