<?xml version="1.0" encoding="UTF-8"?>
<svg width="24px" height="24px" viewBox="0 0 24 24" version="1.1" xmlns="http://www.w3.org/2000/svg" xmlns:xlink="http://www.w3.org/1999/xlink">
    <title>set_meal</title>
    <defs>
        <path d="M20.3,17.6 L3.82999997,18.46 C3.41999996,18.48 3.05999996,18.16 3.03999996,17.75 L3.03999996,17.75 C3.01999996,17.34 3.33999996,16.98 3.74999997,16.96 L20.23,16.1 C20.64,16.08 21,16.4 21.02,16.81 L21.02,16.81 C21.04,17.22 20.72,17.58 20.3,17.6 Z M20.25,19.48 L3.74999997,19.48 C3.33999996,19.48 2.99999996,19.82 2.99999996,20.23 L2.99999996,20.23 C2.99999996,20.64 3.33999996,20.98 3.74999997,20.98 L20.25,20.98 C20.66,20.98 21,20.64 21,20.23 L21,20.23 C21,19.82 20.66,19.48 20.25,19.48 Z M22,4.99999996 L22,12 C22,13.1 21.1,14 20,14 L3.99999996,14 C2.89999996,14 1.99999996,13.1 1.99999996,12 L1.99999996,4.99999996 C1.99999996,3.89999997 2.89999996,2.99999996 3.99999996,2.99999996 L20,2.99999996 C21.1,2.99999996 22,3.89999997 22,4.99999996 Z M19.12,6.08999998 C17.87,6.35999998 16.93,7.19999998 16.79,8.22999998 C16.15,7.49999997 14.06,5.49999997 10.25,5.49999997 C6.80999998,5.49999997 4.76999997,7.12999998 3.93999997,7.98999998 C3.65999997,8.27999998 3.65999997,8.72999999 3.93999997,9.01999999 C4.76999997,9.87999999 6.80999998,11.51 10.25,11.51 C14.06,11.51 16.15,9.50999999 16.79,8.77999999 C16.93,9.79999999 17.87,10.64 19.12,10.92 C19.58,11.02 20,10.64 20,10.18 L20,6.83999998 C20,6.36999998 19.57,5.98999997 19.12,6.08999998 Z" id="path-1"></path>
    </defs>
    <g id="set_meal" stroke="none" stroke-width="1" fill="none" fill-rule="evenodd">
        <mask id="mask-2" fill="white">
            <use xlink:href="#path-1"></use>
        </mask>
        <use id="Combined-Shape" fill="#000000" xlink:href="#path-1"></use>
    </g>
</svg>