<?xml version="1.0" encoding="UTF-8"?>
<svg width="24px" height="24px" viewBox="0 0 24 24" version="1.1" xmlns="http://www.w3.org/2000/svg" xmlns:xlink="http://www.w3.org/1999/xlink">
    <title>subway</title>
    <defs>
        <path d="M12,1.99999996 C13.86,1.99999996 16,2.08999996 17.8,2.79999996 C20.47,3.83999997 22,6.04999998 22,8.85999999 L22,8.85999999 L22,22 L1.99999996,22 L1.99999996,8.85999999 C1.99999996,6.04999998 3.52999996,3.83999997 6.19999998,2.79999996 C7.99999996,2.08999996 10.14,1.99999996 12,1.99999996 Z M12.2194686,6.00068772 L11.7805313,6.00068772 C8.85544316,6.01939319 5.99999997,6.43414632 5.99999997,8.99999998 L5.99999997,8.99999998 L5.99999997,15.5 C5.99999997,17.04 7.15999998,18.29 8.64999999,18.46 L8.64999999,18.46 L7.49999997,19.62 L7.49999997,20 L9.16999999,20 L10.67,18.5 L13.33,18.5 L14.83,20 L16.5,20 L16.5,19.62 L15.35,18.46 C16.84,18.29 18,17.04 18,15.5 L18,15.5 L18,8.99999998 C18,6.36999998 15,5.99999998 12,5.99999998 Z M8.49999998,15 C9.05228474,15 9.49999998,15.4477153 9.49999998,16 C9.49999998,16.5522848 9.05228474,17 8.49999998,17 C7.94771523,17 7.49999998,16.5522848 7.49999998,16 C7.49999998,15.4477153 7.94771523,15 8.49999998,15 Z M15.5,15 C16.0522848,15 16.5,15.4477153 16.5,16 C16.5,16.5522848 16.0522848,17 15.5,17 C14.9477153,17 14.5,16.5522848 14.5,16 C14.5,15.4477153 14.9477153,15 15.5,15 Z M17.01,8.99999999 L17.01,14 L7.00999998,14 L7.00999998,8.99999999 L17.01,8.99999999 Z" id="path-1"></path>
    </defs>
    <g id="subway" stroke="none" stroke-width="1" fill="none" fill-rule="evenodd">
        <mask id="mask-2" fill="white">
            <use xlink:href="#path-1"></use>
        </mask>
        <use id="Combined-Shape" fill="#000000" xlink:href="#path-1"></use>
    </g>
</svg>