<?xml version="1.0" encoding="UTF-8"?>
<svg width="24px" height="24px" viewBox="0 0 24 24" version="1.1" xmlns="http://www.w3.org/2000/svg" xmlns:xlink="http://www.w3.org/1999/xlink">
    <title>traffic</title>
    <defs>
        <path d="M19.96,10.59 C20,10.28 19.77,9.99999996 19.46,9.99999996 L17,9.99999996 L17,8.85999999 C18.54,8.45999999 19.72,7.17999998 19.96,5.58999997 C20,5.27999997 19.77,4.99999996 19.46,4.99999996 L17,4.99999996 L17,3.99999996 C17,3.44999996 16.55,2.99999996 16,2.99999996 L7.99999998,2.99999996 C7.44999998,2.99999996 6.99999998,3.44999996 6.99999998,3.99999996 L6.99999998,4.99999996 L4.53999997,4.99999996 C4.22999997,4.99999996 3.99999997,5.27999997 4.03999997,5.58999997 C4.27999997,7.17999998 5.45999997,8.45999999 6.99999998,8.85999999 L6.99999998,9.99999996 L4.53999997,9.99999996 C4.22999997,9.99999996 3.99999997,10.28 4.03999997,10.59 C4.27999997,12.18 5.45999997,13.46 6.99999998,13.86 L6.99999998,15 L4.53999997,15 C4.22999997,15 3.99999997,15.28 4.03999997,15.59 C4.27999997,17.18 5.45999997,18.46 6.99999998,18.86 L6.99999998,20 C6.99999998,20.55 7.44999998,21 7.99999998,21 L16,21 C16.55,21 17,20.55 17,20 L17,18.86 C18.54,18.46 19.72,17.18 19.96,15.59 C20,15.28 19.77,15 19.46,15 L17,15 L17,13.86 C18.54,13.46 19.72,12.18 19.96,10.59 Z M12,19 C10.89,19 9.99999999,18.1 9.99999999,17 C9.99999999,15.9 10.89,15 12,15 C13.1,15 14,15.9 14,17 C14,18.1 13.11,19 12,19 Z M12,14 C10.89,14 9.99999999,13.1 9.99999999,12 C9.99999999,10.9 10.89,9.99999999 12,9.99999999 C13.1,9.99999999 14,10.9 14,12 C14,13.1 13.11,14 12,14 Z M12,8.99999997 C10.89,8.99999997 9.99999999,8.09999998 9.99999999,6.99999997 C9.99999999,5.88999997 10.89,4.99999997 12,4.99999997 C13.1,4.99999997 14,5.88999997 14,6.99999997 C14,8.09999998 13.11,8.99999997 12,8.99999997 Z" id="path-1"></path>
    </defs>
    <g id="traffic" stroke="none" stroke-width="1" fill="none" fill-rule="evenodd">
        <mask id="mask-2" fill="white">
            <use xlink:href="#path-1"></use>
        </mask>
        <use id="Combined-Shape" fill="#000000" xlink:href="#path-1"></use>
    </g>
</svg>