<?xml version="1.0" encoding="UTF-8"?>
<svg width="24px" height="24px" viewBox="0 0 24 24" version="1.1" xmlns="http://www.w3.org/2000/svg" xmlns:xlink="http://www.w3.org/1999/xlink">
    <title>transfer_within_a_station</title>
    <defs>
        <path d="M22,15.5 L16.48,15.5 L16.48,14.73 C16.48,14.37 16.04,14.19 15.79,14.44 L14.28,15.96 C14.12,16.12 14.12,16.37 14.28,16.53 L15.79,18.05 C16.05,18.31 16.48,18.13 16.48,17.76 L16.48,17 L22,17 L22,15.5 Z M21.72,20.21 L20.21,18.69 C19.95,18.43 19.52,18.61 19.52,18.98 L19.52,19.75 L14,19.75 L14,21.25 L19.52,21.25 L19.52,22.02 C19.52,22.38 19.96,22.56 20.21,22.31 L21.72,20.79 C21.88,20.63 21.88,20.37 21.72,20.21 L21.72,20.21 Z M9.49999998,5.49999996 C10.6,5.49999996 11.5,4.59999997 11.5,3.49999996 C11.5,2.39999996 10.6,1.49999996 9.49999998,1.49999996 C8.39999998,1.49999996 7.49999998,2.39999996 7.49999998,3.49999996 C7.49999998,4.59999997 8.39999998,5.49999996 9.49999998,5.49999996 Z M5.74999997,8.89999999 L3.22999996,21.81 C3.10999996,22.43 3.57999996,23 4.20999997,23 L4.29999997,23 C4.76999997,23 5.17999997,22.67 5.27999997,22.21 L6.84999998,15 L8.99999996,17 L8.99999996,22 C8.99999996,22.55 9.44999999,23 9.99999996,23 C10.55,23 11,22.55 11,22 L11,16.28 C11,15.75 10.79,15.24 10.41,14.87 L8.94999999,13.4 L9.54999999,10.4 C10.62,11.72 12.13,12.63 13.86,12.91 C14.46,13.01 15,12.52 15,11.91 C15,11.42 14.64,11.01 14.16,10.93 C12.67,10.68 11.41,9.77999999 10.65,8.54999999 L9.69999999,6.94999998 C9.34999999,6.34999998 8.69999999,5.99999998 7.99999996,5.99999998 C7.74999998,5.99999998 7.49999996,6.04999998 7.24999998,6.14999998 L3.23999996,7.78999998 C2.48999996,8.09999998 1.99999996,8.82999999 1.99999996,9.63999999 L1.99999996,12 C1.99999996,12.55 2.44999996,13 2.99999996,13 C3.54999996,13 3.99999996,12.55 3.99999996,12 L3.99999996,9.64999999 L5.74999997,8.89999999" id="path-1"></path>
    </defs>
    <g id="transfer_within_a_station" stroke="none" stroke-width="1" fill="none" fill-rule="evenodd">
        <mask id="mask-2" fill="white">
            <use xlink:href="#path-1"></use>
        </mask>
        <use id="Combined-Shape" fill="#000000" xlink:href="#path-1"></use>
    </g>
</svg>