<?xml version="1.0" encoding="UTF-8"?>
<svg width="24px" height="24px" viewBox="0 0 24 24" version="1.1" xmlns="http://www.w3.org/2000/svg" xmlns:xlink="http://www.w3.org/1999/xlink">
    <title>two_wheeler</title>
    <defs>
        <path d="M19.9999999,11 C19.82,11 19.64,11.03 19.47,11.05 L17.41,8.99999997 L18.9999999,8.99999997 C19.55,8.99999997 19.9999999,8.54999999 19.9999999,7.99999997 L19.9999999,7.61999998 C19.9999999,6.87999998 19.22,6.38999998 18.55,6.72999998 L16.27,7.86999998 L13.7,5.29999997 C13.52,5.10999997 13.26,4.99999997 12.9999999,4.99999997 L9.99999995,4.99999997 C9.44999999,4.99999997 8.99999995,5.44999997 8.99999995,5.99999997 L8.99999995,5.99999997 C8.99999995,6.54999998 9.44999999,6.99999997 9.99999995,6.99999997 L12.17,6.99999997 C12.44,6.99999997 12.69,7.10999998 12.88,7.28999998 L14.59,8.99999997 L11.24,8.99999997 C11.08,8.99999997 10.93,9.03999999 10.79,9.10999999 L7.64999998,10.68 C7.26999998,10.87 6.79999998,10.8 6.49999995,10.49 L5.29999997,9.28999999 C5.10999997,9.10999999 4.84999997,8.99999997 4.58999997,8.99999997 L0.99999995,8.99999997 C0.449999952,8.99999997 -5.00000183e-08,9.44999999 -5.00000183e-08,9.99999997 L-5.00000183e-08,9.99999997 C-5.00000183e-08,10.55 0.449999952,11 0.99999995,11 L3.99999995,11 C1.47999996,11 -0.490000052,13.32 0.10999995,15.94 C0.439999952,17.39 1.60999996,18.56 3.05999996,18.89 C5.67999997,19.49 7.99999995,17.52 7.99999995,15 L9.40999999,16.41 C9.78999999,16.79 10.3,17 10.83,17 L11.84,17 C12.56,17 13.22,16.62 13.58,15.99 L16.49,10.9 L17.4999999,11.91 C16.37,12.82 15.74,14.32 16.12,15.96 C16.46,17.4 17.63,18.57 19.07,18.9 C21.68,19.49 23.9999999,17.51 23.9999999,15 C23.9999999,12.79 22.21,11 19.9999999,11 Z M3.99999996,17 C2.89999996,17 1.99999996,16.1 1.99999996,15 C1.99999996,13.9 2.89999996,13 3.99999996,13 C5.09999997,13 5.99999996,13.9 5.99999996,15 C5.99999996,16.1 5.09999997,17 3.99999996,17 Z M20,17 C18.9,17 18,16.1 18,15 C18,13.9 18.9,13 20,13 C21.1,13 22,13.9 22,15 C22,16.1 21.1,17 20,17 Z" id="path-1"></path>
    </defs>
    <g id="two_wheeler" stroke="none" stroke-width="1" fill="none" fill-rule="evenodd">
        <mask id="mask-2" fill="white">
            <use xlink:href="#path-1"></use>
        </mask>
        <use id="Combined-Shape" fill="#000000" xlink:href="#path-1"></use>
    </g>
</svg>