<?xml version="1.0" encoding="UTF-8"?>
<svg width="24px" height="24px" viewBox="0 0 24 24" version="1.1" xmlns="http://www.w3.org/2000/svg" xmlns:xlink="http://www.w3.org/1999/xlink">
    <title>zoom_out_map</title>
    <defs>
        <path d="M15.85,3.84999997 L17.3,5.29999997 L15.12,7.45999998 C14.73,7.84999998 14.73,8.48999999 15.12,8.87999999 C15.51,9.26999999 16.15,9.26999999 16.54,8.87999999 L18.7,6.69999998 L20.15,8.14999998 C20.46,8.45999999 21,8.23999998 21,7.78999998 L21,3.49999996 C21,3.21999996 20.78,2.99999996 20.5,2.99999996 L16.21,2.99999996 C15.76,2.99999996 15.54,3.53999996 15.85,3.84999997 L15.85,3.84999997 Z M3.84999997,8.14999998 L5.29999997,6.69999998 L7.45999998,8.87999999 C7.84999998,9.26999999 8.48999999,9.26999999 8.87999999,8.87999999 C9.26999999,8.48999999 9.26999999,7.84999998 8.87999999,7.45999998 L6.69999998,5.29999997 L8.14999998,3.84999997 C8.45999999,3.53999996 8.23999998,2.99999996 7.78999998,2.99999996 L3.49999996,2.99999996 C3.21999996,2.99999996 2.99999996,3.21999996 2.99999996,3.49999996 L2.99999996,7.78999998 C2.99999996,8.23999998 3.53999996,8.45999999 3.84999997,8.14999998 L3.84999997,8.14999998 Z M8.14999998,20.15 L6.69999998,18.7 L8.87999999,16.54 C9.26999999,16.15 9.26999999,15.51 8.87999999,15.12 C8.48999999,14.73 7.84999998,14.73 7.45999998,15.12 L5.29999997,17.3 L3.84999997,15.85 C3.53999996,15.54 2.99999996,15.76 2.99999996,16.21 L2.99999996,20.5 C2.99999996,20.78 3.21999996,21 3.49999996,21 L7.78999998,21 C8.23999998,21 8.45999999,20.46 8.14999998,20.15 Z M20.15,15.85 L18.7,17.3 L16.54,15.12 C16.15,14.73 15.51,14.73 15.12,15.12 C14.73,15.51 14.73,16.15 15.12,16.54 L17.3,18.7 L15.85,20.15 C15.54,20.46 15.76,21 16.21,21 L20.5,21 C20.78,21 21,20.78 21,20.5 L21,16.21 C21,15.76 20.46,15.54 20.15,15.85 L20.15,15.85 Z" id="path-1"></path>
    </defs>
    <g id="zoom_out_map" stroke="none" stroke-width="1" fill="none" fill-rule="evenodd">
        <mask id="mask-2" fill="white">
            <use xlink:href="#path-1"></use>
        </mask>
        <use id="Combined-Shape" fill="#000000" xlink:href="#path-1"></use>
    </g>
</svg>