<?xml version="1.0" encoding="UTF-8"?>
<svg width="24px" height="24px" viewBox="0 0 24 24" version="1.1" xmlns="http://www.w3.org/2000/svg" xmlns:xlink="http://www.w3.org/1999/xlink">
    <title>mms</title>
    <defs>
        <path d="M20,1.99999996 L3.99999996,1.99999996 C2.89999996,1.99999996 1.99999996,2.89999996 1.99999996,3.99999996 L1.99999996,22 L5.99999996,18 L20,18 C21.1,18 22,17.1 22,16 L22,3.99999996 C22,2.89999996 21.1,1.99999996 20,1.99999996 Z M5.62999997,13.19 L8.11999998,9.98999999 C8.31999998,9.73999999 8.69999999,9.72999999 8.89999999,9.97999999 L11,12.51 L14.1,8.51999999 C14.3,8.25999998 14.7,8.25999998 14.9,8.52999999 L18.41,13.21 C18.66,13.54 18.42,14.01 18.01,14.01 L6.01999998,14.01 C5.60999997,14 5.36999997,13.52 5.62999997,13.19 L5.62999997,13.19 Z" id="path-1"></path>
    </defs>
    <g id="mms" stroke="none" stroke-width="1" fill="none" fill-rule="evenodd">
        <mask id="mask-2" fill="white">
            <use xlink:href="#path-1"></use>
        </mask>
        <use id="Combined-Shape" fill="#000000" xlink:href="#path-1"></use>
    </g>
</svg>