<?xml version="1.0" encoding="UTF-8"?>
<svg width="24px" height="24px" viewBox="0 0 24 24" version="1.1" xmlns="http://www.w3.org/2000/svg" xmlns:xlink="http://www.w3.org/1999/xlink">
    <title>ondemand_video</title>
    <defs>
        <path d="M21,2.99999996 L2.99999995,2.99999996 C1.89999996,2.99999996 0.999999954,3.89999997 0.999999954,4.99999996 L0.999999954,17 C0.999999954,18.1 1.89999996,19 2.99999995,19 L7.99999995,19 L7.99999995,20 C7.99999995,20.55 8.44999999,21 8.99999995,21 L15,21 C15.55,21 16,20.55 16,20 L16,19 L21,19 C22.1,19 22.99,18.1 22.99,17 L23,4.99999996 C23,3.88999997 22.1,2.99999996 21,2.99999996 Z M20,17 L3.99999996,17 C3.44999996,17 2.99999996,16.55 2.99999996,16 L2.99999996,5.99999997 C2.99999996,5.44999997 3.44999996,4.99999997 3.99999996,4.99999997 L20,4.99999997 C20.55,4.99999997 21,5.44999997 21,5.99999997 L21,16 C21,16.55 20.55,17 20,17 Z M14.48,11.87 L10.5,14.15 C9.82999999,14.53 8.99999999,14.04 8.99999999,13.28 L8.99999999,8.71999999 C8.99999999,7.94999998 9.82999999,7.46999998 10.5,7.84999998 L14.48,10.13 C15.15,10.52 15.15,11.48 14.48,11.87 Z" id="path-1"></path>
    </defs>
    <g id="ondemand_video" stroke="none" stroke-width="1" fill="none" fill-rule="evenodd">
        <mask id="mask-2" fill="white">
            <use xlink:href="#path-1"></use>
        </mask>
        <use id="Combined-Shape" fill="#000000" xlink:href="#path-1"></use>
    </g>
</svg>