<?xml version="1.0" encoding="UTF-8"?>
<svg width="24px" height="24px" viewBox="0 0 24 24" version="1.1" xmlns="http://www.w3.org/2000/svg" xmlns:xlink="http://www.w3.org/1999/xlink">
    <title>phone_callback</title>
    <defs>
        <path d="M19.23,15.26 L16.69,14.97 C16.08,14.9 15.48,15.11 15.05,15.54 L13.21,17.38 C10.38,15.94 8.05999998,13.63 6.61999998,10.79 L8.46999999,8.93999999 C8.89999999,8.50999996 9.10999999,7.90999998 9.03999999,7.29999998 L8.74999999,4.77999997 C8.62999999,3.76999997 7.77999998,3.00999996 6.75999998,3.00999996 L5.02999997,3.00999996 C3.89999997,3.00999996 2.95999996,3.94999997 3.02999996,5.07999997 C3.55999996,13.62 10.39,20.44 18.92,20.97 C20.05,21.04 20.9900976,20.1 20.9900976,18.97 L20.9900976,17.24 C21,16.23 20.24,15.38 19.23,15.26 Z M13,11 L17,11 C17.55,11 18,10.55 18,9.99999999 C18,9.44999999 17.55,8.99999999 17,8.99999999 L15.41,8.99999999 L19.72,4.68999997 C20.11,4.29999997 20.11,3.66999997 19.72,3.27999996 C19.33,2.88999996 18.7,2.88999996 18.31,3.27999996 L14,7.58999998 L14,5.99999998 C14,5.44999997 13.55,4.99999997 13,4.99999997 C12.45,4.99999997 12,5.44999997 12,5.99999998 L12,9.99999999 C12,10.55 12.45,11 13,11 Z" id="path-1"></path>
    </defs>
    <g id="phone_callback" stroke="none" stroke-width="1" fill="none" fill-rule="evenodd">
        <mask id="mask-2" fill="white">
            <use xlink:href="#path-1"></use>
        </mask>
        <use id="Combined-Shape" fill="#000000" xlink:href="#path-1"></use>
    </g>
</svg>