<?xml version="1.0" encoding="UTF-8"?>
<svg width="24px" height="24px" viewBox="0 0 24 24" version="1.1" xmlns="http://www.w3.org/2000/svg" xmlns:xlink="http://www.w3.org/1999/xlink">
    <title>sync_disabled</title>
    <defs>
        <path d="M3.56999996,4.69999997 C3.95999997,4.30999997 4.58999997,4.30999997 4.97999997,4.69999997 L4.97999997,4.69999997 L19.5,19.23 C19.89,19.62 19.89,20.25 19.5,20.64 C19.11,21.03 18.48,21.03 18.09,20.64 L18.09,20.64 L16.22,18.77 C15.93,18.95 15.63,19.12 15.32,19.26 C14.71,19.55 14,19.12 14,18.44 L14,18.44 L14,18.26 C14,17.83 14.32,17.47 14.75,17.35 C14.75,17.33 14.75,17.33 14.76,17.31 L14.76,17.31 L6.68999998,9.23999999 C6.25999998,10.07 5.99999998,11 5.99999998,12 C5.99999998,13.66 6.67999998,15.15 7.75999998,16.25 L7.75999998,16.25 L9.14999999,14.86 C9.45999999,14.54 9.99999999,14.76 9.99999999,15.21 L9.99999999,15.21 L9.99999999,19.5 C9.99999999,19.78 9.77999999,20 9.49999999,20 L9.49999999,20 L5.20999997,20 C4.75999997,20 4.53999997,19.46 4.84999997,19.15 L4.84999997,19.15 L6.35999998,17.64 C4.90999997,16.2 3.99999997,14.21 3.99999997,12 C3.99999997,10.44 4.44999997,8.99999999 5.21999997,7.75999998 L5.21999997,7.75999998 L3.56999996,6.10999998 C3.17999996,5.71999997 3.17999996,5.08999997 3.56999996,4.69999997 Z M18.79,3.99999997 C19.24,3.99999997 19.46,4.53999997 19.15,4.84999997 L19.15,4.84999997 L17.64,6.35999998 C19.09,7.79999998 20,9.78999999 20,12 C20,13.41 19.62,14.72 18.98,15.87 L18.98,15.87 L17.5,14.39 C17.82,13.66 18,12.85 18,12 C18,10.34 17.32,8.84999999 16.24,7.74999998 L16.24,7.74999998 L14.85,9.13999999 C14.54,9.45999999 14,9.23999999 14,8.78999999 L14,8.78999999 L14,3.99999997 Z M8.67999999,4.72999997 C9.28999999,4.43999997 9.99999999,4.86999997 9.99999999,5.54999997 L9.99999999,5.54999997 L9.99999999,5.73999997 C9.99999999,6.03999998 9.83999999,6.30999998 9.59999999,6.48999998 L9.59999999,6.48999998 L8.13999998,5.02999997 C8.31999998,4.92999997 8.48999999,4.81999997 8.67999999,4.72999997 Z" id="path-1"></path>
    </defs>
    <g id="sync_disabled" stroke="none" stroke-width="1" fill="none" fill-rule="evenodd">
        <mask id="mask-2" fill="white">
            <use xlink:href="#path-1"></use>
        </mask>
        <use id="Combined-Shape" fill="#000000" xlink:href="#path-1"></use>
    </g>
</svg>