<?xml version="1.0" encoding="UTF-8"?>
<svg width="24px" height="24px" viewBox="0 0 24 24" version="1.1" xmlns="http://www.w3.org/2000/svg" xmlns:xlink="http://www.w3.org/1999/xlink">
    <title>system_update</title>
    <defs>
        <path d="M17,1.00999995 L6.99999997,0.999999954 C5.89999997,0.999999954 4.99999997,1.89999996 4.99999997,2.99999995 L4.99999997,21 C4.99999997,22.1 5.89999997,23 6.99999997,23 L17,23 C18.1,23 19,22.1 19,21 L19,2.99999995 C19,1.89999996 18.1,1.00999995 17,1.00999995 Z M17,19 L6.99999998,19 L6.99999998,4.99999997 L17,4.99999997 L17,19 Z M14.79,13 L13,13 L13,8.99999998 C13,8.44999999 12.55,7.99999998 12,7.99999998 C11.45,7.99999998 11,8.44999999 11,8.99999998 L11,13 L9.20999999,13 C8.75999999,13 8.53999999,13.54 8.85999999,13.85 L11.65,16.64 C11.85,16.84 12.16,16.84 12.36,16.64 L15.15,13.85 C15.46,13.54 15.24,13 14.79,13 L14.79,13 Z" id="path-1"></path>
    </defs>
    <g id="system_update" stroke="none" stroke-width="1" fill="none" fill-rule="evenodd">
        <mask id="mask-2" fill="white">
            <use xlink:href="#path-1"></use>
        </mask>
        <use id="Combined-Shape" fill="#000000" xlink:href="#path-1"></use>
    </g>
</svg>