<?xml version="1.0" encoding="UTF-8"?>
<svg width="24px" height="24px" viewBox="0 0 24 24" version="1.1" xmlns="http://www.w3.org/2000/svg" xmlns:xlink="http://www.w3.org/1999/xlink">
    <title>tv_off</title>
    <defs>
        <path d="M21,7.99999998 L21,17.88 L22.85,19.73 C22.95,19.51 23,19.26 23,19 L23,6.99999998 C23,5.88999997 22.1,4.99999997 21,4.99999997 L13.41,4.99999997 L16.35,2.05999996 C16.55,1.85999996 16.55,1.54999996 16.35,1.34999996 C16.15,1.14999995 15.84,1.14999995 15.64,1.34999996 L12,4.98999997 L8.35999998,1.34999996 C8.15999998,1.14999995 7.84999998,1.14999995 7.64999998,1.34999996 C7.44999998,1.54999996 7.44999998,1.85999996 7.64999998,2.05999996 L10.59,4.99999997 L8.11999998,4.99999997 L10.12,6.99999998 L20,6.99999998 C20.55,6.99999998 21,7.44999998 21,7.99999998 Z M3.11999996,2.82999996 C2.72999996,2.43999996 2.09999996,2.43999996 1.70999996,2.82999996 C1.31999996,3.21999996 1.31999996,3.84999997 1.70999996,4.23999997 L2.52999996,5.05999997 C1.64999996,5.27999997 0.999999954,6.05999998 0.999999954,6.99999998 L0.999999954,19 C0.999999954,20.1 1.89999996,21 2.99999995,21 L18.46,21 L19.75,22.29 C20.14,22.68 20.77,22.68 21.16,22.29 C21.52,21.93 21.53,21.37 21.23,20.98 L21.26,20.98 L3.11999996,2.82999996 Z M2.99999996,18 L2.99999996,7.99999998 C2.99999996,7.44999998 3.44999996,6.99999998 3.99999996,6.99999998 L4.45999997,6.99999998 L16.46,19 L3.99999996,19 C3.44999996,19 2.99999996,18.55 2.99999996,18 Z" id="path-1"></path>
    </defs>
    <g id="tv_off" stroke="none" stroke-width="1" fill="none" fill-rule="evenodd">
        <mask id="mask-2" fill="white">
            <use xlink:href="#path-1"></use>
        </mask>
        <use id="Combined-Shape" fill="#000000" xlink:href="#path-1"></use>
    </g>
</svg>