<?xml version="1.0" encoding="UTF-8"?>
<svg width="24px" height="24px" viewBox="0 0 24 24" version="1.1" xmlns="http://www.w3.org/2000/svg" xmlns:xlink="http://www.w3.org/1999/xlink">
    <title>vpn_lock</title>
    <defs>
        <path d="M18.92,12 C18.96,12.33 19,12.66 19,13 C19,15.08 18.2,16.97 16.9,18.39 C16.64,17.58 15.9,17 15,17 L14,17 L14,14 C14,13.45 13.55,13 13,13 L6.99999995,13 L6.99999995,11 L8.99999995,11 C9.54999999,11 9.99999995,10.55 9.99999995,9.99999996 L9.99999995,7.99999996 L12,7.99999996 C13.1,7.99999996 14,7.09999998 14,5.99999996 L14,3.45999996 C13.05,3.15999996 12.05,2.99999996 11,2.99999996 C5.47999997,2.99999996 0.999999954,7.47999998 0.999999954,13 C0.999999954,18.52 5.47999997,23 11,23 C16.52,23 21,18.52 21,13 C21,12.66 20.98,12.33 20.95,12 L18.92,12 L18.92,12 Z M9.99999996,20.93 C6.04999998,20.44 2.99999996,17.08 2.99999996,13 C2.99999996,12.38 3.07999996,11.79 3.20999996,11.21 L7.99999996,16 L7.99999996,17 C7.99999996,18.1 8.89999999,19 9.99999996,19 L9.99999996,20.93 Z M22,3.99999995 L22,3.49999995 C22,2.11999996 20.88,0.999999954 19.5,0.999999954 C18.12,0.999999954 17,2.11999996 17,3.49999995 L17,3.99999995 C16.45,3.99999995 16,4.44999997 16,4.99999995 L16,8.99999995 C16,9.54999999 16.45,9.99999995 17,9.99999995 L22,9.99999995 C22.55,9.99999995 23,9.54999999 23,8.99999995 L23,4.99999995 C23,4.44999997 22.55,3.99999995 22,3.99999995 Z M21,3.99999996 L18,3.99999996 L18,3.49999996 C18,2.66999996 18.67,1.99999996 19.5,1.99999996 C20.33,1.99999996 21,2.66999996 21,3.49999996 L21,3.99999996 Z" id="path-1"></path>
    </defs>
    <g id="vpn_lock" stroke="none" stroke-width="1" fill="none" fill-rule="evenodd">
        <mask id="mask-2" fill="white">
            <use xlink:href="#path-1"></use>
        </mask>
        <use id="Combined-Shape" fill="#000000" xlink:href="#path-1"></use>
    </g>
</svg>