<?xml version="1.0" encoding="UTF-8"?>
<svg width="24px" height="24px" viewBox="0 0 24 24" version="1.1" xmlns="http://www.w3.org/2000/svg" xmlns:xlink="http://www.w3.org/1999/xlink">
    <title>wifi_off</title>
    <defs>
        <path d="M20.06,10.14 C20.62,10.6 21.44,10.56 21.95,10.05 C22.54,9.45999999 22.5,8.47999999 21.85,7.94999998 C18.26,5.00999997 13.65,3.91999997 9.29999999,4.68999997 L11.89,7.27999998 C14.78,7.24999998 17.69,8.19999998 20.06,10.14 L20.06,10.14 Z M17.79,11.97 C17.01,11.4 16.16,10.97 15.27,10.67 L18.22,13.62 C18.46,13.04 18.32,12.35 17.79,11.97 Z M13.95,16.23 C12.73,15.6 11.27,15.6 10.04,16.23 C9.44999999,16.54 9.33999999,17.35 9.80999999,17.82 L11.28,19.29 C11.67,19.68 12.3,19.68 12.69,19.29 L14.16,17.82 C14.65,17.35 14.55,16.54 13.95,16.23 Z M19.68,17.9 L4.11999997,2.33999996 C3.72999997,1.94999996 3.09999996,1.94999996 2.70999996,2.33999996 C2.31999996,2.72999996 2.31999996,3.35999996 2.70999996,3.74999997 L5.04999997,6.09999998 C4.03999997,6.59999998 3.05999996,7.20999998 2.15999996,7.94999998 C1.50999996,8.47999999 1.46999996,9.45999999 2.05999996,10.05 C2.56999996,10.56 3.37999996,10.61 3.92999997,10.15 C4.92999997,9.32999999 6.02999998,8.68999999 7.17999998,8.21999998 L9.40999999,10.45 C8.27999998,10.75 7.19999998,11.25 6.21999998,11.96 C5.52999997,12.46 5.48999997,13.47 6.08999998,14.07 L6.09999998,14.08 C6.58999998,14.57 7.35999998,14.62 7.92999998,14.21 C9.11999999,13.37 10.51,12.95 11.9,12.92 L18.27,19.29 C18.66,19.68 19.29,19.68 19.68,19.29 C20.07,18.92 20.07,18.29 19.68,17.9 Z" id="path-1"></path>
    </defs>
    <g id="wifi_off" stroke="none" stroke-width="1" fill="none" fill-rule="evenodd">
        <mask id="mask-2" fill="white">
            <use xlink:href="#path-1"></use>
        </mask>
        <use id="Combined-Shape" fill="#000000" xlink:href="#path-1"></use>
    </g>
</svg>