<?xml version="1.0" encoding="UTF-8"?>
<svg width="24px" height="24px" viewBox="0 0 24 24" version="1.1" xmlns="http://www.w3.org/2000/svg" xmlns:xlink="http://www.w3.org/1999/xlink">
    <title>check_box</title>
    <defs>
        <path d="M19,2.99999996 L4.99999996,2.99999996 C3.89999997,2.99999996 2.99999996,3.89999997 2.99999996,4.99999996 L2.99999996,19 C2.99999996,20.1 3.89999997,21 4.99999996,21 L19,21 C20.1,21 21,20.1 21,19 L21,4.99999996 C21,3.89999997 20.1,2.99999996 19,2.99999996 Z M10.71,16.29 C10.32,16.68 9.68999999,16.68 9.29999999,16.29 L5.70999997,12.7 C5.31999997,12.31 5.31999997,11.68 5.70999997,11.29 C6.09999998,10.9 6.72999998,10.9 7.11999998,11.29 L9.99999999,14.17 L16.88,7.28999998 C17.27,6.89999998 17.9,6.89999998 18.29,7.28999998 C18.68,7.67999998 18.68,8.30999998 18.29,8.69999999 L10.71,16.29 Z" id="path-1"></path>
    </defs>
    <g id="check_box" stroke="none" stroke-width="1" fill="none" fill-rule="evenodd">
        <mask id="mask-2" fill="white">
            <use xlink:href="#path-1"></use>
        </mask>
        <use id="Combined-Shape" fill="#000000" xlink:href="#path-1"></use>
    </g>
</svg>