<?xml version="1.0" encoding="UTF-8"?>
<svg width="24px" height="24px" viewBox="0 0 24 24" version="1.1" xmlns="http://www.w3.org/2000/svg" xmlns:xlink="http://www.w3.org/1999/xlink">
    <title>star_half</title>
    <defs>
        <path d="M19.65,9.03999999 L14.81,8.61999999 L12.92,4.16999997 C12.58,3.35999996 11.42,3.35999996 11.08,4.16999997 L9.18999999,8.62999999 L4.35999997,9.03999999 C3.47999996,9.10999999 3.11999996,10.21 3.78999997,10.79 L7.45999998,13.97 L6.35999998,18.69 C6.15999998,19.55 7.08999998,20.23 7.84999998,19.77 L12,17.27 L16.15,19.78 C16.91,20.24 17.84,19.56 17.64,18.7 L16.54,13.97 L20.21,10.79 C20.88,10.21 20.53,9.10999999 19.65,9.03999999 L19.65,9.03999999 Z M12,15.4 L12,6.09999998 L13.71,10.14 L18.09,10.52 L14.77,13.4 L15.77,17.68 L12,15.4 Z" id="path-1"></path>
    </defs>
    <g id="star_half" stroke="none" stroke-width="1" fill="none" fill-rule="evenodd">
        <mask id="mask-2" fill="white">
            <use xlink:href="#path-1"></use>
        </mask>
        <use id="Combined-Shape" fill="#000000" xlink:href="#path-1"></use>
    </g>
</svg>