<?xml version="1.0" encoding="UTF-8"?>
<svg width="24px" height="24px" viewBox="0 0 24 24" version="1.1" xmlns="http://www.w3.org/2000/svg" xmlns:xlink="http://www.w3.org/1999/xlink">
    <title>android</title>
    <defs>
        <path d="M19.2500792,9.4999391 C18.5625758,9.4999391 18.0000731,10.0624418 18.0000731,10.7499452 L18.0000731,15.7499696 C18.0000731,16.4374729 18.5625758,16.9999756 19.2500792,16.9999756 C19.9375825,16.9999756 20.5000853,16.4374729 20.5000853,15.7499696 L20.5000853,10.7499452 C20.5000853,10.0624418 19.9375825,9.4999391 19.2500792,9.4999391 Z M4.25000609,9.4999391 C3.56250274,9.4999391 3,10.0624418 3,10.7499452 L3,15.7499696 C3,16.4374729 3.56250274,16.9999756 4.25000609,16.9999756 C4.93750944,16.9999756 5.50001218,16.4374729 5.50001218,15.7499696 L5.50001218,10.7499452 C5.50001218,10.0624418 4.93750944,9.4999391 4.25000609,9.4999391 Z M17.37507,9.4999391 L17.37507,16.3749726 C17.37507,17.4106026 16.5356909,18.2499817 15.5000609,18.2499817 L15.5000609,18.2499817 L15.5000609,20.7499939 C15.5000609,21.4374973 14.9375582,22 14.2500548,22 C13.5625515,22 13.0000487,21.4374973 13.0000487,20.7499939 L13.0000487,20.7499939 L13.0000487,18.2499817 L10.5000365,18.2499817 L10.5000365,20.7499939 C10.5000365,21.4374973 9.9375338,22 9.25003045,22 C8.5625271,22 8.00002436,21.4374973 8.00002436,20.7499939 L8.00002436,20.7499939 L8.00002436,18.2499817 L7.85348169,18.2443411 C6.8863568,18.1695959 6.12501522,17.3612869 6.12501522,16.3749726 L6.12501522,16.3749726 L6.12501522,9.4999391 L17.37507,9.4999391 Z M14.3156801,2.34552925 C14.4700559,2.03677774 14.8456827,1.91177714 15.1544342,2.06615289 C15.4631857,2.22052864 15.5881863,2.59615547 15.4338106,2.90490697 L15.4338106,2.90490697 L14.8081825,4.15553807 C16.1875642,5.05054243 17.1500689,6.53367465 17.3400699,8.24993301 L17.3400699,8.24993301 L17.37507,8.24993301 L17.37507,8.87493606 L6.16001539,8.87493606 L6.16001539,8.24993301 C6.35001632,6.53367465 7.31252101,5.05116743 8.69190273,4.15553807 L8.69190273,4.15553807 L8.06627468,2.90490697 C7.91189893,2.59615547 8.03689954,2.22052864 8.34565104,2.06615289 C8.65440255,1.91177714 9.03002938,2.03677774 9.18440513,2.34552925 L9.18440513,2.34552925 L9.81190819,3.60116037 L9.97503398,3.53616005 C10.5331617,3.35053414 11.1300396,3.24990865 11.7500426,3.24990865 C12.3700456,3.24990865 12.9669236,3.35053414 13.5250513,3.53616005 L13.5250513,3.53616005 L13.6881771,3.60116037 Z M9.8769085,5.74992083 C9.52940681,5.75054584 9.25003045,6.0299222 9.25003045,6.37492388 C9.25003045,6.71992556 9.53003181,6.99992692 9.87503349,6.99992692 C10.2206602,6.99992692 10.5006615,6.71992556 10.5006615,6.37492388 C10.5006615,6.0299222 10.2212852,5.75054584 9.8769085,5.74992083 L9.8769085,5.74992083 Z M13.6269268,5.74992083 C13.2788001,5.75054584 13.0000487,6.0299222 13.0000487,6.37492388 C13.0000487,6.71992556 13.2800501,6.99992692 13.6250518,6.99992692 C13.9706784,6.99992692 14.2506798,6.71992556 14.2506798,6.37492388 C14.2506798,6.0299222 13.9713034,5.75054584 13.6269268,5.74992083 L13.6269268,5.74992083 Z" id="path-1"></path>
    </defs>
    <g id="android" stroke="none" stroke-width="1" fill="none" fill-rule="evenodd">
        <mask id="mask-2" fill="white">
            <use xlink:href="#path-1"></use>
        </mask>
        <use id="Combined-Shape" fill="#000000" xlink:href="#path-1"></use>
    </g>
</svg>