<?xml version="1.0" encoding="UTF-8"?>
<svg width="24px" height="24px" viewBox="0 0 24 24" version="1.1" xmlns="http://www.w3.org/2000/svg" xmlns:xlink="http://www.w3.org/1999/xlink">
    <title>apple</title>
    <defs>
        <path d="M17.6017558,12.6268647 C17.5767558,10.0937421 19.6673788,8.8793683 19.7605037,8.81874336 C18.5855048,7.09937004 16.7555066,6.86437026 16.1036322,6.83687029 C14.5461338,6.67937044 13.0648852,7.7537444 12.274261,7.7537444 C11.4861367,7.7537444 10.2661379,6.85999527 8.97426419,6.88374525 C7.27676584,6.90874522 5.71114237,7.87061929 4.83739322,9.3912428 C3.07364493,12.4518648 4.38551866,16.9856104 6.10489198,19.468108 C6.94489117,20.6831068 7.94676519,22.0474805 9.26176391,21.9987305 C10.5280127,21.9481056 11.0073872,21.1793563 12.5380107,21.1793563 C14.0686342,21.1793563 14.4992588,21.9987305 15.8398825,21.9737306 C17.2023812,21.9481056 18.0661303,20.7356068 18.9005045,19.5168579 C19.8648786,18.1074843 20.2623782,16.7424856 20.2855032,16.6724857 C20.2555032,16.6587357 17.6280058,15.6524867 17.6017558,12.6268647 L17.6017558,12.6268647 Z M15.0836332,5.19374689 C15.7817576,4.34687272 16.2530071,3.17187386 16.1242572,2 C15.1186332,2.04124996 13.8998844,2.66999935 13.1786351,3.51437353 C12.5311357,4.2637478 11.9648863,5.45999663 12.1167611,6.60874551 C13.23926,6.69624543 14.3848839,6.03812107 15.0836332,5.19374689 Z" id="path-1"></path>
    </defs>
    <g id="apple" stroke="none" stroke-width="1" fill="none" fill-rule="evenodd">
        <mask id="mask-2" fill="white">
            <use xlink:href="#path-1"></use>
        </mask>
        <use id="Shape" fill="#000000" xlink:href="#path-1"></use>
    </g>
</svg>