<?xml version="1.0" encoding="UTF-8"?>
<svg width="24px" height="24px" viewBox="0 0 24 24" version="1.1" xmlns="http://www.w3.org/2000/svg" xmlns:xlink="http://www.w3.org/1999/xlink">
    <title>google_plus</title>
    <defs>
        <path d="M14.4739583,12.5104167 C14.4739583,13.7141204 14.2222222,14.786169 13.71875,15.7265625 C13.2152778,16.666956 12.4976852,17.4019097 11.5659722,17.9314236 C10.6342593,18.4609375 9.56655093,18.7256944 8.36284722,18.7256944 C7.5005787,18.7256944 6.67592593,18.5578704 5.88888889,18.2222222 C5.10185185,17.8865741 4.42476852,17.4351852 3.85763889,16.8680556 C3.29050926,16.3009259 2.83912037,15.6238426 2.50347222,14.8368056 C2.16782407,14.0497685 2,13.2251157 2,12.3628472 C2,11.5005787 2.16782407,10.6759259 2.50347222,9.88888889 C2.83912037,9.10185185 3.29050926,8.42476852 3.85763889,7.85763889 C4.42476852,7.29050926 5.10185185,6.83912037 5.88888889,6.50347222 C6.67592593,6.16782407 7.5005787,6 8.36284722,6 C10.0179398,6 11.4386574,6.55555556 12.625,7.66666667 L10.8975694,9.32465278 C10.2204861,8.67071759 9.3755787,8.34375 8.36284722,8.34375 C7.65104167,8.34375 6.9927662,8.52314815 6.38802083,8.88194444 C5.78327546,9.24074074 5.30439815,9.72829861 4.95138889,10.3446181 C4.59837963,10.9609375 4.421875,11.6336806 4.421875,12.3628472 C4.421875,13.0920139 4.59837963,13.7647569 4.95138889,14.3810764 C5.30439815,14.9973958 5.78327546,15.4849537 6.38802083,15.84375 C6.9927662,16.2025463 7.65104167,16.3819444 8.36284722,16.3819444 C8.8431713,16.3819444 9.28443287,16.3153935 9.68663194,16.1822917 C10.088831,16.0491898 10.4201389,15.8828125 10.6805556,15.6831597 C10.9409722,15.4835069 11.1681134,15.2563657 11.3619792,15.0017361 C11.5558449,14.7471065 11.6976273,14.5069444 11.7873264,14.28125 C11.8770255,14.0555556 11.9392361,13.8414352 11.9739583,13.6388889 L8.36284722,13.6388889 L8.36284722,11.4513889 L14.3697917,11.4513889 C14.4392361,11.8159722 14.4739583,12.1689815 14.4739583,12.5104167 Z M22,11.4513889 L22,13.2743056 L20.1857639,13.2743056 L20.1857639,15.0885417 L18.3628472,15.0885417 L18.3628472,13.2743056 L16.5486111,13.2743056 L16.5486111,11.4513889 L18.3628472,11.4513889 L18.3628472,9.63715278 L20.1857639,9.63715278 L20.1857639,11.4513889 L22,11.4513889 Z" id="path-1"></path>
    </defs>
    <g id="google_plus" stroke="none" stroke-width="1" fill="none" fill-rule="evenodd">
        <mask id="mask-2" fill="white">
            <use xlink:href="#path-1"></use>
        </mask>
        <use id="Shape" fill="#000000" xlink:href="#path-1"></use>
    </g>
</svg>