<?xml version="1.0" encoding="UTF-8"?>
<svg width="24px" height="24px" viewBox="0 0 24 24" version="1.1" xmlns="http://www.w3.org/2000/svg" xmlns:xlink="http://www.w3.org/1999/xlink">
    <title>instagram</title>
    <defs>
        <path d="M15.3333333,12 C15.3333333,11.0798611 15.0078125,10.2942708 14.3567708,9.64322917 C13.7057292,8.9921875 12.9201389,8.66666667 12,8.66666667 C11.0798611,8.66666667 10.2942708,8.9921875 9.64322917,9.64322917 C8.9921875,10.2942708 8.66666667,11.0798611 8.66666667,12 C8.66666667,12.9201389 8.9921875,13.7057292 9.64322917,14.3567708 C10.2942708,15.0078125 11.0798611,15.3333333 12,15.3333333 C12.9201389,15.3333333 13.7057292,15.0078125 14.3567708,14.3567708 C15.0078125,13.7057292 15.3333333,12.9201389 15.3333333,12 Z M17.1302083,12 C17.1302083,13.4236111 16.6310764,14.6345486 15.6328125,15.6328125 C14.6345486,16.6310764 13.4236111,17.1302083 12,17.1302083 C10.5763889,17.1302083 9.36545139,16.6310764 8.3671875,15.6328125 C7.36892361,14.6345486 6.86979167,13.4236111 6.86979167,12 C6.86979167,10.5763889 7.36892361,9.36545139 8.3671875,8.3671875 C9.36545139,7.36892361 10.5763889,6.86979167 12,6.86979167 C13.4236111,6.86979167 14.6345486,7.36892361 15.6328125,8.3671875 C16.6310764,9.36545139 17.1302083,10.5763889 17.1302083,12 Z M18.5364583,6.66145833 C18.5364583,6.99131944 18.4192708,7.2734375 18.1848958,7.5078125 C17.9505208,7.7421875 17.6684028,7.859375 17.3385417,7.859375 C17.0086806,7.859375 16.7265625,7.7421875 16.4921875,7.5078125 C16.2578125,7.2734375 16.140625,6.99131944 16.140625,6.66145833 C16.140625,6.33159722 16.2578125,6.04947917 16.4921875,5.81510417 C16.7265625,5.58072917 17.0086806,5.46354167 17.3385417,5.46354167 C17.6684028,5.46354167 17.9505208,5.58072917 18.1848958,5.81510417 C18.4192708,6.04947917 18.5364583,6.33159722 18.5364583,6.66145833 Z M12,3.796875 C11.9392361,3.796875 11.6072049,3.79470486 11.0039062,3.79036458 C10.4006076,3.78602431 9.94270833,3.78602431 9.63020833,3.79036458 C9.31770833,3.79470486 8.89887153,3.80772569 8.37369792,3.82942708 C7.84852431,3.85112847 7.40147569,3.89453125 7.03255208,3.95963542 C6.66362847,4.02473958 6.35329861,4.10503472 6.1015625,4.20052083 C5.66753472,4.37413194 5.28559028,4.62586806 4.95572917,4.95572917 C4.62586806,5.28559028 4.37413194,5.66753472 4.20052083,6.1015625 C4.10503472,6.35329861 4.02473958,6.66362847 3.95963542,7.03255208 C3.89453125,7.40147569 3.85112847,7.84852431 3.82942708,8.37369792 C3.80772569,8.89887153 3.79470486,9.31770833 3.79036458,9.63020833 C3.78602431,9.94270833 3.78602431,10.4006076 3.79036458,11.0039062 C3.79470486,11.6072049 3.796875,11.9392361 3.796875,12 C3.796875,12.0607639 3.79470486,12.3927951 3.79036458,12.9960938 C3.78602431,13.5993924 3.78602431,14.0572917 3.79036458,14.3697917 C3.79470486,14.6822917 3.80772569,15.1011285 3.82942708,15.6263021 C3.85112847,16.1514757 3.89453125,16.5985243 3.95963542,16.9674479 C4.02473958,17.3363715 4.10503472,17.6467014 4.20052083,17.8984375 C4.37413194,18.3324653 4.62586806,18.7144097 4.95572917,19.0442708 C5.28559028,19.3741319 5.66753472,19.6258681 6.1015625,19.7994792 C6.35329861,19.8949653 6.66362847,19.9752604 7.03255208,20.0403646 C7.40147569,20.1054688 7.84852431,20.1488715 8.37369792,20.1705729 C8.89887153,20.1922743 9.31770833,20.2052951 9.63020833,20.2096354 C9.94270833,20.2139757 10.4006076,20.2139757 11.0039062,20.2096354 C11.6072049,20.2052951 11.9392361,20.203125 12,20.203125 C12.0607639,20.203125 12.3927951,20.2052951 12.9960938,20.2096354 C13.5993924,20.2139757 14.0572917,20.2139757 14.3697917,20.2096354 C14.6822917,20.2052951 15.1011285,20.1922743 15.6263021,20.1705729 C16.1514757,20.1488715 16.5985243,20.1054688 16.9674479,20.0403646 C17.3363715,19.9752604 17.6467014,19.8949653 17.8984375,19.7994792 C18.3324653,19.6258681 18.7144097,19.3741319 19.0442708,19.0442708 C19.3741319,18.7144097 19.6258681,18.3324653 19.7994792,17.8984375 C19.8949653,17.6467014 19.9752604,17.3363715 20.0403646,16.9674479 C20.1054688,16.5985243 20.1488715,16.1514757 20.1705729,15.6263021 C20.1922743,15.1011285 20.2052951,14.6822917 20.2096354,14.3697917 C20.2139757,14.0572917 20.2139757,13.5993924 20.2096354,12.9960938 C20.2052951,12.3927951 20.203125,12.0607639 20.203125,12 C20.203125,11.9392361 20.2052951,11.6072049 20.2096354,11.0039062 C20.2139757,10.4006076 20.2139757,9.94270833 20.2096354,9.63020833 C20.2052951,9.31770833 20.1922743,8.89887153 20.1705729,8.37369792 C20.1488715,7.84852431 20.1054688,7.40147569 20.0403646,7.03255208 C19.9752604,6.66362847 19.8949653,6.35329861 19.7994792,6.1015625 C19.6258681,5.66753472 19.3741319,5.28559028 19.0442708,4.95572917 C18.7144097,4.62586806 18.3324653,4.37413194 17.8984375,4.20052083 C17.6467014,4.10503472 17.3363715,4.02473958 16.9674479,3.95963542 C16.5985243,3.89453125 16.1514757,3.85112847 15.6263021,3.82942708 C15.1011285,3.80772569 14.6822917,3.79470486 14.3697917,3.79036458 C14.0572917,3.78602431 13.5993924,3.78602431 12.9960938,3.79036458 C12.3927951,3.79470486 12.0607639,3.796875 12,3.796875 Z M22,12 C22,13.9878472 21.9782986,15.3637153 21.9348958,16.1276042 C21.8480903,17.9331597 21.3098958,19.3307292 20.3203125,20.3203125 C19.3307292,21.3098958 17.9331597,21.8480903 16.1276042,21.9348958 C15.3637153,21.9782986 13.9878472,22 12,22 C10.0121528,22 8.63628472,21.9782986 7.87239583,21.9348958 C6.06684028,21.8480903 4.66927083,21.3098958 3.6796875,20.3203125 C2.69010417,19.3307292 2.15190972,17.9331597 2.06510417,16.1276042 C2.02170139,15.3637153 2,13.9878472 2,12 C2,10.0121528 2.02170139,8.63628472 2.06510417,7.87239583 C2.15190972,6.06684028 2.69010417,4.66927083 3.6796875,3.6796875 C4.66927083,2.69010417 6.06684028,2.15190972 7.87239583,2.06510417 C8.63628472,2.02170139 10.0121528,2 12,2 C13.9878472,2 15.3637153,2.02170139 16.1276042,2.06510417 C17.9331597,2.15190972 19.3307292,2.69010417 20.3203125,3.6796875 C21.3098958,4.66927083 21.8480903,6.06684028 21.9348958,7.87239583 C21.9782986,8.63628472 22,10.0121528 22,12 Z" id="path-1"></path>
    </defs>
    <g id="instagram" stroke="none" stroke-width="1" fill="none" fill-rule="evenodd">
        <mask id="mask-2" fill="white">
            <use xlink:href="#path-1"></use>
        </mask>
        <use id="Shape" fill="#000000" xlink:href="#path-1"></use>
    </g>
</svg>