<?xml version="1.0" encoding="UTF-8"?>
<svg width="24px" height="24px" viewBox="0 0 24 24" version="1.1" xmlns="http://www.w3.org/2000/svg" xmlns:xlink="http://www.w3.org/1999/xlink">
    <title>pinterest</title>
    <defs>
        <path d="M22,12 C22,13.8142361 21.5529514,15.4874132 20.6588542,17.0195312 C19.7647569,18.5516493 18.5516493,19.7647569 17.0195312,20.6588542 C15.4874132,21.5529514 13.8142361,22 12,22 C11.0364583,22 10.0902778,21.8611111 9.16145833,21.5833333 C9.67361111,20.7760417 10.0121528,20.0642361 10.1770833,19.4479167 C10.2552083,19.1527778 10.4895833,18.2369792 10.8802083,16.7005208 C11.0538194,17.0390625 11.3706597,17.3320312 11.8307292,17.5794271 C12.2907986,17.8268229 12.7855903,17.9505208 13.3151042,17.9505208 C14.3654514,17.9505208 15.3029514,17.6532118 16.1276042,17.0585938 C16.9522569,16.4639757 17.5902778,15.6458333 18.0416667,14.6041667 C18.4930556,13.5625 18.71875,12.390625 18.71875,11.0885417 C18.71875,10.0989583 18.4605035,9.17013889 17.9440104,8.30208333 C17.4275174,7.43402778 16.6788194,6.7265625 15.6979167,6.1796875 C14.7170139,5.6328125 13.6102431,5.359375 12.3776042,5.359375 C11.4661458,5.359375 10.6154514,5.48524306 9.82552083,5.73697917 C9.03559028,5.98871528 8.36501736,6.32291667 7.81380208,6.73958333 C7.26258681,7.15625 6.78949653,7.63585069 6.39453125,8.17838542 C5.99956597,8.72092014 5.70876736,9.28298611 5.52213542,9.86458333 C5.33550347,10.4461806 5.2421875,11.0277778 5.2421875,11.609375 C5.2421875,12.5121528 5.41579861,13.3064236 5.76302083,13.9921875 C6.11024306,14.6779514 6.61805556,15.1597222 7.28645833,15.4375 C7.546875,15.5416667 7.71180556,15.4548611 7.78125,15.1770833 C7.79861111,15.1163194 7.83333333,14.9817708 7.88541667,14.7734375 C7.9375,14.5651042 7.97222222,14.4348958 7.98958333,14.3828125 C8.04166667,14.1831597 7.99392361,13.9965278 7.84635417,13.8229167 C7.40364583,13.2934028 7.18229167,12.6380208 7.18229167,11.8567708 C7.18229167,10.5460069 7.63585069,9.41970486 8.54296875,8.47786458 C9.45008681,7.53602431 10.6371528,7.06510417 12.1041667,7.06510417 C13.4149306,7.06510417 14.437066,7.42100694 15.1705729,8.1328125 C15.9040799,8.84461806 16.2708333,9.76909722 16.2708333,10.90625 C16.2708333,12.3819444 15.9735243,13.6362847 15.3789062,14.6692708 C14.7842882,15.7022569 14.0225694,16.21875 13.09375,16.21875 C12.5642361,16.21875 12.1388889,16.0299479 11.8177083,15.6523438 C11.4965278,15.2747396 11.3967014,14.8211806 11.5182292,14.2916667 C11.5876736,13.9878472 11.702691,13.5820312 11.8632812,13.0742188 C12.0238715,12.5664062 12.1540799,12.1193576 12.2539062,11.7330729 C12.3537326,11.3467882 12.4036458,11.0190972 12.4036458,10.75 C12.4036458,10.3159722 12.2864583,9.95572917 12.0520833,9.66927083 C11.8177083,9.3828125 11.4835069,9.23958333 11.0494792,9.23958333 C10.5112847,9.23958333 10.0555556,9.48697917 9.68229167,9.98177083 C9.30902778,10.4765625 9.12239583,11.0928819 9.12239583,11.8307292 C9.12239583,12.4644097 9.23090278,12.9939236 9.44791667,13.4192708 L8.15885417,18.8619792 C8.01128472,19.4696181 7.95486111,20.2378472 7.98958333,21.1666667 C6.20138889,20.3767361 4.75607639,19.1571181 3.65364583,17.5078125 C2.55121528,15.8585069 2,14.0225694 2,12 C2,10.1857639 2.44704861,8.51258681 3.34114583,6.98046875 C4.23524306,5.44835069 5.44835069,4.23524306 6.98046875,3.34114583 C8.51258681,2.44704861 10.1857639,2 12,2 C13.8142361,2 15.4874132,2.44704861 17.0195312,3.34114583 C18.5516493,4.23524306 19.7647569,5.44835069 20.6588542,6.98046875 C21.5529514,8.51258681 22,10.1857639 22,12 Z" id="path-1"></path>
    </defs>
    <g id="pinterest" stroke="none" stroke-width="1" fill="none" fill-rule="evenodd">
        <mask id="mask-2" fill="white">
            <use xlink:href="#path-1"></use>
        </mask>
        <use id="Shape" fill="#000000" xlink:href="#path-1"></use>
    </g>
</svg>