<?xml version="1.0" encoding="UTF-8"?>
<svg width="24px" height="24px" viewBox="0 0 24 24" version="1.1" xmlns="http://www.w3.org/2000/svg" xmlns:xlink="http://www.w3.org/1999/xlink">
    <title>snapchat</title>
    <defs>
        <path d="M18.6536458,15.28125 C18.6536458,15.0902778 18.5581597,14.9730903 18.3671875,14.9296875 C17.7855903,14.7994792 17.2734375,14.5434028 16.8307292,14.1614583 C16.3880208,13.7795139 16.0407986,13.3107639 15.7890625,12.7552083 C15.7282986,12.5902778 15.6979167,12.4817708 15.6979167,12.4296875 C15.6979167,12.2994792 15.7825521,12.1866319 15.9518229,12.0911458 C16.1210938,11.9956597 16.3077257,11.921875 16.5117188,11.8697917 C16.7157118,11.8177083 16.9023438,11.7287326 17.0716146,11.6028646 C17.2408854,11.4769965 17.3255208,11.3185764 17.3255208,11.1276042 C17.3255208,10.9626736 17.2452257,10.8259549 17.0846354,10.7174479 C16.9240451,10.608941 16.7569444,10.5546875 16.5833333,10.5546875 C16.4791667,10.5546875 16.3402778,10.5894097 16.1666667,10.6588542 C15.9930556,10.7282986 15.8585069,10.7630208 15.7630208,10.7630208 C15.7282986,10.7630208 15.6762153,10.7543403 15.6067708,10.7369792 C15.6501736,9.91232639 15.671875,9.41753472 15.671875,9.25260417 C15.671875,8.56684028 15.5980903,8.07204861 15.4505208,7.76822917 C15.1380208,7.09114583 14.6909722,6.56380208 14.109375,6.18619792 C13.5277778,5.80859375 12.8680556,5.61979167 12.1302083,5.61979167 C10.4027778,5.61979167 9.20920139,6.3359375 8.54947917,7.76822917 C8.40190972,8.07204861 8.328125,8.56684028 8.328125,9.25260417 C8.328125,9.41753472 8.34982639,9.91232639 8.39322917,10.7369792 C8.35850694,10.7543403 8.29774306,10.7630208 8.2109375,10.7630208 C8.10677083,10.7630208 7.96788194,10.7304688 7.79427083,10.6653646 C7.62065972,10.6002604 7.49045139,10.5677083 7.40364583,10.5677083 C7.22135417,10.5677083 7.05425347,10.6197917 6.90234375,10.7239583 C6.75043403,10.828125 6.67447917,10.9670139 6.67447917,11.140625 C6.67447917,11.3229167 6.75911458,11.4769965 6.92838542,11.6028646 C7.09765625,11.7287326 7.28428819,11.8177083 7.48828125,11.8697917 C7.69227431,11.921875 7.87890625,11.9956597 8.04817708,12.0911458 C8.21744792,12.1866319 8.30208333,12.2994792 8.30208333,12.4296875 C8.30208333,12.4817708 8.27170139,12.5902778 8.2109375,12.7552083 C7.65538194,13.953125 6.79600694,14.6779514 5.6328125,14.9296875 C5.44184028,14.9730903 5.34635417,15.0902778 5.34635417,15.28125 C5.34635417,15.6805556 5.94097222,15.9756944 7.13020833,16.1666667 C7.14756944,16.2100694 7.17361111,16.3229167 7.20833333,16.5052083 C7.24305556,16.6875 7.29296875,16.8198785 7.35807292,16.9023438 C7.42317708,16.984809 7.52517361,17.0260417 7.6640625,17.0260417 C7.76822917,17.0260417 7.93098958,17.0065104 8.15234375,16.9674479 C8.37369792,16.9283854 8.54513889,16.9088542 8.66666667,16.9088542 C8.97048611,16.9088542 9.26128472,16.9739583 9.5390625,17.1041667 C9.81684028,17.234375 10.0512153,17.375434 10.2421875,17.5273438 C10.4331597,17.6792535 10.6827257,17.8203125 10.9908854,17.9505208 C11.2990451,18.0807292 11.6310764,18.1458333 11.9869792,18.1458333 C12.3602431,18.1458333 12.703125,18.0807292 13.015625,17.9505208 C13.328125,17.8203125 13.577691,17.6792535 13.7643229,17.5273438 C13.9509549,17.375434 14.1831597,17.234375 14.4609375,17.1041667 C14.7387153,16.9739583 15.0295139,16.9088542 15.3333333,16.9088542 C15.4548611,16.9088542 15.6263021,16.9262153 15.8476563,16.9609375 C16.0690104,16.9956597 16.2361111,17.0130208 16.3489583,17.0130208 C16.4878472,17.0130208 16.5876736,16.9696181 16.6484375,16.8828125 C16.7092014,16.7960069 16.7569444,16.6657986 16.7916667,16.4921875 C16.8263889,16.3185764 16.8524306,16.2100694 16.8697917,16.1666667 C18.0590278,15.9756944 18.6536458,15.6805556 18.6536458,15.28125 Z M22,12 C22,13.8142361 21.5529514,15.4874132 20.6588542,17.0195312 C19.7647569,18.5516493 18.5516493,19.7647569 17.0195312,20.6588542 C15.4874132,21.5529514 13.8142361,22 12,22 C10.1857639,22 8.51258681,21.5529514 6.98046875,20.6588542 C5.44835069,19.7647569 4.23524306,18.5516493 3.34114583,17.0195312 C2.44704861,15.4874132 2,13.8142361 2,12 C2,10.1857639 2.44704861,8.51258681 3.34114583,6.98046875 C4.23524306,5.44835069 5.44835069,4.23524306 6.98046875,3.34114583 C8.51258681,2.44704861 10.1857639,2 12,2 C13.8142361,2 15.4874132,2.44704861 17.0195312,3.34114583 C18.5516493,4.23524306 19.7647569,5.44835069 20.6588542,6.98046875 C21.5529514,8.51258681 22,10.1857639 22,12 Z" id="path-1"></path>
    </defs>
    <g id="snapchat" stroke="none" stroke-width="1" fill="none" fill-rule="evenodd">
        <mask id="mask-2" fill="white">
            <use xlink:href="#path-1"></use>
        </mask>
        <use id="Shape" fill="#000000" xlink:href="#path-1"></use>
    </g>
</svg>