<?xml version="1.0" encoding="UTF-8"?>
<svg width="24px" height="24px" viewBox="0 0 24 24" version="1.1" xmlns="http://www.w3.org/2000/svg" xmlns:xlink="http://www.w3.org/1999/xlink">
    <title>twitter</title>
    <defs>
        <path d="M22,5.92893401 C21.4331641,6.75803723 20.7478849,7.46446701 19.9441624,8.04822335 C19.9526227,8.16666667 19.9568528,8.34433164 19.9568528,8.58121827 C19.9568528,9.68104907 19.7961083,10.7787648 19.4746193,11.8743655 C19.1531303,12.9699662 18.6645516,14.0211506 18.0088832,15.0279188 C17.3532149,16.034687 16.572758,16.9251269 15.6675127,17.6992386 C14.7622673,18.4733503 13.6708968,19.0909475 12.393401,19.5520305 C11.1159052,20.0131134 9.74957699,20.2436548 8.29441624,20.2436548 C6.00169205,20.2436548 3.9035533,19.6302876 2,18.4035533 C2.29610829,18.4373942 2.62605753,18.4543147 2.98984772,18.4543147 C4.89340102,18.4543147 6.58967851,17.8705584 8.0786802,16.7030457 C7.19035533,16.6861252 6.39509306,16.4132826 5.6928934,15.8845178 C4.99069374,15.355753 4.50846024,14.6810491 4.24619289,13.8604061 C4.52538071,13.9027073 4.78341794,13.9238579 5.02030457,13.9238579 C5.38409475,13.9238579 5.74365482,13.8773266 6.09898477,13.784264 C5.15143824,13.5896785 4.36675127,13.1180203 3.74492386,12.3692893 C3.12309645,11.6205584 2.81218274,10.751269 2.81218274,9.76142132 L2.81218274,9.7106599 C3.38747885,10.0321489 4.00507614,10.2055838 4.66497462,10.2309645 C4.10659898,9.85871404 3.66243655,9.37225042 3.33248731,8.7715736 C3.00253807,8.17089679 2.83756345,7.51945854 2.83756345,6.81725888 C2.83756345,6.07275804 3.02368866,5.38324873 3.39593909,4.74873096 C4.41962775,6.00930626 5.66539763,7.01818951 7.13324873,7.77538071 C8.60109983,8.53257191 10.1725888,8.9534687 11.8477157,9.03807107 C11.7800338,8.71658206 11.7461929,8.4035533 11.7461929,8.09898477 C11.7461929,6.96531303 12.1459391,5.99873096 12.9454315,5.19923858 C13.7449239,4.39974619 14.7115059,4 15.8451777,4 C17.0296108,4 18.0279188,4.43147208 18.8401015,5.29441624 C19.7622673,5.11675127 20.6294416,4.78680203 21.4416244,4.30456853 C21.1285956,5.27749577 20.5279188,6.03045685 19.6395939,6.56345178 C20.4263959,6.47884941 21.213198,6.26734349 22,5.92893401 Z" id="path-1"></path>
    </defs>
    <g id="twitter" stroke="none" stroke-width="1" fill="none" fill-rule="evenodd">
        <mask id="mask-2" fill="white">
            <use xlink:href="#path-1"></use>
        </mask>
        <use id="Shape" fill="#000000" xlink:href="#path-1"></use>
    </g>
</svg>