<?xml version="1.0" encoding="UTF-8"?>
<svg width="24px" height="24px" viewBox="0 0 24 24" version="1.1" xmlns="http://www.w3.org/2000/svg" xmlns:xlink="http://www.w3.org/1999/xlink">
    <title>youtube</title>
    <defs>
        <path d="M14.5357143,15.8839286 L14.5357143,18.2388393 C14.5357143,18.7373512 14.390625,18.9866071 14.1004464,18.9866071 C13.9293155,18.9866071 13.7619048,18.9047619 13.5982143,18.7410714 L13.5982143,15.3816964 C13.7619048,15.218006 13.9293155,15.1361607 14.1004464,15.1361607 C14.390625,15.1361607 14.5357143,15.3854167 14.5357143,15.8839286 Z M18.3080357,15.8950893 L18.3080357,16.4084821 L17.3035714,16.4084821 L17.3035714,15.8950893 C17.3035714,15.3891369 17.4709821,15.1361607 17.8058036,15.1361607 C18.140625,15.1361607 18.3080357,15.3891369 18.3080357,15.8950893 Z M7.52678571,13.4620536 L8.72098214,13.4620536 L8.72098214,12.4129464 L5.23883929,12.4129464 L5.23883929,13.4620536 L6.41071429,13.4620536 L6.41071429,19.8125 L7.52678571,19.8125 L7.52678571,13.4620536 Z M10.7410714,19.8125 L11.734375,19.8125 L11.734375,14.2991071 L10.7410714,14.2991071 L10.7410714,18.5178571 C10.5178571,18.8303571 10.3058036,18.9866071 10.1049107,18.9866071 C9.97098214,18.9866071 9.89285714,18.9084821 9.87053571,18.7522321 C9.86309524,18.7299107 9.859375,18.5997024 9.859375,18.3616071 L9.859375,14.2991071 L8.86607143,14.2991071 L8.86607143,18.6629464 C8.86607143,19.0275298 8.89583333,19.2991071 8.95535714,19.4776786 C9.04464286,19.7529762 9.26041667,19.890625 9.60267857,19.890625 C9.95982143,19.890625 10.3392857,19.6636905 10.7410714,19.2098214 L10.7410714,19.8125 Z M15.5290179,18.1607143 L15.5290179,15.9620536 C15.5290179,15.4188988 15.4955357,15.0505952 15.4285714,14.8571429 C15.3020833,14.4404762 15.0379464,14.2321429 14.6361607,14.2321429 C14.2641369,14.2321429 13.9181548,14.4330357 13.5982143,14.8348214 L13.5982143,12.4129464 L12.6049107,12.4129464 L12.6049107,19.8125 L13.5982143,19.8125 L13.5982143,19.2767857 C13.9330357,19.6860119 14.2790179,19.890625 14.6361607,19.890625 C15.0379464,19.890625 15.3020833,19.6860119 15.4285714,19.2767857 C15.4955357,19.0758929 15.5290179,18.703869 15.5290179,18.1607143 Z M19.3013393,18.0491071 L19.3013393,17.9040179 L18.2857143,17.9040179 C18.2857143,18.2834821 18.2782738,18.5104167 18.2633929,18.5848214 C18.2113095,18.8526786 18.0625,18.9866071 17.8169643,18.9866071 C17.4747024,18.9866071 17.3035714,18.7299107 17.3035714,18.2165179 L17.3035714,17.2455357 L19.3013393,17.2455357 L19.3013393,16.0959821 C19.3013393,15.5081845 19.2008929,15.0766369 19,14.8013393 C18.7098214,14.421875 18.3154762,14.2321429 17.8169643,14.2321429 C17.3110119,14.2321429 16.9129464,14.421875 16.6227679,14.8013393 C16.4144345,15.0766369 16.3102679,15.5081845 16.3102679,16.0959821 L16.3102679,18.0267857 C16.3102679,18.6145833 16.4181548,19.046131 16.6339286,19.3214286 C16.9241071,19.7008929 17.3258929,19.890625 17.8392857,19.890625 C18.375,19.890625 18.7767857,19.6934524 19.0446429,19.2991071 C19.1785714,19.0982143 19.2566964,18.8973214 19.2790179,18.6964286 C19.2938988,18.6294643 19.3013393,18.4136905 19.3013393,18.0491071 Z M12.515625,7.859375 L12.515625,5.515625 C12.515625,5.00223214 12.3556548,4.74553571 12.0357143,4.74553571 C11.7157738,4.74553571 11.5558036,5.00223214 11.5558036,5.515625 L11.5558036,7.859375 C11.5558036,8.38020833 11.7157738,8.640625 12.0357143,8.640625 C12.3556548,8.640625 12.515625,8.38020833 12.515625,7.859375 Z M20.5401786,16.2410714 C20.5401786,17.9821429 20.4434524,19.2842262 20.25,20.1473214 C20.1458333,20.5863095 19.9300595,20.9546131 19.6026786,21.2522321 C19.2752976,21.5498512 18.8958333,21.7209821 18.4642857,21.765625 C17.0952381,21.921875 15.030506,22 12.2700893,22 C9.50967262,22 7.44494048,21.921875 6.07589286,21.765625 C5.64434524,21.7209821 5.26302083,21.5498512 4.93191964,21.2522321 C4.60081845,20.9546131 4.38690476,20.5863095 4.29017857,20.1473214 C4.09672619,19.3139881 4,18.0119048 4,16.2410714 C4,14.5 4.09672619,13.1979167 4.29017857,12.3348214 C4.39434524,11.8958333 4.61011905,11.5275298 4.9375,11.2299107 C5.26488095,10.9322917 5.64806548,10.7574405 6.08705357,10.7053571 C7.44866071,10.5565476 9.50967262,10.4821429 12.2700893,10.4821429 C15.030506,10.4821429 17.0952381,10.5565476 18.4642857,10.7053571 C18.8958333,10.7574405 19.2771577,10.9322917 19.6082589,11.2299107 C19.9393601,11.5275298 20.1532738,11.8958333 20.25,12.3348214 C20.4434524,13.1681548 20.5401786,14.4702381 20.5401786,16.2410714 Z M9.40178571,2 L10.5401786,2 L9.18973214,6.453125 L9.18973214,9.47767857 L8.07366071,9.47767857 L8.07366071,6.453125 C7.96949405,5.90252976 7.74255952,5.11383929 7.39285714,4.08705357 C7.11755952,3.32068452 6.87574405,2.625 6.66741071,2 L7.85044643,2 L8.64285714,4.93526786 L9.40178571,2 Z M13.53125,5.71651786 L13.53125,7.66964286 C13.53125,8.27232143 13.4270833,8.71130952 13.21875,8.98660714 C12.9360119,9.36607143 12.5416667,9.55580357 12.0357143,9.55580357 C11.5372024,9.55580357 11.1465774,9.36607143 10.8638393,8.98660714 C10.655506,8.70386905 10.5513393,8.26488095 10.5513393,7.66964286 L10.5513393,5.71651786 C10.5513393,5.12127976 10.655506,4.6860119 10.8638393,4.41071429 C11.1465774,4.03125 11.5372024,3.84151786 12.0357143,3.84151786 C12.5416667,3.84151786 12.9360119,4.03125 13.21875,4.41071429 C13.4270833,4.6860119 13.53125,5.12127976 13.53125,5.71651786 Z M17.2700893,3.90848214 L17.2700893,9.47767857 L16.2544643,9.47767857 L16.2544643,8.86383929 C15.860119,9.32514881 15.4769345,9.55580357 15.1049107,9.55580357 C14.7626488,9.55580357 14.5431548,9.41815476 14.4464286,9.14285714 C14.3869048,8.96428571 14.3571429,8.68526786 14.3571429,8.30580357 L14.3571429,3.90848214 L15.3727679,3.90848214 L15.3727679,8.00446429 C15.3727679,8.25 15.3764881,8.38020833 15.3839286,8.39508929 C15.40625,8.55877976 15.484375,8.640625 15.6183036,8.640625 C15.8191964,8.640625 16.03125,8.48065476 16.2544643,8.16071429 L16.2544643,3.90848214 L17.2700893,3.90848214 Z" id="path-1"></path>
    </defs>
    <g id="youtube" stroke="none" stroke-width="1" fill="none" fill-rule="evenodd">
        <mask id="mask-2" fill="white">
            <use xlink:href="#path-1"></use>
        </mask>
        <use id="Shape" fill="#000000" xlink:href="#path-1"></use>
    </g>
</svg>