<?xml version="1.0" encoding="UTF-8"?>
<svg width="24px" height="24px" viewBox="0 0 24 24" version="1.1" xmlns="http://www.w3.org/2000/svg" xmlns:xlink="http://www.w3.org/1999/xlink">
    <title>3d_rotation</title>
    <defs>
        <path d="M8.40999999,14.96 C8.21999998,14.96 8.03999998,14.93 7.88999998,14.88 C7.72999998,14.82 7.59999998,14.75 7.48999998,14.64 C7.37999998,14.54 7.28999998,14.42 7.22999998,14.27 C7.16999998,14.13 7.13999998,13.97 7.13999998,13.8 L5.83999997,13.8 C5.83999997,14.16 5.90999997,14.48 6.04999998,14.75 C6.18999998,15.02 6.37999998,15.25 6.60999998,15.44 C6.84999998,15.62 7.11999998,15.76 7.42999998,15.85 C7.72999998,15.95 8.04999998,16 8.38999998,16 C8.75999999,16 9.10999999,15.95 9.41999999,15.85 C9.73999999,15.75 10.02,15.6 10.25,15.41 C10.48,15.22 10.67,14.98 10.8,14.69 C10.93,14.4 11,14.08 11,13.72 C11,13.53 10.98,13.34 10.93,13.16 C10.88,12.98 10.81,12.81 10.7,12.65 C10.6,12.49 10.46,12.35 10.3,12.22 C10.13,12.09 9.92999999,11.99 9.68999999,11.91 C9.88999999,11.82 10.06,11.71 10.21,11.58 C10.36,11.45 10.48,11.31 10.58,11.16 C10.68,11.01 10.75,10.86 10.8,10.7 C10.85,10.54 10.87,10.38 10.87,10.22 C10.87,9.85999999 10.81,9.53999999 10.69,9.25999999 C10.57,8.97999999 10.4,8.74999999 10.18,8.56999999 C9.97999999,8.37999998 9.70999999,8.23999998 9.40999999,8.13999998 C9.09999999,8.04999998 8.75999999,7.99999998 8.38999998,7.99999998 C8.02999998,7.99999998 7.69999998,8.04999998 7.38999998,8.15999998 C7.08999998,8.26999998 6.81999998,8.41999999 6.59999998,8.60999999 C6.38999998,8.79999999 6.21999998,9.01999999 6.08999998,9.27999999 C5.96999997,9.53999999 5.90999997,9.81999999 5.90999997,10.13 L7.20999998,10.13 C7.20999998,9.95999999 7.23999998,9.80999999 7.29999998,9.67999999 C7.35999998,9.54999999 7.43999998,9.42999999 7.54999998,9.33999999 C7.65999998,9.24999999 7.77999998,9.16999999 7.92999998,9.11999999 C8.07999998,9.06999999 8.22999998,9.03999999 8.40999999,9.03999999 C8.80999999,9.03999999 9.10999999,9.13999999 9.29999999,9.34999999 C9.48999999,9.54999999 9.58999999,9.83999999 9.58999999,10.21 C9.58999999,10.39 9.55999999,10.55 9.50999999,10.7 C9.45999999,10.85 9.36999999,10.97 9.25999999,11.07 C9.14999999,11.17 9.00999999,11.25 8.84999999,11.31 C8.68999999,11.37 8.48999999,11.4 8.26999998,11.4 L7.49999998,11.4 L7.49999998,12.43 L8.26999998,12.43 C8.48999999,12.43 8.68999999,12.45 8.86999999,12.5 C9.04999999,12.55 9.19999999,12.63 9.31999999,12.73 C9.43999999,12.84 9.53999999,12.97 9.60999999,13.13 C9.67999999,13.29 9.70999999,13.48 9.70999999,13.7 C9.70999999,14.11 9.58999999,14.42 9.35999999,14.63 C9.12999999,14.86 8.80999999,14.96 8.40999999,14.96 L8.40999999,14.96 Z M17.71,10.24 C17.53,9.76999999 17.28,9.36999999 16.96,9.03999999 C16.64,8.70999999 16.26,8.44999999 15.82,8.26999998 C15.39,8.08999998 14.9,7.99999998 14.36,7.99999998 L12,7.99999998 L12,16 L14.3,16 C14.85,16 15.36,15.91 15.81,15.73 C16.26,15.55 16.65,15.3 16.97,14.97 C17.29,14.64 17.54,14.24 17.71,13.78 C17.88,13.31 17.97,12.79 17.97,12.21 L17.97,11.81 C17.97,11.23 17.88,10.71 17.71,10.24 L17.71,10.24 Z M16.58,12.2 C16.58,12.62 16.53,12.99 16.44,13.33 C16.34,13.66 16.2,13.95 16.01,14.18 C15.82,14.41 15.58,14.59 15.3,14.71 C15.01,14.83 14.68,14.89 14.31,14.89 L13.4,14.89 L13.4,9.10999999 L14.37,9.10999999 C15.09,9.10999999 15.64,9.33999999 16.01,9.79999999 C16.39,10.26 16.58,10.92 16.58,11.79 L16.58,12.2 L16.58,12.2 Z M15.15,3.83999997 L16.48,2.50999996 C19.57,3.96999997 21.82,6.87999998 22.37,10.37 C22.43,10.78 22.81,11.06 23.23,10.99 C23.64,10.93 23.92,10.54 23.85,10.13 C23.25,6.31999998 20.89,3.11999996 17.61,1.37999996 C15.94,0.489999952 13.78,-0.130000051 11.34,0.0199999501 L15.15,3.83999997 L15.15,3.83999997 Z M8.84999999,20.15 L7.51999998,21.48 C4.42999997,20.02 2.17999996,17.11 1.62999996,13.62 C1.56999996,13.21 1.18999995,12.93 0.769999953,13 C0.359999951,13.06 0.0799999503,13.45 0.149999951,13.86 C0.749999953,17.67 3.10999996,20.87 6.38999998,22.61 C8.05999998,23.5 10.22,24.1200001 12.66,23.97 L8.84999999,20.15 L8.84999999,20.15 Z" id="path-1"></path>
    </defs>
    <g id="3d_rotation" stroke="none" stroke-width="1" fill="none" fill-rule="evenodd">
        <mask id="mask-2" fill="white">
            <use xlink:href="#path-1"></use>
        </mask>
        <use id="Combined-Shape" fill="#000000" xlink:href="#path-1"></use>
    </g>
</svg>