<?xml version="1.0" encoding="UTF-8"?>
<svg width="24px" height="24px" viewBox="0 0 24 24" version="1.1" xmlns="http://www.w3.org/2000/svg" xmlns:xlink="http://www.w3.org/1999/xlink">
    <title>account_balance_wallet</title>
    <defs>
        <path d="M9.99999996,16 L9.99999996,7.99999996 C9.99999996,6.89999998 10.89,5.99999996 12,5.99999996 L21,5.99999996 L21,4.99999996 C21,3.89999997 20.1,2.99999996 19,2.99999996 L4.99999996,2.99999996 C3.88999997,2.99999996 2.99999996,3.89999997 2.99999996,4.99999996 L2.99999996,19 C2.99999996,20.1 3.88999997,21 4.99999996,21 L19,21 C20.1,21 21,20.1 21,19 L21,18 L12,18 C10.89,18 9.99999996,17.1 9.99999996,16 Z M13,7.99999998 C12.45,7.99999998 12,8.44999999 12,8.99999998 L12,15 C12,15.55 12.45,16 13,16 L22,16 L22,7.99999998 L13,7.99999998 Z M16,13.5 C15.17,13.5 14.5,12.83 14.5,12 C14.5,11.17 15.17,10.5 16,10.5 C16.83,10.5 17.5,11.17 17.5,12 C17.5,12.83 16.83,13.5 16,13.5 Z" id="path-1"></path>
    </defs>
    <g id="account_balance_wallet" stroke="none" stroke-width="1" fill="none" fill-rule="evenodd">
        <mask id="mask-2" fill="white">
            <use xlink:href="#path-1"></use>
        </mask>
        <use id="Combined-Shape" fill="#000000" xlink:href="#path-1"></use>
    </g>
</svg>