<?xml version="1.0" encoding="UTF-8"?>
<svg width="24px" height="24px" viewBox="0 0 24 24" version="1.1" xmlns="http://www.w3.org/2000/svg" xmlns:xlink="http://www.w3.org/1999/xlink">
    <title>account_circle</title>
    <defs>
        <path d="M12,1.99999996 C6.47999998,1.99999996 1.99999996,6.47999998 1.99999996,12 C1.99999996,17.52 6.47999998,22 12,22 C17.52,22 22,17.52 22,12 C22,6.47999998 17.52,1.99999996 12,1.99999996 Z M12,4.99999997 C13.66,4.99999997 15,6.33999998 15,7.99999997 C15,9.65999999 13.66,11 12,11 C10.34,11 8.99999999,9.65999999 8.99999999,7.99999997 C8.99999999,6.33999998 10.34,4.99999997 12,4.99999997 Z M12,19.2 C9.49999997,19.2 7.28999998,17.92 5.99999997,15.98 C6.02999998,13.99 9.99999997,12.9 12,12.9 C13.99,12.9 17.97,13.99 18,15.98 C16.71,17.92 14.5,19.2 12,19.2 Z" id="path-1"></path>
    </defs>
    <g id="account_circle" stroke="none" stroke-width="1" fill="none" fill-rule="evenodd">
        <mask id="mask-2" fill="white">
            <use xlink:href="#path-1"></use>
        </mask>
        <use id="Combined-Shape" fill="#000000" xlink:href="#path-1"></use>
    </g>
</svg>