<?xml version="1.0" encoding="UTF-8"?>
<svg width="24px" height="24px" viewBox="0 0 24 24" version="1.1" xmlns="http://www.w3.org/2000/svg" xmlns:xlink="http://www.w3.org/1999/xlink">
    <title>addchart</title>
    <defs>
        <path d="M11,9.99999999 C11,9.44999999 11.45,8.99999999 12,8.99999999 C12.55,8.99999999 13,9.44999999 13,9.99999999 L13,17 L11,17 L11,9.99999999 Z M20,13 C19.45,13 19,13.45 19,14 L19,19 L4.99999996,19 L4.99999996,4.99999996 L9.99999996,4.99999996 C10.55,4.99999996 11,4.54999997 11,3.99999996 C11,3.44999996 10.55,2.99999996 9.99999996,2.99999996 L4.99999996,2.99999996 C3.89999997,2.99999996 2.99999996,3.89999997 2.99999996,4.99999996 L2.99999996,19 C2.99999996,20.1 3.89999997,21 4.99999996,21 L19,21 C20.1,21 21,20.1 21,19 L21,14 C21,13.45 20.55,13 20,13 Z M21,4.99999996 L19,4.99999996 L19,2.99999996 C19,2.44999996 18.55,1.99999996 18,1.99999996 C17.45,1.99999996 17,2.44999996 17,2.99999996 L17,4.99999996 L15,4.99999996 C14.45,4.99999996 14,5.44999997 14,5.99999996 C14,6.54999998 14.45,6.99999996 15,6.99999996 L17,6.99999996 L17,8.99999996 C17,9.54999999 17.45,9.99999996 18,9.99999996 C18.55,9.99999996 19,9.54999999 19,8.99999996 L19,6.99999996 L21,6.99999996 C21.55,6.99999996 22,6.54999998 22,5.99999996 C22,5.44999997 21.55,4.99999996 21,4.99999996 Z M16,13 C15.45,13 15,13.45 15,14 L15,17 L17,17 L17,14 C17,13.45 16.55,13 16,13 Z M6.99999998,12 L6.99999998,17 L8.99999998,17 L8.99999998,12 C8.99999998,11.45 8.54999999,11 7.99999998,11 C7.44999998,11 6.99999998,11.45 6.99999998,12 Z" id="path-1"></path>
    </defs>
    <g id="addchart" stroke="none" stroke-width="1" fill="none" fill-rule="evenodd">
        <mask id="mask-2" fill="white">
            <use xlink:href="#path-1"></use>
        </mask>
        <use id="Combined-Shape" fill="#000000" xlink:href="#path-1"></use>
    </g>
</svg>