<?xml version="1.0" encoding="UTF-8"?>
<svg width="24px" height="24px" viewBox="0 0 24 24" version="1.1" xmlns="http://www.w3.org/2000/svg" xmlns:xlink="http://www.w3.org/1999/xlink">
    <title>alarm_off</title>
    <defs>
        <path d="M10.04,6.28999998 C10.66,6.10999998 11.32,5.99999997 12,5.99999997 C15.86,5.99999997 19,9.13999999 19,13 C19,13.68 18.89,14.34 18.71,14.96 L20.27,16.52 C20.74,15.44 21,14.25 21,13 C21,8.02999998 16.97,3.99999997 12,3.99999997 C10.75,3.99999997 9.55999999,4.25999997 8.46999999,4.71999997 L10.04,6.28999998 L10.04,6.28999998 Z M3.70999997,2.78999996 C3.32999996,2.40999996 2.70999996,2.40999996 2.31999996,2.78999996 L2.29999996,2.81999996 C1.90999996,3.20999996 1.90999996,3.82999997 2.29999996,4.20999997 L2.97999996,4.88999997 L2.80999996,5.02999997 C2.38999996,5.36999997 2.33999996,5.98999997 2.67999996,6.40999998 L2.70999996,6.43999998 C3.05999996,6.85999998 3.66999997,6.90999998 4.08999997,6.55999998 L4.39999997,6.30999998 L5.19999997,7.10999998 C3.82999997,8.68999999 2.99999996,10.75 2.99999996,13 C2.99999996,17.97 7.02999998,22 12,22 C14.25,22 16.31,21.17 17.89,19.8 L19.3,21.21 C19.68,21.59 20.3,21.59 20.69,21.21 L20.72,21.18 C21.1,20.8 21.1,20.18 20.72,19.79 L3.70999997,2.78999996 Z M12,20 C8.13999998,20 4.99999997,16.86 4.99999997,13 C4.99999997,11.3 5.60999997,9.73999999 6.61999998,8.52999999 L16.47,18.38 C15.26,19.39 13.7,20 12,20 Z M19.91,6.55999998 C20.33,6.90999998 20.94,6.84999998 21.29,6.43999998 L21.32,6.40999998 C21.67,5.98999997 21.61,5.37999997 21.2,5.02999997 L18.1,2.43999996 C17.68,2.08999996 17.07,2.14999996 16.72,2.55999996 L16.69,2.58999996 C16.34,3.00999996 16.4,3.61999997 16.81,3.96999997 L19.91,6.55999998 Z M7.42999998,3.67999997 C7.60999998,3.33999996 7.57999998,2.90999996 7.31999998,2.58999996 L7.28999998,2.55999996 C6.98999998,2.19999996 6.48999998,2.12999996 6.08999998,2.33999996 L7.42999998,3.67999997 L7.42999998,3.67999997 Z" id="path-1"></path>
    </defs>
    <g id="alarm_off" stroke="none" stroke-width="1" fill="none" fill-rule="evenodd">
        <mask id="mask-2" fill="white">
            <use xlink:href="#path-1"></use>
        </mask>
        <use id="Combined-Shape" fill="#000000" xlink:href="#path-1"></use>
    </g>
</svg>