<?xml version="1.0" encoding="UTF-8"?>
<svg width="24px" height="24px" viewBox="0 0 24 24" version="1.1" xmlns="http://www.w3.org/2000/svg" xmlns:xlink="http://www.w3.org/1999/xlink">
    <title>alarm_on</title>
    <defs>
        <path d="M14.94,10.11 L10.54,14.53 L8.93999999,12.93 C8.64999999,12.64 8.16999998,12.64 7.87999998,12.93 C7.58999998,13.22 7.58999998,13.7 7.87999998,13.99 L9.99999999,16.11 C10.29,16.4 10.77,16.4 11.06,16.11 L16,11.17 C16.29,10.88 16.29,10.4 16,10.11 C15.71,9.81999999 15.23,9.81999999 14.94,10.11 Z M21.18,5.00999997 L18.1,2.44999996 C17.68,2.09999996 17.05,2.14999996 16.69,2.57999996 C16.34,2.99999996 16.4,3.62999997 16.82,3.98999997 L19.89,6.54999998 C20.31,6.89999998 20.94,6.84999998 21.3,6.41999998 C21.66,5.99999998 21.6,5.36999997 21.18,5.00999997 L21.18,5.00999997 Z M4.09999997,6.54999998 L7.16999998,3.98999997 C7.59999998,3.62999997 7.65999998,2.99999996 7.29999998,2.57999996 C6.94999998,2.14999996 6.31999998,2.09999996 5.89999997,2.44999996 L2.81999996,5.00999997 C2.39999996,5.36999997 2.33999996,5.99999998 2.69999996,6.41999998 C3.04999996,6.84999998 3.67999997,6.89999998 4.09999997,6.54999998 Z M12,3.99999997 C7.02999998,3.99999997 2.99999996,8.02999998 2.99999996,13 C2.99999996,17.97 7.02999998,22 12,22 C16.97,22 21,17.97 21,13 C21,8.02999998 16.97,3.99999997 12,3.99999997 Z M12,20 C8.13999998,20 4.99999997,16.86 4.99999997,13 C4.99999997,9.13999999 8.13999998,5.99999998 12,5.99999998 C15.86,5.99999998 19,9.13999999 19,13 C19,16.86 15.86,20 12,20 Z" id="path-1"></path>
    </defs>
    <g id="alarm_on" stroke="none" stroke-width="1" fill="none" fill-rule="evenodd">
        <mask id="mask-2" fill="white">
            <use xlink:href="#path-1"></use>
        </mask>
        <use id="Combined-Shape" fill="#000000" xlink:href="#path-1"></use>
    </g>
</svg>