<?xml version="1.0" encoding="UTF-8"?>
<svg width="24px" height="24px" viewBox="0 0 24 24" version="1.1" xmlns="http://www.w3.org/2000/svg" xmlns:xlink="http://www.w3.org/1999/xlink">
    <title>all_out</title>
    <defs>
        <path d="M3.99999997,4.49999997 L3.99999997,7.99999997 L7.99999997,3.99999997 L4.49999997,3.99999997 C4.21999997,3.99999997 3.99999997,4.21999997 3.99999997,4.49999997 Z M16,3.99999997 L20,7.99999997 L20,4.49999997 C20,4.21999997 19.78,3.99999997 19.5,3.99999997 L16,3.99999997 Z M20,19.5 L20,16 L16,20 L19.5,20 C19.78,20 20,19.78 20,19.5 Z M4.49999997,20 L7.99999997,20 L3.99999997,16 L3.99999997,19.5 C3.99999997,19.78 4.21999997,20 4.49999997,20 Z M19,12 C19,8.12999998 15.87,4.99999997 12,4.99999997 C8.12999998,4.99999997 4.99999997,8.12999998 4.99999997,12 C4.99999997,15.87 8.12999998,19 12,19 C15.87,19 19,15.87 19,12 Z M12,17 C9.23999999,17 6.99999998,14.76 6.99999998,12 C6.99999998,9.23999999 9.23999999,6.99999998 12,6.99999998 C14.76,6.99999998 17,9.23999999 17,12 C17,14.76 14.76,17 12,17 Z" id="path-1"></path>
    </defs>
    <g id="all_out" stroke="none" stroke-width="1" fill="none" fill-rule="evenodd">
        <mask id="mask-2" fill="white">
            <use xlink:href="#path-1"></use>
        </mask>
        <use id="Combined-Shape" fill="#000000" xlink:href="#path-1"></use>
    </g>
</svg>