<?xml version="1.0" encoding="UTF-8"?>
<svg width="24px" height="24px" viewBox="0 0 24 24" version="1.1" xmlns="http://www.w3.org/2000/svg" xmlns:xlink="http://www.w3.org/1999/xlink">
    <title>analytics</title>
    <defs>
        <path d="M19,2.99999996 L4.99999996,2.99999996 C3.89999997,2.99999996 2.99999996,3.89999997 2.99999996,4.99999996 L2.99999996,19 C2.99999996,20.1 3.89999997,21 4.99999996,21 L19,21 C20.1,21 21,20.1 21,19 L21,4.99999996 C21,3.89999997 20.1,2.99999996 19,2.99999996 Z M7.99999998,17 L7.99999998,17 C7.44999998,17 6.99999998,16.55 6.99999998,16 L6.99999998,13 C6.99999998,12.45 7.44999998,12 7.99999998,12 C8.54999999,12 8.99999998,12.45 8.99999998,13 L8.99999998,16 C8.99999998,16.55 8.54999999,17 7.99999998,17 Z M12,17 L12,17 C11.45,17 11,16.55 11,16 L11,15 C11,14.45 11.45,14 12,14 C12.55,14 13,14.45 13,15 L13,16 C13,16.55 12.55,17 12,17 Z M12,12 C11.45,12 11,11.55 11,11 C11,10.45 11.45,9.99999999 12,9.99999999 C12.55,9.99999999 13,10.45 13,11 C13,11.55 12.55,12 12,12 Z M16,17 L16,17 C15.45,17 15,16.55 15,16 L15,7.99999998 C15,7.44999998 15.45,6.99999998 16,6.99999998 C16.55,6.99999998 17,7.44999998 17,7.99999998 L17,16 C17,16.55 16.55,17 16,17 Z" id="path-1"></path>
    </defs>
    <g id="analytics" stroke="none" stroke-width="1" fill="none" fill-rule="evenodd">
        <mask id="mask-2" fill="white">
            <use xlink:href="#path-1"></use>
        </mask>
        <use id="Combined-Shape" fill="#000000" xlink:href="#path-1"></use>
    </g>
</svg>