<?xml version="1.0" encoding="UTF-8"?>
<svg width="24px" height="24px" viewBox="0 0 24 24" version="1.1" xmlns="http://www.w3.org/2000/svg" xmlns:xlink="http://www.w3.org/1999/xlink">
    <title>anchor</title>
    <defs>
        <path d="M13,8.99999996 L13,7.81999998 C14.16,7.39999998 15,6.29999998 15,4.99999996 C15,3.34999996 13.65,1.99999996 12,1.99999996 C10.35,1.99999996 8.99999996,3.34999996 8.99999996,4.99999996 C8.99999996,6.29999998 9.83999999,7.39999998 11,7.81999998 L11,8.99999996 L8.99999996,8.99999996 C8.44999999,8.99999996 7.99999996,9.44999999 7.99999996,9.99999996 L7.99999996,9.99999996 C7.99999996,10.55 8.44999999,11 8.99999996,11 L11,11 L11,19.92 C8.77999999,19.59 6.40999998,18.24 5.44999997,16.55 L6.58999998,15.41 C6.80999998,15.19 6.77999998,14.84 6.53999998,14.66 L3.79999997,12.6 C3.46999996,12.35 2.99999996,12.59 2.99999996,13 L2.99999996,15 C2.99999996,18.88 7.91999998,22 12,22 C16.08,22 21,18.88 21,15 L21,13 C21,12.59 20.53,12.35 20.2,12.6 L17.46,14.65 C17.22,14.83 17.19,15.19 17.41,15.4 L18.55,16.54 C17.59,18.23 15.22,19.58 13,19.91 L13,11 L15,11 C15.55,11 16,10.55 16,9.99999996 L16,9.99999996 C16,9.44999999 15.55,8.99999996 15,8.99999996 L13,8.99999996 Z M12,3.99999997 C12.55,3.99999997 13,4.44999997 13,4.99999997 C13,5.54999997 12.55,5.99999997 12,5.99999997 C11.45,5.99999997 11,5.54999997 11,4.99999997 C11,4.44999997 11.45,3.99999997 12,3.99999997 Z" id="path-1"></path>
    </defs>
    <g id="anchor" stroke="none" stroke-width="1" fill="none" fill-rule="evenodd">
        <mask id="mask-2" fill="white">
            <use xlink:href="#path-1"></use>
        </mask>
        <use id="Combined-Shape" fill="#000000" xlink:href="#path-1"></use>
    </g>
</svg>