<?xml version="1.0" encoding="UTF-8"?>
<svg width="24px" height="24px" viewBox="0 0 24 24" version="1.1" xmlns="http://www.w3.org/2000/svg" xmlns:xlink="http://www.w3.org/1999/xlink">
    <title>announcement</title>
    <defs>
        <path d="M20,1.99999996 L3.99999996,1.99999996 C2.89999996,1.99999996 1.99999996,2.89999996 1.99999996,3.99999996 L1.99999996,22 L5.99999996,18 L20,18 C21.1,18 22,17.1 22,16 L22,3.99999996 C22,2.89999996 21.1,1.99999996 20,1.99999996 Z M12,11 C11.45,11 11,10.55 11,9.99999997 L11,5.99999997 C11,5.44999997 11.45,4.99999997 12,4.99999997 C12.55,4.99999997 13,5.44999997 13,5.99999997 L13,9.99999997 C13,10.55 12.55,11 12,11 Z M13,15 L11,15 L11,13 L13,13 L13,15 Z" id="path-1"></path>
    </defs>
    <g id="announcement" stroke="none" stroke-width="1" fill="none" fill-rule="evenodd">
        <mask id="mask-2" fill="white">
            <use xlink:href="#path-1"></use>
        </mask>
        <use id="Combined-Shape" fill="#000000" xlink:href="#path-1"></use>
    </g>
</svg>