<?xml version="1.0" encoding="UTF-8"?>
<svg width="24px" height="24px" viewBox="0 0 24 24" version="1.1" xmlns="http://www.w3.org/2000/svg" xmlns:xlink="http://www.w3.org/1999/xlink">
    <title>commute</title>
    <defs>
        <path d="M12,3.99999997 L4.99999996,3.99999997 C3.33999996,3.99999997 1.99999996,5.33999997 1.99999996,6.99999997 L1.99999996,15 C1.99999996,16.66 3.33999996,18 4.99999996,18 L4.22999997,18.77 C3.94999997,19.05 3.94999997,19.49 4.22999997,19.77 C4.50999997,20.05 4.94999997,20.05 5.22999997,19.77 L6.99999996,18 L8.99999996,18 L8.99999996,13 L4.49999996,13 C4.21999997,13 3.99999996,12.78 3.99999996,12.5 L3.99999996,6.49999997 C3.99999996,6.21999998 4.21999997,5.99999997 4.49999996,5.99999997 L12.5,5.99999997 C12.78,5.99999997 13,6.21999998 13,6.49999997 L13,7.99999997 L15,7.99999997 L15,6.99999997 C15,5.33999997 13.66,3.99999997 12,3.99999997 Z M4.99999997,14 C5.54999997,14 5.99999997,14.45 5.99999997,15 C5.99999997,15.55 5.54999997,16 4.99999997,16 C4.44999997,16 3.99999997,15.55 3.99999997,15 C3.99999997,14.45 4.44999997,14 4.99999997,14 Z M20.57,9.65999999 C20.43,9.25999999 20.05,8.99999999 19.6,8.99999999 L12.41,8.99999999 C11.95,8.99999999 11.58,9.25999999 11.43,9.65999999 L10.01,13.77 L10.01,19.01 C10.01,19.56 10.46,20 11.01,20 C11.56,20 12.01,19.55 12.01,19 L12.01,18 L20.01,18 L20.01,19 C20.01,19.55 20.46,20 21.01,20 C21.56,20 22,19.56 22.01,19.01 L22,13.77 L20.57,9.65999999 Z M12.77,9.99999999 L19.25,9.99999999 C19.46,9.99999999 19.65,10.14 19.72,10.34 L20.41,12.34 C20.52,12.66 20.28,13 19.94,13 L12.09,13 C11.75,13 11.51,12.66 11.62,12.34 L12.31,10.34 C12.36,10.14 12.55,9.99999999 12.77,9.99999999 Z M12,16 C11.45,16 11,15.55 11,15 C11,14.45 11.45,14 12,14 C12.55,14 13,14.45 13,15 C13,15.55 12.55,16 12,16 Z M20,16 C19.45,16 19,15.55 19,15 C19,14.45 19.45,14 20,14 C20.55,14 21,14.45 21,15 C21,15.55 20.55,16 20,16 Z" id="path-1"></path>
    </defs>
    <g id="commute" stroke="none" stroke-width="1" fill="none" fill-rule="evenodd">
        <mask id="mask-2" fill="white">
            <use xlink:href="#path-1"></use>
        </mask>
        <use id="Combined-Shape" fill="#000000" xlink:href="#path-1"></use>
    </g>
</svg>