<?xml version="1.0" encoding="UTF-8"?>
<svg width="24px" height="24px" viewBox="0 0 24 24" version="1.1" xmlns="http://www.w3.org/2000/svg" xmlns:xlink="http://www.w3.org/1999/xlink">
    <title>contactless</title>
    <defs>
        <path d="M12,1.99999996 C6.47999998,1.99999996 1.99999996,6.47999998 1.99999996,12 C1.99999996,17.52 6.47999998,22 12,22 C17.52,22 22,17.52 22,12 C22,6.47999998 17.52,1.99999996 12,1.99999996 Z M8.74999999,13.68 C8.61999999,14.11 8.12999998,14.31 7.72999998,14.13 L7.72999998,14.13 C7.38999998,13.97 7.21999998,13.59 7.32999998,13.23 C7.44999998,12.82 7.50999998,12.4 7.49999998,11.99 C7.48999998,11.58 7.43999998,11.19 7.32999998,10.81 C7.22999998,10.45 7.38999998,10.06 7.72999998,9.90999999 L7.72999998,9.90999999 C8.14999998,9.71999999 8.63999999,9.94999999 8.76999999,10.4 C8.91999999,10.91 8.98999999,11.43 8.99999999,11.97 C8.99999999,12.53 8.91999999,13.11 8.74999999,13.68 Z M11.89,15.27 C11.72,15.68 11.22,15.84 10.83,15.62 L10.83,15.62 C10.5,15.43 10.37,15.03 10.51,14.68 C10.84,13.91 11,13.05 11,12.12 C11,11.16 10.82,10.23 10.47,9.33999999 C10.33,8.97999999 10.49,8.57999999 10.83,8.39999999 L10.83,8.39999999 C11.22,8.19999998 11.7,8.37999998 11.86,8.78999999 C12.28,9.84999999 12.49,10.97 12.49,12.12 C12.51,13.25 12.3,14.31 11.89,15.27 Z M15,16.6 C14.83,17 14.36,17.18 13.98,16.99 L13.98,16.99 C13.63,16.82 13.46,16.4 13.61,16.04 C14.2,14.65 14.5,13.29 14.5,11.98 C14.5,10.67 14.2,9.32999999 13.62,7.96999998 C13.46,7.60999998 13.63,7.18999998 13.98,7.01999998 C14.37,6.81999998 14.83,6.99999998 15,7.39999998 C15.66,8.93999999 16,10.48 16,11.98 C16,13.48 15.66,15.04 15,16.6 Z" id="path-1"></path>
    </defs>
    <g id="contactless" stroke="none" stroke-width="1" fill="none" fill-rule="evenodd">
        <mask id="mask-2" fill="white">
            <use xlink:href="#path-1"></use>
        </mask>
        <use id="Combined-Shape" fill="#000000" xlink:href="#path-1"></use>
    </g>
</svg>