<?xml version="1.0" encoding="UTF-8"?>
<svg width="24px" height="24px" viewBox="0 0 24 24" version="1.1" xmlns="http://www.w3.org/2000/svg" xmlns:xlink="http://www.w3.org/1999/xlink">
    <title>copyright</title>
    <defs>
        <path d="M10.08,10.86 C10.13,10.53 10.24,10.24 10.38,9.98999999 C10.52,9.73999999 10.72,9.52999999 10.97,9.36999999 C11.21,9.21999999 11.51,9.14999999 11.88,9.13999999 C12.11,9.14999999 12.32,9.18999999 12.51,9.26999999 C12.71,9.35999999 12.89,9.47999999 13.03,9.62999999 C13.17,9.77999999 13.28,9.95999999 13.37,10.16 C13.46,10.36 13.5,10.58 13.51,10.8 L15.3,10.8 C15.28,10.33 15.19,9.89999999 15.02,9.50999999 C14.85,9.11999999 14.62,8.77999999 14.32,8.49999999 C14.02,8.21999998 13.66,7.99999998 13.24,7.83999998 C12.82,7.67999998 12.36,7.60999998 11.85,7.60999998 C11.2,7.60999998 10.63,7.71999998 10.15,7.94999998 C9.66999999,8.17999998 9.26999999,8.47999999 8.94999999,8.86999999 C8.62999999,9.25999999 8.38999998,9.70999999 8.23999998,10.23 C8.08999998,10.75 7.99999998,11.29 7.99999998,11.87 L7.99999998,12.14 C7.99999998,12.72 8.07999998,13.26 8.22999998,13.78 C8.37999998,14.3 8.61999999,14.75 8.93999999,15.13 C9.25999999,15.51 9.65999999,15.82 10.14,16.04 C10.62,16.26 11.19,16.38 11.84,16.38 C12.31,16.38 12.75,16.3 13.16,16.15 C13.57,16 13.93,15.79 14.24,15.52 C14.55,15.25 14.8,14.94 14.98,14.58 C15.16,14.22 15.27,13.84 15.28,13.43 L13.49,13.43 C13.48,13.64 13.43,13.83 13.34,14.01 C13.25,14.19 13.13,14.34 12.98,14.47 C12.83,14.6 12.66,14.7 12.46,14.77 C12.27,14.84 12.07,14.86 11.86,14.87 C11.5,14.86 11.2,14.79 10.97,14.64 C10.72,14.48 10.52,14.27 10.38,14.02 C10.24,13.77 10.13,13.47 10.08,13.14 C10.03,12.81 9.99999998,12.47 9.99999998,12.14 L9.99999998,11.87 C9.99999998,11.52 10.03,11.19 10.08,10.86 L10.08,10.86 Z M12,1.99999996 C6.47999998,1.99999996 1.99999996,6.47999998 1.99999996,12 C1.99999996,17.52 6.47999998,22 12,22 C17.52,22 22,17.52 22,12 C22,6.47999998 17.52,1.99999996 12,1.99999996 Z M12,20 C7.58999998,20 3.99999997,16.41 3.99999997,12 C3.99999997,7.58999998 7.58999998,3.99999997 12,3.99999997 C16.41,3.99999997 20,7.58999998 20,12 C20,16.41 16.41,20 12,20 Z" id="path-1"></path>
    </defs>
    <g id="copyright" stroke="none" stroke-width="1" fill="none" fill-rule="evenodd">
        <mask id="mask-2" fill="white">
            <use xlink:href="#path-1"></use>
        </mask>
        <use id="Combined-Shape" fill="#000000" xlink:href="#path-1"></use>
    </g>
</svg>