<?xml version="1.0" encoding="UTF-8"?>
<svg width="24px" height="24px" viewBox="0 0 24 24" version="1.1" xmlns="http://www.w3.org/2000/svg" xmlns:xlink="http://www.w3.org/1999/xlink">
    <title>delete</title>
    <defs>
        <path d="M5.99999997,19 C5.99999997,20.1 6.89999998,21 7.99999997,21 L16,21 C17.1,21 18,20.1 18,19 L18,8.99999998 C18,7.89999998 17.1,6.99999998 16,6.99999998 L7.99999997,6.99999998 C6.89999998,6.99999998 5.99999997,7.89999998 5.99999997,8.99999998 L5.99999997,19 Z M18,3.99999996 L15.5,3.99999996 L14.79,3.28999996 C14.61,3.10999996 14.35,2.99999996 14.09,2.99999996 L9.90999999,2.99999996 C9.64999999,2.99999996 9.38999999,3.10999996 9.20999999,3.28999996 L8.49999997,3.99999996 L5.99999997,3.99999996 C5.44999997,3.99999996 4.99999997,4.44999997 4.99999997,4.99999996 C4.99999997,5.54999997 5.44999997,5.99999996 5.99999997,5.99999996 L18,5.99999996 C18.55,5.99999996 19,5.54999997 19,4.99999996 C19,4.44999997 18.55,3.99999996 18,3.99999996 Z" id="path-1"></path>
    </defs>
    <g id="delete" stroke="none" stroke-width="1" fill="none" fill-rule="evenodd">
        <mask id="mask-2" fill="white">
            <use xlink:href="#path-1"></use>
        </mask>
        <use id="Combined-Shape" fill="#000000" xlink:href="#path-1"></use>
    </g>
</svg>