<?xml version="1.0" encoding="UTF-8"?>
<svg width="24px" height="24px" viewBox="0 0 24 24" version="1.1" xmlns="http://www.w3.org/2000/svg" xmlns:xlink="http://www.w3.org/1999/xlink">
    <title>done_all</title>
    <defs>
        <path d="M17.3,6.29999998 C16.91,5.90999997 16.28,5.90999997 15.89,6.29999998 L10.25,11.94 L11.66,13.35 L17.3,7.69999998 C17.68,7.31999998 17.68,6.67999998 17.3,6.29999998 Z M21.54,6.28999998 L11.66,16.17 L8.17999998,12.7 C7.78999998,12.31 7.15999998,12.31 6.76999998,12.7 C6.37999998,13.09 6.37999998,13.72 6.76999998,14.11 L10.95,18.29 C11.34,18.68 11.97,18.68 12.36,18.29 L22.95,7.70999998 C23.34,7.31999998 23.34,6.68999998 22.95,6.29999998 L22.94,6.29999998 C22.56,5.89999997 21.93,5.89999997 21.54,6.28999998 Z M1.11999995,14.12 L5.29999997,18.3 C5.68999997,18.69 6.31999998,18.69 6.70999998,18.3 L7.40999998,17.6 L2.52999996,12.7 C2.13999996,12.31 1.50999996,12.31 1.11999995,12.7 C0.729999953,13.09 0.729999953,13.73 1.11999995,14.12 L1.11999995,14.12 Z" id="path-1"></path>
    </defs>
    <g id="done_all" stroke="none" stroke-width="1" fill="none" fill-rule="evenodd">
        <mask id="mask-2" fill="white">
            <use xlink:href="#path-1"></use>
        </mask>
        <use id="Combined-Shape" fill="#000000" xlink:href="#path-1"></use>
    </g>
</svg>