<?xml version="1.0" encoding="UTF-8"?>
<svg width="24px" height="24px" viewBox="0 0 24 24" version="1.1" xmlns="http://www.w3.org/2000/svg" xmlns:xlink="http://www.w3.org/1999/xlink">
    <title>euro_symbol</title>
    <defs>
        <path d="M15,18.5 C12.49,18.5 10.32,17.08 9.23999999,15 L14,15 C14.55,15 15,14.55 15,14 C15,13.45 14.55,13 14,13 L8.57999999,13 C8.52999999,12.67 8.49999996,12.34 8.49999996,12 C8.49999996,11.66 8.52999999,11.33 8.57999999,11 L14,11 C14.55,11 15,10.55 15,9.99999996 C15,9.44999999 14.55,8.99999996 14,8.99999996 L9.23999999,8.99999996 C10.32,6.91999998 12.5,5.49999996 15,5.49999996 C16.25,5.49999996 17.42,5.85999997 18.42,6.46999998 C18.92,6.77999998 19.57,6.72999998 19.99,6.30999998 C20.57,5.72999997 20.44,4.77999997 19.74,4.34999997 C18.36,3.49999996 16.73,2.99999996 15,2.99999996 C11.08,2.99999996 7.75999998,5.50999997 6.51999998,8.99999996 L3.99999996,8.99999996 C3.44999996,8.99999996 2.99999996,9.44999999 2.99999996,9.99999996 C2.99999996,10.55 3.44999996,11 3.99999996,11 L6.05999998,11 C6.01999998,11.33 5.99999996,11.66 5.99999996,12 C5.99999996,12.34 6.01999998,12.67 6.05999998,13 L3.99999996,13 C3.44999996,13 2.99999996,13.45 2.99999996,14 C2.99999996,14.55 3.44999996,15 3.99999996,15 L6.51999998,15 C7.75999998,18.49 11.08,21 15,21 C16.74,21 18.36,20.51 19.74,19.65 C20.43,19.22 20.56,18.26 19.98,17.68 C19.56,17.26 18.91,17.21 18.41,17.53 C17.42,18.15 16.26,18.5 15,18.5 Z" id="path-1"></path>
    </defs>
    <g id="euro_symbol" stroke="none" stroke-width="1" fill="none" fill-rule="evenodd">
        <mask id="mask-2" fill="white">
            <use xlink:href="#path-1"></use>
        </mask>
        <use id="Combined-Shape" fill="#000000" xlink:href="#path-1"></use>
    </g>
</svg>