<?xml version="1.0" encoding="UTF-8"?>
<svg width="24px" height="24px" viewBox="0 0 24 24" version="1.1" xmlns="http://www.w3.org/2000/svg" xmlns:xlink="http://www.w3.org/1999/xlink">
    <title>fact_check</title>
    <defs>
        <path d="M20,2.99999996 L3.99999996,2.99999996 C2.89999996,2.99999996 1.99999996,3.89999997 1.99999996,4.99999996 L1.99999996,19 C1.99999996,20.1 2.89999996,21 3.99999996,21 L20,21 C21.1,21 22,20.1 22,19 L22,4.99999996 C22,3.89999997 21.1,2.99999996 20,2.99999996 Z M8.99999997,17 L5.99999997,17 C5.44999997,17 4.99999997,16.55 4.99999997,16 C4.99999997,15.45 5.44999997,15 5.99999997,15 L8.99999997,15 C9.54999999,15 9.99999997,15.45 9.99999997,16 C9.99999997,16.55 9.54999999,17 8.99999997,17 Z M8.99999997,13 L5.99999997,13 C5.44999997,13 4.99999997,12.55 4.99999997,12 C4.99999997,11.45 5.44999997,11 5.99999997,11 L8.99999997,11 C9.54999999,11 9.99999997,11.45 9.99999997,12 C9.99999997,12.55 9.54999999,13 8.99999997,13 Z M8.99999997,8.99999998 L5.99999997,8.99999998 C5.44999997,8.99999998 4.99999997,8.54999999 4.99999997,7.99999998 C4.99999997,7.44999998 5.44999997,6.99999998 5.99999997,6.99999998 L8.99999997,6.99999998 C9.54999999,6.99999998 9.99999997,7.44999998 9.99999997,7.99999998 C9.99999997,8.54999999 9.54999999,8.99999998 8.99999997,8.99999998 Z M18.7,11.12 L15.53,14.29 C15.14,14.68 14.5,14.68 14.11,14.29 L12.7,12.87 C12.31,12.48 12.31,11.85 12.7,11.46 C13.09,11.07 13.72,11.07 14.11,11.46 L14.82,12.17 L17.29,9.69999999 C17.68,9.30999999 18.31,9.30999999 18.7,9.69999999 L18.71,9.70999999 C19.09,10.1 19.09,10.74 18.7,11.12 Z" id="path-1"></path>
    </defs>
    <g id="fact_check" stroke="none" stroke-width="1" fill="none" fill-rule="evenodd">
        <mask id="mask-2" fill="white">
            <use xlink:href="#path-1"></use>
        </mask>
        <use id="Combined-Shape" fill="#000000" xlink:href="#path-1"></use>
    </g>
</svg>