<?xml version="1.0" encoding="UTF-8"?>
<svg width="24px" height="24px" viewBox="0 0 24 24" version="1.1" xmlns="http://www.w3.org/2000/svg" xmlns:xlink="http://www.w3.org/1999/xlink">
    <title>fingerprint</title>
    <defs>
        <path d="M17.81,4.46999997 C17.73,4.46999997 17.65,4.44999997 17.58,4.40999997 C15.66,3.41999996 14,2.99999996 12.01,2.99999996 C10.03,2.99999996 8.14999998,3.46999996 6.43999998,4.40999997 C6.19999998,4.53999997 5.89999997,4.44999997 5.75999997,4.20999997 C5.62999997,3.96999997 5.71999997,3.65999997 5.95999997,3.52999996 C7.81999998,2.51999996 9.85999999,1.99999996 12.01,1.99999996 C14.14,1.99999996 16,2.46999996 18.04,3.51999996 C18.29,3.64999997 18.38,3.94999997 18.25,4.18999997 C18.16,4.36999997 17.99,4.46999997 17.81,4.46999997 L17.81,4.46999997 Z M3.49999996,9.71999999 C3.39999996,9.71999999 3.29999996,9.68999999 3.20999996,9.62999999 C2.97999996,9.46999999 2.92999996,9.15999999 3.08999996,8.92999999 C4.07999997,7.52999998 5.33999997,6.42999998 6.83999998,5.65999997 C9.97999999,4.03999997 14,4.02999997 17.15,5.64999997 C18.65,6.41999998 19.91,7.50999998 20.9,8.89999999 C21.06,9.11999999 21.01,9.43999999 20.78,9.59999999 C20.55,9.75999999 20.24,9.70999999 20.08,9.47999999 C19.18,8.21999998 18.04,7.22999998 16.69,6.53999998 C13.82,5.06999997 10.15,5.06999997 7.28999998,6.54999998 C5.92999997,7.24999998 4.78999997,8.24999998 3.88999997,9.50999999 C3.80999997,9.64999999 3.65999997,9.71999999 3.49999996,9.71999999 L3.49999996,9.71999999 Z M9.74999999,21.79 C9.61999999,21.79 9.48999999,21.74 9.39999999,21.64 C8.52999999,20.77 8.05999998,20.21 7.38999998,19 C6.69999998,17.77 6.33999998,16.27 6.33999998,14.66 C6.33999998,11.69 8.87999999,9.26999999 12,9.26999999 C15.12,9.26999999 17.66,11.69 17.66,14.66 C17.66,14.94 17.44,15.16 17.16,15.16 C16.88,15.16 16.66,14.94 16.66,14.66 C16.66,12.24 14.57,10.27 12,10.27 C9.42999999,10.27 7.33999998,12.24 7.33999998,14.66 C7.33999998,16.1 7.65999998,17.43 8.26999998,18.51 C8.90999999,19.66 9.34999999,20.15 10.12,20.93 C10.31,21.13 10.31,21.44 10.12,21.64 C10.01,21.74 9.87999999,21.79 9.74999999,21.79 Z M16.92,19.94 C15.73,19.94 14.68,19.64 13.82,19.05 C12.33,18.04 11.44,16.4 11.44,14.66 C11.44,14.38 11.66,14.16 11.94,14.16 C12.22,14.16 12.44,14.38 12.44,14.66 C12.44,16.07 13.16,17.4 14.38,18.22 C15.09,18.7 15.92,18.93 16.92,18.93 C17.16,18.93 17.56,18.9 17.96,18.83 C18.23,18.78 18.49,18.96 18.54,19.24 C18.59,19.51 18.41,19.77 18.13,19.82 C17.56,19.93 17.06,19.94 16.92,19.94 L16.92,19.94 Z M14.91,22 C14.87,22 14.82,21.99 14.78,21.98 C13.19,21.54 12.15,20.95 11.06,19.88 C9.65999999,18.49 8.88999999,16.64 8.88999999,14.66 C8.88999999,13.04 10.27,11.72 11.97,11.72 C13.67,11.72 15.05,13.04 15.05,14.66 C15.05,15.73 15.98,16.6 17.13,16.6 C18.28,16.6 19.21,15.73 19.21,14.66 C19.21,10.89 15.96,7.82999998 11.96,7.82999998 C9.11999999,7.82999998 6.51999998,9.40999999 5.34999997,11.86 C4.95999997,12.67 4.75999997,13.62 4.75999997,14.66 C4.75999997,15.44 4.82999997,16.67 5.42999997,18.27 C5.52999997,18.53 5.39999997,18.82 5.13999997,18.91 C4.87999997,19.01 4.58999997,18.87 4.49999997,18.62 C4.00999997,17.31 3.76999997,16.01 3.76999997,14.66 C3.76999997,13.46 3.99999997,12.37 4.44999997,11.42 C5.77999997,8.62999999 8.72999999,6.81999998 11.96,6.81999998 C16.51,6.81999998 20.21,10.33 20.21,14.65 C20.21,16.27 18.83,17.59 17.13,17.59 C15.43,17.59 14.05,16.27 14.05,14.65 C14.05,13.58 13.12,12.71 11.97,12.71 C10.82,12.71 9.88999999,13.58 9.88999999,14.65 C9.88999999,16.36 10.55,17.96 11.76,19.16 C12.71,20.1 13.62,20.62 15.03,21.01 C15.3,21.08 15.45,21.36 15.38,21.62 C15.33,21.85 15.12,22 14.91,22 L14.91,22 Z" id="path-1"></path>
    </defs>
    <g id="fingerprint" stroke="none" stroke-width="1" fill="none" fill-rule="evenodd">
        <mask id="mask-2" fill="white">
            <use xlink:href="#path-1"></use>
        </mask>
        <use id="Combined-Shape" fill="#000000" xlink:href="#path-1"></use>
    </g>
</svg>