<?xml version="1.0" encoding="UTF-8"?>
<svg width="24px" height="24px" viewBox="0 0 24 24" version="1.1" xmlns="http://www.w3.org/2000/svg" xmlns:xlink="http://www.w3.org/1999/xlink">
    <title>flaky</title>
    <defs>
        <path d="M12.16,15.72 C11.87,15.43 11.87,14.95 12.16,14.66 L12.16,14.66 C12.45,14.37 12.93,14.37 13.22,14.66 L14.04,15.48 L16,13.52 C16.29,13.23 16.77,13.23 17.06,13.52 L17.06,13.52 C17.35,13.81 17.35,14.29 17.06,14.58 L14.41,17.23 C14.22,17.42 13.9,17.43 13.71,17.23 L12.16,15.72 Z M12,1.99999996 C6.49999996,1.99999996 1.99999996,6.49999996 1.99999996,12 C1.99999996,17.5 6.49999996,22 12,22 C17.5,22 22,17.5 22,12 C22,6.49999996 17.5,1.99999996 12,1.99999996 Z M7.86999998,6.80999998 L8.74999999,7.68999998 L9.62999999,6.80999998 C9.91999999,6.51999998 10.4,6.51999998 10.69,6.80999998 L10.69,6.80999998 C10.98,7.09999998 10.98,7.57999998 10.69,7.86999998 L9.80999999,8.74999999 L10.69,9.62999999 C10.98,9.91999999 10.98,10.4 10.69,10.69 L10.69,10.69 C10.4,10.98 9.91999999,10.98 9.62999999,10.69 L8.74999999,9.80999999 L7.86999998,10.69 C7.57999998,10.98 7.09999998,10.98 6.80999998,10.69 L6.80999998,10.69 C6.51999998,10.4 6.51999998,9.91999999 6.80999998,9.62999999 L7.68999998,8.74999999 L6.80999998,7.86999998 C6.51999998,7.57999998 6.51999998,7.09999998 6.80999998,6.80999998 L6.80999998,6.80999998 C7.09999998,6.50999998 7.56999998,6.50999998 7.86999998,6.80999998 Z M12,20 C9.79999998,20 7.79999998,19.1 6.29999998,17.7 L17.7,6.29999998 C19.1,7.79999998 20,9.79999998 20,12 C20,16.4 16.4,20 12,20 Z" id="path-1"></path>
    </defs>
    <g id="flaky" stroke="none" stroke-width="1" fill="none" fill-rule="evenodd">
        <mask id="mask-2" fill="white">
            <use xlink:href="#path-1"></use>
        </mask>
        <use id="Combined-Shape" fill="#000000" xlink:href="#path-1"></use>
    </g>
</svg>