<?xml version="1.0" encoding="UTF-8"?>
<svg width="24px" height="24px" viewBox="0 0 24 24" version="1.1" xmlns="http://www.w3.org/2000/svg" xmlns:xlink="http://www.w3.org/1999/xlink">
    <title>flight_takeoff</title>
    <defs>
        <path d="M20.5,19 L3.49999996,19 C2.94999996,19 2.49999996,19.45 2.49999996,20 C2.49999996,20.55 2.94999996,21 3.49999996,21 L20.5,21 C21.05,21 21.5,20.55 21.5,20 C21.5,19.45 21.05,19 20.5,19 Z M22.07,9.63999999 C21.85,8.83999999 21.03,8.36999998 20.23,8.57999999 L14.92,9.99999999 L8.45999999,3.97999997 C8.18999998,3.71999997 7.79999998,3.62999997 7.43999998,3.72999997 C6.75999998,3.91999997 6.43999998,4.69999997 6.78999998,5.30999997 L10.23,11.27 L5.25999997,12.6 L3.68999997,11.36 C3.43999996,11.17 3.11999996,11.1 2.80999996,11.18 L2.47999996,11.27 C2.15999996,11.35 2.00999996,11.72 2.17999996,12 L4.05999997,15.25 C4.28999997,15.64 4.74999997,15.83 5.17999997,15.72 L21,11.48 C21.8,11.26 22.28,10.44 22.07,9.63999999 Z" id="path-1"></path>
    </defs>
    <g id="flight_takeoff" stroke="none" stroke-width="1" fill="none" fill-rule="evenodd">
        <mask id="mask-2" fill="white">
            <use xlink:href="#path-1"></use>
        </mask>
        <use id="Combined-Shape" fill="#000000" xlink:href="#path-1"></use>
    </g>
</svg>