<?xml version="1.0" encoding="UTF-8"?>
<svg width="24px" height="24px" viewBox="0 0 24 24" version="1.1" xmlns="http://www.w3.org/2000/svg" xmlns:xlink="http://www.w3.org/1999/xlink">
    <title>g_translate</title>
    <defs>
        <path d="M20,4.99999996 L10.88,4.99999996 L9.99999996,1.99999996 L3.99999996,1.99999996 C2.89999996,1.99999996 1.99999996,2.89999996 1.99999996,3.99999996 L1.99999996,17 C1.99999996,18.1 2.89999996,19 3.99999996,19 L11,19 L12,22 L20,22 C21.1,22 22,21.1 22,20 L22,6.99999996 C22,5.89999997 21.1,4.99999996 20,4.99999996 Z M7.16999998,14.59 C4.91999997,14.59 3.07999996,12.76 3.07999996,10.5 C3.07999996,8.23999998 4.90999997,6.40999998 7.16999998,6.40999998 C8.20999998,6.40999998 9.15999999,6.77999998 9.90999999,7.47999998 L9.97999999,7.53999998 L8.74999999,8.71999999 L8.68999999,8.66999999 C8.39999999,8.39999998 7.90999998,8.07999998 7.16999998,8.07999998 C5.85999997,8.07999998 4.78999997,9.16999999 4.78999997,10.5 C4.78999997,11.83 5.85999997,12.92 7.16999998,12.92 C8.53999999,12.92 9.12999999,12.05 9.28999999,11.46 L7.07999996,11.46 L7.07999996,9.90999998 L11.03,9.90999998 L11.04,9.97999999 C11.08,10.19 11.09,10.38 11.09,10.59 C11.09,12.94 9.47999999,14.59 7.16999998,14.59 L7.16999998,14.59 Z M13.2,12.88 C13.53,13.48 13.94,14.06 14.39,14.58 L13.85,15.11 L13.2,12.88 L13.2,12.88 Z M13.97,12.12 L12.98,12.12 L12.67,11.08 L16.66,11.08 C16.66,11.08 16.32,12.39 15.1,13.82 C14.58,13.2 14.21,12.59 13.97,12.12 L13.97,12.12 Z M21,20 C21,20.55 20.55,21 20,21 L13,21 L15,19 L14.19,16.23 L15.11,15.31 L17.79,18 L18.52,17.27 L15.81,14.59 C16.71,13.56 17.41,12.34 17.73,11.08 L19,11.08 L19,10.04 L15.36,10.04 L15.36,8.99999997 L14.32,8.99999997 L14.32,10.04 L12.36,10.04 L11.18,5.99999997 L20,5.99999997 C20.55,5.99999997 21,6.44999998 21,6.99999997 L21,20 Z" id="path-1"></path>
    </defs>
    <g id="g_translate" stroke="none" stroke-width="1" fill="none" fill-rule="evenodd">
        <mask id="mask-2" fill="white">
            <use xlink:href="#path-1"></use>
        </mask>
        <use id="Combined-Shape" fill="#000000" xlink:href="#path-1"></use>
    </g>
</svg>