<?xml version="1.0" encoding="UTF-8"?>
<svg width="24px" height="24px" viewBox="0 0 24 24" version="1.1" xmlns="http://www.w3.org/2000/svg" xmlns:xlink="http://www.w3.org/1999/xlink">
    <title>gif</title>
    <defs>
        <path d="M12.25,8.99999999 C12.66,8.99999999 13,9.33999999 13,9.74999999 L13,14.25 C13,14.66 12.66,15 12.25,15 C11.84,15 11.5,14.66 11.5,14.25 L11.5,9.74999999 C11.5,9.33999999 11.84,8.99999999 12.25,8.99999999 Z M9.99999997,9.74999999 C9.99999997,9.33999999 9.65999999,8.99999999 9.24999999,8.99999999 L5.99999997,8.99999999 C5.39999997,8.99999999 4.99999997,9.49999999 4.99999997,9.99999999 L4.99999997,14 C4.99999997,14.5 5.39999997,15 5.99999997,15 L8.99999997,15 C9.59999999,15 9.99999997,14.5 9.99999997,14 L9.99999997,12.75 C9.99999997,12.34 9.65999999,12 9.24999999,12 C8.83999999,12 8.49999997,12.34 8.49999997,12.75 L8.49999997,13.5 L6.49999997,13.5 L6.49999997,10.5 L9.24999999,10.5 C9.65999999,10.5 9.99999997,10.16 9.99999997,9.74999999 Z M19,9.74999999 C19,9.33999999 18.66,8.99999999 18.25,8.99999999 L15.5,8.99999999 C14.95,8.99999999 14.5,9.44999999 14.5,9.99999999 L14.5,14.25 C14.5,14.66 14.84,15 15.25,15 C15.66,15 16,14.66 16,14.25 L16,13 L17.25,13 C17.66,13 18,12.66 18,12.25 C18,11.84 17.66,11.5 17.25,11.5 L16,11.5 L16,10.5 L18.25,10.5 C18.66,10.5 19,10.16 19,9.74999999 Z" id="path-1"></path>
    </defs>
    <g id="gif" stroke="none" stroke-width="1" fill="none" fill-rule="evenodd">
        <mask id="mask-2" fill="white">
            <use xlink:href="#path-1"></use>
        </mask>
        <use id="Combined-Shape" fill="#000000" xlink:href="#path-1"></use>
    </g>
</svg>