<?xml version="1.0" encoding="UTF-8"?>
<svg width="24px" height="24px" viewBox="0 0 24 24" version="1.1" xmlns="http://www.w3.org/2000/svg" xmlns:xlink="http://www.w3.org/1999/xlink">
    <title>grading</title>
    <defs>
        <path d="M9.99999997,19 C10.55,19 11,19.45 11,20 L11,20 L10.9932398,20.116199 C10.9352041,20.6119898 10.5107143,21 9.99999997,21 L9.99999997,21 L4.99999997,21 C4.44999997,21 3.99999997,20.55 3.99999997,20 L3.99999997,20 L4.00676017,19.883801 C4.06479589,19.3880102 4.48928568,19 4.99999997,19 L4.99999997,19 Z M17.88,15.71 C18.27,15.32 18.9,15.32 19.29,15.71 L19.29,15.71 L19.373077,15.8040419 C19.6776923,16.195503 19.65,16.76 19.29,17.12 L19.29,17.12 L16.12,20.29 C15.73,20.68 15.1,20.68 14.71,20.29 L14.71,20.29 L13.29,18.87 C12.9,18.48 12.9,17.85 13.29,17.46 L13.29,17.46 L13.3840419,17.3769231 C13.775503,17.0723077 14.34,17.1 14.7,17.46 L14.7,17.46 L15.41,18.17 Z M9.99999997,15 C10.55,15 11,15.45 11,16 L11,16 L10.9932398,16.116199 C10.9352041,16.6119898 10.5107143,17 9.99999997,17 L9.99999997,17 L4.99999997,17 C4.44999997,17 3.99999997,16.55 3.99999997,16 L3.99999997,16 L4.00676017,15.883801 C4.06479589,15.3880102 4.48928568,15 4.99999997,15 L4.99999997,15 Z M19,11 C19.55,11 20,11.45 20,12 L20,12 L19.9932398,12.116199 C19.9352041,12.6119898 19.5107143,13 19,13 L19,13 L4.99999997,13 C4.44999997,13 3.99999997,12.55 3.99999997,12 L3.99999997,12 L4.00676017,11.883801 C4.06479589,11.3880102 4.48928568,11 4.99999997,11 L4.99999997,11 Z M19,6.99999998 C19.5107143,6.99999998 19.9352041,7.38801018 19.9932398,7.883801 L20,7.99999998 C20,8.54999999 19.55,8.99999998 19,8.99999998 L4.99999997,8.99999998 C4.48928568,8.99999998 4.06479589,8.61198978 4.00676017,8.11619896 L3.99999997,7.99999998 C3.99999997,7.44999998 4.44999997,6.99999998 4.99999997,6.99999998 L19,6.99999998 Z M19,2.99999996 C19.55,2.99999996 20,3.44999996 20,3.99999996 L20,3.99999996 L19.9932398,4.11619894 C19.9352041,4.61198976 19.5107143,4.99999996 19,4.99999996 L19,4.99999996 L4.99999997,4.99999996 C4.44999997,4.99999996 3.99999997,4.54999997 3.99999997,3.99999996 L3.99999997,3.99999996 L4.00676017,3.88380098 C4.06479589,3.38801017 4.48928568,2.99999996 4.99999997,2.99999996 L4.99999997,2.99999996 Z" id="path-1"></path>
    </defs>
    <g id="grading" stroke="none" stroke-width="1" fill="none" fill-rule="evenodd">
        <mask id="mask-2" fill="white">
            <use xlink:href="#path-1"></use>
        </mask>
        <use id="Combined-Shape" fill="#000000" xlink:href="#path-1"></use>
    </g>
</svg>