<?xml version="1.0" encoding="UTF-8"?>
<svg width="24px" height="24px" viewBox="0 0 24 24" version="1.1" xmlns="http://www.w3.org/2000/svg" xmlns:xlink="http://www.w3.org/1999/xlink">
    <title>help_outline</title>
    <defs>
        <path d="M12,1.99999996 C6.47999998,1.99999996 1.99999996,6.47999998 1.99999996,12 C1.99999996,17.52 6.47999998,22 12,22 C17.52,22 22,17.52 22,12 C22,6.47999998 17.52,1.99999996 12,1.99999996 Z M12,20 C7.58999998,20 3.99999997,16.41 3.99999997,12 C3.99999997,7.58999998 7.58999998,3.99999997 12,3.99999997 C16.41,3.99999997 20,7.58999998 20,12 C20,16.41 16.41,20 12,20 Z M11,16 L13,16 L13,18 L11,18 L11,16 Z M12.61,6.03999998 C10.55,5.73999997 8.72999999,7.00999998 8.17999998,8.82999999 C7.99999998,9.40999999 8.43999999,9.99999999 9.04999999,9.99999999 L9.24999999,9.99999999 C9.65999999,9.99999999 9.98999999,9.70999999 10.13,9.32999999 C10.45,8.43999999 11.4,7.82999998 12.43,8.04999998 C13.38,8.24999998 14.08,9.17999999 14,10.15 C13.9,11.49 12.38,11.78 11.55,13.03 C11.55,13.04 11.54,13.04 11.54,13.05 C11.53,13.07 11.52,13.08 11.51,13.1 C11.42,13.25 11.33,13.42 11.26,13.6 C11.25,13.63 11.23,13.65 11.22,13.68 C11.21,13.7 11.21,13.72 11.2,13.75 C11.08,14.09 11,14.5 11,15 L13,15 C13,14.58 13.11,14.23 13.28,13.93 C13.3,13.9 13.31,13.87 13.33,13.84 C13.41,13.7 13.51,13.57 13.61,13.45 C13.62,13.44 13.63,13.42 13.64,13.41 C13.74,13.29 13.85,13.18 13.97,13.07 C14.93,12.16 16.23,11.42 15.96,9.50999999 C15.72,7.76999998 14.35,6.29999998 12.61,6.03999998 L12.61,6.03999998 Z" id="path-1"></path>
    </defs>
    <g id="help_outline" stroke="none" stroke-width="1" fill="none" fill-rule="evenodd">
        <mask id="mask-2" fill="white">
            <use xlink:href="#path-1"></use>
        </mask>
        <use id="Combined-Shape" fill="#000000" xlink:href="#path-1"></use>
    </g>
</svg>