<?xml version="1.0" encoding="UTF-8"?>
<svg width="24px" height="24px" viewBox="0 0 24 24" version="1.1" xmlns="http://www.w3.org/2000/svg" xmlns:xlink="http://www.w3.org/1999/xlink">
    <title>history_toggle_off</title>
    <defs>
        <path d="M15.1,19.37 L16.1,21.11 C15.14,21.55 14.09,21.84 13,21.95 L13,19.93 C13.74,19.84 14.44,19.65 15.1,19.37 Z M4.06999997,13 L2.04999996,13 C2.15999996,14.1 2.44999996,15.14 2.88999996,16.1 L4.62999997,15.1 C4.34999997,14.44 4.15999997,13.74 4.06999997,13 Z M15.1,4.62999997 L16.1,2.88999996 C15.14,2.44999996 14.1,2.15999996 13,2.04999996 L13,4.06999997 C13.74,4.15999997 14.44,4.34999997 15.1,4.62999997 Z M19.93,11 L21.95,11 C21.84,9.89999998 21.55,8.85999999 21.11,7.89999998 L19.37,8.89999998 C19.65,9.55999999 19.84,10.26 19.93,11 Z M8.89999998,19.37 L7.89999998,21.11 C8.85999999,21.55 9.90999999,21.84 11,21.95 L11,19.93 C10.26,19.84 9.55999999,19.65 8.89999998,19.37 Z M11,4.06999997 L11,2.04999996 C9.89999998,2.15999996 8.85999999,2.44999996 7.89999998,2.88999996 L8.89999998,4.62999997 C9.55999999,4.34999997 10.26,4.15999997 11,4.06999997 Z M18.36,7.16999998 L20.1,6.15999998 C19.47,5.28999997 18.7,4.51999997 17.83,3.88999997 L16.82,5.62999997 C17.41,6.07999998 17.92,6.58999998 18.36,7.16999998 Z M4.62999997,8.89999998 L2.88999996,7.89999998 C2.44999996,8.85999999 2.15999996,9.89999998 2.04999996,11 L4.06999997,11 C4.15999997,10.26 4.34999997,9.55999999 4.62999997,8.89999998 Z M19.93,13 C19.84,13.74 19.65,14.44 19.37,15.1 L21.11,16.1 C21.55,15.14 21.84,14.09 21.95,13 L19.93,13 L19.93,13 Z M16.83,18.36 L17.84,20.1 C18.71,19.47 19.48,18.7 20.11,17.83 L18.37,16.82 C17.92,17.41 17.41,17.92 16.83,18.36 Z M7.16999998,5.63999997 L6.16999998,3.88999997 C5.28999997,4.52999997 4.52999997,5.28999997 3.89999997,6.16999998 L5.63999997,7.17999998 C6.07999998,6.58999998 6.58999998,6.07999998 7.16999998,5.63999997 Z M5.63999997,16.83 L3.89999997,17.83 C4.52999997,18.7 5.29999997,19.47 6.16999998,20.1 L7.17999998,18.36 C6.58999998,17.92 6.07999998,17.41 5.63999997,16.83 Z M12,6.99999998 L12,6.99999998 C11.45,6.99999998 11,7.44999998 11,7.99999998 L11,11.59 C11,12.12 11.21,12.63 11.59,13 L14.59,16 C14.98,16.39 15.61,16.39 16,16 L16,16 C16.39,15.61 16.39,14.98 16,14.59 L13,11.59 L13,7.99999998 C13,7.44999998 12.55,6.99999998 12,6.99999998 Z" id="path-1"></path>
    </defs>
    <g id="history_toggle_off" stroke="none" stroke-width="1" fill="none" fill-rule="evenodd">
        <mask id="mask-2" fill="white">
            <use xlink:href="#path-1"></use>
        </mask>
        <use id="Combined-Shape" fill="#000000" xlink:href="#path-1"></use>
    </g>
</svg>