<?xml version="1.0" encoding="UTF-8"?>
<svg width="24px" height="24px" viewBox="0 0 24 24" version="1.1" xmlns="http://www.w3.org/2000/svg" xmlns:xlink="http://www.w3.org/1999/xlink">
    <title>home</title>
    <defs>
        <path d="M9.99999999,19 L9.99999999,14 L14,14 L14,19 C14,19.55 14.45,20 15,20 L18,20 C18.55,20 19,19.55 19,19 L19,12 L20.7,12 C21.16,12 21.38,11.43 21.03,11.13 L12.67,3.59999996 C12.29,3.25999996 11.71,3.25999996 11.33,3.59999996 L2.96999996,11.13 C2.62999996,11.43 2.83999996,12 3.29999996,12 L4.99999997,12 L4.99999997,19 C4.99999997,19.55 5.44999997,20 5.99999997,20 L8.99999999,20 C9.54999999,20 9.99999999,19.55 9.99999999,19 Z" id="path-1"></path>
    </defs>
    <g id="home" stroke="none" stroke-width="1" fill="none" fill-rule="evenodd">
        <mask id="mask-2" fill="white">
            <use xlink:href="#path-1"></use>
        </mask>
        <use id="Combined-Shape" fill="#000000" xlink:href="#path-1"></use>
    </g>
</svg>