<?xml version="1.0" encoding="UTF-8"?>
<svg width="24px" height="24px" viewBox="0 0 24 24" version="1.1" xmlns="http://www.w3.org/2000/svg" xmlns:xlink="http://www.w3.org/1999/xlink">
    <title>hourglass_empty</title>
    <defs>
        <path d="M7.99999998,1.99999996 C6.89999998,1.99999996 5.99999998,2.89999996 5.99999998,3.99999996 L5.99999998,7.16999998 C5.99999998,7.69999998 6.20999998,8.20999998 6.58999998,8.58999999 L9.99999998,12 L6.57999998,15.42 C6.20999998,15.8 5.99999998,16.31 5.99999998,16.84 L5.99999998,20 C5.99999998,21.1 6.89999998,22 7.99999998,22 L16,22 C17.1,22 18,21.1 18,20 L18,16.84 C18,16.31 17.79,15.8 17.42,15.43 L14,12 L17.41,8.59999999 C17.79,8.21999998 18,7.70999998 18,7.17999998 L18,3.99999996 C18,2.89999996 17.1,1.99999996 16,1.99999996 L7.99999998,1.99999996 Z M16,16.5 L16,19 C16,19.55 15.55,20 15,20 L8.99999998,20 C8.44999999,20 7.99999998,19.55 7.99999998,19 L7.99999998,16.5 L12,12.5 L16,16.5 Z M12,11.5 L7.99999998,7.49999997 L7.99999998,4.99999997 C7.99999998,4.44999997 8.44999999,3.99999997 8.99999998,3.99999997 L15,3.99999997 C15.55,3.99999997 16,4.44999997 16,4.99999997 L16,7.49999997 L12,11.5 Z" id="path-1"></path>
    </defs>
    <g id="hourglass_empty" stroke="none" stroke-width="1" fill="none" fill-rule="evenodd">
        <mask id="mask-2" fill="white">
            <use xlink:href="#path-1"></use>
        </mask>
        <use id="Combined-Shape" fill="#000000" xlink:href="#path-1"></use>
    </g>
</svg>