<?xml version="1.0" encoding="UTF-8"?>
<svg width="24px" height="24px" viewBox="0 0 24 24" version="1.1" xmlns="http://www.w3.org/2000/svg" xmlns:xlink="http://www.w3.org/1999/xlink">
    <title>http</title>
    <defs>
        <path d="M4.49999995,11 L2.49999995,11 L2.49999995,9.74999999 C2.49999995,9.33999999 2.15999996,8.99999999 1.74999996,8.99999999 C1.33999996,8.99999999 0.999999954,9.33999999 0.999999954,9.74999999 L0.999999954,14.25 C0.999999954,14.66 1.33999996,15 1.74999996,15 C2.15999996,15 2.49999995,14.66 2.49999995,14.25 L2.49999995,12.5 L4.49999995,12.5 L4.49999995,14.25 C4.49999995,14.66 4.83999997,15 5.24999997,15 C5.65999997,15 5.99999995,14.66 5.99999995,14.25 L5.99999995,9.74999999 C5.99999995,9.33999999 5.65999997,8.99999999 5.24999997,8.99999999 C4.83999997,8.99999999 4.49999995,9.33999999 4.49999995,9.74999999 L4.49999995,11 Z M7.74999998,10.5 L8.49999998,10.5 L8.49999998,14.25 C8.49999998,14.66 8.83999999,15 9.24999999,15 C9.65999999,15 9.99999998,14.66 9.99999998,14.25 L9.99999998,10.5 L10.75,10.5 C11.16,10.5 11.5,10.16 11.5,9.74999999 C11.5,9.33999999 11.16,8.99999999 10.75,8.99999999 L7.74999998,8.99999999 C7.33999998,8.99999999 6.99999998,9.33999999 6.99999998,9.74999999 C6.99999998,10.16 7.33999998,10.5 7.74999998,10.5 Z M13.25,10.5 L14,10.5 L14,14.25 C14,14.66 14.34,15 14.75,15 C15.16,15 15.5,14.66 15.5,14.25 L15.5,10.5 L16.25,10.5 C16.66,10.5 17,10.16 17,9.74999999 C17,9.33999999 16.66,8.99999999 16.25,8.99999999 L13.25,8.99999999 C12.84,8.99999999 12.5,9.33999999 12.5,9.74999999 C12.5,10.16 12.84,10.5 13.25,10.5 Z M21.5,8.99999999 L19,8.99999999 C18.45,8.99999999 18,9.44999999 18,9.99999999 L18,14.25 C18,14.66 18.34,15 18.75,15 C19.16,15 19.5,14.66 19.5,14.25 L19.5,13 L21.5,13 C22.33,13 23,12.32 23,11.5 L23,10.5 C23,9.67999999 22.33,8.99999999 21.5,8.99999999 Z M21.5,11.5 L19.5,11.5 L19.5,10.5 L21.5,10.5 L21.5,11.5 Z" id="path-1"></path>
    </defs>
    <g id="http" stroke="none" stroke-width="1" fill="none" fill-rule="evenodd">
        <mask id="mask-2" fill="white">
            <use xlink:href="#path-1"></use>
        </mask>
        <use id="Combined-Shape" fill="#000000" xlink:href="#path-1"></use>
    </g>
</svg>