<?xml version="1.0" encoding="UTF-8"?>
<svg width="24px" height="24px" viewBox="0 0 24 24" version="1.1" xmlns="http://www.w3.org/2000/svg" xmlns:xlink="http://www.w3.org/1999/xlink">
    <title>important_devices</title>
    <defs>
        <path d="M23,11.01 L18,11 C17.45,11 17,11.45 17,12 L17,21 C17,21.55 17.45,22 18,22 L23,22 C23.55,22 24,21.55 24,21 L24,12 C24,11.45 23.55,11.01 23,11.01 Z M23,20 L18,20 L18,13 L23,13 L23,20 Z M19.9999999,1.99999996 L1.99999995,1.99999996 C0.899999954,1.99999996 -5.00000894e-08,2.89999996 -5.00000894e-08,3.99999996 L-5.00000894e-08,16 C-5.00000894e-08,17.1 0.899999954,18 1.99999995,18 L8.99999995,18 L8.99999995,20 L7.99999995,20 C7.44999998,20 6.99999995,20.45 6.99999995,21 C6.99999995,21.55 7.44999998,22 7.99999995,22 L13.9999999,22 C14.55,22 14.9999999,21.55 14.9999999,21 C14.9999999,20.45 14.55,20 13.9999999,20 L12.9999999,20 L12.9999999,18 L13.9999999,18 C14.55,18 14.9999999,17.55 14.9999999,17 C14.9999999,16.45 14.55,16 13.9999999,16 L2.99999995,16 C2.44999996,16 1.99999995,15.55 1.99999995,15 L1.99999995,4.99999996 C1.99999995,4.44999997 2.44999996,3.99999996 2.99999995,3.99999996 L18.9999999,3.99999996 C19.55,3.99999996 19.9999999,4.44999997 19.9999999,4.99999996 L19.9999999,7.99999996 C19.9999999,8.54999999 20.45,8.99999996 20.9999999,8.99999996 C21.55,8.99999996 21.9999999,8.54999999 21.9999999,7.99999996 L21.9999999,3.99999996 C21.9999999,2.89999996 21.1,1.99999996 19.9999999,1.99999996 Z M11.97,8.99999997 L11,5.99999997 L10.03,8.99999997 L6.99999998,8.99999997 L9.46999999,10.76 L8.52999999,13.67 L11,11.87 L13.47,13.67 L12.53,10.76 L15,8.99999997 L11.97,8.99999997 Z" id="path-1"></path>
    </defs>
    <g id="important_devices" stroke="none" stroke-width="1" fill="none" fill-rule="evenodd">
        <mask id="mask-2" fill="white">
            <use xlink:href="#path-1"></use>
        </mask>
        <use id="Combined-Shape" fill="#000000" xlink:href="#path-1"></use>
    </g>
</svg>