<?xml version="1.0" encoding="UTF-8"?>
<svg width="24px" height="24px" viewBox="0 0 24 24" version="1.1" xmlns="http://www.w3.org/2000/svg" xmlns:xlink="http://www.w3.org/1999/xlink">
    <title>input</title>
    <defs>
        <path d="M21,3.00999996 L2.99999995,3.00999996 C1.89999996,3.00999996 0.999999954,3.90999997 0.999999954,5.00999996 L0.999999954,7.99999998 C0.999999954,8.54999999 1.44999996,8.99999999 1.99999995,8.99999999 C2.54999996,8.99999999 2.99999995,8.54999999 2.99999995,7.99999998 L2.99999995,5.98999997 C2.99999995,5.43999997 3.44999996,4.98999997 3.99999995,4.98999997 L20,4.98999997 C20.55,4.98999997 21,5.43999997 21,5.98999997 L21,18.02 C21,18.57 20.55,19.02 20,19.02 L3.99999995,19.02 C3.44999996,19.02 2.99999995,18.57 2.99999995,18.02 L2.99999995,16 C2.99999995,15.45 2.54999996,15 1.99999995,15 C1.44999996,15 0.999999954,15.45 0.999999954,16 L0.999999954,19.01 C0.999999954,20.1 1.88999996,20.99 2.97999996,20.99 L21,20.99 C22.1,20.99 23,20.09 23,18.99 L23,5.00999996 C23,3.90999997 22.1,3.00999996 21,3.00999996 Z M11.85,15.15 L14.64,12.36 C14.84,12.16 14.84,11.85 14.64,11.65 L11.85,8.85999999 C11.54,8.53999999 11,8.75999999 11,9.20999999 L11,11 L1.99999995,11 C1.44999996,11 0.999999954,11.45 0.999999954,12 C0.999999954,12.55 1.44999996,13 1.99999995,13 L11,13 L11,14.79 C11,15.24 11.54,15.46 11.85,15.15 L11.85,15.15 Z" id="path-1"></path>
    </defs>
    <g id="input" stroke="none" stroke-width="1" fill="none" fill-rule="evenodd">
        <mask id="mask-2" fill="white">
            <use xlink:href="#path-1"></use>
        </mask>
        <use id="Combined-Shape" fill="#000000" xlink:href="#path-1"></use>
    </g>
</svg>