<?xml version="1.0" encoding="UTF-8"?>
<svg width="24px" height="24px" viewBox="0 0 24 24" version="1.1" xmlns="http://www.w3.org/2000/svg" xmlns:xlink="http://www.w3.org/1999/xlink">
    <title>integration_instructions</title>
    <defs>
        <path d="M19,2.99999995 L14.82,2.99999995 C14.4,1.83999996 13.3,0.999999954 12,0.999999954 C10.7,0.999999954 9.59999999,1.83999996 9.17999999,2.99999995 L4.99999996,2.99999995 C4.85999997,2.99999995 4.72999997,3.00999996 4.59999997,3.03999996 C4.20999997,3.11999996 3.85999997,3.31999996 3.58999996,3.58999996 C3.40999996,3.76999997 3.25999996,3.98999997 3.15999996,4.22999997 C3.05999996,4.45999997 2.99999996,4.71999997 2.99999996,4.99999995 L2.99999996,19 C2.99999996,19.27 3.05999996,19.54 3.15999996,19.78 C3.25999996,20.02 3.40999996,20.23 3.58999996,20.42 C3.85999997,20.69 4.20999997,20.89 4.59999997,20.97 C4.72999997,20.99 4.85999997,21 4.99999996,21 L19,21 C20.1,21 21,20.1 21,19 L21,4.99999995 C21,3.89999997 20.1,2.99999995 19,2.99999995 Z M10.3,14.88 L10.3,14.88 C9.90999999,15.27 9.26999999,15.27 8.87999999,14.88 L6.70999998,12.71 C6.31999998,12.32 6.31999998,11.69 6.70999998,11.3 L8.87999999,9.12999999 C9.26999999,8.73999999 9.90999999,8.73999999 10.3,9.12999999 L10.3,9.12999999 C10.69,9.51999999 10.69,10.15 10.3,10.54 L8.82999999,12 L10.29,13.46 C10.68,13.85 10.69,14.49 10.3,14.88 Z M12,4.24999996 C11.59,4.24999996 11.25,3.90999997 11.25,3.49999996 C11.25,3.08999996 11.59,2.74999996 12,2.74999996 C12.41,2.74999996 12.75,3.08999996 12.75,3.49999996 C12.75,3.90999997 12.41,4.24999996 12,4.24999996 Z M13.7,14.88 L13.7,14.88 C13.31,14.49 13.31,13.86 13.7,13.47 L15.17,12 L13.7,10.53 C13.31,10.14 13.31,9.50999999 13.7,9.11999999 L13.7,9.11999999 C14.09,8.72999999 14.73,8.72999999 15.12,9.11999999 L17.29,11.29 C17.68,11.68 17.68,12.31 17.29,12.7 L15.12,14.87 C14.73,15.27 14.09,15.27 13.7,14.88 Z" id="path-1"></path>
    </defs>
    <g id="integration_instructions" stroke="none" stroke-width="1" fill="none" fill-rule="evenodd">
        <mask id="mask-2" fill="white">
            <use xlink:href="#path-1"></use>
        </mask>
        <use id="Combined-Shape" fill="#000000" xlink:href="#path-1"></use>
    </g>
</svg>