<?xml version="1.0" encoding="UTF-8"?>
<svg width="24px" height="24px" viewBox="0 0 24 24" version="1.1" xmlns="http://www.w3.org/2000/svg" xmlns:xlink="http://www.w3.org/1999/xlink">
    <title>language</title>
    <defs>
        <path d="M11.99,1.99999996 C6.46999998,1.99999996 1.99999996,6.47999998 1.99999996,12 C1.99999996,17.52 6.46999998,22 11.99,22 C17.52,22 22,17.52 22,12 C22,6.47999998 17.52,1.99999996 11.99,1.99999996 Z M18.92,7.99999998 L15.97,7.99999998 C15.65,6.74999998 15.19,5.54999997 14.59,4.43999997 C16.43,5.06999997 17.96,6.34999998 18.92,7.99999998 Z M12,4.03999997 C12.83,5.23999997 13.48,6.56999998 13.91,7.99999998 L10.09,7.99999998 C10.52,6.56999998 11.17,5.23999997 12,4.03999997 Z M4.25999997,14 C4.09999997,13.36 3.99999997,12.69 3.99999997,12 C3.99999997,11.31 4.09999997,10.64 4.25999997,9.99999999 L7.63999998,9.99999999 C7.55999998,10.66 7.49999997,11.32 7.49999997,12 C7.49999997,12.68 7.55999998,13.34 7.63999998,14 L4.25999997,14 Z M5.07999997,16 L8.02999998,16 C8.34999998,17.25 8.80999999,18.45 9.40999999,19.56 C7.56999998,18.93 6.03999998,17.66 5.07999997,16 L5.07999997,16 Z M8.02999998,7.99999998 L5.07999997,7.99999998 C6.03999998,6.33999998 7.56999998,5.06999997 9.40999999,4.43999997 C8.80999999,5.54999997 8.34999998,6.74999998 8.02999998,7.99999998 L8.02999998,7.99999998 Z M12,19.96 C11.17,18.76 10.52,17.43 10.09,16 L13.91,16 C13.48,17.43 12.83,18.76 12,19.96 Z M14.34,14 L9.65999999,14 C9.56999999,13.34 9.49999999,12.68 9.49999999,12 C9.49999999,11.32 9.56999999,10.65 9.65999999,9.99999999 L14.34,9.99999999 C14.43,10.65 14.5,11.32 14.5,12 C14.5,12.68 14.43,13.34 14.34,14 Z M14.59,19.56 C15.19,18.45 15.65,17.25 15.97,16 L18.92,16 C17.96,17.65 16.43,18.93 14.59,19.56 L14.59,19.56 Z M16.36,14 C16.44,13.34 16.5,12.68 16.5,12 C16.5,11.32 16.44,10.66 16.36,9.99999999 L19.74,9.99999999 C19.9,10.64 20,11.31 20,12 C20,12.69 19.9,13.36 19.74,14 L16.36,14 Z" id="path-1"></path>
    </defs>
    <g id="language" stroke="none" stroke-width="1" fill="none" fill-rule="evenodd">
        <mask id="mask-2" fill="white">
            <use xlink:href="#path-1"></use>
        </mask>
        <use id="Combined-Shape" fill="#000000" xlink:href="#path-1"></use>
    </g>
</svg>