<?xml version="1.0" encoding="UTF-8"?>
<svg width="24px" height="24px" viewBox="0 0 24 24" version="1.1" xmlns="http://www.w3.org/2000/svg" xmlns:xlink="http://www.w3.org/1999/xlink">
    <title>leaderboard</title>
    <defs>
        <path d="M6.49999996,21 L2.99999996,21 C2.44999996,21 1.99999996,20.55 1.99999996,20 L1.99999996,9.99999999 C1.99999996,9.44999999 2.44999996,8.99999999 2.99999996,8.99999999 L6.49999996,8.99999999 C7.04999998,8.99999999 7.49999996,9.44999999 7.49999996,9.99999999 L7.49999996,20 C7.49999996,20.55 7.04999998,21 6.49999996,21 Z M13.75,2.99999996 L10.25,2.99999996 C9.69999999,2.99999996 9.24999999,3.44999996 9.24999999,3.99999996 L9.24999999,20 C9.24999999,20.55 9.69999999,21 10.25,21 L13.75,21 C14.3,21 14.75,20.55 14.75,20 L14.75,3.99999996 C14.75,3.44999996 14.3,2.99999996 13.75,2.99999996 Z M21,11 L17.5,11 C16.95,11 16.5,11.45 16.5,12 L16.5,20 C16.5,20.55 16.95,21 17.5,21 L21,21 C21.55,21 22,20.55 22,20 L22,12 C22,11.45 21.55,11 21,11 Z" id="path-1"></path>
    </defs>
    <g id="leaderboard" stroke="none" stroke-width="1" fill="none" fill-rule="evenodd">
        <mask id="mask-2" fill="white">
            <use xlink:href="#path-1"></use>
        </mask>
        <use id="Combined-Shape" fill="#000000" xlink:href="#path-1"></use>
    </g>
</svg>