<?xml version="1.0" encoding="UTF-8"?>
<svg width="24px" height="24px" viewBox="0 0 24 24" version="1.1" xmlns="http://www.w3.org/2000/svg" xmlns:xlink="http://www.w3.org/1999/xlink">
    <title>line_style</title>
    <defs>
        <path d="M3.99999996,16 L6.99999996,16 C7.54999998,16 7.99999996,15.55 7.99999996,15 C7.99999996,14.45 7.54999998,14 6.99999996,14 L3.99999996,14 C3.44999996,14 2.99999996,14.45 2.99999996,15 C2.99999996,15.55 3.44999996,16 3.99999996,16 Z M10.5,16 L13.5,16 C14.05,16 14.5,15.55 14.5,15 C14.5,14.45 14.05,14 13.5,14 L10.5,14 C9.94999999,14 9.49999999,14.45 9.49999999,15 C9.49999999,15.55 9.94999999,16 10.5,16 Z M17,16 L20,16 C20.55,16 21,15.55 21,15 C21,14.45 20.55,14 20,14 L17,14 C16.45,14 16,14.45 16,15 C16,15.55 16.45,16 17,16 Z M3.99999996,20 C4.54999997,20 4.99999996,19.55 4.99999996,19 C4.99999996,18.45 4.54999997,18 3.99999996,18 C3.44999996,18 2.99999996,18.45 2.99999996,19 C2.99999996,19.55 3.44999996,20 3.99999996,20 Z M7.99999998,20 C8.54999999,20 8.99999998,19.55 8.99999998,19 C8.99999998,18.45 8.54999999,18 7.99999998,18 C7.44999998,18 6.99999998,18.45 6.99999998,19 C6.99999998,19.55 7.44999998,20 7.99999998,20 Z M12,20 C12.55,20 13,19.55 13,19 C13,18.45 12.55,18 12,18 C11.45,18 11,18.45 11,19 C11,19.55 11.45,20 12,20 Z M16,20 C16.55,20 17,19.55 17,19 C17,18.45 16.55,18 16,18 C15.45,18 15,18.45 15,19 C15,19.55 15.45,20 16,20 Z M20,20 C20.55,20 21,19.55 21,19 C21,18.45 20.55,18 20,18 C19.45,18 19,18.45 19,19 C19,19.55 19.45,20 20,20 Z M3.99999996,12 L9.99999996,12 C10.55,12 11,11.55 11,11 C11,10.45 10.55,9.99999999 9.99999996,9.99999999 L3.99999996,9.99999999 C3.44999996,9.99999999 2.99999996,10.45 2.99999996,11 C2.99999996,11.55 3.44999996,12 3.99999996,12 Z M14,12 L20,12 C20.55,12 21,11.55 21,11 C21,10.45 20.55,9.99999999 20,9.99999999 L14,9.99999999 C13.45,9.99999999 13,10.45 13,11 C13,11.55 13.45,12 14,12 Z M2.99999996,4.99999997 L2.99999996,6.99999997 C2.99999996,7.54999998 3.44999996,7.99999997 3.99999996,7.99999997 L20,7.99999997 C20.55,7.99999997 21,7.54999998 21,6.99999997 L21,4.99999997 C21,4.44999997 20.55,3.99999997 20,3.99999997 L3.99999996,3.99999997 C3.44999996,3.99999997 2.99999996,4.44999997 2.99999996,4.99999997 Z" id="path-1"></path>
    </defs>
    <g id="line_style" stroke="none" stroke-width="1" fill="none" fill-rule="evenodd">
        <mask id="mask-2" fill="white">
            <use xlink:href="#path-1"></use>
        </mask>
        <use id="Combined-Shape" fill="#000000" xlink:href="#path-1"></use>
    </g>
</svg>