<?xml version="1.0" encoding="UTF-8"?>
<svg width="24px" height="24px" viewBox="0 0 24 24" version="1.1" xmlns="http://www.w3.org/2000/svg" xmlns:xlink="http://www.w3.org/1999/xlink">
    <title>list</title>
    <defs>
        <path d="M3.99999996,13 C4.54999997,13 4.99999996,12.55 4.99999996,12 C4.99999996,11.45 4.54999997,11 3.99999996,11 C3.44999996,11 2.99999996,11.45 2.99999996,12 C2.99999996,12.55 3.44999996,13 3.99999996,13 Z M3.99999996,17 C4.54999997,17 4.99999996,16.55 4.99999996,16 C4.99999996,15.45 4.54999997,15 3.99999996,15 C3.44999996,15 2.99999996,15.45 2.99999996,16 C2.99999996,16.55 3.44999996,17 3.99999996,17 Z M3.99999996,8.99999998 C4.54999997,8.99999998 4.99999996,8.54999999 4.99999996,7.99999998 C4.99999996,7.44999998 4.54999997,6.99999998 3.99999996,6.99999998 C3.44999996,6.99999998 2.99999996,7.44999998 2.99999996,7.99999998 C2.99999996,8.54999999 3.44999996,8.99999998 3.99999996,8.99999998 Z M7.99999998,13 L20,13 C20.55,13 21,12.55 21,12 C21,11.45 20.55,11 20,11 L7.99999998,11 C7.44999998,11 6.99999998,11.45 6.99999998,12 C6.99999998,12.55 7.44999998,13 7.99999998,13 Z M7.99999998,17 L20,17 C20.55,17 21,16.55 21,16 C21,15.45 20.55,15 20,15 L7.99999998,15 C7.44999998,15 6.99999998,15.45 6.99999998,16 C6.99999998,16.55 7.44999998,17 7.99999998,17 Z M6.99999998,7.99999998 C6.99999998,8.54999999 7.44999998,8.99999998 7.99999998,8.99999998 L20,8.99999998 C20.55,8.99999998 21,8.54999999 21,7.99999998 C21,7.44999998 20.55,6.99999998 20,6.99999998 L7.99999998,6.99999998 C7.44999998,6.99999998 6.99999998,7.44999998 6.99999998,7.99999998 Z M3.99999996,13 C4.54999997,13 4.99999996,12.55 4.99999996,12 C4.99999996,11.45 4.54999997,11 3.99999996,11 C3.44999996,11 2.99999996,11.45 2.99999996,12 C2.99999996,12.55 3.44999996,13 3.99999996,13 Z M3.99999996,17 C4.54999997,17 4.99999996,16.55 4.99999996,16 C4.99999996,15.45 4.54999997,15 3.99999996,15 C3.44999996,15 2.99999996,15.45 2.99999996,16 C2.99999996,16.55 3.44999996,17 3.99999996,17 Z M3.99999996,8.99999998 C4.54999997,8.99999998 4.99999996,8.54999999 4.99999996,7.99999998 C4.99999996,7.44999998 4.54999997,6.99999998 3.99999996,6.99999998 C3.44999996,6.99999998 2.99999996,7.44999998 2.99999996,7.99999998 C2.99999996,8.54999999 3.44999996,8.99999998 3.99999996,8.99999998 Z M7.99999998,13 L20,13 C20.55,13 21,12.55 21,12 C21,11.45 20.55,11 20,11 L7.99999998,11 C7.44999998,11 6.99999998,11.45 6.99999998,12 C6.99999998,12.55 7.44999998,13 7.99999998,13 Z M7.99999998,17 L20,17 C20.55,17 21,16.55 21,16 C21,15.45 20.55,15 20,15 L7.99999998,15 C7.44999998,15 6.99999998,15.45 6.99999998,16 C6.99999998,16.55 7.44999998,17 7.99999998,17 Z M6.99999998,7.99999998 C6.99999998,8.54999999 7.44999998,8.99999998 7.99999998,8.99999998 L20,8.99999998 C20.55,8.99999998 21,8.54999999 21,7.99999998 C21,7.44999998 20.55,6.99999998 20,6.99999998 L7.99999998,6.99999998 C7.44999998,6.99999998 6.99999998,7.44999998 6.99999998,7.99999998 Z" id="path-1"></path>
    </defs>
    <g id="list" stroke="none" stroke-width="1" fill="none" fill-rule="evenodd">
        <mask id="mask-2" fill="white">
            <use xlink:href="#path-1"></use>
        </mask>
        <use id="Shape" fill="#000000" fill-rule="nonzero" xlink:href="#path-1"></use>
    </g>
</svg>