<?xml version="1.0" encoding="UTF-8"?>
<svg width="24px" height="24px" viewBox="0 0 24 24" version="1.1" xmlns="http://www.w3.org/2000/svg" xmlns:xlink="http://www.w3.org/1999/xlink">
    <title>online_prediction</title>
    <defs>
        <path d="M15.5,11.5 C15.5,13.5 13,15 13,16.5 L11,16.5 C11,15 8.49999999,13.5 8.49999999,11.5 C8.49999999,9.56999999 10.07,7.99999998 12,7.99999998 C13.93,7.99999998 15.5,9.56999999 15.5,11.5 Z M13,17.5 L11,17.5 L11,18 C11,18.55 11.45,19 12,19 L12,19 C12.55,19 13,18.55 13,18 L13,17.5 Z M22,12 C22,9.53999999 21.11,7.28999998 19.64,5.54999997 C19.35,5.20999997 18.84,5.16999997 18.52,5.48999997 L18.52,5.48999997 C18.25,5.75999997 18.22,6.19999998 18.46,6.48999998 C19.73,7.96999998 20.5,9.89999999 20.5,12 C20.5,14.1 19.73,16.03 18.46,17.52 C18.21,17.81 18.25,18.25 18.52,18.52 L18.52,18.52 C18.84,18.84 19.35,18.8 19.64,18.46 C21.11,16.71 22,14.46 22,12 Z M3.49999996,12 C3.49999996,9.89999999 4.26999997,7.96999998 5.53999997,6.47999998 C5.78999997,6.18999998 5.74999997,5.74999997 5.47999997,5.47999997 L5.47999997,5.47999997 C5.16999997,5.16999997 4.64999997,5.19999997 4.35999997,5.53999997 C2.88999996,7.28999998 1.99999996,9.53999999 1.99999996,12 C1.99999996,14.46 2.88999996,16.71 4.35999997,18.46 C4.64999997,18.8 5.15999997,18.84 5.47999997,18.52 L5.47999997,18.52 C5.74999997,18.25 5.77999997,17.81 5.53999997,17.52 C4.26999997,16.03 3.49999996,14.1 3.49999996,12 Z M17.5,12 C17.5,13.28 17.06,14.47 16.32,15.41 C16.09,15.7 16.12,16.12 16.39,16.39 L16.39,16.39 C16.71,16.71 17.24,16.68 17.52,16.32 C18.44,15.13 19,13.63 19,12 C19,10.37 18.44,8.86999999 17.51,7.68999998 C17.23,7.32999998 16.7,7.29999998 16.38,7.61999998 L16.38,7.61999998 C16.12,7.87999998 16.08,8.29999998 16.31,8.59999999 C17.06,9.52999999 17.5,10.72 17.5,12 Z M7.61999998,16.38 L7.61999998,16.38 C7.87999998,16.12 7.91999998,15.7 7.68999998,15.4 C6.93999998,14.47 6.49999997,13.28 6.49999997,12 C6.49999997,10.72 6.93999998,9.52999999 7.67999998,8.58999999 C7.90999998,8.29999998 7.87999998,7.87999998 7.60999998,7.60999998 L7.60999998,7.60999998 C7.29999998,7.29999998 6.76999998,7.32999998 6.48999998,7.67999998 C5.55999997,8.86999999 4.99999997,10.37 4.99999997,12 C4.99999997,13.63 5.55999997,15.13 6.48999998,16.32 C6.76999998,16.67 7.29999998,16.7 7.61999998,16.38 Z" id="path-1"></path>
    </defs>
    <g id="online_prediction" stroke="none" stroke-width="1" fill="none" fill-rule="evenodd">
        <mask id="mask-2" fill="white">
            <use xlink:href="#path-1"></use>
        </mask>
        <use id="Combined-Shape" fill="#000000" xlink:href="#path-1"></use>
    </g>
</svg>