<?xml version="1.0" encoding="UTF-8"?>
<svg width="24px" height="24px" viewBox="0 0 24 24" version="1.1" xmlns="http://www.w3.org/2000/svg" xmlns:xlink="http://www.w3.org/1999/xlink">
    <title>opacity</title>
    <defs>
        <path d="M17.66,7.99999998 L12.71,3.05999996 C12.32,2.66999996 11.69,2.66999996 11.3,3.05999996 L6.33999998,7.99999998 C4.77999997,9.55999999 3.99999997,11.64 3.99999997,13.64 C3.99999997,15.64 4.77999997,17.75 6.33999998,19.31 C7.89999998,20.87 9.94999999,21.66 12,21.66 C14.05,21.66 16.1,20.87 17.66,19.31 C19.22,17.75 20,15.64 20,13.64 C20,11.64 19.22,9.55999999 17.66,7.99999998 Z M5.99999998,14 C6.00999998,12 6.61999998,10.73 7.75999998,9.59999999 L12,5.26999997 L16.24,9.64999999 C17.38,10.77 17.99,12 18,14 L5.99999998,14 Z" id="path-1"></path>
    </defs>
    <g id="opacity" stroke="none" stroke-width="1" fill="none" fill-rule="evenodd">
        <mask id="mask-2" fill="white">
            <use xlink:href="#path-1"></use>
        </mask>
        <use id="Combined-Shape" fill="#000000" xlink:href="#path-1"></use>
    </g>
</svg>