<?xml version="1.0" encoding="UTF-8"?>
<svg width="24px" height="24px" viewBox="0 0 24 24" version="1.1" xmlns="http://www.w3.org/2000/svg" xmlns:xlink="http://www.w3.org/1999/xlink">
    <title>open_with</title>
    <defs>
        <path d="M10.5,8.99999999 L13.5,8.99999999 C13.78,8.99999999 14,8.77999999 14,8.49999999 L14,5.99999997 L15.79,5.99999997 C16.24,5.99999997 16.46,5.45999997 16.14,5.14999997 L12.35,1.35999996 C12.15,1.15999995 11.84,1.15999995 11.64,1.35999996 L7.84999998,5.14999997 C7.53999998,5.45999997 7.75999998,5.99999997 8.20999998,5.99999997 L9.99999999,5.99999997 L9.99999999,8.49999999 C9.99999999,8.77999999 10.22,8.99999999 10.5,8.99999999 Z M8.49999999,9.99999999 L5.99999997,9.99999999 L5.99999997,8.20999998 C5.99999997,7.75999998 5.45999997,7.53999998 5.14999997,7.85999998 L1.35999996,11.65 C1.15999995,11.85 1.15999995,12.16 1.35999996,12.36 L5.14999997,16.15 C5.45999997,16.46 5.99999997,16.24 5.99999997,15.79 L5.99999997,14 L8.49999999,14 C8.77999999,14 8.99999999,13.78 8.99999999,13.5 L8.99999999,10.5 C8.99999999,10.22 8.77999999,9.99999999 8.49999999,9.99999999 Z M22.65,11.65 L18.86,7.85999998 C18.54,7.53999998 18,7.75999998 18,8.20999998 L18,9.99999999 L15.5,9.99999999 C15.22,9.99999999 15,10.22 15,10.5 L15,13.5 C15,13.78 15.22,14 15.5,14 L18,14 L18,15.79 C18,16.24 18.54,16.46 18.85,16.14 L22.64,12.35 C22.84,12.16 22.84,11.84 22.65,11.65 L22.65,11.65 Z M13.5,15 L10.5,15 C10.22,15 9.99999999,15.22 9.99999999,15.5 L9.99999999,18 L8.20999998,18 C7.75999998,18 7.53999998,18.54 7.85999998,18.85 L11.65,22.64 C11.85,22.84 12.16,22.84 12.36,22.64 L16.15,18.85 C16.46,18.54 16.24,18 15.8,18 L14,18 L14,15.5 C14,15.22 13.78,15 13.5,15 Z" id="path-1"></path>
    </defs>
    <g id="open_with" stroke="none" stroke-width="1" fill="none" fill-rule="evenodd">
        <mask id="mask-2" fill="white">
            <use xlink:href="#path-1"></use>
        </mask>
        <use id="Combined-Shape" fill="#000000" xlink:href="#path-1"></use>
    </g>
</svg>