<?xml version="1.0" encoding="UTF-8"?>
<svg width="24px" height="24px" viewBox="0 0 24 24" version="1.1" xmlns="http://www.w3.org/2000/svg" xmlns:xlink="http://www.w3.org/1999/xlink">
    <title>pets</title>
    <defs>
        <path d="M12,10.5 C12.26,10.5 12.53,10.5 12.78,10.54 C12.89,10.56 13,10.59 13.11,10.63 C13.81,10.87 14.4,11.41 14.86,11.95 C15.74,12.97 16.47,13.84 17.34,14.86 C18.65,16.17 20.26,17.62 19.95,19.66 C19.66,20.67 18.93,21.69 17.62,21.98 C16.89,22.12 14.56,21.54 12.08,21.54 L12.08,21.54 L11.9,21.54 C9.41999999,21.54 7.08999998,22.13 6.35999998,21.98 C5.04999997,21.69 4.31999997,20.68 4.02999997,19.66 C3.72999997,17.63 5.33999997,16.18 6.64999998,14.87 C7.52999998,13.85 8.25999998,12.98 9.12999999,11.96 C9.59999999,11.42 10.18,10.88 10.88,10.64 C10.99,10.6 11.1,10.57 11.21,10.55 C11.47,10.5 11.74,10.5 12,10.5 Z M4.49999996,6.99999998 C5.88071185,6.99999998 6.99999996,8.11928811 6.99999996,9.49999998 C6.99999996,10.8807119 5.88071185,12 4.49999996,12 C3.11928809,12 1.99999996,10.8807119 1.99999996,9.49999998 C1.99999996,8.11928811 3.11928809,6.99999998 4.49999996,6.99999998 Z M19.5,6.99999998 C20.8807119,6.99999998 22,8.11928811 22,9.49999998 C22,10.8807119 20.8807119,12 19.5,12 C18.1192882,12 17,10.8807119 17,9.49999998 C17,8.11928811 18.1192882,6.99999998 19.5,6.99999998 Z M8.99999998,2.99999996 C10.3807119,2.99999996 11.5,4.11928809 11.5,5.49999996 C11.5,6.88071185 10.3807119,7.99999996 8.99999998,7.99999996 C7.61928811,7.99999996 6.49999998,6.88071185 6.49999998,5.49999996 C6.49999998,4.11928809 7.61928811,2.99999996 8.99999998,2.99999996 Z M15,2.99999996 C16.3807119,2.99999996 17.5,4.11928809 17.5,5.49999996 C17.5,6.88071185 16.3807119,7.99999996 15,7.99999996 C13.6192881,7.99999996 12.5,6.88071185 12.5,5.49999996 C12.5,4.11928809 13.6192881,2.99999996 15,2.99999996 Z" id="path-1"></path>
    </defs>
    <g id="pets" stroke="none" stroke-width="1" fill="none" fill-rule="evenodd">
        <mask id="mask-2" fill="white">
            <use xlink:href="#path-1"></use>
        </mask>
        <use id="Combined-Shape" fill="#000000" xlink:href="#path-1"></use>
    </g>
</svg>