<?xml version="1.0" encoding="UTF-8"?>
<svg width="24px" height="24px" viewBox="0 0 24 24" version="1.1" xmlns="http://www.w3.org/2000/svg" xmlns:xlink="http://www.w3.org/1999/xlink">
    <title>picture_in_picture_alt</title>
    <defs>
        <path d="M18,11 L12,11 C11.45,11 11,11.45 11,12 L11,16 C11,16.55 11.45,17 12,17 L18,17 C18.55,17 19,16.55 19,16 L19,12 C19,11.45 18.55,11 18,11 Z M23,19 L23,4.97999997 C23,3.87999997 22.1,2.99999996 21,2.99999996 L2.99999995,2.99999996 C1.89999996,2.99999996 0.999999954,3.87999997 0.999999954,4.97999997 L0.999999954,19 C0.999999954,20.1 1.89999996,21 2.99999995,21 L21,21 C22.1,21 23,20.1 23,19 Z M20,19.02 L3.99999996,19.02 C3.44999996,19.02 2.99999996,18.57 2.99999996,18.02 L2.99999996,5.96999997 C2.99999996,5.41999997 3.44999996,4.96999997 3.99999996,4.96999997 L20,4.96999997 C20.55,4.96999997 21,5.41999997 21,5.96999997 L21,18.02 C21,18.57 20.55,19.02 20,19.02 Z" id="path-1"></path>
    </defs>
    <g id="picture_in_picture_alt" stroke="none" stroke-width="1" fill="none" fill-rule="evenodd">
        <mask id="mask-2" fill="white">
            <use xlink:href="#path-1"></use>
        </mask>
        <use id="Combined-Shape" fill="#000000" xlink:href="#path-1"></use>
    </g>
</svg>