<?xml version="1.0" encoding="UTF-8"?>
<svg width="24px" height="24px" viewBox="0 0 24 24" version="1.1" xmlns="http://www.w3.org/2000/svg" xmlns:xlink="http://www.w3.org/1999/xlink">
    <title>query_builder</title>
    <defs>
        <path d="M11.99,1.99999996 C6.46999998,1.99999996 1.99999996,6.47999998 1.99999996,12 C1.99999996,17.52 6.46999998,22 11.99,22 C17.52,22 22,17.52 22,12 C22,6.47999998 17.52,1.99999996 11.99,1.99999996 Z M12,20 C7.57999998,20 3.99999997,16.42 3.99999997,12 C3.99999997,7.57999998 7.57999998,3.99999997 12,3.99999997 C16.42,3.99999997 20,7.57999998 20,12 C20,16.42 16.42,20 12,20 Z M11.78,6.99999998 L11.72,6.99999998 C11.32,6.99999998 11,7.31999998 11,7.71999998 L11,12.44 C11,12.79 11.18,13.12 11.49,13.3 L15.64,15.79 C15.98,15.99 16.42,15.89 16.62,15.55 C16.83,15.21 16.72,14.76 16.37,14.56 L12.5,12.26 L12.5,7.71999998 C12.5,7.31999998 12.18,6.99999998 11.78,6.99999998 L11.78,6.99999998 Z" id="path-1"></path>
    </defs>
    <g id="query_builder" stroke="none" stroke-width="1" fill="none" fill-rule="evenodd">
        <mask id="mask-2" fill="white">
            <use xlink:href="#path-1"></use>
        </mask>
        <use id="Combined-Shape" fill="#000000" xlink:href="#path-1"></use>
    </g>
</svg>