<?xml version="1.0" encoding="UTF-8"?>
<svg width="24px" height="24px" viewBox="0 0 24 24" version="1.1" xmlns="http://www.w3.org/2000/svg" xmlns:xlink="http://www.w3.org/1999/xlink">
    <title>receipt</title>
    <defs>
        <path d="M21,2.20999996 C20.87,2.20999996 20.74,2.25999996 20.65,2.35999996 L19.86,3.14999996 C19.66,3.34999996 19.35,3.34999996 19.15,3.14999996 L18.36,2.35999996 C18.16,2.15999996 17.85,2.15999996 17.65,2.35999996 L16.86,3.14999996 C16.66,3.34999996 16.35,3.34999996 16.15,3.14999996 L15.36,2.35999996 C15.16,2.15999996 14.85,2.15999996 14.65,2.35999996 L13.86,3.14999996 C13.66,3.34999996 13.35,3.34999996 13.15,3.14999996 L12.36,2.35999996 C12.16,2.15999996 11.85,2.15999996 11.65,2.35999996 L10.86,3.14999996 C10.66,3.34999996 10.35,3.34999996 10.15,3.14999996 L9.34999999,2.34999996 C9.14999999,2.14999996 8.83999999,2.14999996 8.63999999,2.34999996 L7.84999998,3.14999996 C7.64999998,3.34999996 7.33999998,3.34999996 7.13999998,3.14999996 L6.34999998,2.34999996 C6.14999998,2.14999996 5.83999997,2.14999996 5.63999997,2.34999996 L4.84999997,3.14999996 C4.64999997,3.34999996 4.33999997,3.34999996 4.13999997,3.14999996 L3.34999996,2.34999996 C3.25999996,2.25999996 3.12999996,2.20999996 2.99999996,2.20999996 L2.99999996,21.8 C3.12999996,21.8 3.25999996,21.75 3.34999996,21.65 L4.13999997,20.86 C4.33999997,20.66 4.64999997,20.66 4.84999997,20.86 L5.63999997,21.65 C5.83999997,21.85 6.14999998,21.85 6.34999998,21.65 L7.13999998,20.86 C7.33999998,20.66 7.64999998,20.66 7.84999998,20.86 L8.63999999,21.65 C8.83999999,21.85 9.14999999,21.85 9.34999999,21.65 L10.14,20.86 C10.34,20.66 10.65,20.66 10.85,20.86 L11.64,21.65 C11.84,21.85 12.15,21.85 12.35,21.65 L13.14,20.86 C13.34,20.66 13.65,20.66 13.85,20.86 L14.64,21.65 C14.84,21.85 15.15,21.85 15.35,21.65 L16.14,20.86 C16.34,20.66 16.65,20.66 16.85,20.86 L17.64,21.65 C17.84,21.85 18.15,21.85 18.35,21.65 L19.14,20.86 C19.34,20.66 19.65,20.66 19.85,20.86 L20.64,21.65 C20.74,21.75 20.87,21.8 20.99,21.8 L20.99,2.20999996 L21,2.20999996 Z M17,17 L6.99999998,17 C6.44999998,17 5.99999998,16.55 5.99999998,16 C5.99999998,15.45 6.44999998,15 6.99999998,15 L17,15 C17.55,15 18,15.45 18,16 C18,16.55 17.55,17 17,17 Z M17,13 L6.99999998,13 C6.44999998,13 5.99999998,12.55 5.99999998,12 C5.99999998,11.45 6.44999998,11 6.99999998,11 L17,11 C17.55,11 18,11.45 18,12 C18,12.55 17.55,13 17,13 Z M17,8.99999998 L6.99999998,8.99999998 C6.44999998,8.99999998 5.99999998,8.54999999 5.99999998,7.99999998 C5.99999998,7.44999998 6.44999998,6.99999998 6.99999998,6.99999998 L17,6.99999998 C17.55,6.99999998 18,7.44999998 18,7.99999998 C18,8.54999999 17.55,8.99999998 17,8.99999998 Z" id="path-1"></path>
    </defs>
    <g id="receipt" stroke="none" stroke-width="1" fill="none" fill-rule="evenodd">
        <mask id="mask-2" fill="white">
            <use xlink:href="#path-1"></use>
        </mask>
        <use id="Combined-Shape" fill="#000000" xlink:href="#path-1"></use>
    </g>
</svg>