<?xml version="1.0" encoding="UTF-8"?>
<svg width="24px" height="24px" viewBox="0 0 24 24" version="1.1" xmlns="http://www.w3.org/2000/svg" xmlns:xlink="http://www.w3.org/1999/xlink">
    <title>redeem</title>
    <defs>
        <path d="M20,5.99999996 L17.82,5.99999996 C17.93,5.68999997 18,5.34999997 18,4.99999996 C18,3.33999996 16.66,1.99999996 15,1.99999996 C13.95,1.99999996 13.04,2.53999996 12.5,3.34999996 L12,4.01999997 L11.5,3.33999996 C10.96,2.53999996 10.05,1.99999996 8.99999996,1.99999996 C7.33999998,1.99999996 5.99999996,3.33999996 5.99999996,4.99999996 C5.99999996,5.34999997 6.06999998,5.68999997 6.17999998,5.99999996 L3.99999996,5.99999996 C2.88999996,5.99999996 2.00999996,6.88999998 2.00999996,7.99999996 L1.99999996,19 C1.99999996,20.11 2.88999996,21 3.99999996,21 L20,21 C21.11,21 22,20.11 22,19 L22,7.99999996 C22,6.88999998 21.11,5.99999996 20,5.99999996 Z M15,3.99999997 C15.55,3.99999997 16,4.44999997 16,4.99999997 C16,5.54999997 15.55,5.99999997 15,5.99999997 C14.45,5.99999997 14,5.54999997 14,4.99999997 C14,4.44999997 14.45,3.99999997 15,3.99999997 Z M8.99999998,3.99999997 C9.54999999,3.99999997 9.99999998,4.44999997 9.99999998,4.99999997 C9.99999998,5.54999997 9.54999999,5.99999997 8.99999998,5.99999997 C8.44999999,5.99999997 7.99999998,5.54999997 7.99999998,4.99999997 C7.99999998,4.44999997 8.44999999,3.99999997 8.99999998,3.99999997 Z M19,19 L4.99999997,19 C4.44999997,19 3.99999997,18.55 3.99999997,18 L3.99999997,17 L20,17 L20,18 C20,18.55 19.55,19 19,19 Z M20,14 L3.99999997,14 L3.99999997,8.99999999 C3.99999997,8.44999999 4.44999997,7.99999998 4.99999997,7.99999998 L9.07999999,7.99999998 L7.59999998,10.02 C7.26999998,10.47 7.36999998,11.1 7.81999998,11.42 C8.25999998,11.74 8.88999999,11.64 9.20999999,11.2 L12,7.39999998 L14.79,11.2 C15.11,11.64 15.74,11.74 16.18,11.42 C16.63,11.1 16.73,10.47 16.4,10.02 L14.92,7.99999998 L19,7.99999998 C19.55,7.99999998 20,8.44999999 20,8.99999999 L20,14 Z" id="path-1"></path>
    </defs>
    <g id="redeem" stroke="none" stroke-width="1" fill="none" fill-rule="evenodd">
        <mask id="mask-2" fill="white">
            <use xlink:href="#path-1"></use>
        </mask>
        <use id="Combined-Shape" fill="#000000" xlink:href="#path-1"></use>
    </g>
</svg>