<?xml version="1.0" encoding="UTF-8"?>
<svg width="24px" height="24px" viewBox="0 0 24 24" version="1.1" xmlns="http://www.w3.org/2000/svg" xmlns:xlink="http://www.w3.org/1999/xlink">
    <title>rule</title>
    <defs>
        <path d="M15.83,10.29 L13.71,8.16999998 C13.32,7.77999998 13.32,7.14999998 13.71,6.75999998 L13.71,6.75999998 C14.1,6.36999998 14.73,6.36999998 15.12,6.75999998 L16.53,8.16999998 L20.07,4.62999997 C20.46,4.23999997 21.09,4.23999997 21.48,4.62999997 L21.48,4.62999997 C21.87,5.01999997 21.87,5.64999997 21.48,6.03999998 L17.24,10.28 C16.85,10.68 16.22,10.68 15.83,10.29 Z M9.99999996,6.99999998 L2.99999996,6.99999998 C2.44999996,6.99999998 1.99999996,7.44999998 1.99999996,7.99999998 L1.99999996,7.99999998 C1.99999996,8.54999999 2.44999996,8.99999998 2.99999996,8.99999998 L9.99999996,8.99999998 C10.55,8.99999998 11,8.54999999 11,7.99999998 L11,7.99999998 C11,7.44999998 10.55,6.99999998 9.99999996,6.99999998 Z M20.29,12.71 L20.29,12.71 C19.9,12.32 19.27,12.32 18.88,12.71 L17,14.59 L15.12,12.71 C14.73,12.32 14.1,12.32 13.71,12.71 L13.71,12.71 C13.32,13.1 13.32,13.73 13.71,14.12 L15.59,16 L13.71,17.88 C13.32,18.27 13.32,18.9 13.71,19.29 L13.71,19.29 C14.1,19.68 14.73,19.68 15.12,19.29 L17,17.41 L18.88,19.29 C19.27,19.68 19.9,19.68 20.29,19.29 L20.29,19.29 C20.68,18.9 20.68,18.27 20.29,17.88 L18.41,16 L20.29,14.12 C20.68,13.73 20.68,13.1 20.29,12.71 Z M9.99999996,15 L2.99999996,15 C2.44999996,15 1.99999996,15.45 1.99999996,16 L1.99999996,16 C1.99999996,16.55 2.44999996,17 2.99999996,17 L9.99999996,17 C10.55,17 11,16.55 11,16 L11,16 C11,15.45 10.55,15 9.99999996,15 Z" id="path-1"></path>
    </defs>
    <g id="rule" stroke="none" stroke-width="1" fill="none" fill-rule="evenodd">
        <mask id="mask-2" fill="white">
            <use xlink:href="#path-1"></use>
        </mask>
        <use id="Combined-Shape" fill="#000000" xlink:href="#path-1"></use>
    </g>
</svg>