<?xml version="1.0" encoding="UTF-8"?>
<svg width="24px" height="24px" viewBox="0 0 24 24" version="1.1" xmlns="http://www.w3.org/2000/svg" xmlns:xlink="http://www.w3.org/1999/xlink">
    <title>search_off</title>
    <defs>
        <path d="M3.02999996,8.99999999 C3.29999996,5.37999997 6.53999998,2.57999996 10.33,3.04999996 C13.12,3.39999996 15.44,5.60999997 15.91,8.38999998 C16.25,10.42 15.63,12.33 14.43,13.73 L14.43,13.73 L14.71,14 L15.5,14 L19.74,18.26 C20.15,18.67 20.15,19.34 19.74,19.75 L19.74,19.75 L19.6410059,19.8373373 C19.2284616,20.157574 18.6284616,20.1284616 18.25,19.75 L18.25,19.75 L14,15.5 L14,14.71 L13.73,14.43 C12.48,15.51 10.81,16.11 9.00999999,15.98 L9.00999999,15.98 L8.99999999,15.97 L8.99999999,13.95 C9.16999999,13.97 9.32999999,14 9.49999999,14 C11.99,14 14,11.99 14,9.49999999 C14,6.94999998 11.65,4.79999997 9.10999999,5.01999997 C6.96999998,5.19999997 5.28999997,6.87999998 5.04999997,8.99999999 L5.04999997,8.99999999 Z M1.24043891,11.1107407 C1.43753082,10.9724691 1.70222218,10.9922222 1.87999996,11.17 L1.87999996,11.17 L3.99999997,13.29 L6.11999998,11.17 C6.31999998,10.98 6.62999998,10.98 6.82999998,11.17 L6.82999998,11.17 L6.88925924,11.240439 C7.02753084,11.4375309 7.00777776,11.7022222 6.82999998,11.88 L6.82999998,11.88 L4.70999997,14 L6.82999998,16.12 C7.02999998,16.32 7.02999998,16.63 6.82999998,16.83 L6.82999998,16.83 L6.75956102,16.8892593 C6.56246911,17.0275309 6.29777775,17.0077778 6.11999998,16.83 L6.11999998,16.83 L3.99999997,14.71 L1.87999996,16.83 C1.67999996,17.03 1.36999996,17.03 1.16999995,16.83 L1.16999995,16.83 L1.1107407,16.7595611 C0.97246909,16.5624692 0.992222176,16.2977778 1.16999995,16.12 L1.16999995,16.12 L3.28999996,14 L1.16999995,11.88 C0.969999954,11.68 0.969999954,11.37 1.16999995,11.17 L1.16999995,11.17 Z" id="path-1"></path>
    </defs>
    <g id="search_off" stroke="none" stroke-width="1" fill="none" fill-rule="evenodd">
        <mask id="mask-2" fill="white">
            <use xlink:href="#path-1"></use>
        </mask>
        <use id="Combined-Shape" fill="#000000" xlink:href="#path-1"></use>
    </g>
</svg>