<?xml version="1.0" encoding="UTF-8"?>
<svg width="24px" height="24px" viewBox="0 0 24 24" version="1.1" xmlns="http://www.w3.org/2000/svg" xmlns:xlink="http://www.w3.org/1999/xlink">
    <title>settings</title>
    <defs>
        <path d="M19.43,12.98 C19.47,12.66 19.5,12.34 19.5,12 C19.5,11.66 19.47,11.34 19.43,11.02 L21.54,9.36999999 C21.73,9.21999999 21.78,8.94999999 21.66,8.72999999 L19.66,5.26999997 C19.54,5.04999997 19.27,4.96999997 19.05,5.04999997 L16.56,6.04999998 C16.04,5.64999997 15.48,5.31999997 14.87,5.06999997 L14.49,2.41999996 C14.46,2.17999996 14.25,1.99999996 14,1.99999996 L9.99999999,1.99999996 C9.74999999,1.99999996 9.53999999,2.17999996 9.50999999,2.41999996 L9.12999999,5.06999997 C8.51999999,5.31999997 7.95999998,5.65999997 7.43999998,6.04999998 L4.94999997,5.04999997 C4.71999997,4.95999997 4.45999997,5.04999997 4.33999997,5.26999997 L2.33999996,8.72999999 C2.20999996,8.94999999 2.26999996,9.21999999 2.45999996,9.36999999 L4.56999997,11.02 C4.52999997,11.34 4.49999997,11.67 4.49999997,12 C4.49999997,12.33 4.52999997,12.66 4.56999997,12.98 L2.45999996,14.63 C2.26999996,14.78 2.21999996,15.05 2.33999996,15.27 L4.33999997,18.73 C4.45999997,18.95 4.72999997,19.03 4.94999997,18.95 L7.43999998,17.95 C7.95999998,18.35 8.51999999,18.68 9.12999999,18.93 L9.50999999,21.58 C9.53999999,21.82 9.74999999,22 9.99999999,22 L14,22 C14.25,22 14.46,21.82 14.49,21.58 L14.87,18.93 C15.48,18.68 16.04,18.34 16.56,17.95 L19.05,18.95 C19.28,19.04 19.54,18.95 19.66,18.73 L21.66,15.27 C21.78,15.05 21.73,14.78 21.54,14.63 L19.43,12.98 Z M12,15.5 C10.07,15.5 8.49999999,13.93 8.49999999,12 C8.49999999,10.07 10.07,8.49999999 12,8.49999999 C13.93,8.49999999 15.5,10.07 15.5,12 C15.5,13.93 13.93,15.5 12,15.5 Z" id="path-1"></path>
    </defs>
    <g id="settings" stroke="none" stroke-width="1" fill="none" fill-rule="evenodd">
        <mask id="mask-2" fill="white">
            <use xlink:href="#path-1"></use>
        </mask>
        <use id="Combined-Shape" fill="#000000" xlink:href="#path-1"></use>
    </g>
</svg>