<?xml version="1.0" encoding="UTF-8"?>
<svg width="24px" height="24px" viewBox="0 0 24 24" version="1.1" xmlns="http://www.w3.org/2000/svg" xmlns:xlink="http://www.w3.org/1999/xlink">
    <title>settings_remote</title>
    <defs>
        <path d="M15,8.99999999 L8.99999998,8.99999999 C8.44999999,8.99999999 7.99999998,9.44999999 7.99999998,9.99999999 L7.99999998,22 C7.99999998,22.55 8.44999999,23 8.99999998,23 L15,23 C15.55,23 16,22.55 16,22 L16,9.99999999 C16,9.44999999 15.55,8.99999999 15,8.99999999 Z M12,15 C10.9,15 9.99999999,14.1 9.99999999,13 C9.99999999,11.9 10.9,11 12,11 C13.1,11 14,11.9 14,13 C14,14.1 13.1,15 12,15 Z M7.81999998,6.81999998 C8.16999998,7.16999998 8.71999999,7.19999998 9.11999999,6.91999998 C9.92999999,6.33999998 10.93,5.99999997 12,5.99999997 C13.07,5.99999997 14.07,6.33999998 14.88,6.90999998 C15.28,7.18999998 15.83,7.16999998 16.18,6.81999998 C16.61,6.38999998 16.57,5.67999997 16.09,5.31999997 C14.94,4.48999997 13.53,3.99999997 12,3.99999997 C10.47,3.99999997 9.05999999,4.48999997 7.90999998,5.31999997 C7.41999998,5.66999997 7.38999998,6.38999998 7.81999998,6.81999998 Z M12,-5.00006454e-08 C9.35999999,-5.00006454e-08 6.93999998,0.929999954 5.04999997,2.46999996 C4.58999997,2.84999996 4.54999997,3.53999996 4.96999997,3.95999997 C5.32999997,4.31999997 5.89999997,4.34999997 6.28999998,4.02999997 C7.83999998,2.76999996 9.82999999,1.99999995 12,1.99999995 C14.17,1.99999995 16.16,2.76999996 17.7,4.03999997 C18.09,4.35999997 18.66,4.32999997 19.02,3.96999997 C19.44,3.54999996 19.4,2.85999996 18.94,2.47999996 C17.06,0.929999954 14.64,-5.00006454e-08 12,-5.00006454e-08 Z" id="path-1"></path>
    </defs>
    <g id="settings_remote" stroke="none" stroke-width="1" fill="none" fill-rule="evenodd">
        <mask id="mask-2" fill="white">
            <use xlink:href="#path-1"></use>
        </mask>
        <use id="Combined-Shape" fill="#000000" xlink:href="#path-1"></use>
    </g>
</svg>