<?xml version="1.0" encoding="UTF-8"?>
<svg width="24px" height="24px" viewBox="0 0 24 24" version="1.1" xmlns="http://www.w3.org/2000/svg" xmlns:xlink="http://www.w3.org/1999/xlink">
    <title>speaker_notes_off</title>
    <defs>
        <path d="M1.90999996,2.35999996 C1.55999996,2.00999996 0.989999954,2.00999996 0.639999953,2.35999996 C0.289999951,2.70999996 0.289999951,3.27999996 0.639999953,3.62999997 L2.01999996,5.00999997 L1.99999996,22 L5.99999997,18 L15,18 L20.09,23.09 C20.44,23.44 21.01,23.44 21.36,23.09 C21.71,22.74 21.71,22.17 21.36,21.82 L1.90999996,2.35999996 Z M6.99999997,14 C6.44999998,14 5.99999997,13.55 5.99999997,13 C5.99999997,12.45 6.44999998,12 6.99999997,12 C7.54999998,12 7.99999997,12.45 7.99999997,13 C7.99999997,13.55 7.54999998,14 6.99999997,14 Z M6.99999997,11 C6.44999998,11 5.99999997,10.55 5.99999997,9.99999999 C5.99999997,9.44999999 6.44999998,8.99999999 6.99999997,8.99999999 C7.54999998,8.99999999 7.99999997,9.44999999 7.99999997,9.99999999 C7.99999997,10.55 7.54999998,11 6.99999997,11 Z M20,1.99999996 L4.07999997,1.99999996 L11.08,8.99999996 L17,8.99999996 C17.55,8.99999996 18,9.44999999 18,9.99999996 C18,10.55 17.55,11 17,11 L13.08,11 L20.07,17.99 C21.14,17.95 22,17.08 22,16 L22,3.99999996 C22,2.89999996 21.1,1.99999996 20,1.99999996 Z M17,7.99999997 L11,7.99999997 C10.45,7.99999997 9.99999999,7.54999998 9.99999999,6.99999997 C9.99999999,6.44999998 10.45,5.99999997 11,5.99999997 L17,5.99999997 C17.55,5.99999997 18,6.44999998 18,6.99999997 C18,7.54999998 17.55,7.99999997 17,7.99999997 Z" id="path-1"></path>
    </defs>
    <g id="speaker_notes_off" stroke="none" stroke-width="1" fill="none" fill-rule="evenodd">
        <mask id="mask-2" fill="white">
            <use xlink:href="#path-1"></use>
        </mask>
        <use id="Combined-Shape" fill="#000000" xlink:href="#path-1"></use>
    </g>
</svg>