<?xml version="1.0" encoding="UTF-8"?>
<svg width="24px" height="24px" viewBox="0 0 24 24" version="1.1" xmlns="http://www.w3.org/2000/svg" xmlns:xlink="http://www.w3.org/1999/xlink">
    <title>translate</title>
    <defs>
        <path d="M12.65,15.67 C12.79,15.31 12.7,14.9 12.42,14.62 L10.33,12.56 L10.36,12.53 C12.1,10.59 13.34,8.35999998 14.07,5.99999996 L16.01,5.99999996 C16.55,5.99999996 17,5.54999997 17,5.00999997 L17,4.98999997 C17,4.44999997 16.55,3.99999996 16.01,3.99999996 L9.99999995,3.99999996 L9.99999995,2.99999996 C9.99999995,2.44999996 9.54999999,1.99999996 8.99999995,1.99999996 C8.44999999,1.99999996 7.99999995,2.44999996 7.99999995,2.99999996 L7.99999995,3.99999996 L1.98999996,3.99999996 C1.44999996,3.99999996 0.999999954,4.44999997 0.999999954,4.98999997 C0.999999954,5.53999997 1.44999996,5.97999997 1.98999996,5.97999997 L12.17,5.97999997 C11.5,7.91999998 10.44,9.74999999 8.99999995,11.35 C8.18999998,10.46 7.50999998,9.48999999 6.93999998,8.46999999 C6.77999998,8.17999998 6.48999998,7.99999996 6.15999998,7.99999996 C5.46999997,7.99999996 5.02999997,8.74999999 5.36999997,9.34999999 C5.99999995,10.48 6.76999998,11.56 7.66999998,12.56 L3.29999996,16.87 C2.89999996,17.26 2.89999996,17.9 3.29999996,18.29 C3.68999997,18.68 4.31999997,18.68 4.71999997,18.29 L8.99999995,14 L11.02,16.02 C11.53,16.53 12.4,16.34 12.65,15.67 Z M17.5,9.99999999 C16.9,9.99999999 16.36,10.37 16.15,10.94 L12.48,20.74 C12.24,21.35 12.7,22 13.35,22 C13.74,22 14.09,21.76 14.23,21.39 L15.12,19 L19.87,19 L20.77,21.39 C20.91,21.75 21.26,22 21.65,22 C22.3,22 22.76,21.35 22.53,20.74 L18.86,10.94 C18.64,10.37 18.1,9.99999999 17.5,9.99999999 L17.5,9.99999999 Z M15.88,17 L17.5,12.67 L19.12,17 L15.88,17 L15.88,17 Z" id="path-1"></path>
    </defs>
    <g id="translate" stroke="none" stroke-width="1" fill="none" fill-rule="evenodd">
        <mask id="mask-2" fill="white">
            <use xlink:href="#path-1"></use>
        </mask>
        <use id="Combined-Shape" fill="#000000" xlink:href="#path-1"></use>
    </g>
</svg>