<?xml version="1.0" encoding="UTF-8"?>
<svg width="24px" height="24px" viewBox="0 0 24 24" version="1.1" xmlns="http://www.w3.org/2000/svg" xmlns:xlink="http://www.w3.org/1999/xlink">
    <title>verified_user</title>
    <defs>
        <path d="M11.19,1.35999996 L4.18999997,4.46999997 C3.46999996,4.78999997 2.99999996,5.50999997 2.99999996,6.29999998 L2.99999996,11 C2.99999996,16.55 6.83999998,21.74 12,23 C17.16,21.74 21,16.55 21,11 L21,6.29999998 C21,5.50999997 20.53,4.78999997 19.81,4.46999997 L12.81,1.35999996 C12.3,1.12999995 11.7,1.12999995 11.19,1.35999996 Z M9.28999999,16.29 L6.69999998,13.7 C6.30999998,13.31 6.30999998,12.68 6.69999998,12.29 C7.08999998,11.9 7.71999998,11.9 8.10999998,12.29 L9.99999999,14.17 L15.88,8.28999998 C16.27,7.89999998 16.9,7.89999998 17.29,8.28999998 C17.68,8.67999999 17.68,9.30999999 17.29,9.69999999 L10.7,16.29 C10.32,16.68 9.67999999,16.68 9.28999999,16.29 Z" id="path-1"></path>
    </defs>
    <g id="verified_user" stroke="none" stroke-width="1" fill="none" fill-rule="evenodd">
        <mask id="mask-2" fill="white">
            <use xlink:href="#path-1"></use>
        </mask>
        <use id="Combined-Shape" fill="#000000" xlink:href="#path-1"></use>
    </g>
</svg>