<?xml version="1.0" encoding="UTF-8"?>
<svg width="24px" height="24px" viewBox="0 0 24 24" version="1.1" xmlns="http://www.w3.org/2000/svg" xmlns:xlink="http://www.w3.org/1999/xlink">
    <title>view_day</title>
    <defs>
        <path d="M2.99999996,21 L20,21 C20.55,21 21,20.55 21,20 L21,19 C21,18.45 20.55,18 20,18 L2.99999996,18 C2.44999996,18 1.99999996,18.45 1.99999996,19 L1.99999996,20 C1.99999996,20.55 2.44999996,21 2.99999996,21 Z M20,7.99999998 L2.99999996,7.99999998 C2.44999996,7.99999998 1.99999996,8.44999999 1.99999996,8.99999998 L1.99999996,15 C1.99999996,15.55 2.44999996,16 2.99999996,16 L20,16 C20.55,16 21,15.55 21,15 L21,8.99999998 C21,8.44999999 20.55,7.99999998 20,7.99999998 Z M1.99999996,3.99999996 L1.99999996,4.99999996 C1.99999996,5.54999997 2.44999996,5.99999996 2.99999996,5.99999996 L20,5.99999996 C20.55,5.99999996 21,5.54999997 21,4.99999996 L21,3.99999996 C21,3.44999996 20.55,2.99999996 20,2.99999996 L2.99999996,2.99999996 C2.44999996,2.99999996 1.99999996,3.44999996 1.99999996,3.99999996 Z" id="path-1"></path>
    </defs>
    <g id="view_day" stroke="none" stroke-width="1" fill="none" fill-rule="evenodd">
        <mask id="mask-2" fill="white">
            <use xlink:href="#path-1"></use>
        </mask>
        <use id="Combined-Shape" fill="#000000" xlink:href="#path-1"></use>
    </g>
</svg>