<?xml version="1.0" encoding="UTF-8"?>
<svg width="24px" height="24px" viewBox="0 0 24 24" version="1.1" xmlns="http://www.w3.org/2000/svg" xmlns:xlink="http://www.w3.org/1999/xlink">
    <title>view_list</title>
    <defs>
        <path d="M3.99999996,14 L5.99999996,14 C6.54999998,14 6.99999996,13.55 6.99999996,13 L6.99999996,11 C6.99999996,10.45 6.54999998,9.99999999 5.99999996,9.99999999 L3.99999996,9.99999999 C3.44999996,9.99999999 2.99999996,10.45 2.99999996,11 L2.99999996,13 C2.99999996,13.55 3.44999996,14 3.99999996,14 Z M3.99999996,19 L5.99999996,19 C6.54999998,19 6.99999996,18.55 6.99999996,18 L6.99999996,16 C6.99999996,15.45 6.54999998,15 5.99999996,15 L3.99999996,15 C3.44999996,15 2.99999996,15.45 2.99999996,16 L2.99999996,18 C2.99999996,18.55 3.44999996,19 3.99999996,19 Z M3.99999996,8.99999997 L5.99999996,8.99999997 C6.54999998,8.99999997 6.99999996,8.54999999 6.99999996,7.99999997 L6.99999996,5.99999997 C6.99999996,5.44999997 6.54999998,4.99999997 5.99999996,4.99999997 L3.99999996,4.99999997 C3.44999996,4.99999997 2.99999996,5.44999997 2.99999996,5.99999997 L2.99999996,7.99999997 C2.99999996,8.54999999 3.44999996,8.99999997 3.99999996,8.99999997 Z M8.99999998,14 L19,14 C19.55,14 20,13.55 20,13 L20,11 C20,10.45 19.55,9.99999999 19,9.99999999 L8.99999998,9.99999999 C8.44999999,9.99999999 7.99999998,10.45 7.99999998,11 L7.99999998,13 C7.99999998,13.55 8.44999999,14 8.99999998,14 Z M8.99999998,19 L19,19 C19.55,19 20,18.55 20,18 L20,16 C20,15.45 19.55,15 19,15 L8.99999998,15 C8.44999999,15 7.99999998,15.45 7.99999998,16 L7.99999998,18 C7.99999998,18.55 8.44999999,19 8.99999998,19 Z M7.99999998,5.99999997 L7.99999998,7.99999997 C7.99999998,8.54999999 8.44999999,8.99999997 8.99999998,8.99999997 L19,8.99999997 C19.55,8.99999997 20,8.54999999 20,7.99999997 L20,5.99999997 C20,5.44999997 19.55,4.99999997 19,4.99999997 L8.99999998,4.99999997 C8.44999999,4.99999997 7.99999998,5.44999997 7.99999998,5.99999997 Z" id="path-1"></path>
    </defs>
    <g id="view_list" stroke="none" stroke-width="1" fill="none" fill-rule="evenodd">
        <mask id="mask-2" fill="white">
            <use xlink:href="#path-1"></use>
        </mask>
        <use id="Combined-Shape" fill="#000000" xlink:href="#path-1"></use>
    </g>
</svg>