<?xml version="1.0" encoding="UTF-8"?>
<svg width="24px" height="24px" viewBox="0 0 24 24" version="1.1" xmlns="http://www.w3.org/2000/svg" xmlns:xlink="http://www.w3.org/1999/xlink">
    <title>view_agenda</title>
    <defs>
        <path d="M20,13 L2.99999996,13 C2.44999996,13 1.99999996,13.45 1.99999996,14 L1.99999996,20 C1.99999996,20.55 2.44999996,21 2.99999996,21 L20,21 C20.55,21 21,20.55 21,20 L21,14 C21,13.45 20.55,13 20,13 Z M20,2.99999996 L2.99999996,2.99999996 C2.44999996,2.99999996 1.99999996,3.44999996 1.99999996,3.99999996 L1.99999996,9.99999996 C1.99999996,10.55 2.44999996,11 2.99999996,11 L20,11 C20.55,11 21,10.55 21,9.99999996 L21,3.99999996 C21,3.44999996 20.55,2.99999996 20,2.99999996 Z" id="path-1"></path>
    </defs>
    <g id="view_agenda" stroke="none" stroke-width="1" fill="none" fill-rule="evenodd">
        <mask id="mask-2" fill="white">
            <use xlink:href="#path-1"></use>
        </mask>
        <use id="Combined-Shape" fill="#000000" xlink:href="#path-1"></use>
    </g>
</svg>