<?xml version="1.0" encoding="UTF-8"?>
<svg width="24px" height="24px" viewBox="0 0 24 24" version="1.1" xmlns="http://www.w3.org/2000/svg" xmlns:xlink="http://www.w3.org/1999/xlink">
    <title>voice_over_off</title>
    <defs>
        <path d="M15.72,6.40999998 C15.37,6.75999998 15.28,7.28999998 15.47,7.75999998 C15.77,8.50999999 15.79,9.33999999 15.52,10.1 C15.36,10.56 15.46,11.08 15.81,11.42 C16.41,12.02 17.47,11.89 17.83,11.11 C18.47,9.71999999 18.43,8.11999998 17.71,6.69999998 C17.31,5.94999997 16.3,5.81999997 15.72,6.40999998 Z M19.18,2.88999996 C18.78,3.28999996 18.72,3.90999997 19.05,4.36999997 C20.98,7.04999998 21,10.62 19.14,13.44 C18.83,13.9 18.91,14.52 19.3,14.91 C19.81,15.42 20.68,15.37 21.11,14.78 C23.68,11.27 23.63,6.57999998 20.94,3.00999996 C20.51,2.44999996 19.68,2.38999996 19.18,2.88999996 L19.18,2.88999996 Z M9.42999999,5.03999997 L12.96,8.56999999 C12.76,6.70999998 11.29,5.23999997 9.42999999,5.03999997 L9.42999999,5.03999997 Z M3.70999997,3.55999996 C3.31999996,3.94999997 3.31999996,4.57999997 3.70999997,4.96999997 L5.61999997,6.87999998 C5.05999997,7.76999998 4.82999997,8.88999999 5.14999997,10.08 C5.50999997,11.41 6.58999998,12.48 7.91999998,12.85 C9.10999999,13.18 10.23,12.94 11.12,12.38 L15.52,16.78 C13.74,15.6 10.78,15 8.99999995,15 C6.32999998,15 0.999999954,16.34 0.999999954,19 L0.999999954,20 C0.999999954,20.55 1.44999996,21 1.99999995,21 L16,21 C16.55,21 17,20.55 17,20 L17,19 C17,18.63 16.89,18.3 16.71,17.98 L19.02,20.29 C19.41,20.68 20.04,20.68 20.43,20.29 C20.82,19.9 20.82,19.27 20.43,18.88 L5.11999997,3.55999996 C4.72999997,3.16999996 4.09999997,3.16999996 3.70999997,3.55999996 Z" id="path-1"></path>
    </defs>
    <g id="voice_over_off" stroke="none" stroke-width="1" fill="none" fill-rule="evenodd">
        <mask id="mask-2" fill="white">
            <use xlink:href="#path-1"></use>
        </mask>
        <use id="Combined-Shape" fill="#000000" xlink:href="#path-1"></use>
    </g>
</svg>