<?xml version="1.0" encoding="UTF-8"?>
<svg width="24px" height="24px" viewBox="0 0 24 24" version="1.1" xmlns="http://www.w3.org/2000/svg" xmlns:xlink="http://www.w3.org/1999/xlink">
    <title>youtube_searched_for</title>
    <defs>
        <path d="M5.09908643,9.99295025 C5.09908643,6.02295024 8.84908645,2.69295022 13.0890865,3.67295023 C15.6890865,4.27295023 17.6990865,6.49295024 18.0390865,9.13295025 C18.2890865,11.0829503 17.6790865,12.8829503 16.5290865,14.2229503 L16.6161995,14.1168684 C16.6488904,14.1422872 16.6803665,14.1700167 16.7104068,14.200057 L20.9530475,18.4426977 C21.3435718,18.833222 21.3435718,19.466387 20.9530475,19.8569113 C20.5625232,20.2474356 19.9293582,20.2474356 19.5388339,19.8569113 L15.2961932,15.6142706 C15.2387632,15.5568406 15.1897788,15.4941631 15.1492399,15.4277816 C14.1269452,16.1021656 12.9093801,16.4929503 11.5990865,16.4929503 C10.9490865,16.4929503 10.3190865,16.3929503 9.72908645,16.2229503 C9.01908645,16.0129503 8.80908645,15.0929503 9.33908645,14.5629503 C9.58908645,14.3029503 9.95908645,14.2029503 10.2990865,14.3029503 C10.7090865,14.4229503 11.1490865,14.4929503 11.5990865,14.4929503 C14.0790865,14.4929503 16.0990865,12.4629503 16.0990865,9.98295025 C16.0990865,7.54295024 13.9990865,5.47295024 11.5590865,5.49295024 C9.09908645,5.51295024 7.09908644,7.50295024 7.09908644,9.99295025 L7.09908644,9.99295025 L9.34908645,9.99295025 C9.79908645,9.99295025 10.0190865,10.5429503 9.69908645,10.8529503 L9.69908645,10.8529503 L6.79908644,13.6429503 C6.59908644,13.8429503 6.27908644,13.8329503 6.08908644,13.6329503 L6.08908644,13.6329503 L2.68908642,10.8829503 C2.31908642,10.5829503 2.52908642,9.99295025 2.99908643,9.99295025 L2.99908643,9.99295025 Z" id="path-1"></path>
    </defs>
    <g id="youtube_searched_for" stroke="none" stroke-width="1" fill="none" fill-rule="evenodd">
        <mask id="mask-2" fill="white">
            <use xlink:href="#path-1"></use>
        </mask>
        <use id="Combined-Shape" fill="#000000" xlink:href="#path-1"></use>
    </g>
</svg>