<?xml version="1.0" encoding="UTF-8"?>
<svg width="24px" height="24px" viewBox="0 0 24 24" version="1.1" xmlns="http://www.w3.org/2000/svg" xmlns:xlink="http://www.w3.org/1999/xlink">
    <title>zoom_in</title>
    <defs>
        <path d="M10.5,3 C14.6421356,3 18,6.35786438 18,10.5 C18,12.2106044 17.4273178,13.7874516 16.4632192,15.0492761 L20.363961,18.9497475 C20.7544853,19.3402718 20.7544853,19.9734367 20.363961,20.363961 C19.9734367,20.7544853 19.3402718,20.7544853 18.9497475,20.363961 L15.0492761,16.4632192 C13.7874516,17.4273178 12.2106044,18 10.5,18 C6.35786438,18 3,14.6421356 3,10.5 C3,6.35786438 6.35786438,3 10.5,3 Z M10.5,5 C7.46243388,5 5,7.46243388 5,10.5 C5,13.5375661 7.46243388,16 10.5,16 C13.5375661,16 16,13.5375661 16,10.5 C16,7.46243388 13.5375661,5 10.5,5 Z M10.5,6.99999998 C10.108,6.99999998 9.79999998,7.30799998 9.79999998,7.69999998 L9.79999998,9.79999998 L7.69999998,9.79999998 C7.30799998,9.79999998 6.99999998,10.108 6.99999998,10.5 C6.99999998,10.892 7.30799998,11.2 7.69999998,11.2 L9.79999998,11.2 L9.79999998,13.3 C9.79999998,13.692 10.108,14 10.5,14 C10.892,14 11.2,13.692 11.2,13.3 L11.2,11.2 L13.3,11.2 C13.692,11.2 14,10.892 14,10.5 C14,10.108 13.692,9.79999998 13.3,9.79999998 L11.2,9.79999998 L11.2,7.69999998 C11.2,7.30799998 10.892,6.99999998 10.5,6.99999998 Z" id="path-1"></path>
    </defs>
    <g id="zoom_in" stroke="none" stroke-width="1" fill="none" fill-rule="evenodd">
        <mask id="mask-2" fill="white">
            <use xlink:href="#path-1"></use>
        </mask>
        <use id="Combined-Shape" fill="#000000" xlink:href="#path-1"></use>
    </g>
</svg>