<?xml version="1.0" encoding="UTF-8"?>
<svg width="24px" height="24px" viewBox="0 0 24 24" version="1.1" xmlns="http://www.w3.org/2000/svg" xmlns:xlink="http://www.w3.org/1999/xlink">
    <title>add_circle_outline</title>
    <defs>
        <path d="M12,6.99999998 C11.45,6.99999998 11,7.44999998 11,7.99999998 L11,11 L7.99999998,11 C7.44999998,11 6.99999998,11.45 6.99999998,12 C6.99999998,12.55 7.44999998,13 7.99999998,13 L11,13 L11,16 C11,16.55 11.45,17 12,17 C12.55,17 13,16.55 13,16 L13,13 L16,13 C16.55,13 17,12.55 17,12 C17,11.45 16.55,11 16,11 L13,11 L13,7.99999998 C13,7.44999998 12.55,6.99999998 12,6.99999998 Z M12,1.99999996 C6.47999998,1.99999996 1.99999996,6.47999998 1.99999996,12 C1.99999996,17.52 6.47999998,22 12,22 C17.52,22 22,17.52 22,12 C22,6.47999998 17.52,1.99999996 12,1.99999996 Z M12,20 C7.58999998,20 3.99999997,16.41 3.99999997,12 C3.99999997,7.58999998 7.58999998,3.99999997 12,3.99999997 C16.41,3.99999997 20,7.58999998 20,12 C20,16.41 16.41,20 12,20 Z" id="path-1"></path>
    </defs>
    <g id="add_circle_outline" stroke="none" stroke-width="1" fill="none" fill-rule="evenodd">
        <mask id="mask-2" fill="white">
            <use xlink:href="#path-1"></use>
        </mask>
        <use id="Combined-Shape" fill="#000000" xlink:href="#path-1"></use>
    </g>
</svg>