<?xml version="1.0" encoding="UTF-8"?>
<svg width="24px" height="24px" viewBox="0 0 24 24" version="1.1" xmlns="http://www.w3.org/2000/svg" xmlns:xlink="http://www.w3.org/1999/xlink">
    <title>ballot</title>
    <defs>
        <path d="M14,9.49999998 L17,9.49999998 C17.55,9.49999998 18,9.04999999 18,8.49999998 C18,7.94999998 17.55,7.49999998 17,7.49999998 L14,7.49999998 C13.45,7.49999998 13,7.94999998 13,8.49999998 C13,9.04999999 13.45,9.49999998 14,9.49999998 Z M14,16.5 L17,16.5 C17.55,16.5 18,16.05 18,15.5 C18,14.95 17.55,14.5 17,14.5 L14,14.5 C13.45,14.5 13,14.95 13,15.5 C13,16.05 13.45,16.5 14,16.5 Z M19,21 L4.99999996,21 C3.89999997,21 2.99999996,20.1 2.99999996,19 L2.99999996,4.99999996 C2.99999996,3.89999997 3.89999997,2.99999996 4.99999996,2.99999996 L19,2.99999996 C20.1,2.99999996 21,3.89999997 21,4.99999996 L21,19 C21,20.1 20.1,21 19,21 Z M6.99999997,11 L9.99999997,11 C10.55,11 11,10.55 11,9.99999997 L11,6.99999997 C11,6.44999998 10.55,5.99999997 9.99999997,5.99999997 L6.99999997,5.99999997 C6.44999998,5.99999997 5.99999997,6.44999998 5.99999997,6.99999997 L5.99999997,9.99999997 C5.99999997,10.55 6.44999998,11 6.99999997,11 Z M6.99999998,6.99999998 L9.99999998,6.99999998 L9.99999998,9.99999998 L6.99999998,9.99999998 L6.99999998,6.99999998 Z M6.99999997,18 L9.99999997,18 C10.55,18 11,17.55 11,17 L11,14 C11,13.45 10.55,13 9.99999997,13 L6.99999997,13 C6.44999998,13 5.99999997,13.45 5.99999997,14 L5.99999997,17 C5.99999997,17.55 6.44999998,18 6.99999997,18 Z M6.99999998,14 L9.99999998,14 L9.99999998,17 L6.99999998,17 L6.99999998,14 Z" id="path-1"></path>
    </defs>
    <g id="ballot" stroke="none" stroke-width="1" fill="none" fill-rule="evenodd">
        <mask id="mask-2" fill="white">
            <use xlink:href="#path-1"></use>
        </mask>
        <use id="Combined-Shape" fill="#000000" xlink:href="#path-1"></use>
    </g>
</svg>