<?xml version="1.0" encoding="UTF-8"?>
<svg width="24px" height="24px" viewBox="0 0 24 24" version="1.1" xmlns="http://www.w3.org/2000/svg" xmlns:xlink="http://www.w3.org/1999/xlink">
    <title>biotech</title>
    <defs>
        <path d="M8.08999998,7.37999998 C8.03999998,7.57999998 7.99999997,7.78999998 7.99999997,7.99999998 C7.99999997,8.53999999 8.16999998,9.02999999 8.45999999,9.43999999 C7.58999998,9.95999999 6.99999997,10.91 6.99999997,12 C6.99999997,13.66 8.33999998,15 9.99999997,15 L9.99999997,15 L18,15 C18,16.1 17.1,17 16,17 L16,17 L13,17 L13,19 L17,19 C18.1,19 19,19.9 19,21 L19,21 L4.99999997,21 C4.99999997,19.9 5.89999997,19 6.99999997,19 L6.99999997,19 L9.99999997,19 L9.99999997,17 C7.23999998,17 4.99999997,14.76 4.99999997,12 C4.99999997,9.91999999 6.27999998,8.12999998 8.08999998,7.37999998 Z M11.54,2.33999996 C12.06,2.14999996 12.63,2.41999996 12.82,2.93999996 C13.34,2.74999996 13.91,3.01999996 14.1,3.53999996 L14.1,3.53999996 L16.16,9.18999999 C16.35,9.70999999 16.08,10.28 15.56,10.47 C15.75,10.99 15.48,11.56 14.96,11.75 C14.44,11.94 13.87,11.67 13.68,11.15 C13.16,11.34 12.59,11.07 12.4,10.55 L12.4,10.55 L12.15,9.86999999 C12.67,9.40999999 13,8.74999999 13,7.99999998 C13,6.63999998 11.91,5.53999997 10.56,5.50999997 L10.56,5.50999997 L10.34,4.89999997 C10.15,4.37999997 10.42,3.80999997 10.94,3.61999997 C10.75,3.09999996 11.02,2.52999996 11.54,2.33999996 Z M10.5,6.49999998 C11.3284271,6.49999998 12,7.17157286 12,7.99999998 C12,8.82842711 11.3284271,9.49999998 10.5,9.49999998 C9.67157287,9.49999998 8.99999999,8.82842711 8.99999999,7.99999998 C8.99999999,7.17157286 9.67157287,6.49999998 10.5,6.49999998 Z" id="path-1"></path>
    </defs>
    <g id="biotech" stroke="none" stroke-width="1" fill="none" fill-rule="evenodd">
        <mask id="mask-2" fill="white">
            <use xlink:href="#path-1"></use>
        </mask>
        <use id="Combined-Shape" fill="#000000" xlink:href="#path-1"></use>
    </g>
</svg>