<?xml version="1.0" encoding="UTF-8"?>
<svg width="24px" height="24px" viewBox="0 0 24 24" version="1.1" xmlns="http://www.w3.org/2000/svg" xmlns:xlink="http://www.w3.org/1999/xlink">
    <title>block</title>
    <defs>
        <path d="M12,1.99999996 C6.47999998,1.99999996 1.99999996,6.47999998 1.99999996,12 C1.99999996,17.52 6.47999998,22 12,22 C17.52,22 22,17.52 22,12 C22,6.47999998 17.52,1.99999996 12,1.99999996 Z M3.99999997,12 C3.99999997,7.57999998 7.57999998,3.99999997 12,3.99999997 C13.85,3.99999997 15.55,4.62999997 16.9,5.68999997 L5.68999997,16.9 C4.62999997,15.55 3.99999997,13.85 3.99999997,12 Z M12,20 C10.15,20 8.44999999,19.37 7.09999998,18.31 L18.31,7.09999998 C19.37,8.44999999 20,10.15 20,12 C20,16.42 16.42,20 12,20 Z" id="path-1"></path>
    </defs>
    <g id="block" stroke="none" stroke-width="1" fill="none" fill-rule="evenodd">
        <mask id="mask-2" fill="white">
            <use xlink:href="#path-1"></use>
        </mask>
        <use id="Combined-Shape" fill="#000000" xlink:href="#path-1"></use>
    </g>
</svg>