<?xml version="1.0" encoding="UTF-8"?>
<svg width="24px" height="24px" viewBox="0 0 24 24" version="1.1" xmlns="http://www.w3.org/2000/svg" xmlns:xlink="http://www.w3.org/1999/xlink">
    <title>calculate</title>
    <defs>
        <path d="M19,2.99999996 L4.99999996,2.99999996 C3.89999997,2.99999996 2.99999996,3.89999997 2.99999996,4.99999996 L2.99999996,19 C2.99999996,20.1 3.89999997,21 4.99999996,21 L19,21 C20.1,21 21,20.1 21,19 L21,4.99999996 C21,3.89999997 20.1,2.99999996 19,2.99999996 Z M13.56,6.52999998 L13.56,6.52999998 C13.85,6.23999998 14.33,6.23999998 14.62,6.52999998 L15.5,7.40999998 L16.38,6.52999998 C16.67,6.23999998 17.15,6.23999998 17.44,6.52999998 L17.44,6.52999998 C17.73,6.81999998 17.73,7.29999998 17.44,7.58999998 L16.56,8.46999999 L17.44,9.34999999 C17.73,9.63999999 17.73,10.12 17.44,10.41 L17.44,10.41 C17.15,10.7 16.67,10.7 16.38,10.41 L15.5,9.53999999 L14.62,10.42 C14.33,10.71 13.85,10.71 13.56,10.42 L13.56,10.42 C13.27,10.13 13.27,9.64999999 13.56,9.35999999 L14.44,8.47999999 L13.56,7.59999998 C13.26,7.29999998 13.26,6.81999998 13.56,6.52999998 Z M6.99999998,7.71999998 L10.5,7.71999998 C10.91,7.71999998 11.25,8.05999998 11.25,8.46999999 L11.25,8.46999999 C11.25,8.87999999 10.91,9.21999998 10.5,9.21999998 L6.99999998,9.21999998 C6.58999998,9.21999998 6.24999998,8.87999999 6.24999998,8.46999999 L6.24999998,8.46999999 C6.24999998,8.05999998 6.58999998,7.71999998 6.99999998,7.71999998 Z M10.75,16 L9.49999997,16 L9.49999997,17.25 C9.49999997,17.66 9.15999999,18 8.74999999,18 L8.74999999,18 C8.33999998,18 7.99999997,17.66 7.99999997,17.25 L7.99999997,16 L6.74999998,16 C6.33999998,16 5.99999997,15.66 5.99999997,15.25 L5.99999997,15.25 C5.99999997,14.84 6.33999998,14.5 6.74999998,14.5 L7.99999997,14.5 L7.99999997,13.25 C7.99999997,12.84 8.33999998,12.5 8.74999999,12.5 L8.74999999,12.5 C9.15999999,12.5 9.49999997,12.84 9.49999997,13.25 L9.49999997,14.5 L10.75,14.5 C11.16,14.5 11.5,14.84 11.5,15.25 L11.5,15.25 C11.5,15.66 11.16,16 10.75,16 Z M17.25,17.25 L13.75,17.25 C13.34,17.25 13,16.91 13,16.5 L13,16.5 C13,16.09 13.34,15.75 13.75,15.75 L17.25,15.75 C17.66,15.75 18,16.09 18,16.5 L18,16.5 C18,16.91 17.66,17.25 17.25,17.25 Z M17.25,14.75 L13.75,14.75 C13.34,14.75 13,14.41 13,14 L13,14 C13,13.59 13.34,13.25 13.75,13.25 L17.25,13.25 C17.66,13.25 18,13.59 18,14 L18,14 C18,14.41 17.66,14.75 17.25,14.75 Z" id="path-1"></path>
    </defs>
    <g id="calculate" stroke="none" stroke-width="1" fill="none" fill-rule="evenodd">
        <mask id="mask-2" fill="white">
            <use xlink:href="#path-1"></use>
        </mask>
        <use id="Combined-Shape" fill="#000000" xlink:href="#path-1"></use>
    </g>
</svg>