<?xml version="1.0" encoding="UTF-8"?>
<svg width="24px" height="24px" viewBox="0 0 24 24" version="1.1" xmlns="http://www.w3.org/2000/svg" xmlns:xlink="http://www.w3.org/1999/xlink">
    <title>content_cut</title>
    <defs>
        <path d="M9.63999999,7.63999998 C9.92999999,7.01999998 10.06,6.30999998 9.97999999,5.54999997 C9.78999999,3.81999997 8.43999999,2.34999996 6.71999998,2.05999996 C3.94999997,1.57999996 1.57999996,3.94999997 2.05999996,6.70999998 C2.35999996,8.42999999 3.81999997,9.77999999 5.54999997,9.96999999 C6.30999998,10.05 7.00999998,9.91999999 7.63999998,9.62999999 L9.99999999,12 L7.63999998,14.36 C7.01999998,14.07 6.30999998,13.94 5.54999997,14.02 C3.81999997,14.21 2.34999996,15.56 2.05999996,17.28 C1.57999996,20.05 3.94999997,22.41 6.70999998,21.93 C8.42999999,21.63 9.77999999,20.17 9.96999999,18.44 C10.05,17.68 9.91999999,16.98 9.62999999,16.35 L12,14 L19.59,21.59 C20.48,22.48 22,21.85 22,20.59 L22,20.58 C22,20.21 21.85,19.85 21.59,19.58 L9.63999999,7.63999998 Z M5.99999997,7.99999997 C4.89999997,7.99999997 3.99999997,7.10999998 3.99999997,5.99999997 C3.99999997,4.88999997 4.89999997,3.99999997 5.99999997,3.99999997 C7.09999998,3.99999997 7.99999997,4.88999997 7.99999997,5.99999997 C7.99999997,7.10999998 7.09999998,7.99999997 5.99999997,7.99999997 Z M5.99999997,20 C4.89999997,20 3.99999997,19.11 3.99999997,18 C3.99999997,16.89 4.89999997,16 5.99999997,16 C7.09999998,16 7.99999997,16.89 7.99999997,18 C7.99999997,19.11 7.09999998,20 5.99999997,20 Z M12,12.5 C11.72,12.5 11.5,12.28 11.5,12 C11.5,11.72 11.72,11.5 12,11.5 C12.28,11.5 12.5,11.72 12.5,12 C12.5,12.28 12.28,12.5 12,12.5 Z M19.59,2.40999996 L13,8.99999999 L15,11 L21.59,4.40999997 C21.85,4.14999997 22,3.78999997 22,3.40999996 L22,3.39999996 C22,2.14999996 20.48,1.51999996 19.59,2.40999996 Z" id="path-1"></path>
    </defs>
    <g id="content_cut" stroke="none" stroke-width="1" fill="none" fill-rule="evenodd">
        <mask id="mask-2" fill="white">
            <use xlink:href="#path-1"></use>
        </mask>
        <use id="Combined-Shape" fill="#000000" xlink:href="#path-1"></use>
    </g>
</svg>