<?xml version="1.0" encoding="UTF-8"?>
<svg width="24px" height="24px" viewBox="0 0 24 24" version="1.1" xmlns="http://www.w3.org/2000/svg" xmlns:xlink="http://www.w3.org/1999/xlink">
    <title>gesture</title>
    <defs>
        <path d="M3.71999997,6.03999998 C4.18999997,6.49999996 4.92999997,6.51999998 5.42999997,6.09999998 C5.79999997,5.77999997 6.11999998,5.58999997 6.29999998,5.66999997 C6.79999998,5.86999997 6.29999998,6.69999998 5.99999997,7.18999998 C5.74999997,7.60999998 3.13999996,11.08 3.13999996,13.5 C3.13999996,14.78 3.61999997,15.84 4.47999997,16.48 C5.22999997,17.04 6.21999998,17.21 7.11999998,16.94 C8.18999998,16.63 9.06999999,15.54 10.18,14.17 C11.39,12.68 13.01,10.73 14.26,10.73 C15.89,10.73 15.91,11.74 16.02,12.52 C12.24,13.16 10.64,16.19 10.64,17.89 C10.64,19.59 12.08,20.98 13.85,20.98 C15.48,20.98 18.14,19.65 18.54,14.88 L19.75,14.88 C20.44,14.88 21,14.32 21,13.63 C21,12.94 20.44,12.38 19.75,12.38 L18.53,12.38 C18.38,10.73 17.44,8.17999998 14.5,8.17999998 C12.25,8.17999998 10.32,10.09 9.55999999,11.02 C8.97999999,11.75 7.49999998,13.5 7.26999998,13.74 C7.01999998,14.04 6.58999998,14.58 6.15999998,14.58 C5.70999997,14.58 5.43999997,13.75 5.79999997,12.66 C6.14999998,11.57 7.19999998,9.79999999 7.64999998,9.13999999 C8.42999999,7.99999996 8.94999999,7.21999998 8.94999999,5.85999997 C8.94999999,3.68999997 7.30999998,2.99999996 6.43999998,2.99999996 C5.34999997,2.99999996 4.39999997,3.62999997 3.73999997,4.21999997 C3.20999996,4.69999997 3.20999996,5.53999997 3.71999997,6.03999998 Z M13.88,18.55 C13.57,18.55 13.14,18.29 13.14,17.83 C13.14,17.23 13.87,15.63 16.01,15.07 C15.71,17.76 14.58,18.55 13.88,18.55 L13.88,18.55 Z" id="path-1"></path>
    </defs>
    <g id="gesture" stroke="none" stroke-width="1" fill="none" fill-rule="evenodd">
        <mask id="mask-2" fill="white">
            <use xlink:href="#path-1"></use>
        </mask>
        <use id="Combined-Shape" fill="#000000" xlink:href="#path-1"></use>
    </g>
</svg>