<?xml version="1.0" encoding="UTF-8"?>
<svg width="24px" height="24px" viewBox="0 0 24 24" version="1.1" xmlns="http://www.w3.org/2000/svg" xmlns:xlink="http://www.w3.org/1999/xlink">
    <title>select_all</title>
    <defs>
        <path d="M2.99999996,4.99999996 L4.99999996,4.99999996 L4.99999996,2.99999996 C3.89999997,2.99999996 2.99999996,3.89999997 2.99999996,4.99999996 Z M2.99999996,13 L4.99999996,13 L4.99999996,11 L2.99999996,11 L2.99999996,13 Z M6.99999998,21 L8.99999998,21 L8.99999998,19 L6.99999998,19 L6.99999998,21 Z M2.99999996,8.99999998 L4.99999996,8.99999998 L4.99999996,6.99999998 L2.99999996,6.99999998 L2.99999996,8.99999998 Z M13,2.99999996 L11,2.99999996 L11,4.99999996 L13,4.99999996 L13,2.99999996 Z M19,2.99999996 L19,4.99999996 L21,4.99999996 C21,3.89999997 20.1,2.99999996 19,2.99999996 Z M4.99999996,21 L4.99999996,19 L2.99999996,19 C2.99999996,20.1 3.89999997,21 4.99999996,21 Z M2.99999996,17 L4.99999996,17 L4.99999996,15 L2.99999996,15 L2.99999996,17 Z M8.99999998,2.99999996 L6.99999998,2.99999996 L6.99999998,4.99999996 L8.99999998,4.99999996 L8.99999998,2.99999996 Z M11,21 L13,21 L13,19 L11,19 L11,21 Z M19,13 L21,13 L21,11 L19,11 L19,13 Z M19,21 C20.1,21 21,20.1 21,19 L19,19 L19,21 Z M19,8.99999998 L21,8.99999998 L21,6.99999998 L19,6.99999998 L19,8.99999998 Z M19,17 L21,17 L21,15 L19,15 L19,17 Z M15,21 L17,21 L17,19 L15,19 L15,21 Z M15,4.99999996 L17,4.99999996 L17,2.99999996 L15,2.99999996 L15,4.99999996 Z M7.99999998,17 L16,17 C16.55,17 17,16.55 17,16 L17,7.99999998 C17,7.44999998 16.55,6.99999998 16,6.99999998 L7.99999998,6.99999998 C7.44999998,6.99999998 6.99999998,7.44999998 6.99999998,7.99999998 L6.99999998,16 C6.99999998,16.55 7.44999998,17 7.99999998,17 Z M8.99999999,8.99999999 L15,8.99999999 L15,15 L8.99999999,15 L8.99999999,8.99999999 Z" id="path-1"></path>
    </defs>
    <g id="select_all" stroke="none" stroke-width="1" fill="none" fill-rule="evenodd">
        <mask id="mask-2" fill="white">
            <use xlink:href="#path-1"></use>
        </mask>
        <use id="Combined-Shape" fill="#000000" xlink:href="#path-1"></use>
    </g>
</svg>