<?xml version="1.0" encoding="UTF-8"?>
<svg width="24px" height="24px" viewBox="0 0 24 24" version="1.1" xmlns="http://www.w3.org/2000/svg" xmlns:xlink="http://www.w3.org/1999/xlink">
    <title>waves</title>
    <defs>
        <path d="M17,16.99 C15.65,16.99 14.8,17.41 14.05,17.79 C13.4,18.12 12.87,18.39 12,18.39 C11.1,18.39 10.6,18.14 9.94999999,17.79 C9.19999999,17.41 8.37999998,16.99 6.99999996,16.99 C5.61999997,16.99 4.79999997,17.41 4.04999997,17.79 C3.61999997,18.01 3.23999996,18.2 2.77999996,18.31 C2.32999996,18.41 1.99999996,18.77 1.99999996,19.22 L1.99999996,19.32 C1.99999996,19.92 2.55999996,20.35 3.13999996,20.23 C3.87999997,20.08 4.43999997,19.8 4.94999997,19.54 C5.59999997,19.21 6.11999998,18.94 6.99999996,18.94 C7.87999998,18.94 8.39999999,19.19 9.04999999,19.54 C9.79999999,19.92 10.62,20.34 12,20.34 C13.38,20.34 14.2,19.92 14.95,19.54 C15.6,19.21 16.13,18.94 17,18.94 C17.9,18.94 18.4,19.19 19.05,19.54 C19.57,19.8 20.13,20.09 20.88,20.24 C21.46,20.35 22,19.91 22,19.33 L22,19.24 C22,18.78 21.66,18.42 21.21,18.32 C20.75,18.22 20.38,18.03 19.95,17.8 C19.2,17.41 18.35,16.99 17,16.99 Z M17,12.54 C15.65,12.54 14.8,12.97 14.05,13.34 C13.4,13.66 12.87,13.94 12,13.94 C11.1,13.94 10.6,13.69 9.94999999,13.34 C9.19999999,12.96 8.37999998,12.54 6.99999996,12.54 C5.61999997,12.54 4.79999997,12.97 4.04999997,13.34 C3.61999997,13.55 3.23999996,13.75 2.76999996,13.86 C2.32999996,13.96 1.99999996,14.32 1.99999996,14.77 L1.99999996,14.87 C1.99999996,15.46 2.53999996,15.9 3.11999996,15.78 C3.86999997,15.63 4.42999997,15.34 4.94999997,15.09 C5.59999997,14.74 6.09999998,14.49 6.99999996,14.49 C7.89999998,14.49 8.39999999,14.74 9.04999999,15.09 C9.79999999,15.47 10.62,15.89 12,15.89 C13.38,15.89 14.2,15.46 14.95,15.09 C15.6,14.74 16.1,14.49 17,14.49 C17.9,14.49 18.4,14.74 19.05,15.09 C19.57,15.35 20.13,15.64 20.88,15.79 C21.46,15.9 22,15.46 22,14.87 L22,14.78 C22,14.32 21.66,13.96 21.21,13.86 C20.75,13.76 20.38,13.57 19.95,13.34 C19.2,12.96 18.35,12.54 17,12.54 Z M19.95,4.45999997 C19.2,4.07999997 18.37,3.65999997 17,3.65999997 C15.63,3.65999997 14.8,4.07999997 14.05,4.45999997 C13.4,4.77999997 12.87,5.05999997 12,5.05999997 C11.1,5.05999997 10.6,4.80999997 9.94999999,4.45999997 C9.19999999,4.08999997 8.37999998,3.65999997 6.99999996,3.65999997 C5.61999997,3.65999997 4.79999997,4.07999997 4.04999997,4.45999997 C3.61999997,4.67999997 3.23999996,4.86999997 2.77999996,4.97999997 C2.32999996,5.07999997 1.99999996,5.43999997 1.99999996,5.88999997 L1.99999996,5.95999997 C1.99999996,6.55999998 2.53999996,6.99999998 3.11999996,6.87999998 C3.86999997,6.72999998 4.42999997,6.43999998 4.94999997,6.18999998 C5.59999997,5.85999997 6.11999998,5.58999997 6.99999996,5.58999997 C7.87999998,5.58999997 8.39999999,5.83999997 9.04999999,6.18999998 C9.79999999,6.56999998 10.62,6.98999998 12,6.98999998 C13.38,6.98999998 14.2,6.55999998 14.95,6.18999998 C15.6,5.86999997 16.13,5.58999997 17,5.58999997 C17.9,5.58999997 18.4,5.83999997 19.05,6.18999998 C19.57,6.44999998 20.13,6.73999998 20.88,6.88999998 C21.46,6.99999998 22,6.55999998 22,5.96999997 L22,5.87999997 C22,5.41999997 21.66,5.05999997 21.21,4.95999997 C20.75,4.85999997 20.38,4.67999997 19.95,4.45999997 L19.95,4.45999997 Z M17,8.08999998 C15.65,8.08999998 14.8,8.51999999 14.05,8.88999999 C13.4,9.23999999 12.9,9.48999999 12,9.48999999 C11.1,9.48999999 10.6,9.23999999 9.94999999,8.88999999 C9.19999999,8.50999999 8.37999998,8.08999998 6.99999996,8.08999998 C5.61999997,8.08999998 4.79999997,8.51999999 4.04999997,8.88999999 C3.61999997,9.11999999 3.24999996,9.30999999 2.78999996,9.40999999 C2.33999996,9.50999999 1.99999996,9.86999999 1.99999996,10.33 L1.99999996,10.42 C1.99999996,11.01 2.53999996,11.45 3.11999996,11.33 C3.86999997,11.18 4.42999997,10.89 4.94999997,10.64 C5.59999997,10.32 6.12999998,10.04 6.99999996,10.04 C7.86999998,10.04 8.39999999,10.29 9.04999999,10.64 C9.79999999,11.02 10.62,11.44 12,11.44 C13.38,11.44 14.2,11.01 14.95,10.64 C15.6,10.32 16.13,10.04 17,10.04 C17.9,10.04 18.4,10.29 19.05,10.64 C19.57,10.9 20.13,11.19 20.88,11.34 C21.46,11.45 22,11.01 22,10.43 L22,10.34 C22,9.87999999 21.66,9.51999999 21.21,9.41999999 C20.75,9.31999999 20.38,9.12999999 19.95,8.89999999 C19.2,8.50999999 18.35,8.08999998 17,8.08999998 Z" id="path-1"></path>
    </defs>
    <g id="waves" stroke="none" stroke-width="1" fill="none" fill-rule="evenodd">
        <mask id="mask-2" fill="white">
            <use xlink:href="#path-1"></use>
        </mask>
        <use id="Combined-Shape" fill="#000000" xlink:href="#path-1"></use>
    </g>
</svg>