<?xml version="1.0" encoding="UTF-8"?>
<svg aria-hidden="true" width="250px" height="250px" viewBox="0 0 250 250" version="1.1" xmlns="http://www.w3.org/2000/svg" xmlns:xlink="http://www.w3.org/1999/xlink">
    <!-- Generator: Sketch 54.1 (76490) - https://sketchapp.com -->
    <defs>
        <rect id="a_path-1" x="0" y="0" width="125" height="250"></rect>
        <path d="M36.2898896,20.2150002 C34.1410314,16.87849 31.4474368,14.3828374 28.2091058,12.7280424 C29.0713411,14.1983554 29.5024588,15.7890173 29.5024588,17.5000278 C29.5024588,20.1160292 28.5729232,22.3535654 26.713852,24.2126366 C24.8547809,26.0717077 22.6172446,27.0012433 20.0012433,27.0012433 C17.385242,27.0012433 15.1477057,26.0717077 13.2886346,24.2126366 C11.4295634,22.3535654 10.5000278,20.1160292 10.5000278,17.5000278 C10.5000278,15.7890173 10.9311455,14.1983554 11.7933808,12.7280424 C8.55584161,14.3820456 5.86224702,16.8776982 3.71259702,20.2150002 C5.59304592,23.1136626 7.95053501,25.4216662 10.7850643,27.1390109 C13.6195936,28.8563556 16.6912574,29.7154239 20.0000557,29.7162156 C23.3088539,29.7170074 26.3805177,28.8579392 29.215047,27.1390109 C32.0495763,25.4200827 34.4070654,23.1120791 36.2875143,20.2150002 L36.2898896,20.2150002 Z M21.0202487,12.0712708 C21.0202487,11.7886097 20.9212777,11.5483081 20.7233357,11.3503661 C20.5253937,11.1524241 20.2850921,11.0534531 20.002431,11.0534531 C18.2352049,11.0534531 16.7189692,11.6860757 15.4537241,12.9513209 C14.1884789,14.2165661 13.5558563,15.7328017 13.5558563,17.5000278 C13.5558563,17.782689 13.6548273,18.0229906 13.8527692,18.2209326 C14.0507112,18.4188745 14.2910128,18.5178455 14.573674,18.5178455 C14.8563351,18.5178455 15.0966367,18.4188745 15.2945787,18.2209326 C15.4925207,18.0229906 15.5914917,17.782689 15.5914917,17.5000278 C15.5914917,16.2838722 16.0226093,15.2446768 16.8848446,14.3824415 C17.7470799,13.5202062 18.7862754,13.0890885 20.002431,13.0890885 C20.2850921,13.0890885 20.5253937,12.9901175 20.7233357,12.7921756 C20.9212777,12.5942336 21.0202487,12.353932 21.0202487,12.0712708 L21.0202487,12.0712708 Z M39.0048619,20.2150002 C39.0048619,20.6956033 38.8635313,21.1833324 38.5808702,21.6781873 C36.6014503,24.9299783 33.9399223,27.5348949 30.5962862,29.4929371 C27.2526501,31.4509792 23.7213651,32.4300003 20.002431,32.4300003 C16.2834969,32.4300003 12.7522118,31.4474163 9.4085757,29.4822482 C6.06493962,27.5170801 3.40341163,24.9157265 1.42399174,21.6781873 C1.14133058,21.1833324 1,20.6956033 1,20.2150002 C1,19.734397 1.14133058,19.2466679 1.42399174,18.751813 C3.40341163,15.5142738 6.06493962,12.9129202 9.4085757,10.9477521 C12.7522118,8.98258403 16.2834969,8 20.002431,8 C23.7213651,8 27.2526501,8.98258403 30.5962862,10.9477521 C33.9399223,12.9129202 36.6014503,15.5142738 38.5808702,18.751813 C38.8635313,19.2466679 39.0048619,19.734397 39.0048619,20.2150002 Z" id="a_path-3"></path>
        <rect id="a_path-5" x="20" y="0" width="125" height="250"></rect>
        <path d="M36.2898896,20.2150002 C34.1410314,16.87849 31.4474368,14.3828374 28.2091058,12.7280424 C29.0713411,14.1983554 29.5024588,15.7890173 29.5024588,17.5000278 C29.5024588,20.1160292 28.5729232,22.3535654 26.713852,24.2126366 C24.8547809,26.0717077 22.6172446,27.0012433 20.0012433,27.0012433 C17.385242,27.0012433 15.1477057,26.0717077 13.2886346,24.2126366 C11.4295634,22.3535654 10.5000278,20.1160292 10.5000278,17.5000278 C10.5000278,15.7890173 10.9311455,14.1983554 11.7933808,12.7280424 C8.55584161,14.3820456 5.86224702,16.8776982 3.71259702,20.2150002 C5.59304592,23.1136626 7.95053501,25.4216662 10.7850643,27.1390109 C13.6195936,28.8563556 16.6912574,29.7154239 20.0000557,29.7162156 C23.3088539,29.7170074 26.3805177,28.8579392 29.215047,27.1390109 C32.0495763,25.4200827 34.4070654,23.1120791 36.2875143,20.2150002 L36.2898896,20.2150002 Z M21.0202487,12.0712708 C21.0202487,11.7886097 20.9212777,11.5483081 20.7233357,11.3503661 C20.5253937,11.1524241 20.2850921,11.0534531 20.002431,11.0534531 C18.2352049,11.0534531 16.7189692,11.6860757 15.4537241,12.9513209 C14.1884789,14.2165661 13.5558563,15.7328017 13.5558563,17.5000278 C13.5558563,17.782689 13.6548273,18.0229906 13.8527692,18.2209326 C14.0507112,18.4188745 14.2910128,18.5178455 14.573674,18.5178455 C14.8563351,18.5178455 15.0966367,18.4188745 15.2945787,18.2209326 C15.4925207,18.0229906 15.5914917,17.782689 15.5914917,17.5000278 C15.5914917,16.2838722 16.0226093,15.2446768 16.8848446,14.3824415 C17.7470799,13.5202062 18.7862754,13.0890885 20.002431,13.0890885 C20.2850921,13.0890885 20.5253937,12.9901175 20.7233357,12.7921756 C20.9212777,12.5942336 21.0202487,12.353932 21.0202487,12.0712708 L21.0202487,12.0712708 Z M39.0048619,20.2150002 C39.0048619,20.6956033 38.8635313,21.1833324 38.5808702,21.6781873 C36.6014503,24.9299783 33.9399223,27.5348949 30.5962862,29.4929371 C27.2526501,31.4509792 23.7213651,32.4300003 20.002431,32.4300003 C16.2834969,32.4300003 12.7522118,31.4474163 9.4085757,29.4822482 C6.06493962,27.5170801 3.40341163,24.9157265 1.42399174,21.6781873 C1.14133058,21.1833324 1,20.6956033 1,20.2150002 C1,19.734397 1.14133058,19.2466679 1.42399174,18.751813 C3.40341163,15.5142738 6.06493962,12.9129202 9.4085757,10.9477521 C12.7522118,8.98258403 16.2834969,8 20.002431,8 C23.7213651,8 27.2526501,8.98258403 30.5962862,10.9477521 C33.9399223,12.9129202 36.6014503,15.5142738 38.5808702,18.751813 C38.8635313,19.2466679 39.0048619,19.734397 39.0048619,20.2150002 Z" id="a_path-7"></path>
        <linearGradient x1="0%" y1="50%" x2="100%" y2="50%" id="a_linearGradient-9">
            <stop stop-color="#EEEEEE" offset="0%"></stop>
            <stop stop-color="#00263E" offset="100%"></stop>
        </linearGradient>
    </defs>
    <g id="a_Intro-Page" stroke="none" stroke-width="1" fill="none" fill-rule="evenodd">
        <g transform="translate(-471.000000, -2127.000000)" id="a_MAIN">
            <g transform="translate(280.000000, 0.000000)">
                <g id="a_Group-7" transform="translate(190.000000, 212.000000)">
                    <g id="a_Accessible" transform="translate(1.000000, 1915.000000)">
                        <g id="a_Group-5">
                            <g id="a_Group-9">
                                <mask id="a_mask-2" fill="white">
                                    <use xlink:href="#a_path-1"></use>
                                </mask>
                                <use id="a_Rectangle" fill="#006298" xlink:href="#a_path-1"></use>
                                <g id="a_eye2" mask="url(#a_mask-2)">
                                    <g transform="translate(105.000000, 22.000000)">
                                        <mask id="a_mask-4" fill="white">
                                            <use xlink:href="#a_path-3"></use>
                                        </mask>
                                        <use id="a_Shape" stroke="none" fill="#444444" fill-rule="nonzero" xlink:href="#a_path-3"></use>
                                        <g id="a_neutral08" stroke="none" fill="none" mask="url(#a_mask-4)" fill-rule="evenodd">
                                            <rect id="a_Rectangle" fill="#FFFFFF" x="0" y="0" width="40" height="40"></rect>
                                        </g>
                                    </g>
                                </g>
                            </g>
                            <g id="a_Group-8" transform="translate(105.000000, 0.000000)">
                                <mask id="a_mask-6" fill="white">
                                    <use xlink:href="#a_path-5"></use>
                                </mask>
                                <use id="a_Rectangle" fill="#FFC72C" xlink:href="#a_path-5"></use>
                                <g id="a_eye2" mask="url(#a_mask-6)">
                                    <g transform="translate(0.000000, 22.000000)">
                                        <mask id="a_mask-8" fill="white">
                                            <use xlink:href="#a_path-7"></use>
                                        </mask>
                                        <use id="a_Shape" stroke="none" fill="#444444" fill-rule="nonzero" xlink:href="#a_path-7"></use>
                                        <g id="a_neutral01" stroke="none" fill="none" mask="url(#a_mask-8)" fill-rule="evenodd">
                                            <rect id="a_Rectangle" fill="#00263E" x="0" y="0" width="40" height="40"></rect>
                                        </g>
                                    </g>
                                </g>
                            </g>
                            <rect id="a_Rectangle" fill="url(#a_linearGradient-9)" x="85" y="212" width="80" height="3"></rect>
                            <text id="a_A" font-family="OpenSans, Open Sans" font-size="80" font-weight="normal" fill="#FFFFFF">
                                <tspan x="37" y="171">A</tspan>
                            </text>
                            <text id="a_a" font-family="OpenSans, Open Sans" font-size="80" font-weight="normal" fill="#00263E">
                                <tspan x="165" y="171">a</tspan>
                            </text>
                        </g>
                    </g>
                </g>
            </g>
        </g>
    </g>
</svg>