<?xml version="1.0" encoding="UTF-8"?>
<svg aria-hidden="true" width="366px" height="422px" viewBox="0 0 366 422" version="1.1" xmlns="http://www.w3.org/2000/svg" xmlns:xlink="http://www.w3.org/1999/xlink">
    <!-- Generator: Sketch 53.2 (72643) - https://sketchapp.com -->
    <g id="Magma-Logo" stroke="none" stroke-width="1" fill="none" fill-rule="evenodd">
        <g id="Magma-Logo-2" transform="translate(-141.000000, -51.000000)">
            <g id="Group" transform="translate(113.000000, 51.000000)">
                <polygon id="Polygon" fill="#FFFFFF" points="211 0 393.73136 105.5 393.73136 316.5 211 422 28.2686398 316.5 28.2686398 105.5"></polygon>
                <polygon id="Polygon-Copy-2" fill="#006298" points="211 16 380.740979 114 380.740979 310 211 408 41.2590209 310 41.2590209 114"></polygon>
                <polygon id="Polygon-Copy-4" fill="#E0004D" points="211 278.085938 372.080725 278.085938 372.080725 305 211 398 49.9192749 305 49.9192749 278.085938"></polygon>
                <polygon id="Polygon-Copy-10" fill="#FA6600" points="211 258.085938 372.080725 258.085938 372.080725 285 211 378 49.9192749 285 49.9192749 258.085938"></polygon>
                <polygon id="Polygon-Copy-11" fill="#F2A900" points="211 238.085938 372.080725 238.085938 372.080725 265 211 358 49.9192749 265 49.9192749 238.085938"></polygon>
                <polygon id="Polygon-Copy-12" fill="#FFC72C" points="211 218.085938 372.080725 218.085938 372.080725 245 211 338 49.9192749 245 49.9192749 218.085938"></polygon>
                <polygon id="Polygon-Copy-5" fill="#71C5E8" transform="translate(211.000000, 114.019531) scale(1, -1) translate(-211.000000, -114.019531) " points="211 82.0390625 372.080725 26.0859375 372.080725 108.953125 211 201.953125 49.9192749 108.953125 49.9192749 26.0859375"></polygon>
                <polygon id="Polygon-Copy-16" fill="#006298" transform="translate(210.999275, 211.451362) scale(1, -1) translate(-210.999275, -211.451362) " points="211.039627 105 372.079275 198.019242 372.079275 224.926441 211.039627 317.902725 49.9192749 224.926441 49.9192749 198.019242"></polygon>
                <polygon id="Polygon-Copy" fill-opacity="0.3" fill="#000000" points="211 105 211.082275 119 211.082275 305 211 398 49.9192749 305 49.9192749 197.976284"></polygon>
                <polygon id="Rectangle" fill="#00263E" transform="translate(211.074646, 135.429687) rotate(45.000000) translate(-211.074646, -135.429687) " points="189.454148 113.848182 248.338923 98.1654105 232.4077 156.868307 173.810369 172.693965"></polygon>
                <polygon id="Rectangle-Copy-3" fill="#FA6600" transform="translate(211.082275, 146.021484) rotate(45.000000) translate(-211.082275, -146.021484) " points="196.93044 131.919432 235.298784 121.774593 224.920403 159.975967 186.865767 170.268376"></polygon>
            </g>
        </g>
    </g>
</svg>