<?xml version="1.0" encoding="UTF-8"?>
<svg aria-hidden="true" width="266px" height="306px" viewBox="0 0 266 306" version="1.1" xmlns="http://www.w3.org/2000/svg" xmlns:xlink="http://www.w3.org/1999/xlink">
    <!-- Generator: Sketch 56.3 (81716) - https://sketch.com -->
    <defs>
        <path d="M97.5017103,55.6976277 C97.5017103,56.7260508 97.1260255,57.6170554 96.374656,58.3706414 C95.6232865,59.1242273 94.7322819,59.4999121 93.7016423,59.4976957 L80.4030665,59.4976957 C80.4030665,66.2666707 79.0776418,72.0061144 76.4267924,76.7160266 L88.7745199,89.1235978 C89.5258895,89.8749673 89.9015742,90.7659719 89.9015742,91.7966115 C89.9015742,92.8272512 89.5258895,93.7182557 88.7745199,94.4696253 C88.0630461,95.2209948 87.1720416,95.5966796 86.1015062,95.5966796 C85.0309709,95.5966796 84.1399663,95.2209948 83.4284925,94.4696253 L71.6725515,82.7735279 C71.4752893,82.9707901 71.1782878,83.2278959 70.7815469,83.5448453 C70.3848061,83.8617947 69.5536451,84.4258759 68.288064,85.237089 C67.0224829,86.0483022 65.7358457,86.7708581 64.4281524,87.4047569 C63.1204591,88.0386557 61.4980329,88.6127109 59.5608737,89.1269224 C57.6237145,89.641134 55.7042867,89.8982398 53.8025904,89.8982398 L53.8025904,36.7039368 L46.2024543,36.7039368 L46.2024543,89.8982398 C44.1832872,89.8982398 42.1740941,89.6311601 40.1748749,89.0970007 C38.1756556,88.5628412 36.4534901,87.9101028 35.0083782,87.1387854 C33.5632663,86.367468 32.2566812,85.5961506 31.088623,84.8248332 C29.9205647,84.0535158 29.059482,83.4107513 28.5053746,82.8965397 L27.6143701,82.0653787 L16.7494337,94.3532627 C15.9581684,95.1844237 15.0084285,95.6000042 13.9002138,95.6000042 C12.9493656,95.6000042 12.0982568,95.2830548 11.3468873,94.649156 C10.5955177,93.9376822 10.1899112,93.0566516 10.1300676,92.0060641 C10.070224,90.9554766 10.3771995,90.0356585 11.050994,89.2466096 L23.0429846,75.7685031 C20.7467639,71.2558531 19.5986535,65.8333588 19.5986535,59.5010203 L6.30007777,59.5010203 C5.27165458,59.5010203 4.38065,59.1253356 3.62706404,58.373966 C2.87347809,57.6225965 2.49779332,56.7315919 2.5,55.7009523 C2.50222618,54.6703127 2.87791094,53.7793081 3.62706404,53.0279386 C4.37621715,52.276569 5.26722172,51.9008843 6.30007777,51.9008843 L19.5986535,51.9008843 L19.5986535,34.4465036 L9.3288284,24.1766785 C8.57745887,23.4253089 8.2017741,22.5343044 8.2017741,21.5036647 C8.2017741,20.4730251 8.57745887,19.5820206 9.3288284,18.830651 C10.0801979,18.0792815 10.9712025,17.7035967 12.0018421,17.7035967 C13.0324817,17.7035967 13.9234863,18.0792815 14.6748559,18.830651 L24.944681,29.1004761 L75.0503898,29.1004761 L85.3202149,18.830651 C86.0715844,18.0792815 86.962589,17.7035967 87.9932286,17.7035967 C89.0238682,17.7035967 89.9148728,18.0792815 90.6662423,18.830651 C91.4176119,19.5820206 91.7932966,20.4730251 91.7932966,21.5036647 C91.7932966,22.5343044 91.4176119,23.4253089 90.6662423,24.1766785 L80.3964172,34.4465036 L80.3964172,51.9008843 L93.694993,51.9008843 C94.7234162,51.9008843 95.6144207,52.276569 96.3680067,53.0279386 C97.1215927,53.7793081 97.4972774,54.6703127 97.495061,55.7009523 L97.5017103,55.6976277 Z M69.0028624,21.5003401 L31.0055069,21.5003401 C31.0055069,16.2363205 32.8562253,11.7535923 36.5576623,8.05215538 C40.2590992,4.35071846 44.7418274,2.5 50.005847,2.5 C55.2698665,2.5 59.7525948,4.35071846 63.4540317,8.05215538 C67.1554686,11.7535923 69.0061871,16.2363205 69.0061871,21.5003401 L69.0028624,21.5003401 Z" id="path-1"></path>
    </defs>
    <g id="RM-Next" stroke="none" stroke-width="1" fill="none" fill-rule="evenodd">
        <g id="Magma_Logo_Mark_Full_Color" transform="translate(0.000000, 0.000000)" fill="#FFFFFF" fill-rule="nonzero">
            <polygon id="Polygon" points="132.696682 0 265.198569 76.5 265.198569 229.5 132.696682 306 0.194795684 229.5 0.194795684 76.5"></polygon>
            <path d="M132.696682,15.0659974 L12.6143611,84.3955579 L12.6143611,223.054679 L132.696682,292.38424 L252.779004,223.054679 L252.779004,84.3955579 L132.696682,15.0659974 Z" id="Polygon-Copy-2" stroke="#006298" stroke-width="6"></path>
        </g>
        <g id="bug2" transform="translate(83.000000, 103.000000)">
            <mask id="mask-2" fill="white">
                <use xlink:href="#path-1"></use>
            </mask>
            <use id="Shape" fill="#444444" fill-rule="nonzero" xlink:href="#path-1"></use>
            <g id="🎨/primary" mask="url(#mask-2)" fill="#006298" fill-rule="evenodd">
                <rect id="Rectangle" x="0" y="0" width="100" height="100"></rect>
            </g>
        </g>
    </g>
</svg>