<?xml version="1.0" encoding="UTF-8"?>
<svg width="24px" height="24px" viewBox="0 0 24 24" version="1.1" xmlns="http://www.w3.org/2000/svg" xmlns:xlink="http://www.w3.org/1999/xlink">
    <title>browser_not_supported</title>
    <defs>
        <path d="M2.58999996,3.94999997 C2.93999996,3.59999996 3.50999996,3.59999996 3.85999997,3.94999997 L3.85999997,3.94999997 L20.05,20.15 C20.4,20.5 20.4,21.07 20.05,21.42 C19.7,21.77 19.13,21.77 18.78,21.42 L18.78,21.42 L17.36,20 L4.99999997,20 C3.89999997,20 2.99999996,19.1 2.99999996,18 L2.99999996,18 L2.99999996,5.63999997 L2.58999996,5.21999997 C2.23999996,4.86999997 2.23999996,4.29999997 2.58999996,3.94999997 Z M19,3.99999997 C20.1,3.99999997 21,4.89999997 21,5.99999997 L21,5.99999997 L21,18 C21,18.15 20.98,18.3 20.95,18.45 L20.95,18.45 L19,16.5 L19,5.99999997 L8.49999998,5.99999997 L6.49999998,3.99999997 Z M4.99999997,7.63999998 L4.99999997,18 L15.36,18 L4.99999997,7.63999998 Z" id="path-1"></path>
    </defs>
    <g id="browser_not_supported" stroke="none" stroke-width="1" fill="none" fill-rule="evenodd">
        <mask id="mask-2" fill="white">
            <use xlink:href="#path-1"></use>
        </mask>
        <use id="Combined-Shape" fill="#000000" xlink:href="#path-1"></use>
    </g>
</svg>