<?xml version="1.0" encoding="UTF-8"?>
<svg width="24px" height="24px" viewBox="0 0 24 24" version="1.1" xmlns="http://www.w3.org/2000/svg" xmlns:xlink="http://www.w3.org/1999/xlink">
    <title>cast_for_education</title>
    <defs>
        <path d="M19.2,8.55999999 L14.98,6.25999998 C14.68,6.09999998 14.32,6.09999998 14.02,6.25999998 L9.79999999,8.55999999 C9.44999999,8.74999999 9.44999999,9.24999999 9.79999999,9.43999999 L14.02,11.74 C14.32,11.9 14.68,11.9 14.98,11.74 L19.2,9.43999999 C19.54,9.24999999 19.54,8.74999999 19.2,8.55999999 Z M21,2.99999996 L2.99999995,2.99999996 C1.89999996,2.99999996 0.999999954,3.89999997 0.999999954,4.99999996 L0.999999954,6.99999996 C0.999999954,7.54999998 1.44999996,7.99999996 1.99999995,7.99999996 C2.54999996,7.99999996 2.99999995,7.54999998 2.99999995,6.99999996 L2.99999995,5.99999996 C2.99999995,5.44999997 3.44999996,4.99999996 3.99999995,4.99999996 L20,4.99999996 C20.55,4.99999996 21,5.44999997 21,5.99999996 L21,18 C21,18.55 20.55,19 20,19 L15,19 C14.45,19 14,19.45 14,20 C14,20.55 14.45,21 15,21 L21,21 C22.1,21 23,20.1 23,19 L23,4.99999996 C23,3.89999997 22.1,2.99999996 21,2.99999996 Z M14.02,12.74 L11,11.09 L11,12.5 C11,12.87 11.2,13.2 11.52,13.38 L14.02,14.74 C14.32,14.9 14.68,14.9 14.98,14.74 L17.48,13.38 C17.8,13.2 18,12.86 18,12.5 L18,11.09 L14.98,12.74 C14.68,12.9 14.32,12.9 14.02,12.74 Z M0.999999954,18 L0.999999954,21 L3.99999995,21 C3.99999995,19.34 2.65999996,18 0.999999954,18 Z M2.13999996,14.09 C1.53999996,13.99 0.999999954,14.48 0.999999954,15.09 C0.999999954,15.58 1.35999996,15.99 1.84999996,16.07 C3.92999997,16.43 5.56999997,18.07 5.92999997,20.15 C6.00999998,20.64 6.41999998,21 6.90999998,21 C7.51999998,21 7.99999995,20.46 7.90999998,19.86 C7.42999998,16.9 5.08999997,14.57 2.13999996,14.09 Z M2.09999996,10.05 C1.50999996,9.99999999 0.999999954,10.46 0.999999954,11.05 C0.999999954,11.56 1.37999996,11.99 1.87999996,12.04 C6.14999998,12.45 9.54999999,15.85 9.95999999,20.12 C10.01,20.62 10.44,20.99 10.95,20.99 C11.55,20.99 12.01,20.47 11.95,19.88 C11.42,14.69 7.28999998,10.57 2.09999996,10.05 Z" id="path-1"></path>
    </defs>
    <g id="cast_for_education" stroke="none" stroke-width="1" fill="none" fill-rule="evenodd">
        <mask id="mask-2" fill="white">
            <use xlink:href="#path-1"></use>
        </mask>
        <use fill="#000000" xlink:href="#path-1"></use>
    </g>
</svg>