<?xml version="1.0" encoding="UTF-8"?>
<svg width="24px" height="24px" viewBox="0 0 24 24" version="1.1" xmlns="http://www.w3.org/2000/svg" xmlns:xlink="http://www.w3.org/1999/xlink">
    <title>developer_board</title>
    <defs>
        <path d="M22,7.99999996 C22,7.44999998 21.55,6.99999996 21,6.99999996 L20,6.99999996 L20,4.99999996 C20,3.89999997 19.1,2.99999996 18,2.99999996 L3.99999996,2.99999996 C2.89999996,2.99999996 1.99999996,3.89999997 1.99999996,4.99999996 L1.99999996,19 C1.99999996,20.1 2.89999996,21 3.99999996,21 L18,21 C19.1,21 20,20.1 20,19 L20,17 L21,17 C21.55,17 22,16.55 22,16 C22,15.45 21.55,15 21,15 L20,15 L20,13 L21,13 C21.55,13 22,12.55 22,12 C22,11.45 21.55,11 21,11 L20,11 L20,8.99999996 L21,8.99999996 C21.55,8.99999996 22,8.54999999 22,7.99999996 Z M17,19 L4.99999997,19 C4.44999997,19 3.99999997,18.55 3.99999997,18 L3.99999997,5.99999997 C3.99999997,5.44999997 4.44999997,4.99999997 4.99999997,4.99999997 L17,4.99999997 C17.55,4.99999997 18,5.44999997 18,5.99999997 L18,18 C18,18.55 17.55,19 17,19 Z M6.49999997,13 L10.5,13 C10.78,13 11,13.22 11,13.5 L11,16.5 C11,16.78 10.78,17 10.5,17 L6.49999997,17 C6.21999998,17 5.99999997,16.78 5.99999997,16.5 L5.99999997,13.5 C5.99999997,13.22 6.21999998,13 6.49999997,13 Z M12.5,6.99999998 L15.5,6.99999998 C15.78,6.99999998 16,7.21999998 16,7.49999998 L16,9.49999998 C16,9.77999999 15.78,9.99999998 15.5,9.99999998 L12.5,9.99999998 C12.22,9.99999998 12,9.77999999 12,9.49999998 L12,7.49999998 C12,7.21999998 12.22,6.99999998 12.5,6.99999998 Z M6.49999997,6.99999998 L10.5,6.99999998 C10.78,6.99999998 11,7.21999998 11,7.49999998 L11,11.5 C11,11.78 10.78,12 10.5,12 L6.49999997,12 C6.21999998,12 5.99999997,11.78 5.99999997,11.5 L5.99999997,7.49999998 C5.99999997,7.21999998 6.21999998,6.99999998 6.49999997,6.99999998 Z M12.5,11 L15.5,11 C15.78,11 16,11.22 16,11.5 L16,16.5 C16,16.78 15.78,17 15.5,17 L12.5,17 C12.22,17 12,16.78 12,16.5 L12,11.5 C12,11.22 12.22,11 12.5,11 Z" id="path-1"></path>
    </defs>
    <g id="developer_board" stroke="none" stroke-width="1" fill="none" fill-rule="evenodd">
        <mask id="mask-2" fill="white">
            <use xlink:href="#path-1"></use>
        </mask>
        <use fill="#000000" xlink:href="#path-1"></use>
    </g>
</svg>