<?xml version="1.0" encoding="UTF-8"?>
<svg width="24px" height="24px" viewBox="0 0 24 24" version="1.1" xmlns="http://www.w3.org/2000/svg" xmlns:xlink="http://www.w3.org/1999/xlink">
    <title>devices_other</title>
    <defs>
        <path d="M2.99999995,6.99999997 C2.99999995,6.44999998 3.44999996,5.99999997 3.99999995,5.99999997 L20,5.99999997 C20.55,5.99999997 21,5.54999997 21,4.99999997 C21,4.44999997 20.55,3.99999997 20,3.99999997 L2.99999995,3.99999997 C1.89999996,3.99999997 0.999999954,4.89999997 0.999999954,5.99999997 L0.999999954,18 C0.999999954,19.1 1.89999996,20 2.99999995,20 L5.99999995,20 C6.54999998,20 6.99999995,19.55 6.99999995,19 C6.99999995,18.45 6.54999998,18 5.99999995,18 L3.99999995,18 C3.44999996,18 2.99999995,17.55 2.99999995,17 L2.99999995,6.99999997 Z M12,12 L9.99999998,12 C9.44999999,12 8.99999998,12.45 8.99999998,13 L8.99999998,13.78 C8.38999998,14.33 7.99999998,15.11 7.99999998,16 C7.99999998,16.89 8.38999998,17.67 8.99999998,18.22 L8.99999998,19 C8.99999998,19.55 9.44999999,20 9.99999998,20 L12,20 C12.55,20 13,19.55 13,19 L13,18.22 C13.61,17.67 14,16.88 14,16 C14,15.12 13.61,14.33 13,13.78 L13,13 C13,12.45 12.55,12 12,12 Z M11,17.5 C10.17,17.5 9.49999999,16.83 9.49999999,16 C9.49999999,15.17 10.17,14.5 11,14.5 C11.83,14.5 12.5,15.17 12.5,16 C12.5,16.83 11.83,17.5 11,17.5 Z M22,7.99999998 L16,7.99999998 C15.5,7.99999998 15,8.49999998 15,8.99999998 L15,19 C15,19.5 15.5,20 16,20 L22,20 C22.5,20 23,19.5 23,19 L23,8.99999998 C23,8.49999998 22.5,7.99999998 22,7.99999998 Z M21,18 L17,18 L17,9.99999999 L21,9.99999999 L21,18 Z" id="path-1"></path>
    </defs>
    <g id="devices_other" stroke="none" stroke-width="1" fill="none" fill-rule="evenodd">
        <mask id="mask-2" fill="white">
            <use xlink:href="#path-1"></use>
        </mask>
        <use fill="#000000" xlink:href="#path-1"></use>
    </g>
</svg>