<?xml version="1.0" encoding="UTF-8"?>
<svg width="24px" height="24px" viewBox="0 0 24 24" version="1.1" xmlns="http://www.w3.org/2000/svg" xmlns:xlink="http://www.w3.org/1999/xlink">
    <title>laptop_chromebook</title>
    <defs>
        <path d="M22.9999999,18 L21.9999999,18 L21.9999999,4.99999996 C21.9999999,3.89999997 21.1,2.99999996 19.9999999,2.99999996 L3.99999995,2.99999996 C2.89999996,2.99999996 1.99999995,3.89999997 1.99999995,4.99999996 L1.99999995,18 L0.99999995,18 C0.449999952,18 -5.00000006e-08,18.45 -5.00000006e-08,19 C-5.00000006e-08,19.55 0.449999952,20 0.99999995,20 L22.9999999,20 C23.55,20 23.9999999,19.55 23.9999999,19 C23.9999999,18.45 23.55,18 22.9999999,18 Z M13.5,18 L10.5,18 C10.22,18 9.99999999,17.78 9.99999999,17.5 C9.99999999,17.22 10.22,17 10.5,17 L13.5,17 C13.78,17 14,17.22 14,17.5 C14,17.78 13.78,18 13.5,18 Z M20,15 L3.99999997,15 L3.99999997,5.99999997 C3.99999997,5.44999997 4.44999997,4.99999997 4.99999997,4.99999997 L19,4.99999997 C19.55,4.99999997 20,5.44999997 20,5.99999997 L20,15 Z" id="path-1"></path>
    </defs>
    <g id="laptop_chromebook" stroke="none" stroke-width="1" fill="none" fill-rule="evenodd">
        <mask id="mask-2" fill="white">
            <use xlink:href="#path-1"></use>
        </mask>
        <use fill="#000000" xlink:href="#path-1"></use>
    </g>
</svg>