<?xml version="1.0" encoding="UTF-8"?>
<svg width="24px" height="24px" viewBox="0 0 24 24" version="1.1" xmlns="http://www.w3.org/2000/svg" xmlns:xlink="http://www.w3.org/1999/xlink">
    <title>memory</title>
    <defs>
        <path d="M14,8.99999999 L9.99999999,8.99999999 C9.44999999,8.99999999 8.99999999,9.44999999 8.99999999,9.99999999 L8.99999999,14 C8.99999999,14.55 9.44999999,15 9.99999999,15 L14,15 C14.55,15 15,14.55 15,14 L15,9.99999999 C15,9.44999999 14.55,8.99999999 14,8.99999999 Z M13,13 L11,13 L11,11 L13,11 L13,13 Z M21,9.99999996 C21,9.44999999 20.55,8.99999996 20,8.99999996 L19,8.99999996 L19,6.99999996 C19,5.89999997 18.1,4.99999996 17,4.99999996 L15,4.99999996 L15,3.99999996 C15,3.44999996 14.55,2.99999996 14,2.99999996 C13.45,2.99999996 13,3.44999996 13,3.99999996 L13,4.99999996 L11,4.99999996 L11,3.99999996 C11,3.44999996 10.55,2.99999996 9.99999996,2.99999996 C9.44999999,2.99999996 8.99999996,3.44999996 8.99999996,3.99999996 L8.99999996,4.99999996 L6.99999996,4.99999996 C5.89999997,4.99999996 4.99999996,5.89999997 4.99999996,6.99999996 L4.99999996,8.99999996 L3.99999996,8.99999996 C3.44999996,8.99999996 2.99999996,9.44999999 2.99999996,9.99999996 C2.99999996,10.55 3.44999996,11 3.99999996,11 L4.99999996,11 L4.99999996,13 L3.99999996,13 C3.44999996,13 2.99999996,13.45 2.99999996,14 C2.99999996,14.55 3.44999996,15 3.99999996,15 L4.99999996,15 L4.99999996,17 C4.99999996,18.1 5.89999997,19 6.99999996,19 L8.99999996,19 L8.99999996,20 C8.99999996,20.55 9.44999999,21 9.99999996,21 C10.55,21 11,20.55 11,20 L11,19 L13,19 L13,20 C13,20.55 13.45,21 14,21 C14.55,21 15,20.55 15,20 L15,19 L17,19 C18.1,19 19,18.1 19,17 L19,15 L20,15 C20.55,15 21,14.55 21,14 C21,13.45 20.55,13 20,13 L19,13 L19,11 L20,11 C20.55,11 21,10.55 21,9.99999996 Z M16,17 L7.99999998,17 C7.44999998,17 6.99999998,16.55 6.99999998,16 L6.99999998,7.99999998 C6.99999998,7.44999998 7.44999998,6.99999998 7.99999998,6.99999998 L16,6.99999998 C16.55,6.99999998 17,7.44999998 17,7.99999998 L17,16 C17,16.55 16.55,17 16,17 Z" id="path-1"></path>
    </defs>
    <g id="memory" stroke="none" stroke-width="1" fill="none" fill-rule="evenodd">
        <mask id="mask-2" fill="white">
            <use xlink:href="#path-1"></use>
        </mask>
        <use fill="#000000" xlink:href="#path-1"></use>
    </g>
</svg>