<?xml version="1.0" encoding="UTF-8"?>
<svg width="24px" height="24px" viewBox="0 0 24 24" version="1.1" xmlns="http://www.w3.org/2000/svg" xmlns:xlink="http://www.w3.org/1999/xlink">
    <title>phone_android</title>
    <defs>
        <path d="M16,0.999999954 L7.99999997,0.999999954 C6.33999998,0.999999954 4.99999997,2.33999996 4.99999997,3.99999995 L4.99999997,20 C4.99999997,21.66 6.33999998,23 7.99999997,23 L16,23 C17.66,23 19,21.66 19,20 L19,3.99999995 C19,2.33999996 17.66,0.999999954 16,0.999999954 Z M13.5,21 L10.5,21 C10.22,21 9.99999999,20.78 9.99999999,20.5 C9.99999999,20.22 10.22,20 10.5,20 L13.5,20 C13.78,20 14,20.22 14,20.5 C14,20.78 13.78,21 13.5,21 Z M17,18 L6.99999998,18 L6.99999998,3.99999997 L17,3.99999997 L17,18 Z" id="path-1"></path>
    </defs>
    <g id="phone_android" stroke="none" stroke-width="1" fill="none" fill-rule="evenodd">
        <mask id="mask-2" fill="white">
            <use xlink:href="#path-1"></use>
        </mask>
        <use fill="#000000" xlink:href="#path-1"></use>
    </g>
</svg>