<?xml version="1.0" encoding="UTF-8"?>
<svg width="24px" height="24px" viewBox="0 0 24 24" version="1.1" xmlns="http://www.w3.org/2000/svg" xmlns:xlink="http://www.w3.org/1999/xlink">
    <title>point_of_sale</title>
    <defs>
        <path d="M17,1.99999996 L6.99999997,1.99999996 C5.89999997,1.99999996 4.99999997,2.89999996 4.99999997,3.99999996 L4.99999997,5.99999996 C4.99999997,7.09999998 5.89999997,7.99999996 6.99999997,7.99999996 L17,7.99999996 C18.1,7.99999996 19,7.09999998 19,5.99999996 L19,3.99999996 C19,2.89999996 18.1,1.99999996 17,1.99999996 Z M16.5,5.99999997 L7.49999998,5.99999997 C7.21999998,5.99999997 6.99999998,5.77999997 6.99999998,5.49999997 L6.99999998,4.49999997 C6.99999998,4.21999997 7.21999998,3.99999997 7.49999998,3.99999997 L16.5,3.99999997 C16.78,3.99999997 17,4.21999997 17,4.49999997 L17,5.49999997 C17,5.77999997 16.78,5.99999997 16.5,5.99999997 Z M20,22 L3.99999996,22 C2.89999996,22 1.99999996,21.1 1.99999996,20 L1.99999996,19 L22,19 L22,20 C22,21.1 21.1,22 20,22 Z M18.53,10.19 C18.21,9.46999999 17.49,8.99999999 16.7,8.99999999 L7.29999998,8.99999999 C6.50999998,8.99999999 5.78999997,9.46999999 5.46999997,10.19 L1.99999996,18 L22,18 L18.53,10.19 Z M9.49999998,16 L8.49999998,16 C8.21999998,16 7.99999998,15.78 7.99999998,15.5 C7.99999998,15.22 8.21999998,15 8.49999998,15 L9.49999998,15 C9.77999999,15 9.99999998,15.22 9.99999998,15.5 C9.99999998,15.78 9.77999999,16 9.49999998,16 Z M9.49999998,14 L8.49999998,14 C8.21999998,14 7.99999998,13.78 7.99999998,13.5 C7.99999998,13.22 8.21999998,13 8.49999998,13 L9.49999998,13 C9.77999999,13 9.99999998,13.22 9.99999998,13.5 C9.99999998,13.78 9.77999999,14 9.49999998,14 Z M9.49999998,12 L8.49999998,12 C8.21999998,12 7.99999998,11.78 7.99999998,11.5 C7.99999998,11.22 8.21999998,11 8.49999998,11 L9.49999998,11 C9.77999999,11 9.99999998,11.22 9.99999998,11.5 C9.99999998,11.78 9.77999999,12 9.49999998,12 Z M12.5,16 L11.5,16 C11.22,16 11,15.78 11,15.5 C11,15.22 11.22,15 11.5,15 L12.5,15 C12.78,15 13,15.22 13,15.5 C13,15.78 12.78,16 12.5,16 Z M12.5,14 L11.5,14 C11.22,14 11,13.78 11,13.5 C11,13.22 11.22,13 11.5,13 L12.5,13 C12.78,13 13,13.22 13,13.5 C13,13.78 12.78,14 12.5,14 Z M12.5,12 L11.5,12 C11.22,12 11,11.78 11,11.5 C11,11.22 11.22,11 11.5,11 L12.5,11 C12.78,11 13,11.22 13,11.5 C13,11.78 12.78,12 12.5,12 Z M15.5,16 L14.5,16 C14.22,16 14,15.78 14,15.5 C14,15.22 14.22,15 14.5,15 L15.5,15 C15.78,15 16,15.22 16,15.5 C16,15.78 15.78,16 15.5,16 Z M15.5,14 L14.5,14 C14.22,14 14,13.78 14,13.5 C14,13.22 14.22,13 14.5,13 L15.5,13 C15.78,13 16,13.22 16,13.5 C16,13.78 15.78,14 15.5,14 Z M15.5,12 L14.5,12 C14.22,12 14,11.78 14,11.5 C14,11.22 14.22,11 14.5,11 L15.5,11 C15.78,11 16,11.22 16,11.5 C16,11.78 15.78,12 15.5,12 Z" id="path-1"></path>
    </defs>
    <g id="point_of_sale" stroke="none" stroke-width="1" fill="none" fill-rule="evenodd">
        <mask id="mask-2" fill="white">
            <use xlink:href="#path-1"></use>
        </mask>
        <use id="Combined-Shape" fill="#000000" xlink:href="#path-1"></use>
    </g>
</svg>