<?xml version="1.0" encoding="UTF-8"?>
<svg width="24px" height="24px" viewBox="0 0 24 24" version="1.1" xmlns="http://www.w3.org/2000/svg" xmlns:xlink="http://www.w3.org/1999/xlink">
    <title>router</title>
    <defs>
        <path d="M11.45,5.54999997 C11.64,5.73999997 11.95,5.75999997 12.17,5.58999997 C13.3,4.68999997 14.65,4.19999997 16,4.19999997 C17.35,4.19999997 18.7,4.68999997 19.84,5.58999997 C20.05,5.75999997 20.36,5.73999997 20.56,5.54999997 L20.6,5.49999996 C20.82,5.27999997 20.81,4.90999997 20.57,4.69999997 C19.24,3.56999996 17.62,2.99999996 16,2.99999996 C14.38,2.99999996 12.76,3.56999996 11.43,4.69999997 C11.19,4.90999997 11.17,5.26999997 11.4,5.49999996 L11.45,5.54999997 Z M13.15,6.30999998 C12.9,6.50999998 12.89,6.88999998 13.11,7.10999998 L13.15,7.14999998 C13.35,7.34999998 13.65,7.34999998 13.87,7.18999998 C14.5,6.70999998 15.25,6.49999998 16,6.49999998 C16.75,6.49999998 17.5,6.70999998 18.13,7.17999998 C18.35,7.34999998 18.66,7.33999998 18.85,7.13999998 L18.89,7.09999998 C19.12,6.86999998 19.1,6.49999998 18.85,6.29999997 C18.02,5.65999997 17.01,5.29999997 16,5.29999997 C14.99,5.29999997 13.98,5.65999997 13.15,6.30999998 Z M19,13 L17,13 L17,9.99999999 C17,9.44999999 16.55,8.99999999 16,8.99999999 C15.45,8.99999999 15,9.44999999 15,9.99999999 L15,13 L4.99999996,13 C3.89999997,13 2.99999996,13.9 2.99999996,15 L2.99999996,19 C2.99999996,20.1 3.89999997,21 4.99999996,21 L19,21 C20.1,21 21,20.1 21,19 L21,15 C21,13.9 20.1,13 19,13 Z M7.99999997,18 L5.99999997,18 L5.99999997,16 L7.99999997,16 L7.99999997,18 Z M11.5,18 L9.49999999,18 L9.49999999,16 L11.5,16 L11.5,18 Z M15,18 L13,18 L13,16 L15,16 L15,18 Z" id="path-1"></path>
    </defs>
    <g id="router" stroke="none" stroke-width="1" fill="none" fill-rule="evenodd">
        <mask id="mask-2" fill="white">
            <use xlink:href="#path-1"></use>
        </mask>
        <use fill="#000000" xlink:href="#path-1"></use>
    </g>
</svg>