<?xml version="1.0" encoding="UTF-8"?>
<svg width="24px" height="24px" viewBox="0 0 24 24" version="1.1" xmlns="http://www.w3.org/2000/svg" xmlns:xlink="http://www.w3.org/1999/xlink">
    <title>ac_unit</title>
    <defs>
        <path d="M21,11 L17.83,11 L20.37,8.45999999 C20.76,8.06999998 20.76,7.43999998 20.37,7.04999998 C19.98,6.65999998 19.34,6.65999998 18.95,7.04999998 L15,11 L13,11 L13,8.99999996 L16.95,5.04999997 C17.34,4.65999997 17.34,4.01999997 16.95,3.62999997 C16.56,3.23999996 15.93,3.23999996 15.54,3.62999997 L13,6.16999998 L13,2.99999996 C13,2.44999996 12.55,1.99999996 12,1.99999996 C11.45,1.99999996 11,2.44999996 11,2.99999996 L11,6.16999998 L8.45999999,3.62999997 C8.06999998,3.23999996 7.43999998,3.23999996 7.04999998,3.62999997 C6.65999998,4.01999997 6.65999998,4.65999997 7.04999998,5.04999997 L11,8.99999996 L11,11 L8.99999996,11 L5.04999997,7.04999998 C4.65999997,6.65999998 4.01999997,6.65999998 3.62999997,7.04999998 C3.23999996,7.43999998 3.23999996,8.06999998 3.62999997,8.45999999 L6.16999998,11 L2.99999996,11 C2.44999996,11 1.99999996,11.45 1.99999996,12 C1.99999996,12.55 2.44999996,13 2.99999996,13 L6.16999998,13 L3.62999997,15.54 C3.23999996,15.93 3.23999996,16.56 3.62999997,16.95 C4.01999997,17.34 4.65999997,17.34 5.04999997,16.95 L8.99999996,13 L11,13 L11,15 L7.04999998,18.95 C6.65999998,19.34 6.65999998,19.98 7.04999998,20.37 C7.43999998,20.76 8.06999998,20.76 8.45999999,20.37 L11,17.83 L11,21 C11,21.55 11.45,22 12,22 C12.55,22 13,21.55 13,21 L13,17.83 L15.54,20.37 C15.93,20.76 16.56,20.76 16.95,20.37 C17.34,19.98 17.34,19.34 16.95,18.95 L13,15 L13,13 L15,13 L18.95,16.95 C19.34,17.34 19.98,17.34 20.37,16.95 C20.76,16.56 20.76,15.93 20.37,15.54 L17.83,13 L21,13 C21.55,13 22,12.55 22,12 C22,11.45 21.55,11 21,11 Z" id="path-1"></path>
    </defs>
    <g id="ac_unit" stroke="none" stroke-width="1" fill="none" fill-rule="evenodd">
        <mask id="mask-2" fill="white">
            <use xlink:href="#path-1"></use>
        </mask>
        <use id="Combined-Shape" fill="#000000" xlink:href="#path-1"></use>
    </g>
</svg>