<?xml version="1.0" encoding="UTF-8"?>
<svg width="24px" height="24px" viewBox="0 0 24 24" version="1.1" xmlns="http://www.w3.org/2000/svg" xmlns:xlink="http://www.w3.org/1999/xlink">
    <title>all_inclusive</title>
    <defs>
        <path d="M20.22,6.85999998 C18.22,6.25999998 16.16,6.81999998 14.83,8.14999998 L11.9999999,10.66 L10.48,12 L10.49,12 L7.79999998,14.39 C6.98999998,15.2 5.84999997,15.54 4.67999997,15.31 C3.42999996,15.06 2.39999996,14.06 2.10999996,12.82 C1.58999996,10.59 3.26999996,8.61999998 5.39999997,8.61999998 C6.30999998,8.61999998 7.15999998,8.96999999 7.83999998,9.64999999 L8.30999998,10.06 C8.68999999,10.4 9.25999999,10.4 9.63999999,10.06 C10.09,9.65999999 10.09,8.95999999 9.63999999,8.55999999 L9.21999999,8.19999998 C8.19999998,7.17999998 6.83999998,6.61999998 5.39999997,6.61999998 C2.41999996,6.61999998 -5.00000112e-08,9.03999999 -5.00000112e-08,12 C-5.00000112e-08,14.96 2.41999996,17.38 5.39999997,17.38 C6.83999998,17.38 8.19999998,16.82 9.16999999,15.85 L11.9999999,13.35 L12.01,13.36 L13.52,12 L13.51,12 L16.2,9.60999999 C17.01,8.79999999 18.15,8.45999999 19.32,8.68999999 C20.57,8.93999999 21.6,9.93999999 21.89,11.18 C22.41,13.41 20.73,15.38 18.6,15.38 C17.7,15.38 16.84,15.03 16.16,14.35 L15.68,13.93 C15.3,13.59 14.73,13.59 14.35,13.93 C13.9,14.33 13.9,15.03 14.35,15.43 L14.77,15.8 C15.79,16.81 17.14,17.37 18.59,17.37 C21.86,17.37 24.4500001,14.47 23.92,11.12 C23.62,9.12999999 22.15,7.42999998 20.22,6.85999998 L20.22,6.85999998 Z" id="path-1"></path>
    </defs>
    <g id="all_inclusive" stroke="none" stroke-width="1" fill="none" fill-rule="evenodd">
        <mask id="mask-2" fill="white">
            <use xlink:href="#path-1"></use>
        </mask>
        <use id="Combined-Shape" fill="#000000" xlink:href="#path-1"></use>
    </g>
</svg>