<?xml version="1.0" encoding="UTF-8"?>
<svg width="24px" height="24px" viewBox="0 0 24 24" version="1.1" xmlns="http://www.w3.org/2000/svg" xmlns:xlink="http://www.w3.org/1999/xlink">
    <title>bathtub</title>
    <defs>
        <path d="M17.17,1.99999996 C18.73,1.99999996 20,3.26999996 20,4.82999997 L20,4.82999997 L20,13 L21,13 C21.55,13 22,13.45 22,14 L22,14 L22,19 C22,20.1 21.1,21 20,21 C20,21.55 19.55,22 19,22 L19,22 L4.99999996,22 C4.44999997,22 3.99999996,21.55 3.99999996,21 C2.89999996,21 1.99999996,20.1 1.99999996,19 L1.99999996,19 L1.99999996,14 C1.99999996,13.45 2.44999996,13 2.99999996,13 L2.99999996,13 L4.99999996,13 L4.99999996,12.25 C4.99999996,11.01 5.99999996,10.01 7.23999998,9.99999996 C7.58999998,9.99999996 7.92999998,10.08 8.23999998,10.23 C8.49999996,10.35 8.73999999,10.52 8.92999999,10.73 L8.92999999,10.73 L10.33,12.28 C10.58,12.55 10.85,12.79 11.15,13 L11.15,13 L18,13 L18,4.82999997 C18,4.36999997 17.63,3.99999996 17.17,3.99999996 C16.95,3.99999996 16.74,4.08999997 16.59,4.23999997 L16.59,4.23999997 L15.34,5.48999997 C15.38,5.65999997 15.41,5.81999997 15.41,5.99999996 C15.41,6.39999998 15.29,6.76999998 15.09,7.07999998 L15.09,7.07999998 L12.33,4.31999997 C12.64,4.11999997 13.01,3.99999996 13.41,3.99999996 C13.59,3.99999996 13.76,4.02999997 13.92,4.07999997 L13.92,4.07999997 L15.17,2.82999996 C15.7,2.29999996 16.42,1.99999996 17.17,1.99999996 Z M6.99999997,4.99999997 C8.10456948,4.99999997 8.99999997,5.89543047 8.99999997,6.99999997 C8.99999997,8.10456948 8.10456948,8.99999997 6.99999997,8.99999997 C5.89543047,8.99999997 4.99999997,8.10456948 4.99999997,6.99999997 C4.99999997,5.89543047 5.89543047,4.99999997 6.99999997,4.99999997 Z" id="path-1"></path>
    </defs>
    <g id="bathtub" stroke="none" stroke-width="1" fill="none" fill-rule="evenodd">
        <mask id="mask-2" fill="white">
            <use xlink:href="#path-1"></use>
        </mask>
        <use id="Combined-Shape" fill="#000000" xlink:href="#path-1"></use>
    </g>
</svg>