<?xml version="1.0" encoding="UTF-8"?>
<svg width="24px" height="24px" viewBox="0 0 24 24" version="1.1" xmlns="http://www.w3.org/2000/svg" xmlns:xlink="http://www.w3.org/1999/xlink">
    <title>casino</title>
    <defs>
        <path d="M19,2.99999996 L4.99999996,2.99999996 C3.89999997,2.99999996 2.99999996,3.89999997 2.99999996,4.99999996 L2.99999996,19 C2.99999996,20.1 3.89999997,21 4.99999996,21 L19,21 C20.1,21 21,20.1 21,19 L21,4.99999996 C21,3.89999997 20.1,2.99999996 19,2.99999996 Z M7.49999998,18 C6.66999998,18 5.99999998,17.33 5.99999998,16.5 C5.99999998,15.67 6.66999998,15 7.49999998,15 C8.32999998,15 8.99999998,15.67 8.99999998,16.5 C8.99999998,17.33 8.32999998,18 7.49999998,18 Z M7.49999998,8.99999998 C6.66999998,8.99999998 5.99999998,8.32999998 5.99999998,7.49999998 C5.99999998,6.66999998 6.66999998,5.99999998 7.49999998,5.99999998 C8.32999998,5.99999998 8.99999998,6.66999998 8.99999998,7.49999998 C8.99999998,8.32999998 8.32999998,8.99999998 7.49999998,8.99999998 Z M12,13.5 C11.17,13.5 10.5,12.83 10.5,12 C10.5,11.17 11.17,10.5 12,10.5 C12.83,10.5 13.5,11.17 13.5,12 C13.5,12.83 12.83,13.5 12,13.5 Z M16.5,18 C15.67,18 15,17.33 15,16.5 C15,15.67 15.67,15 16.5,15 C17.33,15 18,15.67 18,16.5 C18,17.33 17.33,18 16.5,18 Z M16.5,8.99999998 C15.67,8.99999998 15,8.32999998 15,7.49999998 C15,6.66999998 15.67,5.99999998 16.5,5.99999998 C17.33,5.99999998 18,6.66999998 18,7.49999998 C18,8.32999998 17.33,8.99999998 16.5,8.99999998 Z" id="path-1"></path>
    </defs>
    <g id="casino" stroke="none" stroke-width="1" fill="none" fill-rule="evenodd">
        <mask id="mask-2" fill="white">
            <use xlink:href="#path-1"></use>
        </mask>
        <use id="Combined-Shape" fill="#000000" xlink:href="#path-1"></use>
    </g>
</svg>