<?xml version="1.0" encoding="UTF-8"?>
<svg width="24px" height="24px" viewBox="0 0 24 24" version="1.1" xmlns="http://www.w3.org/2000/svg" xmlns:xlink="http://www.w3.org/1999/xlink">
    <title>child_care</title>
    <defs>
        <path d="M12,2.99999996 C14.28,2.99999996 16.36,3.84999997 17.94,5.25999997 C18.85,6.06999998 19.6,7.04999998 20.13,8.16999998 C21.58,8.59999999 22.69,9.82999999 22.94,11.34 C22.98,11.55 23,11.77 23,12 C23,12.23 22.98,12.45 22.94,12.66 C22.69,14.18 21.58,15.4 20.14,15.83 C19.62,16.93 18.87,17.92 17.97,18.72 C16.38,20.14 14.29,21 12,21 C9.70999999,21 7.61999998,20.14 6.03999998,18.72 C5.13999997,17.92 4.38999997,16.94 3.86999997,15.83 C2.41999996,15.4 1.30999996,14.17 1.05999995,12.66 C1.01999995,12.45 0.999999954,12.23 0.999999954,12 C0.999999954,11.77 1.01999995,11.55 1.05999995,11.34 C1.30999996,9.81999999 2.41999996,8.59999999 3.86999997,8.16999998 C4.38999997,7.05999998 5.13999997,6.06999998 6.05999998,5.25999997 C7.63999998,3.84999997 9.71999999,2.99999996 12,2.99999996 Z M12,4.99999997 C9.54999999,4.99999997 7.39999998,6.25999998 6.14999998,8.16999998 C5.77999997,8.73999999 5.48999997,9.35999999 5.28999997,10.03 C5.18999997,10.02 5.09999997,9.99999997 4.99999996,9.99999997 C3.89999997,9.99999997 2.99999996,10.9 2.99999996,12 C2.99999996,13.1 3.89999997,14 4.99999996,14 C5.09999997,14 5.18999997,13.98 5.28999997,13.97 C5.48999997,14.64 5.77999997,15.26 6.14999998,15.83 C7.39999998,17.74 9.54999999,19 12,19 C14.45,19 16.6,17.74 17.85,15.83 C18.22,15.26 18.51,14.64 18.71,13.97 C18.81,13.98 18.9,14 19,14 C20.1,14 21,13.1 21,12 C21,10.9 20.1,9.99999997 19,9.99999997 C18.9,9.99999997 18.81,10.02 18.71,10.03 C18.51,9.35999999 18.22,8.73999999 17.85,8.16999998 C16.6,6.25999998 14.45,4.99999997 12,4.99999997 Z M16.1,14 C16.28,14 16.41,14.2 16.33,14.37 C15.5,15.94 13.87,17 12,17 C10.13,17 8.49999999,15.94 7.66999998,14.37 C7.57999998,14.2 7.70999998,14 7.89999998,14 L7.89999998,14 Z M14.5,9.24999999 C15.190356,9.24999999 15.75,9.80964405 15.75,10.5 C15.75,11.1903559 15.190356,11.75 14.5,11.75 C13.8096441,11.75 13.25,11.1903559 13.25,10.5 C13.25,9.80964405 13.8096441,9.24999999 14.5,9.24999999 Z M9.49999999,9.24999999 C10.1903559,9.24999999 10.75,9.80964405 10.75,10.5 C10.75,11.1903559 10.1903559,11.75 9.49999999,11.75 C8.80964405,11.75 8.24999998,11.1903559 8.24999998,10.5 C8.24999998,9.80964405 8.80964405,9.24999999 9.49999999,9.24999999 Z" id="path-1"></path>
    </defs>
    <g id="child_care" stroke="none" stroke-width="1" fill="none" fill-rule="evenodd">
        <mask id="mask-2" fill="white">
            <use xlink:href="#path-1"></use>
        </mask>
        <use id="Combined-Shape" fill="#000000" xlink:href="#path-1"></use>
    </g>
</svg>