<?xml version="1.0" encoding="UTF-8"?>
<svg width="24px" height="24px" viewBox="0 0 24 24" version="1.1" xmlns="http://www.w3.org/2000/svg" xmlns:xlink="http://www.w3.org/1999/xlink">
    <title>do_not_touch</title>
    <defs>
        <path d="M13,10.17 L10.5,7.66999998 L10.5,2.24999996 C10.5,1.55999996 11.06,0.999999954 11.75,0.999999954 C12.44,0.999999954 13,1.55999996 13,2.24999996 L13,10.17 Z M20,5.31999997 C20,4.66999997 19.53,4.06999997 18.88,3.99999997 C18.13,3.91999997 17.5,4.50999997 17.5,5.23999997 L17.5,10.49 C17.5,10.77 17.28,10.99 17,10.99 L17,10.99 C16.72,10.99 16.5,10.77 16.5,10.49 L16.5,3.30999996 C16.5,2.65999996 16.03,2.05999996 15.38,1.98999996 C14.63,1.92999996 14,2.51999996 14,3.24999996 L14,11.17 L20,17.17 L20,5.31999997 Z M9.49999999,4.24999997 C9.49999999,3.55999996 8.93999999,2.99999996 8.24999998,2.99999996 C7.57999998,2.99999996 7.04999998,3.52999996 7.00999998,4.17999997 L9.49999999,6.66999998 L9.49999999,4.24999997 Z M17,22 C17.62,22 18.18,21.81 18.65,21.48 L18.63,21.46 L19.07,21.9 C19.46,22.29 20.09,22.29 20.48,21.9 L20.48,21.9 C20.87,21.51 20.87,20.88 20.48,20.49 L3.50999996,3.50999996 C3.11999996,3.11999996 2.48999996,3.11999996 2.09999996,3.50999996 L2.09999996,3.50999996 C1.70999996,3.89999997 1.70999996,4.52999997 2.09999996,4.91999997 L7.01999998,9.83999999 L6.99999998,9.82999999 L6.99999998,14.13 L4.39999997,12.65 C4.22999997,12.56 4.05999997,12.51 3.85999997,12.51 C3.59999996,12.51 3.35999996,12.6 3.15999996,12.77 L1.99999996,13.88 L1.99999996,13.88 L8.79999999,21.06 C9.36999999,21.66 10.15,22 10.98,22 L17,22 L17,22 Z" id="path-1"></path>
    </defs>
    <g id="do_not_touch" stroke="none" stroke-width="1" fill="none" fill-rule="evenodd">
        <mask id="mask-2" fill="white">
            <use xlink:href="#path-1"></use>
        </mask>
        <use id="Combined-Shape" fill="#000000" xlink:href="#path-1"></use>
    </g>
</svg>