<?xml version="1.0" encoding="UTF-8"?>
<svg width="24px" height="24px" viewBox="0 0 24 24" version="1.1" xmlns="http://www.w3.org/2000/svg" xmlns:xlink="http://www.w3.org/1999/xlink">
    <title>do_not_step</title>
    <defs>
        <path d="M2.09999996,3.50999996 C1.70999996,3.89999997 1.70999996,4.52999997 2.09999996,4.91999997 L9.28999999,12.11 C9.46999999,12.31 9.46999999,12.61 9.27999999,12.81 C9.17999999,12.91 9.04999999,12.96 8.92999999,12.96 C8.80999999,12.96 8.66999999,12.91 8.57999999,12.81 L6.86999998,11.1 C6.75999998,11.5 6.60999998,11.88 6.41999998,12.22 L7.81999998,13.62 C8.01999998,13.82 8.01999998,14.13 7.81999998,14.33 C7.71999998,14.43 7.58999998,14.48 7.46999998,14.48 C7.34999998,14.48 7.20999998,14.43 7.11999998,14.33 L5.84999997,13.06 C5.60999997,13.35 5.34999997,13.62 5.07999997,13.86 L6.35999998,15.14 C6.55999998,15.34 6.55999998,15.65 6.35999998,15.85 C6.25999998,15.95 6.12999998,16 5.99999995,16 C5.86999997,16 5.73999997,15.95 5.64999997,15.85 L4.26999997,14.47 C3.55999996,14.94 2.83999996,15.28 2.24999996,15.51 C1.48999996,15.81 0.999999954,16.55 0.999999954,17.37 L0.999999954,18 C0.999999954,19.1 1.89999996,20 2.99999995,20 L9.66999999,20 C10.2,20 10.71,19.79 11.08,19.41 L13.82,16.67 L19.05,21.9 C19.44,22.29 20.07,22.29 20.46,21.9 L20.46,21.9 C20.85,21.51 20.85,20.88 20.46,20.49 L3.50999996,3.50999996 C3.11999996,3.11999996 2.48999996,3.11999996 2.09999996,3.50999996 L2.09999996,3.50999996 Z M18.51,15.68 L17.1,14.27 L21.58,9.78999999 L21.58,9.78999999 C22.36,10.57 22.36,11.84 21.58,12.62 L18.51,15.68 Z M20.88,9.07999999 L16.4,13.56 L9.29999999,6.46999998 L12.39,3.39999996 C13.17,2.61999996 14.43,2.62999996 15.21,3.39999996 L20.88,9.07999999 Z" id="path-1"></path>
    </defs>
    <g id="do_not_step" stroke="none" stroke-width="1" fill="none" fill-rule="evenodd">
        <mask id="mask-2" fill="white">
            <use xlink:href="#path-1"></use>
        </mask>
        <use id="Combined-Shape" fill="#000000" xlink:href="#path-1"></use>
    </g>
</svg>