<?xml version="1.0" encoding="UTF-8"?>
<svg width="24px" height="24px" viewBox="0 0 24 24" version="1.1" xmlns="http://www.w3.org/2000/svg" xmlns:xlink="http://www.w3.org/1999/xlink">
    <title>elevator</title>
    <defs>
        <path d="M19,2.99999996 L4.99999996,2.99999996 C3.89999997,2.99999996 2.99999996,3.89999997 2.99999996,4.99999996 L2.99999996,19 C2.99999996,20.1 3.89999997,21 4.99999996,21 L19,21 C20.1,21 21,20.1 21,19 L21,4.99999996 C21,3.89999997 20.1,2.99999996 19,2.99999996 Z M8.49999999,5.99999998 C9.18999999,5.99999998 9.74999998,6.55999998 9.74999998,7.24999998 C9.74999998,7.93999998 9.18999999,8.49999998 8.49999999,8.49999998 C7.80999998,8.49999998 7.24999998,7.93999998 7.24999998,7.24999998 C7.24999998,6.55999998 7.80999998,5.99999998 8.49999999,5.99999998 Z M11,13 C11,13.55 10.55,14 9.99999997,14 L9.99999997,17 C9.99999997,17.55 9.54999999,18 8.99999997,18 L7.99999997,18 C7.44999998,18 6.99999997,17.55 6.99999997,17 L6.99999997,14 C6.44999998,14 5.99999997,13.55 5.99999997,13 L5.99999997,11.5 C5.99999997,10.4 6.89999998,9.49999999 7.99999997,9.49999999 L8.99999997,9.49999999 C10.1,9.49999999 11,10.4 11,11.5 L11,13 Z M17.52,13.76 L15.92,16.32 C15.72,16.63 15.27,16.63 15.07,16.32 L13.47,13.76 C13.27,13.43 13.51,13 13.9,13 L17.1,13 C17.49,13 17.73,13.43 17.52,13.76 Z M17.1,11 L13.9,11 C13.51,11 13.27,10.57 13.48,10.23 L15.08,7.66999998 C15.28,7.35999998 15.73,7.35999998 15.93,7.66999998 L17.53,10.23 C17.73,10.57 17.49,11 17.1,11 Z" id="path-1"></path>
    </defs>
    <g id="elevator" stroke="none" stroke-width="1" fill="none" fill-rule="evenodd">
        <mask id="mask-2" fill="white">
            <use xlink:href="#path-1"></use>
        </mask>
        <use id="Combined-Shape" fill="#000000" xlink:href="#path-1"></use>
    </g>
</svg>