<?xml version="1.0" encoding="UTF-8"?>
<svg width="24px" height="24px" viewBox="0 0 24 24" version="1.1" xmlns="http://www.w3.org/2000/svg" xmlns:xlink="http://www.w3.org/1999/xlink">
    <title>family_restroom</title>
    <defs>
        <path d="M16,3.99999996 C16,2.88999996 16.89,1.99999996 18,1.99999996 C19.11,1.99999996 20,2.88999996 20,3.99999996 C20,5.10999997 19.11,5.99999996 18,5.99999996 C16.89,5.99999996 16,5.10999997 16,3.99999996 Z M20,21 L20,16 L21.11,16 C21.79,16 22.27,15.33 22.06,14.68 L19.96,8.36999998 C19.68,7.54999998 18.92,6.99999998 18.06,6.99999998 L17.94,6.99999998 C17.08,6.99999998 16.31,7.54999998 16.04,8.36999998 L15.18,10.95 C16.26,11.55 17,12.68 17,14 L17,22 L19,22 C19.55,22 20,21.55 20,21 Z M12.5,11.5 C13.33,11.5 14,10.83 14,9.99999999 C14,9.16999999 13.33,8.49999999 12.5,8.49999999 C11.67,8.49999999 11,9.16999999 11,9.99999999 C11,10.83 11.67,11.5 12.5,11.5 Z M5.49999996,5.99999996 C6.60999998,5.99999996 7.49999996,5.10999997 7.49999996,3.99999996 C7.49999996,2.88999996 6.60999998,1.99999996 5.49999996,1.99999996 C4.38999997,1.99999996 3.49999996,2.88999996 3.49999996,3.99999996 C3.49999996,5.10999997 4.38999997,5.99999996 5.49999996,5.99999996 Z M7.49999996,21 L7.49999996,15 L7.99999996,15 C8.54999999,15 8.99999996,14.55 8.99999996,14 L8.99999996,8.99999998 C8.99999996,7.89999998 8.09999998,6.99999998 6.99999996,6.99999998 L3.99999996,6.99999998 C2.89999996,6.99999998 1.99999996,7.89999998 1.99999996,8.99999998 L1.99999996,14 C1.99999996,14.55 2.44999996,15 2.99999996,15 L3.49999996,15 L3.49999996,21 C3.49999996,21.55 3.94999997,22 4.49999996,22 L6.49999996,22 C7.04999998,22 7.49999996,21.55 7.49999996,21 Z M9.99999999,14 L9.99999999,17 C9.99999999,17.55 10.45,18 11,18 L11,18 L11,21 C11,21.55 11.45,22 12,22 L13,22 C13.55,22 14,21.55 14,21 L14,18 L14,18 C14.55,18 15,17.55 15,17 L15,14 C15,13.18 14.32,12.5 13.5,12.5 L11.5,12.5 C10.68,12.5 9.99999999,13.18 9.99999999,14" id="path-1"></path>
    </defs>
    <g id="family_restroom" stroke="none" stroke-width="1" fill="none" fill-rule="evenodd">
        <mask id="mask-2" fill="white">
            <use xlink:href="#path-1"></use>
        </mask>
        <use id="Combined-Shape" fill="#000000" xlink:href="#path-1"></use>
    </g>
</svg>