<?xml version="1.0" encoding="UTF-8"?>
<svg width="24px" height="24px" viewBox="0 0 24 24" version="1.1" xmlns="http://www.w3.org/2000/svg" xmlns:xlink="http://www.w3.org/1999/xlink">
    <title>grass</title>
    <defs>
        <path d="M15.64,11.02 C16.19,9.54999999 17.07,8.23999998 18.2,7.18999998 C18.58,6.82999998 18.24,6.18999998 17.74,6.33999998 C14.42,7.31999998 11.99,10.39 11.9999692,14.03 C11.9999692,14.03 11.9999692,14.03 11.9999692,14.03 C12.95,12.75 14.2,11.72 15.64,11.02 Z M11.42,8.84999999 C10.82,7.28999998 9.78999999,5.93999997 8.45999999,4.97999997 C8.03999998,4.67999997 7.49999998,5.16999997 7.73999998,5.62999997 C8.53999999,7.14999998 8.99999999,8.87999999 8.99999999,10.71 C8.99999999,10.92 8.96999999,11.12 8.95999999,11.32 C9.38999999,11.56 9.78999999,11.84 10.18,12.14 C10.39,10.96 10.83,9.84999999 11.42,8.84999999 Z M12,20 L2.99999996,20 C2.44999996,20 1.99999996,19.55 1.99999996,19 C1.99999996,18.45 2.44999996,18 2.99999996,18 L7.74999998,18 C7.17999998,15.81 5.70999997,13.98 3.74999997,12.94 L3.74999997,12.94 C3.58999996,12.86 3.48999996,12.69 3.48999996,12.5 C3.48999996,12.23 3.70999997,12.01 3.97999997,12 C3.98999997,12 3.99999996,12 3.99999996,12 C8.41999999,12 12,15.58 12,20 Z M20.26,12.94 L20.26,12.94 C18.3,13.98 16.82,15.81 16.26,18 L21,18 C21.55,18 22,18.45 22,19 C22,19.55 21.55,20 21,20 L16,20 L14,20 C14,19.32 13.93,18.65 13.8,18 C13.65,17.28 13.42,16.58 13.13,15.93 C14.52,13.58 17.07,12 20,12 C20.01,12 20.02,12 20.02,12 C20.29,12 20.51,12.23 20.51,12.5 C20.52,12.69 20.41,12.85 20.26,12.94 Z" id="path-1"></path>
    </defs>
    <g id="grass" stroke="none" stroke-width="1" fill="none" fill-rule="evenodd">
        <mask id="mask-2" fill="white">
            <use xlink:href="#path-1"></use>
        </mask>
        <use id="Combined-Shape" fill="#000000" xlink:href="#path-1"></use>
    </g>
</svg>