<?xml version="1.0" encoding="UTF-8"?>
<svg width="24px" height="24px" viewBox="0 0 24 24" version="1.1" xmlns="http://www.w3.org/2000/svg" xmlns:xlink="http://www.w3.org/1999/xlink">
    <title>hot_tub</title>
    <defs>
        <path d="M7.27999998,8.99999999 C7.61999998,8.99999999 7.94999998,9.08999999 8.23999998,9.22999999 C8.49999996,9.34999999 8.73999999,9.51999999 8.92999999,9.72999999 L8.92999999,9.72999999 L10.33,11.28 C10.56,11.54 10.84,11.78 11.15,12 L11.15,12 L21,12 C21.55,12 22,12.45 22,13 L22,13 L22,20 C22,21.1 21.1,22 20,22 L20,22 L3.99999996,22 C2.89999996,22 1.99999996,21.1 1.99999996,20 L1.99999996,20 L1.99999996,13 C1.99999996,12.45 2.44999996,12 2.99999996,12 L2.99999996,12 L4.99999996,12 L4.99999996,11.25 C4.99999996,10.01 6.00999998,8.99999999 7.24999998,8.99999999 L7.24999998,8.99999999 Z M5.99999997,14 C5.44999997,14 4.99999997,14.45 4.99999997,15 L4.99999997,15 L4.99999997,19 C4.99999997,19.55 5.44999997,20 5.99999997,20 C6.54999998,20 6.99999997,19.55 6.99999997,19 L6.99999997,19 L6.99999997,15 C6.99999997,14.45 6.54999998,14 5.99999997,14 Z M9.99999999,14 C9.44999999,14 8.99999999,14.45 8.99999999,15 L8.99999999,15 L8.99999999,19 C8.99999999,19.55 9.44999999,20 9.99999999,20 C10.55,20 11,19.55 11,19 L11,19 L11,15 C11,14.45 10.55,14 9.99999999,14 Z M14,14 C13.45,14 13,14.45 13,15 L13,15 L13,19 C13,19.55 13.45,20 14,20 C14.55,20 15,19.55 15,19 L15,19 L15,15 C15,14.45 14.55,14 14,14 Z M18,14 C17.45,14 17,14.45 17,15 L17,15 L17,19 C17,19.55 17.45,20 18,20 C18.55,20 19,19.55 19,19 L19,19 L19,15 C19,14.45 18.55,14 18,14 Z M12.94,2.99999996 C13.47,2.99999996 13.9,3.42999996 13.88,3.94999997 C13.85,4.58999997 14,5.13999997 14.65,5.85999997 C15.42,6.62999998 16.04,7.70999998 16,9.10999999 C15.99,9.60999999 15.56,9.99999996 15.06,9.99999996 C14.53,9.99999996 14.12,9.55999999 14.13,9.03999999 C14.13,8.41999999 13.96,7.73999998 13.35,7.14999998 C12.5,6.32999998 11.97,5.18999997 12,3.89999997 C12.01,3.39999996 12.44,2.99999996 12.94,2.99999996 Z M16.94,2.99999996 C17.47,2.99999996 17.9,3.42999996 17.88,3.94999997 C17.85,4.58999997 18,5.13999997 18.65,5.85999997 C19.42,6.62999998 20.04,7.70999998 20,9.10999999 C19.99,9.60999999 19.56,9.99999996 19.06,9.99999996 C18.53,9.99999996 18.12,9.55999999 18.13,9.03999999 C18.13,8.41999999 17.96,7.73999998 17.35,7.14999998 C16.5,6.32999998 15.97,5.18999997 16,3.89999997 C16.01,3.39999996 16.44,2.99999996 16.94,2.99999996 Z M6.99999997,3.99999997 C8.10456948,3.99999997 8.99999997,4.89543047 8.99999997,5.99999997 C8.99999997,7.10456948 8.10456948,7.99999997 6.99999997,7.99999997 C5.89543047,7.99999997 4.99999997,7.10456948 4.99999997,5.99999997 C4.99999997,4.89543047 5.89543047,3.99999997 6.99999997,3.99999997 Z" id="path-1"></path>
    </defs>
    <g id="hot_tub" stroke="none" stroke-width="1" fill="none" fill-rule="evenodd">
        <mask id="mask-2" fill="white">
            <use xlink:href="#path-1"></use>
        </mask>
        <use id="Combined-Shape" fill="#000000" xlink:href="#path-1"></use>
    </g>
</svg>