<?xml version="1.0" encoding="UTF-8"?>
<svg width="24px" height="24px" viewBox="0 0 24 24" version="1.1" xmlns="http://www.w3.org/2000/svg" xmlns:xlink="http://www.w3.org/1999/xlink">
    <title>house_siding</title>
    <defs>
        <path d="M19,12 L20.7,12 C21.16,12 21.38,11.43 21.03,11.13 L12.67,3.59999997 C12.29,3.25999996 11.71,3.25999996 11.33,3.59999997 L2.96999996,11.13 C2.62999996,11.43 2.83999996,12 3.29999996,12 L4.99999997,12 L4.99999997,19 C4.99999997,19.55 5.44999997,20 5.99999997,20 L5.99999997,20 C6.54999998,20 6.99999998,19.55 6.99999998,19 L6.99999998,18 L17,18 L17,19 C17,19.55 17.45,20 18,20 L18,20 C18.55,20 19,19.55 19,19 L19,12 Z M7.20999998,9.99999999 L16.79,9.99999999 L17,10.19 L17,12 L6.99999998,12 L6.99999998,10.19 L7.20999998,9.99999999 Z M14.57,7.99999998 L9.42999999,7.99999998 L12,5.68999997 L14.57,7.99999998 Z M6.99999998,16 L6.99999998,14 L17,14 L17,16 L6.99999998,16 Z" id="path-1"></path>
    </defs>
    <g id="house_siding" stroke="none" stroke-width="1" fill="none" fill-rule="evenodd">
        <mask id="mask-2" fill="white">
            <use xlink:href="#path-1"></use>
        </mask>
        <use id="Combined-Shape" fill="#000000" xlink:href="#path-1"></use>
    </g>
</svg>