<?xml version="1.0" encoding="UTF-8"?>
<svg width="24px" height="24px" viewBox="0 0 24 24" version="1.1" xmlns="http://www.w3.org/2000/svg" xmlns:xlink="http://www.w3.org/1999/xlink">
    <title>microwave</title>
    <defs>
        <path d="M6.14999998,9.96999999 L6.14999998,9.96999999 C5.68999997,9.50999999 5.76999997,8.72999999 6.32999998,8.39999999 C6.72999998,8.17999998 7.20999998,7.99999998 7.74999998,7.99999998 C8.54999999,7.99999998 9.13999999,8.38999998 9.55999999,8.66999999 C9.86999999,8.87999999 10.07,8.99999998 10.25,8.99999998 C10.38,8.99999998 10.51,8.94999999 10.64,8.87999999 C11.03,8.65999999 11.52,8.71999999 11.84,9.03999999 L11.84,9.03999999 C12.3,9.49999998 12.22,10.28 11.66,10.6 C11.27,10.83 10.79,11 10.25,11 C9.45999999,11 8.87999999,10.62 8.45999999,10.34 C8.12999998,10.12 7.93999998,9.99999998 7.74999998,9.99999998 C7.61999998,9.99999998 7.48999998,10.05 7.35999998,10.12 C6.95999998,10.35 6.46999998,10.28 6.14999998,9.96999999 Z M7.74999998,15 C7.93999998,15 8.12999998,15.12 8.45999999,15.34 C8.87999999,15.62 9.45999999,16 10.25,16 C10.79,16 11.27,15.83 11.66,15.6 C12.22,15.28 12.3,14.5 11.84,14.04 L11.84,14.04 C11.52,13.72 11.03,13.66 10.64,13.88 C10.51,13.95 10.38,14 10.25,14 C10.07,14 9.86999999,13.88 9.55999999,13.67 C9.13999999,13.39 8.54999999,13 7.74999998,13 C7.20999998,13 6.72999998,13.18 6.32999998,13.4 C5.76999997,13.73 5.68999997,14.51 6.14999998,14.96 L6.14999998,14.96 C6.46999998,15.28 6.95999998,15.34 7.34999998,15.12 C7.48999998,15.05 7.61999998,15 7.74999998,15 Z M22,5.99999997 L22,18 C22,19.1 21.1,20 20,20 L3.99999996,20 C2.89999996,20 1.99999996,19.1 1.99999996,18 L1.99999996,5.99999997 C1.99999996,4.89999997 2.89999996,3.99999997 3.99999996,3.99999997 L20,3.99999997 C21.1,3.99999997 22,4.89999997 22,5.99999997 Z M14,5.99999998 L3.99999997,5.99999998 L3.99999997,18 L14,18 L14,5.99999998 Z M19,16 C19,15.45 18.55,15 18,15 C17.45,15 17,15.45 17,16 C17,16.55 17.45,17 18,17 C18.55,17 19,16.55 19,16 Z M19,12 C19,11.45 18.55,11 18,11 C17.45,11 17,11.45 17,12 C17,12.55 17.45,13 18,13 C18.55,13 19,12.55 19,12 Z M19,6.99999998 L17,6.99999998 L17,8.99999998 L19,8.99999998 L19,6.99999998 Z" id="path-1"></path>
    </defs>
    <g id="microwave" stroke="none" stroke-width="1" fill="none" fill-rule="evenodd">
        <mask id="mask-2" fill="white">
            <use xlink:href="#path-1"></use>
        </mask>
        <use id="Combined-Shape" fill="#000000" xlink:href="#path-1"></use>
    </g>
</svg>