<?xml version="1.0" encoding="UTF-8"?>
<svg width="24px" height="24px" viewBox="0 0 24 24" version="1.1" xmlns="http://www.w3.org/2000/svg" xmlns:xlink="http://www.w3.org/1999/xlink">
    <title>no_flash</title>
    <defs>
        <path d="M3.15999996,3.15999996 C2.76999996,2.76999996 2.13999996,2.76999996 1.74999996,3.15999996 L1.74999996,3.15999996 C1.35999996,3.54999996 1.35999996,4.17999997 1.74999996,4.56999997 L6.34999998,9.16999999 L6.13999998,9.39999999 L3.59999997,9.39999999 C2.71999996,9.39999999 1.99999996,10.12 1.99999996,11 L1.99999996,20.4 C1.99999996,21.28 2.71999996,22 3.59999997,22 L16.4,22 C17.15,22 17.78,21.48 17.95,20.78 L19.42,22.25 C19.81,22.64 20.44,22.64 20.83,22.25 L20.83,22.25 C21.22,21.86 21.22,21.23 20.83,20.84 L3.15999996,3.15999996 Z M9.99999998,20 C7.78999998,20 5.99999998,18.21 5.99999998,16 C5.99999998,14.05 7.39999998,12.43 9.24999999,12.08 L10.82,13.65 C10.56,13.56 10.29,13.5 9.99999998,13.5 C8.61999999,13.5 7.49999998,14.62 7.49999998,16 C7.49999998,17.38 8.61999999,18.5 9.99999998,18.5 C11.38,18.5 12.5,17.38 12.5,16 C12.5,15.71 12.44,15.44 12.35,15.18 L13.92,16.75 C13.57,18.6 11.95,20 9.99999998,20 Z M18,15.17 L10.83,7.99999998 L11.7,7.99999998 C12.26,7.99999998 12.8,8.23999998 13.18,8.64999999 L13.87,9.39999999 L16.41,9.39999999 C17.29,9.39999999 18.01,10.12 18.01,11 L18.01,15.17 L18,15.17 Z M20.4,5.59999997 L21.15,5.59999997 C21.53,5.59999997 21.77,6.00999998 21.59,6.33999998 L19,11 L19,6.99999996 L18.5,6.99999996 C18.22,6.99999996 18,6.77999998 18,6.49999996 L18,2.49999996 C18,2.21999996 18.22,1.99999996 18.5,1.99999996 L21.23,1.99999996 C21.59,1.99999996 21.83,2.36999996 21.69,2.69999996 L20.4,5.59999997 Z" id="path-1"></path>
    </defs>
    <g id="no_flash" stroke="none" stroke-width="1" fill="none" fill-rule="evenodd">
        <mask id="mask-2" fill="white">
            <use xlink:href="#path-1"></use>
        </mask>
        <use id="Combined-Shape" fill="#000000" xlink:href="#path-1"></use>
    </g>
</svg>