<?xml version="1.0" encoding="UTF-8"?>
<svg width="24px" height="24px" viewBox="0 0 24 24" version="1.1" xmlns="http://www.w3.org/2000/svg" xmlns:xlink="http://www.w3.org/1999/xlink">
    <title>no_food</title>
    <defs>
        <path d="M16,22 C16,22.55 15.55,23 15,23 L1.99999995,23 C1.44999996,23 0.999999954,22.55 0.999999954,22 C0.999999954,21.45 1.44999996,21 1.99999995,21 L15,21 C15.55,21 16,21.45 16,22 Z M22.89,6.09999998 C22.95,5.50999997 22.49,4.99999995 21.9,4.99999995 L18,4.99999995 L18,1.99999995 C18,1.44999996 17.55,0.999999954 17,0.999999954 C16.45,0.999999954 16,1.44999996 16,1.99999995 L16,4.99999995 L12.1,4.99999995 C11.51,4.99999995 11.05,5.50999997 11.1,6.09999998 L11.34,8.50999999 L18,15.17 L21.62,18.79 L22.89,6.09999998 Z M21.19,22.61 C21.58,22.22 21.58,21.59 21.19,21.2 L12,12 L9.00999999,9.00999999 L9.00999999,9.00999999 L2.80999996,2.80999996 C2.41999996,2.41999996 1.78999996,2.41999996 1.39999996,2.80999996 L1.39999996,2.80999996 C0.999999954,3.19999996 0.999999954,3.82999997 1.38999996,4.21999997 L6.37999998,9.20999999 C3.81999997,9.74999999 1.61999996,11.29 1.09999995,13.84 C0.989999954,14.45 1.48999996,15 2.09999996,15 L12.17,15 L14.17,17 L1.99999995,17 C1.44999996,17 0.999999954,17.45 0.999999954,18 C0.999999954,18.55 1.44999996,19 1.99999995,19 L15,19 C15.32,19 15.59,18.84 15.78,18.6 L19.78,22.6 C20.17,23 20.8,23 21.19,22.61 L21.19,22.61 Z" id="path-1"></path>
    </defs>
    <g id="no_food" stroke="none" stroke-width="1" fill="none" fill-rule="evenodd">
        <mask id="mask-2" fill="white">
            <use xlink:href="#path-1"></use>
        </mask>
        <use id="Combined-Shape" fill="#000000" xlink:href="#path-1"></use>
    </g>
</svg>