<?xml version="1.0" encoding="UTF-8"?>
<svg width="24px" height="24px" viewBox="0 0 24 24" version="1.1" xmlns="http://www.w3.org/2000/svg" xmlns:xlink="http://www.w3.org/1999/xlink">
    <title>pool</title>
    <defs>
        <path d="M18.67,18 C19.78,18 20.4,18.37 20.85,18.64 C21.03,18.76 21.18,18.85 21.35,18.91 C21.73,19.04 22,19.36 22,19.77 L22,19.77 L22,19.89 C22,20.56 21.33,21.02 20.7,20.8 C20.33,20.67 20.05,20.5 19.82,20.36 C19.45,20.14 19.22,20 18.67,20 C18.11,20 17.89,20.13 17.52,20.36 C17.06,20.63 16.45,21 15.34,21 C14.23,21 13.61,20.63 13.16,20.36 C12.79,20.14 12.56,20 12.01,20 C11.45,20 11.23,20.13 10.86,20.36 C10.4,20.63 9.77999999,21 8.66999999,21 C7.55999998,21 6.93999998,20.63 6.48999998,20.36 C6.11999998,20.13 5.88999997,20 5.33999997,20 C4.78999997,20 4.55999997,20.13 4.18999997,20.35 C3.94999997,20.49 3.66999997,20.66 3.29999996,20.79 C2.65999996,21.01 1.99999996,20.55 1.99999996,19.88 L1.99999996,19.88 L1.99999996,19.76 C1.99999996,19.36 2.26999996,19.04 2.64999996,18.91 C2.81999996,18.84 2.96999996,18.75 3.14999996,18.64 C3.60999997,18.37 4.22999997,18 5.33999997,18 C6.44999998,18 7.06999998,18.37 7.51999998,18.64 C7.88999998,18.87 8.10999998,19 8.66999999,19 C9.22999999,19 9.44999999,18.87 9.81999999,18.64 C10.28,18.37 10.9,18 12.01,18 C13.12,18 13.74,18.37 14.19,18.64 C14.56,18.86 14.79,19 15.34,19 C15.89,19 16.12,18.87 16.49,18.64 C16.94,18.37 17.56,18 18.67,18 Z M18.65,13.5 C19.76,13.5 20.38,13.87 20.83,14.14 C21.02,14.25 21.17,14.34 21.34,14.4 C21.71,14.54 21.98,14.86 21.98,15.26 L21.98,15.26 L21.98,15.38 C21.98,16.05 21.3,16.52 20.67,16.29 C20.32,16.16 20.05,16 19.82,15.86 C19.45,15.64 19.22,15.5 18.67,15.5 C18.11,15.5 17.89,15.63 17.52,15.86 C17.07,16.13 16.45,16.5 15.34,16.5 C14.23,16.5 13.61,16.13 13.16,15.86 C12.79,15.64 12.56,15.5 12.01,15.5 C11.45,15.5 11.23,15.63 10.86,15.86 C10.41,16.13 9.78999999,16.5 8.67999999,16.5 C7.56999998,16.5 6.94999998,16.13 6.49999996,15.86 C6.12999998,15.64 5.89999997,15.5 5.34999997,15.5 C4.79999997,15.5 4.56999997,15.63 4.19999997,15.86 C3.91999997,16.02 3.57999996,16.22 3.10999996,16.35 C2.54999996,16.51 1.99999996,16.07 1.99999996,15.49 L1.99999996,15.49 L1.99999996,15.26 C1.99999996,14.86 2.26999996,14.54 2.64999996,14.41 C2.81999996,14.34 2.96999996,14.25 3.14999996,14.14 C3.59999997,13.87 4.21999997,13.5 5.32999997,13.5 C6.43999998,13.5 7.05999998,13.87 7.50999998,14.14 C7.87999998,14.36 8.10999998,14.5 8.65999999,14.5 C9.21999999,14.5 9.43999999,14.37 9.80999999,14.14 C10.26,13.87 10.88,13.5 11.99,13.5 C13.1,13.5 13.72,13.87 14.17,14.14 C14.54,14.36 14.77,14.5 15.32,14.5 C15.87,14.5 16.1,14.37 16.47,14.14 C16.92,13.87 17.54,13.5 18.65,13.5 Z M6.1776104,3.04584975 L6.29999998,3.04999996 C8.03999998,3.19999996 9.21999999,3.73999997 10.48,4.99999997 L10.48,4.99999997 L16.9,11.41 C16.75,11.49 16.61,11.57 16.49,11.64 C16.12,11.87 15.89,12 15.34,12 C14.79,12 14.56,11.86 14.19,11.64 C13.74,11.37 13.12,11 12.01,11 C10.9,11 10.28,11.37 9.81999999,11.64 C9.44999999,11.87 9.22999999,12 8.66999999,12 C8.10999998,12 7.88999998,11.87 7.51999998,11.64 C7.30999998,11.52 7.05999998,11.37 6.74999998,11.25 L6.74999998,11.25 L9.99999997,7.99999998 L8.99999997,6.99999998 C8.13999998,6.13999998 7.29999998,5.69999997 6.10999998,5.55999997 C5.48999997,5.47999997 4.99999997,4.97999997 4.99999997,4.34999997 L4.99999997,4.34999997 L4.99999997,4.25999997 C4.99999997,3.55999996 5.59999997,2.98999996 6.29999998,3.04999996 Z M16.5,2.99999996 C17.8807119,2.99999996 19,4.11928809 19,5.49999996 C19,6.88071185 17.8807119,7.99999996 16.5,7.99999996 C15.1192881,7.99999996 14,6.88071185 14,5.49999996 C14,4.11928809 15.1192881,2.99999996 16.5,2.99999996 Z" id="path-1"></path>
    </defs>
    <g id="pool" stroke="none" stroke-width="1" fill="none" fill-rule="evenodd">
        <mask id="mask-2" fill="white">
            <use xlink:href="#path-1"></use>
        </mask>
        <use id="Combined-Shape" fill="#000000" xlink:href="#path-1"></use>
    </g>
</svg>