<?xml version="1.0" encoding="UTF-8"?>
<svg width="24px" height="24px" viewBox="0 0 24 24" version="1.1" xmlns="http://www.w3.org/2000/svg" xmlns:xlink="http://www.w3.org/1999/xlink">
    <title>rice_bowl</title>
    <defs>
        <path d="M22,12 L22,12 C22,6.51999998 17.6,2.06999996 12.14,1.99999996 C8.51999999,1.94999996 5.28999997,4.02999997 3.42999996,7.13999998 C0.0999999504,12.69 2.97999996,18.27 7.99999998,20.25 L7.99999998,20.5 C7.99999998,21.33 8.66999999,22 9.49999999,22 L14.5,22 C15.33,22 16,21.33 16,20.5 L16,20.25 C19.53,18.86 22,15.69 22,12 Z M20,12 L16,12 L16,5.07999997 C18.39,6.46999998 20,9.04999999 20,12 Z M14,4.25999997 L14,12 L9.99999999,12 L9.99999999,4.25999997 C10.64,4.09999997 11.31,3.99999997 12,3.99999997 C12.69,3.99999997 13.36,4.09999997 14,4.25999997 Z M3.99999997,12 C3.99999997,9.04999999 5.60999997,6.46999998 7.99999997,5.07999997 L7.99999997,12 L3.99999997,12 Z" id="path-1"></path>
    </defs>
    <g id="rice_bowl" stroke="none" stroke-width="1" fill="none" fill-rule="evenodd">
        <mask id="mask-2" fill="white">
            <use xlink:href="#path-1"></use>
        </mask>
        <use id="Combined-Shape" fill="#000000" xlink:href="#path-1"></use>
    </g>
</svg>