<?xml version="1.0" encoding="UTF-8"?>
<svg width="24px" height="24px" viewBox="0 0 24 24" version="1.1" xmlns="http://www.w3.org/2000/svg" xmlns:xlink="http://www.w3.org/1999/xlink">
    <title>smoke_free</title>
    <defs>
        <path d="M20.5,13 L22,13 L22,16 L20.5,16 L20.5,13 Z M18,13 L19.5,13 L19.5,16 L18,16 L18,13 Z M17,14.5 C17,13.67 16.33,13 15.5,13 L14.66,13 L16.84,15.18 C16.94,14.97 17,14.74 17,14.5 Z M18.85,4.72999997 C19.23,4.34999997 19.52,3.88999997 19.69,3.37999996 C19.85,2.87999996 19.5,2.36999996 18.98,2.35999996 C18.64,2.36999996 18.37,2.60999996 18.26,2.93999996 C18.08,3.48999996 17.64,3.92999997 17.09,4.10999997 C16.75,4.21999997 16.5,4.49999997 16.5,4.84999997 L16.5,4.99999997 C16.5,5.36999997 16.77,5.68999997 17.14,5.74999997 C19.07,6.05999998 20.5,7.74999998 20.5,9.76999999 L20.5,11.25 C20.5,11.66 20.84,12 21.25,12 C21.66,12 22,11.66 22,11.25 L22,9.75999999 C22,7.53999998 20.72,5.61999997 18.85,4.72999997 L18.85,4.72999997 Z M14.61,8.64999999 L16.03,8.64999999 C17.08,8.64999999 18,9.38999999 18,10.7 L18,11.25 C18,11.66 18.33,12 18.75,12 L18.76,12 C19.17,12 19.51,11.67 19.51,11.25 L19.51,10.36 C19.51,8.54999999 17.91,7.19999998 16.04,7.19999998 L14.74,7.19999998 C13.72,7.19999998 12.8,6.46999998 12.67,5.44999997 C12.55,4.49999997 13.13,3.74999997 13.97,3.51999996 C14.29,3.42999996 14.51,3.13999996 14.51,2.79999996 C14.51,2.30999996 14.05,1.93999996 13.58,2.07999996 C12.16,2.48999996 11.13,3.80999997 11.16,5.35999997 C11.18,7.20999998 12.77,8.64999999 14.61,8.64999999 Z M4.11999997,5.28999997 C3.72999997,4.89999997 3.09999996,4.89999997 2.70999996,5.28999997 C2.31999996,5.67999997 2.31999996,6.30999998 2.70999996,6.69999998 L8.99999996,13 L3.49999996,13 C2.66999996,13 1.99999996,13.67 1.99999996,14.5 C1.99999996,15.33 2.66999996,16 3.49999996,16 L12,16 L18.29,22.29 C18.68,22.68 19.31,22.68 19.7,22.29 C20.09,21.9 20.09,21.27 19.7,20.88 L4.11999997,5.28999997 Z" id="path-1"></path>
    </defs>
    <g id="smoke_free" stroke="none" stroke-width="1" fill="none" fill-rule="evenodd">
        <mask id="mask-2" fill="white">
            <use xlink:href="#path-1"></use>
        </mask>
        <use id="Combined-Shape" fill="#000000" xlink:href="#path-1"></use>
    </g>
</svg>