<?xml version="1.0" encoding="UTF-8"?>
<svg width="24px" height="24px" viewBox="0 0 24 24" version="1.1" xmlns="http://www.w3.org/2000/svg" xmlns:xlink="http://www.w3.org/1999/xlink">
    <title>soap</title>
    <defs>
        <path d="M14.25,5.99999998 C14.66,5.99999998 15,6.33999998 15,6.74999998 C15,7.15999998 14.66,7.49999998 14.25,7.49999998 C13.84,7.49999998 13.5,7.15999998 13.5,6.74999998 C13.5,6.33999998 13.84,5.99999998 14.25,5.99999998 M14.25,4.49999997 C13.01,4.49999997 12,5.50999997 12,6.74999998 C12,7.98999998 13.01,8.99999997 14.25,8.99999997 C15.49,8.99999997 16.5,7.98999998 16.5,6.74999998 C16.5,5.50999997 15.49,4.49999997 14.25,4.49999997 L14.25,4.49999997 Z M20,5.49999997 C20.28,5.49999997 20.5,5.71999997 20.5,5.99999997 C20.5,6.27999998 20.28,6.49999997 20,6.49999997 C19.72,6.49999997 19.5,6.27999998 19.5,5.99999997 C19.5,5.71999997 19.72,5.49999997 20,5.49999997 M20,3.99999997 C18.9,3.99999997 18,4.89999997 18,5.99999997 C18,7.09999998 18.9,7.99999997 20,7.99999997 C21.1,7.99999997 22,7.09999998 22,5.99999997 C22,4.89999997 21.1,3.99999997 20,3.99999997 L20,3.99999997 Z M18,2.49999995 C18,3.32999996 17.33,3.99999995 16.5,3.99999995 C15.67,3.99999995 15,3.32999996 15,2.49999995 C15,1.66999996 15.67,0.999999954 16.5,0.999999954 C17.33,0.999999954 18,1.66999996 18,2.49999995 Z M1.93999996,11.79 C1.33999996,12.35 0.999999954,13.14 0.999999954,13.97 L0.999999954,20 C0.999999954,21.66 2.33999996,23 3.99999995,23 L17.68,23 C18.33,23 18.93,22.53 19,21.88 C19.08,21.13 18.49,20.5 17.76,20.5 L12.5,20.5 C12.22,20.5 12,20.28 12,20 L12,20 C12,19.72 12.22,19.5 12.5,19.5 L19.68,19.5 C20.33,19.5 20.93,19.03 21,18.38 C21.08,17.63 20.49,17 19.76,17 L12.5,17 C12.22,17 12,16.78 12,16.5 L12,16.5 C12,16.22 12.22,16 12.5,16 L20.68,16 C21.33,16 21.93,15.53 22,14.88 C22.08,14.13 21.49,13.5 20.76,13.5 L12.5,13.5 C12.22,13.5 12,13.28 12,13 L12,13 C12,12.72 12.22,12.5 12.5,12.5 L18.68,12.5 C19.33,12.5 19.93,12.03 20,11.38 C20.08,10.63 19.49,9.99999999 18.76,9.99999999 L8.85999999,9.99999999 L10.35,7.38999998 C10.44,7.22999998 10.49,7.05999998 10.49,6.85999998 C10.49,6.59999998 10.4,6.35999998 10.23,6.15999998 L9.80999999,5.70999997 C9.42999999,5.31999997 8.79999999,5.29999997 8.39999998,5.67999997 L1.93999996,11.79 Z" id="path-1"></path>
    </defs>
    <g id="soap" stroke="none" stroke-width="1" fill="none" fill-rule="evenodd">
        <mask id="mask-2" fill="white">
            <use xlink:href="#path-1"></use>
        </mask>
        <use id="Combined-Shape" fill="#000000" xlink:href="#path-1"></use>
    </g>
</svg>