<?xml version="1.0" encoding="UTF-8"?>
<svg width="24px" height="24px" viewBox="0 0 24 24" version="1.1" xmlns="http://www.w3.org/2000/svg" xmlns:xlink="http://www.w3.org/1999/xlink">
    <title>sports_bar</title>
    <defs>
        <path d="M19,8.99999999 L17.44,8.99999999 C17.77,8.44999999 17.97,7.81999998 17.99,7.13999998 C18.03,6.10999998 17.56,5.14999997 16.83,4.42999997 C15.29,2.88999996 14.09,2.86999996 13.01,3.13999996 C12.2,2.44999996 11.16,2.01999996 9.99999996,2.01999996 C8.10999998,2.01999996 6.48999998,3.12999996 5.72999997,4.72999997 C4.14999997,5.25999997 2.99999996,6.73999998 2.99999996,8.49999999 C2.99999996,10.36 4.27999997,11.91 5.99999996,12.36 L5.99999996,19 C5.99999996,20.1 6.89999998,21 7.99999996,21 L15,21 C16.1,21 17,20.1 17,19 L17,19 L19,19 C20.1,19 21,18.1 21,17 L21,11 C21,9.89999999 20.1,8.99999999 19,8.99999999 Z M6.99999997,10.5 C5.89999997,10.5 4.99999997,9.59999999 4.99999997,8.49999999 C4.99999997,7.64999998 5.54999997,6.89999998 6.36999998,6.61999998 L7.16999998,6.34999998 L7.52999998,5.58999997 C7.99999997,4.61999997 8.93999999,4.01999997 9.99999997,4.01999997 C10.79,4.01999997 11.39,4.36999997 11.74,4.66999997 L12.52,5.31999997 C12.52,5.31999997 13.16,4.99999997 13.99,4.99999997 C15.09,4.99999997 15.99,5.89999997 15.99,6.99999998 C15.99,6.99999998 12.99,6.99999998 12.99,6.99999998 C9.66999999,6.99999998 9.14999999,10.5 6.99999997,10.5 Z M19,17 L17,17 L17,11 L19,11 L19,17 Z" id="path-1"></path>
    </defs>
    <g id="sports_bar" stroke="none" stroke-width="1" fill="none" fill-rule="evenodd">
        <mask id="mask-2" fill="white">
            <use xlink:href="#path-1"></use>
        </mask>
        <use id="Combined-Shape" fill="#000000" xlink:href="#path-1"></use>
    </g>
</svg>