<?xml version="1.0" encoding="UTF-8"?>
<svg width="24px" height="24px" viewBox="0 0 24 24" version="1.1" xmlns="http://www.w3.org/2000/svg" xmlns:xlink="http://www.w3.org/1999/xlink">
    <title>storefront</title>
    <defs>
        <path d="M21.9,8.88999999 L20.85,4.51999997 C20.63,3.61999997 19.85,2.99999996 18.94,2.99999996 L16.73,2.99999996 L14.72,2.99999996 L13,2.99999996 L11,2.99999996 L9.27999999,2.99999996 L7.25999998,2.99999996 L5.04999997,2.99999996 C4.14999997,2.99999996 3.35999996,3.62999997 3.14999996,4.51999997 L2.09999996,8.88999999 C1.85999996,9.90999999 2.07999996,10.95 2.71999996,11.77 C2.79999996,11.88 2.90999996,11.96 2.99999996,12.06 L2.99999996,19 C2.99999996,20.1 3.89999997,21 4.99999997,21 L19,21 C20.1,21 21,20.1 21,19 L21,12.06 C21.09,11.97 21.2,11.88 21.28,11.78 C21.92,10.96 22.15,9.90999999 21.9,8.88999999 Z M7.01999998,4.99999997 L6.43999998,9.85999999 C6.35999998,10.51 5.83999997,11 5.22999997,11 C4.73999997,11 4.42999997,10.71 4.29999997,10.53 C4.03999997,10.2 3.94999997,9.76999999 4.04999997,9.35999999 L5.04999997,4.99999997 L7.01999998,4.99999997 Z M18.91,4.98999997 L19.96,9.35999999 C20.06,9.77999999 19.97,10.2 19.71,10.53 C19.57,10.71 19.27,11 18.77,11 C18.16,11 17.63,10.51 17.56,9.85999999 L16.98,4.99999997 L18.91,4.98999997 Z M15.51,9.51999999 C15.56,9.90999999 15.44,10.3 15.18,10.59 C14.95,10.85 14.63,11 14.22,11 C13.55,11 13,10.41 13,9.68999999 L13,4.99999997 L14.96,4.99999997 L15.51,9.51999999 Z M11,9.68999999 C11,10.41 10.45,11 9.70999999,11 C9.36999999,11 9.05999999,10.85 8.81999999,10.59 C8.56999999,10.3 8.44999999,9.90999999 8.48999999,9.51999999 L9.03999999,4.99999997 L11,4.99999997 L11,9.68999999 Z M18,19 L5.99999997,19 C5.44999997,19 4.99999997,18.55 4.99999997,18 L4.99999997,12.97 C5.07999997,12.98 5.14999997,13 5.22999997,13 C6.09999998,13 6.88999998,12.64 7.46999998,12.05 C8.06999998,12.65 8.86999999,13 9.77999999,13 C10.65,13 11.43,12.64 12.01,12.07 C12.6,12.64 13.4,13 14.3,13 C15.14,13 15.94,12.65 16.54,12.05 C17.12,12.64 17.91,13 18.78,13 C18.86,13 18.93,12.98 19.01,12.97 L19.01,18 C19,18.55 18.55,19 18,19 Z" id="path-1"></path>
    </defs>
    <g id="storefront" stroke="none" stroke-width="1" fill="none" fill-rule="evenodd">
        <mask id="mask-2" fill="white">
            <use xlink:href="#path-1"></use>
        </mask>
        <use id="Combined-Shape" fill="#000000" xlink:href="#path-1"></use>
    </g>
</svg>