<?xml version="1.0" encoding="UTF-8"?>
<svg width="24px" height="24px" viewBox="0 0 24 24" version="1.1" xmlns="http://www.w3.org/2000/svg" xmlns:xlink="http://www.w3.org/1999/xlink">
    <title>tapas</title>
    <defs>
        <path d="M22,9.99999995 L22,1.99999995 C22,1.44999996 21.55,0.999999954 21,0.999999954 L15,0.999999954 C14.45,0.999999954 14,1.44999996 14,1.99999995 L14,9.99999995 C14,11.86 15.28,13.41 17,13.86 L17,21 L16,21 C15.45,21 15,21.45 15,22 L15,22 C15,22.55 15.45,23 16,23 L20,23 C20.55,23 21,22.55 21,22 L21,22 C21,21.45 20.55,21 20,21 L19,21 L19,13.86 C20.72,13.41 22,11.86 22,9.99999995 Z M20,2.99999996 L20,5.99999996 L16,5.99999996 L16,2.99999996 L20,2.99999996 Z M9.85999999,8.99999995 L7.99999998,8.99999995 L7.99999998,7.99999995 L9.85999999,7.99999995 C11.17,7.99999995 12.36,7.05999998 12.49,5.75999997 C12.64,4.25999997 11.47,2.99999995 9.99999999,2.99999995 L7.99999998,2.99999995 L7.99999998,1.99999995 C7.99999998,1.44999996 7.54999998,0.999999954 6.99999998,0.999999954 L6.99999998,0.999999954 C6.44999998,0.999999954 5.99999997,1.44999996 5.99999997,1.99999995 L5.99999997,2.99999995 L4.13999997,2.99999995 C2.82999996,2.99999995 1.63999996,3.93999997 1.50999996,5.23999997 C1.35999996,6.73999998 2.52999996,7.99999995 3.99999997,7.99999995 L5.99999997,7.99999995 L5.99999997,8.99999995 L4.13999997,8.99999995 C2.82999996,8.99999995 1.63999996,9.93999999 1.50999996,11.24 C1.35999996,12.74 2.52999996,14 3.99999997,14 L5.99999997,14 L5.99999997,22 C5.99999997,22.55 6.44999998,23 6.99999998,23 L6.99999998,23 C7.54999998,23 7.99999998,22.55 7.99999998,22 L7.99999998,14 L9.99999999,14 C11.47,14 12.64,12.74 12.49,11.24 C12.36,9.93999999 11.17,8.99999995 9.85999999,8.99999995 Z" id="path-1"></path>
    </defs>
    <g id="tapas" stroke="none" stroke-width="1" fill="none" fill-rule="evenodd">
        <mask id="mask-2" fill="white">
            <use xlink:href="#path-1"></use>
        </mask>
        <use id="Combined-Shape" fill="#000000" xlink:href="#path-1"></use>
    </g>
</svg>