<?xml version="1.0" encoding="UTF-8"?>
<svg width="24px" height="24px" viewBox="0 0 24 24" version="1.1" xmlns="http://www.w3.org/2000/svg" xmlns:xlink="http://www.w3.org/1999/xlink">
    <title>tty</title>
    <defs>
        <path d="M15,3.99999997 L15,3.99999997 C15.55,3.99999997 16,4.44999997 16,4.99999997 L16,4.99999997 C16,5.54999997 15.55,5.99999997 15,5.99999997 L15,5.99999997 C14.45,5.99999997 14,5.54999997 14,4.99999997 L14,4.99999997 C14,4.44999997 14.45,3.99999997 15,3.99999997 Z M14,6.99999998 L14,6.99999998 C14.55,6.99999998 15,7.44999998 15,7.99999998 L15,7.99999998 C15,8.54999999 14.55,8.99999998 14,8.99999998 L14,8.99999998 C13.45,8.99999998 13,8.54999999 13,7.99999998 L13,7.99999998 C13,7.44999998 13.45,6.99999998 14,6.99999998 Z M12,3.99999997 L12,3.99999997 C12.55,3.99999997 13,4.44999997 13,4.99999997 L13,4.99999997 C13,5.54999997 12.55,5.99999997 12,5.99999997 L12,5.99999997 C11.45,5.99999997 11,5.54999997 11,4.99999997 L11,4.99999997 C11,4.44999997 11.45,3.99999997 12,3.99999997 Z M17,8.99999998 L17,8.99999998 C16.45,8.99999998 16,8.54999999 16,7.99999998 L16,7.99999998 C16,7.44999998 16.45,6.99999998 17,6.99999998 L17,6.99999998 C17.55,6.99999998 18,7.44999998 18,7.99999998 L18,7.99999998 C18,8.54999999 17.55,8.99999998 17,8.99999998 Z M18,5.99999997 L18,5.99999997 C17.45,5.99999997 17,5.54999997 17,4.99999997 L17,4.99999997 C17,4.44999997 17.45,3.99999997 18,3.99999997 L18,3.99999997 C18.55,3.99999997 19,4.44999997 19,4.99999997 L19,4.99999997 C19,5.54999997 18.55,5.99999997 18,5.99999997 Z M20,8.99999998 L20,8.99999998 C19.45,8.99999998 19,8.54999999 19,7.99999998 L19,7.99999998 C19,7.44999998 19.45,6.99999998 20,6.99999998 L20,6.99999998 C20.55,6.99999998 21,7.44999998 21,7.99999998 L21,7.99999998 C21,8.54999999 20.55,8.99999998 20,8.99999998 Z M21,5.99999997 L21,5.99999997 C20.45,5.99999997 20,5.54999997 20,4.99999997 L20,4.99999997 C20,4.44999997 20.45,3.99999997 21,3.99999997 L21,3.99999997 C21.55,3.99999997 22,4.44999997 22,4.99999997 L22,4.99999997 C22,5.54999997 21.55,5.99999997 21,5.99999997 Z M14.62,14.38 L12.1,16.9 C9.59999999,15.47 7.52999998,13.4 6.09999998,10.9 L8.61999999,8.37999998 C8.85999999,8.13999998 8.95999999,7.79999998 8.89999999,7.47999998 L8.15999998,3.79999997 C8.06999998,3.33999996 7.65999998,2.99999996 7.17999998,2.99999996 L3.02999996,2.99999996 C2.46999996,2.99999996 1.99999996,3.46999996 2.02999996,4.02999997 C2.19999996,6.91999998 3.04999996,9.62999999 4.42999997,12 C6.00999998,14.73 8.27999998,16.99 11,18.57 C13.37,19.94 16.08,20.8 18.97,20.97 C19.53,21 20,20.53 20,19.97 L20,15.82 C20,15.34 19.66,14.93 19.2,14.84 L15.53,14.11 C15.2,14.04 14.86,14.14 14.62,14.38 Z M15,9.99999999 L15,9.99999999 C15.55,9.99999999 16,10.45 16,11 L16,11 C16,11.55 15.55,12 15,12 L15,12 C14.45,12 14,11.55 14,11 L14,11 C14,10.45 14.45,9.99999999 15,9.99999999 Z M12,9.99999999 L12,9.99999999 C12.55,9.99999999 13,10.45 13,11 L13,11 C13,11.55 12.55,12 12,12 L12,12 C11.45,12 11,11.55 11,11 L11,11 C11,10.45 11.45,9.99999999 12,9.99999999 Z M18,12 L18,12 C17.45,12 17,11.55 17,11 L17,11 C17,10.45 17.45,9.99999999 18,9.99999999 L18,9.99999999 C18.55,9.99999999 19,10.45 19,11 L19,11 C19,11.55 18.55,12 18,12 Z M21,12 L21,12 C20.45,12 20,11.55 20,11 L20,11 C20,10.45 20.45,9.99999999 21,9.99999999 L21,9.99999999 C21.55,9.99999999 22,10.45 22,11 L22,11 C22,11.55 21.55,12 21,12 Z" id="path-1"></path>
    </defs>
    <g id="tty" stroke="none" stroke-width="1" fill="none" fill-rule="evenodd">
        <mask id="mask-2" fill="white">
            <use xlink:href="#path-1"></use>
        </mask>
        <use id="Combined-Shape" fill="#000000" xlink:href="#path-1"></use>
    </g>
</svg>