<?xml version="1.0" encoding="UTF-8"?>
<svg width="24px" height="24px" viewBox="0 0 24 24" version="1.1" xmlns="http://www.w3.org/2000/svg" xmlns:xlink="http://www.w3.org/1999/xlink">
    <title>wash</title>
    <defs>
        <path d="M1.93999996,11.79 C1.33999996,12.35 0.999999954,13.14 0.999999954,13.97 L0.999999954,20 C0.999999954,21.66 2.33999996,23 3.99999995,23 L17.68,23 C18.33,23 18.93,22.53 19,21.88 C19.08,21.13 18.49,20.5 17.76,20.5 L12.5,20.5 C12.22,20.5 12,20.28 12,20 L12,20 C12,19.72 12.22,19.5 12.5,19.5 L19.68,19.5 C20.33,19.5 20.93,19.03 21,18.38 C21.08,17.63 20.49,17 19.76,17 L12.5,17 C12.22,17 12,16.78 12,16.5 L12,16.5 C12,16.22 12.22,16 12.5,16 L20.68,16 C21.33,16 21.93,15.53 22,14.88 C22.08,14.13 21.49,13.5 20.76,13.5 L12.5,13.5 C12.22,13.5 12,13.28 12,13 L12,13 C12,12.72 12.22,12.5 12.5,12.5 L18.68,12.5 C19.33,12.5 19.93,12.03 20,11.38 C20.08,10.63 19.49,9.99999999 18.76,9.99999999 L8.85999999,9.99999999 L10.35,7.38999998 C10.44,7.22999998 10.49,7.05999998 10.49,6.85999998 C10.49,6.59999998 10.4,6.35999998 10.23,6.15999998 L9.80999999,5.70999997 C9.42999999,5.31999997 8.79999999,5.29999997 8.39999998,5.67999997 L1.93999996,11.79 Z M18.5,7.99999998 C19.88,7.99999998 21,6.87999998 21,5.49999997 C21,4.24999997 19.59,2.33999996 18.89,1.45999996 C18.69,1.20999996 18.32,1.20999996 18.12,1.45999996 C17.41,2.33999996 16,4.24999997 16,5.49999997 C16,6.87999998 17.12,7.99999998 18.5,7.99999998 Z M13.5,8.99999999 C14.33,8.99999999 15,8.32999998 15,7.49999998 C15,6.93999998 14.33,6.00999998 13.89,5.45999997 C13.69,5.20999997 13.31,5.20999997 13.12,5.45999997 C12.67,6.00999998 12,6.93999998 12,7.49999998 C12,8.32999998 12.67,8.99999999 13.5,8.99999999 Z" id="path-1"></path>
    </defs>
    <g id="wash" stroke="none" stroke-width="1" fill="none" fill-rule="evenodd">
        <mask id="mask-2" fill="white">
            <use xlink:href="#path-1"></use>
        </mask>
        <use id="Combined-Shape" fill="#000000" xlink:href="#path-1"></use>
    </g>
</svg>