<svg width="500" height="112" viewBox="0 0 500 112" fill="none" xmlns="http://www.w3.org/2000/svg">
<g clip-path="url(#clip0_123_1099)">
<path d="M32.235 79.7685L38.8994 69.7804C39.9388 68.2247 42.1399 68.0068 43.4646 69.3276L64.6501 90.56L58.6345 96.5889C55.0441 100.187 49.2357 100.187 45.6453 96.5889L32.6052 83.52C31.6066 82.5191 31.4537 80.943 32.235 79.7685Z" fill="#1D1D1E"/>
<path d="M13.5802 52.1668L25.5401 52.96C27.4015 53.0826 28.6957 54.8868 28.2134 56.7013L20.4586 85.7055L12.2419 83.4996C7.3472 82.1787 4.43619 77.1404 5.75413 72.2247L10.5265 54.3728C10.8968 53.0009 12.1706 52.0851 13.5904 52.177L13.5802 52.1668Z" fill="#1D1D1E"/>
<path d="M28.1013 22.1855L33.3968 32.9668C34.2188 34.6485 33.3153 36.6672 31.5048 37.1506L2.56459 44.9225L0.363505 36.6876C-0.95443 31.7821 1.95657 26.7302 6.85127 25.4128L24.6638 20.6298C26.0327 20.2587 27.4729 20.9191 28.0979 22.1855H28.1013Z" fill="#1D1D1E"/>
<path d="M61.267 19.7821L54.6026 29.7702C53.5632 31.326 51.3621 31.5438 50.0374 30.223L28.8519 8.99063L34.8676 2.96169C38.4579 -0.636604 44.2663 -0.636604 47.8567 2.96169L60.8968 16.0306C61.8954 17.0315 62.0483 18.6076 61.267 19.7821Z" fill="#1D1D1E"/>
<path d="M79.932 47.3838L67.9721 46.5906C66.1107 46.4681 64.8165 44.6638 65.2989 42.8494L73.0536 13.8451L81.2703 16.0511C86.165 17.3719 89.076 22.4102 87.7581 27.326L82.9857 45.1779C82.6154 46.5498 81.3417 47.4655 79.9218 47.3736L79.932 47.3838Z" fill="#1D1D1E"/>
<path d="M65.411 77.3685L60.1155 66.5872C59.2935 64.9055 60.197 62.8868 62.0075 62.4034L90.9477 54.6315L93.1488 62.8664C94.4667 67.7719 91.5557 72.8238 86.661 74.1413L68.8485 78.9243C67.4796 79.2953 66.0394 78.6349 65.4144 77.3685H65.411Z" fill="#1D1D1E"/>
<path d="M152.303 87.7447C142.113 87.7447 133.451 84.2825 126.304 77.3651C119.158 70.4477 115.588 61.2664 115.588 49.8247C115.588 38.383 119.209 29.2732 126.457 22.2842C133.696 15.2953 142.286 11.8026 152.198 11.8026C160.951 11.8026 168.139 14.0289 173.784 18.4817C179.419 22.9345 183.132 28.5923 184.912 35.4349L178.957 37.4434C176.056 38.4238 172.891 37.1132 171.501 34.383C170.217 31.857 168.468 29.6715 166.247 27.8366C162.687 24.8885 158.01 23.4145 152.198 23.4145C145.7 23.4145 140.082 25.7225 135.333 30.3523C130.581 34.9787 128.207 41.474 128.207 49.8213C128.207 58.1685 130.56 64.3642 135.282 68.9906C140.003 73.617 145.669 75.9285 152.303 75.9285C157.979 75.9285 162.66 74.383 166.352 71.3021C168.685 69.3549 170.557 67.1081 171.967 64.5821C173.417 61.9745 176.471 60.7285 179.3 61.6545L185.224 63.5915C183.444 70.3728 179.701 76.0953 173.995 80.7523C168.288 85.4094 161.056 87.7413 152.306 87.7413L152.303 87.7447Z" fill="#1D1D1E"/>
<path d="M236.712 73.3379C235.19 77.2426 232.68 80.5107 229.205 83.149C225.275 86.1277 220.431 87.6221 214.694 87.6221C207.588 87.6221 201.552 85.1881 196.593 80.3234C191.637 75.4587 189.158 68.9566 189.158 60.8034C189.158 53.1336 191.562 46.8289 196.386 41.8894C201.209 36.9498 206.895 34.4885 213.458 34.4885C221.111 34.4885 227.096 36.8375 231.403 41.5285C235.713 46.2196 237.86 52.5481 237.86 60.4936C237.86 62.6179 237.758 63.8843 237.551 64.2962H201.043C201.175 68.0681 202.565 71.1796 205.197 73.6443C207.829 76.1089 210.988 77.3447 214.677 77.3447C219.049 77.3447 222.371 76.0034 224.654 73.3141C226.216 71.4792 228.798 70.8596 231.09 71.5813L236.695 73.3345H236.705L236.712 73.3379ZM201.365 55.5575H225.873C225.74 52.4051 224.63 49.7634 222.541 47.6426C220.452 45.5217 217.459 44.4562 213.573 44.4562C210.014 44.4562 207.147 45.5694 204.956 47.7958C202.765 50.0221 201.573 52.6094 201.365 55.5575Z" fill="#1D1D1E"/>
<path d="M498.791 73.3379C497.269 77.2426 494.759 80.5107 491.284 83.149C487.354 86.1277 482.51 87.6221 476.773 87.6221C469.667 87.6221 463.631 85.1881 458.672 80.3234C453.716 75.4587 451.236 68.9566 451.236 60.8034C451.236 53.1336 453.641 46.8289 458.465 41.8894C463.288 36.9532 468.974 34.4885 475.537 34.4885C483.189 34.4885 489.175 36.8375 493.482 41.5285C497.789 46.2196 499.939 52.5481 499.939 60.4936C499.939 62.6179 499.837 63.8843 499.63 64.2962H463.122C463.254 68.0681 464.643 71.1796 467.276 73.6443C469.908 76.1089 473.067 77.3447 476.756 77.3447C481.128 77.3447 484.45 76.0034 486.732 73.3141C488.295 71.4792 490.876 70.8596 493.169 71.5813L498.774 73.3345H498.784L498.791 73.3379ZM463.444 55.5575H487.952C487.819 52.4051 486.708 49.7634 484.619 47.6426C482.53 45.5183 479.538 44.4562 475.652 44.4562C472.092 44.4562 469.225 45.5694 467.035 47.7958C464.844 50.0221 463.651 52.6094 463.444 55.5575Z" fill="#1D1D1E"/>
<path d="M338.39 35.7991C335.727 35.7991 333.414 37.2323 332.126 39.3464C327.931 36.1191 322.921 34.4919 317.092 34.4919C309.905 34.4919 303.94 36.9974 299.229 41.9949C294.508 46.9923 292.154 53.3311 292.154 61.0111C292.154 68.6911 294.508 75.04 299.229 80.0783C303.95 85.12 309.905 87.6323 317.092 87.6323C322.469 87.6323 327.16 86.24 331.141 83.4689V86.3762C331.141 87.1898 331.111 87.9728 331.039 88.7149C330.34 97.1677 325.652 101.382 316.991 101.382C313.638 101.382 310.819 100.371 308.536 98.3421C306.705 96.7353 305.482 94.754 304.854 92.4255L293.849 95.3634C294.847 99.7345 297.262 103.455 301.097 106.516C305.469 110.009 310.866 111.751 317.296 111.751C326.05 111.751 332.507 109.307 336.681 104.412C339.922 100.599 341.906 96.0238 342.626 90.6825C342.843 89.1677 342.935 87.5915 342.935 85.9506V35.7889H338.39V35.7991ZM326.637 72.7183C324.025 75.5336 320.846 76.9328 317.082 76.9328C313.319 76.9328 310.139 75.5098 307.527 72.6672C304.915 69.8213 303.621 65.937 303.621 61.0008C303.621 56.0647 304.929 52.2179 307.527 49.4366C310.129 46.6655 313.319 45.2732 317.082 45.2732C320.846 45.2732 324.025 46.6655 326.637 49.4366C329.239 52.2077 330.544 56.0647 330.544 61.0008C330.544 65.937 329.236 69.9064 326.637 72.7183Z" fill="#1D1D1E"/>
<path d="M442.653 35.7991C439.99 35.7991 437.677 37.2323 436.389 39.3464C432.194 36.1191 427.184 34.4919 421.355 34.4919C414.168 34.4919 408.203 36.9974 403.492 41.9949C398.77 46.9923 396.417 53.3311 396.417 61.0111C396.417 68.6911 398.77 75.04 403.492 80.0783C408.213 85.12 414.168 87.6323 421.355 87.6323C426.732 87.6323 431.423 86.24 435.404 83.4689V86.3762C435.404 87.1898 435.374 87.9728 435.302 88.7149C434.603 97.1677 429.915 101.382 421.253 101.382C417.901 101.382 415.082 100.371 412.799 98.3421C410.968 96.7353 409.745 94.754 409.117 92.4255L398.111 95.3634C399.11 99.7345 401.525 103.455 405.36 106.516C409.732 110.009 415.129 111.751 421.559 111.751C430.313 111.751 436.77 109.307 440.944 104.412C444.185 100.599 446.169 96.0238 446.889 90.6825C447.106 89.1677 447.198 87.5915 447.198 85.9506V35.7889H442.653V35.7991ZM430.897 72.7183C428.285 75.5336 425.105 76.9328 421.342 76.9328C417.578 76.9328 414.399 75.5098 411.787 72.6672C409.175 69.8213 407.88 65.937 407.88 61.0008C407.88 56.0647 409.188 52.2179 411.787 49.4366C414.389 46.6655 417.578 45.2732 421.342 45.2732C425.105 45.2732 428.285 46.6655 430.897 49.4366C433.499 52.2077 434.803 56.0647 434.803 61.0008C434.803 65.937 433.495 69.9064 430.897 72.7183Z" fill="#1D1D1E"/>
<path d="M283.475 40.1396C280.401 36.4494 275.917 34.5941 270.044 34.5941C269.891 34.5941 269.735 34.5941 269.592 34.6043C269.511 34.6043 269.44 34.5941 269.355 34.5941C263.563 34.5941 258.587 36.2111 254.423 39.4383C254.402 39.4077 254.382 39.377 254.361 39.3464C254.29 39.2443 254.229 39.1387 254.144 39.0366C252.826 37.1404 250.679 35.8843 248.2 35.8843H243.685V36.0272V44.8409V86.0698H255.584V57.1915C255.584 53.7702 256.488 50.9345 258.298 48.7183C260.109 46.4919 262.649 45.3787 265.941 45.3787C269.49 45.3787 272.092 46.3898 273.726 48.4085C275.37 50.4273 276.185 53.12 276.185 56.4698V86.0596H288.084V54.4068C288.084 48.5821 286.552 43.823 283.468 40.1226L283.478 40.143L283.475 40.1396Z" fill="#1D1D1E"/>
<path d="M373.533 34.5838C373.336 34.5736 373.132 34.5532 372.914 34.5532C372.636 34.543 372.361 34.5226 372.072 34.5226C371.641 34.5123 371.189 34.5021 370.744 34.5021C370.374 34.5021 370.014 34.5021 369.653 34.5226C350.547 35.0672 349.755 49.9506 349.721 50.8085V50.8392L360.312 53.2392L361.114 50.8051C361.637 49.2494 362.483 47.8979 363.665 46.7745C365.445 45.0928 367.829 44.2587 370.842 44.2587C373.855 44.2587 376.345 44.96 377.918 46.3728C379.49 47.7753 380.272 49.6 380.272 51.8672C380.272 53.9166 379.039 55.1149 376.579 55.4655L364.073 57.3719L363.764 57.423C362.456 57.6204 361.213 57.8962 360.051 58.2672C357.211 59.1319 354.817 60.4834 352.843 62.3081C350.078 64.8749 348.699 68.286 348.699 72.5311C348.699 76.7762 350.251 80.1906 353.359 83.1694C356.474 86.1481 360.557 87.6426 365.618 87.6426C367.809 87.6426 369.813 87.3736 371.644 86.8596C375.438 86.2298 378.821 84.8204 381.783 82.6247C381.804 82.6553 381.824 82.6758 381.844 82.7064C381.885 82.7575 381.916 82.8085 381.956 82.8596C383.285 84.8068 385.506 86.097 388.033 86.097H392.578V50.8596C392.578 48.6026 391.59 35.8128 373.543 34.6145L373.533 34.5838ZM367.249 65.0213L380.268 63.0638V65.3209C380.268 69.9166 379.127 73.2153 376.834 75.2375C374.541 77.2562 371.559 78.2672 367.867 78.2672C365.615 78.2672 363.835 77.6272 362.541 76.3609C361.233 75.1047 360.588 73.5796 360.588 71.7957C360.588 68.034 362.809 65.7668 367.252 65.0145V65.0247L367.249 65.0213Z" fill="#1D1D1E"/>
</g>
<defs>
<clipPath id="clip0_123_1099">
<rect width="500" height="112" fill="white"/>
</clipPath>
</defs>
</svg>
