<svg width="32" height="32" viewBox="0 0 32 32" fill="none" xmlns="http://www.w3.org/2000/svg">
<path d="M16 0C7.17902 0 0 7.17625 0 16C0 24.8238 7.17624 32 16 32C24.8238 32 32 24.8238 32 16C32 7.17625 24.8238 0 16 0Z" fill="#00B1AB"/>
<path d="M22.0482 5.18698C21.9121 4.82303 21.6454 4.53409 21.2926 4.37295C19.6117 3.60338 17.8308 3.21164 16 3.21164C8.94597 3.21164 3.20886 8.94875 3.20886 16.0028C3.20886 17.8308 3.60059 19.6117 4.37017 21.2953C4.60633 21.8093 5.12586 22.1427 5.69263 22.1427C5.90378 22.1427 6.10659 22.0983 6.29829 22.0093C7.02619 21.676 7.34847 20.8119 7.01508 20.0812C6.42053 18.781 6.1177 17.4086 6.1177 16C6.1177 10.549 10.5518 6.1177 16 6.1177C17.4086 6.1177 18.781 6.42053 20.0785 7.01508C20.4313 7.17622 20.8258 7.19289 21.1898 7.05953C21.5537 6.9234 21.8454 6.65391 22.0094 6.30107C22.1705 5.94823 22.1872 5.55372 22.051 5.18976L22.0482 5.18698Z" fill="black"/>
<path d="M24.4292 7.57351C24.257 7.40126 23.9903 7.36514 23.7819 7.48183L13.4412 13.23C13.3523 13.2801 13.2801 13.3523 13.2301 13.4412L7.48185 23.7819C7.36516 23.993 7.40128 24.2597 7.57353 24.4292C7.67633 24.532 7.81246 24.5876 7.95693 24.5876C8.04861 24.5876 8.1403 24.5626 8.22087 24.5181L18.5616 18.7699C18.6505 18.7199 18.7255 18.6449 18.7727 18.5587L24.5209 8.21807C24.6376 8.00692 24.6015 7.74021 24.4292 7.57073V7.57351Z" fill="white"/>
<path d="M27.6298 10.7074C27.4686 10.3545 27.1769 10.0851 26.813 9.94892C26.449 9.81279 26.0545 9.82946 25.7017 9.99059C24.9737 10.324 24.6515 11.188 24.9849 11.9187C25.5794 13.2189 25.8822 14.5914 25.8822 16C25.8822 21.4509 21.4481 25.8822 16 25.8822C14.5914 25.8822 13.2189 25.5794 11.9187 24.9849C11.5659 24.8237 11.1714 24.8071 10.8074 24.9432C10.4435 25.0793 10.1545 25.3488 9.99338 25.6989C9.83224 26.0517 9.81556 26.4462 9.9517 26.8102C10.0878 27.1741 10.3573 27.4658 10.7102 27.627C12.391 28.3966 14.1719 28.7883 16.0027 28.7883C23.0567 28.7883 28.7939 23.0512 28.7939 15.9972C28.7939 14.1663 28.4021 12.3855 27.6325 10.7046L27.6298 10.7074Z" fill="black"/>
<path d="M16 14.6803C15.2721 14.6803 14.6803 15.2721 14.6803 16C14.6803 16.7279 15.2721 17.3196 16 17.3196C16.7279 17.3196 17.3196 16.7279 17.3196 16C17.3196 15.2721 16.7279 14.6803 16 14.6803Z" fill="black" stroke="black" stroke-width="1.20021" stroke-miterlimit="10"/>
</svg>
