<svg width="186" height="20" viewBox="0 0 186 20" fill="none" xmlns="http://www.w3.org/2000/svg">
<path d="M128.449 2.07069V15.9671H126.8V3.45793L121.98 15.9671H120.41L115.591 3.45793V15.9671H113.942V2.07069H116.827L121.209 13.4227L125.564 2.07069L128.449 2.07069Z" fill="#3942B0"/>
<path fill-rule="evenodd" clip-rule="evenodd" d="M130.821 2.07069V4.22022H132.45V2.07069H130.821ZM130.862 5.61089V15.9842L132.412 15.9671V5.61089H130.862Z" fill="#3942B0"/>
<path d="M143.58 15.9671H142.027V9.19572C142.027 7.62993 141.281 6.84703 139.789 6.84703C137.572 6.84703 136.257 8.25487 136.257 10.6619V15.9671H134.701V5.61088H136.25L136.643 6.8848C137.42 5.94636 138.583 5.4128 139.803 5.43576C141.352 5.43576 142.413 5.86841 142.902 6.63071C143.379 7.38342 143.612 8.26475 143.569 9.15451L143.58 15.9671Z" fill="#3942B0"/>
<path fill-rule="evenodd" clip-rule="evenodd" d="M153.508 2.07069V7.05993C152.738 5.99686 151.486 5.38852 150.172 5.4392C148.797 5.39991 147.472 5.95732 146.54 6.96722C145.582 7.99754 145.071 9.36384 145.119 10.7684C145.088 12.1709 145.601 13.5311 146.551 14.5661C147.462 15.5985 148.783 16.1776 150.162 16.1491C151.288 16.1751 152.374 15.7365 153.164 14.9369L153.508 15.9671H155.058V2.07069H153.508ZM153.605 10.7614C153.652 11.806 153.31 12.8311 152.644 13.6389C152.018 14.3705 151.095 14.7817 150.131 14.7583C149.163 14.7768 148.244 14.3327 147.659 13.5633C147.017 12.78 146.67 11.7973 146.678 10.7854C146.666 9.78228 147.014 8.80783 147.659 8.03845C148.262 7.29116 149.171 6.85652 150.133 6.85652C151.094 6.85652 152.004 7.29116 152.606 8.03845C153.257 8.79693 153.611 9.76358 153.605 10.7614Z" fill="#3942B0"/>
<path d="M167.224 3.53347H162.494V15.9636H160.845V3.53347H156.118V2.07069H167.224V3.53347Z" fill="#3942B0"/>
<path fill-rule="evenodd" clip-rule="evenodd" d="M173.211 15.967H174.388L174.385 15.6786C174.189 15.6786 174.089 15.5241 174.089 15.2082V9.23345C174.089 6.86416 172.873 5.43572 170.26 5.43572C169.404 5.43248 168.558 5.62636 167.789 6.00229C167.527 6.14379 167.283 6.31552 167.062 6.51392C166.843 6.67466 166.652 6.87079 166.498 7.09422L167.637 8.15182C168.271 7.31269 169.273 6.83157 170.326 6.86073C171.6 6.86073 172.581 7.4479 172.581 8.54327C172.581 9.09266 172.188 9.46351 171.579 9.61803C171.062 9.76234 170.528 9.83514 169.992 9.83435C168.574 9.83435 167.499 10.1297 166.852 10.734C166.224 11.2659 165.865 12.0481 165.871 12.8698C165.871 14.8854 167.203 16.1559 169.5 16.1559C170.656 16.1718 171.766 15.7035 172.56 14.8648V15.0674C172.56 15.6752 172.777 15.967 173.211 15.967ZM170.178 11.1324C171.431 11.1324 172.226 10.8577 172.57 10.2911V11.098C172.611 11.766 172.532 12.4357 172.336 13.0759C172.061 14.106 171.269 14.7344 169.548 14.7927C168.391 14.7927 167.644 14.0408 167.644 13.0106C167.622 12.5907 167.731 12.1743 167.957 11.8191C168.253 11.3659 169 11.1324 170.178 11.1324Z" fill="#3942B0"/>
<path fill-rule="evenodd" clip-rule="evenodd" d="M177.604 19.4902V14.5216C178.375 15.5903 179.634 16.1996 180.953 16.1423C182.319 16.1836 183.636 15.634 184.565 14.6349C185.529 13.6022 186.044 12.2305 185.997 10.82C186.022 9.41092 185.5 8.04667 184.541 7.01201C183.638 5.98004 182.323 5.3993 180.95 5.42562C179.824 5.40093 178.738 5.84073 177.948 6.64117L177.604 5.61105H176.055V19.4902H177.604ZM177.507 10.8235C177.454 9.78438 177.798 8.76379 178.468 7.9666V7.96316C179.092 7.23096 180.018 6.82368 180.981 6.8575C181.952 6.84579 182.87 7.29595 183.453 8.06961C184.091 8.84315 184.438 9.81484 184.434 10.8166C184.446 11.8198 184.098 12.7942 183.453 13.5636C182.845 14.3101 181.93 14.7417 180.966 14.7377C180.001 14.7337 179.091 14.2945 178.489 13.543C177.851 12.7799 177.503 11.8169 177.507 10.8235Z" fill="#3942B0"/>
<path d="M15.8115 5.02715L15.6669 4.3404V4.3404L15.5843 3.94209L15.0025 1.15045V1.15045L14.8579 0.463701C14.7915 0.186997 14.5406 -0.00605007 14.2554 0.000144901L11.6217 0.127194C11.4956 0.127914 11.3768 0.186049 11.299 0.285051C11.2212 0.384052 11.193 0.513074 11.2224 0.635388L11.5322 2.12563V2.12563L12.3378 6.00233C12.3641 6.12789 12.4422 6.23662 12.5528 6.30194C12.6635 6.36725 12.7966 6.38314 12.9196 6.34571L15.4328 5.63836C15.6966 5.56044 15.8596 5.29732 15.8115 5.02715Z" fill="#292F7C"/>
<path d="M11.9832 16.9252L12.6477 17.1587V17.1587L13.0298 17.296L15.7254 18.2437V18.2437L16.3899 18.4772C16.6562 18.5535 16.9403 18.4387 17.0784 18.1991L18.3384 15.8951C18.4033 15.7868 18.4153 15.6549 18.3712 15.5367C18.327 15.4185 18.2313 15.3268 18.1112 15.2873L16.6687 14.7825V14.7825L12.9403 13.4502C12.8195 13.4053 12.6852 13.4137 12.5709 13.4733C12.4567 13.5329 12.3732 13.6381 12.3413 13.7627L11.6527 16.2728C11.5757 16.5429 11.7195 16.8268 11.9832 16.9252Z" fill="#292F7C"/>
<path d="M8.89858 3.03901L8.2307 2.81582V2.81582L7.84512 2.6819L5.13917 1.76509V1.76509L4.47129 1.53846C4.20341 1.46474 3.91959 1.58222 3.78275 1.82346L2.53995 4.15154C2.47659 4.25997 2.46622 4.39129 2.5118 4.50827C2.55737 4.62525 2.65391 4.71514 2.77405 4.75245L4.22342 5.25034V5.25034L7.98283 6.52426C8.10418 6.56786 8.2384 6.55798 8.35201 6.49706C8.46563 6.43614 8.54793 6.32994 8.57841 6.20492L9.24285 3.68799C9.31457 3.4153 9.16496 3.13327 8.89858 3.03901V3.03901Z" fill="#292F7C"/>
<path d="M5.07032 14.7618L5.21147 15.4486V15.4486L5.29409 15.8469L5.86902 18.642V18.642L6.01017 19.3287C6.07655 19.6054 6.32745 19.7985 6.61264 19.7923L9.24629 19.6721C9.37253 19.6711 9.49152 19.6131 9.56981 19.5143C9.6481 19.4155 9.67726 19.2866 9.64908 19.1639L9.34269 17.6702V17.6702L8.54054 13.7901C8.51411 13.6653 8.4366 13.5573 8.32675 13.492C8.2169 13.4268 8.08472 13.4104 7.96217 13.4467L5.44901 14.1334C5.17852 14.2133 5.01409 14.4861 5.07032 14.7618Z" fill="#292F7C"/>
<path d="M3.738 7.95969L3.19061 8.41981V8.41981L2.88077 8.68421L0.715326 10.5384V10.5384L0.178267 10.9951C-0.0219454 11.1941 -0.0576565 11.5047 0.0922004 11.7437L1.46927 13.9859C1.53081 14.0961 1.63956 14.1721 1.76441 14.1922C1.88926 14.2123 2.01646 14.1742 2.10961 14.0889L3.26635 13.0966V13.0966L6.2787 10.5213C6.38143 10.4386 6.44338 10.3157 6.44866 10.1841C6.45393 10.0526 6.40202 9.92513 6.30624 9.83452L4.46096 7.99746C4.26459 7.80352 3.95362 7.78727 3.738 7.95969V7.95969Z" fill="#292F7C"/>
<path d="M17.0956 12.159L17.6499 11.7024V11.7024L17.9563 11.438L20.1252 9.5803V9.5803L20.6622 9.12361C20.8637 8.92525 20.8995 8.61375 20.7483 8.37505L19.3712 6.13625C19.3103 6.02553 19.2019 5.94878 19.077 5.92802C18.952 5.90726 18.8245 5.94477 18.7309 6.02981L17.5707 7.02216V7.02216L14.5515 9.6009C14.4487 9.68359 14.3868 9.80648 14.3815 9.93805C14.3762 10.0696 14.4281 10.197 14.5239 10.2877L16.3692 12.1178C16.5644 12.3164 16.8791 12.3342 17.0956 12.159V12.159Z" fill="#292F7C"/>
<path d="M35.6207 11.8775L37.5073 12.9728C36.5134 14.9806 34.4319 16.2209 32.1883 16.1422C30.3643 16.2 28.6091 15.4449 27.3996 14.0819C26.1653 12.6916 25.5102 10.8836 25.568 9.02747C25.5102 7.16375 26.1706 5.34878 27.4133 3.95582C28.6229 2.59284 30.3781 1.83773 32.2021 1.89558C34.4493 1.82499 36.5298 3.07278 37.521 5.08553L35.6344 6.18089C35.095 4.76983 33.7037 3.86778 32.1918 3.94896C30.9615 3.9037 29.7821 4.44094 29.0107 5.398C28.2008 6.43116 27.7837 7.71692 27.8333 9.02747C27.7875 10.3322 28.2044 11.6113 29.0107 12.6398C29.7846 13.594 30.9581 14.1368 32.1883 14.1094C33.6915 14.1678 35.0677 13.2729 35.6207 11.8775V11.8775Z" fill="#292F7C"/>
<path fill-rule="evenodd" clip-rule="evenodd" d="M40.8811 11.5822H48.8888L48.9025 10.6001C48.844 9.05493 48.3724 7.80161 47.4876 6.8642C46.577 5.89479 45.2858 5.37263 43.9554 5.43576C42.5486 5.37941 41.185 5.92693 40.2098 6.93974C39.2636 7.99756 38.7641 9.3792 38.8155 10.7958C38.8155 12.4406 39.2699 13.7489 40.1926 14.7103C41.1152 15.6718 42.3718 16.1388 43.9589 16.1388C45.7701 16.176 47.4685 15.2639 48.4343 13.7351L46.8473 12.7977C46.2792 13.7557 45.3187 14.2468 43.9416 14.2468C42.0585 14.2468 41.098 13.3849 40.8811 11.5822ZM43.9416 7.27969C45.5115 7.27969 46.6889 8.1965 46.9437 9.68331H40.9396C41.1883 8.24102 42.476 7.20996 43.9416 7.27969Z" fill="#292F7C"/>
<path d="M60.2875 15.9671H58.1496V9.64554C58.1496 7.90463 57.3061 7.27626 56.3456 7.27626C54.1871 7.27626 53.1061 8.7459 53.1061 11.7024V15.9671H50.9682V5.61432H53.1095L53.5398 6.64445C54.3192 5.87485 55.3694 5.43982 56.4661 5.43233C59.0171 5.43233 60.2909 6.7818 60.2909 9.50132L60.2875 15.9671Z" fill="#292F7C"/>
<path fill-rule="evenodd" clip-rule="evenodd" d="M67.2245 19.6722C70.2782 19.6722 72.1785 18.0996 72.1785 14.5971V5.63163H70.0406L69.748 6.41453C69.0748 5.79328 68.1898 5.45077 67.2727 5.45651C65.8906 5.40372 64.5629 5.99665 63.682 7.06007C62.7899 8.10756 62.3091 9.44233 62.329 10.8166C62.2963 12.208 62.7544 13.5666 63.6234 14.6555C64.4768 15.6981 65.7692 16.2835 67.1178 16.2385C68.5499 16.2385 69.5896 15.5517 70.0544 14.604C70.0544 16.7982 69.1524 17.794 67.1901 17.794C65.7166 17.794 64.5599 17.3853 63.7164 16.5819L62.3393 18.1854C63.379 19.1846 65.0074 19.6722 67.2245 19.6722ZM70.2093 10.7994C70.2417 11.6998 69.9648 12.5842 69.4244 13.3061H69.414C68.9045 13.9637 68.105 14.3316 67.2727 14.2915C66.4273 14.3506 65.6138 13.9587 65.1348 13.2614C64.674 12.5154 64.4418 11.6513 64.4669 10.7754C64.4669 8.80098 65.3104 7.31073 67.2727 7.31073C68.1133 7.2799 68.9149 7.66551 69.414 8.34086C69.9554 9.0444 70.2364 9.91296 70.2093 10.7994Z" fill="#292F7C"/>
<path fill-rule="evenodd" clip-rule="evenodd" d="M81.3395 15.9671H82.9128L82.9335 15.6203C82.7097 15.6203 82.5892 15.4829 82.5892 15.2082V9.2747C82.5892 6.78866 81.04 5.4392 78.5888 5.4392C76.9604 5.4392 75.4869 6.06414 74.6056 7.23848L75.9827 8.4506C76.5788 7.62481 77.5565 7.1599 78.575 7.21788C79.7524 7.21788 80.5752 7.86343 80.5752 8.57078C80.5752 9.19572 80.0588 9.52879 79.026 9.56656C78.0508 9.56292 77.0798 9.69467 76.141 9.95801C74.7674 10.3117 74.041 11.1736 73.9618 12.9522C73.9618 15.088 75.5902 16.1422 77.7901 16.1422C79.2016 16.1422 79.8488 15.7713 80.6337 14.9885C80.6337 15.6237 80.8713 15.9671 81.3395 15.9671ZM80.651 11.3281C80.7009 12.1371 80.5053 12.9424 80.0898 13.639C79.7145 14.1781 78.9847 14.4459 77.7866 14.4459C76.5886 14.4459 76.0963 13.6424 76.0963 12.9557C76.0963 11.9187 76.8055 11.3521 78.217 11.2937C78.2195 11.2937 78.2244 11.294 78.2316 11.2944C78.2838 11.2971 78.4594 11.3063 78.7678 11.2731C79.119 11.2354 79.3737 11.2354 79.5321 11.2354C79.866 11.177 80.4341 11.0396 80.651 10.7443V11.3281Z" fill="#292F7C"/>
<path fill-rule="evenodd" clip-rule="evenodd" d="M89.3885 19.6651C92.449 19.6651 94.3528 18.0993 94.3528 14.5969L94.37 5.61418H92.2321L91.9395 6.39707C91.2663 5.77582 90.3814 5.43331 89.4642 5.43906C88.0821 5.38573 86.7541 5.97877 85.8735 7.04262C84.9814 8.09011 84.5007 9.42488 84.5205 10.7991C84.4878 12.1905 84.9459 13.5492 85.815 14.6381C86.6611 15.6822 87.9465 16.2737 89.2921 16.2382C90.7242 16.2382 91.7639 15.5514 92.2184 14.5969C92.2184 16.791 91.3164 17.7868 89.3541 17.7868C87.8806 17.7868 86.7238 17.3782 85.8804 16.5747L84.5033 18.1783C85.543 19.1775 87.1714 19.6651 89.3885 19.6651ZM92.3836 10.7991C92.4161 11.6995 92.1391 12.5839 91.5987 13.3058H91.5884C91.0788 13.9634 90.2793 14.3313 89.447 14.2913C88.6016 14.3503 87.7881 13.9584 87.3091 13.2611C86.8483 12.5151 86.6161 11.651 86.6412 10.7751C86.6412 8.80069 87.4847 7.31045 89.447 7.31045C90.2876 7.27962 91.0892 7.66522 91.5884 8.34057C92.1297 9.04412 92.4107 9.91267 92.3836 10.7991Z" fill="#292F7C"/>
<path fill-rule="evenodd" clip-rule="evenodd" d="M98.4359 11.5822H106.444L106.426 10.6001C106.364 9.05493 105.896 7.80161 105.011 6.8642C104.101 5.89479 102.81 5.37263 101.479 5.43576C100.072 5.38019 98.7072 5.92751 97.7301 6.93974C96.7902 8.0002 96.2969 9.38154 96.353 10.7958C96.353 12.4406 96.8075 13.7489 97.7301 14.7103C98.6527 15.6718 99.9059 16.1388 101.496 16.1388C103.314 16.1821 105.02 15.2692 105.989 13.7351L104.402 12.7977C103.831 13.7557 102.873 14.2468 101.496 14.2468C99.6133 14.2468 98.6527 13.3849 98.4359 11.5822ZM101.496 7.27969C103.066 7.27969 104.244 8.1965 104.498 9.68331H98.4944C98.7431 8.24102 100.031 7.20996 101.496 7.27969Z" fill="#292F7C"/>
</svg>
