<?xml version="1.0" encoding="UTF-8"?>
<svg width="24px" height="24px" viewBox="0 0 24 24" version="1.1" xmlns="http://www.w3.org/2000/svg" xmlns:xlink="http://www.w3.org/1999/xlink">
    <title>dialer_sip</title>
    <defs>
        <path d="M16.5,7.99999996 C16.78,7.99999996 17,7.77999998 17,7.49999996 L17,3.49999996 C17,3.21999996 16.78,2.99999996 16.5,2.99999996 C16.22,2.99999996 16,3.21999996 16,3.49999996 L16,7.49999996 C16,7.77999998 16.22,7.99999996 16.5,7.99999996 Z M12.5,6.99999996 C12.22,6.99999996 12,7.21999998 12,7.49999996 C12,7.77999998 12.22,7.99999996 12.5,7.99999996 L14.45,7.99999996 C14.75,7.99999996 15,7.74999998 15,7.44999998 L15,5.54999997 C15,5.24999997 14.75,4.99999996 14.45,4.99999996 L13,4.99999996 L13,3.99999996 L14.5,3.99999996 C14.78,3.99999996 15,3.77999997 15,3.49999996 C15,3.21999996 14.78,2.99999996 14.5,2.99999996 L12.55,2.99999996 C12.25,2.99999996 12,3.24999996 12,3.54999996 L12,5.43999997 C12,5.74999997 12.25,5.99999996 12.55,5.99999996 L14,5.99999996 L14,6.99999996 L12.5,6.99999996 Z M20.45,2.99999996 L18.56,2.99999996 C18.25,2.99999996 18,3.24999996 18,3.54999996 L18,7.49999996 C18,7.77999998 18.22,7.99999996 18.5,7.99999996 C18.78,7.99999996 19,7.77999998 19,7.49999996 L19,5.99999996 L20.45,5.99999996 C20.75,5.99999996 21,5.74999997 21,5.44999997 L21,3.54999996 C21,3.24999996 20.75,2.99999996 20.45,2.99999996 Z M20,4.99999997 L19,4.99999997 L19,3.99999997 L20,3.99999997 L20,4.99999997 Z M19.21,15.27 L16.67,14.98 C16.06,14.91 15.46,15.12 15.03,15.55 L13.19,17.39 C10.36,15.95 8.03999998,13.64 6.59999998,10.8 L8.44999999,8.94999999 C8.87999999,8.51999999 9.08999999,7.90999998 9.01999999,7.30999998 L8.72999999,4.78999997 C8.61999999,3.77999997 7.75999998,3.00999996 6.74999998,3.00999996 L5.01999997,3.00999996 C3.88999997,3.00999996 2.94999996,3.94999997 3.01999996,5.07999997 C3.54999996,13.62 10.38,20.44 18.91,20.97 C20.04,21.04 20.9800963,20.1 20.9800963,18.97 L20.9800963,17.24 C20.99,16.24 20.22,15.38 19.21,15.27 Z" id="path-1"></path>
    </defs>
    <g id="dialer_sip" stroke="none" stroke-width="1" fill="none" fill-rule="evenodd">
        <mask id="mask-2" fill="white">
            <use xlink:href="#path-1"></use>
        </mask>
        <use id="Combined-Shape" fill="#000000" xlink:href="#path-1"></use>
    </g>
</svg>