<?xml version="1.0" encoding="UTF-8"?>
<svg width="24px" height="24px" viewBox="0 0 24 24" version="1.1" xmlns="http://www.w3.org/2000/svg" xmlns:xlink="http://www.w3.org/1999/xlink">
    <title>email</title>
    <defs>
        <path d="M20,3.99999997 L3.99999996,3.99999997 C2.89999996,3.99999997 2.00999996,4.89999997 2.00999996,5.99999997 L1.99999996,18 C1.99999996,19.1 2.89999996,20 3.99999996,20 L20,20 C21.1,20 22,19.1 22,18 L22,5.99999997 C22,4.89999997 21.1,3.99999997 20,3.99999997 Z M19.6,8.24999998 L12.53,12.67 C12.21,12.87 11.79,12.87 11.47,12.67 L4.39999997,8.24999998 C4.14999997,8.08999998 3.99999997,7.81999998 3.99999997,7.52999998 C3.99999997,6.85999998 4.72999997,6.45999998 5.29999997,6.80999998 L12,11 L18.7,6.80999998 C19.27,6.45999998 20,6.85999998 20,7.52999998 C20,7.81999998 19.85,8.08999998 19.6,8.24999998 Z" id="path-1"></path>
    </defs>
    <g id="email" stroke="none" stroke-width="1" fill="none" fill-rule="evenodd">
        <mask id="mask-2" fill="white">
            <use xlink:href="#path-1"></use>
        </mask>
        <use id="Combined-Shape" fill="#000000" xlink:href="#path-1"></use>
    </g>
</svg>