<?xml version="1.0" encoding="UTF-8"?>
<svg width="24px" height="24px" viewBox="0 0 24 24" version="1.1" xmlns="http://www.w3.org/2000/svg" xmlns:xlink="http://www.w3.org/1999/xlink">
    <title>mark_chat_read</title>
    <defs>
        <path d="M18.05,19.29 C17.66,19.68 17.03,19.68 16.64,19.29 L14.52,17.17 C14.13,16.78 14.13,16.15 14.52,15.76 L14.52,15.76 C14.91,15.37 15.54,15.37 15.93,15.76 L17.34,17.17 L20.88,13.63 C21.27,13.24 21.9,13.24 22.29,13.63 L22.29,13.63 C22.68,14.02 22.68,14.65 22.29,15.04 L18.05,19.29 Z M12,17 C12,13.13 15.13,9.99999996 19,9.99999996 C20.08,9.99999996 21.09,10.25 22,10.68 L22,3.99999996 C22,2.89999996 21.1,1.99999996 20,1.99999996 L3.99999996,1.99999996 C2.89999996,1.99999996 1.99999996,2.89999996 1.99999996,3.99999996 L1.99999996,22 L5.99999996,18 L12,18 L12,18 C12,17.83 12.01,17.67 12.03,17.5 C12.01,17.33 12,17.17 12,17 Z" id="path-1"></path>
    </defs>
    <g id="mark_chat_read" stroke="none" stroke-width="1" fill="none" fill-rule="evenodd">
        <mask id="mask-2" fill="white">
            <use xlink:href="#path-1"></use>
        </mask>
        <use id="Combined-Shape" fill="#000000" xlink:href="#path-1"></use>
    </g>
</svg>