<?xml version="1.0" encoding="UTF-8"?>
<svg width="24px" height="24px" viewBox="0 0 24 24" version="1.1" xmlns="http://www.w3.org/2000/svg" xmlns:xlink="http://www.w3.org/1999/xlink">
    <title>more_time</title>
    <defs>
        <path d="M11,3.99999997 C11.69,3.99999997 12.36,4.07999997 13,4.22999997 L13,4.22999997 L13,6.28999998 C12.37,6.09999998 11.7,5.99999997 11,5.99999997 C7.09999998,5.99999997 3.99999996,9.09999999 3.99999996,13 C3.99999996,16.9 7.09999998,20 11,20 C14.9,20 18,16.9 18,13 C18,12.66 17.97,12.33 17.92,12 L17.92,12 L19.94,12 C19.98,12.33 20,12.66 20,13 C20,18 16,22 11,22 C5.99999996,22 1.99999996,18 1.99999996,13 C1.99999996,7.99999997 5.99999996,3.99999997 11,3.99999997 Z M10.75,7.99999998 C11.16,7.99999998 11.5,8.33999998 11.5,8.74999999 L11.5,8.74999999 L11.5,13.3 L14.85,15.31 C15.2,15.52 15.31,15.98 15.08,16.32 C14.87,16.64 14.44,16.73 14.11,16.53 L14.11,16.53 L10.47,14.29 C10.18,14.11 9.99999999,13.79 9.99999999,13.44 L9.99999999,13.44 L9.99999999,8.74999999 C9.99999999,8.33999998 10.34,7.99999998 10.75,7.99999998 Z M19,1.99999996 C19.55,1.99999996 20,2.44999996 20,2.99999996 L20,2.99999996 L20,4.99999996 L22,4.99999996 C22.55,4.99999996 23,5.44999997 23,5.99999996 C23,6.54999998 22.55,6.99999996 22,6.99999996 L22,6.99999996 L20,6.99999996 L20,8.99999996 C20,9.54999999 19.55,9.99999996 19,9.99999996 C18.45,9.99999996 18,9.54999999 18,8.99999996 L18,8.99999996 L18,6.99999996 L16,6.99999996 C15.45,6.99999996 15,6.54999998 15,5.99999996 C15,5.44999997 15.45,4.99999996 16,4.99999996 L16,4.99999996 L18,4.99999996 L18,2.99999996 C18,2.44999996 18.45,1.99999996 19,1.99999996 Z" id="path-1"></path>
    </defs>
    <g id="more_time" stroke="none" stroke-width="1" fill="none" fill-rule="evenodd">
        <mask id="mask-2" fill="white">
            <use xlink:href="#path-1"></use>
        </mask>
        <use id="Combined-Shape" fill="#000000" xlink:href="#path-1"></use>
    </g>
</svg>