<?xml version="1.0" encoding="UTF-8"?>
<svg width="24px" height="24px" viewBox="0 0 24 24" version="1.1" xmlns="http://www.w3.org/2000/svg" xmlns:xlink="http://www.w3.org/1999/xlink">
    <title>nat</title>
    <defs>
        <path d="M6.00119701,2.0548207 L6.11999998,2.05999996 C10.79,2.57999996 14.48,6.30999998 14.95,11 L14.95,11 L19,11 L19,8.99999999 L22.47,11.6 C22.74,11.8 22.74,12.2 22.47,12.4 L22.47,12.4 L19,15 L19,13 L14.94,13 C14.48,17.69 10.78,21.42 6.10999998,21.94 C5.51999997,22.01 4.99999997,21.54 4.99999997,20.94 L4.99999997,20.94 L5.00645878,20.8259946 C5.05769228,20.3760355 5.40846151,20.0053846 5.86999997,19.95 C9.87999999,19.52 13,16.13 13,12 C13,7.86999998 9.87999999,4.47999997 5.86999997,4.04999997 C5.36999997,3.98999997 4.99999997,3.55999996 4.99999997,3.05999996 L4.99999997,3.05999996 L5.00680293,2.94197922 C5.06968886,2.40097774 5.55999997,2.00399996 6.11999998,2.05999996 Z M3.99999995,8.99999999 C5.29999997,8.99999999 6.39999998,9.83999999 6.81999998,11 L6.81999998,11 L11,11 L11,13 L6.81999998,13 C6.39999998,14.16 5.29999997,15 3.99999995,15 C2.33999996,15 0.999999954,13.66 0.999999954,12 C0.999999954,10.34 2.33999996,8.99999999 3.99999995,8.99999999 Z M3.99999996,11 C3.44999996,11 2.99999996,11.45 2.99999996,12 C2.99999996,12.55 3.44999996,13 3.99999996,13 C4.54999997,13 4.99999996,12.55 4.99999996,12 C4.99999996,11.45 4.54999997,11 3.99999996,11 Z" id="path-1"></path>
    </defs>
    <g id="nat" stroke="none" stroke-width="1" fill="none" fill-rule="evenodd">
        <mask id="mask-2" fill="white">
            <use xlink:href="#path-1"></use>
        </mask>
        <use id="Combined-Shape" fill="#000000" xlink:href="#path-1"></use>
    </g>
</svg>