<?xml version="1.0" encoding="UTF-8"?>
<svg width="24px" height="24px" viewBox="0 0 24 24" version="1.1" xmlns="http://www.w3.org/2000/svg" xmlns:xlink="http://www.w3.org/1999/xlink">
    <title>phonelink_setup</title>
    <defs>
        <path d="M6.99999998,2.99999995 L6.99999998,4.99999995 C6.99999998,5.54999997 7.44999998,5.99999995 7.99999998,5.99999995 C8.54999999,5.99999995 8.99999998,5.54999997 8.99999998,4.99999995 L8.99999998,3.99999995 L19,3.99999995 L19,20 L8.99999998,20 L8.99999998,19 C8.99999998,18.45 8.54999999,18 7.99999998,18 C7.44999998,18 6.99999998,18.45 6.99999998,19 L6.99999998,21 C6.99999998,22.1 7.89999998,23 8.99999998,23 L19,23 C20.1,23 21,22.1 21,21 L21,2.99999995 C21,1.89999996 20.1,0.999999954 19,0.999999954 L8.99999998,0.999999954 C7.89999998,0.999999954 6.99999998,1.89999996 6.99999998,2.99999995 Z M9.49999999,15.5 C9.78999999,15.38 10.05,15.21 10.3,15.02 L10.28,15.05 L11.29,15.44 C11.52,15.53 11.78,15.44 11.9,15.22 L12.74,13.76 C12.86,13.55 12.81,13.27 12.62,13.12 L11.77,12.44 L11.75,12.47 C11.77,12.31 11.8,12.15 11.8,11.99 C11.8,11.83 11.77,11.67 11.75,11.51 L11.77,11.54 L12.62,10.86 C12.81,10.71 12.86,10.43 12.74,10.22 L11.9,8.75999999 C11.78,8.54999999 11.52,8.44999999 11.29,8.53999999 L10.28,8.92999999 L10.3,8.95999999 C10.05,8.78999999 9.78999999,8.61999999 9.49999999,8.49999998 L9.32999999,7.41999998 C9.29999999,7.17999998 9.08999999,6.99999998 8.83999999,6.99999998 L7.15999998,6.99999998 C6.90999998,6.99999998 6.69999998,7.17999998 6.66999998,7.41999998 L6.49999998,8.49999998 C6.20999998,8.61999999 5.94999997,8.78999999 5.69999997,8.97999999 L5.71999997,8.94999999 L4.69999997,8.55999999 C4.46999997,8.46999999 4.20999997,8.55999999 4.08999997,8.77999999 L3.24999996,10.24 C3.12999996,10.45 3.17999996,10.73 3.36999996,10.88 L4.21999997,11.56 L4.23999997,11.53 C4.21999997,11.68 4.18999997,11.84 4.18999997,12 C4.18999997,12.16 4.21999997,12.32 4.23999997,12.48 L4.21999997,12.45 L3.36999996,13.13 C3.17999996,13.28 3.12999996,13.56 3.24999996,13.77 L4.08999997,15.23 C4.20999997,15.44 4.46999997,15.54 4.69999997,15.45 L5.70999997,15.06 L5.69999997,15.02 C5.94999997,15.21 6.20999998,15.38 6.49999998,15.5 L6.66999998,16.57 C6.69999998,16.82 6.90999998,17 7.15999998,17 L8.83999999,17 C9.08999999,17 9.29999999,16.82 9.32999999,16.58 L9.49999999,15.5 L9.49999999,15.5 Z M5.99999997,12 C5.99999997,10.9 6.89999998,9.99999999 7.99999997,9.99999999 C9.09999999,9.99999999 9.99999997,10.9 9.99999997,12 C9.99999997,13.1 9.09999999,14 7.99999997,14 C6.89999998,14 5.99999997,13.1 5.99999997,12 Z" id="path-1"></path>
    </defs>
    <g id="phonelink_setup" stroke="none" stroke-width="1" fill="none" fill-rule="evenodd">
        <mask id="mask-2" fill="white">
            <use xlink:href="#path-1"></use>
        </mask>
        <use id="Combined-Shape" fill="#000000" xlink:href="#path-1"></use>
    </g>
</svg>