<?xml version="1.0" encoding="UTF-8"?>
<svg width="24px" height="24px" viewBox="0 0 24 24" version="1.1" xmlns="http://www.w3.org/2000/svg" xmlns:xlink="http://www.w3.org/1999/xlink">
    <title>portable_wifi_off</title>
    <defs>
        <path d="M2.70999996,3.06999996 C2.31999996,3.45999996 2.31999996,4.08999997 2.70999996,4.47999997 L4.09999997,5.86999997 C2.78999996,7.56999998 1.99999996,9.68999999 1.99999996,12 C1.99999996,15.3 3.59999997,18.22 6.05999998,20.04 C6.53999998,20.39 7.21999998,20.25 7.51999998,19.73 C7.76999998,19.3 7.65999998,18.74 7.25999998,18.44 C5.28999997,16.98 3.99999996,14.65 3.99999996,12 C3.99999996,10.24 4.56999997,8.61999999 5.52999997,7.30999998 L6.95999998,8.74999999 C6.35999998,9.67999999 5.99999996,10.8 5.99999996,12 C5.99999996,13.8 6.79999998,15.41 8.05999998,16.51 C8.51999999,16.91 9.24999999,16.76 9.55999999,16.23 L9.56999999,16.22 C9.80999999,15.8 9.69999999,15.28 9.33999999,14.96 C8.51999999,14.23 7.99999996,13.18 7.99999996,12 C7.99999996,11.35 8.16999998,10.75 8.43999999,10.21 L10.02,11.79 L9.99999996,12 C9.99999996,13.1 10.9,14 12,14 L12.21,13.98 L19.02,20.79 C19.41,21.18 20.04,21.18 20.43,20.79 C20.82,20.4 20.82,19.77 20.43,19.38 L4.12999997,3.06999996 C3.73999997,2.67999996 3.09999996,2.67999996 2.70999996,3.06999996 Z M17.71,13.82 C17.89,13.25 18,12.63 18,12 C18,8.68999999 15.31,5.99999997 12,5.99999997 C11.37,5.99999997 10.75,6.10999998 10.18,6.28999998 L11.9,8.00999998 C11.93,8.00999998 11.96,7.99999997 12,7.99999997 C14.21,7.99999997 16,9.78999999 16,12 C16,12.04 15.99,12.07 15.99,12.11 L17.71,13.82 Z M12,3.99999996 C16.42,3.99999996 20,7.57999998 20,12 C20,13.2 19.71,14.32 19.23,15.35 L20.72,16.84 C21.53,15.4 22,13.76 22,12 C22,6.47999998 17.52,1.99999996 12,1.99999996 C10.24,1.99999996 8.59999999,2.47999996 7.15999998,3.27999996 L8.63999999,4.75999997 C9.65999998,4.27999997 10.8,3.99999996 12,3.99999996 Z" id="path-1"></path>
    </defs>
    <g id="portable_wifi_off" stroke="none" stroke-width="1" fill="none" fill-rule="evenodd">
        <mask id="mask-2" fill="white">
            <use xlink:href="#path-1"></use>
        </mask>
        <use id="Combined-Shape" fill="#000000" xlink:href="#path-1"></use>
    </g>
</svg>