<?xml version="1.0" encoding="UTF-8"?>
<svg width="24px" height="24px" viewBox="0 0 24 24" version="1.1" xmlns="http://www.w3.org/2000/svg" xmlns:xlink="http://www.w3.org/1999/xlink">
    <title>qr_code</title>
    <defs>
        <path d="M8.99999996,13 C10.1,13 11,13.9 11,15 L11,15 L11,19 C11,20.1 10.1,21 8.99999996,21 L8.99999996,21 L4.99999996,21 C3.89999997,21 2.99999996,20.1 2.99999996,19 L2.99999996,19 L2.99999996,15 C2.99999996,13.9 3.89999997,13 4.99999996,13 L4.99999996,13 Z M20.5,19 C20.78,19 21,19.22 21,19.5 L21,19.5 L21,20.5 C21,20.78 20.78,21 20.5,21 L20.5,21 L19.5,21 C19.22,21 19,20.78 19,20.5 L19,20.5 L19,19.5 C19,19.22 19.22,19 19.5,19 L19.5,19 Z M16.5,19 C16.78,19 17,19.22 17,19.5 L17,19.5 L17,20.5 C17,20.78 16.78,21 16.5,21 L16.5,21 L15.5,21 C15.22,21 15,20.78 15,20.5 L15,20.5 L15,19.5 C15,19.22 15.22,19 15.5,19 L15.5,19 Z M8.99999997,15 L4.99999997,15 L4.99999997,19 L8.99999997,19 L8.99999997,15 Z M14.5,17 C14.78,17 15,17.22 15,17.5 L15,17.5 L15,18.5 C15,18.78 14.78,19 14.5,19 L14.5,19 L13.5,19 C13.22,19 13,18.78 13,18.5 L13,18.5 L13,17.5 C13,17.22 13.22,17 13.5,17 L13.5,17 Z M18.5,17 C18.78,17 19,17.22 19,17.5 L19,17.5 L19,18.5 C19,18.78 18.78,19 18.5,19 L18.5,19 L17.5,19 C17.22,19 17,18.78 17,18.5 L17,18.5 L17,17.5 C17,17.22 17.22,17 17.5,17 L17.5,17 Z M16.5,15 C16.78,15 17,15.22 17,15.5 L17,15.5 L17,16.5 C17,16.78 16.78,17 16.5,17 L16.5,17 L15.5,17 C15.22,17 15,16.78 15,16.5 L15,16.5 L15,15.5 C15,15.22 15.22,15 15.5,15 L15.5,15 Z M20.5,15 C20.78,15 21,15.22 21,15.5 L21,15.5 L21,16.5 C21,16.78 20.78,17 20.5,17 L20.5,17 L19.5,17 C19.22,17 19,16.78 19,16.5 L19,16.5 L19,15.5 C19,15.22 19.22,15 19.5,15 L19.5,15 Z M14.5,13 C14.78,13 15,13.22 15,13.5 L15,13.5 L15,14.5 C15,14.78 14.78,15 14.5,15 L14.5,15 L13.5,15 C13.22,15 13,14.78 13,14.5 L13,14.5 L13,13.5 C13,13.22 13.22,13 13.5,13 L13.5,13 Z M18.5,13 C18.78,13 19,13.22 19,13.5 L19,13.5 L19,14.5 C19,14.78 18.78,15 18.5,15 L18.5,15 L17.5,15 C17.22,15 17,14.78 17,14.5 L17,14.5 L17,13.5 C17,13.22 17.22,13 17.5,13 L17.5,13 Z M8.99999996,2.99999996 C10.1,2.99999996 11,3.89999997 11,4.99999996 L11,4.99999996 L11,8.99999996 C11,10.1 10.1,11 8.99999996,11 L8.99999996,11 L4.99999996,11 C3.89999997,11 2.99999996,10.1 2.99999996,8.99999996 L2.99999996,8.99999996 L2.99999996,4.99999996 C2.99999996,3.89999997 3.89999997,2.99999996 4.99999996,2.99999996 L4.99999996,2.99999996 Z M19,2.99999996 C20.1,2.99999996 21,3.89999997 21,4.99999996 L21,4.99999996 L21,8.99999996 C21,10.1 20.1,11 19,11 L19,11 L15,11 C13.9,11 13,10.1 13,8.99999996 L13,8.99999996 L13,4.99999996 C13,3.89999997 13.9,2.99999996 15,2.99999996 L15,2.99999996 Z M8.99999997,4.99999997 L4.99999997,4.99999997 L4.99999997,8.99999997 L8.99999997,8.99999997 L8.99999997,4.99999997 Z M19,4.99999997 L15,4.99999997 L15,8.99999997 L19,8.99999997 L19,4.99999997 Z" id="path-1"></path>
    </defs>
    <g id="qr_code" stroke="none" stroke-width="1" fill="none" fill-rule="evenodd">
        <mask id="mask-2" fill="white">
            <use xlink:href="#path-1"></use>
        </mask>
        <use id="Combined-Shape" fill="#000000" xlink:href="#path-1"></use>
    </g>
</svg>