<?xml version="1.0" encoding="UTF-8"?>
<svg width="24px" height="24px" viewBox="0 0 24 24" version="1.1" xmlns="http://www.w3.org/2000/svg" xmlns:xlink="http://www.w3.org/1999/xlink">
    <title>ring_volume</title>
    <defs>
        <path d="M11.98,6.99999996 L12.01,6.99999996 C12.56,6.99999996 13,6.55999998 13,6.01999998 L13,2.97999996 C13,2.43999996 12.56,1.99999996 12.02,1.99999996 L11.99,1.99999996 C11.44,1.99999996 11,2.43999996 11,2.97999996 L11,6.00999998 C11,6.55999998 11.44,6.99999996 11.98,6.99999996 Z M16.9,9.10999999 C17.29,9.49999999 17.91,9.49999999 18.3,9.10999999 C18.92,8.47999999 19.82,7.56999998 20.45,6.93999998 C20.84,6.55999998 20.84,5.92999997 20.45,5.54999997 C20.07,5.16999997 19.44,5.16999997 19.06,5.54999997 L16.89,7.69999998 C16.5,8.07999998 16.5,8.70999999 16.89,9.08999999 L16.9,9.10999999 L16.9,9.10999999 Z M5.70999997,9.09999999 C6.08999998,9.48999999 6.71999998,9.48999999 7.10999998,9.09999999 C7.48999998,8.71999999 7.48999998,8.08999998 7.10999998,7.70999998 L4.95999997,5.53999997 C4.57999997,5.14999997 3.94999997,5.14999997 3.56999996,5.53999997 L3.54999996,5.54999997 C3.15999996,5.93999997 3.15999996,6.55999998 3.54999996,6.93999998 C4.17999997,7.55999998 5.08999997,8.46999999 5.70999997,9.09999999 L5.70999997,9.09999999 Z M23.29,16.23 C16.88,10.57 7.21999998,10.57 0.809999953,16.23 C-0.0400000502,16.98 -0.0400000502,18.31 0.759999953,19.11 L1.97999996,20.33 C2.69999996,21.05 3.83999997,21.11 4.63999997,20.48 L6.63999998,18.89 C7.11999998,18.51 7.39999998,17.93 7.39999998,17.32 L7.39999998,14.72 C10.42,13.74 13.69,13.73 16.72,14.72 L16.72,17.33 C16.72,17.94 17,18.52 17.48,18.9 L19.47,20.48 C20.27,21.11 21.41,21.05 22.13,20.33 L23.35,19.11 C24.1400001,18.31 24.1400001,16.98 23.29,16.23 Z" id="path-1"></path>
    </defs>
    <g id="ring_volume" stroke="none" stroke-width="1" fill="none" fill-rule="evenodd">
        <mask id="mask-2" fill="white">
            <use xlink:href="#path-1"></use>
        </mask>
        <use id="Combined-Shape" fill="#000000" xlink:href="#path-1"></use>
    </g>
</svg>