<?xml version="1.0" encoding="UTF-8"?>
<svg width="24px" height="24px" viewBox="0 0 24 24" version="1.1" xmlns="http://www.w3.org/2000/svg" xmlns:xlink="http://www.w3.org/1999/xlink">
    <title>speaker_phone</title>
    <defs>
        <path d="M7.75999998,7.82999998 L7.77999998,7.84999998 C8.12999998,8.19999998 8.66999999,8.22999998 9.07999999,7.93999998 C9.90999999,7.36999998 10.92,7.01999998 12,7.01999998 C13.08,7.01999998 14.09,7.36999998 14.92,7.94999998 C15.32,8.23999998 15.87,8.20999998 16.22,7.85999998 L16.24,7.83999998 C16.66,7.41999998 16.63,6.69999998 16.15,6.34999998 C14.98,5.49999997 13.55,4.99999997 12,4.99999997 C10.45,4.99999997 9.01999999,5.49999997 7.85999998,6.33999998 C7.36999998,6.68999998 7.33999998,7.40999998 7.75999998,7.82999998 Z M12,0.999999954 C9.37999999,0.999999954 6.96999998,1.92999996 5.07999997,3.46999996 C4.61999997,3.83999997 4.56999997,4.52999997 4.99999997,4.95999997 C5.35999997,5.31999997 5.92999997,5.34999997 6.31999998,5.02999997 C7.85999998,3.75999997 9.84999999,2.99999995 12,2.99999995 C14.15,2.99999995 16.14,3.75999997 17.69,5.02999997 C18.08,5.34999997 18.65,5.31999997 19.01,4.95999997 C19.43,4.53999997 19.39,3.84999997 18.93,3.46999996 C17.03,1.92999996 14.62,0.999999954 12,0.999999954 Z M14.86,10.01 L9.13999999,9.99999999 C8.50999999,9.99999999 7.99999998,10.51 7.99999998,11.14 L7.99999998,20.85 C7.99999998,21.48 8.50999999,21.99 9.13999999,21.99 L14.85,21.99 C15.48,21.99 15.99,21.48 15.99,20.85 L15.99,11.14 C16,10.51 15.49,10.01 14.86,10.01 L14.86,10.01 Z M15,20 L8.99999999,20 L8.99999999,12 L15,12 L15,20 Z" id="path-1"></path>
    </defs>
    <g id="speaker_phone" stroke="none" stroke-width="1" fill="none" fill-rule="evenodd">
        <mask id="mask-2" fill="white">
            <use xlink:href="#path-1"></use>
        </mask>
        <use id="Combined-Shape" fill="#000000" xlink:href="#path-1"></use>
    </g>
</svg>