<?xml version="1.0" encoding="UTF-8"?>
<svg width="24px" height="24px" viewBox="0 0 24 24" version="1.1" xmlns="http://www.w3.org/2000/svg" xmlns:xlink="http://www.w3.org/1999/xlink">
    <title>brightness_high</title>
    <defs>
        <path d="M20,8.68999999 L20,5.99999997 C20,4.89999997 19.1,3.99999997 18,3.99999997 L15.31,3.99999997 L13.41,2.09999996 C12.63,1.31999996 11.36,1.31999996 10.58,2.09999996 L8.68999999,3.99999997 L5.99999997,3.99999997 C4.89999997,3.99999997 3.99999997,4.89999997 3.99999997,5.99999997 L3.99999997,8.68999999 L2.09999996,10.59 C1.31999996,11.37 1.31999996,12.64 2.09999996,13.42 L3.99999997,15.32 L3.99999997,18 C3.99999997,19.1 4.89999997,20 5.99999997,20 L8.68999999,20 L10.59,21.9 C11.37,22.68 12.64,22.68 13.42,21.9 L15.32,20 L18,20 C19.1,20 20,19.1 20,18 L20,15.31 L21.9,13.41 C22.68,12.63 22.68,11.36 21.9,10.58 L20,8.68999999 Z M12,18 C8.68999999,18 5.99999997,15.31 5.99999997,12 C5.99999997,8.68999999 8.68999999,5.99999997 12,5.99999997 C15.31,5.99999997 18,8.68999999 18,12 C18,15.31 15.31,18 12,18 Z M12,7.99999998 C9.78999999,7.99999998 7.99999998,9.78999999 7.99999998,12 C7.99999998,14.21 9.78999999,16 12,16 C14.21,16 16,14.21 16,12 C16,9.78999999 14.21,7.99999998 12,7.99999998 Z" id="path-1"></path>
    </defs>
    <g id="brightness_high" stroke="none" stroke-width="1" fill="none" fill-rule="evenodd">
        <mask id="mask-2" fill="white">
            <use xlink:href="#path-1"></use>
        </mask>
        <use id="Combined-Shape" fill="#000000" xlink:href="#path-1"></use>
    </g>
</svg>