<?xml version="1.0" encoding="UTF-8"?>
<svg width="24px" height="24px" viewBox="0 0 24 24" version="1.1" xmlns="http://www.w3.org/2000/svg" xmlns:xlink="http://www.w3.org/1999/xlink">
    <title>developer_mode</title>
    <defs>
        <path d="M6.99999997,4.99999995 L17,4.99999995 L17,5.99999995 C17,6.54999998 17.45,6.99999995 18,6.99999995 C18.55,6.99999995 19,6.54999998 19,5.99999995 L19,2.99999995 C19,1.89999996 18.1,1.00999995 17,1.00999995 L6.99999997,0.999999954 C5.89999997,0.999999954 4.99999997,1.89999996 4.99999997,2.99999995 L4.99999997,5.99999995 C4.99999997,6.54999998 5.44999997,6.99999995 5.99999997,6.99999995 C6.54999998,6.99999995 6.99999997,6.54999998 6.99999997,5.99999995 L6.99999997,4.99999995 Z M16.12,15.88 L19.29,12.71 C19.68,12.32 19.68,11.69 19.29,11.3 L16.12,8.12999998 C15.73,7.73999998 15.09,7.73999998 14.7,8.12999998 C14.31,8.51999999 14.31,9.14999999 14.7,9.53999999 L17.17,12 L14.7,14.47 C14.31,14.86 14.31,15.49 14.7,15.88 C15.09,16.27 15.73,16.27 16.12,15.88 L16.12,15.88 Z M9.28999999,14.46 L6.82999998,12 L9.28999999,9.53999999 C9.67999999,9.14999999 9.67999999,8.51999999 9.28999999,8.12999998 C8.89999999,7.73999998 8.25999998,7.73999998 7.86999998,8.12999998 L4.69999997,11.3 C4.30999997,11.69 4.30999997,12.32 4.69999997,12.71 L7.86999998,15.88 C8.25999998,16.27 8.89999999,16.27 9.28999999,15.88 C9.68999999,15.49 9.67999999,14.85 9.28999999,14.46 L9.28999999,14.46 Z M17,19 L6.99999997,19 L6.99999997,18 C6.99999997,17.45 6.54999998,17 5.99999997,17 C5.44999997,17 4.99999997,17.45 4.99999997,18 L4.99999997,21 C4.99999997,22.1 5.89999997,23 6.99999997,23 L17,23 C18.1,23 19,22.1 19,21 L19,18 C19,17.45 18.55,17 18,17 C17.45,17 17,17.45 17,18 L17,19 Z" id="path-1"></path>
    </defs>
    <g id="developer_mode" stroke="none" stroke-width="1" fill="none" fill-rule="evenodd">
        <mask id="mask-2" fill="white">
            <use xlink:href="#path-1"></use>
        </mask>
        <use id="Combined-Shape" fill="#000000" xlink:href="#path-1"></use>
    </g>
</svg>