<?xml version="1.0" encoding="UTF-8"?>
<svg width="24px" height="24px" viewBox="0 0 24 24" version="1.1" xmlns="http://www.w3.org/2000/svg" xmlns:xlink="http://www.w3.org/1999/xlink">
    <title>nfc</title>
    <defs>
        <path d="M20,1.99999996 L3.99999996,1.99999996 C2.89999996,1.99999996 1.99999996,2.89999996 1.99999996,3.99999996 L1.99999996,20 C1.99999996,21.1 2.89999996,22 3.99999996,22 L20,22 C21.1,22 22,21.1 22,20 L22,3.99999996 C22,2.89999996 21.1,1.99999996 20,1.99999996 Z M19,20 L4.99999997,20 C4.44999997,20 3.99999997,19.55 3.99999997,19 L3.99999997,4.99999997 C3.99999997,4.44999997 4.44999997,3.99999997 4.99999997,3.99999997 L19,3.99999997 C19.55,3.99999997 20,4.44999997 20,4.99999997 L20,19 C20,19.55 19.55,20 19,20 Z M16,5.99999997 L13,5.99999997 C11.9,5.99999997 11,6.89999998 11,7.99999997 L11,10.28 C10.4,10.63 9.99999997,11.26 9.99999997,12 C9.99999997,13.1 10.9,14 12,14 C13.1,14 14,13.1 14,12 C14,11.26 13.6,10.62 13,10.28 L13,7.99999997 L16,7.99999997 L16,15 C16,15.55 15.55,16 15,16 L8.99999997,16 C8.44999999,16 7.99999997,15.55 7.99999997,15 L7.99999997,7.99999997 L8.99999997,7.99999997 C9.54999999,7.99999997 9.99999997,7.54999998 9.99999997,6.99999997 C9.99999997,6.44999998 9.54999999,5.99999997 8.99999997,5.99999997 L7.99999997,5.99999997 C6.89999998,5.99999997 5.99999997,6.89999998 5.99999997,7.99999997 L5.99999997,16 C5.99999997,17.1 6.89999998,18 7.99999997,18 L16,18 C17.1,18 18,17.1 18,16 L18,7.99999997 C18,6.89999998 17.1,5.99999997 16,5.99999997 Z" id="path-1"></path>
    </defs>
    <g id="nfc" stroke="none" stroke-width="1" fill="none" fill-rule="evenodd">
        <mask id="mask-2" fill="white">
            <use xlink:href="#path-1"></use>
        </mask>
        <use id="Combined-Shape" fill="#000000" xlink:href="#path-1"></use>
    </g>
</svg>