<?xml version="1.0" encoding="UTF-8"?>
<svg width="24px" height="24px" viewBox="0 0 24 24" version="1.1" xmlns="http://www.w3.org/2000/svg" xmlns:xlink="http://www.w3.org/1999/xlink">
    <title>screen_rotation</title>
    <defs>
        <path d="M10.23,1.74999996 C9.63999999,1.15999995 8.68999999,1.15999995 8.10999998,1.74999996 L1.74999996,8.10999998 C1.15999995,8.69999999 1.15999995,9.64999999 1.74999996,10.23 L13.77,22.25 C14.36,22.84 15.31,22.84 15.89,22.25 L22.25,15.89 C22.84,15.3 22.84,14.35 22.25,13.77 L10.23,1.74999996 Z M14.12,20.48 L3.51999996,9.87999999 C3.12999996,9.48999999 3.12999996,8.85999999 3.51999996,8.46999999 L8.46999999,3.51999996 C8.85999999,3.12999996 9.48999999,3.12999996 9.87999999,3.51999996 L20.49,14.13 C20.88,14.52 20.88,15.15 20.49,15.54 L15.54,20.49 C15.15,20.87 14.51,20.87 14.12,20.48 Z M17.61,1.39999996 C16.04,0.569999952 14.06,-0.0300000501 11.81,0.0199999501 C11.63,0.0199999501 11.55,0.239999951 11.67,0.369999952 L15.15,3.84999997 L16.48,2.51999996 C19.57,3.97999997 21.82,6.88999998 22.37,10.38 C22.43,10.79 22.81,11.07 23.23,11 C23.64,10.94 23.92,10.55 23.85,10.14 C23.25,6.33999998 20.89,3.13999996 17.61,1.39999996 Z M8.84999999,20.16 L7.51999998,21.49 C4.42999997,20.03 2.17999996,17.12 1.62999996,13.63 C1.56999996,13.22 1.18999995,12.94 0.769999953,13.01 C0.359999952,13.07 0.0799999503,13.46 0.149999951,13.87 C0.749999953,17.68 3.10999996,20.88 6.38999998,22.62 C7.95999998,23.45 9.93999999,24.0500001 12.19,24 C12.37,24 12.45,23.78 12.33,23.65 L8.84999999,20.16 L8.84999999,20.16 Z" id="path-1"></path>
    </defs>
    <g id="screen_rotation" stroke="none" stroke-width="1" fill="none" fill-rule="evenodd">
        <mask id="mask-2" fill="white">
            <use xlink:href="#path-1"></use>
        </mask>
        <use id="Combined-Shape" fill="#000000" xlink:href="#path-1"></use>
    </g>
</svg>