<?xml version="1.0" encoding="UTF-8"?>
<svg width="24px" height="24px" viewBox="0 0 24 24" version="1.1" xmlns="http://www.w3.org/2000/svg" xmlns:xlink="http://www.w3.org/1999/xlink">
    <title>screen_lock_rotation</title>
    <defs>
        <path d="M22.3,13.77 L20.44,11.9 C20.05,11.51 19.42,11.51 19.03,11.9 C18.64,12.29 18.64,12.92 19.03,13.31 L20.54,14.83 L14.88,20.49 L3.55999996,9.16999999 L9.21999999,3.50999996 L10.62,4.90999997 C11.01,5.29999997 11.64,5.29999997 12.03,4.90999997 C12.42,4.51999997 12.42,3.88999997 12.03,3.49999996 L10.28,1.74999996 C9.68999999,1.15999995 8.73999999,1.15999995 8.15999998,1.74999996 L1.79999996,8.10999998 C1.20999996,8.69999999 1.20999996,9.64999999 1.79999996,10.23 L13.82,22.25 C14.41,22.84 15.36,22.84 15.94,22.25 L22.3,15.89 C22.89,15.3 22.89,14.35 22.3,13.77 Z M15.05,9.99999995 L20.05,9.99999995 C20.6,9.99999995 21.05,9.54999999 21.05,8.99999995 L21.05,4.99999995 C21.05,4.44999997 20.6,3.99999995 20.05,3.99999995 L20.05,3.49999995 C20.05,2.11999996 18.93,0.999999954 17.55,0.999999954 C16.17,0.999999954 15.05,2.11999996 15.05,3.49999995 L15.05,3.99999995 C14.5,3.99999995 14.05,4.44999997 14.05,4.99999995 L14.05,8.99999995 C14.05,9.54999999 14.5,9.99999995 15.05,9.99999995 Z M15.85,3.49999996 C15.85,2.55999996 16.61,1.79999996 17.55,1.79999996 C18.49,1.79999996 19.25,2.55999996 19.25,3.49999996 L19.25,3.99999997 L15.85,3.99999997 L15.85,3.49999996 L15.85,3.49999996 Z M8.84999999,20.15 L7.51999998,21.48 C4.42999997,20.02 2.17999996,17.11 1.62999996,13.62 C1.56999996,13.21 1.18999995,12.93 0.769999953,13 C0.359999952,13.06 0.0799999503,13.45 0.149999951,13.86 C0.749999953,17.67 3.10999996,20.87 6.38999998,22.61 C7.95999998,23.44 9.93999999,24.0400001 12.19,23.99 C12.37,23.99 12.45,23.77 12.33,23.64 L8.84999999,20.15 Z" id="path-1"></path>
    </defs>
    <g id="screen_lock_rotation" stroke="none" stroke-width="1" fill="none" fill-rule="evenodd">
        <mask id="mask-2" fill="white">
            <use xlink:href="#path-1"></use>
        </mask>
        <use id="Combined-Shape" fill="#000000" xlink:href="#path-1"></use>
    </g>
</svg>