<?xml version="1.0" encoding="UTF-8"?>
<svg width="24px" height="24px" viewBox="0 0 24 24" version="1.1" xmlns="http://www.w3.org/2000/svg" xmlns:xlink="http://www.w3.org/1999/xlink">
    <title>usb</title>
    <defs>
        <path d="M18,6.99999998 L16,6.99999998 C15.45,6.99999998 15,7.44999998 15,7.99999998 L15,9.99999999 C15,10.55 15.45,11 16,11 L16,13 L13,13 L13,4.99999997 L14,4.99999997 C14.41,4.99999997 14.65,4.52999997 14.4,4.19999997 L12.4,1.52999996 C12.2,1.25999996 11.8,1.25999996 11.6,1.52999996 L9.59999999,4.19999997 C9.34999999,4.52999997 9.58999999,4.99999997 9.99999999,4.99999997 L11,4.99999997 L11,13 L7.99999998,13 L7.99999998,10.93 C8.82999999,10.49 9.37999999,9.56999999 9.13999999,8.49999999 C8.96999999,7.72999998 8.36999998,7.09999998 7.61999998,6.88999998 C6.14999998,6.47999998 4.79999997,7.58999998 4.79999997,8.99999999 C4.79999997,9.84999999 5.29999997,10.56 5.99999997,10.93 L5.99999997,13 C5.99999997,14.1 6.89999998,15 7.99999998,15 L11,15 L11,18.05 C10.14,18.5 9.60999999,19.47 9.86999999,20.54 C10.05,21.29 10.66,21.92 11.41,22.12 C12.87,22.51 14.21,21.42 14.21,20 C14.21,19.15 13.72,18.42 13.01,18.05 L13.01,15 L16.01,15 C17.11,15 18.01,14.1 18.01,13 L18.01,11 C18.56,11 19.01,10.55 19.01,9.99999999 L19.01,7.99999998 C19,7.44999998 18.55,6.99999998 18,6.99999998 Z" id="path-1"></path>
    </defs>
    <g id="usb" stroke="none" stroke-width="1" fill="none" fill-rule="evenodd">
        <mask id="mask-2" fill="white">
            <use xlink:href="#path-1"></use>
        </mask>
        <use id="Combined-Shape" fill="#000000" xlink:href="#path-1"></use>
    </g>
</svg>