<?xml version="1.0" encoding="UTF-8"?>
<svg width="24px" height="24px" viewBox="0 0 24 24" version="1.1" xmlns="http://www.w3.org/2000/svg" xmlns:xlink="http://www.w3.org/1999/xlink">
    <title>wallpaper</title>
    <defs>
        <path d="M3.99999996,4.99999996 C3.99999996,4.44999997 4.44999997,3.99999996 4.99999996,3.99999996 L9.99999996,3.99999996 C10.55,3.99999996 11,3.54999996 11,2.99999996 C11,2.44999996 10.55,1.99999996 9.99999996,1.99999996 L3.99999996,1.99999996 C2.89999996,1.99999996 1.99999996,2.89999996 1.99999996,3.99999996 L1.99999996,9.99999996 C1.99999996,10.55 2.44999996,11 2.99999996,11 C3.54999996,11 3.99999996,10.55 3.99999996,9.99999996 L3.99999996,4.99999996 Z M9.60999999,13.49 L6.64999998,17.19 C6.38999998,17.52 6.61999998,18 7.03999998,18 L17,18 C17.41,18 17.65,17.53 17.4,17.2 L15.4,14.53 C15.2,14.26 14.8,14.26 14.6,14.53 L12.97,16.71 L10.39,13.49 C10.19,13.24 9.80999999,13.24 9.60999999,13.49 Z M17,8.49999998 C17,7.66999998 16.33,6.99999998 15.5,6.99999998 C14.67,6.99999998 14,7.66999998 14,8.49999998 C14,9.32999999 14.67,9.99999998 15.5,9.99999998 C16.33,9.99999998 17,9.32999999 17,8.49999998 Z M20,1.99999996 L14,1.99999996 C13.45,1.99999996 13,2.44999996 13,2.99999996 C13,3.54999996 13.45,3.99999996 14,3.99999996 L19,3.99999996 C19.55,3.99999996 20,4.44999997 20,4.99999996 L20,9.99999996 C20,10.55 20.45,11 21,11 C21.55,11 22,10.55 22,9.99999996 L22,3.99999996 C22,2.89999996 21.1,1.99999996 20,1.99999996 Z M20,19 C20,19.55 19.55,20 19,20 L14,20 C13.45,20 13,20.45 13,21 C13,21.55 13.45,22 14,22 L20,22 C21.1,22 22,21.1 22,20 L22,14 C22,13.45 21.55,13 21,13 C20.45,13 20,13.45 20,14 L20,19 Z M2.99999996,13 C2.44999996,13 1.99999996,13.45 1.99999996,14 L1.99999996,20 C1.99999996,21.1 2.89999996,22 3.99999996,22 L9.99999996,22 C10.55,22 11,21.55 11,21 C11,20.45 10.55,20 9.99999996,20 L4.99999996,20 C4.44999997,20 3.99999996,19.55 3.99999996,19 L3.99999996,14 C3.99999996,13.45 3.54999996,13 2.99999996,13 Z" id="path-1"></path>
    </defs>
    <g id="wallpaper" stroke="none" stroke-width="1" fill="none" fill-rule="evenodd">
        <mask id="mask-2" fill="white">
            <use xlink:href="#path-1"></use>
        </mask>
        <use id="Combined-Shape" fill="#000000" xlink:href="#path-1"></use>
    </g>
</svg>