<?xml version="1.0" encoding="UTF-8"?>
<svg width="24px" height="24px" viewBox="0 0 24 24" version="1.1" xmlns="http://www.w3.org/2000/svg" xmlns:xlink="http://www.w3.org/1999/xlink">
    <title>wifi_tethering</title>
    <defs>
        <path d="M12,11 C10.9,11 9.99999999,11.9 9.99999999,13 C9.99999999,14.1 10.9,15 12,15 C13.1,15 14,14.1 14,13 C14,11.9 13.1,11 12,11 Z M18,13 C18,9.43999999 14.89,6.59999998 11.25,7.04999998 C8.62999999,7.36999998 6.46999998,9.45999999 6.06999998,12.07 C5.73999997,14.22 6.55999998,16.18 7.99999998,17.47 C8.47999999,17.9 9.22999999,17.8 9.55999999,17.24 L9.56999999,17.23 C9.80999999,16.81 9.70999999,16.3 9.34999999,15.97 C8.31999998,15.04 7.75999998,13.6 8.12999998,12.03 C8.45999999,10.61 9.60999999,9.45999999 11.03,9.11999999 C13.65,8.48999999 16,10.47 16,13 C16,14.18 15.48,15.23 14.67,15.96 C14.31,16.28 14.2,16.8 14.44,17.22 L14.45,17.23 C14.76,17.76 15.48,17.92 15.95,17.51 C17.2,16.41 18,14.8 18,13 Z M10.83,3.06999996 C6.20999998,3.58999996 2.47999996,7.39999998 2.04999996,12.03 C1.69999996,15.73 3.36999996,19.05 6.06999998,21.04 C6.54999998,21.39 7.22999998,21.24 7.52999998,20.73 C7.77999998,20.3 7.66999998,19.74 7.26999998,19.44 C4.98999997,17.75 3.61999997,14.89 4.10999997,11.74 C4.64999997,8.23999998 7.56999998,5.44999997 11.09,5.05999997 C15.91,4.50999997 20,8.27999998 20,13 C20,15.65 18.71,17.98 16.73,19.44 C16.33,19.74 16.22,20.29 16.47,20.73 C16.77,21.25 17.45,21.39 17.93,21.04 C20.4,19.22 22,16.3 22,13 C22,7.08999998 16.87,2.37999996 10.83,3.06999996 Z" id="path-1"></path>
    </defs>
    <g id="wifi_tethering" stroke="none" stroke-width="1" fill="none" fill-rule="evenodd">
        <mask id="mask-2" fill="white">
            <use xlink:href="#path-1"></use>
        </mask>
        <use id="Combined-Shape" fill="#000000" xlink:href="#path-1"></use>
    </g>
</svg>