<?xml version="1.0" encoding="UTF-8"?>
<svg width="24px" height="24px" viewBox="0 0 24 24" version="1.1" xmlns="http://www.w3.org/2000/svg" xmlns:xlink="http://www.w3.org/1999/xlink">
    <title>cc_amex</title>
    <defs>
        <path d="M1.24052863,9.77105432 L2.16727992,9.77105432 L1.6983636,8.64600508 L1.24052863,9.77105432 Z M7.70795786,15.2487435 L8.47840371,14.425807 L7.74936714,13.6028705 L6.05158677,13.6028705 L6.05158677,14.1131961 L7.53065616,14.1131961 L7.53065616,14.6859273 L6.05158677,14.6859273 L6.05158677,15.2481603 L7.70737463,15.2481603 L7.70795786,15.2487435 Z M9.35383082,14.4368884 L10.3849801,15.5823506 L10.3849801,13.3223373 L9.35383082,14.4368884 Z M12.3533789,13.9469758 C12.3533789,13.7179611 12.2145703,13.6034538 11.9369532,13.6034538 L11.0621093,13.6034538 L11.0621093,14.3219922 L11.9264551,14.3219922 C12.2110709,14.3219922 12.3533789,14.1969867 12.3533789,13.9469758 Z M15.3628419,13.9055665 C15.3628419,13.704158 15.2170345,13.6034538 14.9254199,13.6034538 L14.0715723,13.6034538 L14.0715723,14.2385904 L14.9149218,14.2385904 C15.2135352,14.2385904 15.3628419,14.1275825 15.3628419,13.9055665 L15.3628419,13.9055665 Z M12.4676918,9.05193265 C12.4676918,8.85052414 12.3218845,8.74981989 12.0302699,8.74981989 L11.1764222,8.74981989 L11.1764222,9.37445843 L12.0197718,9.37445843 C12.3183851,9.37445843 12.4676918,9.26675542 12.4676918,9.05134942 L12.4676918,9.05193265 Z M17.2478388,9.77105432 L18.1745901,9.77105432 L17.7161719,8.64600508 L17.2478388,9.77105432 Z M7.28103404,8.15667574 L7.28103404,10.9789221 L6.59340675,10.9789221 L6.59340675,8.77081615 L5.61416483,10.9789221 L5.02043744,10.9789221 L4.04119552,8.77081615 L4.04119552,10.9789221 L2.66652416,10.9789221 L2.40640391,10.3542836 L1.00023818,10.3542836 L0.740117927,10.9789221 L0.0110813559,10.9789221 L1.21894915,8.15667574 L2.21860409,8.15667574 L3.36406635,10.8331148 L3.36406635,8.15667574 L4.46811934,8.15667574 L5.35346135,10.0731671 L6.15540158,8.15667574 L7.28045081,8.15667574 L7.28103404,8.15667574 Z M13.0719173,13.9469758 C13.0719173,14.0857844 13.0528652,14.2072905 13.0147609,14.3114941 C12.9766566,14.4156977 12.9280541,14.5024045 12.8689536,14.5716143 C12.809853,14.6408242 12.7317003,14.6981751 12.6344954,14.743667 C12.5372905,14.7891588 12.4470844,14.8239582 12.363877,14.848065 C12.2806696,14.8721718 12.171217,14.8877246 12.0355189,14.8947233 C11.8998209,14.9017221 11.7903682,14.9052215 11.7071609,14.9052215 C11.6239535,14.9052215 11.5111958,14.9034718 11.3688879,14.8999724 C11.22658,14.896473 11.124126,14.8947233 11.0615261,14.8947233 L11.0615261,15.8424709 L9.74926026,15.8424709 L8.91582565,14.9052215 L8.05147989,15.8424709 L5.38553896,15.8424709 L5.38553896,13.0202245 L8.0934724,13.0202245 L8.926907,13.9469758 L9.78075464,13.0202245 L11.93637,13.0202245 C12.6930127,13.0202245 13.0713341,13.3291416 13.0713341,13.9469758 L13.0719173,13.9469758 Z M10.0408749,10.3956929 L10.0408749,10.9789221 L7.78086151,10.9789221 L7.78086151,8.15667574 L10.0408749,8.15667574 L10.0408749,8.75040312 L8.45799068,8.75040312 L8.45799068,9.26072872 L9.99946561,9.26072872 L9.99946561,9.83345985 L8.45799068,9.83345985 L8.45799068,10.3956929 L10.0408749,10.3956929 L10.0408749,10.3956929 Z M23.9969678,16.2174873 L23.9969678,18.6023117 C23.9969678,18.9841325 23.8632139,19.3122961 23.595706,19.5868027 C23.3281982,19.8613093 23.0035339,19.9983682 22.6217132,19.9979802 L1.37525459,19.9979802 C0.993433834,19.9979802 0.668769548,19.8609205 0.401261729,19.5868027 C0.13375391,19.312685 0,18.9845213 0,18.6023117 L0,11.5411551 L1.15596039,11.5411551 L1.41608064,10.9060185 L1.98881177,10.9060185 L2.24893201,11.5411551 L4.51944351,11.5411551 L4.51944351,11.0623239 L4.71715823,11.5411551 L5.89411487,11.5411551 L6.10232771,11.0518258 L6.10232771,11.5411551 L11.7369056,11.5411551 L11.7369056,10.5100058 L11.8413036,10.4995077 C11.9109023,10.4995077 11.9457016,10.5481101 11.9457016,10.645315 L11.9457016,11.5411551 L14.8513498,11.5411551 L14.8513498,11.3014479 C15.0111546,11.3846553 15.202065,11.4470608 15.4240809,11.4886645 C15.6460969,11.5302682 15.8284532,11.5528197 15.97115,11.5563191 C16.1138467,11.5598185 16.3325577,11.5580688 16.6272829,11.55107 C16.9220081,11.5440713 17.100865,11.5405719 17.1638538,11.5405719 L17.423974,10.9054352 L18.0072033,10.9054352 L18.2673236,11.5405719 L20.631735,11.5405719 L20.631735,10.9363464 L20.9857551,11.5405719 L22.8812502,11.5405719 L22.8812502,7.6037744 L21.0067514,7.6037744 L21.0067514,8.0621926 L20.7466311,7.6037744 L18.8196417,7.6037744 L18.8196417,8.0621926 L18.5799344,7.6037744 L15.9868972,7.6037744 C15.5078715,7.6037744 15.1295502,7.68017744 14.851933,7.8329835 L14.851933,7.6037744 L13.060836,7.6037744 L13.060836,7.8329835 C12.8940324,7.68017744 12.6405221,7.6037744 12.300305,7.6037744 L5.75997214,7.6037744 L5.31205207,8.61392748 L4.864132,7.6037744 L2.80183335,7.6037744 L2.80183335,8.0621926 L2.57262425,7.6037744 L0.812438355,7.6037744 L0,9.46777511 L0,5.39566844 C0,5.01384768 0.13375391,4.68568402 0.401261729,4.41117745 C0.668769548,4.13667088 0.993433834,3.99961201 1.37525459,4 L22.6217132,4 C23.0035339,4 23.3281982,4.1370597 23.595706,4.41117745 C23.8632139,4.6852952 23.9969678,5.01345886 23.9969678,5.39566844 L23.9969678,12.456825 L22.7471075,12.456825 C22.3928929,12.456825 22.1117764,12.5332281 21.903758,12.6860341 L21.903758,12.456825 L20.0601703,12.456825 C19.6783495,12.456825 19.4075367,12.5332281 19.2477319,12.6860341 L19.2477319,12.456825 L15.9565692,12.456825 L15.9565692,12.6860341 C15.7411632,12.5332281 15.4390505,12.456825 15.050231,12.456825 L12.8736194,12.456825 L12.8736194,12.6860341 C12.7138146,12.5332281 12.3978987,12.456825 11.9258718,12.456825 L9.48855678,12.456825 L8.92632378,13.0610506 L8.40550005,12.456825 L4.77081532,12.456825 L4.77081532,16.3936225 L8.34309452,16.3936225 L8.91582565,15.7788989 L9.45764563,16.3936225 L11.6552535,16.3936225 L11.6552535,15.4668712 L11.8739644,15.4668712 C12.2837802,15.4668712 12.5961967,15.4217682 12.8112139,15.3315621 L12.8112139,16.3936225 L14.6233072,16.3936225 L14.6233072,15.3624732 L14.7067089,15.3624732 C14.7623101,15.3624732 14.7971095,15.369472 14.811107,15.3834695 C14.8251045,15.397467 14.8321032,15.4322663 14.8321032,15.4878675 L14.8321032,16.3942058 L20.3412868,16.3942058 C20.737105,16.3942058 21.0425228,16.310804 21.25754,16.1440004 L21.25754,16.3942058 L23.0072277,16.3942058 C23.4236534,16.3942058 23.7533724,16.3351052 23.9963845,16.2169041 L23.9969678,16.2174873 Z M16.1023766,13.7807555 C16.1023766,13.9405603 16.0607729,14.089867 15.9775655,14.2286755 C15.8943581,14.3674841 15.7763514,14.4681883 15.6235453,14.5307883 C15.7969588,14.5933882 15.9149655,14.6835944 15.9775655,14.8014067 C16.0401654,14.919219 16.0714654,15.0788294 16.0714654,15.2802379 L16.0714654,15.8424709 L15.3943362,15.8424709 L15.3943362,15.3735546 C15.3943362,15.1445399 15.3527325,14.9934835 15.2695252,14.9203854 C15.1863178,14.8472874 15.0267074,14.8107383 14.790694,14.8107383 L14.0721555,14.8107383 L14.0721555,15.8418877 L13.3950263,15.8418877 L13.3950263,13.0196413 L14.9989068,13.0196413 C15.3321251,13.0196413 15.5994385,13.0717431 15.800847,13.1759467 C16.0022555,13.2801503 16.1029598,13.4815589 16.1029598,13.7801722 L16.1023766,13.7807555 Z M13.2177246,8.91662346 C13.2177246,9.08342703 13.1743713,9.23623309 13.0876645,9.37504166 C13.0009578,9.51385022 12.8847007,9.61455447 12.7388934,9.67715441 C12.9193057,9.73975435 13.0390621,9.82821079 13.0981626,9.94252372 C13.1572632,10.0568367 13.1868135,10.2181968 13.1868135,10.426604 L13.1868135,10.9783389 L12.5096843,10.9783389 C12.5096843,10.9157389 12.511434,10.8237831 12.5149334,10.7024714 C12.5184328,10.5811598 12.5184328,10.494453 12.5149334,10.4423512 C12.511434,10.3902494 12.5009359,10.3260942 12.483439,10.2498855 C12.4659421,10.1736769 12.4363919,10.1180757 12.3947882,10.083082 C12.3531845,10.0480882 12.2923342,10.0185379 12.2122374,9.99443113 C12.1321406,9.97032432 12.0296867,9.9580765 11.9048756,9.95768768 L11.175839,9.95768768 L11.175839,10.9783389 L10.509208,10.9783389 L10.509208,8.15609251 L12.1025903,8.16659064 C12.4428074,8.16659064 12.7136202,8.21694276 12.9150287,8.31764701 C13.1164372,8.41835126 13.2171414,8.61801008 13.2171414,8.91662346 L13.2177246,8.91662346 Z M18.7269082,15.2592416 L18.7269082,15.8424709 L16.477393,15.8424709 L16.477393,13.0202245 L18.7269082,13.0202245 L18.7269082,13.6034538 L17.1545221,13.6034538 L17.1545221,14.1137794 L18.6959971,14.1137794 L18.6959971,14.6865105 L17.1545221,14.6865105 L17.1545221,15.2487435 L18.7269082,15.2592416 Z M14.2902832,8.15667574 L14.2902832,10.9789221 L13.602656,10.9789221 L13.602656,8.15667574 L14.2902832,8.15667574 Z M21.5077453,14.947214 C21.5077453,15.5444407 21.1537251,15.8430541 20.4456848,15.8430541 L19.133419,15.8430541 L19.133419,15.2388286 L20.4456848,15.2388286 C20.6816983,15.2388286 20.799705,15.1521219 20.799705,14.9787084 C20.799705,14.867506 20.7406044,14.7946023 20.6224033,14.7599974 C20.5042022,14.7253924 20.3601445,14.70809 20.1902304,14.70809 C20.0203163,14.70809 19.8484581,14.6958422 19.6746557,14.6713465 C19.5008534,14.6468509 19.3550461,14.5686982 19.2372338,14.4368884 C19.1194215,14.3050786 19.0603209,14.1141682 19.0599321,13.8641572 C19.0599321,13.5935389 19.1501382,13.385326 19.3305505,13.2395187 C19.5109627,13.0937114 19.7401718,13.0208077 20.0181778,13.0208077 L21.3718529,13.0208077 L21.3718529,13.6145351 L20.1324907,13.6145351 C19.8824798,13.6145351 19.7574743,13.7012419 19.7574743,13.8746554 C19.7574743,13.9858577 19.8183246,14.0570117 19.9400251,14.0881173 C20.0617256,14.1192228 20.2075329,14.1330259 20.377447,14.1295266 C20.5473611,14.1260272 20.7174697,14.1347756 20.8877726,14.1557719 C21.0580755,14.1767681 21.2038829,14.2514215 21.3251945,14.3797319 C21.4465062,14.5080423 21.5073565,14.697203 21.5077453,14.947214 L21.5077453,14.947214 Z M23.9969678,14.4263902 L23.9969678,15.4785358 C23.8301642,15.721548 23.5247465,15.8430541 23.0807146,15.8430541 L21.7789469,15.8430541 L21.7789469,15.2388286 L23.0807146,15.2388286 C23.3097293,15.2388286 23.4242366,15.1521219 23.4242366,14.9787084 C23.4242366,14.8885022 23.3808833,14.8225973 23.2941765,14.7809936 C23.2074698,14.7393899 23.0997668,14.7203378 22.9710675,14.7238372 C22.8423683,14.7273365 22.7035597,14.7203378 22.5546418,14.7028409 C22.4057239,14.685344 22.2669154,14.6575434 22.1382161,14.6194391 C22.0095169,14.5813348 21.9018139,14.497933 21.8151071,14.3692338 C21.7284004,14.2405345 21.685047,14.0721757 21.685047,13.8641572 C21.685047,13.5935389 21.7770028,13.385326 21.9609144,13.2395187 C22.1448261,13.0937114 22.3757848,13.0208077 22.6537908,13.0208077 L23.997551,13.0208077 L23.997551,13.6145351 L22.768687,13.6145351 C22.518676,13.6145351 22.3936705,13.7012419 22.3936705,13.8746554 C22.3936705,14.0134639 22.4943748,14.089867 22.6957833,14.1038645 C22.8971918,14.117862 23.1349549,14.1351644 23.4090727,14.1557719 C23.6831904,14.1763793 23.8793499,14.2665854 23.997551,14.4263902 L23.9969678,14.4263902 Z M22.2781912,8.16717386 L22.2781912,10.9789221 L21.3199455,10.9789221 L20.0490889,8.86471606 L20.0490889,10.9789221 L18.6744176,10.9789221 L18.4037992,10.3542836 L17.0081316,10.3542836 L16.7480113,10.9789221 L15.9670674,10.9789221 C15.0712272,10.9789221 14.6233072,10.517199 14.6233072,9.59375263 C14.6233072,8.63570137 15.0850303,8.15667574 16.0084766,8.15667574 L16.6646096,8.15667574 L16.6646096,8.77139937 C16.6160071,8.77139937 16.5188022,8.7679 16.3729949,8.76090125 C16.2271876,8.7539025 16.128233,8.75215281 16.0761312,8.75565218 C16.0240294,8.75915156 15.944127,8.76615031 15.836424,8.77664844 C15.728721,8.78714656 15.6540677,8.8096981 15.612464,8.84430303 C15.5708603,8.87890797 15.5205082,8.92576072 15.4614076,8.98486128 C15.402307,9.04396185 15.362453,9.12386426 15.3418456,9.22456851 C15.3212382,9.32527276 15.31074,9.44152979 15.3103512,9.5733396 C15.3103512,9.83734805 15.357204,10.0387565 15.4509095,10.1775651 C15.544615,10.3163737 15.7164732,10.385778 15.9664841,10.385778 L16.2685969,10.385778 L17.2268426,8.16717386 L18.2369956,8.16717386 L19.3719598,10.8331148 L19.3719598,8.16717386 L20.4031091,8.16717386 L21.5905639,10.1250745 L21.5905639,8.16717386 L22.2781912,8.16717386 L22.2781912,8.16717386 Z" id="path-1"></path>
    </defs>
    <g id="cc_amex" stroke="none" stroke-width="1" fill="none" fill-rule="evenodd">
        <mask id="mask-2" fill="white">
            <use xlink:href="#path-1"></use>
        </mask>
        <use id="Shape" fill="#000000" xlink:href="#path-1"></use>
    </g>
</svg>