<?xml version="1.0" encoding="UTF-8"?>
<svg width="24px" height="24px" viewBox="0 0 24 24" version="1.1" xmlns="http://www.w3.org/2000/svg" xmlns:xlink="http://www.w3.org/1999/xlink">
    <title>cc_discover</title>
    <defs>
        <path d="M3.26160351,10.7600539 C3.26160351,11.114352 3.13656857,11.4060354 2.88649869,11.635104 C2.6850427,11.8155588 2.37605278,11.9057862 1.95952892,11.9057862 L1.78218543,11.9057862 L1.78218543,9.61373825 L1.95952892,9.61373825 C2.38305318,9.61373825 2.6920431,9.70746584 2.88649869,9.89492103 C3.13656857,10.1103778 3.26160351,10.398561 3.26160351,10.7594706 L3.26160351,10.7600539 Z M21.76308,10.0827651 C21.76308,10.4440636 21.5408173,10.6247128 21.0962918,10.6247128 L20.8985305,10.6247128 L20.8985305,9.57231921 L21.1067924,9.57231921 C21.5443175,9.57231921 21.76308,9.74246785 21.76308,10.0827651 Z M3.95989351,10.7600539 C3.95989351,10.2463023 3.78624467,9.82783385 3.438947,9.50464867 C3.09164933,9.18146349 2.64362366,9.02006535 2.09487001,9.02045356 L1.10547999,9.02045356 L1.10547999,12.489153 L2.09487001,12.489153 C2.60862166,12.489153 3.02183977,12.3571176 3.33452435,12.0930469 C3.75104821,11.7387489 3.95931014,11.2942234 3.95931014,10.7594706 L3.95989351,10.7600539 Z M4.27199472,12.489153 L4.94928352,12.489153 L4.94928352,9.02045427 L4.27199472,9.02045427 L4.27199472,12.489153 Z M7.60593571,11.4373427 C7.60593571,11.1596601 7.53476497,10.9443978 7.39242348,10.7915557 C7.25008199,10.6387136 6.98795586,10.4928719 6.6060451,10.3540307 C6.40458911,10.2844156 6.26749793,10.2184951 6.19477154,10.1562693 C6.12204515,10.0940435 6.0854875,10.0141223 6.08509859,9.9165056 C6.08509859,9.805277 6.13196238,9.71329951 6.22568997,9.64057312 C6.31941757,9.56784673 6.43920221,9.53128908 6.58504389,9.53090017 C6.78649988,9.53090017 6.97045486,9.62462776 7.13690884,9.81208295 L7.49101246,9.35355668 C7.20632948,9.0964864 6.86603221,8.96795126 6.47012064,8.96795126 C6.16443647,8.96795126 5.90756064,9.06342895 5.69949316,9.25438433 C5.49142569,9.44533972 5.3871975,9.67965869 5.38680859,9.95734127 C5.38680859,10.2004107 5.44922883,10.3931162 5.57406931,10.5354577 C5.6989098,10.6777992 5.92117253,10.8045842 6.24085751,10.9158128 C6.49792779,11.0060402 6.65427008,11.0719607 6.70988438,11.1135742 C6.84172526,11.1968012 6.90764571,11.3148357 6.90764571,11.4676778 C6.90764571,11.6065191 6.85903181,11.7228035 6.76180402,11.8165311 C6.66457623,11.9102587 6.53954129,11.9571225 6.3866992,11.9571225 C6.05340233,11.9571225 5.80683265,11.8042804 5.64699016,11.4985962 L5.20946509,11.9151201 C5.51514927,12.3596456 5.91456104,12.5819083 6.4077004,12.5819083 C6.76199847,12.5819083 7.05018165,12.47593 7.27224993,12.2639734 C7.4943182,12.0520168 7.60535234,11.7758899 7.60535234,11.4355926 L7.60593571,11.4373427 Z M10.5017683,12.3748131 L10.5017683,11.5726838 C10.244698,11.8297541 9.97382135,11.9582892 9.68913838,11.9582892 C9.34884111,11.9582892 9.06921398,11.845505 8.85025699,11.6199365 C8.6313,11.394368 8.52182151,11.107935 8.52182151,10.7606373 C8.52182151,10.4273404 8.6313,10.1444075 8.85025699,9.91183866 C9.06921398,9.67926978 9.33834051,9.56298534 9.65763657,9.56298534 C9.95632035,9.56298534 10.2375031,9.69502069 10.5011849,9.95909137 L10.5011849,9.15696209 C10.2235023,9.0181208 9.94562529,8.94870015 9.66755381,8.94870015 C9.15380216,8.94870015 8.71802719,9.12409909 8.36022892,9.47489697 C8.00243064,9.82569484 7.82353151,10.2544694 7.82353151,10.7612207 C7.82353151,11.2679719 8.00068054,11.6967465 8.35497862,12.0475443 C8.70927669,12.3983422 9.14330156,12.5737412 9.65705321,12.5737412 C9.94873658,12.5737412 10.2299194,12.5078207 10.5006015,12.3759798 L10.5017683,12.3748131 Z M23.3358368,18.6670069 L23.3358368,13.1769424 C22.8843109,13.4546249 22.3826155,13.7463083 21.8307506,14.0519925 C21.2788856,14.3576767 20.4541995,14.7638944 19.3566922,15.2706456 C18.2591849,15.7773969 17.1150082,16.2547854 15.9241622,16.702811 C14.7333162,17.1508367 13.2836498,17.617919 11.5751631,18.104058 C9.86667633,18.5901969 8.11657607,18.9999148 6.32486232,19.3332117 L22.669632,19.3332117 C22.8500868,19.3332117 23.006429,19.2672913 23.1386588,19.1354504 C23.2708886,19.0036095 23.3368091,18.8472672 23.3364219,18.6664235 L23.3358368,18.6670069 Z M14.4709956,10.7810551 C14.4709956,10.2603031 14.2870407,9.8157776 13.9191307,9.44747873 C13.5512207,9.07917985 13.1066953,8.89522487 12.5855543,8.89561317 C12.0644133,8.89600269 11.6198879,9.07995767 11.2519779,9.44747873 C10.8840679,9.81499978 10.700113,10.2595252 10.700113,10.7810551 C10.700113,11.302585 10.8840679,11.7471105 11.2519779,12.1146315 C11.6198879,12.4821526 12.0644133,12.6661076 12.5855543,12.6664971 C13.1066953,12.6668854 13.5512207,12.4829304 13.9191307,12.1146315 C14.2870407,11.7463326 14.4709956,11.3018072 14.4709956,10.7810551 Z M16.054253,12.583075 L17.5540889,9.02045427 L16.8143799,9.02045427 L15.8769095,11.3539213 L14.9499397,9.02045427 L14.2102307,9.02045427 L15.6896488,12.583075 L16.054253,12.583075 L16.054253,12.583075 Z M17.8562729,12.489153 L19.773216,12.489153 L19.773216,11.9057862 L18.5335617,11.9057862 L18.5335617,10.9683158 L19.731797,10.9683158 L19.731797,10.3849491 L18.5335617,10.3849491 L18.5335617,9.61432162 L19.773216,9.61432162 L19.773216,9.02045427 L17.8562729,9.02045427 L17.8562729,12.489153 Z M21.9293396,12.489153 L22.7629707,12.489153 L21.669158,11.0307361 C22.1969104,10.9195075 22.4607867,10.5930166 22.4607867,10.0512633 C22.4607867,9.72496685 22.3530583,9.47139676 22.1376015,9.29055307 C21.9221447,9.10970938 21.6199607,9.01948199 21.2310496,9.01986965 L20.2206583,9.01986965 L20.2206583,12.4885696 L20.8979471,12.4885696 L20.8979471,11.1030736 L20.9918692,11.1030736 L21.9293396,12.489153 Z M24.002625,5.39541327 L24.002625,18.6045866 C24.002625,18.9934978 23.8688396,19.3232945 23.6012687,19.5939766 C23.3336978,19.8646588 23.008957,20 22.6270462,20 L1.3755788,20 C0.993668034,20 0.668927209,19.8646588 0.401356325,19.5939766 C0.133785442,19.3232945 0,18.9934978 0,18.6045866 L0,5.39541327 C0,5.0065021 0.133785442,4.67670543 0.401356325,4.40602326 C0.668927209,4.13534109 0.993668034,4 1.3755788,4 L22.6270462,4 C23.008957,4 23.3336978,4.13534109 23.6012687,4.40602326 C23.8688396,4.67670543 24.002625,5.0065021 24.002625,5.39541327 Z" id="path-1"></path>
    </defs>
    <g id="cc_discover" stroke="none" stroke-width="1" fill="none" fill-rule="evenodd">
        <mask id="mask-2" fill="white">
            <use xlink:href="#path-1"></use>
        </mask>
        <use id="Shape" fill="#000000" xlink:href="#path-1"></use>
    </g>
</svg>