<?xml version="1.0" encoding="UTF-8"?>
<svg width="24px" height="24px" viewBox="0 0 24 24" version="1.1" xmlns="http://www.w3.org/2000/svg" xmlns:xlink="http://www.w3.org/1999/xlink">
    <title>cc_mastercard</title>
    <defs>
        <path d="M6.98947573,12.3859709 L6.85414287,12.3859709 C6.52786622,12.3859709 6.3647279,12.4969983 6.3647279,12.7190531 C6.3647279,12.8718859 6.43414433,12.9483023 6.57297718,12.9483023 C6.69119899,12.9483023 6.78842087,12.8961913 6.86464283,12.7919695 C6.94086479,12.6877476 6.98247576,12.5524147 6.98947573,12.3859709 Z M11.1042948,12.0108889 L11.7500425,12.0108889 L11.7500425,11.979389 C11.7570425,11.9517779 11.7587925,11.9292225 11.7552925,11.9117225 C11.7517925,11.8942226 11.7482925,11.8699171 11.7447926,11.8388061 C11.7412926,11.8076951 11.7342926,11.7798897 11.7237926,11.7553897 C11.7132927,11.7308898 11.6977372,11.7083343 11.6771261,11.6877233 C11.6565151,11.6671123 11.6304596,11.6498068 11.5989597,11.6358068 C11.5674598,11.6218069 11.5275989,11.6148069 11.4793768,11.6148069 C11.284933,11.6148069 11.1599057,11.7468342 11.1042948,12.0108889 Z M16.7293586,12.3859709 L16.6045257,12.3859709 C16.2712491,12.3859709 16.1046107,12.4969983 16.1046107,12.7190531 C16.1046107,12.8718859 16.1740272,12.9483023 16.31286,12.9483023 C16.4310818,12.9483023 16.5283037,12.8961913 16.6045257,12.7919695 C16.6807476,12.6877476 16.7223586,12.5524147 16.7293586,12.3859709 Z M20.0520137,12.1147218 C20.0520137,11.8300561 19.9477918,11.6877233 19.7393481,11.6877233 C19.6075153,11.6877233 19.4997934,11.7571397 19.4161826,11.8959726 C19.3325718,12.0348054 19.2909608,12.2119437 19.291347,12.4273874 C19.291347,12.7190531 19.3885716,12.8648859 19.5830153,12.8648859 C19.7218482,12.8648859 19.8346256,12.7954695 19.9213475,12.6566366 C20.0080694,12.5178038 20.0514304,12.3371655 20.0514304,12.1147218 L20.0520137,12.1147218 Z M4.99973264,10.6464769 L5.90622949,10.6464769 L5.44773108,13.3758841 L4.86439978,13.3758841 L5.19748195,11.282308 L4.45781785,13.3758841 L4.05181926,13.3758841 L4.01040274,11.292808 L3.65632064,13.3758841 L3.10448922,13.3758841 L3.56298763,10.6464769 L4.4064847,10.6464769 L4.42748463,12.3445544 L4.99973264,10.6464769 Z M7.63522349,11.7606397 C7.63522349,11.8022507 7.62141798,11.9480835 7.59380697,12.1981382 C7.48258513,12.8996913 7.42347422,13.2920788 7.41647425,13.3753008 L6.92705928,13.3753008 L6.93755924,13.1460516 C6.79872639,13.3264954 6.59728265,13.4167173 6.33322801,13.4167173 C6.17339523,13.4167173 6.04311791,13.3611064 5.94239603,13.2498845 C5.84167416,13.1386627 5.79131322,12.9928299 5.79131322,12.8123861 C5.79131322,12.5417203 5.88153513,12.3317211 6.06197895,12.1823883 C6.24242277,12.0330554 6.49597744,11.958389 6.82264298,11.958389 C6.91986486,11.958389 6.99978125,11.961889 7.06239214,11.968889 C7.06239214,11.9478891 7.06414214,11.9288336 7.06764213,11.9117225 C7.07114211,11.8946115 7.0746421,11.879056 7.07814209,11.865056 C7.08164208,11.8510561 7.08339207,11.8405561 7.08339207,11.8335561 C7.08339207,11.6947233 6.95836473,11.6253069 6.70831004,11.6253069 C6.5068663,11.6253069 6.30192256,11.6601123 6.09347884,11.7297232 C6.09347884,11.7021121 6.11778431,11.5354738 6.16639526,11.2298082 C6.43044989,11.1535863 6.66300464,11.1154753 6.8640595,11.1154753 C7.37777994,11.1154753 7.63464016,11.3307245 7.63464016,11.7612231 L7.63522349,11.7606397 Z M9.26038451,11.1568918 L9.17696814,11.6673067 C9.02413533,11.6463068 8.88180249,11.6358068 8.74996962,11.6358068 C8.56252582,11.6358068 8.46880393,11.6949177 8.46880393,11.8131395 C8.46880393,11.8687505 8.48435943,11.9103614 8.51547043,11.9379724 C8.54658144,11.9655835 8.62124784,12.0036944 8.73946965,12.0523054 C9.01713536,12.1841382 9.15596821,12.3923875 9.15596821,12.6770532 C9.15596821,13.1771626 8.85380259,13.4237173 8.24947136,13.4167173 C8.01341662,13.4167173 7.81197288,13.3959118 7.64514012,13.3543009 C7.64514012,13.3403009 7.66944559,13.1701626 7.71805653,12.843886 C7.91950028,12.8994969 8.09663855,12.9273023 8.24947136,12.9273023 C8.47152614,12.9273023 8.58255353,12.8613859 8.58255353,12.729553 C8.58255353,12.6809421 8.56699803,12.6410811 8.53588703,12.6099701 C8.50477603,12.5788591 8.43010962,12.5354981 8.31188781,12.4798872 C8.01322218,12.3410544 7.86388936,12.1361106 7.86388936,11.865056 C7.86388936,11.3649466 8.15555502,11.114892 8.73888632,11.114892 C8.94733004,11.114892 9.12096833,11.1286975 9.25980118,11.1563085 L9.26038451,11.1568918 Z M10.176798,11.1568918 L10.4684637,11.1568918 L10.3955472,11.6988066 L10.0933816,11.6988066 C10.0793817,11.8170284 10.0568262,11.9576113 10.0257152,12.1205551 C9.99460419,12.283499 9.97029871,12.4172763 9.95279878,12.5218871 C9.93529884,12.6264978 9.92654887,12.6889143 9.92654887,12.7091364 C9.92654887,12.8203583 9.9924653,12.8759692 10.1242982,12.8759692 C10.1799091,12.8759692 10.23552,12.8689692 10.2911309,12.8549693 L10.2077146,13.3443842 C10.0618817,13.3929952 9.92304888,13.4173006 9.791216,13.4173006 C9.49255037,13.4173006 9.33621758,13.2541623 9.32221763,12.9278857 C9.32221763,12.8446637 9.35002309,12.65022 9.40563401,12.3445544 C9.42663394,12.2057215 9.51335586,11.6988066 9.66579977,10.8238096 L10.2386311,10.8238096 L10.176798,11.1568918 Z M12.291374,11.9169725 C12.291374,12.0768053 12.2670685,12.2574436 12.2184576,12.4588873 L11.0622949,12.4588873 C11.041295,12.6117201 11.0761004,12.7262475 11.1667112,12.8024694 C11.257322,12.8786914 11.3893493,12.9168024 11.5627932,12.9168024 C11.7712369,12.9168024 11.9726807,12.8681914 12.1671244,12.7709695 L12.0732081,13.3333009 C11.8647644,13.3889118 11.6668206,13.4167173 11.4793768,13.4167173 C10.8198235,13.4167173 10.4900469,13.0869407 10.4900469,12.4273874 C10.4900469,12.0454998 10.5855188,11.7312787 10.7764626,11.484724 C10.9674064,11.2381693 11.2087111,11.114892 11.5003767,11.114892 C11.7434314,11.114892 11.9361252,11.1878084 12.0784581,11.3336412 C12.2207909,11.479474 12.2919573,11.6739178 12.2919573,11.9169725 L12.291374,11.9169725 Z M13.7397856,11.1463919 C13.6495637,11.3062246 13.5731473,11.5214739 13.5105364,11.7921396 C13.3577036,11.7781397 13.2499818,11.861556 13.1873709,12.0423887 C13.12476,12.2232214 13.0380381,12.6677199 12.9272051,13.3758841 L12.3438738,13.3758841 L12.3753737,13.2300513 C12.5282065,12.3274433 12.6289284,11.6363902 12.6775393,11.1568918 L13.2089541,11.1568918 L13.1774542,11.500474 C13.2746761,11.3546411 13.363148,11.2521693 13.44287,11.1930584 C13.5225919,11.1339475 13.6215638,11.118392 13.7397856,11.1463919 L13.7397856,11.1463919 Z M15.6875289,10.7193933 L15.5936125,11.3132246 C15.3991688,11.2160027 15.2255305,11.1673918 15.0726977,11.1673918 C14.857254,11.1673918 14.6801157,11.2628637 14.5412828,11.4538075 C14.40245,11.6447512 14.3330336,11.8895559 14.3330336,12.1882216 C14.3330336,12.3966653 14.3798945,12.5598036 14.4736164,12.6776365 C14.5673383,12.7954695 14.7011156,12.8545804 14.8749484,12.8549693 C15.0207812,12.8549693 15.1874195,12.8098583 15.3748633,12.7196364 L15.270447,13.3344676 C15.0760032,13.3900785 14.9023649,13.417884 14.7495321,13.417884 C14.4368665,13.417884 14.1885618,13.3119121 14.004618,13.0999684 C13.8206742,12.8880247 13.7287023,12.601609 13.7287023,12.2407214 C13.7287023,11.754612 13.8519797,11.3569745 14.0985344,11.0478089 C14.3450891,10.7386433 14.6628102,10.5840605 15.0516977,10.5840605 C15.2321416,10.5840605 15.4438908,10.6291714 15.6869455,10.7193933 L15.6875289,10.7193933 Z M17.3751063,11.7606397 C17.3751063,11.8854726 17.3613008,12.0313054 17.3336898,12.1981382 C17.2434679,12.7468585 17.184357,13.139246 17.1563571,13.3753008 L16.6774421,13.3753008 L16.6879421,13.1460516 C16.5491092,13.3264954 16.3441655,13.4167173 16.0731109,13.4167173 C15.9132781,13.4167173 15.7847507,13.3611064 15.6875289,13.2498845 C15.590307,13.1386627 15.541696,12.9928299 15.541696,12.8123861 C15.541696,12.5417203 15.630168,12.3317211 15.8071118,12.1823883 C15.9840556,12.0330554 16.2358603,11.958389 16.5625258,11.958389 C16.6667477,11.958389 16.7466641,11.961889 16.802275,11.968889 C16.8162749,11.9202781 16.8232749,11.8751671 16.8232749,11.8335561 C16.8232749,11.6947233 16.6982476,11.6253069 16.4481929,11.6253069 C16.2467491,11.6253069 16.0418054,11.6601123 15.8333617,11.7297232 C15.8333617,11.7021121 15.8611671,11.5354738 15.9167781,11.2298082 C16.1808327,11.1535863 16.4133875,11.1154753 16.6144423,11.1154753 C17.1215517,11.1154753 17.3751063,11.3307245 17.3751063,11.7612231 L17.3751063,11.7606397 Z M18.8439346,11.1463919 C18.7467127,11.3132246 18.6737963,11.5284739 18.6251853,11.7921396 C18.4653526,11.7781397 18.3558807,11.858056 18.2967698,12.0318888 C18.2376589,12.2057215 18.149187,12.65372 18.0313541,13.3758841 L17.4480227,13.3758841 L17.4795226,13.2300513 C17.6113555,12.5078871 17.7120774,11.816834 17.7816883,11.1568918 L18.323603,11.1568918 C18.323603,11.2331138 18.3097975,11.3476412 18.2821865,11.500474 C18.3864084,11.3546411 18.4783803,11.2521693 18.5581022,11.1930584 C18.6378242,11.1339475 18.7332961,11.118392 18.8445179,11.1463919 L18.8439346,11.1463919 Z M20.3121795,10.6464769 L20.8955108,10.6464769 L20.4475123,13.3758841 L19.8956809,13.3758841 L19.9271808,13.1781348 C19.767348,13.3379676 19.5867098,13.417884 19.385266,13.417884 C19.1698223,13.417884 18.997934,13.3344676 18.8696011,13.1676348 C18.7412683,13.0008021 18.6771018,12.7785529 18.6771018,12.5008871 C18.6771018,12.1329995 18.7725737,11.8135284 18.9635175,11.5424738 C19.1544613,11.2714192 19.3784605,11.1360863 19.6355152,11.1364752 C19.8509589,11.1364752 20.0349027,11.2371971 20.1873466,11.4386408 L20.3121795,10.6464769 Z M21.4689255,12.0003889 C21.4689255,10.9725591 21.2171208,10.0246457 20.7135114,9.15664876 C20.209902,8.28865178 19.5223489,7.60109861 18.6508519,7.09398926 C17.7793549,6.58687991 16.8296916,6.33332523 15.8018618,6.33332523 C14.5449773,6.33332523 13.4061201,6.71521279 12.3852903,7.47898792 C13.2672873,8.28437401 13.8611185,9.27039837 14.1667841,10.437061 L13.6458693,10.437061 C13.3402037,9.39523127 12.7916778,8.51673432 12.0002917,7.80157013 C11.2085166,8.51673432 10.6599908,9.39523127 10.354714,10.437061 L9.83379919,10.437061 C10.1394648,9.27039837 10.7332961,8.28437401 11.615293,7.47898792 C10.5944632,6.71521279 9.45560606,6.33332523 8.19872153,6.33332523 C7.17089177,6.33332523 6.2212284,6.58687991 5.34973142,7.09398926 C4.47823445,7.60109861 3.79068128,8.28865178 3.28707192,9.15664876 C2.78346256,10.0246457 2.53165788,10.9725591 2.53165788,12.0003889 C2.53165788,13.0282187 2.78346256,13.976132 3.28707192,14.844129 C3.79068128,15.712126 4.47823445,16.3996792 5.34973142,16.9067885 C6.2212284,17.4138979 7.17089177,17.6674525 8.19872153,17.6674525 C9.45560606,17.6674525 10.5944632,17.285565 11.615293,16.5217899 C10.781907,15.7510148 10.2090757,14.8344068 9.89679897,13.7719661 L10.4177138,13.7719661 C10.7369905,14.730185 11.2647109,15.5392655 12.000875,16.1992076 C12.7370391,15.5396544 13.2647595,14.7305739 13.5840362,13.7719661 L14.104951,13.7719661 C13.7922854,14.8344068 13.2194541,15.7510148 12.386457,16.5217899 C13.4072868,17.285565 14.5461439,17.6674525 15.8030285,17.6674525 C16.8308582,17.6674525 17.7805216,17.4138979 18.6520186,16.9067885 C19.5235155,16.3996792 20.2110687,15.712126 20.7146781,14.844129 C21.2182874,13.976132 21.4700921,13.0282187 21.4700921,12.0003889 L21.4689255,12.0003889 Z M24,5.33349537 L24,18.6666991 C24,19.0279756 23.8679727,19.3404467 23.603918,19.6041125 C23.3398634,19.8677782 23.0273923,19.9998056 22.6665046,20.0001944 L1.33349537,20.0001944 C0.972218846,20.0001944 0.659747709,19.8681671 0.396081958,19.6041125 C0.132416207,19.3400578 0.000388887539,19.0275867 0,18.6666991 L0,5.33349537 C0,4.97221885 0.132027319,4.65974771 0.396081958,4.39608196 C0.660136597,4.13241621 0.972607734,4.00038889 1.33349537,4 L22.6665046,4 C23.0277812,4 23.3402523,4.13202732 23.603918,4.39608196 C23.8675838,4.6601366 23.9996111,4.97260773 24,5.33349537 Z" id="path-1"></path>
    </defs>
    <g id="cc_mastercard" stroke="none" stroke-width="1" fill="none" fill-rule="evenodd">
        <mask id="mask-2" fill="white">
            <use xlink:href="#path-1"></use>
        </mask>
        <use id="Shape" fill="#000000" xlink:href="#path-1"></use>
    </g>
</svg>