<?xml version="1.0" encoding="UTF-8"?>
<svg width="24px" height="24px" viewBox="0 0 24 24" version="1.1" xmlns="http://www.w3.org/2000/svg" xmlns:xlink="http://www.w3.org/1999/xlink">
    <title>cc_paypal</title>
    <defs>
        <path d="M7.76063972,12.1048052 C7.76063972,12.3618599 7.6721678,12.5753591 7.49522397,12.745303 C7.31828014,12.9152468 7.1012809,13.0004132 6.84422624,13.0008021 C6.64278249,13.0008021 6.48139416,12.9451912 6.36006125,12.8339693 C6.23872834,12.7227475 6.17786744,12.5699147 6.17747855,12.3754709 C6.17747855,12.1184163 6.26420047,11.901417 6.43764431,11.7244732 C6.61108816,11.5475293 6.82633741,11.4590574 7.08339207,11.4590574 C7.27783584,11.4590574 7.43922417,11.5164183 7.56755706,11.6311402 C7.69588994,11.745862 7.76005639,11.9037503 7.76005639,12.1048052 L7.76063972,12.1048052 Z M15.9371947,10.5525606 C15.9371947,10.8442262 15.8607783,11.04217 15.7079455,11.1463919 C15.5551127,11.2506137 15.3258635,11.3027246 15.0201978,11.3027246 L14.6871157,11.3132246 L14.8644484,10.1984785 C14.8784483,10.1222565 14.9235593,10.0841455 14.9997813,10.0841455 L15.1870306,10.0841455 C15.3398634,10.0841455 15.4613908,10.0911455 15.5516127,10.1051455 C15.6418346,10.1191454 15.7285565,10.1625064 15.8117784,10.2352283 C15.8950004,10.3079503 15.9366113,10.4139222 15.9366113,10.5531439 L15.9371947,10.5525606 Z M19.5935153,12.1048052 C19.5935153,12.3548599 19.5050434,12.5666091 19.3280996,12.740053 C19.1511557,12.9134968 18.9376565,13.0002187 18.6876018,13.0002187 C18.486158,13.0002187 18.3230197,12.9446078 18.1981868,12.833386 C18.0733539,12.7221642 18.0109375,12.5693314 18.0109375,12.3748876 C18.0109375,12.1178329 18.0976594,11.9008337 18.2711032,11.7238898 C18.4445471,11.546946 18.6597963,11.4584741 18.916851,11.4584741 C19.1112948,11.4584741 19.2726831,11.515835 19.401016,11.6305568 C19.5293489,11.7452787 19.5935153,11.9033614 19.5935153,12.1048052 L19.5935153,12.1048052 Z M5.34389811,10.3233114 C5.34389811,9.91342391 5.2101208,9.61650828 4.94256617,9.43256447 C4.67501155,9.24862066 4.32598498,9.15664876 3.89548647,9.15664876 L2.22890893,9.15664876 C2.09707605,9.15664876 2.02415964,9.2225652 2.01015969,9.35439808 L1.33291204,13.60455 C1.32591206,13.646161 1.33641203,13.6842719 1.36441193,13.7188829 C1.39241183,13.7534939 1.42721727,13.7707994 1.46882823,13.7707994 L2.26040882,13.7707994 C2.39924167,13.7707994 2.47565807,13.704883 2.48965802,13.5730501 L2.67690737,12.4273874 C2.68390735,12.3717765 2.70821282,12.3266655 2.74982379,12.2920545 C2.79143475,12.2574436 2.84354568,12.2348881 2.90615658,12.2243881 C2.96876747,12.2138881 3.02787838,12.2086382 3.08348929,12.2086382 C3.13910021,12.2086382 3.20501665,12.2121382 3.28123861,12.2191381 C3.35746056,12.2261381 3.40607151,12.2296381 3.42707143,12.2296381 C4.02440269,12.2296381 4.49320662,12.0612498 4.83348322,11.7244732 C5.17375981,11.3876966 5.34389811,10.9206426 5.34389811,10.3233114 L5.34389811,10.3233114 Z M8.56272027,13.5730501 L8.98971879,10.8541429 C8.99671876,10.8125319 8.9862188,10.7744209 8.9582189,10.7398099 C8.93021899,10.7051989 8.89541356,10.6878934 8.85380259,10.6878934 L8.06222201,10.6878934 C7.96500012,10.6878934 7.90588922,10.8024208 7.88488929,11.0314756 C7.69744549,10.7538099 7.36766886,10.614977 6.89555939,10.614977 C6.39545002,10.614977 5.97000705,10.8024208 5.61923049,11.1773084 C5.26845393,11.552196 5.09306565,11.9931945 5.09306565,12.5003038 C5.09306565,12.9101913 5.21284301,13.2366624 5.45239773,13.4797171 C5.69195246,13.7227718 6.01317357,13.8442992 6.41606106,13.8442992 C6.61050482,13.8442992 6.81194857,13.8026882 7.02039229,13.7194663 C7.22883601,13.6362443 7.39547432,13.5252169 7.52030722,13.3863841 C7.49269621,13.469606 7.4788907,13.5425224 7.4788907,13.6051333 C7.4788907,13.7163552 7.52400165,13.7719661 7.61422356,13.7719661 L8.33288773,13.7719661 C8.46472061,13.7719661 8.54113701,13.7060496 8.56213694,13.5742168 L8.56272027,13.5730501 Z M13.2188708,10.8337263 C13.2188708,10.7991153 13.2050653,10.7660598 13.1774542,10.7345599 C13.1498432,10.7030601 13.1185378,10.6875046 13.0835379,10.6878863 L12.2814574,10.6878863 C12.2052354,10.6878863 12.1428189,10.7226989 12.094208,10.7923097 L10.9899618,12.4174708 L10.5314634,10.8547262 C10.4968524,10.7435044 10.420436,10.6878863 10.3022142,10.6878863 L9.52113361,10.6878863 C9.48652262,10.6878863 9.45521717,10.7034489 9.42721727,10.7345599 C9.39921736,10.765671 9.38541186,10.7987264 9.38579275,10.8337263 C9.38579275,10.8477262 9.45346718,11.05267 9.58880004,11.4485575 C9.7241329,11.844445 9.86996573,12.2714435 10.0262985,12.729553 C10.1826313,13.1876625 10.2642977,13.4307173 10.2712977,13.4587172 C9.70196631,14.2364922 9.41730063,14.6531852 9.41730063,14.7087962 C9.41730063,14.7990181 9.46241159,14.844129 9.5526335,14.844129 L10.354714,14.844129 C10.430936,14.844129 10.4933525,14.8093236 10.5419634,14.7397127 L13.1984542,10.9066427 C13.2124541,10.8926427 13.2194541,10.8683373 13.2194541,10.8337263 L13.2188708,10.8337263 Z M17.1767737,10.3233114 C17.1767737,9.91342391 17.0429964,9.61650828 16.7754418,9.43256447 C16.5078871,9.24862066 16.1588606,9.15664876 15.7283621,9.15664876 L14.0722845,9.15664876 C13.9334516,9.15664876 13.8570352,9.2225652 13.8430353,9.35439808 L13.1657876,13.60455 C13.1587876,13.646161 13.1692876,13.6842719 13.1972875,13.7188829 C13.2252874,13.7534939 13.2600928,13.7707994 13.3017038,13.7707994 L14.1557008,13.7707994 C14.2389228,13.7707994 14.2945337,13.7256885 14.3225336,13.6354665 L14.509783,12.4273874 C14.5167829,12.3717765 14.5410884,12.3266655 14.5826994,12.2920545 C14.6243103,12.2574436 14.6764213,12.2348881 14.7390322,12.2243881 C14.801643,12.2138881 14.860754,12.2086382 14.9163649,12.2086382 C14.9719758,12.2086382 15.0378922,12.2121382 15.1141142,12.2191381 C15.1903361,12.2261381 15.2389471,12.2296381 15.259947,12.2296381 C15.8572783,12.2296381 16.3260822,12.0612498 16.6663588,11.7244732 C17.0066354,11.3876966 17.1767737,10.9206426 17.1767737,10.3233114 L17.1767737,10.3233114 Z M20.3955958,13.5730501 L20.8225944,10.8541429 C20.8295943,10.8125319 20.8190944,10.7744209 20.7910945,10.7398099 C20.7630946,10.7051989 20.7282891,10.6878934 20.6866782,10.6878934 L19.8950976,10.6878934 C19.7978757,10.6878934 19.7387648,10.8024208 19.7177649,11.0314756 C19.5373211,10.7538099 19.2075444,10.614977 18.728435,10.614977 C18.2283256,10.614977 17.8028826,10.8024208 17.4521061,11.1773084 C17.1013295,11.552196 16.9259412,11.9931945 16.9259412,12.5003038 C16.9259412,12.9101913 17.0457186,13.2366624 17.2852733,13.4797171 C17.524828,13.7227718 17.8460491,13.8442992 18.2489366,13.8442992 C18.4503804,13.8442992 18.6553241,13.8026882 18.8637678,13.7194663 C19.0722116,13.6362443 19.2353499,13.5252169 19.3531828,13.3863841 C19.3531828,13.3933841 19.3461828,13.4246895 19.3321829,13.4803004 C19.3181829,13.5359113 19.3111829,13.5775223 19.3111829,13.6051333 C19.3111829,13.7163552 19.3562939,13.7719661 19.4465158,13.7719661 L20.16518,13.7719661 C20.2970129,13.7719661 20.3734293,13.7060496 20.3944292,13.5742168 L20.3955958,13.5730501 Z M22.6665046,9.31298155 L22.6665046,9.30248159 C22.6665046,9.2052597 22.6213937,9.15664876 22.5311718,9.15664876 L21.7605911,9.15664876 C21.6843692,9.15664876 21.6392582,9.19475974 21.6252582,9.2709817 L20.9480106,13.60455 L20.9375106,13.6255499 C20.9375106,13.6601609 20.9513161,13.6932163 20.9789272,13.7247162 C21.0065382,13.7562161 21.0413436,13.7717716 21.0833435,13.7713899 L21.7710911,13.7713899 C21.9029239,13.7713899 21.9758404,13.7054663 21.9898403,13.5736334 L22.6665046,9.31298155 Z M4.08331916,10.7088934 C4.04870816,10.9519481 3.95848626,11.1115864 3.81265343,11.1878084 C3.6668206,11.2640303 3.45857132,11.3021413 3.1879056,11.3021413 L2.84432346,11.3126413 L3.02165617,10.1978951 C3.03565613,10.1216732 3.08076708,10.0835622 3.15698904,10.0835622 L3.35473835,10.0835622 C3.63240405,10.0835622 3.8338478,10.1234232 3.95906959,10.2031451 C4.08429137,10.2828671 4.12590234,10.4512554 4.08390249,10.70831 L4.08331916,10.7088934 Z M24,5.33349537 L24,18.6666991 C24,19.0279756 23.8679727,19.3404467 23.603918,19.6041125 C23.3398634,19.8677782 23.0273923,19.9998056 22.6665046,20.0001944 L1.33349537,20.0001944 C0.972218846,20.0001944 0.659747709,19.8681671 0.396081958,19.6041125 C0.132416207,19.3400578 0.000388887539,19.0275867 0,18.6666991 L0,5.33349537 C0,4.97221885 0.132027319,4.65974771 0.396081958,4.39608196 C0.660136597,4.13241621 0.972607734,4.00038889 1.33349537,4 L22.6665046,4 C23.0277812,4 23.3402523,4.13202732 23.603918,4.39608196 C23.8675838,4.6601366 23.9996111,4.97260773 24,5.33349537 Z" id="path-1"></path>
    </defs>
    <g id="cc_paypal" stroke="none" stroke-width="1" fill="none" fill-rule="evenodd">
        <mask id="mask-2" fill="white">
            <use xlink:href="#path-1"></use>
        </mask>
        <use id="Shape" fill="#000000" xlink:href="#path-1"></use>
    </g>
</svg>