<?xml version="1.0" encoding="UTF-8"?>
<svg width="24px" height="24px" viewBox="0 0 24 24" version="1.1" xmlns="http://www.w3.org/2000/svg" xmlns:xlink="http://www.w3.org/1999/xlink">
    <title>cc_stripe</title>
    <defs>
        <path d="M16.6354422,12.0733053 C16.6354422,12.5524147 16.5625258,12.9204968 16.416693,13.1775515 C16.2848601,13.4206062 16.1042219,13.5421335 15.8747782,13.5421335 C15.7149454,13.5421335 15.5726126,13.5108281 15.4477797,13.4482172 L15.4477797,11.114892 C15.6492234,10.9064482 15.8471672,10.8022264 16.041611,10.8022264 C16.4374985,10.8022264 16.6354422,11.2259194 16.6354422,12.0733053 L16.6354422,12.0733053 Z M21.1976764,11.6982233 L20.0520137,11.6982233 C20.0936247,11.0176701 20.2880684,10.6773935 20.635345,10.6773935 C20.9896216,10.6773935 21.1770654,11.0176701 21.1976764,11.6982233 Z M4.95831612,13.1046351 C4.95831612,12.6947476 4.84378874,12.3770265 4.61473398,12.1514717 C4.38567922,11.9259169 4.03490266,11.7262232 3.5624043,11.5523904 C3.31234961,11.4621685 3.13171135,11.3787522 3.02048951,11.3021413 C2.90926768,11.2255305 2.85365676,11.1388085 2.85365676,11.0419755 C2.85365676,10.8615317 2.98568408,10.7713098 3.24973872,10.7713098 C3.65262621,10.7713098 4.08312471,10.8858372 4.54123423,11.114892 L4.72848358,9.94822935 C4.26337409,9.72617456 3.74595922,9.61514717 3.17623897,9.61514717 C2.64151861,9.61514717 2.21452009,9.74717449 1.89524342,10.0112291 C1.5619668,10.2818949 1.39532849,10.6602824 1.39532849,11.1463919 C1.39532849,11.5492793 1.50810587,11.8635005 1.73366065,12.0890552 C1.95921542,12.31461 2.304742,12.5108038 2.77024038,12.6776365 C3.04090611,12.7748584 3.2300999,12.8633303 3.33782174,12.9430523 C3.44554359,13.0227742 3.49940452,13.1182461 3.49940452,13.229468 C3.49940452,13.4449116 3.33276621,13.5526335 2.99948959,13.5526335 C2.79804584,13.5526335 2.55499113,13.5092725 2.27032545,13.4225506 C1.98565977,13.3358287 1.73560508,13.2298568 1.52016139,13.1046351 L1.33291204,14.2817976 C1.83302141,14.5664633 2.41635272,14.7087962 3.08290596,14.7087962 C3.64523734,14.7087962 4.09323579,14.5802688 4.4269013,14.3232142 C4.78117784,14.0385485 4.95831612,13.6323554 4.95831612,13.1046351 L4.95831612,13.1046351 Z M8.03130545,10.8652262 L8.22905476,9.70906351 L7.2292249,9.70906351 L7.2292249,8.30265173 L5.88522957,8.52140097 L5.69798022,9.70906351 L5.21906521,9.79247989 L5.04173249,10.8652262 L5.68748025,10.8652262 L5.68748025,13.1466349 C5.68748025,13.7299662 5.84031305,14.1466592 6.14597866,14.3967139 C6.4100333,14.6051576 6.79542085,14.7093795 7.30214131,14.7093795 C7.5241961,14.7093795 7.79855626,14.6712685 8.12522179,14.5950465 L8.12522179,13.3659675 C7.903167,13.4145784 7.7503342,13.4388839 7.66672338,13.4388839 C7.37505773,13.4388839 7.2292249,13.2652456 7.2292249,12.917969 L7.2292249,10.8658095 L8.03130545,10.8658095 L8.03130545,10.8652262 Z M11.323044,11.1253919 L11.323044,9.67756362 C11.2188222,9.65656369 11.1216003,9.64606373 11.0313784,9.64606373 C10.8093236,9.64606373 10.6166298,9.70167465 10.453297,9.81289648 C10.2899643,9.92411832 10.1736869,10.0837567 10.1044649,10.2918115 L10.0000486,9.70848018 L8.63563668,9.70848018 L8.63563668,14.6148798 L10.1983813,14.6148798 L10.1983813,11.4275575 C10.3788251,11.2121138 10.6634908,11.104392 11.0523783,11.104392 C11.1636001,11.104392 11.253822,11.111392 11.323044,11.1253919 L11.323044,11.1253919 Z M11.7080427,14.6148798 L13.2707873,14.6148798 L13.2707873,9.70848018 L11.7080427,9.70848018 L11.7080427,14.6148798 Z M18.1876868,12.0213888 C18.1876868,11.1740029 18.0313541,10.5525606 17.7186885,10.157062 C17.4410228,9.79578543 17.0556352,9.61514717 16.5625258,9.61514717 C16.1180274,9.61514717 15.7118343,9.80959094 15.3439467,10.1984785 L15.2605303,9.70906351 L13.8856185,9.70906351 L13.8856185,16.4278735 L15.448363,16.1677078 L15.448363,14.5950465 C15.6984177,14.6712685 15.9344724,14.7093795 16.1565272,14.7093795 C16.7328586,14.7093795 17.1981625,14.5149357 17.5524391,14.1260482 C17.9759376,13.6745497 18.1876868,12.9731911 18.1876868,12.0219721 L18.1876868,12.0213888 Z M13.3122038,8.39598474 C13.3122038,8.16692998 13.2322874,7.97248621 13.0724546,7.81265343 C12.9126218,7.65282065 12.7181781,7.57290426 12.4891233,7.57290426 C12.2600685,7.57290426 12.0656248,7.65282065 11.905792,7.81265343 C11.7459592,7.97248621 11.6660428,8.16692998 11.6660428,8.39598474 C11.6660428,8.6250395 11.7459592,8.82123326 11.905792,8.98456603 C12.0656248,9.14789879 12.2600685,9.22956518 12.4891233,9.22956518 C12.7181781,9.22956518 12.9126218,9.14789879 13.0724546,8.98456603 C13.2322874,8.82123326 13.3122038,8.6250395 13.3122038,8.39598474 Z M22.6665046,12.1147218 C22.6665046,11.3299468 22.4998663,10.71881 22.1665897,10.2813115 C21.8193131,9.83681307 21.3193982,9.61456384 20.6668449,9.61456384 C20.0002917,9.61456384 19.4743213,9.84381304 19.0889337,10.3023115 C18.7035462,10.7608099 18.5108524,11.3857521 18.5108524,12.1771383 C18.5108524,13.0661352 18.7296016,13.7188829 19.1671001,14.1353815 C19.5489877,14.517269 20.1080135,14.7082128 20.8441776,14.7082128 C21.5457307,14.7082128 22.1012566,14.56938 22.5107552,14.2917143 L22.3439224,13.218968 C21.9480349,13.4344117 21.5035364,13.5421335 21.010427,13.5421335 C20.7117614,13.5421335 20.4930122,13.4762171 20.3541793,13.3443842 C20.1943465,13.2125513 20.0971247,12.9833021 20.0625137,12.6566366 L22.646088,12.6566366 C22.660088,12.5594147 22.667088,12.3787765 22.667088,12.1147218 L22.6665046,12.1147218 Z M24,5.33349537 L24,18.6666991 C24,19.0279756 23.8679727,19.3404467 23.603918,19.6041125 C23.3398634,19.8677782 23.0273923,19.9998056 22.6665046,20.0001944 L1.33349537,20.0001944 C0.972218846,20.0001944 0.659747709,19.8681671 0.396081958,19.6041125 C0.132416207,19.3400578 0.000388887539,19.0275867 0,18.6666991 L0,5.33349537 C0,4.97221885 0.132027319,4.65974771 0.396081958,4.39608196 C0.660136597,4.13241621 0.972607734,4.00038889 1.33349537,4 L22.6665046,4 C23.0277812,4 23.3402523,4.13202732 23.603918,4.39608196 C23.8675838,4.6601366 23.9996111,4.97260773 24,5.33349537 Z" id="path-1"></path>
    </defs>
    <g id="cc_stripe" stroke="none" stroke-width="1" fill="none" fill-rule="evenodd">
        <mask id="mask-2" fill="white">
            <use xlink:href="#path-1"></use>
        </mask>
        <use id="Shape" fill="#000000" xlink:href="#path-1"></use>
    </g>
</svg>