<?xml version="1.0" encoding="UTF-8"?>
<svg width="24px" height="24px" viewBox="0 0 24 24" version="1.1" xmlns="http://www.w3.org/2000/svg" xmlns:xlink="http://www.w3.org/1999/xlink">
    <title>cc_visa</title>
    <defs>
        <path d="M20.5729286,12.9798022 L19.1356002,12.9798022 C19.2328221,12.7227475 19.4620713,12.1013052 19.8233478,11.1154753 L19.8548477,11.021559 C19.8824587,10.9519481 19.9172642,10.8617262 19.959264,10.7508932 C20.0012639,10.6400603 20.0325693,10.5498384 20.0531804,10.4802275 L20.1780133,11.0530588 L20.5729286,12.9798022 Z M5.53114746,12.3025545 L4.92681623,9.22956518 C4.85059427,8.85467759 4.59023406,8.66723379 4.14573561,8.66723379 L1.35391197,8.66723379 L1.33291204,8.80256666 C3.49279343,9.35128697 4.89201079,10.5179496 5.53056413,12.3025545 L5.53114746,12.3025545 Z M7.39605765,8.66723379 L5.70848018,13.229468 L5.53114746,12.3025545 C5.35070364,11.8164451 5.055538,11.3666966 4.64565054,10.9533092 C4.23576307,10.5399217 3.78095909,10.2327006 3.28123861,10.0316457 L4.68765039,15.3440439 L6.51056073,15.3440439 L9.22946795,8.66723379 L7.39605765,8.66723379 Z M8.84388596,15.3545439 L10.57288,15.3545439 L11.6561262,8.66723379 L9.9271322,8.66723379 L8.84388596,15.3545439 Z M16.8436915,8.83348322 C16.3645821,8.64603942 15.8471672,8.55231753 15.2914469,8.55231753 C14.4374499,8.55231753 13.7395912,8.75726126 13.1978708,9.16714873 C12.6561505,9.57703619 12.3817903,10.1082566 12.3747904,10.7608099 C12.3677904,11.4689741 12.8712053,12.0731109 13.8850351,12.5732202 C14.2183117,12.733053 14.4508665,12.8753858 14.5826994,13.0002187 C14.7145322,13.1250516 14.7804487,13.2603845 14.7804487,13.4062173 C14.7804487,13.6146611 14.6762268,13.7742994 14.4677831,13.8851323 C14.2593394,13.9959653 14.0197847,14.0515762 13.7491189,14.0519651 C13.1517877,14.0519651 12.6100673,13.9374377 12.1239579,13.708383 L11.8947087,13.59405 L11.6549595,15.0937948 C12.16868,15.3298495 12.8111222,15.4478769 13.5822862,15.4478769 C14.4848941,15.4548769 15.2088083,15.2499332 15.7540286,14.8330457 C16.299249,14.4161583 16.5788591,13.8606324 16.5928591,13.1664682 C16.5928591,12.4303041 16.1067496,11.8261673 15.1345308,11.3540578 C14.7942542,11.180614 14.5476995,11.0347811 14.3948667,10.9165593 C14.2420339,10.7983375 14.1656175,10.6663102 14.1656175,10.5204774 C14.1656175,10.3676446 14.2507839,10.2338672 14.4211166,10.1191454 C14.5914493,10.0044236 14.836254,9.94706268 15.1555307,9.94706268 C15.6416401,9.94006271 16.0721386,10.0234791 16.4470262,10.1973118 L16.603359,10.2807282 L16.8436915,8.83348322 Z M21.2705928,8.66723379 L19.9370974,8.66723379 C19.485599,8.66723379 19.1834334,8.85467759 19.0306006,9.22956518 L16.4680262,15.3545439 L18.2804365,15.3545439 L18.6450186,14.354714 L20.8535109,14.354714 C20.8881219,14.5075468 20.9575383,14.8408235 21.0617602,15.3545439 L22.6659213,15.3545439 L21.2705928,8.66723379 Z M24,5.33349537 L24,18.6666991 C24,19.0279756 23.8679727,19.3404467 23.603918,19.6041125 C23.3398634,19.8677782 23.0273923,19.9998056 22.6665046,20.0001944 L1.33349537,20.0001944 C0.972218846,20.0001944 0.659747709,19.8681671 0.396081958,19.6041125 C0.132416207,19.3400578 0.000388887539,19.0275867 0,18.6666991 L0,5.33349537 C0,4.97221885 0.132027319,4.65974771 0.396081958,4.39608196 C0.660136597,4.13241621 0.972607734,4.00038889 1.33349537,4 L22.6665046,4 C23.0277812,4 23.3402523,4.13202732 23.603918,4.39608196 C23.8675838,4.6601366 23.9996111,4.97260773 24,5.33349537 Z" id="path-1"></path>
    </defs>
    <g id="cc_visa" stroke="none" stroke-width="1" fill="none" fill-rule="evenodd">
        <mask id="mask-2" fill="white">
            <use xlink:href="#path-1"></use>
        </mask>
        <use id="Shape" fill="#000000" xlink:href="#path-1"></use>
    </g>
</svg>